<svg enable-background="new 0 0 629.3 378.3" viewBox="0 0 629.3 378.3" xmlns="http://www.w3.org/2000/svg" xmlns:xlink="http://www.w3.org/1999/xlink"><path d="m166 91.3c-129.2 0-163.4 158-163.4 158h617.8v-206s-221.2-106.1-362.3 13.6c-20.4 17.3-56.2 34.4-92.1 34.4z" fill="url(#a)"/><path d="m1.4 244.9h619.4v131.6h-619.4z" fill="url(#b)"/><path d="m1.4 239.1h619.4v5.8h-619.4z" fill="url(#c)"/><path d="m628 351.5-16.2 26" fill="url(#e)"/><path d="m604.6 363h30.6v3h-30.6z" fill="#fff" transform="matrix(.5292 -.8485 .8485 .5292 -17.4259 697.6298)"/><path d="m603.6 351.5-16.1 26" fill="url(#f)"/><path d="m580.2 363h30.6v3h-30.6z" fill="#fff" transform="matrix(.5292 -.8485 .8485 .5292 -28.8976 676.9561)"/><path d="m336.4 351.5-16.1 26" fill="url(#g)"/><path d="m313.1 363h30.6v3h-30.6z" fill="#fff" transform="matrix(.5292 -.8485 .8485 .5292 -154.7018 450.2374)"/><path d="m312.1 351.5-16.2 26" fill="url(#h)"/><path d="m288.7 363h30.6v3h-30.6z" fill="#fff" transform="matrix(.5292 -.8485 .8485 .5292 -166.1739 429.5628)"/><path d="m287.7 351.5-16.2 26" fill="url(#i)"/><path d="m264.3 363h30.6v3h-30.6z" fill="#fff" transform="matrix(.5292 -.8485 .8485 .5292 -177.6459 408.8886)"/><path d="m263.3 351.5-16.1 26" fill="url(#j)"/><path d="m240 363h30.6v3h-30.6z" fill="#fff" transform="matrix(.5292 -.8485 .8485 .5292 -189.1176 388.2149)"/><path d="m238.8 351.5-16.2 26" fill="url(#k)"/><path d="m215.4 363h30.6v3h-30.6z" fill="#fff" transform="matrix(.5292 -.8485 .8485 .5292 -200.6735 367.3893)"/><path d="m214.4 351.5-16.1 26" fill="url(#l)"/><path d="m191.1 363h30.6v3h-30.6z" fill="#fff" transform="matrix(.5292 -.8485 .8485 .5292 -212.1454 346.7151)"/><path d="m190.1 351.5-16.2 26" fill="url(#m)"/><path d="m166.7 363h30.6v3h-30.6z" fill="#fff" transform="matrix(.5292 -.8485 .8485 .5292 -223.6171 326.0414)"/><path d="m482.5 351.5-16.2 26" fill="url(#n)"/><path d="m459.1 363h30.6v3h-30.6z" fill="#fff" transform="matrix(.5292 -.8485 .8485 .5292 -85.9292 574.1762)"/><path d="m458.1 351.5-16.1 26" fill="url(#o)"/><path d="m434.8 363h30.6v3h-30.6z" fill="#fff" transform="matrix(.5292 -.8485 .8485 .5292 -97.4007 553.5029)"/><path d="m433.8 351.5-16.2 26" fill="url(#p)"/><path d="m410.4 363h30.6v3h-30.6z" fill="#fff" transform="matrix(.5292 -.8485 .8485 .5292 -108.8728 532.8282)"/><path d="m409.4 351.5-16.2 26" fill="url(#q)"/><path d="m386 363h30.6v3h-30.6z" fill="#fff" transform="matrix(.5292 -.8485 .8485 .5292 -120.3448 512.1541)"/><path d="m385 351.5-16.1 26" fill="url(#r)"/><path d="m361.7 363h30.6v3h-30.6z" fill="#fff" transform="matrix(.5292 -.8485 .8485 .5292 -131.8165 491.4803)"/><path d="m360.7 351.5-16.2 26" fill="url(#s)"/><path d="m337.3 363h30.6v3h-30.6z" fill="#fff" transform="matrix(.5292 -.8485 .8485 .5292 -143.2881 470.8065)"/><path d="m579.7 351.5-16.2 26" fill="url(#t)"/><path d="m556.3 363h30.6v3h-30.6z" fill="#fff" transform="matrix(.5292 -.8485 .8485 .5292 -40.1536 656.6709)"/><path d="m555.4 351.5-16.2 26" fill="url(#u)"/><path d="m532 363h30.6v3h-30.6z" fill="#fff" transform="matrix(.5292 -.8485 .8485 .5292 -51.6258 635.9963)"/><path d="m531 351.5-16.2 26" fill="url(#v)"/><path d="m507.6 363h30.6v3h-30.6z" fill="#fff" transform="matrix(.5292 -.8485 .8485 .5292 -63.0977 615.3221)"/><path d="m506.6 351.5-16.2 26" fill="url(#w)"/><path d="m483.2 363h30.6v3h-30.6z" fill="#fff" transform="matrix(.5292 -.8485 .8485 .5292 -74.5694 594.6484)"/><path d="m165.1 351.5-16.2 26" fill="url(#x)"/><path d="m141.7 363h30.6v3h-30.6z" fill="#fff" transform="matrix(.5292 -.8485 .8485 .5292 -235.394 304.8176)"/><path d="m43.9 351.5-16.2 26" fill="url(#y)"/><path d="m20.5 363h30.6v3h-30.6z" fill="#fff" transform="matrix(.5292 -.8485 .8485 .5292 -292.4257 202.0377)"/><path d="m19.6 351.5-16.2 26" fill="url(#z)"/><path d="m-3.8 363h30.6v3h-30.6z" fill="#fff" transform="matrix(.5292 -.8485 .8485 .5292 -303.8971 181.3644)"/><path d="m141.2 351.5-16.2 26" fill="url(#A)"/><path d="m117.8 363h30.6v3h-30.6z" fill="#fff" transform="matrix(.5292 -.8485 .8485 .5292 -246.65 284.5324)"/><path d="m116.8 351.5-16.2 26" fill="url(#B)"/><path d="m93.4 363h30.6v3h-30.6z" fill="#fff" transform="matrix(.5292 -.8485 .8485 .5292 -258.1222 263.8578)"/><path d="m92.4 351.5-16.2 26" fill="url(#C)"/><path d="m69 363h30.6v3h-30.6z" fill="#fff" transform="matrix(.5292 -.8485 .8485 .5292 -269.5941 243.1837)"/><path d="m68.1 351.5-16.2 26" fill="url(#D)"/><path d="m44.7 363h30.6v3h-30.6z" fill="#fff" transform="matrix(.5292 -.8485 .8485 .5292 -281.0658 222.5099)"/><path d="m619.9 352.1h-619.9" fill="url(#E)"/><path d="m0 350.5h619.9v3h-619.9z" fill="#fff"/><path d="m73.4 129.3h238.6v165.3h-238.6z" fill="none"/><path d="m304.2 333.4v5.3l5.3-3.8 52.1-34.3 5.4-3.4-5.4-3s-50.8-33.3-51.3-33.6l-5.9-3.9v5.1z" fill="url(#F)"/><path d="m302.3 342.4v-9l .1-80.3 8.8 5.9c.4.3 45.8 30 51.2 33.6l8.1 4.6-8.1 5-52 34.3zm3.9-82.3-.1 74.9 2.2-1.6 52.1-34.4 2.7-1.7-2.7-1.5c-17.4-11.4-50.6-33.2-51.3-33.6z" fill="#fff"/><path d="m285.5 264.5h8.7v2.8c0 1.1 0 1.8-.1 2.1-.1.5-.4.9-.8 1.3-.4.3-1 .5-1.7.5-.5 0-1-.1-1.4-.3s-.7-.4-.9-.7-.3-.6-.4-.9c-.1-.4-.1-1-.1-1.8v-1.2h-3.3zm7.3 1.8h-2.5v1c0 .7 0 1.2.1 1.4s.2.4.4.5.4.2.7.2.6-.1.8-.3.3-.4.4-.7c0-.2.1-.6.1-1.3z" fill="#fff"/><path d="m285.5 272.6h8.7v3.7c0 .9-.1 1.6-.2 2-.2.4-.4.8-.8 1-.4.3-.9.4-1.4.4-.6 0-1.2-.2-1.6-.6s-.7-1-.8-1.7c-.2.4-.5.7-.7.9-.3.2-.7.6-1.4 1l-1.7 1.1v-2.1l1.9-1.3c.7-.4 1.1-.8 1.3-.9.2-.2.3-.3.4-.5s.1-.5.1-.9v-.4h-3.6zm5.1 1.8v1.3c0 .9 0 1.4.1 1.6s.2.4.4.5.4.2.7.2.5-.1.7-.2c.2-.2.3-.4.4-.7 0-.1 0-.6 0-1.3v-1.4z" fill="#fff"/><path d="m285.5 281.4h8.7v1.8h-8.7z" fill="#fff"/><path d="m289.8 284.4c.9 0 1.6.1 2.2.4.4.2.8.5 1.2.8.4.4.6.7.8 1.1.2.6.4 1.2.4 1.9 0 1.3-.4 2.3-1.2 3.1s-1.9 1.2-3.3 1.2-2.5-.4-3.3-1.2-1.2-1.8-1.2-3.1.4-2.3 1.2-3.1c.7-.7 1.8-1.1 3.2-1.1zm.1 1.9c-1 0-1.7.2-2.2.7s-.8 1-.8 1.7.2 1.3.8 1.7c.5.5 1.3.7 2.3.7s1.8-.2 2.2-.7c.5-.4.7-1 .7-1.7s-.2-1.3-.7-1.8c-.6-.4-1.3-.6-2.3-.6z" fill="#fff"/><path d="m285.5 294.3h8.7v3.7c0 .9-.1 1.6-.2 2-.2.4-.4.8-.8 1-.4.3-.9.4-1.4.4-.6 0-1.2-.2-1.6-.6s-.7-1-.8-1.7c-.2.4-.5.7-.7 1-.3.2-.7.6-1.4 1l-1.7 1.1v-2.1l1.9-1.3c.7-.5 1.1-.8 1.3-.9.2-.2.3-.3.4-.5s.1-.5.1-.9v-.5h-3.6zm5 1.7v1.3c0 .9 0 1.4.1 1.6s.2.4.4.5.4.2.7.2.5-.1.7-.2c.2-.2.3-.4.3-.7 0-.1 0-.6 0-1.3v-1.4z" fill="#fff"/><path d="m285.5 303h8.7v1.8h-8.7z" fill="#fff"/><path d="m294.2 306.5v3.2c0 .7-.1 1.3-.2 1.7-.2.5-.4 1-.8 1.3-.4.4-.9.6-1.4.8-.6.2-1.2.3-2.1.3-.7 0-1.3-.1-1.9-.3s-1.1-.5-1.5-.9c-.3-.3-.5-.7-.7-1.2-.1-.4-.2-.9-.2-1.5v-3.3zm-1.5 1.7h-5.8v1.3c0 .5 0 .8.1 1.1s.2.5.4.7.4.3.8.5c.4.1.9.2 1.6.2s1.2-.1 1.6-.2.6-.3.8-.5.3-.5.4-.8c.1-.2.1-.7.1-1.4z" fill="#fff"/><path d="m285.4 323.1v-1.9l2-.8v-3.5l-2-.7v-1.9l8.7 3.4v1.9zm3.5-3.2 3.2-1.2-3.2-1.2z" fill="#fff"/><path d="m294.2 324.1v3.2c0 .7-.1 1.3-.2 1.7-.2.5-.4 1-.8 1.3-.4.4-.9.6-1.4.8-.6.2-1.2.3-2.1.3-.7 0-1.3-.1-1.9-.3s-1.1-.5-1.5-.9c-.3-.3-.5-.7-.7-1.2-.1-.4-.2-.9-.2-1.6v-3.3zm-1.5 1.7h-5.8v1.3c0 .5 0 .8.1 1.1s.2.5.4.7.4.3.8.5c.4.1.9.2 1.6.2s1.2-.1 1.6-.2.6-.3.8-.5.3-.5.4-.8c0-.3.1-.7.1-1.4z" fill="#fff"/><path d="m328.9 308.3c0-1.2-.4-2.4-1-3.4l2.5-2.1.9.2.7 1.9c.1.2.3.3.5.3s.4-.3.4-.5l-.2-4.6c0-.2-.2-.4-.4-.5-.2 0-.5.1-.5.4l-.6 2.1c-.2 0-.4-.1-.5-.1l.1-9 1.8.7h.2c.1 0 .3-.1.4-.2.2-.2.4-.3.5-.3s0 0 .1.1v2.4c0 .3.2.5.5.5s.5-.2.5-.5v-2.5c0-.1 0-.1 0-.2-.2-.6-.6-.8-.9-.8-.1 0-.1 0-.2 0-.4 0-.8.2-1 .4-.3-.1-1.6-.6-2.9-1.1l-.5-.2c-.4-.2-.8-.3-1.2-.4.6-.9.9-2 .9-3.2 0-3.4-2.8-6.2-6.2-6.2s-6.2 2.8-6.2 6.2 2.8 6.2 6.2 6.2c1.9 0 3.5-.8 4.7-2.1l.7.3-6.9 6.9s0 0-.1.1l-1.1.3c0-.2-.2-.4-.5-.4s-.5.2-.5.5v1.3c0 .3.2.5.5.5s.5-.2.5-.5v-.4l1.1-.4.3 2.3c-2.8.6-4.9 3.1-4.9 6 0 3.4 2.8 6.2 6.2 6.2 3.3-.1 6.1-2.8 6.1-6.2zm-6.2-15.5c-2.9 0-5.2-2.3-5.2-5.2s2.3-5.2 5.2-5.2 5.2 2.3 5.2 5.2c0 1.1-.3 2-.9 2.9-2.1-.7-3.9-3.1-3.9-3.1-.1-.1-.2-.2-.4-.2-.1 0-.2 0-.3.1-.2.1-.3.5-.1.7.1.1 1.8 2.4 4.1 3.4-1 .8-2.3 1.4-3.7 1.4zm.5 6.5.4-.1v.1.2c-.1-.1-.2-.2-.4-.2zm1.4-.1v-1.2c0-.3-.2-.5-.5-.5s-.5.2-.5.5v.1l-.7.2 6.1-6.1c.2.1.4.2.7.3 0 .5-.1 7.2-.1 9-1.1-.4-3.5-1.2-5.4-1.9.3 0 .4-.2.4-.4zm-2.5.7 7.2 2.5c-.5.4-1.2 1-2 1.7-1.1-1.2-2.7-2-4.5-2-.1 0-.2 0-.3 0-.2-.9-.4-1.7-.4-2.2zm.6 3.2c1.5 0 2.9.6 3.8 1.7-1.4 1.2-2.8 2.4-3.3 2.8-.1-.7-.4-2.6-.6-4.5zm-5.2 5.2c0-2.5 1.7-4.5 4-5.1l.8 5.3c0 .2.1.3.3.4s.3 0 .5-.1l4-3.4c.5.8.8 1.7.8 2.8 0 2.9-2.3 5.2-5.2 5.2-2.9.1-5.2-2.3-5.2-5.1z" fill="#fff"/><circle cx="459.5" cy="205.8" fill="url(#G)" opacity=".3" r="95.5"/><path d="m297.7 276.9h123.3l17.3-17.1-1-27.7h-139.6z" fill="url(#I)" opacity=".5"/><defs><linearGradient id="a" gradientUnits="userSpaceOnUse" x1="311.4685" x2="311.4685" y1="249.3694" y2="0"><stop offset="0" stop-color="#507e24"/><stop offset="1" stop-color="#8cc65b"/></linearGradient><linearGradient id="b" gradientUnits="userSpaceOnUse" x1="311.1375" x2="311.1375" y1="376.5335" y2="244.9407"><stop offset="0" stop-color="#3e444e"/><stop offset="1" stop-color="#1a2226"/></linearGradient><linearGradient id="c" gradientUnits="userSpaceOnUse" x1="1.4367" x2="620.8383" y1="242.0358" y2="242.0358"><stop offset="0" stop-color="#e5e5e4"/><stop offset="1" stop-color="#d8d8d7"/></linearGradient><linearGradient id="d"><stop offset="0" stop-color="#3bb44a"/><stop offset="1" stop-color="#3b834a"/></linearGradient><linearGradient id="e" gradientTransform="matrix(-1 0 0 1 3902.4436 0)" gradientUnits="userSpaceOnUse" x1="3274.4482" x2="3290.6279" xlink:href="#d" y1="364.5166" y2="364.5166"/><linearGradient id="f" gradientTransform="matrix(-1 0 0 1 3902.4436 0)" gradientUnits="userSpaceOnUse" x1="3298.8123" x2="3314.9932" xlink:href="#d" y1="364.5166" y2="364.5166"/><linearGradient id="g" gradientTransform="matrix(-1 0 0 1 3902.4436 0)" gradientUnits="userSpaceOnUse" x1="3566.0054" x2="3582.186" xlink:href="#d" y1="364.5166" y2="364.5166"/><linearGradient id="h" gradientTransform="matrix(-1 0 0 1 3902.4436 0)" gradientUnits="userSpaceOnUse" x1="3590.3696" x2="3606.5527" xlink:href="#d" y1="364.5166" y2="364.5166"/><linearGradient id="i" gradientTransform="matrix(-1 0 0 1 3902.4436 0)" gradientUnits="userSpaceOnUse" x1="3614.7363" x2="3630.916" xlink:href="#d" y1="364.5166" y2="364.5166"/><linearGradient id="j" gradientTransform="matrix(-1 0 0 1 3902.4436 0)" gradientUnits="userSpaceOnUse" x1="3639.1001" x2="3655.2812" xlink:href="#d" y1="364.5166" y2="364.5166"/><linearGradient id="k" gradientTransform="matrix(-1 0 0 1 3902.4436 0)" gradientUnits="userSpaceOnUse" x1="3663.6426" x2="3679.8257" xlink:href="#d" y1="364.5166" y2="364.5166"/><linearGradient id="l" gradientTransform="matrix(-1 0 0 1 3902.4436 0)" gradientUnits="userSpaceOnUse" x1="3688.0093" x2="3704.189" xlink:href="#d" y1="364.5166" y2="364.5166"/><linearGradient id="m" gradientTransform="matrix(-1 0 0 1 3902.4436 0)" gradientUnits="userSpaceOnUse" x1="3712.373" x2="3728.5542" xlink:href="#d" y1="364.5166" y2="364.5166"/><linearGradient id="n" gradientTransform="matrix(-1 0 0 1 3902.4436 0)" gradientUnits="userSpaceOnUse" x1="3419.9409" x2="3436.1211" xlink:href="#d" y1="364.5166" y2="364.5166"/><linearGradient id="o" gradientTransform="matrix(-1 0 0 1 3902.4436 0)" gradientUnits="userSpaceOnUse" x1="3444.3047" x2="3460.4854" xlink:href="#d" y1="364.5166" y2="364.5166"/><linearGradient id="p" gradientTransform="matrix(-1 0 0 1 3902.4436 0)" gradientUnits="userSpaceOnUse" x1="3468.6689" x2="3484.8521" xlink:href="#d" y1="364.5166" y2="364.5166"/><linearGradient id="q" gradientTransform="matrix(-1 0 0 1 3902.4436 0)" gradientUnits="userSpaceOnUse" x1="3493.0356" x2="3509.2153" xlink:href="#d" y1="364.5166" y2="364.5166"/><linearGradient id="r" gradientTransform="matrix(-1 0 0 1 3902.4436 0)" gradientUnits="userSpaceOnUse" x1="3517.3994" x2="3533.5806" xlink:href="#d" y1="364.5166" y2="364.5166"/><linearGradient id="s" gradientTransform="matrix(-1 0 0 1 3902.4436 0)" gradientUnits="userSpaceOnUse" x1="3541.7637" x2="3557.9453" xlink:href="#d" y1="364.5166" y2="364.5166"/><linearGradient id="t" gradientTransform="matrix(-1 0 0 1 3902.4436 0)" gradientUnits="userSpaceOnUse" x1="3322.7188" x2="3338.8994" xlink:href="#d" y1="364.5166" y2="364.5166"/><linearGradient id="u" gradientTransform="matrix(-1 0 0 1 3902.4436 0)" gradientUnits="userSpaceOnUse" x1="3347.083" x2="3363.2661" xlink:href="#d" y1="364.5166" y2="364.5166"/><linearGradient id="v" gradientTransform="matrix(-1 0 0 1 3902.4436 0)" gradientUnits="userSpaceOnUse" x1="3371.4497" x2="3387.6294" xlink:href="#d" y1="364.5166" y2="364.5166"/><linearGradient id="w" gradientTransform="matrix(-1 0 0 1 3902.4436 0)" gradientUnits="userSpaceOnUse" x1="3395.8135" x2="3411.9946" xlink:href="#d" y1="364.5166" y2="364.5166"/><linearGradient id="x" gradientTransform="matrix(-1 0 0 1 3902.4436 0)" gradientUnits="userSpaceOnUse" x1="3737.3862" x2="3753.5671" xlink:href="#d" y1="364.5166" y2="364.5166"/><linearGradient id="y" gradientTransform="matrix(-1 0 0 1 3902.4436 0)" gradientUnits="userSpaceOnUse" x1="3858.5149" x2="3874.6951" xlink:href="#d" y1="364.5166" y2="364.5166"/><linearGradient id="z" gradientTransform="matrix(-1 0 0 1 3902.4436 0)" gradientUnits="userSpaceOnUse" x1="3882.8787" x2="3899.0593" xlink:href="#d" y1="364.5166" y2="364.5166"/><linearGradient id="A" gradientTransform="matrix(-1 0 0 1 3902.4436 0)" gradientUnits="userSpaceOnUse" x1="3761.2927" x2="3777.4734" xlink:href="#d" y1="364.5166" y2="364.5166"/><linearGradient id="B" gradientTransform="matrix(-1 0 0 1 3902.4436 0)" gradientUnits="userSpaceOnUse" x1="3785.657" x2="3801.8401" xlink:href="#d" y1="364.5166" y2="364.5166"/><linearGradient id="C" gradientTransform="matrix(-1 0 0 1 3902.4436 0)" gradientUnits="userSpaceOnUse" x1="3810.0237" x2="3826.2034" xlink:href="#d" y1="364.5166" y2="364.5166"/><linearGradient id="D" gradientTransform="matrix(-1 0 0 1 3902.4436 0)" gradientUnits="userSpaceOnUse" x1="3834.3875" x2="3850.5686" xlink:href="#d" y1="364.5166" y2="364.5166"/><linearGradient id="E" gradientTransform="matrix(-1 0 0 1 3902.4436 0)" gradientUnits="userSpaceOnUse" x1="3282.5381" x2="3902.4436" xlink:href="#d" y1="352.0561" y2="352.0561"/><linearGradient id="F" gradientTransform="matrix(-1 0 0 -1 -5733.9331 392.226)" gradientUnits="userSpaceOnUse" x1="-6100.8135" x2="-6038.1069" xlink:href="#d" y1="94.5668" y2="94.5668"/><radialGradient id="G" cx="459.5446" cy="205.7795" gradientUnits="userSpaceOnUse" r="95.4663"><stop offset="0" stop-color="#d8d8d7" stop-opacity="0"/><stop offset="1" stop-color="#d8d8d7"/></radialGradient><linearGradient id="H"><stop offset="0" stop-color="#414141"/><stop offset=".9955" stop-color="#737373" stop-opacity="0"/></linearGradient><linearGradient id="I" gradientTransform="matrix(-1 0 0 1 2561.0713 0)" gradientUnits="userSpaceOnUse" x1="2122.7615" x2="2263.3308" xlink:href="#H" y1="254.5234" y2="254.5234"/><clipPath id="J"><path d="m471.2 153.8c1.5-7.4.2-12.3-7-14.7-9.7-3.2-12.9 4.3-12.9 8.3s-6.1 8.2-6.1 8.2 6.2 8.4 17.9 10.7c0 .1 6.7-5.1 8.1-12.5z"/></clipPath><linearGradient id="K"><stop offset="0" stop-color="#ee3f50"/><stop offset="1" stop-color="#d82538"/></linearGradient><linearGradient id="L" gradientTransform="matrix(-.415 -.1192 -.1718 .5981 -1268.6362 -191.3534)" gradientUnits="userSpaceOnUse" x1="-4030.2627" x2="-4099.5635" xlink:href="#K" y1="-250.3957" y2="-222.7771"/><linearGradient id="M" gradientTransform="matrix(1.0764 .6943 -.7261 .758 -2703.6055 -1194.5736)" gradientUnits="userSpaceOnUse" x1="2548.6887" x2="2568.7209" y1="-563.7922" y2="-563.7922"><stop offset="0" stop-color="#2b2b2b" stop-opacity="0"/><stop offset="1" stop-color="#737373"/></linearGradient><linearGradient id="N" gradientTransform="matrix(-.9962 -.08693837 -.08693837 .9962 -3024.488 -342.4319)" gradientUnits="userSpaceOnUse" x1="-3515.4819" x2="-3506.5515" y1="291.9641" y2="291.9641"><stop offset="0" stop-color="#414141"/><stop offset="1" stop-color="#737373"/></linearGradient><clipPath id="O"><path d="m458.8 165c8.7.9 4.4 15.1 6.6 17.9 1.7 2.2 8.5 7.2 12.1 9.2 1.9 1 5.6 2.8 6.4 3.4.9.5-1.1 3.9-1.5 3.9s-1-.4-1-.4-.3.5-.5.5c-.5 0-.9-1.3-.9-1.3s-15.7-7.5-19-9.9c-3.4-2.6-9.6-24.1-2.2-23.3z"/></clipPath><linearGradient id="P"><stop offset="0" stop-color="#fcb959"/><stop offset="1" stop-color="#f9a125"/></linearGradient><linearGradient id="Q" gradientTransform="matrix(-.9995 -.03238286 -.03238286 .9995 -3038.5598 -350.6625)" gradientUnits="userSpaceOnUse" x1="-3539.7417" x2="-3504.6853" xlink:href="#P" y1="416.6917" y2="416.6917"/><linearGradient id="R"><stop offset="0" stop-color="#737373" stop-opacity="0"/><stop offset="1" stop-color="#414141"/></linearGradient><linearGradient id="S" gradientTransform="matrix(.9349 .3548 -.3548 .9349 -3252.7427 -409.6596)" gradientUnits="userSpaceOnUse" x1="3672.2986" x2="3697.2954" xlink:href="#R" y1="-765.7505" y2="-765.7505"/><clipPath id="T"><path d="m440.4 238.7c1.2-7.2 6.5-9.9 5.6-14.7s-18-28.4-9.4-40.3c3.2-4.5 9.3-3.6 10.9-12.9 1.4-8.5 5.2-8.8 9.1-9.5s8.6 5.5 8.3 8.5c-.7 7.7-5.1 10.7-7.4 12.6s-4.3 6.6-4.3 6.6 2.8 18.5 2.9 31.2c.1 13.8-9.2 32.7-9.2 32.7-7.5-3.4-7.9-6.1-6.5-14.2z"/></clipPath><linearGradient id="U"><stop offset="0" stop-color="#d8d8d7"/><stop offset="1" stop-color="#e5e5e4"/></linearGradient><linearGradient id="V" gradientTransform="matrix(.8932 .4496 -.4496 .8932 -3211.7456 -412.596)" gradientUnits="userSpaceOnUse" x1="3519.2976" x2="3566.929" xlink:href="#U" y1="-1097.2126" y2="-1097.2126"/><linearGradient id="W"><stop offset="0" stop-color="#774a9c"/><stop offset="1" stop-color="#5c2d90"/></linearGradient><linearGradient id="X" gradientTransform="matrix(-.9907 .1361 .1361 .9907 -860.6533 26.4276)" gradientUnits="userSpaceOnUse" x1="-1298.6835" x2="-1261.671" xlink:href="#W" y1="324.865" y2="324.865"/><linearGradient id="Y"><stop offset="0" stop-color="#737373"/><stop offset="1" stop-color="#414141" stop-opacity="0"/></linearGradient><linearGradient id="Z" gradientTransform="matrix(.9142 .4054 -.4054 .9142 -3235.1279 -413.0423)" gradientUnits="userSpaceOnUse" x1="3596.6985" x2="3615.7905" xlink:href="#Y" y1="-957.4594" y2="-957.4594"/><linearGradient id="aa" gradientTransform="matrix(.9142 .4054 -.4054 .9142 -3235.1279 -413.0423)" gradientUnits="userSpaceOnUse" x1="3601.0906" x2="3614.7341" xlink:href="#Y" y1="-966.3308" y2="-966.3308"/><linearGradient id="ab" gradientTransform="matrix(-.9885 .1511 .1361 .8901 -3040.2644 -1072.1923)" gradientUnits="userSpaceOnUse" x1="-3263.5813" x2="-3237.8452" y1="2020.8484" y2="2020.8484"><stop offset="0" stop-color="#eb9122"/><stop offset="1" stop-color="#efa640"/></linearGradient><linearGradient id="ac" gradientTransform="matrix(.8968 .4424 -.4424 .8968 -3220.6953 -413.527)" gradientUnits="userSpaceOnUse" x1="3543.3245" x2="3594.1028" xlink:href="#R" y1="-1046.277" y2="-1046.277"/><linearGradient id="ad" gradientTransform="matrix(-.9246 -.3811 -.3811 .9246 -2925.8301 -277.9858)" gradientUnits="userSpaceOnUse" x1="-3329.3232" x2="-3320.3359" y1="-808.6977" y2="-808.6977"><stop offset="0" stop-color="#333"/><stop offset="1" stop-color="#656666"/></linearGradient><clipPath id="ae"><path d="m436.5 183.7 12.4 3.8s22.2 5.9 23.3 19.7c.9 11.5-16.2 32.2-16.2 32.2-6.5-5-5.4-11.1-2.2-18.6 2.8-6.7 6.9-8.3 6.6-10.1-.2-1.8-37.1-8.6-23.9-27z"/></clipPath><linearGradient id="af" gradientTransform="matrix(.9156 .2516 -.4954 .5686 -3249.2136 163.7074)" gradientUnits="userSpaceOnUse" x1="3255.6785" x2="3312.1516" xlink:href="#U" y1="-1394.7101" y2="-1394.7101"/><linearGradient id="ag" gradientTransform="matrix(-.9973 .07293875 .07293875 .9973 -3082.8032 -363.7885)" gradientUnits="userSpaceOnUse" x1="-3511.832" x2="-3478.9299" xlink:href="#P" y1="838.1139" y2="838.1139"/><linearGradient id="ah" gradientTransform="matrix(.9142 .4054 -.4054 .9142 -3235.1279 -413.0423)" gradientUnits="userSpaceOnUse" x1="3596.2739" x2="3645.1179" xlink:href="#R" y1="-925.6014" y2="-925.6014"/><clipPath id="ai"><path d="m452.3 169.4c3.6 2.6 3.1-1.7 9.7-4.1l1.3-8s2.2.4 3.1 0c1.8-.8 1-8.2-.5-10.3-.6-.8-2.4-1.2-4.3-1 0 0 1.2 3-.6 5.5s-4.3 3.5-4.3 3.5c-.1 7-4.4 14.4-4.4 14.4z"/></clipPath><linearGradient id="aj" gradientTransform="matrix(.9826 .1858 -.1858 .9826 1682.2008 -87.5258)" gradientUnits="userSpaceOnUse" x1="-1162.6265" x2="-1144.14" y1="468.3517" y2="468.3517"><stop offset="0" stop-color="#f9a125"/><stop offset="1" stop-color="#fcb959"/></linearGradient><linearGradient id="ak"><stop offset="0" stop-color="#414141"/><stop offset="1" stop-color="#737373" stop-opacity="0"/></linearGradient><linearGradient id="al" gradientTransform="matrix(-.9897 .143 .143 .9897 1904.088 -98.5276)" gradientUnits="userSpaceOnUse" x1="1458.8397" x2="1474.7948" xlink:href="#ak" y1="46.1519" y2="46.1519"/><linearGradient id="am" gradientTransform="matrix(-.9897 .143 .143 .9897 1904.088 -98.5276)" gradientUnits="userSpaceOnUse" x1="1461.4816" x2="1475.2139" xlink:href="#ak" y1="47.1766" y2="47.1766"/><linearGradient id="an"><stop offset="0" stop-color="#151b26"/><stop offset="1" stop-color="#323e57"/></linearGradient><linearGradient id="ao" gradientUnits="userSpaceOnUse" x1="488.625" x2="502.3589" xlink:href="#an" y1="202.9283" y2="202.9283"/><clipPath id="ap"><use xlink:href="#br"/></clipPath><linearGradient id="aq" gradientTransform="matrix(1 -.00624098 .00624098 1 -3838.7734 -804.9152)" gradientUnits="userSpaceOnUse" x1="4320.314500000001" x2="4336.0947" xlink:href="#an" y1="1035.5583" y2="1035.5583"/><linearGradient id="ar" gradientTransform="matrix(1 -.00624098 .00624098 1 -3838.7734 -804.9152)" gradientUnits="userSpaceOnUse" x1="4327.8281" x2="4327.8281" xlink:href="#an" y1="1048.6066" y2="1030.9048"/><linearGradient id="as" gradientUnits="userSpaceOnUse" x1="393.6441" x2="444.4153" xlink:href="#an" y1="251.5983" y2="251.5983"/><clipPath id="at"><use xlink:href="#bs"/></clipPath><linearGradient id="au" gradientTransform="matrix(-1 .00624098 -.00624098 -1 -4118.1362 6716.4404)" gradientUnits="userSpaceOnUse" x1="-4577.4048" x2="-4577.4048" xlink:href="#an" y1="6464.8887" y2="6407.9639"/><linearGradient id="av" gradientTransform="matrix(1 -.00624098 .00624098 1 -3838.7734 -804.9152)" gradientUnits="userSpaceOnUse" x1="4263.5234" x2="4263.5234" xlink:href="#an" y1="1098.6238" y2="1030.2797"/><linearGradient id="aw" gradientUnits="userSpaceOnUse" x1="478.629" x2="529.4002" xlink:href="#an" y1="251.0679" y2="251.0679"/><clipPath id="ax"><use xlink:href="#bt"/></clipPath><linearGradient id="ay" gradientTransform="matrix(1 -.00624098 .00624098 1 -3838.7734 -804.9152)" gradientUnits="userSpaceOnUse" x1="4335.5156" x2="4335.5156" xlink:href="#an" y1="1108.4465" y2="1057.5677"/><linearGradient id="az" gradientTransform="matrix(1 -.00624098 .00624098 1 -3838.7734 -804.9152)" gradientUnits="userSpaceOnUse" x1="4317.8472" x2="4317.8472" xlink:href="#an" y1="1134.5417" y2="1066.1978"/><clipPath id="aA"><path d="m397.2 233.1 6.7 5.1 17.3-.1c4 0 7.8 2 10 5.3l14.7-.1s-4-20.9-24.3-20.8c-16.4.1-24.4 10.6-24.4 10.6z"/></clipPath><linearGradient id="aB" gradientTransform="matrix(1 -.00624098 .00624098 1 -3838.7734 -804.9152)" gradientUnits="userSpaceOnUse" x1="4228.3721" x2="4277.9121" xlink:href="#K" y1="1065.1512" y2="1065.1512"/><linearGradient id="aC" gradientTransform="matrix(1 -.00624098 .00624098 1 -3838.7734 -804.9152)" gradientUnits="userSpaceOnUse" x1="4222.2563" x2="4266.5752" xlink:href="#Y" y1="1073.0385" y2="1073.0385"/><linearGradient id="aD" gradientUnits="userSpaceOnUse" x1="476.9329" x2="488.577" xlink:href="#an" y1="201.0785" y2="201.0785"/><clipPath id="aE"><use xlink:href="#bu"/></clipPath><linearGradient id="aF" gradientTransform="matrix(1 -.00624098 .00624098 1 -3838.7734 -804.9152)" gradientUnits="userSpaceOnUse" x1="4307.8955" x2="4322.0815" xlink:href="#an" y1="1038.0594" y2="1023.8735"/><linearGradient id="aG" gradientTransform="matrix(1 -.00624098 .00624098 1 -3838.7734 -804.9152)" gradientUnits="userSpaceOnUse" x1="4303.2402" x2="4319.6323" xlink:href="#an" y1="1035.144" y2="1035.144"/><clipPath id="aH"><path d="m482.6 207.6c.2.6.8 1 1.5.8l1.7-.5 3.9 11.3-2.1.8.1.2c.4 1.1 1.4 1.9 2.6 1.9l11.8 29.7c.6 1.5 2.4 2.3 3.9 1.5l-11.2-33.7c-.3-1-1.5-1.6-2.5-1.1l-3.9-11.2 1.3-.4c.6-.2.9-.8.8-1.5v-.1c-.2-.6-.9-1-1.5-.8l-5.5 1.8c-.7 0-1 .7-.9 1.3z"/></clipPath><linearGradient id="aI" gradientTransform="matrix(1 -.00624098 .00624098 1 -3838.7734 -804.9152)" gradientUnits="userSpaceOnUse" x1="4313.7729" x2="4338.0625" xlink:href="#K" y1="1060.5347" y2="1060.5347"/><linearGradient id="aJ" gradientTransform="matrix(.2361 -.07754868 .3121 .9501 -4587.5332 -578.8848)" gradientUnits="userSpaceOnUse" x1="18392.4863" x2="18421.3477" xlink:href="#Y" y1="2352.5403" y2="2352.5403"/><clipPath id="aK"><path d="m444.9 208.8h2.5v38.3h-2.5z" transform="matrix(.9378 -.3471 .3471 .9378 -51.3919 169.0341)"/></clipPath><linearGradient id="aL"><stop offset=".08571827" stop-color="#737373" stop-opacity="0"/><stop offset="1" stop-color="#424343"/></linearGradient><linearGradient id="aM" gradientTransform="matrix(.2724 .3004 .2803 .9437 -4777.2417 -629.4041)" gradientUnits="userSpaceOnUse" x1="27103.7676" x2="27134.252" xlink:href="#aL" y1="-7733.0615" y2="-7733.0615"/><clipPath id="aN"><path d="m420.2 247.6-2.7-4.1 18.2-20.1 8.9-3.1 9.9 26h-2.9l-8-21.6-4.5.1z"/></clipPath><linearGradient id="aO" gradientTransform="matrix(1.0062 .03395339 0 1.0454 -3816.3335 -978.3318)" gradientUnits="userSpaceOnUse" x1="4209.1865" x2="4242.6758" xlink:href="#aL" y1="1025.3297" y2="1025.3297"/><linearGradient id="aP" gradientUnits="userSpaceOnUse" x1="429.7133" x2="449.517" xlink:href="#an" y1="208.4713" y2="208.4713"/><clipPath id="aQ"><use xlink:href="#bv"/></clipPath><linearGradient id="aR" gradientTransform="matrix(1 -.00624098 .00624098 1 -3838.7734 -804.9152)" gradientUnits="userSpaceOnUse" x1="4257.7593" x2="4282.842300000001" xlink:href="#an" y1="1040.0966" y2="1040.0966"/><linearGradient id="aS" gradientTransform="matrix(1 -.00624098 .00624098 1 -3838.7734 -804.9152)" gradientUnits="userSpaceOnUse" x1="4264.1606" x2="4264.1606" xlink:href="#an" y1="1053.1508" y2="1037.8157"/><clipPath id="aT"><path d="m487.6 219.9-13.3 25.1c-2.5 4.8-7.4 7.9-12.9 7.9 0 3.3-2.3 7.9-8 8-5.2 0-9-2.9-9.1-9.4l-21.6.1-5.3-8.1h2.4l2 2.7s23.9-.1 32.2-.2c8.4-.1 12.2-2.5 15.3-7.6s15-26.2 15-26.2v-4.6l1.7-.5 4.5 12.5z"/></clipPath><linearGradient id="aU"><stop offset="0" stop-color="#d9d9d8"/><stop offset="1" stop-color="#e5e5e4"/></linearGradient><linearGradient id="aV" gradientTransform="matrix(1 -.00624098 .00624098 1 -3838.7734 -804.9152)" gradientUnits="userSpaceOnUse" x1="4249.519" x2="4325.0767" xlink:href="#aU" y1="1065.1726" y2="1065.1726"/><linearGradient id="aW" gradientTransform="matrix(1 -.00624098 .00624098 1 -3838.7734 -804.9152)" gradientUnits="userSpaceOnUse" x1="4281.7231" x2="4288.729000000001" xlink:href="#an" y1="1085.1962" y2="1085.1962"/><linearGradient id="aX" gradientTransform="matrix(1 -.00624098 .00624098 1 -3838.7734 -804.9152)" gradientUnits="userSpaceOnUse" x1="4248.4258" x2="4324.6113" xlink:href="#Y" y1="1067.6857" y2="1067.6857"/><linearGradient id="aY" gradientTransform="matrix(-.5661 -.2091 .2155 -.5835 -3766.3806 -404.1659)" gradientUnits="userSpaceOnUse" x1="-6938.3384" x2="-6934.2056" xlink:href="#aU" y1="1366.0499" y2="1365.5159"/><linearGradient id="aZ" gradientTransform="matrix(-.2075 .5667 -.3197 -.1171 -2279.6904 -2269.979)" gradientUnits="userSpaceOnUse" x1="2351.1218" x2="2358.073" xlink:href="#an" y1="-10085.3828" y2="-10088.3184"/><clipPath id="a0"><path d="m463.7 184c2.2 1.7 18.7-1.5 20.3-2.6 1.5-1.1 3 1.6 5.8.5 1.3-.5 3.4-4.4 1.4-6.4-1.3-1.3-3.9-1.6-4.9-1.2-.2.1.4-3.6-1.3-3.4-1.1.1-.6 4.1-.6 4.1s-1 2.7-1.9 2.9c-1.7.3-15.7-.5-15.7-.5s-9.4-17.3-16.5-14.1c-9.3 4.4 10.3 18.3 13.4 20.7z"/></clipPath><linearGradient id="a1" gradientTransform="matrix(1.3569 .6568 -.4357 .9001 -991.4128 522.8203)" gradientUnits="userSpaceOnUse" x1="753.4468" x2="788.6937" y1="-949.0898" y2="-949.0898"><stop offset="0" stop-color="#ffc75b"/><stop offset="1" stop-color="#fbb324"/></linearGradient><linearGradient id="a2" gradientTransform="matrix(.8142 .3124 -.2966 .7729 -629.7401 916.9571)" gradientUnits="userSpaceOnUse" x1="874.1628" x2="869.0172" xlink:href="#R" y1="-1300.7589" y2="-1324.2246"/><clipPath id="a3"><path d="m1.4 132.2h232.9v152.2h-232.9z"/></clipPath><linearGradient id="a4" gradientTransform="matrix(-1 0 0 1 2561.0713 0)" gradientUnits="userSpaceOnUse" x1="2403.658" x2="2634.0544" xlink:href="#H" y1="253.8153" y2="253.8153"/><clipPath id="a5"><path d="m-37.1 253.8h249.9c8.2 0 14.9-6.7 14.9-14.9v-13.5l-33.8-77.7c-4.1-9.3-13.3-15.4-23.5-15.4h-220.5v108.5c0 7.2 5.8 13 13 13z"/></clipPath><linearGradient id="a6" gradientTransform="matrix(-1 0 0 1 2561.0713 0)" gradientUnits="userSpaceOnUse" x1="2333.377" x2="2635.6411" xlink:href="#W" y1="193.6015" y2="193.6015"/><linearGradient id="a7"><stop offset="0" stop-color="#414141" stop-opacity="0"/><stop offset="1" stop-color="#737373"/></linearGradient><linearGradient id="a8" gradientTransform="matrix(-1 0 0 1 2561.0713 0)" gradientUnits="userSpaceOnUse" x1="2333.377" x2="2613.104" xlink:href="#a7" y1="229.5377" y2="229.5377"/><linearGradient id="a9" gradientTransform="matrix(-1 0 0 1 2561.0713 0)" gradientUnits="userSpaceOnUse" x1="2287.5549" x2="2493.4937" xlink:href="#a7" y1="207.4811" y2="207.4811"/><linearGradient id="ba" gradientTransform="matrix(-1 0 0 1 2561.0713 0)" gradientUnits="userSpaceOnUse" x1="2333.377" x2="2347.1306" y1="233.5958" y2="233.5958"><stop offset="0" stop-color="#fbb324"/><stop offset="1" stop-color="#ffc75b"/></linearGradient><clipPath id="bb"><path d="m225 206.5-27.2-64.5h-17.4l20.4 48.5c4.1 9.7 13.6 16 24.2 16z"/></clipPath><linearGradient id="bc"><stop offset="0" stop-color="#d8d8d7"/><stop offset="1" stop-color="#d8d8d7" stop-opacity="0"/></linearGradient><linearGradient id="bd" gradientTransform="matrix(-1 0 0 1 2561.0713 0)" gradientUnits="userSpaceOnUse" x1="2346.116" x2="2382.4402" xlink:href="#bc" y1="172.2344" y2="172.2344"/><clipPath id="be"><path d="m140.8 151.5c0-2.9 2.3-5.2 5.2-5.2h18.5c2.1 0 4 1.3 4.8 3.3l18 44.4h-46.5zm-14.8 42.5v-41.6c0-3.4-2.7-6.1-6.1-6.1h-32.5c-3.4 0-6.1 2.7-6.1 6.1v41.6zm-59.5 0v-41.6c0-3.4-2.7-6.1-6.1-6.1h-32.5c-3.4 0-6.1 2.7-6.1 6.1v41.6zm-59.8 0v-41.6c0-3.4-2.7-6.1-6.1-6.1h-32.6c-3.4 0-6.1 2.7-6.1 6.1v41.6z"/></clipPath><linearGradient id="bf" gradientTransform="matrix(-1 0 0 1 2561.0713 0)" gradientUnits="userSpaceOnUse" x1="2394.4463" x2="2422.2158" xlink:href="#bc" y1="159.1469" y2="159.1469"/><linearGradient id="bg" gradientTransform="matrix(-1 0 0 1 2561.0713 0)" gradientUnits="userSpaceOnUse" x1="2453.0281" x2="2480.7976" xlink:href="#bc" y1="159.1469" y2="159.1469"/><linearGradient id="bh" gradientTransform="matrix(-1 0 0 1 2561.0713 0)" gradientUnits="userSpaceOnUse" x1="2514.7361" x2="2541.2078" xlink:href="#bc" y1="159.1469" y2="159.1469"/><linearGradient id="bi" gradientTransform="matrix(-1 0 0 1 2561.0713 0)" gradientUnits="userSpaceOnUse" x1="2366.0857" x2="2441.23" xlink:href="#a7" y1="235.5478" y2="235.5478"/><linearGradient id="bj" gradientTransform="matrix(-1 0 0 1 2561.0713 0)" gradientUnits="userSpaceOnUse" x1="2504.6208" x2="2579.7654" xlink:href="#a7" y1="235.5478" y2="235.5478"/><clipPath id="bk"><ellipse cx="157.4" cy="253.8" rx="22.6" ry="28.4" transform="matrix(.7071 -.7071 .7071 .7071 -133.3692 185.6489)"/></clipPath><linearGradient id="bl" gradientTransform="matrix(-1 0 0 1 2561.0713 0)" gradientUnits="userSpaceOnUse" x1="2375.9851" x2="2431.3306" xlink:href="#an" y1="253.8153" y2="253.8153"/><linearGradient id="bm" gradientTransform="matrix(-1 0 0 1 2561.0713 0)" gradientUnits="userSpaceOnUse" x1="2360.8088" x2="2423.3811" xlink:href="#a7" y1="265.3782" y2="265.3782"/><clipPath id="bn"><ellipse cx="18.9" cy="253.8" rx="22.6" ry="28.4" transform="matrix(.7071 -.7071 .7071 .7071 -173.9452 87.6897)"/></clipPath><linearGradient id="bo" gradientTransform="matrix(-1 0 0 1 2561.0713 0)" gradientUnits="userSpaceOnUse" x1="2514.5203" x2="2569.866" xlink:href="#an" y1="253.8153" y2="253.8153"/><linearGradient id="bp" gradientTransform="matrix(-1 0 0 1 2561.0713 0)" gradientUnits="userSpaceOnUse" x1="2499.344" x2="2561.9163" xlink:href="#a7" y1="265.3782" y2="265.3782"/><linearGradient id="bq" gradientUnits="userSpaceOnUse" x1="255.253" x2="295.0813" xlink:href="#d" y1="144.8783" y2="144.8783"/><path id="br" d="m499.6 195 .1 13.3c0 1.4-1.1 2.5-2.4 2.5l-8.6.1v2.7l9.5-.1c2.4 0 4.3-1.9 4.3-4.3l-.1-16.9c-1.6 0-2.8 1.2-2.8 2.7z"/><path id="bs" d="m444.4 251.4c-.1-14-11.5-25.3-25.5-25.2s-25.3 11.5-25.2 25.5 11.5 25.3 25.5 25.2 25.3-11.4 25.2-25.5zm-42.7.3c-.1-9.6 7.6-17.4 17.2-17.4s17.4 7.6 17.4 17.2c.1 9.6-7.6 17.4-17.2 17.4-9.5.1-17.3-7.6-17.4-17.2z"/><path id="bt" d="m478.6 251.2c.1 14 11.5 25.3 25.5 25.2s25.3-11.5 25.2-25.5-11.5-25.3-25.5-25.2-25.3 11.5-25.2 25.5zm42.7-.2c.1 9.6-7.6 17.4-17.2 17.4-9.6.1-17.4-7.6-17.4-17.2s7.6-17.4 17.2-17.4c9.6-.1 17.4 7.6 17.4 17.2z"/><path id="bu" d="m488.4 207.1-2.6.7c-.1-8.1-8.8-7.8-8.8-13.5 0 0 4.2 0 8.5-.1 4.1.1 2.9 12.9 2.9 12.9z"/><path id="bv" d="m430.3 205.8c-2.6 3 4.1 6.7 4.1 6.7s15.9.6 15-3.9-6.1-2.3-9.5-2.4c-3.3-.1-6.6-3.7-9.6-.4z"/></defs><path clip-path="url(#J)" d="m442.2 161.9 25.6 7.3 8-27.8-25.6-7.4z" fill="url(#L)"/><path clip-path="url(#J)" d="m466.4 149.3c-.7.8-1.4 1.5-2.2 2.1-3 2.1-7.3 1.4-9.4-1.5-2.6-3.6-5.7-2.8-8.2.7-2.1 2.9-2.5 7.1-.7 10.3 1.3 2.3 3.9 4.3 6.1 5.9 2.3 1.7 5.3 2.3 8.1 1.9 3.9-.6 7.4-3.1 9.7-6.3s3.6-7.1 4.3-11c .2-1.2.4-2.5 0-3.7-1-3.7-4.3-2.2-6.2-.2-.4.5-1 1.2-1.5 1.8z" fill="url(#M)" opacity=".75"/><path d="m452.1 256.4c-.1.3-.4.6-.7.5-1-.1-2-.2-4-.4-1.9-.2-4.9-3.2-3.6-5.4s3.1 1.7 3.1 1.7l4.9 2.8c.2.2.4.5.3.8z" fill="url(#N)"/><path clip-path="url(#O)" d="m485.2 200.4-34.9-5.4 3-33.7 28.6-.9z" fill="url(#Q)"/><path clip-path="url(#O)" d="m455.4 179.9c-.1-.3-.3-.6-.4-.9-.9-1.9-1.6-4.2-.9-6.4s2.8-3.9 4.8-3.9c4.2.1 4 5.2 3.8 8.8-.1 2.4-.1 4.7.8 6.7.4.9 1.5 1.4 2.3 1.9 1 .6 2 1.1 3 1.7 1.8 1.1 3.4 2.6 3.9 4.8.2.8.1 1.8-.5 2.4-.6.7-1.5.6-2.3.4-1.6-.4-3-1.4-4.3-2.3-1.8-1.2-3.5-2.5-5.3-3.7-1.5-1.1-3.3-2.1-3.3-4.4-.1-1.9-.8-3.5-1.6-5.1z" fill="url(#S)" opacity=".3"/><path clip-path="url(#T)" d="m467.5 211.3-33.7 8.1-6.6-34 31-4.8z" fill="url(#V)"/><path clip-path="url(#T)" d="m465.8 190.9-30.7-2.7 2.7-31.1 30.8 2.7z" fill="url(#X)"/><path clip-path="url(#T)" d="m440.5 186.6c3 .6 5.5 1.8 8.7 1.5 1-.1 2-.4 2.7-1.1s.9-1.8 1.1-2.8c.6-2.8 1.8-5.5 3.4-7.9 1.5-2.2 4.2-3.8 5.2-6.3.8-1.8 1.2-3.8.8-5.7-.3-1.5-1.4-3-2.8-3.6-12.8-5.7-25.2 23.4-25.2 23.4s4.7 2.2 6.1 2.5z" fill="url(#Z)" opacity=".75"/><path clip-path="url(#T)" d="m462.1 166.4s-2.1-5.3-5.4-6.7c-8.5-3.8-10 10.2-10 10.2z" fill="url(#aa)" opacity=".75"/><path clip-path="url(#T)" d="m439 260.7s-4.6-43.6-3.4-43.6c13.3.2 21.6-7.5 21.6-7.5.8 5.9-5.1 49.3-5.1 49.3z" fill="url(#ab)"/><path clip-path="url(#T)" d="m455.3 225.6c-2.2-4.6-5.4-8.8-6.3-13.7-.9-4.7-1.8-5.1-1.8-9.5 0-3.5-.7-7.6-2.5-10.7-1.5-2.5-4-4.7-6.9-5.4-5.2-1.4-5.8 6.3-6.2 9.8-.4 3.8 6.2 13 7.6 14.6 1.8 2.2 3.6 4.4 5.4 6.6 1.3 1.6 2.6 3.2 3.3 5.2 1.2 3.3.3 7-1.2 10.1-1.6 3.2-3.9 6-5.8 9.1-1.8 2.9-3.4 6.2-4 9.7-.6 3.6-.1 7.5 1.9 10.4 2 3 5.6 4.9 8.9 4.1 4-.9 6.7-5 8.3-9 4.2-10.1 3.8-21.8-.7-31.3z" fill="url(#ac)" opacity=".3"/><path d="m459.7 244.7-2.4.4c-1.9-1.3-6.3-7.3-3.8-7.9s2.4 2.3 2.4 2.3 4.1 4.9 3.8 5.2z" fill="url(#ad)"/><path clip-path="url(#ae)" d="m469.9 209.3-37.6 4.3-4.4-29.6 37.2-3.4z" fill="url(#af)"/><path clip-path="url(#ae)" d="m456.8 242.9-7.8-11.1 6.2-21.4s5.4-2.1 8.3-7.2 2.3-11.4 2.3-11.4l14.4 15.5z" fill="url(#ag)"/><path clip-path="url(#ae)" d="m436.3 197.5c4.9 2.2 10.4 2.8 15.8 2.5 3.5-.2 8.1-1.9 11.5-1.9 4.5.1 9.5 2.6 9.9 7.4.7 7.7-1.5 15.6-6.2 21.7-.9 1.3-2 2.5-3.4 3.2s-3.2.8-4.5-.2-1.7-2.9-1.8-4.5c-.2-3.1.3-6.3 1.5-9.3.4-1 .8-2 1-3.1s0-2.2-.7-3c-.9-1-2.4-1.2-3.7-.9s-2.4 1-3.6 1.5c-3.5 1.6-10.8.7-14.4-.8-2.7-1.1-5.2-2.9-7-5.1s-1.4-5.3-1.5-8.1c0-.3-.1-2.6.4-2.6 1.5.2 5.2 2.5 6.7 3.2z" fill="url(#ah)" opacity=".3"/><path clip-path="url(#ai)" d="m461.6 170.3-12.9-20.6 15.6-7.2v.1l9.2 19.8zm-12.6-20.5 12.7 20.2 11.6-7.7-9.1-19.6z" fill="#6d6e70"/><path clip-path="url(#ai)" d="m450.4 169.5 5.8 4.9 16.6-24.2-14.1-9.4z" fill="url(#aj)"/><path clip-path="url(#ai)" d="m466.2 154-1.2.1-1-4s-2.9-.4-3.5 1c-.7 1.5.3 3.6 2.2 5 1.8 1.3 4.1 1.1 4.1 1.1s-7.4 3.9-8.6 10.4c-.6 3.1-5.6 1.5-5.6 1.5l3.5-20.9s.6-4.5 6.2-3.4c2.3.4 4 2.6 3.9 9.2z" fill="url(#al)" opacity=".3"/><path clip-path="url(#ai)" d="m458.9 151.8s3.2-3.2-.6-5.7c-3.5-2.3-3.8 18.2-6.3 21.1 0 0 3.1 8.1 4.7-.3 1.6-8.3 7.8-9.5 7.8-9.5s-4.8-.8-5.6-5.6z" fill="url(#am)" opacity=".3"/><use fill="url(#ao)" xlink:href="#br"/><g clip-path="url(#ap)"><path d="m503.8 215.1-15.8.1-.1-23 15.7-.1z" fill="url(#aq)"/></g><path clip-path="url(#ap)" d="m502.8 202.5c5.3 8.7-3.7 17.8-12.5 12.6-.9-.5-1.6-1.2-2.1-2.1-5.3-8.7 3.7-17.8 12.5-12.6.8.6 1.6 1.3 2.1 2.1z" fill="url(#ar)" opacity=".75"/><use fill="url(#as)" xlink:href="#bs"/><path clip-path="url(#at)" d="m392.9 223.2 51.9-.3.4 56.9-52 .4z" fill="url(#au)"/><path clip-path="url(#at)" d="m459.6 212.7c20 33.4-14.5 68.3-48.1 48.7-3.4-2-6.3-4.9-8.4-8.3-20-33.4 14.5-68.3 48.1-48.7 3.5 2 6.3 4.9 8.4 8.3z" fill="url(#av)" opacity=".75"/><use fill="url(#aw)" xlink:href="#bt"/><path clip-path="url(#ax)" d="m529.6 276.3-52 .3-.3-50.9 51.9-.3z" fill="url(#ay)"/><path clip-path="url(#ax)" d="m514.1 248.3c20 33.4-14.5 68.3-48.1 48.7-3.4-2-6.3-4.9-8.4-8.3-20-33.4 14.5-68.3 48.1-48.7 3.5 2 6.4 4.8 8.4 8.3z" fill="url(#az)" opacity=".75"/><path clip-path="url(#aA)" d="m445.8 244.7-49.5.3-.2-22.3 49.6-.3z" fill="url(#aB)"/><path clip-path="url(#aA)" d="m430.5 228.4c13.2 21.7-9.4 44.6-31.3 31.7-2.1-1.3-3.9-3-5.2-5.2-13.2-21.7 9.4-44.6 31.3-31.7 2.1 1.3 3.9 3 5.2 5.2z" fill="url(#aC)" opacity=".75"/><use fill="url(#aD)" xlink:href="#bu"/><path clip-path="url(#aE)" d="m489.4 206.5-13.5.1-.1-14.9 13.5-.1z" fill="url(#aF)"/><path clip-path="url(#aE)" d="m485.8 198.5c4.8 8-3.5 16.4-11.5 11.7-.8-.5-1.5-1.2-2-2-4.8-8 3.5-16.4 11.5-11.7.8.4 1.6 1.1 2 2z" fill="url(#aG)"/><path clip-path="url(#aH)" d="m506 254.2-24.3.1-.3-51.3 24.3-.1z" fill="url(#aI)"/><path clip-path="url(#aH)" d="m504 252.5-6.8 2.2-16.3-49.7 6.8-2.2z" fill="url(#aJ)" opacity=".75"/><path clip-path="url(#aK)" d="m438.2 206.6 14.5 39.3" fill="#e32f44"/><path clip-path="url(#aK)" d="m436.1 209.5h9.3v13.5h-9.3z" fill="#e4e4e2" transform="matrix(1 -.00624097 .00624097 1 -1.3409 2.7549)"/><path clip-path="url(#aK)" d="m442.7 230.8 3.9-1.4-7-19.7-4 1.5z" fill="url(#aM)" opacity=".4"/><path clip-path="url(#aN)" d="m417.5 218.2h36.4v29.3h-36.4z" fill="#e32f44" transform="matrix(1 -.00624097 .00624097 1 -1.4449 2.7233)"/><path clip-path="url(#aN)" d="m428.5 254.7 24.1-8.7-9.7-26.6-24 8.7z" fill="url(#aO)" opacity=".4"/><use fill="url(#aP)" xlink:href="#bv"/><path clip-path="url(#aQ)" d="m450.5 212.9-25.1.2v-9l25.1-.1z" fill="url(#aR)"/><path clip-path="url(#aQ)" d="m438.2 209.4c4.5 7.5-3.3 15.3-10.8 10.9-.8-.5-1.4-1.1-1.9-1.9-4.5-7.5 3.3-15.3 10.8-10.9.8.5 1.4 1.1 1.9 1.9z" fill="url(#aS)" opacity=".75"/><path clip-path="url(#aT)" d="m493.1 262.1-75.6.5-.4-57.8 75.6-.4z" fill="url(#aV)"/><g clip-path="url(#aT)"><path d="m456 251.4c2.2 3.5-1.5 7.2-5 5-.3-.2-.5-.4-.7-.7-2.2-3.5 1.5-7.2 5-5 .3.1.5.4.7.7z" fill="url(#aW)"/></g><path clip-path="url(#aT)" d="m492.3 216.9-3.7-8.6-17.7 32.4c-2.8 4.5-7.8 7.2-13.1 7.2l-41.5.6.1 15.2 49.2-.7z" fill="url(#aX)" opacity=".4"/><path d="m455.8 244.5 1.3.5-3.3 8.8c-.1.2-.4.4-.6.3l-.4-.1c-.2-.1-.4-.4-.3-.6z" fill="url(#aY)"/><path d="m453.6 244.3.1-.4c.1-.2.4-.4.6-.3l4.2 1.5c.2.1.4.4.3.6l-.1.4c-.1.2-.4.4-.6.3l-4.2-1.5c-.3-.1-.4-.3-.3-.6z" fill="url(#aZ)"/><path clip-path="url(#a0)" d="m438 176.7 47.4 20.1 13.3-23.5-49-20.6z" fill="url(#a1)"/><path clip-path="url(#a0)" d="m457.5 164.2c3.7 2.9 8 8.3 11.3 10.6s13.8 3.1 13.8 1c .1-2.9 2.2-5.9 3.3-5.6.6.1.7 2.6 1.5 3.3.7.5 2.4-.2 2.8.6s1.4 1.5 1.8 2.3c.3.6-.2 4.7-.7 5.6-.4.7-21.6 3.9-26 2.2-3.7-1.4-19-13.5-18.3-18.5s6.6-4.6 10.5-1.5z" fill="url(#a2)" opacity=".5"/><g fill="#fff"><path d="m459.5 290.7c-46.8 0-84.9-38.1-84.9-84.9 0-23.3 9.2-45 26-61.2l1.4 1.4c-16.4 15.8-25.4 37-25.4 59.7 0 45.7 37.2 82.9 82.9 82.9s82.9-37.2 82.9-82.9c0-22.9-9.6-44.9-26.3-60.6l1.4-1.5c17.1 16 26.9 38.6 26.9 62 .1 47-38 85.1-84.9 85.1z" opacity=".5"/><path d="m413.7 143.1-4.2 3.2 1.2 3.1-3.1 2.3-5.8-16.5 3.3-2.5 14.3 10-3.1 2.3zm-5.3.3 2.8-2.1-5-3.7h-.1z"/><path d="m421.8 131.6-1.2.7c-.4.2-.7.4-.8.7-.2.3-.3.6-.2.9l3.9 7.1-3.4 1.8-5.9-10.8 3.2-1.7 1 1.5c-.1-.7 0-1.3.2-1.8s.6-.9 1.1-1.2c.2-.1.3-.2.5-.2s.3-.1.5-.2z"/><path d="m425.9 122.9 1.2 2.8 1.9-.8 1 2.5-1.9.8 2.1 5.2c.2.4.4.7.6.8s.5.1.8 0c .2-.1.4-.2.5-.2.1-.1.3-.2.5-.3l1.3 2.5c-.4.3-.7.5-1 .6-.3.2-.7.3-1.1.5-1.2.5-2.2.5-3.1.1s-1.6-1.2-2.1-2.6l-2.1-5.3-1.6.7-1-2.5 1.6-.7-1.2-2.8z"/><path d="m432.6 119 3.8-1.1v.1l-2.2 3.8-3 .9zm6.4 15.8-3.7 1.1-3.5-11.8 3.7-1.1z"/><path d="m445.6 130.5c.5-.1.9-.3 1.1-.6s.3-.7.2-1.3l3.5-.6v.1c.3 1.3 0 2.5-.8 3.5s-1.9 1.6-3.4 1.9c-1.8.3-3.4 0-4.6-1s-2-2.4-2.3-4.2v-.3c-.3-1.8-.1-3.4.7-4.7s2.1-2.1 3.9-2.5c1.5-.3 2.8 0 3.9.7s1.7 1.8 1.9 3.3v.1l-3.5.6c-.1-.6-.3-1-.6-1.3s-.7-.4-1.3-.3c-.7.1-1.2.5-1.4 1.1s-.2 1.5 0 2.4v.3c.2 1 .5 1.8.8 2.3.6.5 1.2.7 1.9.5z"/><path d="m459.5 130.7c-.4.6-.9 1-1.4 1.3s-1.2.5-1.9.5c-1.3 0-2.3-.4-3-1.2s-1.1-2.1-1.2-3.8l-.1-7.5 3.8-.1.1 7.5c0 .7.2 1.2.4 1.5.3.3.6.5 1.1.5.4 0 .8-.1 1.1-.2s.6-.3.8-.5l-.1-8.9 3.9-.1.2 12.3-3.4.1z"/><path d="m468.7 132.9-3.8-.4 2-17.7 3.8.4z"/><path d="m471.6 126.8c.4-1.8 1.3-3.1 2.6-4s2.9-1.1 4.7-.7 3.1 1.3 3.9 2.7.9 3 .5 4.8l-.1.2c-.4 1.8-1.3 3.2-2.6 4-1.3.9-2.8 1.1-4.7.7-1.8-.4-3.1-1.3-3.9-2.7-.7-1.4-.9-3-.5-4.8zm3.6 1.1c-.2 1-.3 1.8-.1 2.5.2.6.6 1.1 1.4 1.2.7.2 1.3 0 1.8-.5s.8-1.2 1-2.2l.1-.2c.2-1 .3-1.8.1-2.5s-.6-1.1-1.4-1.3c-.7-.2-1.3 0-1.8.5s-.8 1.3-1 2.2z"/><path d="m499.8 136.9 1.5.8-1.4 2.6-1.5-.8-1.6 3.1-3.4-1.8 1.6-3.1-5.7-3 .9-2.2 10.9-6.4 3.4 1.8zm-6.3-3.3 2.8 1.5 2.4-4.5v-.1l-.5.3z"/><path d="m508.3 151.1-9.2-7.1 1.5-2 7.6-1.2c1-.2 1.8-.5 2.4-.7.6-.3 1.1-.6 1.3-1 .4-.5.6-1 .5-1.5s-.3-.9-.8-1.3-1-.4-1.5-.2-1.1.6-1.5 1.2l-3-2.3v-.1c.9-1.2 2.1-2 3.6-2.2s2.9.2 4.3 1.2c1.4 1.1 2.3 2.3 2.6 3.7.3 1.3-.1 2.6-1 3.9-.6.8-1.4 1.4-2.3 1.7s-2.4.7-4.6 1l-3.2.5v.1l5.1 3.9z"/></g><g clip-path="url(#a3)"><g opacity=".5"><path d="m-73 226.1h230.4v55.3h-230.4z" fill="url(#a4)"/></g><g><g><path clip-path="url(#a5)" d="m227.7 132.9h-302.3v121.4h302.3z" fill="url(#a6)"/><path clip-path="url(#a5)" d="m-52 240h279.7v-21h-279.7z" fill="url(#a8)" opacity=".35"/><path clip-path="url(#a5)" d="m67.6 259c0-56.9 46.1-103 103-103s103 46.1 103 103z" fill="url(#a9)" opacity=".3"/><path clip-path="url(#a5)" d="m223.3 241.9h4.4v-16.5h-13.8v7.1c0 5.1 4.2 9.4 9.4 9.4z" fill="url(#ba)"/><g clip-path="url(#a5)"><path clip-path="url(#bb)" d="m197.8 142.1h-21.4l32 86.9h21.4z" fill="#d8d8d7"/><path clip-path="url(#bb)" d="m215 172.2c0 20.1-16.3 36.3-36.3 36.3v-72.6c20 0 36.3 16.3 36.3 36.3z" fill="url(#bd)" opacity=".5"/></g><g clip-path="url(#a5)"><path clip-path="url(#be)" d="m-39.6 197h231.6l-22.6-54h-209z" fill="#d8d8d7"/><path clip-path="url(#be)" d="m166.6 159.1c0 11.7-12.4 21.2-27.8 21.2v-42.3c15.4 0 27.8 9.5 27.8 21.1z" fill="url(#bf)" opacity=".5"/><path clip-path="url(#be)" d="m108 159.1c0 11.7-12.4 21.2-27.8 21.2v-42.3c15.4 0 27.8 9.5 27.8 21.1z" fill="url(#bg)" opacity=".5"/><path clip-path="url(#be)" d="m46.3 159.1c0 11.7-11.9 21.2-26.5 21.2v-42.3c14.7 0 26.5 9.5 26.5 21.1z" fill="url(#bh)" opacity=".5"/></g></g><path d="m119.8 254.3h75.2c0-20.8-16.8-37.6-37.6-37.6s-37.6 16.9-37.6 37.6z" fill="url(#bi)" opacity=".35"/><path d="m-18.7 254.3h75.1c0-20.8-16.8-37.6-37.6-37.6s-37.5 16.9-37.5 37.6z" fill="url(#bj)" opacity=".35"/><g><g><path clip-path="url(#bk)" d="m129.7 281.5h55.4v-55.4h-55.4z" fill="url(#bl)"/><path clip-path="url(#bk)" d="m143.2 284.2c-18.8-31 13.6-63.3 44.5-44.5 2.8 1.7 5.2 4.1 6.9 6.9 18.8 31-13.6 63.3-44.5 44.5-2.8-1.7-5.1-4.1-6.9-6.9z" fill="url(#bm)" opacity=".5"/></g><ellipse cx="157.4" cy="253.8" fill="#d8d8d7" rx="14.7" ry="17.9" transform="matrix(.7071 -.7071 .7071 .7071 -133.3692 185.6489)"/></g><g><g><path clip-path="url(#bn)" d="m-8.8 281.5h55.4v-55.4h-55.4z" fill="url(#bo)"/><path clip-path="url(#bn)" d="m4.7 284.2c-18.8-31 13.6-63.3 44.5-44.5 2.8 1.7 5.2 4.1 6.9 6.9 18.8 31-13.6 63.3-44.5 44.5-2.8-1.7-5.2-4.1-6.9-6.9z" fill="url(#bp)" opacity=".5"/></g><ellipse cx="18.9" cy="253.8" fill="#d8d8d7" rx="14.7" ry="17.9" transform="matrix(.7071 -.7071 .7071 .7071 -173.9452 87.6897)"/></g></g></g><path d="m274 160.2h2.3v79.6h-2.3z" fill="#d0d1d2"/><path d="m293.7 160.2c.9 0 1.4-.6 1.4-1.3 0-.5-.4-1.1-.6-1.4s-17.7-26.8-17.7-26.8-.7-1.1-1.7-1.1c-.8 0-1.6 1.1-1.6 1.1s-17.1 26.2-17.3 26.5-.9 1.1-.9 1.7c0 .7.6 1.3 1.5 1.3z" fill="url(#bq)"/><path d="m256.7 160.7c-1.2 0-2-.9-2-1.8 0-.6.4-1.3.8-1.9l.1-.2c.2-.2 16.6-25.4 17.3-26.5.1-.1.9-1.4 2-1.4 1.3 0 2.1 1.3 2.2 1.4.2.2 17.5 26.4 17.7 26.8.3.4.7 1 .7 1.7 0 1-.8 1.8-1.9 1.8.1.1-36.7.1-36.9.1zm18.3-30.7c-.4 0-1 .6-1.1.9-.2.3-17.1 26.2-17.3 26.5 0 .1-.1.1-.1.2-.2.3-.7.9-.7 1.3s.3.8 1 .8h37c .6 0 .9-.4.9-.8s-.3-.9-.5-1.1c-.2-.3-17.1-25.8-17.8-26.9-.1 0-.7-.9-1.4-.9z" fill="#fff"/><path d="m294.5 170.5c0 .9-.7 1.6-1.6 1.6h-35.6c-.9 0-1.6-.7-1.6-1.6v-6.4c0-.9.7-1.6 1.6-1.6h35.7c.9 0 1.6.7 1.6 1.6v6.4z" fill="#fff"/><path d="m258.3 169.4v-4.4h1.4c.5 0 .9 0 1 .1.3.1.5.2.6.4.2.2.3.5.3.9 0 .3 0 .5-.1.7s-.2.3-.4.4c-.1.1-.3.2-.5.2s-.5.1-.9.1h-.6v1.7h-.8zm.9-3.7v1.3h.5c.4 0 .6 0 .7-.1.1 0 .2-.1.3-.2s.1-.2.1-.3c0-.2 0-.3-.1-.4s-.2-.2-.4-.2c-.1 0-.3 0-.6 0h-.5z" fill="#231f20"/><path d="m262.4 169.4v-4.4h1.9c.5 0 .8 0 1 .1s.4.2.5.4.2.4.2.7-.1.6-.3.8-.5.3-.9.4c.2.1.3.2.5.4.1.1.3.4.5.7l.5.9h-1.1l-.6-1c-.2-.3-.4-.6-.5-.6-.1-.1-.2-.2-.3-.2s-.2-.1-.4-.1h-.2v1.8h-.8zm.9-2.5h.7c.4 0 .7 0 .8-.1.1 0 .2-.1.2-.2.1-.1.1-.2.1-.3s0-.3-.1-.4-.2-.1-.3-.2c-.1 0-.3 0-.6 0h-.7v1.2z" fill="#231f20"/><path d="m266.8 169.4v-4.4h.9v4.4z" fill="#231f20"/><path d="m268.4 167.2c0-.4.1-.8.2-1.1.1-.2.2-.4.4-.6s.4-.3.6-.4c.3-.1.6-.2 1-.2.6 0 1.2.2 1.5.6.4.4.6 1 .6 1.7s-.2 1.3-.6 1.7-.9.6-1.5.6c-.7 0-1.2-.2-1.6-.6s-.6-1-.6-1.7zm.9 0c0 .5.1.9.3 1.1.2.3.5.4.9.4s.6-.1.9-.4c.2-.2.3-.6.3-1.1s-.1-.9-.3-1.1-.5-.4-.9-.4-.7.1-.9.4c-.2.2-.3.6-.3 1.1z" fill="#231f20"/><path d="m273.3 169.4v-4.4h1.9c.5 0 .8 0 1 .1s.4.2.5.4.2.4.2.7-.1.6-.3.8-.5.3-.9.4c.2.1.3.2.5.4.1.1.3.4.5.7l.5.9h-1.1l-.6-1c-.2-.3-.4-.6-.5-.6-.1-.1-.2-.2-.3-.2s-.2-.1-.4-.1h-.2v1.8h-.8zm.9-2.5h.7c.4 0 .7 0 .8-.1.1 0 .2-.1.3-.2s.1-.2.1-.3 0-.3-.1-.4-.2-.1-.3-.2c-.1 0-.3 0-.6 0h-.7v1.2z" fill="#231f20"/><path d="m277.7 169.4v-4.4h.9v4.4z" fill="#231f20"/><path d="m279.4 165h1.6c.4 0 .6 0 .8.1.3.1.5.2.7.4s.3.4.4.7.1.6.1 1 0 .7-.1.9c-.1.3-.3.6-.5.8-.2.1-.4.3-.6.3-.2.1-.5.1-.8.1h-1.7v-4.3zm.9.7v2.9h.7c.2 0 .4 0 .5-.1.1 0 .3-.1.4-.2s.2-.2.2-.4c.1-.2.1-.5.1-.8s0-.6-.1-.8-.1-.3-.2-.4-.2-.2-.4-.2c-.1 0-.4 0-.7 0z" fill="#231f20"/><path d="m287.8 169.4h-1l-.4-1h-1.7l-.4 1h-.9l1.7-4.4h.9zm-1.6-1.8-.6-1.6-.6 1.6z" fill="#231f20"/><path d="m288.3 165h1.6c.4 0 .6 0 .8.1.3.1.5.2.7.4s.3.4.4.7.1.6.1 1 0 .7-.1.9c-.1.3-.3.6-.5.8-.2.1-.4.3-.6.3-.2.1-.5.1-.8.1h-1.7v-4.3zm.8.7v2.9h.7c.2 0 .4 0 .5-.1.1 0 .3-.1.4-.2s.2-.2.2-.4c.1-.2.1-.5.1-.8s0-.6-.1-.8-.1-.3-.2-.4-.2-.2-.4-.2c-.1 0-.4 0-.7 0z" fill="#231f20"/><path d="m281.2 146.1c-.8 0-1.5.2-2.1.6l-1.3-1.5.1-.6 1.1-.5c.1-.1.2-.2.2-.3s-.2-.2-.3-.2l-2.8.1c-.1 0-.3.1-.3.3 0 .1.1.3.2.3l1.3.3c0 .1-.1.2-.1.3h-5.5l.4-1.1v-.1c0-.1 0-.2-.1-.2-.1-.1-.2-.3-.2-.3s0 0 .1-.1h1.5c.2 0 .3-.1.3-.3s-.1-.3-.3-.3h-1.5-.1c-.4.1-.5.4-.5.5v.1c0 .2.1.5.3.6-.1.2-.4 1-.7 1.8l-.1.3c-.1.3-.2.5-.3.7-.6-.4-1.3-.6-2-.6-2.1 0-3.8 1.7-3.8 3.8s1.7 3.8 3.8 3.8 3.8-1.7 3.8-3.8c0-1.2-.5-2.2-1.3-2.9l.2-.4 4.3 4.3.2.7c-.1 0-.3.1-.3.3s.1.3.3.3h.8c.2 0 .3-.1.3-.3s-.1-.3-.3-.3h-.2l-.2-.7 1.4-.2c.4 1.7 1.9 3 3.7 3 2.1 0 3.8-1.7 3.8-3.8.1-1.9-1.7-3.6-3.8-3.6zm-9.5 3.8c0 1.8-1.4 3.2-3.2 3.2s-3.2-1.4-3.2-3.2 1.4-3.2 3.2-3.2c.6 0 1.3.2 1.8.5-.4 1.3-1.9 2.4-1.9 2.4-.1.1-.1.1-.1.2s0 .1.1.2.3.2.4.1c.1 0 1.5-1.1 2.1-2.5.4.6.8 1.4.8 2.3zm4-.3-.1-.2h.1c.1 0 0 .1 0 .2zm0-.9h-.7c-.2 0-.3.1-.3.3s.1.3.3.3h.1l.1.4-3.8-3.8c.1-.2.1-.3.2-.4h5.6c-.2.7-.8 2.1-1.2 3.3-.1 0-.2-.1-.3-.1zm.4 1.6 1.6-4.4c.2.3.6.7 1 1.2-.8.7-1.2 1.7-1.2 2.8v.2c-.6.1-1.1.2-1.4.2zm1.9-.4c0-.9.4-1.8 1-2.3.7.9 1.5 1.7 1.7 2.1-.4.1-1.6.2-2.8.4.1-.1.1-.2.1-.2zm3.2 3.2c-1.5 0-2.8-1.1-3.1-2.5l3.3-.5c.1 0 .2-.1.2-.2s0-.2-.1-.3l-2.1-2.4c.5-.3 1.1-.5 1.7-.5 1.8 0 3.2 1.4 3.2 3.2.2 1.8-1.3 3.2-3.1 3.2z" fill="#fff"/></svg>