<?xml version="1.0" encoding="utf-8"?>
<!-- Generator: Adobe Illustrator 17.0.0, SVG Export Plug-In . SVG Version: 6.00 Build 0)  -->
<!DOCTYPE svg PUBLIC "-//W3C//DTD SVG 1.1//EN" "http://www.w3.org/Graphics/SVG/1.1/DTD/svg11.dtd">
<svg version="1.1" id="Capa_1" xmlns="http://www.w3.org/2000/svg" xmlns:xlink="http://www.w3.org/1999/xlink" x="0px" y="0px"
	 width="20px" height="10px" viewBox="0 0 20 10" enable-background="new 0 0 20 10" xml:space="preserve">
<g>
	<path fill="#E6E6E6" d="M13.067,2.101c0.43-0.43,0.861-0.413,1.008-0.413h2.005c-0.271,0.363-0.585,0.782-0.586,0.784h0.982
		l0.852-1.212l-0.852-1.212h-0.982c0.002,0.002,0.327,0.437,0.602,0.804h-2.02c-0.665,0-1.161,0.229-1.595,0.663L8.218,5.886
		C8.107,5.998,7.976,6.089,7.833,6.157c-0.27-1.507-1.59-2.654-3.174-2.654c-1.778,0-3.224,1.447-3.224,3.224
		c0,1.778,1.446,3.224,3.224,3.224c1.673,0,3.052-1.28,3.209-2.912c0.349-0.105,0.666-0.296,0.937-0.568L13.067,2.101z M4.659,9.098
		c-1.307,0-2.371-1.063-2.371-2.371s1.063-2.371,2.371-2.371c1.161,0,2.129,0.839,2.331,1.942L4.137,6.296l0.599,0.839l2.258,0
		C6.8,8.248,5.827,9.098,4.659,9.098z"/>
	<path fill="#E6E6E6" d="M8.218,2.101l1.244,1.275l0.586-0.586L8.805,1.515C8.371,1.082,7.82,0.852,7.21,0.852H4.743L4.137,1.686
		L7.21,1.688C7.589,1.688,7.956,1.839,8.218,2.101z"/>
	<path fill="#E6E6E6" d="M16.155,3.503c-1.48,0-2.73,1.002-3.107,2.363L11.843,4.63l-0.584,0.588l1.222,1.253
		c0.143,0.143,0.292,0.263,0.452,0.36c0.055,1.73,1.48,3.12,3.222,3.12c1.778,0,3.224-1.447,3.224-3.224
		C19.38,4.949,17.933,3.503,16.155,3.503z M16.155,9.098c-1.173,0-2.149-0.856-2.337-1.976c0.083,0.008,0.168,0.012,0.257,0.012
		l2.021,0c-0.275,0.367-0.6,0.802-0.602,0.804h0.982l0.852-1.212l-0.852-1.212h-0.982c0.002,0.002,0.315,0.42,0.586,0.783h-2.005
		c-0.052,0-0.139,0.002-0.249-0.014c0.208-1.096,1.173-1.928,2.329-1.928c1.307,0,2.371,1.064,2.371,2.371
		S17.462,9.098,16.155,9.098z"/>
</g>
</svg>
