<?xml version="1.0" encoding="utf-8"?>
<!-- Generator: Adobe Illustrator 19.0.0, SVG Export Plug-In . SVG Version: 6.00 Build 0)  -->
<svg version="1.1" id="Layer_1" xmlns="http://www.w3.org/2000/svg" xmlns:xlink="http://www.w3.org/1999/xlink" x="0px" y="0px"
	 viewBox="0 0 234.3 101.1" style="enable-background:new 0 0 234.3 101.1;" xml:space="preserve">
<style type="text/css">
	.st0{fill:#FFFFFF;}
</style>
<g id="XMLID_173_">
	<g id="XMLID_174_">
		<g id="XMLID_216_">
			<g id="XMLID_248_">
				<polygon id="XMLID_254_" class="st0" points="85.5,38.7 75.5,38.7 75,39.4 54.4,68.6 60.5,68.6 62.4,71.1 79.4,94 88.8,94 
					67.1,64.3 				"/>
				<path id="XMLID_253_" class="st0" d="M98.8,38.7c-0.9,0-2.9,0-2.9,0l-5.5,7.8h2.1h13.7V94h8.2V46.5h13.3v-7.8
					C127.8,38.7,99.7,38.7,98.8,38.7z"/>
				<path id="XMLID_250_" class="st0" d="M29.4,65c3.3-3.6,5.8-7.8,5.8-12.1c0-8.4-5.9-14.2-16.5-14.2H0V94h18.3
					c6.2,0,11-1.5,14.3-4.3c3.3-2.9,4.9-7,4.9-12.3C37.6,72,34.2,67.2,29.4,65z M18.7,86.2l-10.5,0c0,0,0-39.6,0-39.8h10.4
					c6.5,0,8.5,3.8,8.5,7.1c0,5.1-4.9,9-8.4,12.5c-1.4,1.5-2.5,2.5-2.5,2.5s1.2,0,2.3,0c7,0,10.9,3,10.9,8.8
					C29.5,83.3,25.9,86.2,18.7,86.2z"/>
				<polygon id="XMLID_249_" class="st0" points="46.2,38.7 46.2,94 54.4,94 54.4,68.6 54.4,38.7 				"/>
			</g>
			<g id="XMLID_217_">
				<path id="XMLID_245_" class="st0" d="M146.6,47.5c0.8-1,2.2-1.9,4.3-1.9c4.5,0,6.4,3.1,6.4,7.7c0,4.7-2,7.8-6.4,7.8
					c-2.2,0-3.7-0.8-4.5-1.9l-0.5,1.5h-1.2V38.3h1.9V47.5z M150.7,47.4c-2.3,0-3.6,1.2-4.1,2.2v7.4c0.6,1,1.9,2.3,4.1,2.3
					c3.6,0,4.7-2.6,4.7-6C155.4,49.9,154.3,47.4,150.7,47.4z"/>
				<path id="XMLID_242_" class="st0" d="M160.7,40.4c0-1.1,0.7-1.6,1.5-1.6c0.8,0,1.6,0.5,1.6,1.6c0,1.1-0.8,1.5-1.6,1.5
					C161.3,41.9,160.7,41.5,160.7,40.4z M161.3,45.9h1.9v14.9h-1.9V45.9z"/>
				<path id="XMLID_240_" class="st0" d="M173.5,45.6c2.4,0,4.3,1,5.4,2.9l-1.5,1c-0.8-1.5-2.1-2.1-3.8-2.1c-3.3,0-4.5,2.6-4.5,6
					c0,3.5,1.2,6,4.5,6c1.7,0,3-0.7,3.8-2.1l1.5,1c-1,1.8-2.9,2.8-5.4,2.8c-4.5,0-6.5-3.3-6.5-7.7C167,49,169,45.6,173.5,45.6z"/>
				<path id="XMLID_237_" class="st0" d="M181.7,40.4c0-1.1,0.7-1.6,1.5-1.6c0.8,0,1.6,0.5,1.6,1.6c0,1.1-0.8,1.5-1.6,1.5
					C182.3,41.9,181.7,41.5,181.7,40.4z M182.3,45.9h1.9v14.9h-1.9V45.9z"/>
				<path id="XMLID_234_" class="st0" d="M146.5,101.1h-1.9V79.1h1.9v1.5c0.8-1,2.4-1.9,4.5-1.9c4.4,0,6.3,3.1,6.3,7.8
					c0,4.7-2,7.7-6.4,7.7c-2.2,0-3.6-0.8-4.4-1.8V101.1z M150.7,80.6c-2.1,0-3.5,1-4.2,2.2v7.5c0.6,1,1.9,2.2,4.2,2.2
					c3.6,0,4.7-2.4,4.7-5.9C155.4,83.2,154.3,80.6,150.7,80.6z"/>
				<path id="XMLID_231_" class="st0" d="M173.5,94h-1.9v-1.8c-0.9,1.3-3,2.2-5,2.2c-3.9,0-5.3-2-5.3-5.6v-9.6h1.9v9.5
					c0,2.6,0.9,3.9,3.8,3.9c2.1,0,3.7-0.8,4.6-2V79.1h1.9V94z M171.1,71.3l-2.8,4.9h-1.9l2.5-4.9H171.1z"/>
				<path id="XMLID_228_" class="st0" d="M180,80.7c0.8-1,2.2-1.9,4.3-1.9c4.5,0,6.4,3.1,6.4,7.7c0,4.7-2,7.8-6.4,7.8
					c-2.2,0-3.7-0.8-4.5-1.9l-0.5,1.5h-1.2V71.5h1.9V80.7z M184.2,80.6c-2.3,0-3.6,1.2-4.1,2.2v7.4c0.6,1,1.9,2.3,4.1,2.3
					c3.6,0,4.7-2.6,4.7-6C188.8,83.1,187.7,80.6,184.2,80.6z"/>
				<path id="XMLID_226_" class="st0" d="M196.6,71.5v18.6c0,1.5,0.4,2.2,1.6,2.2h0.9V94h-1.3c-2.4,0-3.1-1.3-3.1-3.8V71.5H196.6z"
					/>
				<path id="XMLID_223_" class="st0" d="M201.7,73.6c0-1.1,0.7-1.6,1.5-1.6c0.8,0,1.6,0.5,1.6,1.6c0,1.1-0.8,1.5-1.6,1.5
					C202.3,75.1,201.7,74.7,201.7,73.6z M202.3,79.1h1.9V94h-1.9V79.1z"/>
				<path id="XMLID_221_" class="st0" d="M214.5,78.8c2.4,0,4.3,1,5.4,2.9l-1.5,1c-0.8-1.5-2.1-2.1-3.8-2.1c-3.3,0-4.5,2.6-4.5,6
					c0,3.5,1.2,6,4.5,6c1.7,0,3-0.7,3.8-2.1l1.5,1c-1,1.8-2.9,2.8-5.4,2.8c-4.5,0-6.5-3.3-6.5-7.7C208.1,82.2,210,78.8,214.5,78.8z"
					/>
				<path id="XMLID_218_" class="st0" d="M232.5,94v-1.9c-0.9,1-2.6,2.2-5.1,2.2c-2.9,0-4.6-1.5-4.6-4.1c0-2.9,2.7-4.2,6.7-4.7
					l3-0.4v-1.7c0-2-0.8-2.9-3.5-2.9c-2.4,0-3.5,0.8-3.5,2v1h-1.8c0-0.4-0.1-0.7-0.1-1.1c0-2.1,1.7-3.6,5.4-3.6
					c3.6,0,5.3,1.6,5.3,4.6V94H232.5z M227.7,92.7c2,0,3.7-1,4.7-2.1v-4l-2.9,0.4c-2.9,0.4-4.8,1.2-4.8,3.1
					C224.8,91.8,225.7,92.7,227.7,92.7z"/>
			</g>
		</g>
	</g>
	<g id="XMLID_34_">
		<path id="XMLID_255_" class="st0" d="M51.8,11.1c0,2.2-0.6,4-1.8,5.3s-2.8,2-4.9,2c-2,0-3.6-0.7-4.8-2s-1.8-3.1-1.8-5.3V8.4
			c0-2.2,0.6-4,1.8-5.3S43.1,1,45.1,1c2,0,3.7,0.7,4.9,2.1s1.8,3.1,1.8,5.3V11.1z M50.4,8.4c0-1.8-0.5-3.3-1.4-4.5
			c-0.9-1.1-2.2-1.7-3.9-1.7c-1.6,0-2.9,0.6-3.8,1.7C40.4,5,40,6.5,40,8.4v2.8c0,1.9,0.5,3.4,1.4,4.5c0.9,1.1,2.2,1.7,3.8,1.7
			c1.7,0,3-0.6,3.9-1.7c0.9-1.1,1.4-2.6,1.4-4.5V8.4z"/>
		<path id="XMLID_258_" class="st0" d="M65.3,12.3c0,1.9-0.4,3.4-1.3,4.5c-0.9,1.1-2,1.7-3.6,1.7c-0.9,0-1.7-0.2-2.3-0.5
			s-1.2-0.8-1.6-1.4v6.6h-1.4V5.6h1.2l0.2,2c0.4-0.7,1-1.2,1.6-1.6s1.5-0.6,2.4-0.6C62,5.4,63.2,6,64,7.2c0.9,1.2,1.3,2.8,1.3,4.9
			V12.3z M63.9,12c0-1.6-0.3-2.9-1-3.9c-0.6-1-1.6-1.5-2.8-1.5c-0.9,0-1.7,0.2-2.3,0.7c-0.6,0.4-1,1-1.3,1.8v6.1
			c0.3,0.7,0.8,1.2,1.4,1.6s1.4,0.6,2.3,0.6c1.2,0,2.2-0.5,2.8-1.4s1-2.1,1-3.7V12z"/>
		<path id="XMLID_261_" class="st0" d="M73.2,18.5c-1.6,0-2.9-0.6-4-1.8s-1.6-2.7-1.6-4.5v-0.6c0-1.8,0.5-3.3,1.6-4.5
			s2.3-1.8,3.8-1.8c1.6,0,2.8,0.5,3.7,1.5S78,9.1,78,10.8V12h-9v0.3c0,1.4,0.4,2.6,1.1,3.6c0.8,1,1.8,1.4,3,1.4
			c0.9,0,1.6-0.1,2.2-0.4s1.1-0.6,1.6-1l0.6,1c-0.5,0.5-1.1,0.9-1.8,1.2S74.2,18.5,73.2,18.5z M73,6.6c-1,0-1.9,0.4-2.6,1.2
			c-0.7,0.8-1.1,1.8-1.2,3l0,0.1h7.4v-0.4c0-1.1-0.3-2-1-2.8C75,6.9,74.2,6.6,73,6.6z"/>
		<path id="XMLID_264_" class="st0" d="M86.7,6.8l-1-0.1c-0.9,0-1.6,0.2-2.2,0.7s-1,1.2-1.2,2v8.8h-1.4V5.6h1.2l0.2,2.1v0.1
			c0.4-0.8,0.9-1.4,1.5-1.8s1.4-0.7,2.2-0.7c0.2,0,0.4,0,0.5,0s0.3,0.1,0.4,0.1L86.7,6.8z"/>
		<path id="XMLID_266_" class="st0" d="M97,18.3c-0.1-0.4-0.2-0.8-0.2-1.1s-0.1-0.6-0.1-0.9c-0.5,0.7-1.1,1.2-1.9,1.7
			s-1.7,0.7-2.6,0.7c-1.2,0-2.2-0.3-2.9-1s-1-1.5-1-2.6c0-1.2,0.5-2.1,1.5-2.8S92.2,11,94,11h2.8V9.5c0-0.9-0.3-1.6-0.9-2.1
			s-1.4-0.8-2.4-0.8c-1,0-1.8,0.2-2.4,0.7s-1,1.1-1,1.8l-1.3,0l0-0.1c0-0.9,0.4-1.8,1.3-2.5s2.1-1.1,3.5-1.1c1.4,0,2.5,0.4,3.4,1.1
			s1.3,1.7,1.3,3.1v6.2c0,0.4,0,0.9,0.1,1.3s0.1,0.8,0.3,1.3H97z M92.4,17.3c1,0,1.9-0.2,2.7-0.7s1.3-1.1,1.7-1.8v-2.6h-2.8
			c-1.3,0-2.3,0.3-3.1,0.8s-1.1,1.2-1.1,2c0,0.7,0.2,1.2,0.7,1.7S91.6,17.3,92.4,17.3z"/>
		<path id="XMLID_269_" class="st0" d="M101.3,12c0-2,0.4-3.6,1.3-4.9s2-1.8,3.6-1.8c0.9,0,1.6,0.2,2.3,0.6s1.2,0.9,1.6,1.6V0h1.4
			v18.3h-1.2l-0.1-1.8c-0.4,0.7-1,1.2-1.6,1.5s-1.4,0.5-2.3,0.5c-1.5,0-2.7-0.6-3.6-1.7s-1.3-2.6-1.3-4.5V12z M102.7,12.3
			c0,1.5,0.3,2.8,0.9,3.7s1.5,1.4,2.8,1.4c0.9,0,1.7-0.2,2.3-0.6c0.6-0.4,1.1-1,1.4-1.7V9c-0.3-0.7-0.8-1.3-1.4-1.8
			s-1.4-0.7-2.3-0.7c-1.2,0-2.2,0.5-2.8,1.5s-0.9,2.3-0.9,4V12.3z"/>
		<path id="XMLID_272_" class="st0" d="M114.5,11.8c0-1.9,0.5-3.4,1.5-4.6s2.4-1.8,4.1-1.8c1.7,0,3.1,0.6,4.1,1.8s1.5,2.7,1.5,4.6
			v0.4c0,1.9-0.5,3.4-1.5,4.6s-2.4,1.8-4.1,1.8c-1.7,0-3.1-0.6-4.1-1.8s-1.5-2.7-1.5-4.6V11.8z M115.9,12.1c0,1.5,0.4,2.7,1.1,3.7
			c0.7,1,1.8,1.5,3.1,1.5c1.3,0,2.3-0.5,3.1-1.5c0.7-1,1.1-2.2,1.1-3.7v-0.4c0-1.4-0.4-2.7-1.1-3.7c-0.8-1-1.8-1.5-3.1-1.5
			s-2.3,0.5-3.1,1.5c-0.7,1-1.1,2.2-1.1,3.7V12.1z"/>
		<path id="XMLID_275_" class="st0" d="M144.7,12.3c0,1.9-0.4,3.4-1.3,4.5s-2,1.7-3.6,1.7c-0.9,0-1.7-0.2-2.3-0.5s-1.2-0.8-1.6-1.4
			v6.6h-1.4V5.6h1.2l0.2,2c0.4-0.7,1-1.2,1.6-1.6s1.5-0.6,2.4-0.6c1.5,0,2.7,0.6,3.6,1.8s1.3,2.8,1.3,4.9V12.3z M143.2,12
			c0-1.6-0.3-2.9-1-3.9c-0.6-1-1.6-1.5-2.8-1.5c-0.9,0-1.7,0.2-2.3,0.7c-0.6,0.4-1,1-1.3,1.8v6.1c0.3,0.7,0.8,1.2,1.4,1.6
			s1.4,0.6,2.3,0.6c1.2,0,2.2-0.5,2.8-1.4s1-2.1,1-3.7V12z"/>
		<path id="XMLID_278_" class="st0" d="M147,11.8c0-1.9,0.5-3.4,1.5-4.6s2.4-1.8,4.1-1.8c1.7,0,3.1,0.6,4.1,1.8s1.5,2.7,1.5,4.6v0.4
			c0,1.9-0.5,3.4-1.5,4.6s-2.4,1.8-4.1,1.8c-1.7,0-3.1-0.6-4.1-1.8S147,14,147,12.1V11.8z M148.4,12.1c0,1.5,0.4,2.7,1.1,3.7
			c0.7,1,1.8,1.5,3.1,1.5c1.3,0,2.3-0.5,3.1-1.5c0.7-1,1.1-2.2,1.1-3.7v-0.4c0-1.4-0.4-2.7-1.1-3.7c-0.8-1-1.8-1.5-3.1-1.5
			s-2.3,0.5-3.1,1.5c-0.7,1-1.1,2.2-1.1,3.7V12.1z"/>
		<path id="XMLID_281_" class="st0" d="M167,6.8l-1-0.1c-0.9,0-1.6,0.2-2.2,0.7s-1,1.2-1.2,2v8.8h-1.4V5.6h1.2l0.2,2.1v0.1
			c0.4-0.8,0.9-1.4,1.5-1.8s1.4-0.7,2.2-0.7c0.2,0,0.4,0,0.5,0s0.3,0.1,0.4,0.1L167,6.8z"/>
		<path id="XMLID_283_" class="st0" d="M170.9,7.5h-1.6V5.6h1.6V7.5z M170.9,18.3h-1.6v-1.9h1.6V18.3z"/>
	</g>
</g>
</svg>
