<svg enable-background="new 0 0 244 252.9" viewBox="0 0 244 252.9" xmlns="http://www.w3.org/2000/svg" xmlns:xlink="http://www.w3.org/1999/xlink"><clipPath id="a"><path d="m0 0h244v252.9h-244z"/></clipPath><linearGradient id="b" gradientUnits="userSpaceOnUse" x1="122.362" x2="122.362" y1="300.5298" y2="-21.1818"><stop offset=".03517618" stop-color="#4f4d4d"/><stop offset="1" stop-color="#4f4d4d"/></linearGradient><linearGradient id="c"><stop offset="0" stop-color="#151b26"/><stop offset="1" stop-color="#151b26"/></linearGradient><linearGradient id="d" gradientTransform="matrix(.7942 .6076 -.6076 .7942 -71.1133 -1845.6835)" gradientUnits="userSpaceOnUse" x1="1330.9573" x2="1330.9573" xlink:href="#c" y1="1433.2982" y2="1452.9078"/><linearGradient id="e" gradientTransform="matrix(-.7942 -.6076 -.6076 .7942 59.9623 -1745.4069)" gradientUnits="userSpaceOnUse" x1="-1124.0781" x2="-1124.0781" xlink:href="#c" y1="1433.2982" y2="1452.9078"/><linearGradient id="f" gradientTransform="matrix(.7942 .6076 -.6076 .7942 -71.1133 -1845.6835)" gradientUnits="userSpaceOnUse" x1="1332.6519" x2="1332.6519" xlink:href="#c" y1="1366.9512" y2="1386.5608"/><linearGradient id="g" gradientTransform="matrix(-.7942 -.6076 -.6076 .7942 59.9623 -1745.4069)" gradientUnits="userSpaceOnUse" x1="-1122.8899" x2="-1122.8899" xlink:href="#c" y1="1366.9512" y2="1386.5608"/><linearGradient id="h"><stop offset="0" stop-color="#d72538"/><stop offset="1" stop-color="#d72538"/></linearGradient><linearGradient id="i" gradientTransform="matrix(.7942 .6076 -.6076 .7942 -71.1133 -1845.6835)" gradientUnits="userSpaceOnUse" x1="1284.8971" x2="1296.0742" xlink:href="#h" y1="1437.5156" y2="1448.6927"/><linearGradient id="j" gradientTransform="matrix(.7942 .6076 -.6076 .7942 -71.1133 -1845.6835)" gradientUnits="userSpaceOnUse" x1="1323.9951" x2="1335.1724" xlink:href="#h" y1="1437.5156" y2="1448.6927"/><linearGradient id="k" gradientTransform="matrix(.7942 .6076 -.6076 .7942 -71.1133 -1845.6835)" gradientUnits="userSpaceOnUse" x1="1283.323" x2="1294.5002" xlink:href="#h" y1="1371.1675" y2="1382.3446"/><linearGradient id="l" gradientTransform="matrix(.7942 .6076 -.6076 .7942 -71.1133 -1845.6835)" gradientUnits="userSpaceOnUse" x1="1325.9337" x2="1337.1108" xlink:href="#h" y1="1371.1675" y2="1382.3446"/><linearGradient id="m"><stop offset="0" stop-color="#ed3f50"/><stop offset=".2472" stop-color="#e23244"/><stop offset=".5761" stop-color="#da283b"/><stop offset="1" stop-color="#d72538"/></linearGradient><linearGradient id="n" gradientTransform="matrix(-.6076 .7942 -.7942 -.6076 -402.6886 -1728.9095)" gradientUnits="userSpaceOnUse" x1="1056.917" x2="1076.9229" xlink:href="#m" y1="-1502.7124" y2="-1502.7124"/><linearGradient id="o"><stop offset="0" stop-color="#ed3f50"/><stop offset="1" stop-color="#d72538"/></linearGradient><linearGradient id="p" gradientTransform="matrix(-.6076 .7942 -.7942 -.6076 -402.6886 -1728.9095)" gradientUnits="userSpaceOnUse" x1="1076.9229" x2="1123.142" xlink:href="#o" y1="-1502.7124" y2="-1502.7124"/><linearGradient id="q"><stop offset="0" stop-color="#fab11f"/><stop offset="1" stop-color="#ffc55d"/></linearGradient><linearGradient id="r" gradientTransform="matrix(.7942 .6076 -.6076 .7942 -177.9065 -1856.9117)" gradientUnits="userSpaceOnUse" x1="1412.7552" x2="1420.1077" xlink:href="#q" y1="1295.8422" y2="1295.8422"/><linearGradient id="s" gradientTransform="matrix(-.6076 .7942 -.7942 -.6076 -402.6886 -1728.9095)" gradientUnits="userSpaceOnUse" x1="1056.917" x2="1060.175" xlink:href="#o" y1="-1517.3704" y2="-1517.3704"/><linearGradient id="t"><stop offset="0" stop-color="#d6d6d5"/><stop offset="1" stop-color="#d6d6d5" stop-opacity="0"/></linearGradient><linearGradient id="u" gradientTransform="matrix(-.2779 .9606 -.9606 -.2779 -321.5823 -1687.3538)" gradientUnits="userSpaceOnUse" x1="1530.8903" x2="1554.0131" xlink:href="#t" y1="-914.3264" y2="-914.3264"/><linearGradient id="v" gradientTransform="matrix(-.6076 .7942 .7942 .6076 -535.2322 -1803.0515)" gradientUnits="userSpaceOnUse" x1="1077.8851" x2="1096.6904" xlink:href="#t" y1="1636.5543" y2="1636.5543"/><linearGradient id="w" gradientTransform="matrix(-.6076 .7942 -.7942 -.6076 239.9612 -1210.0062)" gradientUnits="userSpaceOnUse" x1="1077.8851" x2="1096.6904" xlink:href="#t" y1="-693.1031" y2="-693.1031"/><linearGradient id="x" gradientTransform="matrix(-.6076 .7942 -.7942 -.6076 -402.6886 -1728.9095)" gradientUnits="userSpaceOnUse" x1="1162.5388" x2="1163.7153" xlink:href="#q" y1="-1515.8306" y2="-1515.8306"/><linearGradient id="y" gradientTransform="matrix(-.6076 .7942 -.7942 -.6076 -402.6886 -1728.9095)" gradientUnits="userSpaceOnUse" x1="1162.5388" x2="1163.7153" xlink:href="#q" y1="-1489.2129" y2="-1489.2129"/><linearGradient id="z" gradientTransform="matrix(.7942 .6076 -.6076 .7942 -71.1133 -1845.6835)" gradientUnits="userSpaceOnUse" x1="1290.5206" x2="1329.7031" xlink:href="#h" y1="1417.4763" y2="1456.6588"/><linearGradient id="A" gradientTransform="matrix(.2779 -.9606 .9606 .2779 270.0969 -1737.9092)" gradientUnits="userSpaceOnUse" x1="-1787.082" x2="-1774.7395" xlink:href="#t" y1="352.4742" y2="352.4742"/><linearGradient id="B" gradientTransform="matrix(.7942 .6076 -.6076 .7942 -177.9065 -1856.9117)" gradientUnits="userSpaceOnUse" x1="1383.5004" x2="1390.8528" xlink:href="#q" y1="1295.8422" y2="1295.8422"/><linearGradient id="C" gradientTransform="matrix(-.6076 .7942 -.7942 -.6076 -402.6886 -1728.9095)" gradientUnits="userSpaceOnUse" x1="1056.917" x2="1060.175" xlink:href="#o" y1="-1488.1155" y2="-1488.1155"/><clipPath id="D"><path d="m132.5 10.3h20v42.4h-20z" transform="matrix(.6076 -.7942 .7942 .6076 30.8818 125.589)"/></clipPath><linearGradient id="E"><stop offset="0" stop-color="#414141" stop-opacity="0"/><stop offset="1" stop-color="#737373"/></linearGradient><linearGradient id="F" gradientTransform="matrix(.7942 .6076 -.6076 .7942 -71.1133 -1845.6835)" gradientUnits="userSpaceOnUse" x1="1270.7988" x2="1311.4308" xlink:href="#E" y1="1361.4222" y2="1361.4222"/><clipPath id="G"><path d="m76.8 72h38.9v39.4h-38.9z" transform="matrix(.7942 .6076 -.6076 .7942 75.5361 -39.6047)"/></clipPath><linearGradient id="H" gradientTransform="matrix(.7942 .6076 -.6076 .7942 -71.1133 -1845.6835)" gradientUnits="userSpaceOnUse" x1="1290.8125" x2="1290.8125" xlink:href="#E" y1="1461.1219" y2="1416.8518"/><linearGradient id="I" gradientTransform="matrix(.7942 .6076 -.6076 .7942 -71.1133 -1845.6835)" gradientUnits="userSpaceOnUse" x1="1293.0386" x2="1327.2378" xlink:href="#c" y1="1421.7632" y2="1455.9624"/><linearGradient id="J" gradientTransform="matrix(.7942 .6076 -.6076 .7942 -71.1133 -1845.6835)" gradientUnits="userSpaceOnUse" x1="1288.9998" x2="1315.113" y1="1425.802" y2="1451.9153"><stop offset="0" stop-color="#151b16"/><stop offset="1" stop-color="#151b16"/></linearGradient><linearGradient id="K" gradientTransform="matrix(.7942 .6076 -.6076 .7942 -71.1133 -1845.6835)" gradientUnits="userSpaceOnUse" x1="1295.7955" x2="1311.134" xlink:href="#E" y1="1391.5226" y2="1406.8611"/><linearGradient id="L"><stop offset="0" stop-color="#d72538"/><stop offset="1" stop-color="#ed3f50"/></linearGradient><linearGradient id="M" gradientTransform="matrix(.7942 .6076 -.6076 .7942 -185.7304 -1774.5955)" gradientUnits="userSpaceOnUse" x1="1377.3544" x2="1385.4996" xlink:href="#L" y1="1248.4736" y2="1248.4736"/><linearGradient id="N" gradientTransform="matrix(-.7942 -.6076 -.6076 .7942 -497.4912 -2013.1014)" gradientUnits="userSpaceOnUse" x1="-1731.9797" x2="-1723.8346" xlink:href="#L" y1="1248.4736" y2="1248.4736"/><linearGradient id="O"><stop offset="0" stop-color="#781a26"/><stop offset=".2055" stop-color="#741e24"/><stop offset=".4189" stop-color="#682b1f"/><stop offset=".636" stop-color="#543f16"/><stop offset=".8542" stop-color="#395c0a"/><stop offset="1" stop-color="#227400"/></linearGradient><radialGradient id="P" cx="190.7609" cy="214.9143" gradientUnits="userSpaceOnUse" r="13.9212" xlink:href="#O"/><linearGradient id="Q"><stop offset="0" stop-color="#8cc65b"/><stop offset="1" stop-color="#507e24"/></linearGradient><linearGradient id="R" gradientUnits="userSpaceOnUse" x1="178.4057" x2="200.5539" xlink:href="#Q" y1="214.7536" y2="214.7536"/><radialGradient id="S" cx="190.7609" cy="128.6979" gradientUnits="userSpaceOnUse" r="13.9212" xlink:href="#O"/><linearGradient id="T" gradientUnits="userSpaceOnUse" x1="178.4057" x2="200.5539" xlink:href="#Q" y1="128.5372" y2="128.5372"/><linearGradient id="U" gradientUnits="userSpaceOnUse" x1="134.6647" x2="134.6647" xlink:href="#c" y1="223.6771" y2="242.4962"/><linearGradient id="V" gradientUnits="userSpaceOnUse" x1="134.6647" x2="134.6647" xlink:href="#m" y1="217.1764" y2="231.933"/><linearGradient id="W"><stop offset="0" stop-color="#d6d6d5"/><stop offset="1" stop-color="#e3e3e2"/></linearGradient><linearGradient id="X" gradientTransform="matrix(0 -1 1 0 1390.9391 580.8234)" gradientUnits="userSpaceOnUse" x1="359.292" x2="359.292" xlink:href="#W" y1="-1258.1476" y2="-1257.2579"/><linearGradient id="Y" gradientTransform="matrix(0 -1 1 0 1390.9391 580.8234)" gradientUnits="userSpaceOnUse" x1="359.292" x2="359.292" xlink:href="#W" y1="-1255.2909" y2="-1254.4012"/><linearGradient id="Z" gradientUnits="userSpaceOnUse" x1="134.6647" x2="134.6647" xlink:href="#c" y1="180.354" y2="199.1732"/><linearGradient id="aa" gradientUnits="userSpaceOnUse" x1="133.4668" x2="133.4668" xlink:href="#m" y1="193.819" y2="198.0637"/><linearGradient id="ab" gradientTransform="matrix(-1 0 0 1 1690.9226 311.6851)" gradientUnits="userSpaceOnUse" x1="1555.0959" x2="1555.0959" xlink:href="#m" y1="-117.8661" y2="-113.6214"/><linearGradient id="ac" gradientUnits="userSpaceOnUse" x1="134.6781" x2="134.6781" xlink:href="#W" y1="199.5476" y2="215.7348"/><linearGradient id="ad"><stop offset="0" stop-color="#3b2e61"/><stop offset="1" stop-color="#6052a1"/></linearGradient><linearGradient id="ae" gradientUnits="userSpaceOnUse" x1="134.9104" x2="140.0429" xlink:href="#ad" y1="211.9552" y2="211.9552"/><linearGradient id="af" gradientUnits="userSpaceOnUse" x1="129.1024" x2="134.235" xlink:href="#ad" y1="211.2257" y2="211.2257"/><linearGradient id="ag" gradientUnits="userSpaceOnUse" x1="134.085" x2="134.085" xlink:href="#ad" y1="214.4365" y2="220.1284"/><linearGradient id="ah"><stop offset="0" stop-color="#ffc65b"/><stop offset="1" stop-color="#fab224"/></linearGradient><linearGradient id="ai" gradientUnits="userSpaceOnUse" x1="128.8197" x2="139.4954" xlink:href="#ah" y1="215.534" y2="215.534"/><linearGradient id="aj" gradientUnits="userSpaceOnUse" x1="144.8405" x2="144.8405" xlink:href="#ah" y1="197.138" y2="202.0165"/><linearGradient id="ak" gradientUnits="userSpaceOnUse" x1="123.9049" x2="123.9049" xlink:href="#ah" y1="197.138" y2="202.0165"/><linearGradient id="al" gradientTransform="matrix(.9993 .03671309 -.03433254 .9345 1246.288 306.8625)" gradientUnits="userSpaceOnUse" x1="-1104.9812" x2="-1104.9812" xlink:href="#ad" y1="-69.6273" y2="-49.3152"/><linearGradient id="am" gradientTransform="matrix(-.9993 .03671309 .03433254 .9345 1663.6307 306.8625)" gradientUnits="userSpaceOnUse" x1="1534.2317" x2="1534.2317" xlink:href="#ad" y1="-173.3093" y2="-152.9972"/><linearGradient id="an"><stop offset="0" stop-color="#3f444e"/><stop offset="1" stop-color="#1b2226"/></linearGradient><linearGradient id="ao" gradientUnits="userSpaceOnUse" x1="134.6461" x2="134.5536" xlink:href="#an" y1="197.2766" y2="199.7938"/><linearGradient id="ap" gradientUnits="userSpaceOnUse" x1="129.8966" x2="129.8966" xlink:href="#an" y1="197.6089" y2="200.5211"/><linearGradient id="aq" gradientTransform="matrix(-1 0 0 1 1700.0116 311.6851)" gradientUnits="userSpaceOnUse" x1="1560.4468" x2="1560.4468" xlink:href="#an" y1="-114.0762" y2="-111.164"/><linearGradient id="ar" gradientUnits="userSpaceOnUse" x1="134.6781" x2="134.6781" xlink:href="#an" y1="196.2403" y2="201.1188"/><linearGradient id="as" gradientUnits="userSpaceOnUse" x1="134.6647" x2="134.6647" xlink:href="#an" y1="194.4348" y2="195.3245"/><linearGradient id="at" gradientUnits="userSpaceOnUse" x1="128.8197" x2="139.4954" xlink:href="#W" y1="218.3855" y2="218.3855"/><linearGradient id="au" gradientUnits="userSpaceOnUse" x1="107.2508" x2="124.0779" y1="212.6875" y2="212.6875"><stop offset="0" stop-color="#10a290"/><stop offset="1" stop-color="#49b1a6"/></linearGradient><linearGradient id="av"><stop offset="0" stop-color="#8d2d37"/><stop offset="1" stop-color="#781a26"/></linearGradient><linearGradient id="aw" gradientUnits="userSpaceOnUse" x1="208.3722" x2="211.1704" xlink:href="#av" y1="92.4248" y2="92.4248"/><linearGradient id="ax" gradientUnits="userSpaceOnUse" x1="213.8511" x2="216.6493" xlink:href="#av" y1="92.4248" y2="92.4248"/><linearGradient id="ay"><stop offset="0" stop-color="#25334d"/><stop offset="1" stop-color="#3e537d"/></linearGradient><linearGradient id="az" gradientUnits="userSpaceOnUse" x1="212.6405" x2="217.8107" xlink:href="#ay" y1="97.6131" y2="97.6131"/><linearGradient id="aA" gradientUnits="userSpaceOnUse" x1="207.3315" x2="212.5017" xlink:href="#ay" y1="97.6006" y2="97.6006"/><linearGradient id="aB" gradientUnits="userSpaceOnUse" x1="202.668" x2="207.0467" xlink:href="#ah" y1="99.6862" y2="99.6862"/><linearGradient id="aC" gradientTransform="matrix(-1 0 0 1 5813.1685 0)" gradientUnits="userSpaceOnUse" x1="5591.1436" x2="5595.522" xlink:href="#ah" y1="99.6862" y2="99.6862"/><linearGradient id="aD" gradientUnits="userSpaceOnUse" x1="212.3464" x2="212.3464" y1="97.3588" y2="102.8623"><stop offset=".02740354" stop-color="#109488"/><stop offset="1" stop-color="#10ad9b"/></linearGradient><linearGradient id="aE" gradientUnits="userSpaceOnUse" x1="207.0467" x2="217.8008" xlink:href="#ah" y1="98.2342" y2="98.2342"/><linearGradient id="aF" gradientUnits="userSpaceOnUse" x1="207.0467" x2="217.8008" xlink:href="#c" y1="100.3898" y2="100.3898"/><g clip-path="url(#a)"><g><path d="m .8-21.2h243.2v321.7h-243.2z" fill="url(#b)"/></g><g fill="#3b824a"><path d="m148.8-9.8h8.7v29.8h-8.7z" transform="matrix(0 1 -1 0 158.3343 -148.0356)"/><path d="m148.8 4.1h8.7v29.8h-8.7z" transform="matrix(0 1 -1 0 172.1981 -134.1718)"/><path d="m148.8 18h8.7v29.8h-8.7z" transform="matrix(0 1 -1 0 186.0619 -120.308)"/><path d="m148.8 31.8h8.7v29.8h-8.7z" transform="matrix(0 1 -1 0 199.9257 -106.4442)"/><path d="m148.8 45.7h8.7v29.8h-8.7z" transform="matrix(0 1 -1 0 213.7895 -92.5804)"/><path d="m148.8 59.6h8.7v29.8h-8.7z" transform="matrix(0 1 -1 0 227.6533 -78.7166)"/></g><g><path d="m88.3 187.4v-55h78v55z" fill="#3b824a" stroke="#fff" stroke-miterlimit="10" stroke-width="3"/><path d="m144.2 155.2c-2 0-4 .6-5.5 1.7l-3.4-4.1.3-1.5 3-1.2c.4-.1.6-.5.5-.9s-.4-.6-.8-.6l-7.5.3c-.4 0-.7.3-.8.7s.2.8.6.9l3.4.9c-.1.3-.1.6-.2.9l-14.6-.1 1.1-2.9c0-.1.1-.2.1-.3 0-.2-.1-.4-.3-.6-.3-.3-.6-.7-.6-.8s.1-.1.2-.2h3.9c.4 0 .8-.4.8-.8s-.3-.8-.8-.8h-4.1c-.1 0-.2 0-.3 0-1 .4-1.3 1-1.4 1.4v.3c0 .7.4 1.2.7 1.6-.2.4-1 2.7-1.8 4.8l-.3.9c-.3.7-.5 1.4-.7 1.9-1.5-.9-3.3-1.5-5.2-1.5-5.5 0-10 4.5-10 10.1s4.5 10.1 10 10.1 10-4.5 10-10.1c0-3.1-1.4-5.8-3.5-7.7l.4-1.2 11.3 11.4s.1.1.1.1h.1l.6 1.8c-.4.1-.7.4-.7.8s.3.8.8.8h2.2c.4 0 .8-.4.8-.8s-.4-.8-.8-.8h-.6l-.6-1.9 3.7-.5c1 4.6 5 8 9.8 8 5.5 0 10-4.5 10-10.1.1-5.5-4.4-10-9.9-10zm-25.2 10.1c0 4.7-3.8 8.5-8.5 8.5s-8.5-3.8-8.5-8.5 3.8-8.5 8.5-8.5c1.7 0 3.3.5 4.7 1.4-1.2 3.5-5.1 6.4-5.1 6.4-.2.2-.3.4-.3.6s0 .3.2.5c.3.4.7.4 1.1.2.2-.1 4-2.9 5.5-6.7 1.4 1.6 2.4 3.7 2.4 6.1zm10.5-.9-.2-.6h.1c.1 0 .2 0 .3-.1 0 .2-.1.5-.2.7zm-.1-2.2h-1.9c-.4 0-.8.4-.8.8s.3.8.8.8h.2l.3 1.1-9.9-10c .2-.4.3-.7.4-1.2.9 0 11.7.1 14.7.1-.6 1.8-2 5.7-3.1 8.8-.1-.3-.3-.4-.7-.4zm1.1 4.1 4.1-11.8c.6.7 1.6 1.9 2.7 3.3-2 1.9-3.3 4.5-3.3 7.5v.5c-1.3.2-2.6.4-3.5.5zm5.2-1c0-2.5 1-4.7 2.7-6.2 1.9 2.3 3.9 4.6 4.6 5.5-1.1.2-4.3.6-7.3 1.1 0-.2 0-.3 0-.4zm8.5 8.5c-4 0-7.4-2.9-8.3-6.7l8.7-1.3c.3 0 .5-.2.6-.5s.1-.6-.1-.8l-5.5-6.5c1.3-.8 2.9-1.3 4.5-1.3 4.7 0 8.5 3.8 8.5 8.5 0 4.8-3.8 8.6-8.4 8.6z" fill="#fff"/></g><path d="m88.9 292.6v-98.8" fill="none" stroke="#fff" stroke-dasharray="30" stroke-miterlimit="10" stroke-width="5"/><g fill="#fff"><path d="m0 130.1h170.1v3.9h-170.1z"/><g><path d="m49.9 89.7h8.7v37.7h-8.7z"/><path d="m63.7 89.7h8.7v37.7h-8.7z"/><path d="m77.6 89.7h8.7v37.7h-8.7z"/><path d="m91.5 89.7h8.7v37.7h-8.7z"/><path d="m105.3 89.7h8.7v37.7h-8.7z"/><path d="m119.2 89.7h8.7v37.7h-8.7z"/><path d="m133.1 89.7h8.7v37.7h-8.7z"/><path d="m146.9 89.7h8.7v37.7h-8.7z"/><path d="m160.8 89.7h8.7v37.7h-8.7z"/></g><g><path d="m8.3 89.7h8.7v37.7h-8.7z"/><path d="m22.1 89.7h8.7v37.7h-8.7z"/><path d="m36 89.7h8.7v37.7h-8.7z"/></g></g><g><path d="m-5.6 89.7h8.7v37.7h-8.7z" fill="#fff"/></g><g fill="#fff"><path d="m203.4 38.3h8.7v34.3h-8.7z" transform="matrix(0 -1 1 0 152.2625 263.1729)"/><path d="m203.4 24.4h8.7v34.3h-8.7z" transform="matrix(0 -1 1 0 166.1263 249.3091)"/><path d="m203.4 52.2h8.7v34.3h-8.7z" transform="matrix(0 -1 1 0 138.3987 277.0367)"/><path d="m203.4 10.6h8.7v34.3h-8.7z" transform="matrix(0 -1 1 0 179.9901 235.4453)"/><path d="m203.4-3.3h8.7v34.3h-8.7z" transform="matrix(0 -1 1 0 193.8539 221.5815)"/><path d="m203.4-17.1h8.7v34.3h-8.7z" transform="matrix(0 -1 1 0 207.7177 207.7177)"/></g><g><path d="m164.6 35.9-32-24.5-.8-.6.8-1c .4-.5 1-.6 1.5-.2l31.9 24.4c.5.4.6 1 .2 1.5l-.8 1z" fill="#b2b2b2"/><g><path d="m98.9 118.6-29.3-22.4-.8-.7-.8 1c-.4.5-.3 1.1.2 1.5l29.3 22.4c.5.4 1.1.3 1.5-.2l.8-1z" fill="#b2b2b2"/><path d="m111.2 110.8c-3.3 4.3-5.9 7.8-7.1 6.9-.1-.1-1.2-.9-1.5-1.1-1.3-1 1.5-5.2 4.4-9s5.7-6.7 7.4-6.6c.2 0 1.5 1 1.6 1.1 1.2.9-1.5 4.4-4.8 8.7z" fill="url(#d)"/><path d="m73.8 82.2c-3.3 4.3-6 7.8-4.8 8.6.1.1 1.2.9 1.5 1.1 1.3 1 4.6-2.9 7.5-6.6 2.9-3.8 5-7.2 4.4-8.8-.1-.2-1.4-1.2-1.5-1.3-1.2-.8-3.8 2.7-7.1 7z" fill="url(#e)"/><path d="m152.9 59.1c-3.3 4.3-5.9 7.8-7.1 6.9-.1-.1-1.2-.9-1.5-1.1-1.3-1 1.5-5.2 4.4-9s5.7-6.7 7.4-6.6c.2 0 1.5 1 1.6 1.1 1.2.9-1.5 4.4-4.8 8.7z" fill="url(#f)"/><path d="m113.2 28.8c-3.3 4.3-6 7.8-4.8 8.6.1.1 1.2.9 1.5 1.1 1.3 1 4.6-2.9 7.5-6.6 2.9-3.8 5-7.2 4.4-8.8-.1-.2-1.4-1.2-1.5-1.3-1.2-.9-3.8 2.7-7.1 7z" fill="url(#g)"/><path d="m72.1 93.2-2.2-1.7 12-15.5 2.1 1.6z" fill="url(#i)"/><path d="m103.2 117-2.2-1.7 11.9-15.6 2.2 1.7z" fill="url(#j)"/><path d="m111.2 39.6-2.2-1.7 11.9-15.6 2.2 1.7z" fill="url(#k)"/><path d="m145 65.5-2.2-1.7 12-15.6 2.1 1.7z" fill="url(#l)"/><path d="m119.6 26.6 12.2-15.9 33.7 25.8-12.2 15.9z" fill="url(#n)"/><path d="m91.5 63.3 28.1-36.7 33.7 25.8-28.1 36.7z" fill="url(#p)"/><path d="m161.4 36.8-5.9-4.4 2.5-3.4 5.9 4.5z" fill="url(#r)"/><path d="m151.7 51.1-17.3 11.1-18.5-14.1 5.7-20z" fill="#d6d6d5"/><path d="m154.7 32.3 2-2.6 7.2 5.6-2 2.5z" fill="url(#s)"/><path d="m116.5 33.6-4.8 16-7.5 9.9-8.4 1.1z" fill="#d6d6d5"/><path d="m137.4 40.1c-9.4-7.8-18.3 4.7-21.5 8l18.5 14.1c2.4-4.5 10.3-16.1 3-22.1z" fill="url(#u)" opacity=".5"/><path d="m109.7 47.4c1.3 1-2.2 7.7-5.5 12l-8.3 1.1c3.3-4.3 12.5-14 13.8-13.1z" fill="url(#v)" opacity=".5"/><path d="m147.1 57-14.2 8.8-7.6 9.8 1.2 8.4z" fill="#d6d6d5"/><path d="m135.5 67.2c-1.3-1-6.9 4.1-10.2 8.4l1.1 8.3c3.4-4.2 10.4-15.7 9.1-16.7z" fill="url(#w)" opacity=".5"/><path d="m91.8 114.6.7-1 4.7 3.7-.7.9z" fill="url(#x)"/><path d="m70.6 98.4.8-.9 4.7 3.6-.7.9z" fill="url(#y)"/><path d="m97.7 63.1 7.6-1.2 18.5 14.2.6 7.6z" fill="#d6d6d5"/><path d="m99.7 119.2-30.9-23.7 24-31.3 30.9 23.7z" fill="url(#z)"/><path d="m110.9 73.3c9.4 7.8 9.7 6 12.9 2.7l-18.5-14.1c-2.5 4.6-1.7 5.4 5.6 11.4z" fill="url(#A)" opacity=".5"/><path d="m138.1 19-5.8-4.4 2.5-3.3 5.9 4.4z" fill="url(#B)"/><path d="m131.4 14.6 2-2.6 7.2 5.5-1.9 2.6z" fill="url(#C)"/><g><circle clip-path="url(#D)" cx="127.1" cy="20.1" fill="url(#F)" opacity=".25" r="20.3"/></g><g><path clip-path="url(#G)" d="m101.4 98.1c-7.4 9.7-23.1 10.2-35.1 1s-15.6-24.4-8.2-34.1 23.1-10.2 35.1-1 15.6 24.4 8.2 34.1z" fill="url(#H)" opacity=".25"/></g><path d="m97.2 117.3-25.8-19.8 21.7-28.5 25.9 19.8z" fill="url(#I)"/><path d="m84.4 107.5-13-10 21.7-28.5 13.1 10z" fill="url(#J)"/><path d="m124.5 54.7-10.5 13.8-10.6-8 10.6-13.8z" fill="url(#K)" opacity=".25"/></g><path d="m151.7 51.2 6.5 4.9-2.9 3.7-7.8-3.2z" fill="url(#M)"/><path d="m121.6 28.1-6.5-4.9-2.8 3.7 5.1 6.7z" fill="url(#N)"/></g><path d="m244 73.7h-50c-9 .1-26 23.4-26 23.4v203.5h76v-195.1h.1v-31.8z" fill="#bbbdbf"/><g><path d="m168 169.5h75.9v1.8h-75.9z" fill="#d6d6d5"/></g><path d="m168 300.5v-202.3l26-24.5h50" fill="none" stroke="#fad03b" stroke-miterlimit="10" stroke-width="3"/><path d="m176.5 201.3h28.4v27.2h-28.4z" fill="url(#P)"/><path d="m200.6 216.2c0-.6-.1-1.1-.2-1.6 0-.2 0-.4 0-.6 0-1.7-.4-3.2-1.1-4.6.1-.4.2-.8.2-1.3 0-2.9-2.3-5.2-5.2-5.2-1.1 0-2.2.4-3 1-.3 0-.7-.1-1-.1-2.1 0-4.1.6-5.7 1.7-.2 0-.5-.1-.8-.1-2.9 0-5.2 2.3-5.2 5.2 0 1.4.6 2.7 1.5 3.6v.6c-.9.9-1.5 2.2-1.5 3.7 0 2.9 2.3 5.2 5.2 5.2.8 0 1.5-.2 2.2-.5.8 2 2.7 3.4 4.9 3.4 2.6 0 4.7-1.9 5.2-4.3.6-.4 1.2-.9 1.7-1.5 1.6-.8 2.8-2.5 2.8-4.6z" fill="url(#R)"/><path d="m176.5 115.1h28.4v27.2h-28.4z" fill="url(#S)"/><path d="m200.6 130c0-.6-.1-1.1-.2-1.6 0-.2 0-.4 0-.6 0-1.7-.4-3.2-1.1-4.6.1-.4.2-.8.2-1.3 0-2.9-2.3-5.2-5.2-5.2-1.1 0-2.2.4-3 1-.3 0-.7-.1-1-.1-2.1 0-4.1.6-5.7 1.7-.2 0-.5-.1-.8-.1-2.9 0-5.2 2.3-5.2 5.2 0 1.4.6 2.7 1.5 3.6v.6c-.9.9-1.5 2.2-1.5 3.7 0 2.9 2.3 5.2 5.2 5.2.8 0 1.5-.2 2.2-.5.8 2 2.7 3.4 4.9 3.4 2.6 0 4.7-1.9 5.2-4.3.6-.4 1.2-.9 1.7-1.5 1.6-.8 2.8-2.6 2.8-4.6z" fill="url(#T)"/><g><g><path d="m134.9 242.5h-.5c-.5 0-.9-.4-.9-.9v-17c0-.5.4-.9.9-.9h.5c.5 0 .9.4.9.9v17c0 .5-.4.9-.9.9z" fill="url(#U)"/><path d="m135 231.9h-.6c-.6 0-1.1-.5-1.1-1.1v-12.5c0-.6.5-1.1 1.1-1.1h.6c.6 0 1.1.5 1.1 1.1v12.5c0 .6-.5 1.1-1.1 1.1z" fill="url(#V)"/><path d="m133.7 218.2v6.6c0 .2-.2.4-.4.4h-.2c-.2 0-.4-.2-.4-.4v-6.6c0-.2.2-.4.4-.4h.2c.2.1.4.2.4.4z" fill="url(#X)"/><path d="m136.5 218.2v6.6c0 .2-.2.4-.4.4h-.1c-.2 0-.4-.2-.4-.4v-6.6c0-.2.2-.4.4-.4h.2c.2.1.3.2.3.4z" fill="url(#Y)"/><path d="m134.9 199.2h-.5c-.5 0-.9-.4-.9-.9v-17c0-.5.4-.9.9-.9h.5c.5 0 .9.4.9.9v17c0 .5-.4.9-.9.9z" fill="url(#Z)"/><path d="m133.4 198.1h-.2c-.1 0-.2-.1-.2-.2v-3.9c0-.1.1-.2.2-.2h.2c.3 0 .5.2.5.5v3.3c0 .3-.2.5-.5.5z" fill="url(#aa)"/><path d="m135.9 198.1h.2c.1 0 .2-.1.2-.2v-3.9c0-.1-.1-.2-.2-.2h-.2c-.3 0-.5.2-.5.5v3.3c0 .3.2.5.5.5z" fill="url(#ab)"/><path d="m133.5 199.5h2.3v16.2h-2.3z" fill="url(#ac)"/><path d="m138 220.1h-1.1c-1.1 0-2-.9-2-2v-12.3c0-1.1.9-2 2-2h1.1c1.1 0 2 .9 2 2v12.3c0 1.1-.9 2-2 2z" fill="url(#ae)"/><path d="m132.2 220.1h-1.1c-1.1 0-2-.9-2-2v-13.8c0-1.1.9-2 2-2h1.1c1.1 0 2 .9 2 2v13.8c0 1.1-.9 2-2 2z" fill="url(#af)"/><path d="m124.5 214.4h19.2v5.7h-19.2z" fill="url(#ag)"/><path d="m139.5 215.5c0 4.1-1.1 7.4-5.3 7.4-4.1 0-5.4-3.3-5.4-7.4 0-1.9.7-3.1 1.8-4 .9-.8 1.3-1.4 2.7-1.7.5-.1.4-1.7 1-1.7s.5 1.4 1 1.5c1.1.3 1.9 1 2.7 1.6 1.1 1 1.5 2.2 1.5 4.3z" fill="url(#ai)"/><circle cx="144.8" cy="199.6" fill="url(#aj)" r="2.4"/><circle cx="123.9" cy="199.6" fill="url(#ak)" r="2.4"/><path d="m144.2 220.1c-1.1 0-2.8.7-2.8-1.9 0-4.3 1.7-4.5 1.6-7.5 0-1.8-.2-8.5-.2-8.5 0-1 .9-1 2-.9 1.1 0 1.9 0 1.9 1l-.5 16c0 1-.9 1.9-2 1.8z" fill="url(#al)"/><path d="m124.7 220.1c1.1 0 2.8.7 2.8-1.9 0-4.3-1.7-4.5-1.6-7.5 0-1.8.2-8.5.2-8.5 0-1-.9-1-2-.9-1.1 0-1.9 0-1.9 1l .5 16c0 1 1 1.9 2 1.8z" fill="url(#am)"/><path d="m144.4 198.5c0-.5-.3-.9-.7-.9h-18.1-.1c-.4 0-.7.4-.7.9s.3.9.7.9h.1 18.1c.4 0 .7-.4.7-.9z" fill="url(#ao)"/><path d="m128.1 200.5s3.9.7 3.7-2.8h-3.8z" fill="url(#ap)"/><path d="m141.4 200.5s-3.9.7-3.7-2.8h3.7z" fill="url(#aq)"/><ellipse cx="134.7" cy="198.7" fill="url(#ar)" rx="2.1" ry="2.4"/><path d="m139 195.3h-8.6c-.2 0-.4-.2-.4-.4v-.2c0-.2.2-.4.4-.4h8.6c.2 0 .4.2.4.4v.2c-.1.3-.2.4-.4.4z" fill="url(#as)"/><path d="m128.8 215.3s1 .7.9 1.5c-.1.9-.8.7-.7.9s.1 5.4 5.5 5.3c5.1-.1 5-5.9 5-5.9s-1.1 0-1-1c .1-.9 1-1.1 1-1.1l-.1-1.2s-1.2.7-1.4 1.2c-.2.4-1.1 1.6-.5 2.7s-.2 2-.6 2.5c-.4.6-3.7.7-4.8.2s-1.7-1.5-1.6-2.2c.2-.7.5-2.7 0-3s-1.5-1.3-1.5-1.3l-.2.7z" fill="url(#at)"/></g><g><g><g><path d="m115.7 221.1c-4.6 0-8.4-3.8-8.4-8.4s3.8-8.4 8.4-8.4 8.4 3.8 8.4 8.4-3.8 8.4-8.4 8.4z" fill="url(#au)"/><path d="m115.7 221.5c-4.8 0-8.8-3.9-8.8-8.8 0-4.8 3.9-8.8 8.8-8.8 4.8 0 8.8 3.9 8.8 8.8 0 4.8-4 8.8-8.8 8.8zm0-16.8c-4.4 0-8 3.6-8 8s3.6 8 8 8 8-3.6 8-8-3.6-8-8-8z" fill="#fff"/></g><path d="m114.4 216.5-3.7-3.7 1.4-1.5 2.3 2.3 4.9-4.8 1.4 1.4z" fill="#fff"/></g><path d="m109.7 206.8 11.9 11.9c-3.3 3.3-8.6 3.3-11.8 0-3.3-3.3-3.4-8.6-.1-11.9z" fill="#d8d8d8"/></g></g><g><path d="m209.9 95h-.2c-.7 0-1.3-.6-1.3-1.3v-2.5c0-.7.6-1.3 1.3-1.3h.2c.7 0 1.3.6 1.3 1.3v2.5c0 .7-.6 1.3-1.3 1.3z" fill="url(#aw)"/><path d="m215.4 95h-.2c-.7 0-1.3-.6-1.3-1.3v-2.5c0-.7.6-1.3 1.3-1.3h.2c.7 0 1.3.6 1.3 1.3v2.5c-.1.7-.6 1.3-1.3 1.3z" fill="url(#ax)"/><path d="m215.4 102.8h-.4c-1.3 0-2.4-1.1-2.4-2.4v-5.6c0-1.3 1.1-2.4 2.4-2.4h.4c1.3 0 2.4 1.1 2.4 2.4v5.6c0 1.3-1.1 2.4-2.4 2.4z" fill="url(#az)"/><path d="m210.1 102.8h-.4c-1.3 0-2.4-1.1-2.4-2.4v-5.6c0-1.3 1.1-2.4 2.4-2.4h.4c1.3 0 2.4 1.1 2.4 2.4v5.6c0 1.3-1.1 2.4-2.4 2.4z" fill="url(#aA)"/><path d="m205.1 102.9-.4-.2c-1.1 0-2.1-2.3-2.1-2.3v-2c0-1.1 1.1-1.9 2.2-1.9 1.1 0 2.2.9 2.2 1.9v4.4s-.8.1-1.9.1z" fill="url(#aB)"/><path d="m219.6 102.9.4-.2c1.1 0 2.1-2.3 2.1-2.3v-2c0-1.1-1.1-1.9-2.2-1.9-1.1 0-2.2.9-2.2 1.9v4.4c-.1 0 .8.1 1.9.1z" fill="url(#aC)"/><path d="m219.5 102.9h-14.2c-1.4 0-2.6-1.1-2.6-2.6v-.4c0-1.4 1.1-2.6 2.6-2.6h14.2c1.4 0 2.6 1.1 2.6 2.6v.4c-.1 1.4-1.2 2.6-2.6 2.6z" fill="url(#aD)"/><path d="m217.8 98.2c0 4.1-1.1 7.5-5.3 7.5s-5.5-3.4-5.5-7.5c0-1.9.7-3.1 1.8-4 .9-.8 1.3-1.4 2.7-1.8.5-.1.4-1.7 1-1.7s.5 1.4 1 1.5c1.2.3 1.9 1 2.7 1.6 1.2 1.1 1.6 2.2 1.6 4.4z" fill="url(#aE)"/><path d="m207 98s1 .7.9 1.5c-.1.9-.8.7-.7.9s.1 5.4 5.5 5.4c5.1-.1 5-5.9 5-5.9s-1.1 0-1-1 1-1.1 1-1.1l-.1-.7-.1-.5s-1.2.7-1.4 1.2c-.2.4-.5.3-.5.3s.1-3-3.1-2.9c-3.5.1-3.2 2.9-3.2 2.9s-.4.4-.7-.2c-.2-.5-1.5-1.3-1.5-1.3s-.1.4-.2.7c.2.3.1.7.1.7z" fill="url(#aF)"/></g><g><path d="m197.9 72.1v29.3s-20.2 0-31.3 0v-3.6s.4-9.3 8.5-17.5c7.7-7.8 21-8.2 21-8.2z" fill="#b2b4b6"/><g fill="#fff"><path d="m187.1 90.9c-.5.4-.6 1.1-.2 1.6s1.1.6 1.6.2.6-1.1.2-1.6-1.1-.6-1.6-.2zm0 0"/><path d="m181.9 87.1c-.4-1-.1-2.2.7-2.8 1.1-.8 2.6-.7 3.4.4.6.8.7 1.8.3 2.7l.6.8c.8-1.2.8-2.9-.1-4.1-1.2-1.5-3.3-1.7-4.8-.5-1.1.9-1.5 2.2-1.2 3.5l.8.4c.1-.2.1-.3.3-.4zm0 0"/><path d="m178.5 88.1 3 1.4c.2.1.5.1.7-.1l1.5-1.2.3.3-1.3 1c-.1.1-.2.3-.2.4s0 .2.1.3c.2.2.5.2.7.1l1.3-1 .9 1.1c.3.3.8.6 1.4.2.4-.3.5-.9.2-1.4l-2-2.5c-.3-.4-1-.5-1.4-.2l-1.9 1.5-2.6-1.2c-.2-.1-.5-.1-.7.1-.1.1-.1.1-.2.2-.3.4-.1.8.2 1zm0 0"/></g></g></g></svg>