<svg enable-background="new 0 0 575.5 467.4" viewBox="0 0 575.5 467.4" xmlns="http://www.w3.org/2000/svg" xmlns:xlink="http://www.w3.org/1999/xlink"><clipPath id="a"><path d="m0 0h575.5v467.4h-575.5z"/></clipPath><linearGradient id="b" gradientUnits="userSpaceOnUse" x1="287.6716" x2="287.6716" y1="467.3501" y2="-81.2256"><stop offset=".03517618" stop-color="#4f4d4d"/><stop offset="1" stop-color="#4f4d4d"/></linearGradient><linearGradient id="c"><stop offset="0" stop-color="#151b26"/><stop offset="1" stop-color="#151b26"/></linearGradient><linearGradient id="d" gradientTransform="matrix(-1 .00845414 -.00845414 -1 6779.0591 -1878.2793)" gradientUnits="userSpaceOnUse" x1="6575.8828" x2="6575.8828" xlink:href="#c" y1="-2027.6932" y2="-2003.8964"/><linearGradient id="e" gradientTransform="matrix(1 -.00845414 -.00845414 -1 6261.0552 -1873.8999)" gradientUnits="userSpaceOnUse" x1="-6006.4478" x2="-6006.4478" xlink:href="#c" y1="-2027.5547" y2="-2003.7578"/><linearGradient id="f" gradientTransform="matrix(-1 .00845414 -.00845414 -1 6779.0591 -1878.2793)" gradientUnits="userSpaceOnUse" x1="6578.1943" x2="6578.1943" xlink:href="#c" y1="-2083.5613" y2="-2059.7646"/><linearGradient id="g" gradientTransform="matrix(1 -.00845414 -.00845414 -1 6261.0552 -1873.8999)" gradientUnits="userSpaceOnUse" x1="-6005.4624" x2="-6005.4624" xlink:href="#c" y1="-2083.5183" y2="-2059.7214"/><linearGradient id="h"><stop offset="0" stop-color="#d72538"/><stop offset="1" stop-color="#d72538"/></linearGradient><linearGradient id="i" gradientTransform="matrix(-1 .00845414 -.00845414 -1 6779.0591 -1878.2793)" gradientUnits="userSpaceOnUse" x1="6519.3555" x2="6532.9189" xlink:href="#h" y1="-2022.4368" y2="-2008.8729"/><linearGradient id="j" gradientTransform="matrix(-1 .00845414 -.00845414 -1 6779.0591 -1878.2793)" gradientUnits="userSpaceOnUse" x1="6567.4341" x2="6580.9976" xlink:href="#h" y1="-2022.5754" y2="-2009.0116"/><linearGradient id="k"><stop offset="0" stop-color="#ffc65b"/><stop offset="1" stop-color="#fab224"/></linearGradient><linearGradient id="l" gradientTransform="matrix(-1 .00845414 -.00845414 -1 6779.0591 -1878.2793)" gradientUnits="userSpaceOnUse" x1="6517.9019" x2="6531.4653" xlink:href="#k" y1="-2078.4019" y2="-2064.8379"/><linearGradient id="m" gradientTransform="matrix(-1 .00845414 -.00845414 -1 6779.0591 -1878.2793)" gradientUnits="userSpaceOnUse" x1="6570.0415" x2="6583.6055" xlink:href="#k" y1="-2078.4448" y2="-2064.8811"/><linearGradient id="n" gradientTransform="matrix(-.00845414 -1 1 -.00845414 6681.168 -2107.0352)" gradientUnits="userSpaceOnUse" x1="-2337.3572" x2="-2313.1401" xlink:href="#k" y1="-6454.4028" y2="-6454.4028"/><linearGradient id="o" gradientTransform="matrix(.8512 .5248 -.5248 .8512 236.5069 -1840.8134)" gradientUnits="userSpaceOnUse" x1="1046.1007" x2="1139.0944" xlink:href="#k" y1="1750.7277" y2="1750.7277"/><linearGradient id="p"><stop offset="0" stop-color="#fab11f"/><stop offset="1" stop-color="#ffff5d"/></linearGradient><linearGradient id="q" gradientTransform="matrix(-1 -.00826694 .00826694 -1 6916.8564 -1856.0651)" gradientUnits="userSpaceOnUse" x1="6658.3267" x2="6667.249" xlink:href="#p" y1="-2193.5159" y2="-2193.5159"/><linearGradient id="r" gradientTransform="matrix(.00826694 -1 1 .00826694 6730.7031 -2031.2142)" gradientUnits="userSpaceOnUse" x1="-2367.947" x2="-2363.9932" xlink:href="#k" y1="-6475.4175" y2="-6475.4175"/><linearGradient id="s"><stop offset="0" stop-color="#d6d6d5"/><stop offset="1" stop-color="#d6d6d5" stop-opacity="0"/></linearGradient><linearGradient id="t" gradientTransform="matrix(-.3709 -.9287 .9287 -.3709 6663.5757 -2062.0447)" gradientUnits="userSpaceOnUse" x1="221.9546" x2="250.0148" xlink:href="#s" y1="-6814.0308" y2="-6814.0308"/><linearGradient id="u" gradientTransform="matrix(-.00845414 -1 -1 .00845414 7055.001 -2131.8455)" gradientUnits="userSpaceOnUse" x1="-2307.1155" x2="-2274.4739" xlink:href="#s" y1="6808.7798" y2="6808.7798"/><linearGradient id="v" gradientTransform="matrix(-.00845414 -1 1 -.00845414 5855.3081 -2121.7029)" gradientUnits="userSpaceOnUse" x1="-2307.3499" x2="-2274.426" xlink:href="#s" y1="-5647.5625" y2="-5647.5625"/><linearGradient id="w"><stop offset="0" stop-color="#fab11f"/><stop offset="1" stop-color="#ffc55d"/></linearGradient><linearGradient id="x" gradientTransform="matrix(-.00845414 -1 1 -.00845414 6681.168 -2107.0352)" gradientUnits="userSpaceOnUse" x1="-2229.9304" x2="-2228.5027" xlink:href="#w" y1="-6471.2378" y2="-6471.2378"/><linearGradient id="y" gradientTransform="matrix(-.00845414 -1 1 -.00845414 6681.168 -2107.0352)" gradientUnits="userSpaceOnUse" x1="-2229.9304" x2="-2228.5027" xlink:href="#w" y1="-6438.9365" y2="-6438.9365"/><linearGradient id="z" gradientTransform="matrix(.3709 .9287 -.9287 .3709 6304.605 -2069.4626)" gradientUnits="userSpaceOnUse" x1="-143.3858" x2="-129.0965" xlink:href="#s" y1="6469.3687" y2="6469.3687"/><clipPath id="A"><path d="m272.4 260.4s.2 26.2-26.6 24.4c-23.1-1.6-25.1-17.9-25.1-20.4s.3-3.5.3-3.5z"/></clipPath><linearGradient id="B"><stop offset="0" stop-color="#414141" stop-opacity="0"/><stop offset="1" stop-color="#737373"/></linearGradient><linearGradient id="C" gradientTransform="matrix(-1 .00845414 -.00845414 -1 6779.0591 -1878.2793)" gradientUnits="userSpaceOnUse" x1="6502.3262" x2="6551.6343" xlink:href="#B" y1="-2095.3552" y2="-2095.3552"/><linearGradient id="D" gradientTransform="matrix(-.9999 .01629517 -.01629517 -.9999 6886.0347 -1940.2167)" gradientUnits="userSpaceOnUse" x1="6658.5049" x2="6667.4272" xlink:href="#p" y1="-2114.0481" y2="-2114.0481"/><linearGradient id="E" gradientTransform="matrix(-.01629517 -.9999 .9999 -.01629517 6695.6357 -2110.741)" gradientUnits="userSpaceOnUse" x1="-2288.479" x2="-2284.5251" xlink:href="#k" y1="-6475.5957" y2="-6475.5957"/><linearGradient id="F" gradientTransform="matrix(.8512 .5248 -.5248 .8512 236.5069 -1840.8134)" gradientUnits="userSpaceOnUse" x1="1051.8334" x2="1133.3032" xlink:href="#B" y1="1738.2881" y2="1738.2881"/><linearGradient id="G" gradientTransform="matrix(0 -1 1 0 4428.222700000001 2754.6814)" gradientUnits="userSpaceOnUse" x1="2542.3594" x2="2542.3594" xlink:href="#c" y1="-4316.161600000001" y2="-4292.0454"/><linearGradient id="H"><stop offset="0" stop-color="#ed3f50"/><stop offset=".2472" stop-color="#e23244"/><stop offset=".5761" stop-color="#da283b"/><stop offset="1" stop-color="#d72538"/></linearGradient><linearGradient id="I" gradientTransform="matrix(0 -1 1 0 4428.222700000001 2754.6814)" gradientUnits="userSpaceOnUse" x1="2542.3594" x2="2542.3594" xlink:href="#H" y1="-4324.4922" y2="-4305.582000000001"/><linearGradient id="J"><stop offset="0" stop-color="#d6d6d5"/><stop offset="1" stop-color="#e3e3e2"/></linearGradient><linearGradient id="K" gradientTransform="matrix(-1 0 0 -1 4985.7095 2543.6384)" gradientUnits="userSpaceOnUse" x1="4876.3984" x2="4876.3984" xlink:href="#J" y1="2328.916" y2="2330.0559"/><linearGradient id="L" gradientTransform="matrix(-1 0 0 -1 4985.7095 2543.6384)" gradientUnits="userSpaceOnUse" x1="4876.3984" x2="4876.3984" xlink:href="#J" y1="2332.5767" y2="2333.7168"/><linearGradient id="M" gradientTransform="matrix(0 -1 1 0 4428.222700000001 2754.6814)" gradientUnits="userSpaceOnUse" x1="2542.3594" x2="2542.3594" xlink:href="#c" y1="-4371.6792" y2="-4347.563"/><linearGradient id="N" gradientTransform="matrix(0 -1 1 0 4428.222700000001 2754.6814)" gradientUnits="userSpaceOnUse" x1="2540.8242" x2="2540.8242" xlink:href="#H" y1="-4354.4243" y2="-4348.984900000001"/><linearGradient id="O" gradientTransform="matrix(0 1 1 0 4428.222700000001 1955.3062)" gradientUnits="userSpaceOnUse" x1="-1744.4731" x2="-1744.4731" xlink:href="#H" y1="-4354.4243" y2="-4348.984900000001"/><linearGradient id="P" gradientTransform="matrix(0 -1 1 0 4428.222700000001 2754.6814)" gradientUnits="userSpaceOnUse" x1="2542.3765" x2="2542.3765" xlink:href="#J" y1="-4347.083" y2="-4326.3394"/><linearGradient id="Q"><stop offset="0" stop-color="#282e5d"/><stop offset="1" stop-color="#2b52a1"/></linearGradient><linearGradient id="R" gradientTransform="matrix(0 -1 1 0 4428.222700000001 2754.6814)" gradientUnits="userSpaceOnUse" x1="2542.6741" x2="2549.2515" xlink:href="#Q" y1="-4331.1831" y2="-4331.1831"/><linearGradient id="S" gradientTransform="matrix(0 -1 1 0 4428.222700000001 2754.6814)" gradientUnits="userSpaceOnUse" x1="2535.2314" x2="2541.8086" xlink:href="#Q" y1="-4332.1182" y2="-4332.1182"/><linearGradient id="T" gradientTransform="matrix(0 -1 1 0 4428.222700000001 2754.6814)" gradientUnits="userSpaceOnUse" x1="2541.6165" x2="2541.6165" xlink:href="#Q" y1="-4328.0034" y2="-4320.7095"/><linearGradient id="U" gradientTransform="matrix(0 -1 1 0 4428.222700000001 2754.6814)" gradientUnits="userSpaceOnUse" x1="2534.8691" x2="2548.5498" xlink:href="#k" y1="-4326.5967" y2="-4326.5967"/><linearGradient id="V" gradientTransform="matrix(0 -1 1 0 4428.222700000001 2754.6814)" gradientUnits="userSpaceOnUse" x1="2555.3994" x2="2555.3994" xlink:href="#k" y1="-4350.1709" y2="-4343.9194"/><linearGradient id="W" gradientTransform="matrix(0 -1 1 0 4428.222700000001 2754.6814)" gradientUnits="userSpaceOnUse" x1="2528.5708" x2="2528.5708" xlink:href="#k" y1="-4350.1709" y2="-4343.9194"/><linearGradient id="X" gradientTransform="matrix(.03671309 -.9993 .9345 .03433254 4424.2437 2748.97)" gradientUnits="userSpaceOnUse" x1="2388.0894" x2="2388.0894" xlink:href="#Q" y1="-4738.895" y2="-4712.8652"/><linearGradient id="Y" gradientTransform="matrix(.03671309 .9993 .9345 -.03433254 4424.2437 1986.5573)" gradientUnits="userSpaceOnUse" x1="-1919.3704" x2="-1919.3704" xlink:href="#Q" y1="-4569.6758" y2="-4543.646"/><linearGradient id="Z"><stop offset="0" stop-color="#3f444e"/><stop offset="1" stop-color="#1b2226"/></linearGradient><linearGradient id="aa" gradientTransform="matrix(0 -1 1 0 4428.222700000001 2754.6814)" gradientUnits="userSpaceOnUse" x1="2542.3354" x2="2542.217" xlink:href="#Z" y1="-4349.9932" y2="-4346.7676"/><linearGradient id="ab" gradientTransform="matrix(0 -1 1 0 4428.222700000001 2754.6814)" gradientUnits="userSpaceOnUse" x1="2536.249" x2="2536.249" xlink:href="#Z" y1="-4349.5674" y2="-4345.8354"/><linearGradient id="ac" gradientTransform="matrix(0 1 1 0 4428.222700000001 1946.2172)" gradientUnits="userSpaceOnUse" x1="-1740.1747" x2="-1740.1747" xlink:href="#Z" y1="-4349.5674" y2="-4345.8354"/><linearGradient id="ad" gradientTransform="matrix(0 -1 1 0 4428.222700000001 2754.6814)" gradientUnits="userSpaceOnUse" x1="2542.3765" x2="2542.3765" xlink:href="#Z" y1="-4351.3213" y2="-4345.0698"/><linearGradient id="ae" gradientTransform="matrix(0 -1 1 0 4428.222700000001 2754.6814)" gradientUnits="userSpaceOnUse" x1="2542.3594" x2="2542.3594" xlink:href="#Z" y1="-4353.6353" y2="-4352.4951"/><linearGradient id="af" gradientTransform="matrix(0 -1 1 0 -3305.9839 4742.207)" gradientUnits="userSpaceOnUse" x1="4522.3965" x2="4536.0757" xlink:href="#c" y1="3410.3523" y2="3410.3523"/><linearGradient id="ag"><stop offset="0" stop-color="#781a26"/><stop offset=".2055" stop-color="#741e24"/><stop offset=".4189" stop-color="#682b1f"/><stop offset=".636" stop-color="#543f16"/><stop offset=".8542" stop-color="#395c0a"/><stop offset="1" stop-color="#227400"/></linearGradient><radialGradient id="ah" cx="28.5673" cy="389.0212" gradientUnits="userSpaceOnUse" r="16.9316" xlink:href="#ag"/><linearGradient id="ai"><stop offset="0" stop-color="#8cc65b"/><stop offset="1" stop-color="#507e24"/></linearGradient><linearGradient id="aj" gradientUnits="userSpaceOnUse" x1="13.5403" x2="40.478" xlink:href="#ai" y1="388.8257" y2="388.8257"/><radialGradient id="ak" cx="28.5673" cy="40.6765" gradientUnits="userSpaceOnUse" r="16.9316" xlink:href="#ag"/><linearGradient id="al" gradientUnits="userSpaceOnUse" x1="13.5403" x2="40.478" xlink:href="#ai" y1="40.481" y2="40.481"/><radialGradient id="am" cx="545.1932" cy="40.6765" gradientUnits="userSpaceOnUse" r="16.9316" xlink:href="#ag"/><linearGradient id="an" gradientUnits="userSpaceOnUse" x1="530.1662" x2="557.1039" xlink:href="#ai" y1="40.481" y2="40.481"/><radialGradient id="ao" cx="6644.4995" cy="389.0212" gradientTransform="matrix(-1 0 0 1 7190.5698 0)" gradientUnits="userSpaceOnUse" r="16.9316" xlink:href="#ag"/><linearGradient id="ap" gradientTransform="matrix(-1 0 0 1 7190.5698 0)" gradientUnits="userSpaceOnUse" x1="6629.4727" x2="6656.4102" xlink:href="#ai" y1="388.8257" y2="388.8257"/><linearGradient id="aq"><stop offset="0" stop-color="#62b946"/><stop offset="1" stop-color="#629050"/></linearGradient><linearGradient id="ar" gradientUnits="userSpaceOnUse" x1="352.1035" x2="351.5096" xlink:href="#aq" y1="380.8288" y2="557.7141"/><linearGradient id="as" gradientTransform="matrix(1 .00335716 -.00335716 1 89.4057 271.6718)" gradientUnits="userSpaceOnUse" x1="302.6676" x2="302.6676" xlink:href="#c" y1="100.836" y2="135.677"/><linearGradient id="at" gradientTransform="matrix(-1 -.00335716 -.00335716 1 607.4252 273.4109)" gradientUnits="userSpaceOnUse" x1="294.8242" x2="294.8242" xlink:href="#c" y1="100.836" y2="135.677"/><linearGradient id="au" gradientTransform="matrix(1.1999 .00402833 -.00335716 1 -582.0579 269.4167)" gradientUnits="userSpaceOnUse" x1="737.5422" x2="757.401" xlink:href="#aq" y1="108.3297" y2="128.1884"/><linearGradient id="av" gradientTransform="matrix(1.0904 .00366064 -.00335716 1 -218.6824 270.6371)" gradientUnits="userSpaceOnUse" x1="547.7136" x2="567.8568" xlink:href="#aq" y1="108.1871" y2="128.3304"/><linearGradient id="aw" gradientTransform="matrix(-.00335716 1 -1 -.00335716 184.588 501.5679)" gradientUnits="userSpaceOnUse" x1="-146.953" x2="-113.4123" xlink:href="#aq" y1="-167.0786" y2="-167.0786"/><linearGradient id="ax" gradientTransform="matrix(1 .00335716 -.00335716 1 -2.4229 327.3348)" gradientUnits="userSpaceOnUse" x1="373.8424" x2="386.9056" xlink:href="#w" y1="27.8412" y2="27.8412"/><linearGradient id="ay" gradientTransform="matrix(1 .00335716 -.00335716 1 -2.4229 327.3348)" gradientUnits="userSpaceOnUse" x1="321.8651" x2="334.9283" xlink:href="#w" y1="28.0157" y2="28.0157"/><linearGradient id="az" gradientTransform="matrix(-.00335716 1 -1 -.00335716 184.588 501.5679)" gradientUnits="userSpaceOnUse" x1="-146.9735" x2="-141.1848" xlink:href="#aq" y1="-193.1078" y2="-193.1078"/><linearGradient id="aA" gradientTransform="matrix(-.00335716 1 -1 -.00335716 1010.2169 525.9888)" gradientUnits="userSpaceOnUse" x1="-99.1858" x2="-73.3359" xlink:href="#s" y1="630.0851" y2="630.0851"/><linearGradient id="aB" gradientTransform="matrix(-.00335716 1 -1 -.00335716 1010.2169 525.9888)" gradientUnits="userSpaceOnUse" x1="-58.1486" x2="-32.2988" xlink:href="#s" y1="629.9474" y2="629.9474"/><linearGradient id="aC" gradientTransform="matrix(-.00335716 1 -1 -.00335716 184.588 501.5679)" gradientUnits="userSpaceOnUse" x1="-146.799" x2="-141.0103" xlink:href="#aq" y1="-141.1305" y2="-141.1305"/><clipPath id="aD"><path d="m314.4 380.7s-.2-4.8.1-14.5c.1-3.7 2.9-6.5 3.7-7.3v-3.6h10 60.9l.6 25.7z"/></clipPath><linearGradient id="aE" gradientTransform="matrix(1 .00335716 -.00335716 1 89.4057 271.6718)" gradientUnits="userSpaceOnUse" x1="192.7681" x2="264.9598" xlink:href="#B" y1="89.8864" y2="89.8864"/><clipPath id="aF"><path d="m385.7 557.7h-72l .4-94.9 71.9.3z"/></clipPath><linearGradient id="aG" gradientTransform="matrix(1 .00335716 -.00335716 1 89.4057 271.6718)" gradientUnits="userSpaceOnUse" x1="225.9476" x2="225.9476" xlink:href="#B" y1="295.3431" y2="189.1905"/><linearGradient id="aH" gradientTransform="matrix(1 .00336062 -.01332339 3.9697 81.4377 2645.9292)" gradientUnits="userSpaceOnUse" x1="237.4189" x2="265.7767" xlink:href="#B" y1="-562.79" y2="-534.4323"/><linearGradient id="aI" gradientTransform="matrix(.00335716 1 1 -.00335716 5905.1919 525.9888)" gradientUnits="userSpaceOnUse" x1="-120.0408" x2="-94.191" xlink:href="#s" y1="-5581.9897" y2="-5581.9897"/><linearGradient id="aJ" gradientTransform="matrix(.00335716 1 1 -.00335716 5905.1919 525.9888)" gradientUnits="userSpaceOnUse" x1="-79.0037" x2="-53.1538" xlink:href="#s" y1="-5582.1274" y2="-5582.1274"/><linearGradient id="aK" gradientTransform="matrix(1 .00335716 -.00335716 1 41.1438 397.6137)" gradientUnits="userSpaceOnUse" x1="317.9914" x2="359.406" xlink:href="#aq" y1="-11.7184" y2="-11.7184"/><linearGradient id="aL" gradientTransform="matrix(-1 -.00335716 -.00335716 1 1.6023 397.481)" gradientUnits="userSpaceOnUse" x1="-347.8188" x2="-300.1897" xlink:href="#aq" y1="-11.7751" y2="-11.7751"/><linearGradient id="aM" gradientTransform="matrix(.3599 .933 -.933 .3599 202.7103 456.7883)" gradientUnits="userSpaceOnUse" x1="-20.0503" x2="22.0535" xlink:href="#s" y1="-157.3555" y2="-157.3555"/><linearGradient id="aN" gradientTransform="matrix(-1 0 0 -1 6713.1211 -1673.069)" gradientUnits="userSpaceOnUse" x1="6472.9292" x2="6472.9292" xlink:href="#c" y1="-1998.9944" y2="-1974.8779"/><linearGradient id="aO" gradientTransform="matrix(-1 0 0 -1 6713.1211 -1673.069)" gradientUnits="userSpaceOnUse" x1="6472.9292" x2="6472.9292" xlink:href="#H" y1="-2007.3248" y2="-1988.4146"/><linearGradient id="aP" gradientTransform="matrix(0 1 -1 0 6502.0781 -2230.5559)" gradientUnits="userSpaceOnUse" x1="2559.2312" x2="2559.2312" xlink:href="#J" y1="6259.4858" y2="6260.626"/><linearGradient id="aQ" gradientTransform="matrix(0 1 -1 0 6502.0781 -2230.5559)" gradientUnits="userSpaceOnUse" x1="2559.2312" x2="2559.2312" xlink:href="#J" y1="6263.1465" y2="6264.2866"/><linearGradient id="aR" gradientTransform="matrix(-1 0 0 -1 6713.1211 -1673.069)" gradientUnits="userSpaceOnUse" x1="6472.9292" x2="6472.9292" xlink:href="#c" y1="-2054.512" y2="-2030.3956"/><linearGradient id="aS" gradientTransform="matrix(-1 0 0 -1 6713.1211 -1673.069)" gradientUnits="userSpaceOnUse" x1="6471.394" x2="6471.394" xlink:href="#H" y1="-2037.257" y2="-2031.8175"/><linearGradient id="aT" gradientTransform="matrix(1 0 0 -1 5913.7456 -1673.069)" gradientUnits="userSpaceOnUse" x1="-5675.043" x2="-5675.043" xlink:href="#H" y1="-2037.257" y2="-2031.8175"/><linearGradient id="aU" gradientTransform="matrix(-1 0 0 -1 6713.1211 -1673.069)" gradientUnits="userSpaceOnUse" x1="6472.9463" x2="6472.9463" xlink:href="#J" y1="-2029.9159" y2="-2009.1722"/><linearGradient id="aV"><stop offset="0" stop-color="#3b2e61"/><stop offset="1" stop-color="#6052a1"/></linearGradient><linearGradient id="aW" gradientTransform="matrix(-1 0 0 -1 6713.1211 -1673.069)" gradientUnits="userSpaceOnUse" x1="6473.2441" x2="6479.8213" xlink:href="#aV" y1="-2014.0156" y2="-2014.0156"/><linearGradient id="aX" gradientTransform="matrix(-1 0 0 -1 6713.1211 -1673.069)" gradientUnits="userSpaceOnUse" x1="6465.8013" x2="6472.3784" xlink:href="#aV" y1="-2014.9506" y2="-2014.9506"/><linearGradient id="aY" gradientTransform="matrix(-1 0 0 -1 6713.1211 -1673.069)" gradientUnits="userSpaceOnUse" x1="6472.186" x2="6472.186" xlink:href="#aV" y1="-2010.8359" y2="-2003.542"/><linearGradient id="aZ" gradientTransform="matrix(-1 0 0 -1 6713.1211 -1673.069)" gradientUnits="userSpaceOnUse" x1="6465.439" x2="6479.1196" xlink:href="#k" y1="-2009.4296" y2="-2009.4296"/><linearGradient id="a0" gradientTransform="matrix(-1 0 0 -1 6713.1211 -1673.069)" gradientUnits="userSpaceOnUse" x1="6485.9692" x2="6485.9692" xlink:href="#k" y1="-2033.0037" y2="-2026.752"/><linearGradient id="a1" gradientTransform="matrix(-1 0 0 -1 6713.1211 -1673.069)" gradientUnits="userSpaceOnUse" x1="6459.1406" x2="6459.1406" xlink:href="#k" y1="-2033.0037" y2="-2026.752"/><linearGradient id="a2" gradientTransform="matrix(-.9993 -.03671309 .03433254 -.9345 6707.4097 -1669.09)" gradientUnits="userSpaceOnUse" x1="6401.0796" x2="6401.0796" xlink:href="#aV" y1="-2417.0388" y2="-2391.0093"/><linearGradient id="a3" gradientTransform="matrix(.9993 -.03671309 -.03433254 -.9345 5944.9966 -1669.09)" gradientUnits="userSpaceOnUse" x1="-5762.2202" x2="-5762.2202" xlink:href="#aV" y1="-1939.2012" y2="-1913.1716"/><linearGradient id="a4" gradientTransform="matrix(-1 0 0 -1 6713.1211 -1673.069)" gradientUnits="userSpaceOnUse" x1="6472.9053" x2="6472.7866" xlink:href="#Z" y1="-2032.826" y2="-2029.6003"/><linearGradient id="a5" gradientTransform="matrix(-1 0 0 -1 6713.1211 -1673.069)" gradientUnits="userSpaceOnUse" x1="6466.8188" x2="6466.8188" xlink:href="#Z" y1="-2032.4001" y2="-2028.6683"/><linearGradient id="a6" gradientTransform="matrix(1 0 0 -1 5904.6567 -1673.069)" gradientUnits="userSpaceOnUse" x1="-5670.7446" x2="-5670.7446" xlink:href="#Z" y1="-2032.4001" y2="-2028.6683"/><linearGradient id="a7" gradientTransform="matrix(-1 0 0 -1 6713.1211 -1673.069)" gradientUnits="userSpaceOnUse" x1="6472.9463" x2="6472.9463" xlink:href="#Z" y1="-2034.1541" y2="-2027.9023"/><linearGradient id="a8" gradientTransform="matrix(-1 0 0 -1 6713.1211 -1673.069)" gradientUnits="userSpaceOnUse" x1="6472.9292" x2="6472.9292" xlink:href="#Z" y1="-2036.4678" y2="-2035.3276"/><linearGradient id="a9" gradientTransform="matrix(-1 0 0 -1 6713.1211 -1673.069)" gradientUnits="userSpaceOnUse" x1="6465.439" x2="6479.1196" xlink:href="#J" y1="-2005.7754" y2="-2005.7754"/><linearGradient id="ba" gradientUnits="userSpaceOnUse" x1="459.0241" x2="459.0241" xlink:href="#c" y1="396.9577" y2="421.0742"/><linearGradient id="bb" gradientUnits="userSpaceOnUse" x1="459.0241" x2="459.0241" xlink:href="#H" y1="388.6273" y2="407.5376"/><linearGradient id="bc" gradientTransform="matrix(0 -1 1 0 588.5036 1318.2675)" gradientUnits="userSpaceOnUse" x1="924.0593" x2="924.0593" xlink:href="#J" y1="-131.88" y2="-130.74"/><linearGradient id="bd" gradientTransform="matrix(0 -1 1 0 588.5036 1318.2675)" gradientUnits="userSpaceOnUse" x1="924.0593" x2="924.0593" xlink:href="#J" y1="-128.2192" y2="-127.0792"/><linearGradient id="be" gradientUnits="userSpaceOnUse" x1="459.0241" x2="459.0241" xlink:href="#c" y1="341.44" y2="365.5565"/><linearGradient id="bf" gradientUnits="userSpaceOnUse" x1="457.4891" x2="457.4891" xlink:href="#H" y1="358.6951" y2="364.1346"/><linearGradient id="bg" gradientTransform="matrix(-1 0 0 1 1176.8359 760.7803)" gradientUnits="userSpaceOnUse" x1="716.3228" x2="716.3228" xlink:href="#H" y1="-402.0852" y2="-396.6457"/><linearGradient id="bh" gradientUnits="userSpaceOnUse" x1="459.0413" x2="459.0413" xlink:href="#J" y1="366.0363" y2="386.7799"/><linearGradient id="bi"><stop offset="0" stop-color="#25334d"/><stop offset="1" stop-color="#3e537d"/></linearGradient><linearGradient id="bj" gradientUnits="userSpaceOnUse" x1="459.3389" x2="465.9162" xlink:href="#bi" y1="381.9364" y2="381.9364"/><linearGradient id="bk" gradientUnits="userSpaceOnUse" x1="451.8962" x2="458.4734" xlink:href="#bi" y1="381.0015" y2="381.0015"/><linearGradient id="bl"><stop offset="0" stop-color="#5e3c00"/><stop offset="1" stop-color="#9a5200"/></linearGradient><linearGradient id="bm" gradientUnits="userSpaceOnUse" x1="458.2812" x2="458.2812" xlink:href="#bl" y1="385.1162" y2="392.4102"/><linearGradient id="bn" gradientUnits="userSpaceOnUse" x1="451.534" x2="465.2146" xlink:href="#k" y1="386.5226" y2="386.5226"/><linearGradient id="bo" gradientUnits="userSpaceOnUse" x1="472.0642" x2="472.0642" xlink:href="#k" y1="362.9484" y2="369.2002"/><linearGradient id="bp" gradientUnits="userSpaceOnUse" x1="445.2357" x2="445.2357" xlink:href="#k" y1="362.9484" y2="369.2002"/><linearGradient id="bq" gradientTransform="matrix(.9993 .03671309 -.03433254 .9345 383.1721 756.8015)" gradientUnits="userSpaceOnUse" x1="74.0549" x2="74.0549" xlink:href="#bl" y1="-418.749" y2="-392.7195"/><linearGradient id="br" gradientTransform="matrix(-.9993 .03671309 .03433254 .9345 1145.5848 756.8015)" gradientUnits="userSpaceOnUse" x1="684.8693" x2="684.8693" xlink:href="#bl" y1="-442.745" y2="-416.7154"/><linearGradient id="bs" gradientUnits="userSpaceOnUse" x1="459.0003" x2="458.8818" xlink:href="#Z" y1="363.1261" y2="366.3518"/><linearGradient id="bt" gradientUnits="userSpaceOnUse" x1="452.9139" x2="452.9139" xlink:href="#Z" y1="363.5519" y2="367.2838"/><linearGradient id="bu" gradientTransform="matrix(-1 0 0 1 1185.9249 760.7803)" gradientUnits="userSpaceOnUse" x1="720.6213" x2="720.6213" xlink:href="#Z" y1="-397.2284" y2="-393.4965"/><linearGradient id="bv" gradientUnits="userSpaceOnUse" x1="459.0413" x2="459.0413" xlink:href="#Z" y1="361.798" y2="368.0498"/><linearGradient id="bw" gradientUnits="userSpaceOnUse" x1="459.0241" x2="459.0241" xlink:href="#Z" y1="359.4844" y2="360.6244"/><linearGradient id="bx" gradientUnits="userSpaceOnUse" x1="451.5347" x2="465.2137" xlink:href="#J" y1="389.2644" y2="389.2644"/><linearGradient id="by"><stop offset="0" stop-color="#10a290"/><stop offset="1" stop-color="#49b1a6"/></linearGradient><linearGradient id="bz" gradientUnits="userSpaceOnUse" x1="423.8938" x2="445.4575" xlink:href="#by" y1="382.8748" y2="382.8748"/><linearGradient id="bA"><stop offset="0" stop-color="#8d2d37"/><stop offset="1" stop-color="#781a26"/></linearGradient><linearGradient id="bB" gradientTransform="matrix(0 -1 1 0 -1455.7495 3238.9143)" gradientUnits="userSpaceOnUse" x1="2850.6941" x2="2854.376" xlink:href="#bA" y1="1950.5206" y2="1950.5206"/><linearGradient id="bC" gradientTransform="matrix(0 -1 1 0 -1455.7495 3238.9143)" gradientUnits="userSpaceOnUse" x1="2857.9036" x2="2861.5854" xlink:href="#bA" y1="1950.5206" y2="1950.5206"/><linearGradient id="bD" gradientTransform="matrix(0 -1 1 0 -1455.7495 3238.9143)" gradientUnits="userSpaceOnUse" x1="2856.3105" x2="2863.1138" xlink:href="#bi" y1="1957.3478" y2="1957.3478"/><linearGradient id="bE" gradientTransform="matrix(0 -1 1 0 -1455.7495 3238.9143)" gradientUnits="userSpaceOnUse" x1="2849.3247" x2="2856.1279" xlink:href="#bi" y1="1957.3313" y2="1957.3313"/><linearGradient id="bF" gradientTransform="matrix(-.1813 -.9834 .9834 -.1813 -752.6841 3537.7017)" gradientUnits="userSpaceOnUse" x1="2861.1208" x2="2866.8828" xlink:href="#k" y1="1811.1583" y2="1811.1583"/><linearGradient id="bG" gradientTransform="matrix(-.2436 .9699 .9699 .2436 -797.4736 -3337.0879)" gradientUnits="userSpaceOnUse" x1="3277.0073" x2="3282.7693" xlink:href="#k" y1="2170.9368" y2="2170.9368"/><linearGradient id="bH" gradientTransform="matrix(0 -1 1 0 -1455.7495 3238.9143)" gradientUnits="userSpaceOnUse" x1="2855.9556" x2="2855.9556" y1="1962.0173" y2="1969.259"><stop offset=".02740354" stop-color="#109488"/><stop offset="1" stop-color="#10ad9b"/></linearGradient><linearGradient id="bI" gradientTransform="matrix(0 -1 1 0 -1455.7495 3238.9143)" gradientUnits="userSpaceOnUse" x1="2848.95" x2="2863.1008" xlink:href="#k" y1="1963.1692" y2="1963.1692"/><linearGradient id="bJ" gradientTransform="matrix(0 -1 1 0 -1455.7495 3238.9143)" gradientUnits="userSpaceOnUse" x1="2848.95" x2="2863.1008" xlink:href="#c" y1="1966.0055" y2="1966.0055"/><linearGradient id="bK" gradientTransform="matrix(0 1 -1 0 2504.4688 -4167.7285)" gradientUnits="userSpaceOnUse" x1="4466.4546" x2="4470.1367" xlink:href="#bA" y1="2431.9734" y2="2431.9734"/><linearGradient id="bL" gradientTransform="matrix(0 1 -1 0 2504.4688 -4167.7285)" gradientUnits="userSpaceOnUse" x1="4473.6641" x2="4477.3462" xlink:href="#bA" y1="2431.9734" y2="2431.9734"/><linearGradient id="bM" gradientTransform="matrix(0 1 -1 0 2504.4688 -4167.7285)" gradientUnits="userSpaceOnUse" x1="4472.0713" x2="4478.8745" xlink:href="#bi" y1="2438.8005" y2="2438.8005"/><linearGradient id="bN" gradientTransform="matrix(0 1 -1 0 2504.4688 -4167.7285)" gradientUnits="userSpaceOnUse" x1="4465.0854" x2="4471.888700000001" xlink:href="#bi" y1="2438.7839" y2="2438.7839"/><linearGradient id="bO" gradientTransform="matrix(0 1 -1 0 2504.4688 -4167.7285)" gradientUnits="userSpaceOnUse" x1="4458.9487" x2="4464.7104" xlink:href="#k" y1="2441.5283" y2="2441.5283"/><linearGradient id="bP" gradientTransform="matrix(0 -1 -1 0 2504.4688 1998.4282)" gradientUnits="userSpaceOnUse" x1="1681.7371" x2="1687.4989" xlink:href="#k" y1="2441.5283" y2="2441.5283"/><linearGradient id="bQ" gradientTransform="matrix(0 1 -1 0 2504.4688 -4167.7285)" gradientUnits="userSpaceOnUse" x1="4464.7104" x2="4478.8613" xlink:href="#k" y1="2439.6177" y2="2439.6177"/><linearGradient id="bR" gradientTransform="matrix(0 1 -1 0 2504.4688 -4167.7285)" gradientUnits="userSpaceOnUse" x1="4464.7104" x2="4478.8613" xlink:href="#c" y1="2442.4541" y2="2442.4541"/><linearGradient id="bS" gradientTransform="matrix(-1 0 0 -1 -1216.2917 -686.6064)" gradientUnits="userSpaceOnUse" x1="-1348.7834" x2="-1348.7834" xlink:href="#c" y1="-725.1645" y2="-701.0481"/><linearGradient id="bT" gradientTransform="matrix(-1 0 0 -1 -1216.2917 -686.6064)" gradientUnits="userSpaceOnUse" x1="-1348.7834" x2="-1348.7834" xlink:href="#H" y1="-733.4949" y2="-714.5847"/><linearGradient id="bU" gradientTransform="matrix(0 1 -1 0 -1427.3346 -1244.0935)" gradientUnits="userSpaceOnUse" x1="1285.4012" x2="1285.4012" xlink:href="#J" y1="-1562.2268" y2="-1561.0867"/><linearGradient id="bV" gradientTransform="matrix(0 1 -1 0 -1427.3346 -1244.0935)" gradientUnits="userSpaceOnUse" x1="1285.4012" x2="1285.4012" xlink:href="#J" y1="-1558.5659" y2="-1557.4259"/><linearGradient id="bW" gradientTransform="matrix(-1 0 0 -1 -1216.2917 -686.6064)" gradientUnits="userSpaceOnUse" x1="-1348.7834" x2="-1348.7834" xlink:href="#c" y1="-780.6822" y2="-756.5658"/><linearGradient id="bX" gradientTransform="matrix(-1 0 0 -1 -1216.2917 -686.6064)" gradientUnits="userSpaceOnUse" x1="-1350.3185" x2="-1350.3185" xlink:href="#H" y1="-763.4271" y2="-757.9876"/><linearGradient id="bY" gradientTransform="matrix(1 0 0 -1 -2015.667 -686.6064)" gradientUnits="userSpaceOnUse" x1="2146.6694" x2="2146.6694" xlink:href="#H" y1="-763.4271" y2="-757.9876"/><linearGradient id="bZ" gradientTransform="matrix(-1 0 0 -1 -1216.2917 -686.6064)" gradientUnits="userSpaceOnUse" x1="-1348.7662" x2="-1348.7662" xlink:href="#J" y1="-756.086" y2="-735.3423"/><linearGradient id="b0"><stop offset="0" stop-color="#000046"/><stop offset="1" stop-color="#1d0016"/></linearGradient><linearGradient id="b1" gradientTransform="matrix(-1 0 0 -1 -1216.2917 -686.6064)" gradientUnits="userSpaceOnUse" x1="-1348.4686" x2="-1341.8914" xlink:href="#b0" y1="-740.1858" y2="-740.1858"/><linearGradient id="b2" gradientTransform="matrix(-1 0 0 -1 -1216.2917 -686.6064)" gradientUnits="userSpaceOnUse" x1="-1355.9114" x2="-1349.3341" xlink:href="#b0" y1="-741.1207" y2="-741.1207"/><linearGradient id="b3" gradientTransform="matrix(-1 0 0 -1 -1216.2917 -686.6064)" gradientUnits="userSpaceOnUse" x1="-1349.5262" x2="-1349.5262" xlink:href="#b0" y1="-737.006" y2="-729.712"/><linearGradient id="b4" gradientTransform="matrix(-1 0 0 -1 -1216.2917 -686.6064)" gradientUnits="userSpaceOnUse" x1="-1356.2736" x2="-1342.5929" xlink:href="#k" y1="-735.5997" y2="-735.5997"/><linearGradient id="b5" gradientTransform="matrix(-1 0 0 -1 -1216.2917 -686.6064)" gradientUnits="userSpaceOnUse" x1="-1335.7433" x2="-1335.7433" xlink:href="#k" y1="-759.1738" y2="-752.9221"/><linearGradient id="b6" gradientTransform="matrix(-1 0 0 -1 -1216.2917 -686.6064)" gradientUnits="userSpaceOnUse" x1="-1362.5719" x2="-1362.5719" xlink:href="#k" y1="-759.1738" y2="-752.9221"/><linearGradient id="b7" gradientTransform="matrix(-.9993 -.03671309 .03433254 -.9345 -1222.0031 -682.6274)" gradientUnits="userSpaceOnUse" x1="-1368.5935" x2="-1368.5935" xlink:href="#b0" y1="-748.7318" y2="-722.7021"/><linearGradient id="b8" gradientTransform="matrix(.9993 -.03671309 -.03433254 -.9345 -1984.4159 -682.6274)" gradientUnits="userSpaceOnUse" x1="2100.9858" x2="2100.9858" xlink:href="#b0" y1="-885.0349" y2="-859.0052"/><linearGradient id="b9" gradientTransform="matrix(-1 0 0 -1 -1216.2917 -686.6064)" gradientUnits="userSpaceOnUse" x1="-1348.8073" x2="-1348.9258" xlink:href="#Z" y1="-758.9962" y2="-755.7704"/><linearGradient id="ca" gradientTransform="matrix(-1 0 0 -1 -1216.2917 -686.6064)" gradientUnits="userSpaceOnUse" x1="-1354.8937" x2="-1354.8937" xlink:href="#Z" y1="-758.5703" y2="-754.8384"/><linearGradient id="cb" gradientTransform="matrix(1 0 0 -1 -2024.7559 -686.6064)" gradientUnits="userSpaceOnUse" x1="2150.968" x2="2150.968" xlink:href="#Z" y1="-758.5703" y2="-754.8384"/><linearGradient id="cc" gradientTransform="matrix(-1 0 0 -1 -1216.2917 -686.6064)" gradientUnits="userSpaceOnUse" x1="-1348.7662" x2="-1348.7662" xlink:href="#Z" y1="-760.3242" y2="-754.0724"/><linearGradient id="cd" gradientTransform="matrix(-1 0 0 -1 -1216.2917 -686.6064)" gradientUnits="userSpaceOnUse" x1="-1348.7834" x2="-1348.7834" xlink:href="#Z" y1="-762.6379" y2="-761.4978"/><linearGradient id="ce" gradientTransform="matrix(-1 0 0 -1 4210.650400000001 3018.7332)" gradientUnits="userSpaceOnUse" x1="4070.6697" x2="4084.3486" y1="2972.4817" y2="2972.4817"><stop offset="0" stop-color="#802900"/><stop offset=".0238508" stop-color="#812a00"/><stop offset=".6211" stop-color="#924100"/><stop offset="1" stop-color="#984900"/></linearGradient><linearGradient id="cf" gradientUnits="userSpaceOnUse" x1="146.058" x2="167.6217" xlink:href="#by" y1="52.6413" y2="52.6413"/><g clip-path="url(#a)"><g><path d="m-.2-81.2h575.7v548.6h-575.7z" fill="url(#b)"/></g><path clip-rule="evenodd" d="m573.4 236.3.5-.3h-.5z" fill="#fff" fill-rule="evenodd"/><path d="m437.2 333.2h44.3v134.1h-44.3z" fill="#bbbdbf"/><g><path d="m438.7 340.2h41.6v31.5h-41.6z" fill="#b2b4b6"/><path d="m439.9 371.7h-1.2l20.6-31.5 21 31.5h-1.2l-19.8-29.7z" fill="#d6d6d5"/></g><path d="m437.7 333.2h1v134.1h-1z" fill="#989898"/><path d="m289.8 336.5h3v131.1h-3z" fill="#fff"/><g><g><path d="m454.4 255.7h9.3v45.3h-9.3z" fill="#3b824a" transform="matrix(0 -1 1 0 180.6641 737.3969)"/><path d="m454.4 240.9h9.3v45.3h-9.3z" fill="#3b824a" transform="matrix(0 -1 1 0 195.4276 722.6334)"/></g><g fill="#3b824a"><path d="m454.4 226.2h9.3v45.3h-9.3z" transform="matrix(0 -1 1 0 210.191 707.8699)"/><path d="m454.4 211.4h9.3v45.3h-9.3z" transform="matrix(0 -1 1 0 224.9545 693.1064)"/><path d="m454.4 196.6h9.3v45.3h-9.3z" transform="matrix(0 -1 1 0 239.7179 678.343)"/><path d="m454.4 181.9h9.3v45.3h-9.3z" transform="matrix(0 -1 1 0 254.4814 663.5795)"/><path d="m454.4 167.1h9.3v45.3h-9.3z" transform="matrix(0 -1 1 0 269.2448 648.8161)"/><path d="m454.4 152.4h9.3v45.3h-9.3z" transform="matrix(0 -1 1 0 284.0083 634.0526)"/><path d="m454.4 137.8h9.3v45.3h-9.3z" transform="matrix(0 -1 1 0 298.5604 619.5005)"/></g></g><g><g><path d="m114.7 255.7h9.3v45.3h-9.3z" fill="#3b824a" transform="matrix(0 -1 1 0 -158.9827 397.75)"/><path d="m114.7 240.9h9.3v45.3h-9.3z" fill="#3b824a" transform="matrix(0 -1 1 0 -144.2193 382.9866)"/></g><g fill="#3b824a"><path d="m114.7 226.2h9.3v45.3h-9.3z" transform="matrix(0 -1 1 0 -129.4558 368.2231)"/><path d="m114.7 211.4h9.3v45.3h-9.3z" transform="matrix(0 -1 1 0 -114.6923 353.4597)"/><path d="m114.7 196.6h9.3v45.3h-9.3z" transform="matrix(0 -1 1 0 -99.9289 338.6962)"/><path d="m114.7 181.9h9.3v45.3h-9.3z" transform="matrix(0 -1 1 0 -85.1654 323.9327)"/><path d="m114.7 167.1h9.3v45.3h-9.3z" transform="matrix(0 -1 1 0 -70.402 309.1693)"/><path d="m114.7 152.4h9.3v45.3h-9.3z" transform="matrix(0 -1 1 0 -55.6385 294.4058)"/><path d="m114.7 137.8h9.3v45.3h-9.3z" transform="matrix(0 -1 1 0 -41.0864 279.8538)"/></g></g><g><g><g><path d="m509.2 242.1h9.3v36.5h-9.3z" fill="#fff" transform="matrix(0 -1 1 0 253.4993 774.1459)"/></g><g fill="#fff"><path d="m509.2 227.3h9.3v36.5h-9.3z" transform="matrix(0 -1 1 0 268.2628 759.3824)"/><path d="m509.2 212.5h9.3v36.5h-9.3z" transform="matrix(0 -1 1 0 283.0262 744.619)"/><path d="m509.2 197.8h9.3v36.5h-9.3z" transform="matrix(0 -1 1 0 297.7897 729.8555)"/><path d="m509.2 183h9.3v36.5h-9.3z" transform="matrix(0 -1 1 0 312.5532 715.0921)"/><path d="m509.2 168.3h9.3v36.5h-9.3z" transform="matrix(0 -1 1 0 327.3166 700.3286)"/><path d="m509.2 153.5h9.3v36.5h-9.3z" transform="matrix(0 -1 1 0 342.0801 685.5652)"/></g></g><path d="m488.3 212.7h106.4v7.4h-106.4z" fill="#fff" transform="matrix(0 1 -1 0 757.8848 -325.0701)"/></g><g><g><g><path d="m59.6 153.6h9.3v36.5h-9.3z" fill="#fff" transform="matrix(0 1 -1 0 236.0498 107.6023)"/></g><g fill="#fff"><path d="m59.6 168.3h9.3v36.5h-9.3z" transform="matrix(0 1 -1 0 250.8133 122.3658)"/><path d="m59.6 183.1h9.3v36.5h-9.3z" transform="matrix(0 1 -1 0 265.5768 137.1292)"/><path d="m59.6 197.9h9.3v36.5h-9.3z" transform="matrix(0 1 -1 0 280.3402 151.8927)"/><path d="m59.6 212.6h9.3v36.5h-9.3z" transform="matrix(0 1 -1 0 295.1037 166.6561)"/><path d="m59.6 227.4h9.3v36.5h-9.3z" transform="matrix(0 1 -1 0 309.8671 181.4196)"/><path d="m59.6 242.2h9.3v36.5h-9.3z" transform="matrix(0 1 -1 0 324.6306 196.1831)"/></g></g></g><g><path d="m94.3 332.7h386.5v7.4h-386.5z" fill="#fff"/><g><g><path d="m98.1 290.5h9.3v36.5h-9.3z" fill="#fff"/></g><g fill="#fff"><path d="m112.8 290.5h9.3v36.5h-9.3z"/><path d="m127.6 290.5h9.3v36.5h-9.3z"/><path d="m142.4 290.5h9.3v36.5h-9.3z"/><path d="m157.1 290.5h9.3v36.5h-9.3z"/><path d="m171.9 290.5h9.3v36.5h-9.3z"/><path d="m186.6 290.5h9.3v36.5h-9.3z"/></g></g><g><g><g><path d="m201.5 290.5h9.3v36.5h-9.3z" fill="#fff"/></g><g fill="#fff"><path d="m216.2 290.5h9.3v36.5h-9.3z"/><path d="m231 290.5h9.3v36.5h-9.3z"/><path d="m245.7 290.5h9.3v36.5h-9.3z"/><path d="m260.5 290.5h9.3v36.5h-9.3z"/><path d="m275.3 290.5h9.3v36.5h-9.3z"/><path d="m290 290.5h9.3v36.5h-9.3z"/></g></g></g><g><g><path d="m290.1 290.5h9.3v36.5h-9.3z" fill="#fff"/></g><g fill="#fff"><path d="m304.9 290.5h9.3v36.5h-9.3z"/><path d="m319.6 290.5h9.3v36.5h-9.3z"/><path d="m334.4 290.5h9.3v36.5h-9.3z"/><path d="m349.2 290.5h9.3v36.5h-9.3z"/><path d="m363.9 290.5h9.3v36.5h-9.3z"/><path d="m378.7 290.5h9.3v36.5h-9.3z"/></g></g><g><g><path d="m393.5 290.5h9.3v36.5h-9.3z" fill="#fff"/></g><g fill="#fff"><path d="m408.3 290.5h9.3v36.5h-9.3z"/><path d="m423 290.5h9.3v36.5h-9.3z"/><path d="m437.8 290.5h9.3v36.5h-9.3z"/><path d="m452.5 290.5h9.3v36.5h-9.3z"/><path d="m467.3 290.5h9.3v36.5h-9.3z"/></g></g></g><g><path d="m92.5 97.8h389.2v7.4h-389.2z" fill="#fff"/><g><g><path d="m98.1 110.9h9.3v36.5h-9.3z" fill="#fff"/></g><g fill="#fff"><path d="m112.8 110.9h9.3v36.5h-9.3z"/><path d="m127.6 110.9h9.3v36.5h-9.3z"/><path d="m142.4 110.9h9.3v36.5h-9.3z"/><path d="m157.1 110.9h9.3v36.5h-9.3z"/><path d="m171.9 110.9h9.3v36.5h-9.3z"/><path d="m186.6 110.9h9.3v36.5h-9.3z"/></g></g><g><g><g><path d="m201.5 110.9h9.3v36.5h-9.3z" fill="#fff"/></g><g fill="#fff"><path d="m216.2 110.9h9.3v36.5h-9.3z"/><path d="m231 110.9h9.3v36.5h-9.3z"/><path d="m245.7 110.9h9.3v36.5h-9.3z"/><path d="m260.5 110.9h9.3v36.5h-9.3z"/><path d="m275.3 110.9h9.3v36.5h-9.3z"/><path d="m290 110.9h9.3v36.5h-9.3z"/></g></g></g><g><g><path d="m290.1 110.9h9.3v36.5h-9.3z" fill="#fff"/></g><g fill="#fff"><path d="m304.9 110.9h9.3v36.5h-9.3z"/><path d="m319.6 110.9h9.3v36.5h-9.3z"/><path d="m334.4 110.9h9.3v36.5h-9.3z"/><path d="m349.2 110.9h9.3v36.5h-9.3z"/><path d="m363.9 110.9h9.3v36.5h-9.3z"/><path d="m378.7 110.9h9.3v36.5h-9.3z"/></g></g><g><g><path d="m393.5 110.9h9.3v36.5h-9.3z" fill="#fff"/></g><g fill="#fff"><path d="m408.3 110.9h9.3v36.5h-9.3z"/><path d="m423 110.9h9.3v36.5h-9.3z"/><path d="m437.8 110.9h9.3v36.5h-9.3z"/><path d="m452.5 110.9h9.3v36.5h-9.3z"/><path d="m467.3 110.9h9.3v36.5h-9.3z"/></g></g></g><g><path d="m92.7-61.5c-.6-9.4-8.3-16.9-17.8-17h-75.1v17 16.7 172.9 19 14.8h64l29-24z" fill="#bbbdbf"/><g><path d="m-.2 76.9h92.9v2.2h-92.9z" fill="#d6d6d5"/></g><path d="m63.9 164.4h-64v-3h64c4.7 0 27.4-24.7 27.4-24.8v-193.2c0-.2.3-10.2-5.4-16.2-2.8-2.9-6.5-4.3-11.3-4.3h-74.8v-3h74.8c5.6 0 10.1 1.8 13.4 5.3 6.6 6.8 6.2 17.8 6.2 18.3v193c .1.5-24.8 27.9-30.3 27.9z" fill="#fad03b"/></g><g><path d="m499.7-78.5c-9.5.1-17.3 7.6-17.8 17h-.1v200.3s18.6 23 27.4 23.1h-9.5 75.8v-14.8-19-172.8-16.7-17h-75.8z" fill="#bbbdbf"/><g><path d="m482 76.9h93.6v2.2h-93.6z" fill="#d6d6d5"/></g><path d="m575.5 164.4h-66.1c-5.6 0-29.1-27.6-29.1-28.1v-192.9c0-.4-.4-11.4 6.2-18.2 3.4-3.5 7.9-5.3 13.4-5.3h75.5v3h-75.4c-4.7 0-8.5 1.5-11.3 4.3-5.7 5.9-5.4 16-5.4 16.1v193c0 .2 21.4 25 26.1 25h66.1z" fill="#fad03b"/></g><g><path d="m221.9 262.1s21.5 22.4 25.5 22.5 16.7-8.5 16.7-8.5l8.3-15.9.2 2.8c0 .7-.8 10.5-5 16.1-4.1 5.4-12.6 8.3-19.6 8.4-12.7.1-21.6-6.7-21.6-6.7-7.6-8.2-6-17.1-6-17.8l.2-2.3z" fill="#b2b2b2"/><g><path d="m222.8 177.5 44.7-.4h1.3v-1.6c0-.7-.6-1.3-1.3-1.3l-44.7.4c-.7 0-1.3.6-1.3 1.3v1.5z" fill="#b2b2b2"/><path d="m217.3 193.1c-.1-6.6-.1-11.9 1.6-11.9h2.3c2.1 0 2.4 6.1 2.4 11.9 0 5.7-.4 10.7-2.1 11.8-.2.2-2.2.1-2.4.1-1.8 0-1.8-5.4-1.8-11.9z" fill="url(#d)"/><path d="m275 192.4c-.1-6.6-.1-11.9-1.8-11.9-.2 0-1.9 0-2.3 0-2.1 0-2.3 6.2-2.2 11.9 0 5.7.6 10.6 2.3 11.8.3.2 2.2.1 2.4.1 1.8 0 1.7-5.3 1.6-11.9z" fill="url(#e)"/><path d="m215.4 248.9c-.1-6.6-.1-11.9 1.6-11.9h2.3c2.1 0 2.4 6.1 2.4 11.9 0 5.7-.4 10.7-2.1 11.8-.2.2-2.2.1-2.4.1-1.7 0-1.7-5.3-1.8-11.9z" fill="url(#f)"/><path d="m276.5 248.4c-.1-6.6-.1-11.9-1.8-11.9-.2 0-1.9 0-2.3 0-2.1 0-2.3 6.2-2.2 11.9 0 5.7.6 10.6 2.3 11.8.3.2 2.2.1 2.4.1 1.7 0 1.6-5.3 1.6-11.9z" fill="url(#g)"/><path d="m268.4 180.6h3.4l.2 23.8h-3.4z" fill="url(#i)"/><path d="m220.4 181.1h3.3l.2 23.8h-3.3z" fill="url(#j)"/><path d="m270.4 236.5h3.3l.2 23.8h-3.3z" fill="url(#l)"/><path d="m218.2 237h3.4l.2 23.8h-3.4z" fill="url(#m)"/><path d="m272.4 260.4s.3 24.2-23.9 24.4c-31.2.3-27.6-24-27.6-24z" fill="url(#n)"/><path d="m272.4 260.4 6.9-.1v-5.7l-6.9-1.8-.6-72.2s-.4-3.5-2.9-3.5-45.6.4-47.3.4-1.3 3.6-1.3 3.6l.6 72-7.4 2.1v5.7l9.9-.1z" fill="url(#o)"/><path d="m231.7 279.7 8.9.1v5.1l-8.9-.1z" fill="url(#q)"/><path d="m223.4 260.8 8.3-23.6 28.2-.2 9.4 23.4z" fill="#d6d6d5"/><path d="m241.5 279.2-.1 4-11-.1.1-4z" fill="url(#r)"/><path d="m270.2 251.4-7.4-18.9.1-24.9 5.7-7.5z" fill="#d6d6d5"/><path d="m245.3 260.7c14.8.4 14-18.2 14.6-23.7l-28.2.2c1 6.3 2.2 23.2 13.6 23.5z" fill="url(#t)" opacity=".5"/><path d="m266 232.7c-2 0-3-18.6-3.1-25.2l5.7-7.5c0 6.7-.6 32.7-2.6 32.7z" fill="url(#u)" opacity=".5"/><path d="m223.4 251.8 7.1-19.1.4-25.5-8.2-7.7z" fill="#d6d6d5"/><path d="m226.9 233.3c2 0 3.7-20 3.7-26.6l-6.7-6.3c0 6.6 1 32.9 3 32.9z" fill="url(#v)" opacity=".5"/><path d="m232.6 176.1v1.4l-7.2.1v-1.5z" fill="url(#x)"/><path d="m264.9 175.8v1.4l-7.2.1v-1.4z" fill="url(#y)"/><path d="m265.2 199.4c-3.2 3.8-6 6.2-6 6.2h-25.1s-.9-.7-6-5.7c-4.5-4.3 1.3-4 1.3-4l35.2-.5c-.1.1 3.8.2.6 4z" fill="#d6d6d5"/><path d="m247.3 198.7c-14.8-.4-12.6 1.4-13.2 7h25.1c-1.1-6.3-.5-6.7-11.9-7z" fill="url(#z)" opacity=".5"/><g><circle clip-path="url(#A)" cx="270" cy="272.2" fill="url(#C)" opacity=".25" r="24.7"/></g><path d="m253.9 279.7 8.9-.2.1 5.1-8.9.1z" fill="url(#D)"/><path d="m263.6 278.9.1 4-11 .1-.1-3.9z" fill="url(#E)"/><path d="m224.3 184.5c-.1.7-2.2 6.7-1.6 10.1 1.1 6.7 9.5 13.7 9.5 13.7 3.8.1 27 .3 27 .3s-1.2 5.6-1 7.1c1 6.2-.7 11.8-2.7 13.2-.9.7-2 1.1-3 1.5-2.2.9-4.3 1.8-6.5 2.6-1.7.7-3.4 1.4-5.1 1.9-3 1-6.1 2.1-9.2 2.2 7.3-.1 11-.1 18.2-.2 1.4 0 10.1-.1 10.1-.1l9.4 23.4 3.2-.2-2.3-8.8-7.4-18.9.1-24.9s8.6-13.1 7.6-18.8c-1.5-8.9-7.7-9.4-7.7-9.4l-34.2.2c-.1.2-3.9.3-4.4 5.1z" fill="url(#F)" opacity=".25"/></g></g><g><path d="m136.2 211.7v1.2c0 .5-.4.9-.9.9h-22.3c-.5 0-.9-.4-.9-.9v-1.2c0-.5.4-.9.9-.9h22.3c.5 0 .9.4.9.9z" fill="url(#G)"/><path d="m122.6 211.6v1.4c0 .6-.5 1.1-1.1 1.1h-16.7c-.6 0-1.1-.5-1.1-1.1v-1.4c0-.6.5-1.1 1.1-1.1h16.7c.6 0 1.1.5 1.1 1.1z" fill="url(#I)"/><path d="m105 213.6h8.7c.2 0 .4.2.4.4v.4c0 .2-.2.4-.4.4h-8.7c-.2 0-.4-.2-.4-.4v-.4c0-.3.2-.4.4-.4z" fill="url(#K)"/><path d="m105 209.9h8.7c.2 0 .4.2.4.4v.4c0 .2-.2.4-.4.4h-8.7c-.2 0-.4-.2-.4-.4v-.4c0-.2.2-.4.4-.4z" fill="url(#L)"/><path d="m80.7 211.7v1.2c0 .5-.4.9-.9.9h-22.3c-.5 0-.9-.4-.9-.9v-1.2c0-.5.4-.9.9-.9h22.3c.4 0 .9.4.9.9z" fill="url(#M)"/><path d="m79.2 213.8v.4c0 .1-.1.2-.2.2h-5c-.1 0-.2-.1-.2-.2v-.4c0-.3.2-.5.5-.5h4.5c.2 0 .4.2.4.5z" fill="url(#N)"/><path d="m79.2 210.9v-.4c0-.1-.1-.2-.2-.2h-5c-.1 0-.2.1-.2.2v.4c0 .3.2.5.5.5h4.5c.2 0 .4-.2.4-.5z" fill="url(#O)"/><path d="m101.9 210.8v3h-20.8v-3z" fill="url(#P)"/><path d="m107.5 207.4v2.5c0 1.1-.9 2-2 2h-16.9c-1.1 0-2-.9-2-2v-2.5c0-1.1.9-2 2-2h16.9c1.1 0 2 .9 2 2z" fill="url(#R)"/><path d="m107.5 214.9v2.5c0 1.1-.9 2-2 2h-18.8c-1.1 0-2-.9-2-2v-2.5c0-1.1.9-2 2-2h18.8c1.1 0 2 .9 2 2z" fill="url(#S)"/><path d="m107.5 200.8v24.6h-7.3v-24.6z" fill="url(#T)"/><path d="m101.6 206.1c5.3 0 9.5 1.5 9.5 6.7s-4.3 7-9.5 7c-2.5 0-3.9-.9-5.1-2.3-1-1.2-1.8-1.7-2.2-3.4-.2-.7-2.2-.5-2.2-1.3 0-.7 1.8-.6 1.9-1.2.4-1.5 1.3-2.4 2.1-3.4 1.3-1.6 2.7-2.1 5.5-2.1z" fill="url(#U)"/><circle cx="81.2" cy="199.3" fill="url(#V)" r="3.1"/><circle cx="81.2" cy="226.1" fill="url(#W)" r="3.1"/><path d="m107.5 200.1c-.1 1.4.9 3.5-2.5 3.5-5.5 0-5.8-2.2-9.6-2.1-2.3 0-10.9.3-10.9.3-1.3 0-1.2-1.2-1.2-2.6.1-1.3 0-2.4 1.3-2.4l20.5.7c1.4.1 2.4 1.2 2.4 2.6z" fill="url(#X)"/><path d="m107.5 225c-.1-1.4.9-3.5-2.5-3.5-5.5 0-5.8 2.2-9.6 2.1-2.3 0-10.9-.3-10.9-.3-1.3 0-1.2 1.2-1.2 2.6.1 1.3 0 2.4 1.3 2.4l20.5-.7c1.4 0 2.4-1.2 2.4-2.6z" fill="url(#Y)"/><path d="m79.8 199.9c-.6 0-1.2.4-1.2.8v23.3c0 .5.5.9 1.2.9s1.2-.4 1.2-.9v-23.3c0-.4-.5-.8-1.2-.8z" fill="url(#aa)"/><path d="m82.3 220.8s1-5-3.6-4.7v4.8z" fill="url(#ab)"/><path d="m82.3 203.7s1 5-3.6 4.7v-4.8z" fill="url(#ac)"/><ellipse cx="80" cy="212.3" fill="url(#ad)" rx="3.1" ry="2.7"/><path d="m75.7 206.7v11.3c0 .2-.2.4-.4.4h-.4c-.2 0-.4-.2-.4-.4v-11.3c0-.2.2-.4.4-.4h.4c.3 0 .4.2.4.4z" fill="url(#ae)"/><path d="m101.3 219.8s.8-1.2 2-1.1c1.1.1.9 1 1.1.9s6.9-.2 6.8-7c-.1-6.5-7.5-6.4-7.5-6.4s0 1.4-1.3 1.2c-1.2-.2-1.4-1.3-1.4-1.3l-.9.1-.7.1s.9 1.5 1.5 1.8c.5.3.4.7.4.7s-3.9-.1-3.7 3.9c.2 4.5 3.7 4.1 3.7 4.1s.5.5-.2.8c-.6.3-1.7 1.9-1.7 1.9s.5.1.9.2 1 .1 1 .1z" fill="url(#af)"/></g><g><path d="m92.7 293c-.6-9.4-26.7-23.7-26.7-23.7h-66.2v17 16.7 164.6h93z" fill="#bbbdbf"/><g><path d="m-.2 351.2h92.9v2.2h-92.9z" fill="#d6d6d5"/></g><g><path d="m-.2 424.7h92.9v2.2h-92.9z" fill="#d6d6d5"/></g><path d="m94.3 467.6h-3v-171.5c0-.2-22.4-25.4-27.1-25.4h-64.4v-3h64.4c5.6 0 30.1 28 30.1 28.4z" fill="#fad03b"/></g><g><path d="m11.3 372.5h34.6v33.1h-34.6z" fill="url(#ah)"/><path d="m40.5 390.6c0-.7-.1-1.3-.3-1.9 0-.3 0-.5 0-.8 0-2-.5-3.9-1.3-5.6.1-.5.2-1 .2-1.6 0-3.5-2.9-6.4-6.4-6.4-1.4 0-2.6.4-3.7 1.2-.4 0-.8-.1-1.3-.1-2.6 0-4.9.8-6.9 2.1-.3 0-.6-.1-.9-.1-3.5 0-6.4 2.9-6.4 6.4 0 1.7.7 3.3 1.8 4.4v.7c-1.1 1.2-1.8 2.7-1.8 4.5 0 3.5 2.9 6.4 6.4 6.4 1 0 1.9-.2 2.7-.6.9 2.4 3.2 4.1 6 4.1 3.1 0 5.7-2.3 6.3-5.2.8-.5 1.5-1.1 2.1-1.8 2-1 3.5-3.2 3.5-5.7z" fill="url(#aj)"/></g><g><path d="m11.3 24.1h34.6v33.1h-34.6z" fill="url(#ak)"/><path d="m40.5 42.2c0-.7-.1-1.3-.3-1.9 0-.3 0-.5 0-.8 0-2-.5-3.9-1.3-5.6.1-.5.2-1 .2-1.6 0-3.5-2.9-6.4-6.4-6.4-1.4 0-2.6.4-3.7 1.2-.4 0-.8-.1-1.3-.1-2.6 0-4.9.8-6.9 2.1-.3 0-.6-.1-.9-.1-3.5 0-6.4 2.9-6.4 6.4 0 1.7.7 3.3 1.8 4.4v.7c-1.1 1.2-1.8 2.7-1.8 4.5 0 3.5 2.9 6.4 6.4 6.4 1 0 1.9-.2 2.7-.6.9 2.4 3.2 4.1 6 4.1 3.1 0 5.7-2.3 6.3-5.2.8-.5 1.5-1.1 2.1-1.8 2-1 3.5-3.2 3.5-5.7z" fill="url(#al)"/></g><g><path d="m527.9 24.1h34.6v33.1h-34.6z" fill="url(#am)"/><path d="m557.1 42.2c0-.7-.1-1.3-.3-1.9 0-.3 0-.5 0-.8 0-2-.5-3.9-1.3-5.6.1-.5.2-1 .2-1.6 0-3.5-2.9-6.4-6.4-6.4-1.4 0-2.6.4-3.7 1.2-.4 0-.8-.1-1.3-.1-2.6 0-4.9.8-6.9 2.1-.3 0-.6-.1-.9-.1-3.5 0-6.4 2.9-6.4 6.4 0 1.7.7 3.3 1.8 4.4v.7c-1.1 1.2-1.8 2.7-1.8 4.5 0 3.5 2.9 6.4 6.4 6.4 1 0 1.9-.2 2.7-.6.9 2.4 3.2 4.1 6 4.1 3.1 0 5.7-2.3 6.3-5.2.8-.5 1.5-1.1 2.1-1.8 2.1-1 3.5-3.2 3.5-5.7z" fill="url(#an)"/></g><g><path d="m509.1 269.3c-11.3 0-26.7 16.5-27.2 25.9l-.1 172.2h93.7v-164.4-16.7-17z" fill="#bbbdbf"/><g><path d="m482 351.2h93.6v2.2h-93.6z" fill="#d6d6d5"/></g><g><path d="m482 424.7h93.6v2.2h-93.6z" fill="#d6d6d5"/></g><path d="m480.3 467.4v-171.4c0-.4 25.2-28.2 30.8-28.2h64.4v3h-64.4c-4.7 0-27.8 25-27.8 25.1v171.4h-3z" fill="#fad03b"/></g><g><path d="m528.8 405.6h34.6v-33.1h-34.6z" fill="url(#ao)"/><path d="m534.2 390.6c0-.7.1-1.3.3-1.9 0-.3 0-.5 0-.8 0-2 .5-3.9 1.3-5.6-.1-.5-.2-1-.2-1.6 0-3.5 2.9-6.4 6.4-6.4 1.4 0 2.6.4 3.7 1.2.4 0 .8-.1 1.3-.1 2.6 0 4.9.8 6.9 2.1.3 0 .6-.1.9-.1 3.5 0 6.4 2.9 6.4 6.4 0 1.7-.7 3.3-1.8 4.4v.7c1.1 1.2 1.8 2.7 1.8 4.5 0 3.5-2.9 6.4-6.4 6.4-1 0-1.9-.2-2.7-.6-.9 2.4-3.2 4.1-6 4.1-3.1 0-5.7-2.3-6.3-5.2-.8-.5-1.5-1.1-2.1-1.8-2.1-1-3.5-3.2-3.5-5.7z" fill="url(#ap)"/></g><g fill="#fff"><path clip-rule="evenodd" d="m229.4 421.9 6.2 10.9 6.3 10.8 6.2-10.8 6.3-10.9h-8.3v-26.1h-8.4v26.1z" fill-rule="evenodd" opacity=".5"/><path d="m289.8-33.8h3v131.1h-3z"/><path clip-rule="evenodd" d="m229.4 51.6 6.2 10.8 6.3 10.9 6.2-10.9 6.3-10.8h-8.3v-26.2h-8.4v26.2z" fill-rule="evenodd" opacity=".5"/><path clip-rule="evenodd" d="m366.3 47.1-6.2-10.8-6.3-10.9-6.3 10.9-6.2 10.8h8.3v26.2h8.4v-26.2z" fill-rule="evenodd" opacity=".5"/></g><g><path d="m384.4 355.3-64.4-.1h-1.9v-2.3c0-1 .9-1.9 1.9-1.9l64.4.1c1 0 1.9.9 1.9 1.9v2.2z" fill="#b2b2b2"/><g><path d="m389.7 381-75.3-.3-.6 176.9 75.5.2z" fill="url(#ar)"/><path d="m396.3 391c0 9.6 0 17.4-2.6 17.4-.3 0-2.8 0-3.3 0-3 0-3.4-9-3.4-17.4s.8-15.6 3.3-17.2c.4-.2 3.2-.2 3.5-.2 2.6-.1 2.6 7.7 2.5 17.4z" fill="url(#as)"/><path d="m307.6 390.7c0 9.6-.1 17.4 2.5 17.4h3.3c3 0 3.5-9 3.5-17.4s-.7-15.6-3.2-17.2c-.4-.2-3.2-.2-3.5-.2-2.6-.1-2.6 7.7-2.6 17.4z" fill="url(#at)"/><path d="m317.3 408.1h-5.8l.1-34.8h5.8z" fill="url(#au)"/><path d="m392 408.4-5.9-.1.1-34.8h6z" fill="url(#av)"/><path d="m314.4 388.6s0-10.7 0-21c0-13.5 16.6-12.3 16.6-12.3h41.6s17.1-1.1 17.1 11.2c0 6.9-.1 21.6-.1 21.6z" fill="url(#aw)"/><path d="m384.4 360.2-13.1-.1v-7.4l13.1.1z" fill="url(#ax)"/><path d="m332.4 360.2-13.1-.1.1-7.4 13 .1z" fill="url(#ay)"/><path d="m370.1 361v-5.8l16.2.1-.1 5.8z" fill="url(#az)"/><path d="m385.9 412.7-10.7-3.5-.1 32.6 10.6 8.8z" fill="#d6d6d5"/><path d="m385.8 454.5-10.7-8.9-.1 37.3 10.6 8.7z" fill="#d6d6d5"/><path d="m380.4 424.7c-2.9 0-5.3 7.4-5.3 17.1l10.5 8.8c.1-9.7-2.3-25.9-5.2-25.9z" fill="url(#aA)" opacity=".5"/><path d="m380.4 465.7c-2.9 0-5.3 7.4-5.3 17.1l10.5 8.8c.1-9.7-2.3-25.9-5.2-25.9z" fill="url(#aB)" opacity=".5"/><path d="m318.1 361v-5.8l16.2.1v5.8z" fill="url(#aC)"/><g><ellipse clip-path="url(#aD)" cx="318" cy="362.3" fill="url(#aE)" opacity=".25" rx="36.1" ry="33.9"/></g><g><path clip-path="url(#aF)" d="m364.7 514.9c-.1 29.3-22.6 53-50.2 52.9s-50.1-24-50-53.3 22.6-53 50.2-52.9c27.7.1 50 24 50 53.3z" fill="url(#aG)" opacity=".25"/></g><path d="m351.5 399.8-.4 138s-15.9-.1-19-.1-3.8-3.1-3.8-3.1l-.2-128.8s6.2-2.8 10.8-4.1c7.4-1.9 12.6-1.9 12.6-1.9z" fill="url(#aH)" opacity=".25"/><path d="m317.4 412.7 10.7-3.5.1 32.6-10.6 8.8z" fill="#d6d6d5"/><path d="m317.5 454.5 10.7-8.9.1 37.3-10.6 8.7z" fill="#d6d6d5"/><path d="m322.9 424.7c2.9 0 5.3 7.4 5.3 17.1l-10.5 8.8c-.1-9.7 2.3-25.9 5.2-25.9z" fill="url(#aI)" opacity=".5"/><path d="m322.9 465.7c2.9 0 5.3 7.4 5.3 17.1l-10.5 8.8c-.1-9.7 2.3-25.9 5.2-25.9z" fill="url(#aJ)" opacity=".5"/><path d="m359.2 381h41.4v8.4l-14.5 3.8z" fill="url(#aK)"/><path d="m349.5 380.7h-47.6l-.1 8.3 15.6 3.9z" fill="url(#aL)"/><path d="m386.1 388c0 1.9.1 21.6.1 21.6l-10.8-3.6s-11.2-6.9-23.2-6.3c-11.9-.2-24.1 6.1-24.1 6.1l-10.6 3.8v-7.1s-.2-10.6 0-14.6 17.3-7.3 34.8-7.3c19.5 0 33.7 5.5 33.8 7.4z" fill="#d6d6d5"/><path d="m354 380.8c-21.7-.9-35.6 13.6-36.6 21.7v7.1l10.6-3.8s10.6-5.6 23.5-6.1c8.7-.4 16.6 2.8 16.6 2.8l7.3 3.5 10.8 3.6v-7.2c-4-9.1-17.7-21-32.2-21.6z" fill="url(#aM)" opacity=".5"/></g></g><g><g><path d="m239.6 301.8h1.2c.5 0 .9.4.9.9v22.3c0 .5-.4.9-.9.9h-1.2c-.5 0-.9-.4-.9-.9v-22.3c0-.5.4-.9.9-.9z" fill="url(#aN)"/><path d="m239.5 315.3h1.4c.6 0 1.1.5 1.1 1.1v16.7c0 .6-.5 1.1-1.1 1.1h-1.4c-.6 0-1.1-.5-1.1-1.1v-16.7c0-.5.5-1.1 1.1-1.1z" fill="url(#aO)"/><path d="m241.5 333v-8.7c0-.2.2-.4.4-.4h.4c.2 0 .4.2.4.4v8.7c0 .2-.2.4-.4.4h-.4c-.3 0-.4-.2-.4-.4z" fill="url(#aP)"/><path d="m237.8 333v-8.7c0-.2.2-.4.4-.4h.4c.2 0 .4.2.4.4v8.7c0 .2-.2.4-.4.4h-.4c-.3 0-.4-.2-.4-.4z" fill="url(#aQ)"/><path d="m239.6 357.3h1.2c.5 0 .9.4.9.9v22.3c0 .5-.4.9-.9.9h-1.2c-.5 0-.9-.4-.9-.9v-22.3c0-.5.4-.9.9-.9z" fill="url(#aR)"/><path d="m241.7 358.7h.4c.1 0 .2.1.2.2v5.1c0 .1-.1.2-.2.2h-.4c-.3 0-.5-.2-.5-.5v-4.5c0-.2.2-.5.5-.5z" fill="url(#aS)"/><path d="m238.8 358.7h-.4c-.1 0-.2.1-.2.2v5.1c0 .1.1.2.2.2h.4c.3 0 .5-.2.5-.5v-4.5c-.1-.2-.3-.5-.5-.5z" fill="url(#aT)"/><path d="m238.7 336.1h3v20.7h-3z" fill="url(#aU)"/><path d="m235.3 330.5h2.5c1.1 0 2 .9 2 2v16.9c0 1.1-.9 2-2 2h-2.5c-1.1 0-2-.9-2-2v-16.9c0-1.1.9-2 2-2z" fill="url(#aW)"/><path d="m242.8 330.5h2.5c1.1 0 2 .9 2 2v18.8c0 1.1-.9 2-2 2h-2.5c-1.1 0-2-.9-2-2v-18.8c-.1-1.1.9-2 2-2z" fill="url(#aX)"/><path d="m228.6 330.5h24.6v7.3h-24.6z" fill="url(#aY)"/><path d="m234 336.4c0-5.3 1.5-9.5 6.7-9.5s7 4.3 7 9.5c0 2.5-.9 3.9-2.3 5.1-1.2 1-1.7 1.8-3.4 2.2-.7.2-.5 2.2-1.3 2.2-.7 0-.6-1.8-1.2-1.9-1.5-.4-2.4-1.3-3.4-2.1-1.6-1.3-2.1-2.8-2.1-5.5z" fill="url(#aZ)"/><circle cx="227.2" cy="356.8" fill="url(#a0)" r="3.1"/><circle cx="254" cy="356.8" fill="url(#a1)" r="3.1"/><path d="m228 330.5c1.4.1 3.5-.9 3.5 2.5 0 5.5-2.2 5.8-2.1 9.6 0 2.3.3 10.9.3 10.9 0 1.3-1.2 1.2-2.6 1.2-1.3-.1-2.4 0-2.4-1.3l.7-20.5c0-1.4 1.2-2.5 2.6-2.4z" fill="url(#a2)"/><path d="m252.9 330.5c-1.4.1-3.5-.9-3.5 2.5 0 5.5 2.2 5.8 2.1 9.6 0 2.3-.3 10.9-.3 10.9 0 1.3 1.2 1.2 2.6 1.2 1.3-.1 2.4 0 2.4-1.3l-.7-20.5c0-1.4-1.2-2.5-2.6-2.4z" fill="url(#a3)"/><path d="m227.8 358.1c0 .6.4 1.2.8 1.2h23.3c.5 0 .9-.5.9-1.2s-.4-1.2-.9-1.2h-23.3c-.4.1-.8.6-.8 1.2z" fill="url(#a4)"/><path d="m248.6 355.7s-5-1-4.7 3.6h4.8z" fill="url(#a5)"/><path d="m231.6 355.7s5-1 4.7 3.6h-4.8z" fill="url(#a6)"/><ellipse cx="240.2" cy="358" fill="url(#a7)" rx="2.7" ry="3.1"/><path d="m234.6 362.3h11.3c.2 0 .4.2.4.4v.4c0 .2-.2.4-.4.4h-11.3c-.2 0-.4-.2-.4-.4v-.4c0-.3.2-.4.4-.4z" fill="url(#a8)"/><path d="m247.7 336.7s-1.2-.8-1.1-2 1-.9.9-1.1-.2-6.9-7-6.8c-6.5.1-6.4 7.5-6.4 7.5s1.4 0 1.2 1.3-1.3 1.4-1.3 1.4l.2 1.6s1.5-.9 1.8-1.5c.3-.5 1.4-2 .6-3.5s.2-2.6.7-3.2c.6-.7 4.8-.9 6.2-.3s2.2 1.9 2 2.9-.7 3.5 0 3.9 1.9 1.7 1.9 1.7l.2-.9z" fill="url(#a9)"/></g><g><g><g><path d="m265.1 353.3c-5.9 0-10.8-4.8-10.8-10.8 0-5.9 4.8-10.8 10.8-10.8 5.9 0 10.8 4.8 10.8 10.8-.1 6-4.9 10.8-10.8 10.8z" fill="#d82638"/><path d="m265.1 353.7c-6.2 0-11.2-5-11.2-11.2s5-11.2 11.2-11.2 11.2 5 11.2 11.2c-.1 6.2-5.1 11.2-11.2 11.2zm0-21.5c-5.7 0-10.4 4.7-10.4 10.4s4.7 10.4 10.4 10.4 10.4-4.7 10.4-10.4-4.7-10.4-10.4-10.4z" fill="#fff"/></g></g><path d="m257.4 335 15.2 15.2c-4.2 4.2-11 4.2-15.2 0-4.1-4.2-4.2-11 0-15.2z" fill="#d8d8d8"/><g><g><path d="m270.2 346.8-.7.7c-.3.3-.8.3-1.2 0l-8.1-8.1c-.3-.3-.3-.8 0-1.2l.7-.7c.3-.3.8-.3 1.2 0l8.1 8.1c.3.4.3.9 0 1.2z" fill="#fff"/></g><g><path d="m260.3 347.2c-.5-.5-.5-1.4 0-1.9l7.3-7.3c.5-.5 1.4-.5 1.9 0 .5.5.5 1.4 0 1.9l-7.3 7.3c-.5.5-1.3.5-1.9 0z" fill="#fff"/></g></g></g></g><g><path d="m438.7 436.1h41.6v31.2h-41.6z" fill="#b2b4b6"/><path d="m459.8 467.3-21.1-31.2h1.1l20 29.4 19.3-29.4h1.2z" fill="#d6d6d5"/></g><path d="m434.7 333.4v23l-20.5-20.5v-2.5h-3v133.8h3v-21.9l20.5 20.5v1.6h3v-134zm-20.5 6.7 20.5 20.5v16.8l-20.5-20.4zm0 21.1 20.5 20.4v17l-20.5-20.5zm0 21.1 20.5 20.5v16.9l-20.5-20.5zm0 21.1 20.5 20.5v16.9l-20.5-20.5zm0 37.7v-16.5l20.5 20.5v16.5z" fill="#fff"/><path d="m434.7-35.2v23l-20.5-20.5v-2.5h-3v133.8h3v-21.9l20.5 20.5v1.6h3v-134zm-20.5 6.7 20.5 20.5v16.8l-20.5-20.4zm0 21.1 20.5 20.4v17l-20.5-20.5zm0 21.1 20.5 20.5v16.9l-20.5-20.5zm0 21.1 20.5 20.5v16.9l-20.5-20.5zm0 37.6v-16.5l20.5 20.5v16.5z" fill="#fff"/><g><g><path d="m459.6 421.1h-1.2c-.5 0-.9-.4-.9-.9v-22.3c0-.5.4-.9.9-.9h1.2c.5 0 .9.4.9.9v22.3c0 .5-.4.9-.9.9z" fill="url(#ba)"/><path d="m459.7 407.5h-1.4c-.6 0-1.1-.5-1.1-1.1v-16.7c0-.6.5-1.1 1.1-1.1h1.4c.6 0 1.1.5 1.1 1.1v16.7c.1.6-.5 1.1-1.1 1.1z" fill="url(#bb)"/><path d="m457.8 389.9v8.7c0 .2-.2.4-.4.4h-.4c-.2 0-.4-.2-.4-.4v-8.7c0-.2.2-.4.4-.4h.4c.2 0 .4.2.4.4z" fill="url(#bc)"/><path d="m461.4 389.9v8.7c0 .2-.2.4-.4.4h-.4c-.2 0-.4-.2-.4-.4v-8.7c0-.2.2-.4.4-.4h.4c.3 0 .4.2.4.4z" fill="url(#bd)"/><path d="m459.6 365.6h-1.2c-.5 0-.9-.4-.9-.9v-22.3c0-.5.4-.9.9-.9h1.2c.5 0 .9.4.9.9v22.3c0 .4-.4.9-.9.9z" fill="url(#be)"/><path d="m457.6 364.1h-.4c-.1 0-.2-.1-.2-.2v-5.1c0-.1.1-.2.2-.2h.4c.3 0 .5.2.5.5v4.5c-.1.3-.3.5-.5.5z" fill="url(#bf)"/><path d="m460.5 364.1h.4c.1 0 .2-.1.2-.2v-5.1c0-.1-.1-.2-.2-.2h-.4c-.3 0-.5.2-.5.5v4.5c0 .3.2.5.5.5z" fill="url(#bg)"/><path d="m457.6 366h3v20.7h-3z" fill="url(#bh)"/><path d="m463.9 392.4h-2.5c-1.1 0-2-.9-2-2v-16.9c0-1.1.9-2 2-2h2.5c1.1 0 2 .9 2 2v16.9c0 1.1-.9 2-2 2z" fill="url(#bj)"/><path d="m456.5 392.4h-2.5c-1.1 0-2-.9-2-2v-18.8c0-1.1.9-2 2-2h2.5c1.1 0 2 .9 2 2v18.8c0 1.1-.9 2-2 2z" fill="url(#bk)"/><path d="m446 385.1h24.6v7.3h-24.6z" fill="url(#bm)"/><path d="m465.2 386.5c0 5.3-1.5 9.5-6.7 9.5s-7-4.3-7-9.5c0-2.5.9-3.9 2.3-5.1 1.2-1 1.7-1.8 3.4-2.2.7-.2.5-2.2 1.3-2.2.7 0 .6 1.8 1.2 1.9 1.5.4 2.4 1.3 3.4 2.1 1.6 1.3 2.1 2.7 2.1 5.5z" fill="url(#bn)"/><circle cx="472.1" cy="366.1" fill="url(#bo)" r="3.1"/><circle cx="445.2" cy="366.1" fill="url(#bp)" r="3.1"/><path d="m471.2 392.4c-1.4-.1-3.5.9-3.5-2.5 0-5.5 2.2-5.8 2.1-9.6 0-2.3-.3-10.9-.3-10.9 0-1.3 1.2-1.2 2.6-1.2 1.3.1 2.4 0 2.4 1.3l-.7 20.5c0 1.4-1.2 2.4-2.6 2.4z" fill="url(#bq)"/><path d="m446.3 392.4c1.4-.1 3.5.9 3.5-2.5 0-5.5-2.2-5.8-2.1-9.6 0-2.3.3-10.9.3-10.9 0-1.3-1.2-1.2-2.6-1.2-1.3.1-2.4 0-2.4 1.3l.7 20.5c0 1.4 1.2 2.4 2.6 2.4z" fill="url(#br)"/><path d="m471.4 364.7c0-.6-.4-1.2-.8-1.2s-23.2 0-23.3 0c-.5 0-.9.5-.9 1.2s.4 1.2.9 1.2h23.3c.5 0 .8-.5.8-1.2z" fill="url(#bs)"/><path d="m450.6 367.2s5 1 4.7-3.6h-4.8z" fill="url(#bt)"/><path d="m467.6 367.2s-5 1-4.7-3.6h4.8z" fill="url(#bu)"/><ellipse cx="459" cy="364.9" fill="url(#bv)" rx="2.7" ry="3.1"/><path d="m464.7 360.6h-11.3c-.2 0-.4-.2-.4-.4v-.4c0-.2.2-.4.4-.4h11.3c.2 0 .4.2.4.4v.4c-.1.3-.2.4-.4.4z" fill="url(#bw)"/><path d="m451.5 386.2s1.2.8 1.1 2c-.1 1.1-1 .9-.9 1.1s.2 6.9 7 6.8c6.5-.1 6.4-7.5 6.4-7.5s-1.4 0-1.2-1.3c.2-1.2 1.3-1.4 1.3-1.4l-.1-.9-.1-.7s-1.5.9-1.8 1.5c-.3.5-.7.4-.7.4s.1-3.9-3.9-3.7c-4.5.2-4.1 3.7-4.1 3.7s-.5.5-.8-.2c-.3-.6-1.9-1.7-1.9-1.7s-.1.5-.2.9-.1 1-.1 1z" fill="url(#bx)"/></g><g><g><g><path d="m434.7 393.7c-5.9 0-10.8-4.8-10.8-10.8 0-5.9 4.8-10.8 10.8-10.8 5.9 0 10.8 4.8 10.8 10.8 0 5.9-4.9 10.8-10.8 10.8z" fill="url(#bz)"/><path d="m434.7 394.1c-6.2 0-11.2-5-11.2-11.2s5-11.2 11.2-11.2 11.2 5 11.2 11.2-5.1 11.2-11.2 11.2zm0-21.6c-5.7 0-10.4 4.7-10.4 10.4s4.7 10.4 10.4 10.4 10.4-4.7 10.4-10.4-4.7-10.4-10.4-10.4z" fill="#fff"/></g><path d="m433.1 387.8-4.8-4.8 1.8-1.8 2.9 2.9 6.3-6.3 1.8 1.9z" fill="#fff"/></g><path d="m427.1 375.3 15.2 15.2c-4.2 4.2-11 4.2-15.2 0s-4.3-11 0-15.2z" fill="#d8d8d8"/></g></g><path clip-rule="evenodd" d="m571.4 203.4-10.8 6.3-10.9 6.3 10.9 6.2 10.8 6.3v-8.3h4.1v-8.5h-4.1z" fill="#fff" fill-rule="evenodd" opacity=".5"/><g><path d="m517.8 342.7h4.3v108.2h-4.3z" fill="#b2b4b6"/><g fill="#b2b4b6"><path d="m500.6 342.6h20.1v108.3h-20.1z"/><path d="m517.8 342.8h4.3v108h-4.3z"/><path d="m500.6 368.3h17.2v1.8h-17.2z"/><path d="m500.6 395.9h17.2v1.8h-17.2z"/><path d="m500.6 423.3h17.2v1.8h-17.2z"/><g><g><g><circle cx="505.4" cy="349.6" r="1.4"/><circle cx="509.3" cy="349.6" r="1.4"/><circle cx="509.3" cy="345.7" r="1.4"/><circle cx="513.1" cy="349.5" r="1.4"/><circle cx="505.4" cy="353.5" r="1.4"/><circle cx="513.1" cy="353.5" r="1.4"/><circle cx="505.4" cy="357.4" r="1.4"/><circle cx="509.3" cy="357.4" r="1.4"/><circle cx="509.3" cy="353.5" r="1.4"/><circle cx="513.1" cy="357.4" r="1.4"/></g><circle cx="505.4" cy="361.3" r="1.4"/><circle cx="509.3" cy="365.2" r="1.4"/><circle cx="509.3" cy="361.3" r="1.4"/><circle cx="513.1" cy="361.3" r="1.4"/></g><g><g><circle cx="505.4" cy="377.1" r="1.4"/><circle cx="509.3" cy="377.1" r="1.4"/><circle cx="509.3" cy="373.2" r="1.4"/><circle cx="513.1" cy="377" r="1.4"/><circle cx="505.4" cy="381" r="1.4"/><circle cx="513.1" cy="381" r="1.4"/><circle cx="505.4" cy="384.9" r="1.4"/><circle cx="509.3" cy="384.9" r="1.4"/><circle cx="509.3" cy="381" r="1.4"/><circle cx="513.1" cy="384.8" r="1.4"/></g><circle cx="505.4" cy="388.7" r="1.4"/><circle cx="509.3" cy="392.6" r="1.4"/><circle cx="509.3" cy="388.7" r="1.4"/><circle cx="513.1" cy="388.7" r="1.4"/></g><g><g><circle cx="505.4" cy="404.7" r="1.4"/><circle cx="509.3" cy="404.7" r="1.4"/><circle cx="509.3" cy="400.8" r="1.4"/><circle cx="513.1" cy="404.6" r="1.4"/><circle cx="505.4" cy="408.6" r="1.4"/><circle cx="513.1" cy="408.6" r="1.4"/><circle cx="505.4" cy="412.5" r="1.4"/><circle cx="509.3" cy="412.5" r="1.4"/><circle cx="509.3" cy="408.6" r="1.4"/><circle cx="513.1" cy="412.4" r="1.4"/></g><circle cx="505.4" cy="416.3" r="1.4"/><circle cx="509.3" cy="420.2" r="1.4"/><circle cx="509.3" cy="416.3" r="1.4"/><circle cx="513.1" cy="416.3" r="1.4"/></g><g><g><circle cx="505.4" cy="432.1" r="1.4"/><circle cx="509.3" cy="432.1" r="1.4"/><circle cx="509.3" cy="428.2" r="1.4"/><circle cx="513.1" cy="432" r="1.4"/><circle cx="505.4" cy="436" r="1.4"/><circle cx="513.1" cy="436" r="1.4"/><circle cx="505.4" cy="439.9" r="1.4"/><circle cx="509.3" cy="439.9" r="1.4"/><circle cx="509.3" cy="436" r="1.4"/><circle cx="513.1" cy="439.9" r="1.4"/></g><circle cx="505.4" cy="443.8" r="1.4"/><circle cx="509.3" cy="447.7" r="1.4"/><circle cx="509.3" cy="443.8" r="1.4"/><circle cx="513.1" cy="443.8" r="1.4"/></g></g></g><g><path d="m498.1 385.5v1.7c0 .6-.5 1-1 1h-4.7c-.6 0-1-.5-1-1v-1.7c0-.6.5-1 1-1h4.7c.6 0 1 .5 1 1z" fill="url(#bB)"/><path d="m498.1 378.3v1.7c0 .6-.5 1-1 1h-4.7c-.6 0-1-.5-1-1v-1.7c0-.6.5-1 1-1h4.7c.6 0 1 .5 1 1z" fill="url(#bC)"/><path d="m508.4 377.7v3.1c0 1-.8 1.8-1.8 1.8h-10c-1 0-1.8-.8-1.8-1.8v-3.1c0-1 .8-1.8 1.8-1.8h10c1-.1 1.8.7 1.8 1.8z" fill="url(#bD)"/><path d="m508.4 384.6v3.1c0 1-.8 1.8-1.8 1.8h-10c-1 0-1.8-.8-1.8-1.8v-3.1c0-1 .8-1.8 1.8-1.8h10c1 0 1.8.8 1.8 1.8z" fill="url(#bE)"/><path d="m513.4 391.7-.2.5c.3 1.4-2.4 3.3-2.4 3.3l-2.5.5c-1.4.3-2.7-1-3-2.4-.3-1.4.6-3 2-3.3l5.7-1c-.2 0 .1 1.1.4 2.4z" fill="url(#bF)"/><path d="m512.9 374.3-.1-.5c.3-1.3-2.2-3.4-2.2-3.4l-2.5-.6c-1.3-.3-2.8.8-3.1 2.2-.3 1.3.4 3.1 1.7 3.4l5.6 1.4c-.1-.1.3-1.2.6-2.5z" fill="url(#bG)"/><path d="m513.5 371.7v22.6c0 1.1-.9 2-2 2h-3.3c-1.1 0-2-.9-2-2v-22.6c0-1.1.9-2 2-2h3.3c1.1 0 2 .9 2 2z" fill="url(#bH)"/><path d="m507.4 375.8c5.4 0 9.9 1.5 9.9 7 0 5.4-4.4 7.2-9.9 7.2-2.5 0-4.1-.9-5.3-2.3-1-1.2-1.8-1.7-2.3-3.5-.2-.7-2.3-.5-2.3-1.3s1.8-.7 2-1.3c.4-1.5 1.3-2.5 2.2-3.5 1.3-1.8 2.8-2.3 5.7-2.3z" fill="url(#bI)"/><path d="m507.1 390s .9-1.3 2-1.1c1.2.1.9 1 1.1 1s7.2-.2 7.1-7.2c-.1-6.7-7.8-6.6-7.8-6.6s0 1.5-1.3 1.3-1.5-1.4-1.5-1.4l-.9.1-.7.1s.9 1.5 1.6 1.9c.5.3.4.7.4.7s-4-.1-3.9 4c .2 4.6 3.9 4.2 3.9 4.2s.5.5-.2.9c-.6.3-1.8 2-1.8 2s .5.2 1 .2c.5-.2 1-.1 1-.1z" fill="url(#bJ)"/></g></g><g><path d="m521.9 460.2h-30.8c-1.3 0-2.3-1-2.3-2.3v-122.3c0-1.3 1-2.3 2.3-2.3h30.8c1.3 0 2.3 1 2.3 2.3v122.2c0 1.3-1.1 2.4-2.3 2.4z" fill="#c0ffff" opacity=".3"/><path d="m522.5 331h-32.2c-2.1 0-3.8 1.7-3.8 3.8v124c0 2.1 1.7 3.8 3.8 3.8h32.2c2.1 0 3.8-1.7 3.8-3.8v-124c0-2.1-1.7-3.8-3.8-3.8zm1.7 125.4c0 2.1-1.7 3.8-3.8 3.8h-27.9c-2.1 0-3.8-1.7-3.8-3.8v-119.3c0-2.1 1.7-3.8 3.8-3.8h27.9c2.1 0 3.8 1.7 3.8 3.8z" fill="#42210b"/></g><g><path d="m125.2 418.5c1.3 0 2.5-.4 3.5-1.1l2.2 2.6-.2.9-1.9.8c-.2.1-.4.3-.3.6 0 .2.3.4.5.4l4.8-.2c.2 0 .5-.2.5-.4 0-.3-.1-.5-.4-.5l-2.2-.6c0-.2.1-.4.1-.6l9.3.1-.7 1.8v.2c0 .1.1.3.2.4.2.2.4.4.4.5s0 0-.2.1c-.2 0-2.5 0-2.5 0-.3 0-.5.2-.5.5s.2.5.5.5h2.6.2c.6-.2.8-.6.9-.9 0-.1 0-.1 0-.2 0-.4-.2-.8-.4-1 .1-.3.6-1.7 1.1-3.1l.2-.5c.2-.5.3-.9.4-1.2 1 .6 2.1.9 3.3.9 3.5 0 6.4-2.9 6.4-6.5s-2.9-6.5-6.4-6.5-6.4 2.9-6.4 6.5c0 2 .9 3.7 2.2 4.9l-.3.7-7.2-7.3s0 0-.1-.1l-.4-1.1c.2 0 .4-.2.4-.5s-.2-.5-.5-.5h-1.4c-.3 0-.5.2-.5.5s.2.5.5.5h.4l.4 1.2-2.4.3c-.6-2.9-3.2-5.1-6.3-5.1-3.5 0-6.4 2.9-6.4 6.5.2 3.6 3.1 6.5 6.6 6.5zm16.1-6.4c0-3 2.4-5.4 5.4-5.4s5.4 2.4 5.4 5.4-2.4 5.4-5.4 5.4c-1.1 0-2.1-.3-3-.9.8-2.2 3.3-4.1 3.3-4.1.1-.1.2-.3.2-.4s0-.2-.1-.3c-.2-.2-.5-.3-.7-.1-.1.1-2.5 1.9-3.5 4.2-1-.9-1.6-2.3-1.6-3.8zm-6.7.5.1.4h-.1c-.1 0-.2 0-.2 0 .1-.1.1-.2.2-.4zm0 1.5h1.2c.3 0 .5-.2.5-.5s-.2-.5-.5-.5h-.1l-.2-.7 6.3 6.4c-.1.3-.2.5-.3.7-.6 0-7.5-.1-9.4-.1.4-1.2 1.3-3.7 2-5.6.2.2.3.3.5.3zm-.7-2.7-2.6 7.5c-.4-.5-1-1.2-1.8-2.1 1.3-1.2 2.1-2.9 2.1-4.8 0-.1 0-.2 0-.3 1-.1 1.8-.2 2.3-.3zm-3.3.7c0 1.6-.7 3-1.7 4-1.2-1.5-2.5-2.9-2.9-3.5.7-.1 2.7-.4 4.6-.7zm-5.4-5.5c2.6 0 4.7 1.8 5.3 4.2l-5.6.8c-.2 0-.3.2-.4.3-.1.2 0 .4.1.5l3.5 4.1c-.8.5-1.8.8-2.9.8-3 0-5.4-2.4-5.4-5.4.1-2.8 2.5-5.3 5.4-5.3z" fill="#fff"/><g fill="#fff"><path d="m151.7 394.1-1.6.2c-.1-.8-.3-1.4-.6-1.8s-.7-.6-1.2-.6-.9.2-1.2.5-.4.8-.4 1.2c0 .3.1.6.2.8s.3.4.6.5c.2.1.6.3 1.3.6.9.3 1.5.8 1.9 1.3.5.7.8 1.5.8 2.5 0 .6-.1 1.2-.4 1.8-.2.6-.6 1-1 1.3s-1 .4-1.6.4c-1 0-1.8-.3-2.3-1s-.8-1.6-.8-2.8l1.6-.1c.1.7.2 1.1.5 1.4.2.3.6.4 1 .4.5 0 .9-.2 1.1-.5.2-.2.3-.5.3-.8s-.1-.6-.2-.8c-.2-.3-.7-.6-1.5-.8s-1.4-.6-1.8-.9-.7-.7-.9-1.3c-.2-.5-.3-1.2-.3-2 0-.7.1-1.4.4-2s .6-1.1 1.1-1.4 1.1-.5 1.8-.5c1 0 1.8.4 2.4 1.1.4.8.7 1.8.8 3.3z"/><path d="m144 396.2c0 1.3-.1 2.4-.4 3.2-.2.6-.4 1.2-.8 1.7-.3.5-.7.9-1.1 1.1-.5.3-1.1.5-1.8.5-1.2 0-2.2-.6-2.9-1.7s-1.1-2.8-1.1-4.8.4-3.6 1.1-4.8 1.7-1.7 2.9-1.7 2.2.6 2.9 1.7c.9 1.2 1.2 2.8 1.2 4.8zm-1.7.1c0-1.4-.2-2.5-.6-3.3-.4-.7-1-1.1-1.6-1.1-.7 0-1.2.4-1.6 1.1s-.6 1.8-.6 3.3.2 2.5.6 3.2 1 1.1 1.6 1.1c.7 0 1.2-.4 1.6-1.1s.6-1.8.6-3.2z"/><path d="m134.8 389.9v12.6h-1.6v-10.4h-4.2v-2.1h5.8z"/><path d="m128.2 396.2c0 1.3-.1 2.4-.4 3.2-.2.6-.4 1.2-.8 1.7-.3.5-.7.9-1.1 1.1-.5.3-1.1.5-1.8.5-1.2 0-2.2-.6-2.9-1.7s-1.1-2.8-1.1-4.8.4-3.6 1.1-4.8 1.7-1.7 2.9-1.7 2.2.6 2.9 1.7c.8 1.2 1.2 2.8 1.2 4.8zm-1.7.1c0-1.4-.2-2.5-.6-3.3-.4-.7-1-1.1-1.6-1.1-.7 0-1.2.4-1.6 1.1s-.6 1.8-.6 3.3.2 2.5.6 3.2 1 1.1 1.6 1.1c.7 0 1.2-.4 1.6-1.1s.6-1.8.6-3.2z"/></g></g><g><path d="m181.9 340.2h10.7v37.7h-10.7z" fill="#bbbdbf"/><g fill="#fad03b"><path d="m182.9 361.5h2v9.7h-2z"/><path d="m189.6 361.5h2v9.7h-2z"/><path d="m182.9 346.6h2v9.7h-2z"/><path d="m189.6 346.6h2v9.7h-2z"/><path d="m186.3 337.6h2v8.9h-2z" transform="matrix(0 -1 1 0 -154.8312 529.3762)"/><path d="m186.2 371.7h2v8.9h-2z" transform="matrix(0 -1 1 0 -188.9308 563.4426)"/></g></g><g><path d="m181.9 385.8h10.7v37.7h-10.7z" fill="#bbbdbf"/><g fill="#fad03b"><path d="m182.9 407.1h2v9.7h-2z"/><path d="m189.6 407.1h2v9.7h-2z"/><path d="m182.9 392.2h2v9.7h-2z"/><path d="m189.6 392.2h2v9.7h-2z"/><path d="m186.3 383.2h2v8.9h-2z" transform="matrix(0 -1 1 0 -200.4305 574.9755)"/><path d="m186.2 417.3h2v8.9h-2z" transform="matrix(0 -1 1 0 -234.5302 609.0419)"/></g></g><g><path d="m181.9 430.3h10.7v37.7h-10.7z" fill="#bbbdbf"/><g fill="#fad03b"><path d="m182.9 451.7h2v9.7h-2z"/><path d="m189.6 451.7h2v9.7h-2z"/><path d="m182.9 436.7h2v9.7h-2z"/><path d="m189.6 436.7h2v9.7h-2z"/><path d="m186.3 427.8h2v8.9h-2z" transform="matrix(0 -1 1 0 -244.9609 619.5059)"/><path d="m186.2 461.8h2v8.9h-2z" transform="matrix(0 -1 1 0 -279.0606 653.5723)"/></g></g><g><path d="m181.9-31.6h10.7v37.7h-10.7z" fill="#bbbdbf"/><path d="m186.2-.1h2v8.9h-2z" fill="#fad03b" transform="matrix(0 -1 1 0 182.858 191.6537)"/></g><g><path d="m181.9 12.9h10.7v37.7h-10.7z" fill="#bbbdbf"/><g fill="#fad03b"><path d="m182.9 34.3h2v9.7h-2z"/><path d="m189.6 34.3h2v9.7h-2z"/><path d="m182.9 19.3h2v9.7h-2z"/><path d="m189.6 19.3h2v9.7h-2z"/><path d="m186.3 10.4h2v8.9h-2z" transform="matrix(0 -1 1 0 172.4273 202.1177)"/><path d="m186.2 44.5h2v8.9h-2z" transform="matrix(0 -1 1 0 138.3276 236.1841)"/></g></g><g><path d="m181.9 57.4h10.7v37.7h-10.7z" fill="#bbbdbf"/><g fill="#fad03b"><path d="m182.9 78.8h2v9.7h-2z"/><path d="m189.6 78.8h2v9.7h-2z"/><path d="m182.9 63.9h2v9.7h-2z"/><path d="m189.6 63.9h2v9.7h-2z"/><path d="m186.3 54.9h2v8.9h-2z" transform="matrix(0 -1 1 0 127.8969 246.6481)"/><path d="m186.2 89h2v8.9h-2z" transform="matrix(0 -1 1 0 93.7972 280.7145)"/></g></g><g><path d="m511.6 267.8v29.2s-20.2 0-31.3 0v-3.6s.4-9.3 8.5-17.5c7.7-7.8 21-8.2 21-8.2h1.8z" fill="#b2b4b6"/><g fill="#fff"><path d="m500.9 286.6c-.5.4-.6 1.1-.2 1.6s1.1.6 1.6.2.6-1.1.2-1.6c-.5-.5-1.2-.6-1.6-.2zm0 0"/><path d="m495.6 282.7c-.4-1-.1-2.2.7-2.8 1.1-.8 2.6-.7 3.4.4.6.8.7 1.8.3 2.7l.6.8c.8-1.2.8-2.9-.1-4.1-1.2-1.5-3.3-1.7-4.8-.5-1.1.9-1.5 2.2-1.2 3.5l.8.4c.1-.2.2-.3.3-.4zm0 0"/><path d="m492.3 283.7 3 1.4c.2.1.5.1.7-.1l1.5-1.2.3.3-1.3 1c-.1.1-.2.3-.2.4s0 .2.1.3c.2.2.5.2.7.1l1.3-1 .9 1.1c.3.3.8.6 1.4.2.4-.3.5-.9.2-1.4l-2-2.5c-.3-.4-1-.5-1.4-.2l-1.9 1.5-2.6-1.2c-.2-.1-.5-.1-.7.1-.1.1-.1.1-.2.2-.3.5-.1.9.2 1zm0 0"/></g></g><g><path d="m63 267.8v29.2h31.3v-3.6s-.4-9.3-8.5-17.5c-7.7-7.8-21-8.2-21-8.2h-1.8z" fill="#b2b4b6"/><g fill="#fff"><path d="m75.7 286.3c-.3-.5-1-.7-1.5-.4s-.7 1-.4 1.5 1 .7 1.5.4.7-1 .4-1.5zm0 0"/><path d="m80.3 281.7c1-.3 2.1.2 2.7 1.2.7 1.2.3 2.7-.9 3.3-.9.5-1.9.4-2.7-.2l-.9.5c1.1 1 2.7 1.2 4 .5 1.6-.9 2.2-3 1.3-4.7-.7-1.2-2-1.8-3.3-1.7l-.5.7c.1.2.2.3.3.4zm0 0"/><path d="m79.8 278.3-1.8 2.7c-.1.2-.1.5 0 .7l.9 1.6-.4.2-.8-1.4c-.1-.1-.2-.2-.4-.2-.1 0-.2 0-.3.1-.2.1-.3.4-.2.7l.8 1.4-1.3.7c-.3.2-.7.7-.4 1.3.3.5.9.6 1.3.4l2.8-1.6c.5-.3.6-.9.4-1.4l-1.2-2.1 1.6-2.4c.1-.2.1-.5 0-.7 0-.1-.1-.2-.2-.2-.2-.2-.6-.1-.8.2zm0 0"/></g></g><g><path d="m63 164.4v-29.3h31.3v3.6s-.4 9.3-8.5 17.5c-7.7 7.8-21 8.2-21 8.2z" fill="#b2b4b6"/><g fill="#fff"><path d="m73.7 145.6c.5-.4.6-1.1.2-1.6s-1.1-.6-1.6-.2-.6 1.1-.2 1.6c.5.5 1.2.6 1.6.2zm0 0"/><path d="m79 149.4c.4 1 .1 2.2-.7 2.8-1.1.8-2.6.7-3.4-.4-.6-.8-.7-1.8-.3-2.7l-.6-.8c-.8 1.2-.8 2.9.1 4.1 1.2 1.5 3.3 1.7 4.8.5 1.1-.9 1.5-2.2 1.2-3.5l-.8-.4c-.1.3-.2.4-.3.4zm0 0"/><path d="m82.3 148.5-3-1.4c-.2-.1-.5-.1-.7.1l-1.5 1.2-.3-.3 1.3-1c .1-.1.2-.3.2-.4s0-.2-.1-.3c-.2-.2-.5-.2-.7-.1l-1.3 1-.9-1.1c-.3-.3-.8-.6-1.4-.2-.4.3-.5.9-.2 1.4l2 2.5c.3.4 1 .5 1.4.2l1.9-1.5 2.6 1.2c.2.1.5.1.7-.1l.2-.2c.3-.5.1-.9-.2-1zm0 0"/></g></g><g><path d="m511.6 164.4v-29.3s-20.2 0-31.3 0v3.6s.4 9.3 8.5 17.5c7.7 7.8 21 8.2 21 8.2z" fill="#b2b4b6"/><g fill="#fff"><path d="m498.9 145.9c.3.5 1 .7 1.5.4s.7-1 .4-1.5-1-.7-1.5-.4-.7.9-.4 1.5zm0 0"/><path d="m494.3 150.5c-1 .3-2.1-.2-2.7-1.2-.7-1.2-.3-2.7.9-3.3.9-.5 1.9-.4 2.7.2l.9-.5c-1.1-1-2.7-1.2-4-.5-1.6.9-2.2 3-1.3 4.7.7 1.2 2 1.8 3.3 1.7l.5-.7c-.2-.2-.2-.3-.3-.4zm0 0"/><path d="m494.8 153.9 1.8-2.7c.1-.2.1-.5 0-.7l-.9-1.6.4-.2.8 1.4c.1.1.2.2.4.2.1 0 .2 0 .3-.1.2-.1.3-.4.2-.7l-.8-1.4 1.3-.7c.3-.2.7-.7.4-1.3-.3-.5-.9-.6-1.3-.4l-2.8 1.6c-.5.3-.6.9-.4 1.4l1.2 2.1-1.6 2.4c-.1.2-.1.5 0 .7 0 .1.1.2.2.2.2.2.6.1.8-.2zm0 0"/></g></g><g><path d="m69.2 301.4v-1.7c0-.6.5-1 1-1h4.7c.6 0 1 .5 1 1v1.7c0 .6-.5 1-1 1h-4.7c-.6 0-1-.4-1-1z" fill="url(#bK)"/><path d="m69.2 308.6v-1.7c0-.6.5-1 1-1h4.7c.6 0 1 .5 1 1v1.7c0 .6-.5 1-1 1h-4.7c-.6 0-1-.4-1-1z" fill="url(#bL)"/><path d="m58.8 309.3v-3.1c0-1 .8-1.8 1.8-1.8h10c1 0 1.8.8 1.8 1.8v3.1c0 1-.8 1.8-1.8 1.8h-10c-.9 0-1.8-.8-1.8-1.8z" fill="url(#bM)"/><path d="m58.8 302.3v-3.1c0-1 .8-1.8 1.8-1.8h10c1 0 1.8.8 1.8 1.8v3.1c0 1-.8 1.8-1.8 1.8h-10c-.9.1-1.8-.8-1.8-1.8z" fill="url(#bN)"/><path d="m58.8 294.5.2-.5c0-1.4 3-2.8 3-2.8h2.6c1.4 0 2.5 1.5 2.5 2.9 0 1.4-1.1 2.9-2.5 2.9h-5.8s0-1.2 0-2.5z" fill="url(#bO)"/><path d="m58.8 313.5.3.5c0 1.4 3 2.8 3 2.8h2.6c1.4 0 2.5-1.5 2.5-2.9 0-1.4-1.1-2.9-2.5-2.9h-5.8c-.1-.1-.1 1.1-.1 2.5z" fill="url(#bP)"/><path d="m58.8 314.7v-21.5c0-1.1.9-2 2-2h3.2c1.1 0 2 .9 2 2v21.5c0 1.1-.9 2-2 2h-3.3c-1.1 0-1.9-.9-1.9-2z" fill="#d82638"/><path d="m64.9 311.1c-5.4 0-9.9-1.5-9.9-7 0-5.4 4.4-7.2 9.9-7.2 2.5 0 4.1.9 5.3 2.3 1 1.2 1.8 1.7 2.3 3.5.2.7 2.3.5 2.3 1.3s-1.8.7-2 1.3c-.4 1.5-1.3 2.5-2.2 3.5-1.3 1.8-2.9 2.3-5.7 2.3z" fill="url(#bQ)"/><path d="m65.2 297s-.9 1.3-2 1.1-.9-1-1.1-1-7.2.2-7.1 7.2c.1 6.7 7.8 6.6 7.8 6.6s0-1.5 1.3-1.3 1.5 1.4 1.5 1.4l.9-.1.7-.1s-.9-1.5-1.6-1.9c-.5-.3-.4-.7-.4-.7s4 .1 3.9-4c-.2-4.6-3.9-4.2-3.9-4.2s-.5-.5.2-.9c.6-.3 1.8-2 1.8-2s-.5-.2-1-.2c-.5.1-1 .1-1 .1z" fill="url(#bR)"/></g><g><g><path d="m95.7-1.6h84.7v101.2h-84.7z" fill="#3b824a" stroke="#fff" stroke-miterlimit="10" stroke-width="3"/></g><path d="m124.4 54.1c1.5 0 2.9-.5 4-1.3l2.5 3.3-.2 1.2-2.2 1c-.3.1-.4.4-.3.7s.3.5.6.5l5.4-.2c.3 0 .5-.3.5-.6s-.1-.6-.4-.7l-2.4-.7c.1-.3.1-.5.1-.7l10.6.1-.8 2.3v.2c0 .2.1.4.2.5.2.2.4.6.4.7s0 .1-.2.1-2.8 0-2.8 0c-.3 0-.6.3-.6.6 0 .4.3.6.6.6h2.9.2c.7-.3.9-.8 1-1.1 0-.1 0-.2 0-.2 0-.5-.3-1-.5-1.3.1-.3.7-2.1 1.3-3.8l.2-.7c.2-.6.4-1.1.5-1.5 1.1.8 2.4 1.2 3.8 1.2 4 0 7.3-3.6 7.3-8.1s-3.3-8.1-7.3-8.1-7.3 3.6-7.3 8.1c0 2.5 1 4.7 2.5 6.1l-.3.9-8.2-9.1s-.1 0-.1-.1l-.4-1.4c.3 0 .5-.3.5-.6 0-.4-.3-.6-.6-.6h-1.6c-.3 0-.6.3-.6.6 0 .4.3.6.6.6h.4l.4 1.5-2.7.4c-.7-3.7-3.6-6.4-7.1-6.4-4 0-7.3 3.6-7.3 8.1.1 4.2 3.4 7.9 7.4 7.9zm18.3-8.1c0-3.8 2.8-6.8 6.1-6.8 3.4 0 6.1 3.1 6.1 6.8 0 3.8-2.7 6.8-6.1 6.8-1.2 0-2.4-.4-3.4-1.1.9-2.8 3.7-5.1 3.7-5.2.2-.1.2-.3.2-.5 0-.1 0-.3-.1-.4-.2-.3-.5-.3-.8-.1-.1.1-2.9 2.4-4 5.3-1-1.2-1.7-2.9-1.7-4.8zm-7.7.7.1.5h-.1c-.1 0-.2 0-.2.1.1-.2.1-.4.2-.6zm.1 1.8h1.4c.3 0 .6-.3.6-.6 0-.4-.3-.6-.6-.6h-.1l-.2-.9 7.2 8c-.1.3-.2.6-.3.9-.6 0-8.5-.1-10.7-.1.5-1.4 1.5-4.6 2.2-7.1 0 .2.2.4.5.4zm-.8-3.4-3 9.4c-.5-.6-1.2-1.6-2-2.6 1.5-1.5 2.4-3.6 2.4-6 0-.1 0-.3 0-.4 1-.1 2-.3 2.6-.4zm-3.8.9c0 2-.8 3.7-2 5-1.4-1.8-2.8-3.7-3.3-4.4.8-.1 3.1-.5 5.3-.9zm-6.1-6.9c2.9 0 5.4 2.3 6 5.3l-6.3 1c-.2 0-.4.2-.5.4s0 .5.1.6l4 5.2c-.9.7-2.1 1.1-3.3 1.1-3.4 0-6.1-3.1-6.1-6.8s2.7-6.8 6.1-6.8z" fill="#fff"/></g><g><g><path d="m131.9 14.4h1.2c.5 0 .9.4.9.9v22.3c0 .5-.4.9-.9.9h-1.2c-.5 0-.9-.4-.9-.9v-22.2c0-.5.4-1 .9-1z" fill="url(#bS)"/><path d="m131.8 28h1.4c.6 0 1.1.5 1.1 1.1v16.7c0 .6-.5 1.1-1.1 1.1h-1.4c-.6 0-1.1-.5-1.1-1.1v-16.7c0-.6.5-1.1 1.1-1.1z" fill="url(#bT)"/><path d="m133.8 45.7v-8.7c0-.2.2-.4.4-.4h.4c.2 0 .4.2.4.4v8.7c0 .2-.2.4-.4.4h-.4c-.3-.1-.4-.2-.4-.4z" fill="url(#bU)"/><path d="m130.1 45.7v-8.7c0-.2.2-.4.4-.4h.4c.2 0 .4.2.4.4v8.7c0 .2-.2.4-.4.4h-.4c-.3-.1-.4-.2-.4-.4z" fill="url(#bV)"/><path d="m131.9 70h1.2c.5 0 .9.4.9.9v22.3c0 .5-.4.9-.9.9h-1.2c-.5 0-.9-.4-.9-.9v-22.3c0-.5.4-.9.9-.9z" fill="url(#bW)"/><path d="m134 71.4h.4c.1 0 .2.1.2.2v5.1c0 .1-.1.2-.2.2h-.4c-.3 0-.5-.2-.5-.5v-4.5c0-.3.2-.5.5-.5z" fill="url(#bX)"/><path d="m131.1 71.4h-.4c-.1 0-.2.1-.2.2v5.1c0 .1.1.2.2.2h.4c.3 0 .5-.2.5-.5v-4.5c-.1-.3-.3-.5-.5-.5z" fill="url(#bY)"/><path d="m131 48.7h3v20.8h-3z" fill="url(#bZ)"/><path d="m127.6 43.1h2.5c1.1 0 2 .9 2 2v16.9c0 1.1-.9 2-2 2h-2.5c-1.1 0-2-.9-2-2v-16.9c0-1.1.9-2 2-2z" fill="url(#b1)"/><path d="m135.1 43.1h2.5c1.1 0 2 .9 2 2v18.8c0 1.1-.9 2-2 2h-2.5c-1.1 0-2-.9-2-2v-18.8c-.1-1.1.9-2 2-2z" fill="url(#b2)"/><path d="m120.9 43.1h24.6v7.3h-24.6z" fill="url(#b3)"/><path d="m126.3 49c0-5.3 1.5-9.5 6.7-9.5s7 4.3 7 9.5c0 2.5-.9 3.9-2.3 5.1-1.2 1-1.7 1.8-3.4 2.2-.7.2-.5 2.2-1.3 2.2-.7 0-.6-1.8-1.2-1.9-1.5-.4-2.4-1.3-3.4-2.1-1.6-1.2-2.1-2.7-2.1-5.5z" fill="url(#b4)"/><circle cx="119.5" cy="69.4" fill="url(#b5)" r="3.1"/><circle cx="146.3" cy="69.4" fill="url(#b6)" r="3.1"/><path d="m120.3 43.1c1.4.1 3.5-.9 3.5 2.5 0 5.5-2.2 5.8-2.1 9.6 0 2.3.3 10.9.3 10.9 0 1.3-1.2 1.2-2.6 1.2-1.3-.1-2.4 0-2.4-1.3l.7-20.5c0-1.4 1.2-2.4 2.6-2.4z" fill="url(#b7)"/><path d="m145.2 43.1c-1.4.1-3.5-.9-3.5 2.5 0 5.5 2.2 5.8 2.1 9.6 0 2.3-.3 10.9-.3 10.9 0 1.3 1.2 1.2 2.6 1.2 1.3-.1 2.4 0 2.4-1.3l-.7-20.5c0-1.4-1.2-2.4-2.6-2.4z" fill="url(#b8)"/><path d="m120.1 70.8c0 .6.4 1.2.8 1.2h23.3c.5 0 .9-.5.9-1.2s-.4-1.2-.9-1.2h-23.3c-.4 0-.8.5-.8 1.2z" fill="url(#b9)"/><path d="m140.9 68.3s-5-1-4.7 3.6h4.8z" fill="url(#ca)"/><path d="m123.9 68.3s5-1 4.7 3.6h-4.8z" fill="url(#cb)"/><ellipse cx="132.5" cy="70.6" fill="url(#cc)" rx="2.7" ry="3.1"/><path d="m126.9 74.9h11.3c.2 0 .4.2.4.4v.4c0 .2-.2.4-.4.4h-11.3c-.2 0-.4-.2-.4-.4v-.4c0-.3.2-.4.4-.4z" fill="url(#cd)"/><path d="m140 49.3s-1.2-.8-1.1-2 1-.9.9-1.1-.2-6.9-7-6.8c-6.5.1-6.4 7.5-6.4 7.5s1.4 0 1.2 1.3c-.2 1.2-1.3 1.4-1.3 1.4l.1.9.1.7s1.5-.9 1.8-1.5c.3-.5.7-.4.7-.4s-.1 3.9 3.9 3.7c4.5-.2 4.1-3.7 4.1-3.7s.5-.5.8.2c.3.6 1.9 1.7 1.9 1.7s.1-.5.2-.9c.1-.5.1-1 .1-1z" fill="url(#ce)"/></g><g><g><g><path d="m156.8 63.4c-5.9 0-10.8-4.8-10.8-10.8 0-5.9 4.8-10.8 10.8-10.8 5.9 0 10.8 4.8 10.8 10.8s-4.8 10.8-10.8 10.8z" fill="url(#cf)"/><path d="m156.8 63.8c-6.2 0-11.2-5-11.2-11.2s5-11.2 11.2-11.2 11.2 5 11.2 11.2-5 11.2-11.2 11.2zm0-21.5c-5.7 0-10.4 4.7-10.4 10.4s4.7 10.3 10.4 10.3 10.4-4.7 10.4-10.4-4.6-10.3-10.4-10.3z" fill="#fff"/></g><path d="m155.2 57.6-4.8-4.9 1.9-1.8 2.9 3 6.2-6.3 1.9 1.9z" fill="#fff"/></g><path d="m149.2 45.1 15.2 15.2c-4.2 4.2-11 4.2-15.2 0-4.1-4.2-4.2-11 0-15.2z" fill="#d8d8d8"/></g></g></g></svg>