<svg enable-background="new 0 0 216.9 223" viewBox="0 0 216.9 223" xmlns="http://www.w3.org/2000/svg" xmlns:xlink="http://www.w3.org/1999/xlink"><path d="m108.1 58.8 108.8-16.2-11 26.8-97.8 16.1z" fill="#006ea0" opacity=".3"/><path d="m108.1 58.8 108.8-16.2-11 26.8-97.8 16.1z" fill="#7dac41" opacity=".5"/><path d="m108.1 58.8 108.8-16.2-11 26.8-97.8 16.1z" fill="#7dac41" opacity=".5"/><path d="m108.1 58.8-108.1-16.2 10.8 26.6 97.3 16.3z" fill="#7dac41" opacity=".5"/><path d="m0 42.6 108.1-16.2 108.8 16.2-108.8 16.2z" fill="#7dc941" opacity=".5"/><path d="m108.1 128.6 81.6-12.2-11.2 27.3-70.4 11.6z" fill="#f2af2d" opacity=".5"/><path d="m108.1 128.6 81.6-12.2-11.2 27.3-70.4 11.6z" fill="#f2af2d" opacity=".5"/><path d="m108.1 128.6-81.1-12.2 11 27.2 70.1 11.7z" fill="#f2af2d" opacity=".5"/><path d="m27 116.4 81.1-11.1 81.6 11.1-81.6 12.2z" fill="#f2c82d" opacity=".5"/><path d="m108.1 196.2 58.4-8.6-11.3 27.6-47.1 7.8z" fill="#e15b31" opacity=".5"/><path d="m108.1 196.2 58.4-8.6-11.3 27.6-47.1 7.8z" fill="#e15b31" opacity=".5"/><path d="m108.1 196.2-58-8.5 11 26.9 47 8.4z" fill="#e15b31" opacity=".5"/><path d="m50.1 187.7 58.1-5.6 58.3 5.5-58.4 8.6z" fill="#e17d31" opacity=".5"/><clipPath id="a"><path d="m146.9 115h-77.2c-1.7 0-3.1-1.4-3.1-3.1v-2.8l7-16.1c.8-1.9 2.7-3.2 4.9-3.2h71.1v22.4c0 1.6-1.2 2.8-2.7 2.8z"/></clipPath><linearGradient id="b" gradientUnits="userSpaceOnUse" x1="66.6463" x2="149.5676" y1="102.3138" y2="102.3138"><stop offset="0" stop-color="#62b946"/><stop offset="1" stop-color="#629050"/></linearGradient><linearGradient id="c"><stop offset="0" stop-color="#424242" stop-opacity="0"/><stop offset="1" stop-color="#747474"/></linearGradient><linearGradient id="d" gradientUnits="userSpaceOnUse" x1="66.6463" x2="149.5655" xlink:href="#c" y1="109.9944" y2="109.9944"/><linearGradient id="e" gradientUnits="userSpaceOnUse" x1="57.1743" x2="99.7443" xlink:href="#c" y1="105.435" y2="105.435"/><linearGradient id="f"><stop offset="0" stop-color="#fab11f"/><stop offset="1" stop-color="#ffc55d"/></linearGradient><linearGradient id="g" gradientUnits="userSpaceOnUse" x1="66.6463" x2="69.4893" xlink:href="#f" y1="110.8333" y2="110.8333"/><clipPath id="h"><path d="m67.2 105.2 5.6-13.3h3.6l-4.2 10c-.8 2-2.8 3.3-5 3.3z"/></clipPath><linearGradient id="i"><stop offset="0" stop-color="#d6d6d5"/><stop offset="1" stop-color="#d6d6d5" stop-opacity="0"/></linearGradient><linearGradient id="j" gradientUnits="userSpaceOnUse" x1="69.2796" x2="76.7882" xlink:href="#i" y1="98.1491" y2="98.1491"/><clipPath id="k"><path d="m84.6 102.6h-9.6l3.7-9.2c.2-.4.6-.7 1-.7h3.8c.6 0 1.1.5 1.1 1.1zm12.3 0v-5.2c0-2.6-2.1-4.6-4.6-4.6-2.6 0-4.6 2.1-4.6 4.6v5.2zm12.3 0v-5.2c0-2.6-2.1-4.6-4.6-4.6-2.6 0-4.6 2.1-4.6 4.6v5.2zm12.4 0v-5.2c0-2.6-2.1-4.6-4.6-4.6-2.6 0-4.6 2.1-4.6 4.6v5.2z"/></clipPath><linearGradient id="l" gradientUnits="userSpaceOnUse" x1="79.27" x2="85.0103" xlink:href="#i" y1="95.4438" y2="95.4438"/><linearGradient id="m" gradientUnits="userSpaceOnUse" x1="91.3796" x2="97.1199" xlink:href="#i" y1="95.4438" y2="95.4438"/><linearGradient id="n" gradientUnits="userSpaceOnUse" x1="104.1354" x2="109.6074" xlink:href="#i" y1="95.4438" y2="95.4438"/><linearGradient id="o" gradientUnits="userSpaceOnUse" x1="116.6705" x2="122.1425" xlink:href="#i" y1="95.4438" y2="95.4438"/><clipPath id="p"><path d="m134.1 102.6v-5.2c0-2.6-2.1-4.6-4.6-4.6-2.6 0-4.6 2.1-4.6 4.6v5.2zm12.3 0v-5.2c0-2.6-2.1-4.6-4.6-4.6-2.6 0-4.6 2.1-4.6 4.6v5.2z"/></clipPath><linearGradient id="q" gradientUnits="userSpaceOnUse" x1="116.4121" x2="122.1524" xlink:href="#i" y1="95.4438" y2="95.4438"/><linearGradient id="r" gradientUnits="userSpaceOnUse" x1="128.5217" x2="134.262" xlink:href="#i" y1="95.4438" y2="95.4438"/><linearGradient id="s" gradientUnits="userSpaceOnUse" x1="141.2775" x2="146.7495" xlink:href="#i" y1="95.4438" y2="95.4438"/><linearGradient id="t" gradientUnits="userSpaceOnUse" x1="73.4076" x2="88.9408" xlink:href="#c" y1="111.2368" y2="111.2368"/><linearGradient id="u" gradientUnits="userSpaceOnUse" x1="125.4165" x2="140.9498" xlink:href="#c" y1="111.2368" y2="111.2368"/><clipPath id="v"><path d="m86.7 113.7c.9 4.2-2.7 7.8-6.9 6.9-2.1-.5-3.8-2.2-4.3-4.3-.9-4.2 2.7-7.8 6.9-6.9 2.2.5 3.9 2.2 4.3 4.3z"/></clipPath><linearGradient id="w"><stop offset="0" stop-color="#151b26"/><stop offset="1" stop-color="#333e57"/></linearGradient><linearGradient id="x" gradientUnits="userSpaceOnUse" x1="75.4539" x2="86.8945" xlink:href="#w" y1="115.0129" y2="115.0129"/><linearGradient id="y" gradientUnits="userSpaceOnUse" x1="72.3168" x2="85.2512" xlink:href="#c" y1="117.4031" y2="117.4031"/><clipPath id="z"><path d="m138.8 113.7c.9 4.2-2.7 7.8-6.9 6.9-2.1-.5-3.8-2.2-4.3-4.3-.9-4.2 2.7-7.8 6.9-6.9 2.1.5 3.8 2.2 4.3 4.3z"/></clipPath><linearGradient id="A" gradientUnits="userSpaceOnUse" x1="127.4629" x2="138.9034" xlink:href="#w" y1="115.0129" y2="115.0129"/><linearGradient id="B" gradientUnits="userSpaceOnUse" x1="124.3258" x2="137.2601" xlink:href="#c" y1="117.4031" y2="117.4031"/><clipPath id="C"><path d="m129.7 174.6s-5.2-7.4-6.6-9.1-3.1-1.7-3.1-1.7h-9.3-9.3c-1.4 0-2.7.7-3.6 1.8l-6.5 8.9h-5c-1.8 0-3.2 1.4-3.2 3.2v6.8h50.7v-7.6c0-1.2-2.8-2.3-4.1-2.3z"/></clipPath><linearGradient id="D" gradientUnits="userSpaceOnUse" x1="83.0519" x2="133.8012" y1="174.1011" y2="174.1011"><stop offset="0" stop-color="#794c9c"/><stop offset="1" stop-color="#673e84"/></linearGradient><linearGradient id="E" gradientUnits="userSpaceOnUse" x1="83.0519" x2="133.8012" xlink:href="#c" y1="182.4029" y2="182.4029"/><linearGradient id="F" gradientUnits="userSpaceOnUse" x1="81.6398" x2="114.0516" xlink:href="#c" y1="176.5153" y2="176.5153"/><clipPath id="G"><path d="m108.1 167v5.9c0 .9-.7 1.6-1.6 1.6h-10.1c-1.1 0-1.8-1.3-1.1-2.2l3.7-5.3c.8-1.1 2-1.7 3.3-1.7h4.2c.9.1 1.6.8 1.6 1.7z"/></clipPath><linearGradient id="H" gradientTransform="matrix(-.7071 .7071 -.7071 -.7071 3580.6072 -53.3911)" gradientUnits="userSpaceOnUse" x1="2617.3298" x2="2594.9021" xlink:href="#i" y1="2306.0269" y2="2283.5991"/><clipPath id="I"><path d="m112.6 167v5.9c0 .9.7 1.6 1.6 1.6h10.1c1.1 0 1.8-1.3 1.1-2.2l-3.7-5.3c-.8-1.1-2-1.7-3.3-1.7h-4.2c-.9.1-1.6.8-1.6 1.7z"/></clipPath><linearGradient id="J" gradientTransform="matrix(.7071 .7071 .7071 -.7071 1272.114 -53.3911)" gradientUnits="userSpaceOnUse" x1="-658.0471" x2="-680.475" xlink:href="#i" y1="-969.3502" y2="-991.778"/><linearGradient id="K"><stop offset="0" stop-color="#ffc55d"/><stop offset="1" stop-color="#fab11f"/></linearGradient><linearGradient id="L" gradientUnits="userSpaceOnUse" x1="131.3396" x2="133.8012" xlink:href="#K" y1="177.6324" y2="177.6324"/><linearGradient id="M" gradientUnits="userSpaceOnUse" x1="85.3603" x2="99.4435" xlink:href="#c" y1="181.1722" y2="181.1722"/><linearGradient id="N" gradientUnits="userSpaceOnUse" x1="115.7275" x2="129.8107" xlink:href="#c" y1="181.1722" y2="181.1722"/><clipPath id="O"><path d="m97.4 181.6c2.9 5.5-2.6 11-8.1 8-.8-.4-1.5-1.1-1.9-1.9-2.9-5.5 2.6-11 8.1-8 .8.4 1.5 1.1 1.9 1.9z"/></clipPath><linearGradient id="P" gradientUnits="userSpaceOnUse" x1="86.6144" x2="98.1894" xlink:href="#w" y1="184.6807" y2="184.6807"/><linearGradient id="Q" gradientUnits="userSpaceOnUse" x1="83.4405" x2="96.5268" xlink:href="#c" y1="187.0906" y2="187.0906"/><clipPath id="R"><path d="m127.7 181.6c2.9 5.5-2.6 11-8.1 8-.8-.4-1.5-1.1-1.9-1.9-2.9-5.5 2.6-11 8.1-8 .9.4 1.5 1.1 1.9 1.9z"/></clipPath><linearGradient id="S" gradientUnits="userSpaceOnUse" x1="116.1933" x2="129.3449" xlink:href="#w" y1="184.6808" y2="184.6808"/><linearGradient id="T" gradientUnits="userSpaceOnUse" x1="113.8076" x2="126.8941" xlink:href="#c" y1="187.0906" y2="187.0906"/><linearGradient id="U" gradientUnits="userSpaceOnUse" x1="84.7332" x2="88.4956" xlink:href="#K" y1="177.6324" y2="177.6324"/><clipPath id="V"><path d="m109.5 11.5c-3.1-.5-2.5 6.2-3.5 7.4-.8.9-3.2 2.5-4.8 3.5-.8.5-1.3.6-1.7.8s.7 1.4.8 1.4c.2 0 .5-.2.5-.2s.1.2.2.2c.2 0 .4-.5.4-.5s4.9-2.1 6.5-3.2c1.4-1.2 4.6-8.9 1.6-9.4z"/></clipPath><linearGradient id="W"><stop offset="0" stop-color="#f8a025"/><stop offset="1" stop-color="#fab758"/></linearGradient><linearGradient id="X" gradientTransform="matrix(.9979 -.0647 .0647 .9979 3900.6292 21.3924)" gradientUnits="userSpaceOnUse" x1="-3794.645" x2="-3781.1733" xlink:href="#W" y1="-248.6202" y2="-248.6202"/><linearGradient id="Y"><stop offset="0" stop-color="#d6d6d5"/><stop offset="1" stop-color="#e3e3e2"/></linearGradient><linearGradient id="Z" gradientTransform="matrix(-.999 .0438 .0438 .999 4981.6631 -18.5214)" gradientUnits="userSpaceOnUse" x1="4866.0254" x2="4873.4111" xlink:href="#Y" y1="-179.7763" y2="-179.7763"/><linearGradient id="aa"><stop offset="0" stop-color="#747474" stop-opacity="0"/><stop offset="1" stop-color="#424242"/></linearGradient><linearGradient id="ab" gradientTransform="matrix(.8136 .0635 -.1093 .9196 4017.948 113.5379)" gradientUnits="userSpaceOnUse" x1="-4773.4053" x2="-4780.8892" xlink:href="#aa" y1="226.7244" y2="227.2414"/><linearGradient id="ac"><stop offset="0" stop-color="#424242"/><stop offset="1" stop-color="#646565"/></linearGradient><linearGradient id="ad" gradientTransform="matrix(-.5414 .2667 .2749 .558 853.1699 1121.8826)" gradientUnits="userSpaceOnUse" x1="311.9579" x2="314.4277" xlink:href="#ac" y1="-2078.0825" y2="-2078.4019"/><linearGradient id="ae" gradientTransform="matrix(-.0005 -.6035 -.3404 .0003 1499.1833 2625.2007)" gradientUnits="userSpaceOnUse" x1="4271.292000000001" x2="4274.4316" xlink:href="#ac" y1="4065.5696" y2="4064.2437"/><linearGradient id="af"><stop offset="0" stop-color="#8d2d37"/><stop offset="1" stop-color="#781a26"/></linearGradient><linearGradient id="ag" gradientTransform="matrix(.9998 -.0209 .0209 .9998 3923.8386 -7.8938)" gradientUnits="userSpaceOnUse" x1="-3811.9954" x2="-3808.7434" xlink:href="#af" y1="-25.9221" y2="-25.9221"/><clipPath id="ah"><path d="m117.5 19-4.8 1.4s-.6 3.9-2.5 9.1c-1.6 4.3 3.9 16.2 3.9 16.2 2.6-1.9 3-6.2 1.7-9.3-1.1-2.7-1.1-3.3-1.4-4.6-.3-1.1 9.8-5.6 3.1-12.8z"/></clipPath><linearGradient id="ai" gradientTransform="matrix(.9529 -.1497 .2959 .6488 3795.6946 310.8534)" gradientUnits="userSpaceOnUse" x1="-3490.4492" x2="-3471.6895" xlink:href="#W" y1="-1224.6995" y2="-1224.6995"/><linearGradient id="aj"><stop offset="0" stop-color="#36415d"/><stop offset="1" stop-color="#4f668b"/></linearGradient><linearGradient id="ak" gradientTransform="matrix(-1 0 0 1 5005.2979 0)" gradientUnits="userSpaceOnUse" x1="4884.1616" x2="4898.0483" xlink:href="#aj" y1="27.5271" y2="27.5271"/><linearGradient id="al"><stop offset="0" stop-color="#747474"/><stop offset=".8917" stop-color="#2b2b2b" stop-opacity="0"/></linearGradient><linearGradient id="am" gradientTransform="matrix(-.9676 -.2526 -.2526 .9676 5135.7017 125.7833)" gradientUnits="userSpaceOnUse" x1="4877.4175" x2="4889.2046" xlink:href="#al" y1="1173.718" y2="1173.718"/><linearGradient id="an"><stop offset="0" stop-color="#424242"/><stop offset="1" stop-color="#747474" stop-opacity="0"/></linearGradient><linearGradient id="ao" gradientTransform="matrix(.9488 -.5513 .5689 .8398 3636.7344 370.3738)" gradientUnits="userSpaceOnUse" x1="-2494.1658" x2="-2483.0618" xlink:href="#an" y1="-2035.5817" y2="-2035.5817"/><clipPath id="ap"><path d="m94.2 18.5.7.7-.4-1.7.6.1.4 1.4.3-.9.7.4-.7 1.3c1.9 0 3.8 2.1 3.7 5.5-.2 3.5-.1 3.9-1 4.3-.8.4-2.7.4-3.2-.5-.9-1.5.4-4.9-.1-5.6-.4-.7-.8-.8-.8-1.9s.9-1.7.9-1.7l-1.4-.8z"/></clipPath><linearGradient id="aq" gradientTransform="matrix(-1 0 0 1 5005.2979 0)" gradientUnits="userSpaceOnUse" x1="4905.229" x2="4911.8232" xlink:href="#f" y1="23.4034" y2="23.4034"/><linearGradient id="ar" gradientTransform="matrix(-1 0 0 1 5005.2979 0)" gradientUnits="userSpaceOnUse" x1="4903.9658" x2="4910.9331" xlink:href="#aa" y1="24.8627" y2="24.8627"/><clipPath id="as"><path d="m95.3 24.1v4.5c0 .5.4.8.8.8h2.9v.9h-3.2c-.8 0-1.5-.7-1.5-1.5v-5.7c.6.1 1 .5 1 1z"/></clipPath><linearGradient id="at"><stop offset="0" stop-color="#424242"/><stop offset="1" stop-color="#747474"/></linearGradient><linearGradient id="au" gradientTransform="matrix(-1 -.0015 -.0015 1 6629.3765 -858.6156)" gradientUnits="userSpaceOnUse" x1="6528.8037" x2="6534.1641" xlink:href="#at" y1="895.4595" y2="895.4595"/><linearGradient id="av"><stop offset="0" stop-color="#747474"/><stop offset="1" stop-color="#424242" stop-opacity="0"/></linearGradient><linearGradient id="aw" gradientTransform="matrix(-1 -.0015 -.0015 1 6629.3765 -858.6156)" gradientUnits="userSpaceOnUse" x1="6531.356" x2="6531.356" xlink:href="#av" y1="899.8918" y2="893.8787"/><clipPath id="ax"><path d="m122.7 51.8c4.8 0 8.6-3.8 8.6-8.6s-3.8-8.6-8.6-8.6-8.6 3.8-8.6 8.6 3.8 8.6 8.6 8.6zm0-2.7c-3.2 0-5.9-2.6-5.9-5.9 0-3.2 2.6-5.9 5.9-5.9 3.2 0 5.9 2.6 5.9 5.9s-2.6 5.9-5.9 5.9z"/></clipPath><linearGradient id="ay" gradientTransform="matrix(1 .0015 .0015 -1 7282.7793 6567.8262)" gradientUnits="userSpaceOnUse" x1="-7169.8354" x2="-7169.8354" y1="6523.5376" y2="6504.2002"><stop offset="0" stop-color="#646565"/><stop offset="1" stop-color="#424242"/></linearGradient><linearGradient id="az" gradientTransform="matrix(-1 -.0015 -.0015 1 6629.3765 -858.6156)" gradientUnits="userSpaceOnUse" x1="6509.5117" x2="6509.5117" xlink:href="#av" y1="916.8815" y2="893.6656"/><clipPath id="aA"><path d="m93.9 34.6c-4.8 0-8.6 3.8-8.6 8.6s3.8 8.6 8.6 8.6 8.6-3.8 8.6-8.6-3.9-8.6-8.6-8.6zm0 2.7c3.2 0 5.9 2.6 5.9 5.9 0 3.2-2.6 5.9-5.9 5.9-3.2 0-5.9-2.6-5.9-5.9s2.6-5.9 5.9-5.9z"/></clipPath><linearGradient id="aB" gradientTransform="matrix(-1 -.0015 -.0015 1 6629.3765 -858.6156)" gradientUnits="userSpaceOnUse" x1="6533.9668" x2="6533.9668" xlink:href="#ac" y1="920.2192" y2="902.9357"/><linearGradient id="aC" gradientTransform="matrix(-1 -.0015 -.0015 1 6629.3765 -858.6156)" gradientUnits="userSpaceOnUse" x1="6527.9648" x2="6527.9648" xlink:href="#av" y1="929.083" y2="905.8672"/><clipPath id="aD"><path d="m130.1 36.9-2.3 1.7h-5.9c-1.4 0-2.6.7-3.4 1.8h-5s1.3-7.1 8.2-7.1c5.7.1 8.4 3.6 8.4 3.6z"/></clipPath><linearGradient id="aE"><stop offset="0" stop-color="#ed4051"/><stop offset="1" stop-color="#d62538"/></linearGradient><linearGradient id="aF" gradientTransform="matrix(-1 -.0015 -.0015 1 6629.3765 -858.6156)" gradientUnits="userSpaceOnUse" x1="6497.5713" x2="6514.3999" xlink:href="#aE" y1="905.511" y2="905.511"/><linearGradient id="aG" gradientTransform="matrix(-1 -.0015 -.0015 1 6629.3765 -858.6156)" gradientUnits="userSpaceOnUse" x1="6495.4937" x2="6510.5483" xlink:href="#av" y1="908.1901" y2="908.1901"/><clipPath id="aH"><path d="m99.1 28.2.9.2c0-2.7 3-2.7 3-4.6 0 0-1.4 0-2.9 0-1.5.1-1 4.4-1 4.4z"/></clipPath><linearGradient id="aI" gradientTransform="matrix(-1 -.0015 -.0015 1 6629.3765 -858.6156)" gradientUnits="userSpaceOnUse" x1="6524.585" x2="6529.4038" xlink:href="#at" y1="896.3089" y2="891.4901"/><linearGradient id="aJ"><stop offset=".0857183" stop-color="#747474" stop-opacity="0"/><stop offset="1" stop-color="#434444"/></linearGradient><linearGradient id="aK" gradientTransform="matrix(-1 -.0015 -.0015 1 6629.3765 -858.6156)" gradientUnits="userSpaceOnUse" x1="6523.0039" x2="6528.5718" xlink:href="#aJ" y1="895.3185" y2="895.3185"/><clipPath id="aL"><path d="m101 28.4c-.1.2-.3.3-.5.3l-.6-.2-1.3 3.8.7.3v.1c-.1.4-.5.6-.9.6l-4 10.1c-.2.5-.8.8-1.3.5l3.8-11.5c.1-.3.5-.5.8-.4l1.3-3.8-.4-.1c-.2-.1-.3-.3-.3-.5.1-.2.3-.3.5-.3l1.9.6c.3 0 .4.3.3.5z"/></clipPath><linearGradient id="aM" gradientTransform="matrix(-1 -.0015 -.0015 1 6629.3765 -858.6156)" gradientUnits="userSpaceOnUse" x1="6526.5811" x2="6534.8325" xlink:href="#aE" y1="903.9436" y2="903.9436"/><linearGradient id="aN" gradientTransform="matrix(-.2365 -.0764 -.3075 .9515 7493.6763 -650.9808)" gradientUnits="userSpaceOnUse" x1="27461.8711" x2="27471.6738" xlink:href="#av" y1="2926.9785" y2="2926.9785"/><clipPath id="aO"><path d="m106.6 34.2h14.3v.8h-14.3z" transform="matrix(.3431 -.9393 .9393 .3431 42.1428 129.5547)"/></clipPath><linearGradient id="aP" gradientTransform="matrix(-.2709 .3017 -.2758 .945 7678.9751 -638.7463)" gradientUnits="userSpaceOnUse" x1="40288.8594" x2="40300.2383" xlink:href="#aJ" y1="-12155.2178" y2="-12155.2178"/><clipPath id="aQ"><path d="m122.3 41.9.9-1.4-6.2-6.8-3-1.1-3.3 8.9h.9l2.7-7.4 1.5.1z"/></clipPath><linearGradient id="aR" gradientTransform="matrix(-1.006 .0388 .005 1.0454 6605.7979 -1022.5491)" gradientUnits="userSpaceOnUse" x1="6448.2446" x2="6459.6206" xlink:href="#aJ" y1="775.2535" y2="775.2535"/><clipPath id="aS"><path d="m119.2 26.4c.9 1-1.4 2.3-1.4 2.3s-5.4.2-5.1-1.3 2.1-.8 3.2-.8c1.2-.1 2.3-1.3 3.3-.2z"/></clipPath><linearGradient id="aT" gradientTransform="matrix(-1 -.0015 -.0015 1 6629.3765 -858.6156)" gradientUnits="userSpaceOnUse" x1="6507.1328" x2="6515.6538" xlink:href="#at" y1="895.6982" y2="895.6982"/><linearGradient id="aU" gradientTransform="matrix(-1 -.0015 -.0015 1 6629.3765 -858.6156)" gradientUnits="userSpaceOnUse" x1="6509.3071" x2="6509.3071" xlink:href="#av" y1="900.1324" y2="894.9233"/><clipPath id="aV"><path d="m99.4 32.6 4.5 8.5c.9 1.6 2.5 2.7 4.4 2.7 0 1.1.8 2.7 2.7 2.7 1.8 0 3.1-1 3.1-3.2h7.3l1.8-2.8h-.8l-.7.9s-8.1 0-10.9 0c-2.9 0-4.1-.8-5.2-2.6s-5.2-8.9-5.2-8.9v-1.6l-.6-.2-1.5 4.3z"/></clipPath><linearGradient id="aW" gradientTransform="matrix(-1 -.0015 -.0015 1 6629.3765 -858.6156)" gradientUnits="userSpaceOnUse" x1="6504.7544" x2="6530.4214" y1="905.5187" y2="905.5187"><stop offset="0" stop-color="#d7d7d7"/><stop offset="1" stop-color="#e3e3e2"/></linearGradient><linearGradient id="aX" gradientTransform="matrix(-1 -.0015 -.0015 1 6629.3765 -858.6156)" gradientUnits="userSpaceOnUse" x1="6515.6938" x2="6518.0737" xlink:href="#ac" y1="912.3204" y2="912.3204"/><linearGradient id="aY" gradientTransform="matrix(-1 -.0015 -.0015 1 6629.3765 -858.6156)" gradientUnits="userSpaceOnUse" x1="6504.3833" x2="6530.2632" xlink:href="#av" y1="906.3723" y2="906.3723"/><linearGradient id="aZ" gradientTransform="matrix(.5414 -.2667 -.2749 -.558 8330.6455 141.3237)" gradientUnits="userSpaceOnUse" x1="-12146.9766" x2="-12144.7412" xlink:href="#ac" y1="5982.3496" y2="5982.0605"/><linearGradient id="a0" gradientTransform="matrix(.0005 .6035 .3404 -.0003 7684.6313 -1361.9945)" gradientUnits="userSpaceOnUse" x1="2312.0596" x2="2315.1992" xlink:href="#ac" y1="-22256.6602" y2="-22257.9863"/><linearGradient id="a1" gradientTransform="matrix(.9998 -.0209 .0209 .9998 3923.8386 -7.8938)" gradientUnits="userSpaceOnUse" x1="-3815.7532" x2="-3812.3325" xlink:href="#af" y1="-32.7422" y2="-32.7422"/><clipPath id="a2"><path d="m112.7 20.4s-8.4 3.6-8.4 6.7 6 11.6 6 11.6c3.5-6.7-.1-8.8-.1-8.8s.7-1.1 3.3-1.3 10.9-2.7 4-9.6z"/></clipPath><linearGradient id="a3" gradientTransform="matrix(1.0045 -.0147 .0273 1.0082 3915.4995 -17.161)" gradientUnits="userSpaceOnUse" x1="-3794.5837" x2="-3775.3406" xlink:href="#W" y1="-7.5557" y2="-7.5557"/><linearGradient id="a4" gradientTransform="matrix(-1 0 0 1 5005.2979 0)" gradientUnits="userSpaceOnUse" x1="4883.6157" x2="4900.25" xlink:href="#aj" y1="25.3219" y2="25.3219"/><linearGradient id="a5" gradientTransform="matrix(-1 0 0 1 5005.2979 0)" gradientUnits="userSpaceOnUse" x1="4882.3975" x2="4892.9214" xlink:href="#al" y1="25.2995" y2="25.2995"/><linearGradient id="a6" gradientTransform="matrix(.9998 -.0209 .0209 .9998 3923.8386 -7.8938)" gradientUnits="userSpaceOnUse" x1="-3815.9763" x2="-3800.6904" xlink:href="#an" y1="-40.7292" y2="-40.7292"/><clipPath id="a7"><path d="m117.5 19c-2.3-6-2.8-8.4-5.4-8.8-4.1-.7-4.5 3.3-4.2 8 4.1.2 4.8 2.2 4.8 2.2z"/></clipPath><linearGradient id="a8" gradientTransform="matrix(-1.0041 -.0009 .0009 1.0002 5006.1665 .4923)" gradientUnits="userSpaceOnUse" x1="4868.2998" x2="4879.3799" xlink:href="#Y" y1="18.5028" y2="18.5028"/><linearGradient id="a9" gradientTransform="matrix(.9998 -.0209 .0209 .9998 3923.8386 -7.8938)" gradientUnits="userSpaceOnUse" x1="-3815.4294" x2="-3802.4675" xlink:href="#c" y1="-56.2353" y2="-56.2353"/><clipPath id="ba"><path d="m112.9 10.8c-3.4-.7-3.1 6.8-4.3 8-.9 1-3.7 2.6-5.5 3.6-1 .5-1.5.6-1.9.8s.7 1.6.8 1.6c.2 0 .5-.2.5-.2s.1.2.3.2.5-.6.5-.6 5.6-2.1 7.3-3.2 5.7-9.5 2.3-10.2z"/></clipPath><linearGradient id="bb" gradientTransform="matrix(.9998 -.0209 .0209 .9998 3923.8386 -7.8938)" gradientUnits="userSpaceOnUse" x1="-3823.9192" x2="-3808.6165" xlink:href="#W" y1="-54.3054" y2="-54.3054"/><linearGradient id="bc" gradientTransform="matrix(-1 0 0 1 5005.2979 0)" gradientUnits="userSpaceOnUse" x1="4889.3242" x2="4896.6089" xlink:href="#Y" y1="15.0825" y2="15.0825"/><linearGradient id="bd" gradientTransform="matrix(.9998 -.0209 .0209 .9998 3923.8386 -7.8938)" gradientUnits="userSpaceOnUse" x1="-3810.3281" x2="-3818.8508" xlink:href="#aa" y1="-53.6675" y2="-53.8455"/><clipPath id="be"><path d="m111.2 10.5s-1.6 2.9-2.6 2.9c0 0-1.2-3.9-1.6-3.6-.4.2-1.8.8-2.1.6-.3-.3-1.1-2.9-1.2-4.8-.1-1.2 4.3-2.1 4.6.3.4 2.5 2.9 4.6 2.9 4.6z"/></clipPath><linearGradient id="bf" gradientTransform="matrix(1.1051 -.0222 .0239 1.1018 3855.6172 -60.2921)" gradientUnits="userSpaceOnUse" x1="-3395.4636" x2="-3387.895" xlink:href="#W" y1="-5.5829" y2="-5.5829"/><linearGradient id="bg" gradientTransform="matrix(.9998 -.0209 .0209 .9998 3923.8386 -7.8938)" gradientUnits="userSpaceOnUse" x1="-3819.8201" x2="-3811.9385" xlink:href="#an" y1="-62.582" y2="-62.582"/><linearGradient id="bh" gradientTransform="matrix(.9998 -.0209 .0209 .9998 3923.8386 -7.8938)" gradientUnits="userSpaceOnUse" x1="-3818.499" x2="-3812.7683" xlink:href="#an" y1="-60.4965" y2="-60.4965"/><linearGradient id="bi" gradientTransform="matrix(.9998 -.0209 .0209 .9998 3923.8386 -7.8938)" gradientUnits="userSpaceOnUse" x1="-3822.0098" x2="-3822.0098" xlink:href="#at" y1="-46.7618" y2="-48.0765"/><clipPath id="bj"><path d="m110.7 0c3.3 0 2.9 3.6 2.8 4.5-.1 1-.8 2.2-1.6 2.8-.6.5-2.1 1.4-2.9 1.1-.5-.2-.4-1.2-.5-1.7-.2-.7-.4-1.5-1.1-1.8-1.8-.9-2.1 1.5-4 .7-.4-.2.1-2.1.2-2.4.2-.6.7-1.1 1.3-1.3.9-.4 3.2.4 3.2.4s-.6-2.3 2.6-2.3z"/></clipPath><linearGradient id="bk" gradientTransform="matrix(-1 0 0 1 5005.2979 0)" gradientUnits="userSpaceOnUse" x1="4891.417" x2="4902.5015" y1="3.8361" y2="3.8361"><stop offset="0" stop-color="#472463"/><stop offset="1" stop-color="#602a78"/></linearGradient><linearGradient id="bl" gradientTransform="matrix(-.9616 -.2745 -.2745 .9616 5126.7188 139.4954)" gradientUnits="userSpaceOnUse" x1="4857.0161" x2="4867.561" xlink:href="#aa" y1="1247.5349" y2="1247.5349"/><path clip-path="url(#a)" d="m66.6 89.5h82.9v25.6h-82.9z" fill="url(#b)"/><path clip-path="url(#a)" d="m66.6 107.8h82.9v4.3h-82.9z" fill="url(#d)" opacity=".35"/><path clip-path="url(#a)" d="m99.7 116.1c0-11.8-9.5-21.3-21.3-21.3s-21.3 9.5-21.3 21.3z" fill="url(#e)" opacity=".3"/><path clip-path="url(#a)" d="m66.6 112.5v-3.4h2.8v.6c.1 1.6-1.2 2.8-2.8 2.8z" fill="url(#g)"/><g clip-path="url(#a)"><path clip-path="url(#h)" d="m72.8 91.9h4.4l-6.6 18h-4.4z" fill="#d6d6d5"/><path clip-path="url(#h)" d="m69.3 98.1c0 4.1 3.4 7.5 7.5 7.5v-15c-4.2 0-7.5 3.4-7.5 7.5z" fill="url(#j)" opacity=".5"/></g><g clip-path="url(#a)"><path clip-path="url(#k)" d="m121.9 103.3h-47.9l4.7-11.2h43.2z" fill="#d6d6d5"/><path clip-path="url(#k)" d="m79.3 95.4c0 2.4 2.6 4.4 5.7 4.4v-8.8c-3.2.1-5.7 2-5.7 4.4z" fill="url(#l)" opacity=".5"/><path clip-path="url(#k)" d="m91.4 95.4c0 2.4 2.6 4.4 5.7 4.4v-8.8c-3.2.1-5.7 2-5.7 4.4z" fill="url(#m)" opacity=".5"/><path clip-path="url(#k)" d="m104.1 95.4c0 2.4 2.4 4.4 5.5 4.4v-8.8c-3 .1-5.5 2-5.5 4.4z" fill="url(#n)" opacity=".5"/><path clip-path="url(#k)" d="m116.7 95.4c0 2.4 2.4 4.4 5.5 4.4v-8.8c-3.1.1-5.5 2-5.5 4.4z" fill="url(#o)" opacity=".5"/></g><g clip-path="url(#a)"><path clip-path="url(#p)" d="m159 103.3h-47.8l4.6-11.2h43.2z" fill="#d6d6d5"/><path clip-path="url(#p)" d="m116.4 95.4c0 2.4 2.6 4.4 5.7 4.4v-8.8c-3.1.1-5.7 2-5.7 4.4z" fill="url(#q)" opacity=".5"/><path clip-path="url(#p)" d="m128.5 95.4c0 2.4 2.6 4.4 5.7 4.4v-8.8c-3.1.1-5.7 2-5.7 4.4z" fill="url(#r)" opacity=".5"/><path clip-path="url(#p)" d="m141.3 95.4c0 2.4 2.4 4.4 5.5 4.4v-8.8c-3.1.1-5.5 2-5.5 4.4z" fill="url(#s)" opacity=".5"/></g><path d="m88.9 115.1h-15.5c0-4.3 3.5-7.8 7.8-7.8 4.3.1 7.7 3.5 7.7 7.8z" fill="url(#t)" opacity=".35"/><path d="m140.9 115.1h-15.5c0-4.3 3.5-7.8 7.8-7.8 4.3.1 7.7 3.5 7.7 7.8z" fill="url(#u)" opacity=".35"/><path clip-path="url(#v)" d="m75.5 109.3h11.4v11.4h-11.4z" fill="url(#x)"/><path clip-path="url(#v)" d="m85.1 118.9c1-4.7-3.1-8.8-7.8-7.8-2.4.5-4.3 2.4-4.8 4.8-1 4.7 3.1 8.8 7.8 7.8 2.3-.5 4.3-2.4 4.8-4.8z" fill="url(#y)" opacity=".5"/><path d="m84.7 114.3c.5 2.5-1.7 4.7-4.2 4.2-1.4-.3-2.6-1.4-2.8-2.8-.5-2.5 1.7-4.7 4.2-4.2 1.4.2 2.5 1.4 2.8 2.8z" fill="#d6d6d5"/><path clip-path="url(#z)" d="m127.5 109.3h11.4v11.4h-11.4z" fill="url(#A)"/><path clip-path="url(#z)" d="m137.1 118.9c1-4.7-3.1-8.8-7.8-7.8-2.4.5-4.3 2.4-4.8 4.8-1 4.7 3.1 8.8 7.8 7.8 2.4-.5 4.3-2.4 4.8-4.8z" fill="url(#B)" opacity=".5"/><path d="m136.7 114.3c.5 2.5-1.7 4.7-4.2 4.2-1.4-.3-2.6-1.4-2.8-2.8-.5-2.5 1.7-4.7 4.2-4.2 1.4.2 2.6 1.4 2.8 2.8z" fill="#d6d6d5"/><path clip-path="url(#C)" d="m107.5 163.8h13.7v20.8h-13.7z" fill="#d6d6d5"/><path clip-path="url(#C)" d="m83.1 163.5h50.7v21.2h-50.7z" fill="url(#D)"/><path clip-path="url(#C)" d="m83.1 180.1h50.7v4.6h-50.7z" fill="url(#E)" opacity=".25"/><path clip-path="url(#C)" d="m114.1 184.7c0-8.8-7.5-16.4-21.4-16.4-12.7 0-11 16.4-11 16.4z" fill="url(#F)" opacity=".25"/><g clip-path="url(#C)"><path clip-path="url(#G)" d="m92.4 164.4h15.7v11.2h-15.7z" fill="#d6d6d5"/><path clip-path="url(#G)" d="m104.7 173.1c7.3 4.4 19 4.4 26.3 0l-26.3-16.1c-7.2 4.5-7.2 11.7 0 16.1z" fill="url(#H)" opacity=".5"/></g><g clip-path="url(#C)"><path clip-path="url(#I)" d="m112.6 164.4h15.7v11.2h-15.7z" fill="#d6d6d5" transform="matrix(-1 0 0 -1 240.8461 339.9608)"/><path clip-path="url(#I)" d="m115.9 173.1c-7.3 4.4-19 4.4-26.3 0l26.3-16.1c7.3 4.5 7.3 11.7 0 16.1z" fill="url(#J)" opacity=".5"/></g><path clip-path="url(#C)" d="m131.3 176.3h2.5v2.6h-2.5z" fill="url(#L)"/><path clip-path="url(#C)" d="m99.4 184.7h-14c0-3.9 3.2-7 7-7s7 3.1 7 7z" fill="url(#M)" opacity=".25"/><path clip-path="url(#C)" d="m129.8 184.7h-14.1c0-3.9 3.2-7 7-7s7.1 3.1 7.1 7z" fill="url(#N)" opacity=".25"/><path clip-path="url(#O)" d="m86.6 178.9h11.6v11.5h-11.6z" fill="url(#P)"/><ellipse clip-path="url(#O)" cx="90" cy="187.1" fill="url(#Q)" opacity=".5" rx="6.5" ry="6.5"/><path d="m95.6 182.9c1.7 3.4-1.7 6.7-5 5-.6-.3-1.1-.8-1.4-1.4-1.7-3.3 1.7-6.6 5-5 .6.3 1.1.8 1.4 1.4z" fill="#d6d6d5"/><path clip-path="url(#R)" d="m116.2 178.1h13.2v13.1h-13.2z" fill="url(#S)"/><ellipse clip-path="url(#R)" cx="120.4" cy="187.1" fill="url(#T)" opacity=".5" rx="6.5" ry="6.5"/><path d="m126 182.9c1.7 3.3-1.7 6.7-5 5-.6-.3-1.1-.8-1.4-1.4-1.7-3.3 1.7-6.7 5-5 .6.3 1.1.8 1.4 1.4z" fill="#d6d6d5"/><path d="m88.5 178.9h-2.5c-.7 0-1.3-.6-1.3-1.3 0-.7.6-1.3 1.3-1.3h2.5z" fill="url(#U)"/><path clip-path="url(#V)" d="m99.2 25 12.5-.8-1.7-12.5-12.5.9z" fill="url(#X)"/><path clip-path="url(#V)" d="m109.2 19.9 3.3-8.5-5.5-.9-1.7 7z" fill="url(#Z)"/><path clip-path="url(#V)" d="m109.4 17.5c0-.1.1-.2.1-.4.3-.9.4-2.8-1.2-2.5-.6.1-1 .6-1.3 1.2-.2.6-.3 1.2-.3 1.8s-.1 1.2-.3 1.8c-.4 1-1.2 1.2-2 1.7-.7.4-1.3 1.3-1.3 2.1 0 .1 1.7-.5 1.8-.5.5-.2.9-.4 1.5-.6.9-.3 2.5-1.1 2.8-2.1.1-.8 0-1.8.2-2.5z" fill="url(#ab)" opacity=".3"/><path d="m113.2 47.9.6-.3-2.2-3.7c-.1-.1-.2-.2-.3-.1l-.1.1c-.1.1-.2.2-.1.3z" fill="url(#ad)"/><path d="m112.1 47.7c0 .2.1.3.3.3h1.9c.2 0 .3-.1.3-.3 0-.2-.1-.3-.3-.3h-1.9c-.2 0-.3.2-.3.3z" fill="url(#ae)"/><path d="m112.1 47.2c0 .1.1.2.3.2h1.6c.8 0 1.9-2.5 1-3.1-.8-.6-.9 1-.9 1l-1.8 1.6c-.2.1-.2.2-.2.3z" fill="url(#ag)"/><path clip-path="url(#ah)" d="m111.3 47.7 12.8-2-3.1-18.7-14.2 2.8z" fill="url(#ai)"/><g clip-path="url(#ah)"><path d="m121.1 23.7c-.1.2-3.1 7.5-3.1 7.5l-9.9.6-.9-8.6z" fill="url(#ak)"/></g><path clip-path="url(#ah)" d="m118.3 26.1c.5.2 1 .4 1.4.9.6.7.6 2.2-.3 2.6-.7.3-1.6.4-2.4.4-2.1.2-4.2.2-6.3-.1-1.7-.2-2.6-2.1-2.1-3.8.3-.9 3.1-.8 4-.8 1.6 0 3.2.1 4.8.5.1 0 .2 0 .3.1s.4.2.6.2z" fill="url(#am)" opacity=".75"/><path clip-path="url(#ah)" d="m118.1 24.2c-5.6-2-5.8 7.1-5.6 9.7s4.5 9.1 4.5 9.1 2.1-2.1 1.1-5.3c-1-3.1-2.9-3.1-3.1-4.4-.1-1.3 8.8-7 3.1-9.1z" fill="url(#ao)" opacity=".3"/><path clip-path="url(#ap)" d="m93.5 29.6h6.6v-12.4h-6.6z" fill="url(#aq)"/><path clip-path="url(#ap)" d="m97.3 19.1c-.4.1-1.5.3-1.7.8s1.4 1.9 1.8 2.2c.2.2.4.4.5.7s0 .6-.2.8-.5.2-.7.2-.5.1-.6.4 0 .5.2.7c.1.2.3.4.3.7 0 .4-.2.7-.5.9-.3.3-.7.7-1.1.9-.2.1-.4.1-.6.3-.3.3-.4.8-.3 1.3.2.7.6 1.3 1.2 1.7.6.3 1.2.4 1.9.3 1.4-.2 2.7-1.3 3.3-2.7.7-1.5.7-3.3.1-4.8-.2-.5-.6-1.2-.4-1.8.1-.6.4-1 .3-1.6-.1-1-1.3-1.3-2-1.4s-.9.2-1.5.4z" fill="url(#ar)" opacity=".3"/><g clip-path="url(#as)"><path d="m93.9 31h5.3v-7.9h-5.3z" fill="url(#au)"/></g><path clip-path="url(#as)" d="m94 27c-1.3 2.7 1.4 5.4 4.1 4.1.5-.3 1-.7 1.2-1.2 1.3-2.7-1.4-5.4-4.1-4.1-.5.2-.9.7-1.2 1.2z" fill="url(#aw)" opacity=".75"/><path clip-path="url(#ax)" d="m131.5 33.5h-17.6v19.4h17.6z" fill="url(#ay)"/><path clip-path="url(#ax)" d="m107.9 32.1c-4 10 5.4 19.5 15.4 15.4 2.7-1.1 4.8-3.2 5.9-5.9 4-10-5.4-19.5-15.4-15.4-2.7 1.1-4.9 3.2-5.9 5.9z" fill="url(#az)" opacity=".75"/><path clip-path="url(#aA)" d="m85.2 51.8h17.6l.1-17.3h-17.7z" fill="url(#aB)"/><path clip-path="url(#aA)" d="m89.4 44.3c-4 10 5.4 19.5 15.4 15.4 2.7-1.1 4.8-3.2 5.9-5.9 4-10-5.4-19.5-15.4-15.4-2.7 1.1-4.8 3.2-5.9 5.9z" fill="url(#aC)" opacity=".75"/><path clip-path="url(#aD)" d="m113.6 40.9h16.8l.1-7.5-16.9-.1z" fill="url(#aF)"/><path clip-path="url(#aD)" d="m118.3 36.3c-3.1 6.8 3.4 13.4 10.2 10.3 1.4-.6 2.6-1.8 3.2-3.2 3.1-6.8-3.4-13.4-10.2-10.3-1.4.6-2.6 1.8-3.2 3.2z" fill="url(#aG)" opacity=".75"/><path clip-path="url(#aH)" d="m98.7 28h4.6v-5h-4.6z" fill="url(#aI)"/><path clip-path="url(#aH)" d="m99.8 25.6c-1.2 2.5 1.3 5 3.8 3.8.5-.2.9-.7 1.2-1.2 1.2-2.5-1.3-5-3.8-3.8-.6.3-1 .7-1.2 1.2z" fill="url(#aK)"/><path clip-path="url(#aL)" d="m93.2 44.2 8.2.1.1-17.5h-8.3z" fill="url(#aM)"/><path clip-path="url(#aL)" d="m93.8 43.7 2.4.7 5.4-16.9-2.3-.8z" fill="url(#aN)" opacity=".75"/><path clip-path="url(#aO)" d="m116.1 28-4.8 13.3" fill="#e23045"/><path clip-path="url(#aO)" d="m113.7 27.8h3.1v5.7h-3.1z" fill="#e2e3e1" transform="matrix(-1 -.00146423 .00146423 -1 230.5127 61.5125)"/><path clip-path="url(#aO)" d="m114.6 36.2-1.3-.5 3.2-9 1.4.5z" fill="url(#aP)" opacity=".4"/><path clip-path="url(#aQ)" d="m110.9 31.9h12.4v9.9h-12.4z" fill="#e23045" transform="matrix(-1 -.00146222 .00146222 -1 234.0323 73.9486)"/><path clip-path="url(#aQ)" d="m119.5 44.3-8.2-2.9 3.2-9.1 8.2 3z" fill="url(#aR)" opacity=".4"/><path clip-path="url(#aS)" d="m112.4 28.8h8.5v-3h-8.5z" fill="url(#aT)"/><path clip-path="url(#aS)" d="m116.4 27.9c-1.1 2.3 1.2 4.6 3.5 3.5.5-.2.9-.6 1.1-1.1 1.1-2.3-1.2-4.6-3.5-3.5-.5.2-.9.6-1.1 1.1z" fill="url(#aU)" opacity=".75"/><path clip-path="url(#aV)" d="m97.6 46.9 25.6.1.1-19.7h-25.7z" fill="url(#aW)"/><g clip-path="url(#aV)"><path d="m110 43.5c-.3 1 .6 1.9 1.5 1.5.3-.1.6-.4.7-.7.3-1-.6-1.9-1.5-1.5-.3.1-.6.4-.7.7z" fill="url(#aX)"/></g><path clip-path="url(#aV)" d="m97.8 31.5 1.2-2.9 6.1 11c1 1.5 2.7 2.4 4.5 2.4l14.1.2v5.1l-16.7-.2z" fill="url(#aY)" opacity=".4"/><path d="m109.7 40.8-.6.3 1.8 3.1c.1.1.2.2.3.1l.1-.1c.1-.1.2-.2.1-.3z" fill="url(#aZ)"/><path d="m110.7 41c0-.2-.1-.3-.3-.3h-1.9c-.2 0-.3.1-.3.3 0 .2.1.3.3.3h1.9c.1 0 .3-.2.3-.3z" fill="url(#a0)"/><path d="m108.2 40.4c0 .1.1.2.3.2h1.8c.8 0 1.8-2.2 1.1-2.9-.8-.7-1 1-1 1l-2 1.4c-.2 0-.2.2-.2.3z" fill="url(#a1)"/><path clip-path="url(#a2)" d="m103.4 20.6 1.4 22.6 18.5-.3-1.1-24.4z" fill="url(#a3)"/><path clip-path="url(#a2)" d="m108.2 16c-1.1 0-1.9-.7-1.9-1 .3-1.4.7-4.9 1.3-4.7.3.1 3.4-.8 3.4-.8s-1.8 6.5-2.8 6.5z" fill="#cfd0d1"/><g clip-path="url(#a2)"><path d="m121.7 24-4.9 9.1-6.6-3.2s-5.1-3.5-5.1-5.7 13.2-6.7 13.2-6.7z" fill="url(#a4)"/></g><path clip-path="url(#a2)" d="m116.4 18.3c-.4.3-.7.7-.8 1.2-.3 1.1.1 2.2.4 3.3s.6 2.3 0 3.2c-.4.6-1 .9-1.6 1.3-.7.4-1.3 1-1.7 1.7s-.4 1.7 0 2.3c.4.5 1 .8 1.6 1.1 2.3.8 4.9.2 6.7-1.5 1.3-1.3 2.1-3.2 2-5.1 0-.4-.2-.9-.1-1.3 0-.4.1-.8 0-1.3-.2-1.1-.6-2.2-1.2-3.1-.5-.9-1.2-1.7-2.1-2.1s-2.1-.4-2.9.2c-.2.1-.2.1-.3.1z" fill="url(#a5)" opacity=".75"/><path clip-path="url(#a2)" d="m113.7 31.3c.1 0 .3-.1.4-.1 3.4-.4 9.9-2.2 8.7-6.9-.2-.9-.9-1.8-1.8-2-.9-.3-1.9.1-2.7.6-1.4.8-2.5 2.1-3.7 3.1-1.3 1-2.8 1.9-4.4 1.7-.4 0-.8-.1-1.2-.2-.4 0-.8.1-1.1.4-.6.7.4 1.4.7 2 .3.7.5 1.5.6 2.2.2 1.6.1 3.3-.1 5-.1.9-.3 1.8-.5 2.7 0 0 4.6-1.8 4.6-3.9 0-1.1.2-2.3-.3-3.3-.5-.8.1-1.2.8-1.3z" fill="url(#a6)" opacity=".3"/><path clip-path="url(#a7)" d="m106.9 21 11-.5-.2-12.3-10.9.4z" fill="url(#a8)"/><path clip-path="url(#a7)" d="m114.8 10.2c1.7 1.6 2 3.8 3.8 5.2.8.6 1.5.8 2.1 1.7.6.8.2 1.7-.3 2.4-.6 1-1.6 1.6-2.7 2-1 .4-2 .6-3.1.1s-2.2-.9-3.4-1.3c-.8-.3-1.8-.7-2.1-1.5-.4-.8-.2-1.6 0-2.5s.3-1.7-.3-2.4c-.5-.6-1-1.4-1-2.2.1-2.5 5-3.5 7-1.5z" fill="url(#a9)" opacity=".3"/><path clip-path="url(#ba)" d="m100.7 25.3 14-.3v-15.2l-15.3 1.6z" fill="url(#bb)"/><path clip-path="url(#ba)" d="m112.3 20.3 3.7-9.3-5.8-1.2-1.5 7.9z" fill="url(#bc)"/><path clip-path="url(#ba)" d="m112.5 16.6c.1-.2.1-.3.2-.5.4-1.1.6-2.3.2-3.3s-1.6-1.7-2.6-1.4c-2.1.5-1.8 3.1-1.6 4.9.2 1.2.3 2.6-.3 3.7-.7 1.3-2 1.5-2.9 2.6-.4.5-.8 1-.9 1.7v.7s4.9-2.3 6-3.1c.7-.5 1.4-1.4 1.3-2.4 0-1.1.3-2 .6-2.9z" fill="url(#bd)" opacity=".3"/><path clip-path="url(#be)" d="m104.1 4 5.6.9 1.1 7.9-6.7.1zm5.6 1-5.5-.9.1 8.9 6.5-.1z" fill="#6d6f71"/><path clip-path="url(#be)" d="m111.6 13.8h-8.3v-9.9l7.1 1.2z" fill="url(#bf)"/><path clip-path="url(#be)" d="m104.9 8.6.6-.1s-.2-1-.1-1.6.9-.5 1.4-.2.8 2.1.2 2.7-2 1-2 1l3.8 3.8 2.6-2.3c-1.5-1.8-2.5-6.5-5.1-7.2-2.4-.7-3.6 2.2-2.5 2.2.3-.4.8-.3.8.1.2.2.2 1.1.3 1.6z" fill="url(#bg)" opacity=".3"/><path clip-path="url(#be)" d="m107.9 9c .2 2.1 1.6 3.7 2.7 3.6-.6 1.3-2.2 1-2.2 1l-3.6-3.1c0 .1 1.9 0 3.1-1.5z" fill="url(#bh)" opacity=".3"/><path d="m102.2 24.2c.3.6-.3 1.2-.9.9-.1-.1-.2-.1-.3-.3-.3-.6.3-1.2.9-.9.1.1.2.2.3.3z" fill="url(#bi)"/><path clip-path="url(#bj)" d="m113.9 9.7h-11.1v-11.7h11.1z" fill="url(#bk)"/><path clip-path="url(#bj)" d="m110.5-.4c-.5 0-1 0-1.4.3s-.6.9-.6 1.4.2 1 .4 1.5.4 1 .5 1.5c0 .3 0 .6-.2.8-.6.4-1.1-.5-1.4-.9-.4-.4-1.1-.6-1.6-.3-.4.2-.7.6-1.2.6-.3 0-.5-.2-.7-.3-.5-.1-1.1.3-1.3.8-.5 1.3.3 2.8 1.4 3.5.4.3.9.5 1.4.6.4.1.7.1 1.1.2 1.1.3 2.1.3 3.1.1 1.1-.2 2.2-.7 2.9-1.6s1.1-2.1.7-3.1c-.1-.3-.3-.6-.4-.9-.2-.5-.2-1-.2-1.5 0-.4-.1-1 0-1.3.1-.2.4-.2.2-.5s-1-.5-1.3-.6c-.4-.2-.9-.3-1.4-.3z" fill="url(#bl)" opacity=".5"/></svg>