<?xml version="1.0" encoding="utf-8"?>
<!-- Generator: Adobe Illustrator 19.2.0, SVG Export Plug-In . SVG Version: 6.00 Build 0)  -->
<svg version="1.1" id="Capa_1" xmlns="http://www.w3.org/2000/svg" xmlns:xlink="http://www.w3.org/1999/xlink" x="0px" y="0px"
	 viewBox="0 0 335.2 305.1" style="enable-background:new 0 0 335.2 305.1;" xml:space="preserve">
<style type="text/css">
	.st0{fill:url(#SVGID_1_);}
	.st1{fill:#316A2B;}
	.st2{fill:#FFFFFF;}
	.st3{clip-path:url(#SVGID_3_);}
	.st4{fill:#B0A9A1;}
	.st5{fill:url(#SVGID_4_);}
	.st6{fill:url(#SVGID_5_);}
	.st7{fill:url(#SVGID_6_);}
	.st8{fill:url(#SVGID_7_);}
	.st9{fill:url(#SVGID_8_);}
	.st10{fill:url(#SVGID_9_);}
	.st11{fill:url(#SVGID_10_);}
	.st12{fill:url(#SVGID_11_);}
	.st13{fill:url(#SVGID_12_);}
	.st14{fill:url(#SVGID_13_);}
	.st15{fill:url(#SVGID_14_);}
	.st16{fill:#D8D6CD;}
	.st17{fill:url(#SVGID_15_);}
	.st18{opacity:0.5;fill:url(#SVGID_16_);}
	.st19{opacity:0.5;fill:url(#SVGID_17_);}
	.st20{opacity:0.5;fill:url(#SVGID_18_);}
	.st21{fill:url(#SVGID_19_);}
	.st22{fill:url(#SVGID_20_);}
	.st23{opacity:0.5;fill:url(#SVGID_21_);}
	.st24{opacity:0.25;clip-path:url(#SVGID_23_);fill:url(#SVGID_24_);}
	.st25{fill:url(#SVGID_25_);}
	.st26{fill:url(#SVGID_26_);}
	.st27{opacity:0.25;fill:url(#SVGID_27_);}
</style>
<g>
	<g>
		<linearGradient id="SVGID_1_" gradientUnits="userSpaceOnUse" x1="167.5941" y1="305.0524" x2="167.5941" y2="-7.525159e-09">
			<stop  offset="3.517618e-02" style="stop-color:#3C3233"/>
			<stop  offset="1" style="stop-color:#3C3233"/>
		</linearGradient>
		<rect x="0" y="0" class="st0" width="335.2" height="305.1"/>
	</g>
	<g>
		<polygon class="st1" points="8.6,130.8 8.6,42.6 326.7,42.6 326.7,130.8 		"/>
		<path class="st2" d="M329.5,133.2H5.8V40.2l323.6,0V133.2z M11.4,128.4h312.4V45L11.4,45V128.4z"/>
	</g>
	<path class="st2" d="M203.8,75.9c-4.4,0-8.5,1.3-11.9,3.6l-7.3-8.7l0.7-3.2l6.5-2.6c0.8-0.3,1.2-1.1,1-1.9
		c-0.2-0.8-0.9-1.4-1.7-1.4l-16.1,0.6c-0.8,0-1.5,0.7-1.6,1.5c-0.1,0.8,0.4,1.6,1.2,1.8l7.2,2c-0.1,0.7-0.3,1.4-0.4,1.9L150,69.3
		l2.3-6.2c0.1-0.2,0.1-0.4,0.1-0.6c0-0.5-0.2-0.9-0.6-1.3c-0.7-0.6-1.2-1.5-1.2-1.8c0,0,0,0,0,0c0,0,0.1-0.2,0.5-0.3
		c0.6,0,8.4,0,8.4,0c0.9,0,1.7-0.8,1.7-1.7c0-0.9-0.8-1.7-1.7-1.7h-8.7c-0.2,0-0.4,0-0.6,0.1c-2.1,0.8-2.8,2.1-2.9,3
		c0,0.2-0.1,0.4-0.1,0.7c0,1.4,0.8,2.7,1.5,3.5c-0.3,0.9-2.1,5.8-3.8,10.3l-0.7,1.8l0,0c-0.6,1.5-1.1,2.9-1.5,4.1
		c-3.3-2-7.1-3.2-11.2-3.2c-11.9,0-21.6,9.7-21.6,21.7c0,12,9.7,21.7,21.6,21.7c11.9,0,21.6-9.7,21.6-21.7c0-6.6-2.9-12.5-7.5-16.5
		l0.9-2.5l24.3,24.5c0,0,0,0,0,0c0.1,0.1,0.2,0.1,0.3,0.2c0,0,0,0,0.1,0c0,0,0.1,0,0.1,0.1l1.2,3.8c-0.8,0.1-1.5,0.8-1.5,1.7
		c0,0.9,0.8,1.7,1.7,1.7h4.7c0.9,0,1.7-0.8,1.7-1.7c0-0.9-0.8-1.7-1.7-1.7H176l-1.3-4l8-1.2c2.1,9.8,10.7,17.2,21.1,17.2
		c11.9,0,21.6-9.7,21.6-21.7C225.4,85.7,215.7,75.9,203.8,75.9z M149.6,97.7c0,10.1-8.2,18.3-18.2,18.3c-10,0-18.2-8.2-18.2-18.3
		c0-10.1,8.1-18.3,18.2-18.3c3.7,0,7.1,1.1,10,3c-2.6,7.5-11,13.8-11,13.8c-0.5,0.3-0.7,0.8-0.7,1.4c0,0.4,0.1,0.7,0.3,1
		c0.5,0.8,1.6,0.9,2.4,0.4c0.4-0.3,8.5-6.3,11.8-14.3C147.6,88,149.6,92.6,149.6,97.7z M172.3,95.8l-0.4-1.4h0.2
		c0.3,0,0.5-0.1,0.7-0.2C172.7,94.7,172.5,95.3,172.3,95.8z M172.2,91H168c-0.9,0-1.7,0.8-1.7,1.7c0,0.9,0.7,1.7,1.7,1.7h0.4
		l0.7,2.3l-21.3-21.5c0.3-0.9,0.6-1.6,0.9-2.5c1.9,0,25.2,0.2,31.6,0.3c-1.4,3.9-4.3,12.3-6.6,19C173.4,91.4,172.8,91,172.2,91z
		 M174.5,99.9l8.8-25.3c1.4,1.6,3.5,4.2,5.9,7c-4.3,4-7,9.7-7,16c0,0.4,0,0.7,0,1.1C179.1,99.2,176.3,99.6,174.5,99.9z M185.6,97.7
		c0-5.3,2.3-10.1,5.8-13.4c4.1,4.9,8.3,9.9,9.9,11.7c-2.4,0.4-9.2,1.4-15.6,2.3C185.6,98.1,185.6,97.9,185.6,97.7z M203.8,116
		c-8.7,0-15.9-6.1-17.7-14.3l18.7-2.7c0.6-0.1,1.1-0.5,1.4-1.1c0.2-0.6,0.1-1.2-0.3-1.7l-11.7-14c2.8-1.8,6.1-2.8,9.7-2.8
		c10,0,18.2,8.2,18.2,18.3C222,107.8,213.8,116,203.8,116z"/>
	<g>
		<g>
			<rect x="76.7" y="5.1" class="st2" width="10.8" height="27.7"/>
			<rect x="93.8" y="5.1" class="st2" width="10.8" height="27.7"/>
			<rect x="110.9" y="5.1" class="st2" width="10.8" height="27.7"/>
			<rect x="128" y="5.1" class="st2" width="10.8" height="27.7"/>
			<rect x="145.1" y="5.1" class="st2" width="10.8" height="27.7"/>
			<rect x="162.2" y="5.1" class="st2" width="10.8" height="27.7"/>
			<rect x="179.3" y="5.1" class="st2" width="10.8" height="27.7"/>
			<rect x="196.4" y="5.1" class="st2" width="10.8" height="27.7"/>
			<rect x="213.5" y="5.1" class="st2" width="10.8" height="27.7"/>
		</g>
		<g>
			<rect x="230.6" y="5.1" class="st2" width="10.8" height="27.7"/>
			<rect x="247.7" y="5.1" class="st2" width="10.8" height="27.7"/>
			<rect x="264.8" y="5.1" class="st2" width="10.8" height="27.7"/>
			<rect x="281.9" y="5.1" class="st2" width="10.8" height="27.7"/>
			<rect x="299" y="5.1" class="st2" width="10.8" height="27.7"/>
			<rect x="316.1" y="5.1" class="st2" width="10.8" height="27.7"/>
		</g>
		<g>
			<rect x="25.4" y="5.1" class="st2" width="10.8" height="27.7"/>
			<rect x="42.5" y="5.1" class="st2" width="10.8" height="27.7"/>
			<rect x="59.6" y="5.1" class="st2" width="10.8" height="27.7"/>
		</g>
		<g>
			<rect x="8.3" y="5.1" class="st2" width="10.8" height="27.7"/>
		</g>
	</g>
	<g>
		<defs>
			<rect id="SVGID_2_" x="78.5" y="140.3" width="180" height="164.2"/>
		</defs>
		<clipPath id="SVGID_3_">
			<use xlink:href="#SVGID_2_"  style="overflow:visible;"/>
		</clipPath>
		<g id="carro_amarillo_1_" class="st3">
			<path class="st4" d="M227.3,214.1c0,0-54-56.6-64.2-56.8c-10.2-0.2-42.1,21.4-42.1,21.4L100,219l-0.4-7c0-1.8,2-26.6,12.6-40.7
				c10.2-13.7,31.7-20.9,49.3-21.2c32.1-0.4,54.3,16.8,54.3,16.8c19.1,20.7,15.1,43.3,15.1,45.1l-0.5,5.8L227.3,214.1z"/>
			<g>
				
					<linearGradient id="SVGID_4_" gradientUnits="userSpaceOnUse" x1="6155.6797" y1="-3494.1702" x2="6155.6797" y2="-3434.0305" gradientTransform="matrix(1 -8.454138e-03 8.454138e-03 1 -5890.6763 3763.4944)">
					<stop  offset="0" style="stop-color:#0E0D15"/>
					<stop  offset="1" style="stop-color:#0E0D15"/>
				</linearGradient>
				<path class="st5" d="M243.5,247.4c0.1,16.6,0.4,30.1-4.1,30.1c-0.6,0-4.7,0-5.7,0c-5.2,0-6-15.5-6.2-30
					c-0.1-14.5,1-26.9,5.4-29.8c0.6-0.4,5.4-0.4,6-0.4C243.3,217.3,243.3,230.8,243.5,247.4z"/>
				
					<linearGradient id="SVGID_5_" gradientUnits="userSpaceOnUse" x1="-4504.8008" y1="-3494.0562" x2="-4504.8008" y2="-3433.9165" gradientTransform="matrix(-1 8.454138e-03 8.454138e-03 1 -4377.5264 3750.7017)">
					<stop  offset="0" style="stop-color:#0E0D15"/>
					<stop  offset="1" style="stop-color:#0E0D15"/>
				</linearGradient>
				<path class="st6" d="M89.8,248.8c0.1,16.6,0.1,30.1,4.6,30c0.6,0,4.7,0,5.7,0c5.2,0,5.8-15.6,5.6-30.1
					c-0.1-14.5-1.5-26.9-5.9-29.7c-0.6-0.4-5.5-0.3-6-0.3C89.5,218.8,89.7,232.2,89.8,248.8z"/>
				
					<linearGradient id="SVGID_6_" gradientUnits="userSpaceOnUse" x1="6003.8916" y1="-3481.1162" x2="6038.1509" y2="-3446.8567" gradientTransform="matrix(1 -8.454138e-03 8.454138e-03 1 -5890.6763 3763.4944)">
					<stop  offset="0" style="stop-color:#22288C"/>
					<stop  offset="1" style="stop-color:#110C41"/>
				</linearGradient>
				<polygon class="st7" points="105.3,278.8 96.9,278.8 96.4,218.7 104.8,218.6 				"/>
				
					<linearGradient id="SVGID_7_" gradientUnits="userSpaceOnUse" x1="6135.1006" y1="-3481.23" x2="6169.3599" y2="-3446.9705" gradientTransform="matrix(1 -8.454138e-03 8.454138e-03 1 -5890.6763 3763.4944)">
					<stop  offset="0" style="stop-color:#22288C"/>
					<stop  offset="1" style="stop-color:#110C41"/>
				</linearGradient>
				<polygon class="st8" points="236.5,277.5 228.1,277.6 227.6,217.5 236,217.4 				"/>
				
					<linearGradient id="SVGID_8_" gradientUnits="userSpaceOnUse" x1="285.6131" y1="-9065.0586" x2="346.8165" y2="-9065.0586" gradientTransform="matrix(8.454138e-03 1 -1 8.454138e-03 -8902.4727 -52.1706)">
					<stop  offset="0" style="stop-color:#110C41"/>
					<stop  offset="1" style="stop-color:#22288C"/>
				</linearGradient>
				<path class="st9" d="M100.3,218.5c0,0-0.8-61.1,60-61.7c78.6-0.8,69.5,60.6,69.5,60.6L100.3,218.5z"/>
				
					<linearGradient id="SVGID_9_" gradientUnits="userSpaceOnUse" x1="1108.5637" y1="-4215.165" x2="1343.0433" y2="-4215.165" gradientTransform="matrix(-0.8512 -0.5248 0.5248 -0.8512 3418.019 -2631.2009)">
					<stop  offset="0" style="stop-color:#110C41"/>
					<stop  offset="1" style="stop-color:#22288C"/>
				</linearGradient>
				<path class="st10" d="M100.3,218.5L83,218.7l0.1,14.4l17.3,4.5l1.4,182.4c0,0,1,8.8,7.4,8.9c6.4,0.1,114.7-1,118.9-1
					c4.2,0,3.2-9,3.2-9l-1.4-182l18.7-5.2l-0.1-14.4l-24.9,0.2l0,0L100.3,218.5L100.3,218.5z"/>
				
					<linearGradient id="SVGID_10_" gradientUnits="userSpaceOnUse" x1="6238.6025" y1="-3621.6184" x2="6261.0562" y2="-3621.6184" gradientTransform="matrix(1 8.266938e-03 -8.266938e-03 1 -6088.2188 3732.9656)">
					<stop  offset="0" style="stop-color:#FDA909"/>
					<stop  offset="1" style="stop-color:#F3FA44"/>
				</linearGradient>
				<polygon class="st11" points="202.5,169.6 180.1,169.4 180.2,156.7 202.6,156.8 				"/>
				<polygon class="st16" points="223.5,217.5 202.6,277.1 131.6,277.7 107.9,218.5 				"/>
				
					<linearGradient id="SVGID_11_" gradientUnits="userSpaceOnUse" x1="273.2536" y1="-9138.1836" x2="283.2466" y2="-9138.1836" gradientTransform="matrix(-8.266938e-03 1 -1 -8.266938e-03 -8943.6934 -187.7363)">
					<stop  offset="0" style="stop-color:#110C41"/>
					<stop  offset="1" style="stop-color:#22288C"/>
				</linearGradient>
				<polygon class="st12" points="178,170.9 178.1,160.9 205.8,161.2 205.7,171.2 				"/>
				<polygon class="st16" points="105.8,241.2 124.4,289 124.1,352 109.8,370.9 				"/>
				
					<linearGradient id="SVGID_12_" gradientUnits="userSpaceOnUse" x1="2383.8398" y1="-8695.0859" x2="2454.6782" y2="-8695.0859" gradientTransform="matrix(0.3709 0.9287 -0.9287 0.3709 -8810.5479 1233.1611)">
					<stop  offset="0" style="stop-color:#D8D6CD"/>
					<stop  offset="1" style="stop-color:#D8D6CD;stop-opacity:0"/>
				</linearGradient>
				<path style="opacity:0.5;fill:url(#SVGID_12_);" d="M168.4,217.7c-37.3-1.1-35.2,45.9-36.8,60l71-0.6
					C200,261.3,197.1,218.5,168.4,217.7z"/>
				
					<linearGradient id="SVGID_13_" gradientUnits="userSpaceOnUse" x1="395.1042" y1="2243.6775" x2="477.5962" y2="2243.6775" gradientTransform="matrix(8.454138e-03 1 1 -8.454138e-03 -2130.6106 -87.7731)">
					<stop  offset="0" style="stop-color:#D8D6CD"/>
					<stop  offset="1" style="stop-color:#D8D6CD;stop-opacity:0"/>
				</linearGradient>
				<path style="opacity:0.5;fill:url(#SVGID_13_);" d="M116.3,288.3c5,0,7.6,46.9,7.8,63.6l-14.2,18.9
					C109.7,354.2,111.3,288.4,116.3,288.3z"/>
				<polygon class="st16" points="223.5,240.2 205.7,288.4 204.7,353 225.1,372.4 				"/>
				
					<linearGradient id="SVGID_14_" gradientUnits="userSpaceOnUse" x1="394.5083" y1="-8286.8223" x2="477.7131" y2="-8286.8223" gradientTransform="matrix(8.454138e-03 1 -1 8.454138e-03 -8076.6133 -37.503)">
					<stop  offset="0" style="stop-color:#D8D6CD"/>
					<stop  offset="1" style="stop-color:#D8D6CD;stop-opacity:0"/>
				</linearGradient>
				<path style="opacity:0.5;fill:url(#SVGID_14_);" d="M214.7,286.9c-5,0-9.3,50.5-9.2,67.2l16.8,15.9
					C222.2,353.4,219.7,286.9,214.7,286.9z"/>
				<g>
					<defs>
						<path id="SVGID_22_" d="M100.3,218.5c0,0-0.5-66.3,66.9-61.6c58,4,63.2,45.4,63.3,51.6c0.1,6.2-0.7,8.9-0.7,8.9L100.3,218.5z"
							/>
					</defs>
					<clipPath id="SVGID_15_">
						<use xlink:href="#SVGID_22_"  style="overflow:visible;"/>
					</clipPath>
					
						<linearGradient id="SVGID_16_" gradientUnits="userSpaceOnUse" x1="5964.7622" y1="-3523.9705" x2="6088.8447" y2="-3523.9705" gradientTransform="matrix(1 -8.454138e-03 8.454138e-03 1 -5890.6763 3763.4944)">
						<stop  offset="0" style="stop-color:#2F2829;stop-opacity:0"/>
						<stop  offset="1" style="stop-color:#635A58"/>
					</linearGradient>
					<path style="opacity:0.25;clip-path:url(#SVGID_15_);fill:url(#SVGID_16_);" d="M168.2,188.2c0.3,34.4-27.3,62.5-61.5,62.8
						c-34.3,0.3-62.3-27.4-62.6-61.8s27.3-62.5,61.5-62.8S167.9,153.8,168.2,188.2z"/>
				</g>
				
					<linearGradient id="SVGID_17_" gradientUnits="userSpaceOnUse" x1="6152.6499" y1="-3565.4507" x2="6175.104" y2="-3565.4507" gradientTransform="matrix(0.9999 -1.629517e-02 1.629517e-02 0.9999 -5969.5879 3828.9866)">
					<stop  offset="0" style="stop-color:#FDA909"/>
					<stop  offset="1" style="stop-color:#F3FA44"/>
				</linearGradient>
				<polygon style="fill:url(#SVGID_17_);" points="146.7,169.8 124.2,170.1 124,157.4 146.5,157 				"/>
				
					<linearGradient id="SVGID_18_" gradientUnits="userSpaceOnUse" x1="329.4208" y1="-9052.2314" x2="339.4147" y2="-9052.2314" gradientTransform="matrix(1.629517e-02 0.9999 -0.9999 1.629517e-02 -8920.4961 -20.4007)">
					<stop  offset="0" style="stop-color:#110C41"/>
					<stop  offset="1" style="stop-color:#22288C"/>
				</linearGradient>
				<polygon style="fill:url(#SVGID_18_);" points="122.2,171.7 122,161.7 149.8,161.2 149.9,171.2 				"/>
				
					<linearGradient id="SVGID_19_" gradientUnits="userSpaceOnUse" x1="1123.0105" y1="-4246.4937" x2="1328.4695" y2="-4246.4937" gradientTransform="matrix(-0.8512 -0.5248 0.5248 -0.8512 3418.019 -2631.2009)">
					<stop  offset="0" style="stop-color:#2F2829;stop-opacity:0"/>
					<stop  offset="1" style="stop-color:#635A58"/>
				</linearGradient>
				<path style="opacity:0.25;fill:url(#SVGID_19_);" d="M221.3,410.3c0.2-1.6,5.4-16.9,4-25.5c-2.8-16.9-24-34.7-24-34.7
					c-9.7-0.3-67.8-0.8-67.8-0.8s3.1-14,2.5-17.9c-2.5-15.7,1.8-29.7,6.7-33.2c2.3-1.7,5-2.8,7.7-3.9c5.4-2.2,10.8-4.5,16.2-6.7
					c4.3-1.8,8.5-3.5,12.9-4.9c7.6-2.4,15.3-5.4,23.2-5.6c-18.5,0.4-27.6,0.2-45.7,0.4c-3.4,0-25.4,0.2-25.4,0.2l-23.7-59.2
					l-7.9,0.5l5.8,22.2l18.6,47.8l-0.3,62.9c0,0-21.6,33-19.2,47.4c3.8,22.4,19.3,23.8,19.3,23.8l86.1-0.4
					C210.3,422.8,220,422.4,221.3,410.3z"/>
			</g>
		</g>
	</g>
</g>
</svg>
