<?xml version="1.0" encoding="utf-8"?>
<!-- Generator: Adobe Illustrator 19.2.0, SVG Export Plug-In . SVG Version: 6.00 Build 0)  -->
<svg version="1.1" id="Capa_1" xmlns="http://www.w3.org/2000/svg" xmlns:xlink="http://www.w3.org/1999/xlink" x="0px" y="0px"
	 viewBox="0 0 335.2 360.3" style="enable-background:new 0 0 335.2 360.3;" xml:space="preserve">
<style type="text/css">
	.st0{fill:none;}
	.st1{fill:url(#SVGID_1_);}
	.st2{fill:#FFFFFF;}
	.st3{fill:#BAB6B0;}
	.st4{fill:#D8D6CD;}
	.st5{fill:#F9D420;}
	.st6{fill:url(#SVGID_2_);}
	.st7{fill:url(#SVGID_3_);}
	.st8{fill:url(#SVGID_4_);}
	.st9{fill:url(#SVGID_5_);}
	.st10{clip-path:url(#SVGID_7_);}
	.st11{fill:url(#SVGID_8_);}
	.st12{fill:url(#SVGID_9_);}
	.st13{fill:#B0ACA5;}
	.st14{fill:#B0A9A1;}
	.st15{fill:url(#SVGID_10_);}
	.st16{fill:url(#SVGID_11_);}
	.st17{fill:url(#SVGID_12_);}
	.st18{fill:url(#SVGID_13_);}
	.st19{fill:url(#SVGID_14_);}
	.st20{fill:url(#SVGID_15_);}
	.st21{fill:url(#SVGID_16_);}
	.st22{fill:url(#SVGID_17_);}
	.st23{fill:url(#SVGID_18_);}
	.st24{fill:url(#SVGID_19_);}
	.st25{fill:url(#SVGID_20_);}
	.st26{fill:url(#SVGID_21_);}
	.st27{fill:url(#SVGID_22_);}
	.st28{opacity:0.5;fill:url(#SVGID_23_);}
	.st29{opacity:0.5;fill:url(#SVGID_24_);}
	.st30{fill:url(#SVGID_25_);}
	.st31{fill:url(#SVGID_26_);}
	.st32{opacity:0.5;fill:url(#SVGID_27_);}
	.st33{opacity:0.25;clip-path:url(#SVGID_29_);fill:url(#SVGID_30_);}
	.st34{fill:url(#SVGID_31_);}
	.st35{fill:url(#SVGID_32_);}
	.st36{opacity:0.25;fill:url(#SVGID_33_);}
	.st37{fill:url(#SVGID_34_);}
</style>
<g>
	<rect x="97.4" y="109.6" class="st0" width="141.9" height="129.5"/>
	<g>
		<linearGradient id="SVGID_1_" gradientUnits="userSpaceOnUse" x1="167.5941" y1="359.1311" x2="167.5941" y2="-7.525159e-09">
			<stop  offset="3.517618e-02" style="stop-color:#3C3233"/>
			<stop  offset="1" style="stop-color:#3C3233"/>
		</linearGradient>
		<rect x="0" y="0" class="st1" width="335.2" height="359.1"/>
	</g>
	<g>
		<rect y="92.4" class="st2" width="197.9" height="10.8"/>
		<g>
			<g>
				<rect x="7.6" y="31.2" class="st2" width="13.4" height="53"/>
				<rect x="29" y="31.2" class="st2" width="13.4" height="53"/>
				<rect x="50.3" y="31.2" class="st2" width="13.4" height="53"/>
			</g>
		</g>
		<g>
			<g>
				<rect x="71.7" y="31.2" class="st2" width="13.4" height="53"/>
			</g>
			<g>
				<rect x="93" y="31.2" class="st2" width="13.4" height="53"/>
				<rect x="114.4" y="31.2" class="st2" width="13.4" height="53"/>
				<rect x="135.7" y="31.2" class="st2" width="13.4" height="53"/>
				<rect x="157.1" y="31.2" class="st2" width="13.4" height="53"/>
				<rect x="178.4" y="31.2" class="st2" width="13.4" height="53"/>
			</g>
		</g>
	</g>
	<path class="st3" d="M335.2,12.1h-98.5c-9.9,1.1-36.4,21-37.2,34.2l-0.1,312.8h135.7V58.8h0.1V12.1z"/>
	<g>
		<rect x="200.4" y="167" class="st4" width="134.7" height="2.4"/>
	</g>
	<g>
		<rect x="200.4" y="284.2" class="st4" width="134.7" height="2.4"/>
	</g>
	<path class="st5" d="M201.4,359.1h-4.1V47.6c0-1.1,36.8-38.5,44-38.5l93.9,0.1v4.1l-96.6,0.1c-6,0-37.2,25.8-37.1,25.9l0,8.3V359.1
		z"/>
	<g>
		
			<radialGradient id="SVGID_2_" cx="106.0192" cy="920.1199" r="24.2162" gradientTransform="matrix(0.8402 0 0 0.8437 170.2843 -549.5203)" gradientUnits="userSpaceOnUse">
			<stop  offset="0" style="stop-color:#680811"/>
			<stop  offset="0.1483" style="stop-color:#670A11"/>
			<stop  offset="0.3025" style="stop-color:#640E11"/>
			<stop  offset="0.4593" style="stop-color:#5D1912"/>
			<stop  offset="0.618" style="stop-color:#532813"/>
			<stop  offset="0.7781" style="stop-color:#433B15"/>
			<stop  offset="0.9374" style="stop-color:#2D4F18"/>
			<stop  offset="1" style="stop-color:#22581A"/>
		</radialGradient>
		<rect x="238.6" y="206.8" class="st6" width="41.6" height="40"/>
		<linearGradient id="SVGID_3_" gradientUnits="userSpaceOnUse" x1="241.3066" y1="226.5897" x2="273.6784" y2="226.5897">
			<stop  offset="0" style="stop-color:#82C53B"/>
			<stop  offset="1" style="stop-color:#3D6518"/>
		</linearGradient>
		<path class="st7" d="M273.7,228.7c0-0.8-0.1-1.6-0.4-2.3c0-0.3,0-0.6,0-0.9c0-2.4-0.6-4.7-1.6-6.8c0.2-0.6,0.2-1.2,0.2-1.9
			c0-4.3-3.4-7.7-7.7-7.7c-1.6,0-3.2,0.5-4.4,1.4c-0.5,0-1-0.1-1.5-0.1c-3.1,0-5.9,0.9-8.3,2.5c-0.4-0.1-0.7-0.1-1.1-0.1
			c-4.2,0-7.7,3.4-7.7,7.7c0,2.1,0.8,4,2.2,5.3c0,0.3,0,0.6,0,0.9c-1.4,1.4-2.2,3.3-2.2,5.4c0,4.3,3.4,7.7,7.7,7.7
			c1.2,0,2.2-0.3,3.2-0.7c1.1,2.9,3.9,4.9,7.2,4.9c3.8,0,6.9-2.7,7.5-6.3c0.9-0.6,1.7-1.4,2.5-2.2
			C271.9,234.3,273.7,231.7,273.7,228.7z"/>
	</g>
	
		<radialGradient id="SVGID_4_" cx="106.0192" cy="761.3594" r="24.2162" gradientTransform="matrix(0.8402 0 0 0.8437 170.2843 -549.5203)" gradientUnits="userSpaceOnUse">
		<stop  offset="0" style="stop-color:#680811"/>
		<stop  offset="0.1483" style="stop-color:#670A11"/>
		<stop  offset="0.3025" style="stop-color:#640E11"/>
		<stop  offset="0.4593" style="stop-color:#5D1912"/>
		<stop  offset="0.618" style="stop-color:#532813"/>
		<stop  offset="0.7781" style="stop-color:#433B15"/>
		<stop  offset="0.9374" style="stop-color:#2D4F18"/>
		<stop  offset="1" style="stop-color:#22581A"/>
	</radialGradient>
	<rect x="238.6" y="72.9" class="st8" width="41.6" height="40"/>
	<linearGradient id="SVGID_5_" gradientUnits="userSpaceOnUse" x1="241.3066" y1="92.6364" x2="273.6784" y2="92.6364">
		<stop  offset="0" style="stop-color:#82C53B"/>
		<stop  offset="1" style="stop-color:#3D6518"/>
	</linearGradient>
	<path class="st9" d="M273.7,94.7c0-0.8-0.1-1.6-0.4-2.3c0-0.3,0-0.6,0-0.9c0-2.4-0.6-4.7-1.6-6.8c0.2-0.6,0.2-1.2,0.2-1.9
		c0-4.3-3.4-7.7-7.7-7.7c-1.6,0-3.2,0.5-4.4,1.4c-0.5,0-1-0.1-1.5-0.1c-3.1,0-5.9,0.9-8.3,2.5c-0.4-0.1-0.7-0.1-1.1-0.1
		c-4.2,0-7.7,3.4-7.7,7.7c0,2.1,0.8,4,2.2,5.3c0,0.3,0,0.6,0,0.9c-1.4,1.4-2.2,3.3-2.2,5.4c0,4.3,3.4,7.7,7.7,7.7
		c1.2,0,2.2-0.3,3.2-0.7c1.1,2.9,3.9,4.9,7.2,4.9c3.8,0,6.9-2.7,7.5-6.3c0.9-0.6,1.7-1.4,2.5-2.2C271.9,100.4,273.7,97.8,273.7,94.7
		z"/>
	<g>
		<defs>
			<rect id="SVGID_6_" x="235.3" y="322.9" width="47.9" height="36.3"/>
		</defs>
		<clipPath id="SVGID_7_">
			<use xlink:href="#SVGID_6_"  style="overflow:visible;"/>
		</clipPath>
		<g class="st10">
			
				<radialGradient id="SVGID_8_" cx="106.0192" cy="1061.3099" r="24.2162" gradientTransform="matrix(0.8402 0 0 0.8437 170.2843 -549.5203)" gradientUnits="userSpaceOnUse">
				<stop  offset="0" style="stop-color:#680811"/>
				<stop  offset="0.1483" style="stop-color:#670A11"/>
				<stop  offset="0.3025" style="stop-color:#640E11"/>
				<stop  offset="0.4593" style="stop-color:#5D1912"/>
				<stop  offset="0.618" style="stop-color:#532813"/>
				<stop  offset="0.7781" style="stop-color:#433B15"/>
				<stop  offset="0.9374" style="stop-color:#2D4F18"/>
				<stop  offset="1" style="stop-color:#22581A"/>
			</radialGradient>
			<rect x="238.6" y="326" class="st11" width="41.6" height="40"/>
			<linearGradient id="SVGID_9_" gradientUnits="userSpaceOnUse" x1="241.3066" y1="345.7179" x2="273.6784" y2="345.7179">
				<stop  offset="0" style="stop-color:#82C53B"/>
				<stop  offset="1" style="stop-color:#3D6518"/>
			</linearGradient>
			<path class="st12" d="M273.7,347.8c0-0.8-0.1-1.6-0.4-2.3c0-0.3,0-0.6,0-0.9c0-2.4-0.6-4.7-1.6-6.8c0.2-0.6,0.2-1.2,0.2-1.9
				c0-4.3-3.4-7.7-7.7-7.7c-1.6,0-3.2,0.5-4.4,1.4c-0.5,0-1-0.1-1.5-0.1c-3.1,0-5.9,0.9-8.3,2.5c-0.4-0.1-0.7-0.1-1.1-0.1
				c-4.2,0-7.7,3.4-7.7,7.7c0,2.1,0.8,4,2.2,5.3c0,0.3,0,0.6,0,0.9c-1.4,1.4-2.2,3.3-2.2,5.4c0,4.3,3.4,7.7,7.7,7.7
				c1.2,0,2.2-0.3,3.2-0.7c1.1,2.9,3.9,4.9,7.2,4.9c3.8,0,6.9-2.7,7.5-6.3c0.9-0.6,1.7-1.4,2.5-2.2
				C271.9,353.5,273.7,350.9,273.7,347.8z"/>
		</g>
	</g>
	<g>
		<path class="st13" d="M242.6,9v42.5c0,0-29.1,0-45.3,0v-5.2c0,0,0.6-13.5,12.3-25.4C220.8,9.5,240,9,240,9H242.6z"/>
		<g>
			<path class="st2" d="M227.1,36.3c-0.7,0.6-0.8,1.6-0.3,2.3c0.5,0.7,1.6,0.8,2.2,0.3c0.7-0.6,0.8-1.6,0.3-2.3
				C228.8,35.8,227.7,35.7,227.1,36.3L227.1,36.3z M227.1,36.3"/>
			<path class="st2" d="M219.5,30.7c-0.6-1.4-0.2-3.1,1.1-4.1c1.5-1.2,3.7-1,5,0.6c0.9,1.1,1,2.6,0.4,3.9l0.9,1.2
				c1.2-1.8,1.2-4.2-0.2-5.9c-1.7-2.1-4.8-2.5-6.9-0.8c-1.6,1.2-2.2,3.2-1.7,5.1l1.1,0.5C219.2,31,219.3,30.8,219.5,30.7L219.5,30.7
				z M219.5,30.7"/>
			<path class="st2" d="M214.7,32.1l4.3,2c0.3,0.1,0.7,0.1,1-0.1l2.1-1.7l0.4,0.5l-1.8,1.5c-0.2,0.1-0.3,0.4-0.3,0.6
				c0,0.1,0,0.3,0.1,0.4c0.2,0.3,0.7,0.4,1,0.1l1.8-1.5l1.3,1.7c0.4,0.5,1.2,0.8,2,0.2c0.6-0.5,0.7-1.4,0.2-2l-2.9-3.6
				c-0.5-0.6-1.4-0.7-2-0.2l-2.8,2.2l-3.8-1.7c-0.3-0.2-0.7-0.1-1,0.1c-0.1,0.1-0.2,0.2-0.3,0.3C214,31.4,214.2,31.9,214.7,32.1
				L214.7,32.1z M214.7,32.1"/>
		</g>
	</g>
	<rect x="52.1" y="98.3" class="st2" width="10.8" height="261.1"/>
	<rect x="17.1" y="98.3" class="st2" width="10.8" height="261.1"/>
	<polygon class="st2" points="18.1,133.8 25.7,141.4 58.5,108.8 50.9,101.2 	"/>
	<polygon class="st2" points="20.2,171.6 27.8,179.2 60.7,146.7 53,139 	"/>
	<polygon class="st2" points="20.2,211.8 27.8,219.5 60.7,186.9 53,179.2 	"/>
	<polygon class="st2" points="21.3,250.7 22.5,265.6 61.7,225.7 54.1,218.1 	"/>
	<polygon class="st2" points="21.3,305 26.4,315.3 61.7,280 54.1,272.4 	"/>
	<polygon class="st2" points="21.3,345.4 22.5,360.3 61.7,320.5 54.1,312.8 	"/>
	<g>
		<g id="carro_amarillo_5_">
			<path class="st14" d="M174.2,167.9c0,0-42.6-44.6-50.7-44.8S90.4,140,90.4,140l-16.5,31.8l-0.3-5.5c0-1.4,1.6-21,9.9-32.1
				c8.1-10.8,25-16.5,38.9-16.7c25.3-0.3,42.8,13.3,42.8,13.3c15.1,16.3,11.9,34.1,11.9,35.6l-0.4,4.6L174.2,167.9z"/>
			<g>
				<path class="st14" d="M172.3,336.4l-88.7,0.8l-2.6,0l0,3.1c0,1.4,1.2,2.5,2.6,2.5l88.7-0.8c1.4,0,2.5-1.2,2.5-2.6l0-3.1
					L172.3,336.4z"/>
				
					<linearGradient id="SVGID_10_" gradientUnits="userSpaceOnUse" x1="6096.4419" y1="-3430.2061" x2="6096.4419" y2="-3382.7827" gradientTransform="matrix(1 -8.454138e-03 8.454138e-03 1 -5890.376 3763.4893)">
					<stop  offset="0" style="stop-color:#0E0D15"/>
					<stop  offset="1" style="stop-color:#0E0D15"/>
				</linearGradient>
				<path class="st15" d="M183.3,305.5c0.1,13.1,0.3,23.7-3.2,23.7c-0.4,0-3.7,0-4.5,0c-4.1,0-4.8-12.2-4.8-23.7
					c-0.1-11.4,0.8-21.2,4.2-23.5c0.5-0.3,4.3-0.3,4.7-0.3C183.2,281.8,183.2,292.4,183.3,305.5z"/>
				
					<linearGradient id="SVGID_11_" gradientUnits="userSpaceOnUse" x1="-4482.126" y1="-3429.926" x2="-4482.126" y2="-3382.5027" gradientTransform="matrix(-1 8.454138e-03 8.454138e-03 1 -4378.1357 3750.7041)">
					<stop  offset="0" style="stop-color:#0E0D15"/>
					<stop  offset="1" style="stop-color:#0E0D15"/>
				</linearGradient>
				<path class="st16" d="M68.7,306.8c0.1,13.1,0.1,23.7,3.6,23.7c0.4,0,3.7,0,4.5,0c4.1,0,4.5-12.3,4.5-23.7
					c-0.1-11.4-1.2-21.2-4.6-23.4c-0.5-0.3-4.3-0.2-4.7-0.2C68.4,283.1,68.6,293.7,68.7,306.8z"/>
				
					<linearGradient id="SVGID_12_" gradientUnits="userSpaceOnUse" x1="6101.0327" y1="-3541.5422" x2="6101.0327" y2="-3494.1189" gradientTransform="matrix(1 -8.454138e-03 8.454138e-03 1 -5890.376 3763.4893)">
					<stop  offset="0" style="stop-color:#0E0D15"/>
					<stop  offset="1" style="stop-color:#0E0D15"/>
				</linearGradient>
				<path class="st17" d="M187,194.2c0.1,13.1,0.3,23.7-3.2,23.7c-0.4,0-3.7,0-4.5,0c-4.1,0-4.8-12.2-4.8-23.7
					c-0.1-11.4,0.8-21.2,4.2-23.5c0.5-0.3,4.3-0.3,4.7-0.3C186.9,170.4,186.9,181.1,187,194.2z"/>
				
					<linearGradient id="SVGID_13_" gradientUnits="userSpaceOnUse" x1="-4480.1743" y1="-3541.4521" x2="-4480.1743" y2="-3494.0291" gradientTransform="matrix(-1 8.454138e-03 8.454138e-03 1 -4378.1357 3750.7041)">
					<stop  offset="0" style="stop-color:#0E0D15"/>
					<stop  offset="1" style="stop-color:#0E0D15"/>
				</linearGradient>
				<path class="st18" d="M65.8,195.3c0.1,13.1,0.1,23.7,3.6,23.7c0.4,0,3.7,0,4.5,0c4.1,0,4.5-12.3,4.5-23.7
					c-0.1-11.4-1.2-21.2-4.6-23.4c-0.5-0.3-4.3-0.2-4.7-0.2C65.6,171.6,65.7,182.2,65.8,195.3z"/>
				
					<linearGradient id="SVGID_14_" gradientUnits="userSpaceOnUse" x1="5984.2202" y1="-3419.7195" x2="6011.2358" y2="-3392.7041" gradientTransform="matrix(1 -8.454138e-03 8.454138e-03 1 -5890.376 3763.4893)">
					<stop  offset="0" style="stop-color:#E20A16"/>
					<stop  offset="1" style="stop-color:#E20A16"/>
				</linearGradient>
				<polygon class="st19" points="81.8,330.4 75.2,330.4 74.8,283 81.4,283 				"/>
				
					<linearGradient id="SVGID_15_" gradientUnits="userSpaceOnUse" x1="6079.6265" y1="-3419.9993" x2="6106.6421" y2="-3392.9836" gradientTransform="matrix(1 -8.454138e-03 8.454138e-03 1 -5890.376 3763.4893)">
					<stop  offset="0" style="stop-color:#E20A16"/>
					<stop  offset="1" style="stop-color:#E20A16"/>
				</linearGradient>
				<polygon class="st20" points="177.2,329.3 170.6,329.3 170.2,281.9 176.8,281.9 				"/>
				
					<linearGradient id="SVGID_16_" gradientUnits="userSpaceOnUse" x1="5981.3398" y1="-3531.2485" x2="6008.355" y2="-3504.2332" gradientTransform="matrix(1 -8.454138e-03 8.454138e-03 1 -5890.376 3763.4893)">
					<stop  offset="0" style="stop-color:#3CA27E"/>
					<stop  offset="0.9731" style="stop-color:#2A715E"/>
				</linearGradient>
				<polygon class="st21" points="78,218.9 71.4,218.9 71,171.5 77.6,171.5 				"/>
				
					<linearGradient id="SVGID_17_" gradientUnits="userSpaceOnUse" x1="6084.8052" y1="-3531.3381" x2="6111.8203" y2="-3504.3228" gradientTransform="matrix(1 -8.454138e-03 8.454138e-03 1 -5890.376 3763.4893)">
					<stop  offset="0" style="stop-color:#3CA27E"/>
					<stop  offset="0.9731" style="stop-color:#2A715E"/>
				</linearGradient>
				<polygon class="st22" points="181.5,217.9 174.9,218 174.5,170.5 181.1,170.5 				"/>
				
					<linearGradient id="SVGID_18_" gradientUnits="userSpaceOnUse" x1="286.2161" y1="-9061.167" x2="334.4783" y2="-9061.167" gradientTransform="matrix(8.454138e-03 1 -1 8.454138e-03 -8938.4102 -86.9035)">
					<stop  offset="2.694515e-02" style="stop-color:#2A715E"/>
					<stop  offset="1" style="stop-color:#3CA27E"/>
				</linearGradient>
				<path class="st23" d="M74.1,171.4c0,0-0.7-48.2,47.3-48.7c62-0.6,54.8,47.8,54.8,47.8L74.1,171.4z"/>
				
					<linearGradient id="SVGID_19_" gradientUnits="userSpaceOnUse" x1="1182.641" y1="-4244.0508" x2="1367.5408" y2="-4244.0508" gradientTransform="matrix(-0.8512 -0.5248 0.5248 -0.8512 3435.8025 -2697.1348)">
					<stop  offset="2.694515e-02" style="stop-color:#2A715E"/>
					<stop  offset="1" style="stop-color:#3CA27E"/>
				</linearGradient>
				<path class="st24" d="M74.1,171.4l-13.6,0.1l0.1,11.4l13.6,3.5l1.1,143.8c0,0,0.8,6.9,5.8,7c5,0.1,90.4-0.8,93.8-0.8
					c3.3,0,2.5-7.1,2.5-7.1l-1.1-143.5l14.8-4.1l-0.1-11.4l-19.6,0.2l0,0L74.1,171.4L74.1,171.4z"/>
				
					<linearGradient id="SVGID_20_" gradientUnits="userSpaceOnUse" x1="6195.5171" y1="-3656.6846" x2="6213.2227" y2="-3656.6846" gradientTransform="matrix(1 8.266938e-03 -8.266938e-03 1 -6088.5122 3732.968)">
					<stop  offset="0" style="stop-color:#FDA909"/>
					<stop  offset="1" style="stop-color:#F3FA44"/>
				</linearGradient>
				<polygon class="st25" points="154.7,132.8 137,132.7 137.1,122.6 154.8,122.7 				"/>
				<polygon class="st4" points="171.2,170.6 154.8,217.5 98.8,218 80.1,171.3 				"/>
				
					<linearGradient id="SVGID_21_" gradientUnits="userSpaceOnUse" x1="273.6622" y1="-9128.5479" x2="281.5422" y2="-9128.5479" gradientTransform="matrix(-8.266938e-03 1 -1 -8.266938e-03 -8979.6387 -223.0626)">
					<stop  offset="0" style="stop-color:#3CA27E"/>
					<stop  offset="0.9731" style="stop-color:#2A715E"/>
				</linearGradient>
				<polygon class="st26" points="135.3,133.8 135.4,126 157.3,126.1 157.2,134 				"/>
				<linearGradient id="SVGID_22_" gradientUnits="userSpaceOnUse" x1="80.0689" y1="243.1462" x2="93.0766" y2="243.1462">
					<stop  offset="0" style="stop-color:#0E0D15"/>
					<stop  offset="1" style="stop-color:#0E0D15"/>
				</linearGradient>
				<polygon class="st27" points="81.3,292.7 92.8,276.6 93.1,227 80.1,193.5 				"/>
				
					<linearGradient id="SVGID_23_" gradientUnits="userSpaceOnUse" x1="2358.4626" y1="-8701.8037" x2="2414.3225" y2="-8701.8037" gradientTransform="matrix(0.3709 0.9287 -0.9287 0.3709 -8843.791 1211.2566)">
					<stop  offset="0" style="stop-color:#D8D6CD"/>
					<stop  offset="1" style="stop-color:#D8D6CD;stop-opacity:0"/>
				</linearGradient>
				<path class="st28" d="M127.8,170.7c-29.4-0.8-27.8,36.2-29,47.3l56-0.5C152.7,205.1,150.4,171.4,127.8,170.7z"/>
				<polygon class="st4" points="171.2,188.5 157.2,226.4 156.4,277.4 172.5,292.7 				"/>
				
					<linearGradient id="SVGID_24_" gradientUnits="userSpaceOnUse" x1="367.5082" y1="-8272.8926" x2="433.1197" y2="-8272.8926" gradientTransform="matrix(8.454138e-03 1 -1 8.454138e-03 -8112.5508 -72.2359)">
					<stop  offset="0" style="stop-color:#D8D6CD"/>
					<stop  offset="1" style="stop-color:#D8D6CD;stop-opacity:0"/>
				</linearGradient>
				<path class="st29" d="M164.3,225.3c-3.9,0-7.4,39.9-7.3,53l13.3,12.6C170.2,277.7,168.2,225.3,164.3,225.3z"/>
				
					<linearGradient id="SVGID_25_" gradientUnits="userSpaceOnUse" x1="500.2986" y1="-9094.5674" x2="503.1443" y2="-9094.5674" gradientTransform="matrix(8.454138e-03 1 -1 8.454138e-03 -8938.4102 -86.9035)">
					<stop  offset="0" style="stop-color:#FDA909"/>
					<stop  offset="1" style="stop-color:#FEC23E"/>
				</linearGradient>
				<polygon class="st30" points="152.9,339.4 152.9,336.6 167.2,336.4 167.3,339.3 				"/>
				
					<linearGradient id="SVGID_26_" gradientUnits="userSpaceOnUse" x1="500.3009" y1="-9030.4688" x2="503.1467" y2="-9030.4688" gradientTransform="matrix(8.454138e-03 1 -1 8.454138e-03 -8938.4102 -86.9035)">
					<stop  offset="0" style="stop-color:#FDA909"/>
					<stop  offset="1" style="stop-color:#FEC23E"/>
				</linearGradient>
				<polygon class="st31" points="88.8,339.9 88.8,337.1 103.1,337 103.2,339.8 				"/>
				<path class="st4" d="M88.3,292.8c6.4-7.6,12-12.5,12-12.5l49.7,0c0,0,1.7,1.4,12,11.3c8.9,8.5-2.6,7.9-2.6,7.9l-69.8,1
					C89.6,300.6,81.9,300.5,88.3,292.8z"/>
				
					<linearGradient id="SVGID_27_" gradientUnits="userSpaceOnUse" x1="-1346.5837" y1="1126.2672" x2="-1318.1791" y2="1126.2672" gradientTransform="matrix(-0.3709 -0.9287 0.9287 -0.3709 -1413.8007 -534.4034)">
					<stop  offset="0" style="stop-color:#D8D6CD"/>
					<stop  offset="1" style="stop-color:#D8D6CD;stop-opacity:0"/>
				</linearGradient>
				<path class="st32" d="M123.8,294.3c29.4,0.8,24.9-2.8,26.2-13.9l-49.7,0C102.3,292.8,101.2,293.6,123.8,294.3z"/>
				<g>
					<defs>
						<path id="SVGID_28_" d="M74.1,171.4c0,0-0.4-52.3,52.8-48.6c45.8,3.2,49.8,35.8,49.9,40.7c0.1,4.9-0.5,7-0.5,7L74.1,171.4z"/>
					</defs>
					<clipPath id="SVGID_29_">
						<use xlink:href="#SVGID_28_"  style="overflow:visible;"/>
					</clipPath>
					
						<linearGradient id="SVGID_30_" gradientUnits="userSpaceOnUse" x1="5950.4839" y1="-3565.0415" x2="6048.3296" y2="-3565.0415" gradientTransform="matrix(1 -8.454138e-03 8.454138e-03 1 -5890.376 3763.4893)">
						<stop  offset="0" style="stop-color:#2F2829;stop-opacity:0"/>
						<stop  offset="1" style="stop-color:#635A58"/>
					</linearGradient>
					<path class="st33" d="M127.6,147.4c0.2,27.1-21.5,49.3-48.5,49.5S30,175.4,29.8,148.3S51.2,99,78.3,98.7
						S127.4,120.3,127.6,147.4z"/>
				</g>
				
					<linearGradient id="SVGID_31_" gradientUnits="userSpaceOnUse" x1="6121.4014" y1="-3601.5205" x2="6139.1074" y2="-3601.5205" gradientTransform="matrix(0.9999 -1.629517e-02 1.629517e-02 0.9999 -5969.0098 3828.9746)">
					<stop  offset="0" style="stop-color:#FDA909"/>
					<stop  offset="1" style="stop-color:#F3FA44"/>
				</linearGradient>
				<polygon class="st34" points="110.7,132.9 93,133.2 92.8,123.2 110.5,122.9 				"/>
				
					<linearGradient id="SVGID_32_" gradientUnits="userSpaceOnUse" x1="328.826" y1="-9054.4316" x2="336.7067" y2="-9054.4316" gradientTransform="matrix(1.629517e-02 0.9999 -0.9999 1.629517e-02 -8956.4268 -54.8554)">
					<stop  offset="0" style="stop-color:#3CA27E"/>
					<stop  offset="0.9731" style="stop-color:#2A715E"/>
				</linearGradient>
				<polygon class="st35" points="91.4,134.4 91.2,126.6 113.1,126.2 113.2,134.1 				"/>
				
					<linearGradient id="SVGID_33_" gradientUnits="userSpaceOnUse" x1="1194.0331" y1="-4268.8623" x2="1356.0485" y2="-4268.8623" gradientTransform="matrix(-0.8512 -0.5248 0.5248 -0.8512 3435.8025 -2697.1348)">
					<stop  offset="0" style="stop-color:#2F2829;stop-opacity:0"/>
					<stop  offset="1" style="stop-color:#635A58"/>
				</linearGradient>
				<path class="st36" d="M169.5,322.6c0.1-1.3,4.3-13.3,3.2-20.1c-2.2-13.3-18.9-27.4-18.9-27.4c-7.6-0.3-53.5-0.6-53.5-0.6
					s2.5-11.1,2-14.1c-2-12.3,1.5-23.4,5.3-26.2c1.8-1.3,3.9-2.2,6-3.1c4.3-1.8,8.5-3.5,12.8-5.3c3.4-1.4,6.7-2.8,10.2-3.9
					c6-1.9,12-4.3,18.3-4.4c-14.6,0.3-21.8,0.1-36,0.3c-2.7,0-20,0.2-20,0.2l-18.7-46.7l-6.3,0.4l4.6,17.5L93.1,227l-0.3,49.6
					c0,0-17.5,16.1-15.1,37.4c2,17.8,15.2,18.8,15.2,18.8l67.9-0.3C160.8,332.4,168.5,332.1,169.5,322.6z"/>
			</g>
		</g>
		<linearGradient id="SVGID_34_" gradientUnits="userSpaceOnUse" x1="22.5051" y1="216.0616" x2="83.278" y2="216.0616">
			<stop  offset="2.694515e-02" style="stop-color:#2A715E"/>
			<stop  offset="1" style="stop-color:#3CA27E"/>
		</linearGradient>
		<polygon class="st37" points="80.1,193.5 83.3,201.8 22.5,238.6 22.5,227.4 		"/>
	</g>
</g>
</svg>
