<?xml version="1.0" encoding="utf-8"?>
<!-- Generator: Adobe Illustrator 22.0.1, SVG Export Plug-In . SVG Version: 6.00 Build 0)  -->
<svg version="1.1" id="Layer_1" xmlns="http://www.w3.org/2000/svg" xmlns:xlink="http://www.w3.org/1999/xlink" x="0px" y="0px"
	 viewBox="0 0 78.9 108.8" style="enable-background:new 0 0 78.9 108.8;" xml:space="preserve">
<g>
	
		<linearGradient id="SVGID_1_" gradientUnits="userSpaceOnUse" x1="805.6755" y1="-72.8542" x2="808.2487" y2="-73.1867" gradientTransform="matrix(-0.5595 -0.2262 0.2331 -0.5767 513.6722 231.9437)">
		<stop  offset="0" style="stop-color:#D9D9D8"/>
		<stop  offset="1" style="stop-color:#E5E5E4"/>
	</linearGradient>
	<path style="fill:url(#SVGID_1_);" d="M46.3,86.1l0.9,0.4L44,96.6c-0.1,0.2-0.3,0.3-0.5,0.2l-0.2-0.1c-0.2-0.1-0.3-0.3-0.2-0.5
		L46.3,86.1z"/>
	<linearGradient id="SVGID_2_" gradientUnits="userSpaceOnUse" x1="42.3982" y1="78.8081" x2="55.1457" y2="73.4249">
		<stop  offset="0" style="stop-color:#EE4050"/>
		<stop  offset="1" style="stop-color:#D72538"/>
	</linearGradient>
	<path style="fill:url(#SVGID_2_);" d="M48.2,62.9c-1,0-1.8,0.8-1.8,1.8c-0.2,5.6-0.7,21.9-0.1,23.4c0.5,1.4,3,1.4,4.2,0.9
		c0.2-0.1,1-0.9,1-1.5c0.1-4.1-0.1-17.7-0.2-22.8c0-1-0.8-1.8-1.8-1.8L48.2,62.9z"/>
	<g>
		<defs>
			<path id="SVGID_3_" d="M40.9,91.4c0.7,0,3.3,1,2.1,2.3c-0.5,0.6-0.3,1-1,1.2c-0.8,0.3-1.9,0-2.7,0.1c-0.5,0.1-1.1-0.1-1.6-0.3
				c-0.5-0.2-0.9-0.6-1-1.1c0-0.4,0.2-0.8,0.5-1.1c0.3-0.3,0.7-0.5,1.1-0.6C39.1,91.6,40,91.4,40.9,91.4z"/>
		</defs>
		<clipPath id="SVGID_4_">
			<use xlink:href="#SVGID_3_"  style="overflow:visible;"/>
		</clipPath>
		
			<linearGradient id="SVGID_5_" gradientUnits="userSpaceOnUse" x1="-2392.2031" y1="537.0026" x2="-2375.0276" y2="537.0026" gradientTransform="matrix(1 0 0 1 2432.1917 -455.9269)">
			<stop  offset="0" style="stop-color:#737374;stop-opacity:0"/>
			<stop  offset="1" style="stop-color:#414242"/>
		</linearGradient>
		<path style="opacity:0.3;clip-path:url(#SVGID_4_);fill:url(#SVGID_5_);" d="M49.3,72.6c-0.5,1.1-0.7,2.3-0.8,3.5
			c-0.2,4,0.5,8.2,3.9,10.4c0.6,0.4,1.6,1.1,2.3,1.3c1,0.3,2.5,0.8,2.4,1.5c-0.2,1.1-2.9,2.3-4.1,2.5c-2.4,0.5-10.2-2.2-11.5-4.3
			c-1.3-2.1-1.9-4.4-1.6-6.9c0.3-2.3,4.9-4.6,6.2-6.6c0.9-1.4,2.2-2.6,3.7-3.3c0.5-0.2,2-0.9,1,0C50.3,71.3,49.7,71.8,49.3,72.6z"/>
		
			<linearGradient id="SVGID_6_" gradientUnits="userSpaceOnUse" x1="-2372.6428" y1="551.7893" x2="-2396.4814" y2="527.9507" gradientTransform="matrix(1 0 0 1 2432.1917 -455.9269)">
			<stop  offset="0" style="stop-color:#8E2D37"/>
			<stop  offset="1" style="stop-color:#781A26"/>
		</linearGradient>
		<polygon style="clip-path:url(#SVGID_4_);fill:url(#SVGID_6_);" points="34.1,97.2 61.2,94.2 61.2,70.7 34.1,73.7 		"/>
	</g>
	<g>
		<defs>
			<path id="SVGID_7_" d="M52.5,9.9c-0.6-1.5,0-3.5-0.9-4.8c-0.7-1-1.8-1.3-3-1.5c-0.9-0.1-3.5,0.2-4,1.5c-0.2,0.6,0,2.2,0,3
				c-0.1,2.1-1.4,2.3-0.7,4.6c0.2,0.8,1.3,1.3,1.9,1.7c0.6,0.4-1.1,5.6-1.1,5.6s1.6,6.5,3.2,6.5c1.6,0,4.2-6,4.2-6s-1.4-5.8-1-6
				c0.8-0.3,1.5-0.9,1.8-1.7C53.3,11.9,52.9,10.8,52.5,9.9z"/>
		</defs>
		<linearGradient id="SVGID_8_" gradientUnits="userSpaceOnUse" x1="43.7489" y1="15.0364" x2="53.0672" y2="15.0364">
			<stop  offset="0" style="stop-color:#FAB23E"/>
			<stop  offset="1" style="stop-color:#FAB220"/>
		</linearGradient>
		<use xlink:href="#SVGID_7_"  style="overflow:visible;fill:url(#SVGID_8_);"/>
		<clipPath id="SVGID_9_">
			<use xlink:href="#SVGID_7_"  style="overflow:visible;"/>
		</clipPath>
		
			<linearGradient id="SVGID_10_" gradientUnits="userSpaceOnUse" x1="-2388.9768" y1="471.5777" x2="-2377.8494" y2="471.2419" gradientTransform="matrix(1 0 0 1 2432.1917 -455.9269)">
			<stop  offset="0" style="stop-color:#FAB23E"/>
			<stop  offset="1" style="stop-color:#FAB220"/>
		</linearGradient>
		<rect x="43.6" y="3.3" style="clip-path:url(#SVGID_9_);fill:url(#SVGID_10_);" width="10.4" height="24.5"/>
		
			<linearGradient id="SVGID_11_" gradientUnits="userSpaceOnUse" x1="-2388.187" y1="474.4853" x2="-2380.5999" y2="474.4853" gradientTransform="matrix(1 0 0 1 2432.1917 -455.9269)">
			<stop  offset="0" style="stop-color:#FAB23E"/>
			<stop  offset="1" style="stop-color:#FAB220"/>
		</linearGradient>
		<path style="opacity:0.3;clip-path:url(#SVGID_9_);fill:url(#SVGID_11_);" d="M45.8,14.4c1.8,0.7,3.6,0.2,5.7,0.2l0,3.2
			c0,0-5,6-6.1,6.1C44.6,24,44,13.2,44,13.2S44.5,13.9,45.8,14.4z"/>
	</g>
	<linearGradient id="SVGID_12_" gradientUnits="userSpaceOnUse" x1="55.5003" y1="45.1686" x2="40.8114" y2="45.1686">
		<stop  offset="0" style="stop-color:#151B26"/>
		<stop  offset="1" style="stop-color:#151B26"/>
	</linearGradient>
	<path style="fill:url(#SVGID_12_);" d="M40.8,44.8c1.3,0,1.6-0.3,1.7,1.1c0.1,0.6,0.3,1.3,0.8,1.7c1.5,1.3,3.1,1.3,5,1.3
		c1.6,0,3.4-0.1,4.8-0.8c0.5-0.3,1-1,1.1-1.5c0.3-1.2-0.6-1.8,1.2-1.8c2.1,0,2.1-3.3,0-3.3c-1.5,0-2.7,0.2-3.8,1.3
		c-1.5,1.6,0.7,2.5-2.2,2.7c-0.6,0.1-3.6,0.3-3.7-0.7c-0.1-0.7-0.1-1.4-0.5-2c-0.9-1.5-2.9-1.4-4.4-1.4
		C38.7,41.5,38.7,44.8,40.8,44.8L40.8,44.8z"/>
	
		<linearGradient id="SVGID_13_" gradientUnits="userSpaceOnUse" x1="-1398.389" y1="-8805.6309" x2="-1388.3197" y2="-8809.8828" gradientTransform="matrix(1.084854e-02 -0.6034 0.3404 6.119483e-03 3053.1958 -691.0109)">
		<stop  offset="0" style="stop-color:#414141"/>
		<stop  offset="1" style="stop-color:#646464"/>
	</linearGradient>
	<path style="fill:url(#SVGID_13_);" d="M44,95.4l0,1.1c0,0.2-0.2,0.4-0.4,0.4l-6.8-0.1c-0.2,0-0.4-0.2-0.4-0.4l0-1.1
		c0-0.2,0.2-0.4,0.4-0.4l6.8,0.1C43.8,95,44,95.1,44,95.4z"/>
	<linearGradient id="SVGID_14_" gradientUnits="userSpaceOnUse" x1="50.8454" y1="85.1932" x2="46.7208" y2="85.1932">
		<stop  offset="0" style="stop-color:#151B26"/>
		<stop  offset="1" style="stop-color:#151B26"/>
	</linearGradient>
	<path style="fill:url(#SVGID_14_);" d="M49.1,104.4h-0.7c-1,0-1.7-0.8-1.7-1.7V67.7c0-1,0.8-1.7,1.7-1.7h0.7c1,0,1.7,0.8,1.7,1.7
		v34.9C50.8,103.6,50.1,104.4,49.1,104.4z"/>
	<g>
		<linearGradient id="SVGID_15_" gradientUnits="userSpaceOnUse" x1="44.1038" y1="81.6512" x2="46.5476" y2="81.6512">
			<stop  offset="0" style="stop-color:#D9D9D8"/>
			<stop  offset="1" style="stop-color:#E5E5E4"/>
		</linearGradient>
		<path style="fill:url(#SVGID_15_);" d="M45.8,77.2c0,1.7-1.6,3.4-1.7,5.1c0,1.4-0.1,2.8,0.2,4.1c0.1,0.3,0.2,0.7,0.5,0.8
			c0.3,0.1,0.7-0.1,0.9-0.4s0.2-0.7,0.2-1c0.1-1.3,0.1-2.6,0.2-3.9c0-0.4-0.1-1.5-0.1-1.6c-0.1-0.1,0.5-2.6,0.5-2.7
			C46.5,75.2,45.8,76.1,45.8,77.2z"/>
	</g>
	<g>
		
			<linearGradient id="SVGID_16_" gradientUnits="userSpaceOnUse" x1="7877.9653" y1="81.6512" x2="7880.4092" y2="81.6512" gradientTransform="matrix(-1 0 0 1 7931.2109 0)">
			<stop  offset="0" style="stop-color:#D9D9D8"/>
			<stop  offset="1" style="stop-color:#E5E5E4"/>
		</linearGradient>
		<path style="fill:url(#SVGID_16_);" d="M51.6,77.2c0,1.7,1.6,3.4,1.7,5.1c0,1.4,0.1,2.8-0.2,4.1c-0.1,0.3-0.2,0.7-0.5,0.8
			c-0.3,0.1-0.7-0.1-0.9-0.4c-0.2-0.3-0.2-0.7-0.2-1c-0.1-1.3-0.1-2.6-0.2-3.9c0-0.4,0.1-1.5,0.1-1.6c0.1-0.1-0.5-2.6-0.5-2.7
			C50.9,75.2,51.5,76.1,51.6,77.2z"/>
	</g>
	<linearGradient id="SVGID_17_" gradientUnits="userSpaceOnUse" x1="45.7902" y1="83.8865" x2="46.7251" y2="83.8865">
		<stop  offset="0" style="stop-color:#757575"/>
		<stop  offset="1" style="stop-color:#757575"/>
	</linearGradient>
	<path style="fill:url(#SVGID_17_);" d="M46.7,83.7c0,1.6-0.1,2.5-0.5,2.5c-0.5,0-0.5-0.8-0.5-2.5s0.2-2,0.5-2S46.7,82,46.7,83.7z"
		/>
	<linearGradient id="SVGID_18_" gradientUnits="userSpaceOnUse" x1="50.8018" y1="83.8865" x2="51.7367" y2="83.8865">
		<stop  offset="0" style="stop-color:#757575"/>
		<stop  offset="1" style="stop-color:#757575"/>
	</linearGradient>
	<path style="fill:url(#SVGID_18_);" d="M51.7,83.7c0,1.6-0.1,2.5-0.5,2.5c-0.5,0-0.5-0.8-0.5-2.5s0.2-2,0.5-2
		C51.5,81.7,51.7,82,51.7,83.7z"/>
	<g>
		<defs>
			<path id="SVGID_19_" d="M45.9,11.6c1.6,0.4,6.5,0.2,7-1.8s1.6-9-4.7-9.1c-3.7-0.1-4.4,2.6-4.8,4.7S43,10.8,45.9,11.6z"/>
		</defs>
		<clipPath id="SVGID_20_">
			<use xlink:href="#SVGID_19_"  style="overflow:visible;"/>
		</clipPath>
		<g style="clip-path:url(#SVGID_20_);">
			
				<linearGradient id="SVGID_21_" gradientUnits="userSpaceOnUse" x1="-2396.4675" y1="54.2137" x2="-2381.6958" y2="40.4592" gradientTransform="matrix(0.9973 -7.369055e-02 7.369055e-02 0.9973 2426.1594 -215.8928)">
				<stop  offset="0" style="stop-color:#414242"/>
				<stop  offset="1" style="stop-color:#737374"/>
			</linearGradient>
			<polygon style="fill:url(#SVGID_21_);" points="40.2,14.7 54.3,14.4 54,0 39.1,1 			"/>
		</g>
		
			<linearGradient id="SVGID_22_" gradientUnits="userSpaceOnUse" x1="-2397.9514" y1="47.3396" x2="-2383.3499" y2="47.3396" gradientTransform="matrix(0.9973 -7.369055e-02 7.369055e-02 0.9973 2426.1594 -215.8928)">
			<stop  offset="0" style="stop-color:#414242;stop-opacity:0"/>
			<stop  offset="1" style="stop-color:#737374"/>
		</linearGradient>
		<path style="opacity:0.75;clip-path:url(#SVGID_20_);fill:url(#SVGID_22_);" d="M43.8,0.6c0,0,1.2,3,3,2.4c2.9-1,4.9,1,5.5,2.6
			c0.4,1.1,0.8,3.1,0.4,4.3c-0.5,1.2-1.3,2.2-2.4,2.8c-1.3,0.7-7.2,1.9-7.2,1.9l-5-8.3L43.8,0.6z"/>
	</g>
	<linearGradient id="SVGID_23_" gradientUnits="userSpaceOnUse" x1="66.3461" y1="43.1168" x2="54.2334" y2="43.1168">
		<stop  offset="0" style="stop-color:#151B26"/>
		<stop  offset="1" style="stop-color:#151B26"/>
	</linearGradient>
	<path style="fill:url(#SVGID_23_);" d="M65.1,44.5h-9.7c-0.7,0-1.2-0.5-1.2-1.2v-0.5c0-0.7,0.5-1.2,1.2-1.2h9.7
		c0.7,0,1.2,0.5,1.2,1.2v0.5C66.3,44,65.8,44.5,65.1,44.5z"/>
	<linearGradient id="SVGID_24_" gradientUnits="userSpaceOnUse" x1="48.1512" y1="60.6133" x2="49.614" y2="60.6133">
		<stop  offset="0" style="stop-color:#D9D9D8"/>
		<stop  offset="1" style="stop-color:#E5E5E4"/>
	</linearGradient>
	<path style="fill:url(#SVGID_24_);" d="M49,64.4h-0.2c-0.3,0-0.6-0.3-0.6-0.6v-6.3c0-0.3,0.3-0.6,0.6-0.6H49c0.3,0,0.6,0.3,0.6,0.6
		v6.3C49.6,64.1,49.3,64.4,49,64.4z"/>
	<linearGradient id="SVGID_25_" gradientUnits="userSpaceOnUse" x1="46.4052" y1="75.4759" x2="51.1269" y2="75.4759">
		<stop  offset="0" style="stop-color:#EE4050"/>
		<stop  offset="1" style="stop-color:#D72538"/>
	</linearGradient>
	<path style="fill:url(#SVGID_25_);" d="M49.1,85.5h-0.8c-1.1,0-2-0.9-2-2V67.4c0-1.1,0.9-2,2-2h0.8c1.1,0,2,0.9,2,2v16.1
		C51.1,84.6,50.2,85.5,49.1,85.5z"/>
	<linearGradient id="SVGID_26_" gradientUnits="userSpaceOnUse" x1="43.1606" y1="57.1231" x2="54.9241" y2="57.1231">
		<stop  offset="0" style="stop-color:#151B26"/>
		<stop  offset="1" style="stop-color:#151B26"/>
	</linearGradient>
	<path style="fill:url(#SVGID_26_);" d="M50.3,55.1c-0.9,0.1-1.8,0.1-2.7,0C47,55.1,46.4,55,45.8,55c-1.3,0.1-2.3,1-2.6,2.1
		c-0.1,0.3-0.1,0.6,0,0.9c0.2,0.8,1.2,1.3,2.1,1.4c0.9,0.1,1.8-0.2,2.7-0.4c0.9-0.2,1.9-0.4,2.7-0.2c0.6,0.1,1.1,0.4,1.7,0.5
		c1.1,0,2.2-1.3,2.4-2.3c0.1-0.7-0.1-1.5-0.7-2C53.2,54.4,51.5,55,50.3,55.1z"/>
	
		<linearGradient id="SVGID_27_" gradientUnits="userSpaceOnUse" x1="7918.8091" y1="33.9564" x2="7933.9878" y2="33.9564" gradientTransform="matrix(-1 0 0 1 7992.7842 0)">
		<stop  offset="0" style="stop-color:#FFC75B"/>
		<stop  offset="1" style="stop-color:#FBB324"/>
	</linearGradient>
	<path style="fill:url(#SVGID_27_);" d="M59.1,42c0-0.2-0.3-0.4-0.3-0.6c0-0.2,0-0.4,0.2-0.5c0.2-0.1,0.4-0.1,0.6,0
		c0.1,0,0.2,0.1,0.2,0.1c0.1,0,0.1,0.1,0.1,0.2c0.1-0.4,0.3-0.9,0.6-1.2c1-1.1,2.9-1,3.4-0.9c1,0.1,1,0.6,1.1,1.1
		c0.1,0.4,0.1,0.1,0.8,0c2-0.2,1.7-2.8,1.7-2.8c-0.1-0.5-3.2-5.6-3.8-7.1c-0.6-1.4,0.8-6.1,1.5-6.6c0,0,8.8,12.2,8.8,14.4
		c0,1.7-2.4,5.1-6.9,6c-1.5,0.3-1,0.1-1.9,0.2c-0.7,0-2.5-1.2-2.6-1.2c-1.6,0-2.4-0.3-2.9-0.3c0,0-0.1,0-0.2,0
		c-0.2,0-0.3-0.1-0.4-0.3C59.1,42.3,59.1,42.1,59.1,42z"/>
	
		<linearGradient id="SVGID_28_" gradientUnits="userSpaceOnUse" x1="7921.1348" y1="35.5277" x2="7934.0142" y2="35.5277" gradientTransform="matrix(-1 0 0 1 7992.7842 0)">
		<stop  offset="0" style="stop-color:#414141"/>
		<stop  offset="0.2258" style="stop-color:#414141"/>
		<stop  offset="1" style="stop-color:#737373;stop-opacity:0"/>
	</linearGradient>
	<path style="opacity:0.3;fill:url(#SVGID_28_);" d="M63.4,39c0.3,0,0.8,0.1,1.1,0.2c0.3,0.1,0.5,0.8,0.5,1.1
		c0.8-0.3,1.5-0.2,1.9-0.8c0.6-0.8,0.7-2,0.4-2.6c-0.5-1-3.1-5.2-3.2-5.5c-0.1-0.3-0.6-1.2-0.6-1.5c-0.1-1.3,0.1-1.8,0.3-3.1
		c1.2,1.2,2.5,2.4,3.4,3.9c0.4,0.6,0.7,1.3,1.1,1.9c0.4,0.6,1,1,1.3,1.6c0.2,0.3,0.3,0.6,0.5,1c0.9,2.4,2.4,5.1,0.8,7.2
		c-1.8,1.1-3.5,2-6.1,1.8C63.1,44,62.8,43,62.3,43c-0.8-0.1-1.4-0.1-2.2-0.3c-0.2-0.1-0.8,0-0.9-0.2c-0.1-0.1-0.1-0.3-0.2-0.4
		c-0.1-0.5-0.4-0.5-0.2-1c0.1,0,0.1-0.3,0.2-0.3c0,0.1,0.6,0,0.6,0.1c0.2,0.1,0.3,0.3,0.3,0.3c0.1-0.8,0.8-1.6,1.5-1.8
		C62,39.1,62.7,39,63.4,39z"/>
	
		<linearGradient id="SVGID_29_" gradientUnits="userSpaceOnUse" x1="-1385.865" y1="-8757.2432" x2="-1375.7957" y2="-8761.4961" gradientTransform="matrix(1.084854e-02 -0.6034 0.3404 6.119483e-03 3053.1958 -691.0109)">
		<stop  offset="0" style="stop-color:#414141"/>
		<stop  offset="1" style="stop-color:#646464"/>
	</linearGradient>
	<path style="fill:url(#SVGID_29_);" d="M60.6,88.1l0,1.1c0,0.2-0.2,0.4-0.4,0.4l-6.8-0.1c-0.2,0-0.4-0.2-0.4-0.4l0-1.1
		c0-0.2,0.2-0.4,0.4-0.4l6.8,0.1C60.4,87.7,60.6,87.9,60.6,88.1z"/>
	<linearGradient id="SVGID_30_" gradientUnits="userSpaceOnUse" x1="52.7034" y1="85.964" x2="59.8946" y2="85.964">
		<stop  offset="0" style="stop-color:#8E2D37"/>
		<stop  offset="1" style="stop-color:#781A26"/>
	</linearGradient>
	<path style="fill:url(#SVGID_30_);" d="M58.3,87.4c0.4-0.1,0.8-0.3,1.1-0.6c0.3-0.3,0.5-0.7,0.5-1.1c0-0.5-0.4-1-0.9-1.2
		c-0.5-0.2-1-0.2-1.5-0.2c-0.9,0.1-1.7,0.2-2.5,0.4c-0.7,0.2-1.4-1.2-1.9-0.6c-1.2,1.2,2,3.5,2.6,3.5C56.5,87.8,57.4,87.7,58.3,87.4
		z"/>
	<g>
		<defs>
			<path id="SVGID_32_" d="M36.3,65.3c1.8,14.7-3.2,27,3.9,28.8c3.2,0.8,1.7-3.2,1.7-3.2s1.5-10.7,2.1-14.6c0.8-6,1-15.9,1-16.9
				c0,0-1-0.2-1.4-0.7c-0.6-0.7-0.5-1.6,0.1-2.2c0.5-0.4,2,0.1,2.8-0.1c2.7-0.5,1.9-1.5,3.3-0.8c0.4,0.2,1.2,0.9,1.7,0.9
				c1.5,0.2,3.4-0.5,3.4,0.1c0,1.4-1.7,2.5-1.7,2.5c1.8,3.1,4.6,8.1,3.2,10.6c-5.3,9.4-3.7,16.4-3.7,16.4s3.1,5.6,5.8-4.4
				c2.1-7.6,5.2-5.5,7.1-14.9c0.6-3-4.4-13.7-7.4-19.3c-1.6-3-3.4,0-7.9,0c-7.7,0-11.4-1.3-11.4-1.3S35.8,61.3,36.3,65.3z"/>
		</defs>
		<clipPath id="SVGID_31_">
			<use xlink:href="#SVGID_32_"  style="overflow:visible;"/>
		</clipPath>
		
			<linearGradient id="SVGID_33_" gradientUnits="userSpaceOnUse" x1="-2415.9204" y1="534.0522" x2="-2353.3169" y2="534.0522" gradientTransform="matrix(1 0 0 1 2432.1917 -455.9269)">
			<stop  offset="0" style="stop-color:#24324C"/>
			<stop  offset="1" style="stop-color:#3E537D"/>
		</linearGradient>
		<polygon style="clip-path:url(#SVGID_31_);fill:url(#SVGID_33_);" points="16.4,108.8 78.9,108.8 78.8,47.5 16.3,47.5 		"/>
		
			<linearGradient id="SVGID_34_" gradientUnits="userSpaceOnUse" x1="-2392.7617" y1="532.7506" x2="-2369.7686" y2="532.7506" gradientTransform="matrix(1 0 0 1 2432.1917 -455.9269)">
			<stop  offset="0" style="stop-color:#414242"/>
			<stop  offset="0.4135" style="stop-color:#434444;stop-opacity:0.5865"/>
			<stop  offset="0.633" style="stop-color:#4B4C4C;stop-opacity:0.367"/>
			<stop  offset="0.807" style="stop-color:#59595A;stop-opacity:0.193"/>
			<stop  offset="0.9561" style="stop-color:#6C6C6D;stop-opacity:4.391211e-02"/>
			<stop  offset="1" style="stop-color:#737374;stop-opacity:0"/>
		</linearGradient>
		<path style="opacity:0.3;clip-path:url(#SVGID_31_);fill:url(#SVGID_34_);" d="M41.9,67c0-1.2,0.7-10.7,1.7-11.3
			c6.1-3.8,11.9-1.7,17.3,9.2c3.2,6.5,0.5,1.2-2,7.9c-1.4,3.6-2.4,8.2-4,11.7c-1.5,3.5,2.3,5.8,4.2,9.2c0.5,0.8,1.1,1.6,1.5,2.5
			c0.4,0.9,0.3,2.1-0.4,2.7c-0.6,0.6-1.5,0.6-2.3,0.7c-3.2,0.2-6.4,0.4-9.5-0.3c-3.1-0.7-6.1-2.3-7.7-5c-1.4-2.4-1.6-5.5-1-8.2
			S41.9,73.5,41.9,67z"/>
	</g>
	<linearGradient id="SVGID_35_" gradientUnits="userSpaceOnUse" x1="9.094947e-13" y1="27.1569" x2="33.1409" y2="27.1569">
		<stop  offset="0" style="stop-color:#FFC75B"/>
		<stop  offset="1" style="stop-color:#FBB324"/>
	</linearGradient>
	<path style="fill:url(#SVGID_35_);" d="M20.4,26.2c-4.6,0.7-6-0.1-9.6-0.1c-1.7-0.6-1.2-1-2.4-1.8C7.7,24,7,23.6,6.2,23.3
		c-0.3-0.1-1.7-0.6-1.9-0.4c-0.7,0.6,1,1,0.8,1.1C4.8,24.1,5.6,24,5,24c-1.6,0-3.2-1.5-4.6-0.7c-0.7,0.8-0.5,2.1,0,3
		c0.6,0.9,1.5,1.6,2.4,2.2c1.1,0.8,2.6,0.9,3.9,1.1c4.2,0.8,1.9-1,9.9,0c0.3,0,3,0.9,5.5,1.4c2.9,0.5,3.4,0.5,6.4-0.1
		c1.2-0.2,3-0.3,4-0.9c0.2-0.1,0.4-0.3,0.5-0.5c0.4-0.5-0.3-1.5-0.3-2.1c0-1-0.7-2.7-0.7-3.7C29,23.7,20.9,26.1,20.4,26.2z"/>
	<linearGradient id="SVGID_36_" gradientUnits="userSpaceOnUse" x1="0.8117" y1="28.7658" x2="33.5106" y2="28.7658">
		<stop  offset="0" style="stop-color:#414141"/>
		<stop  offset="0.2258" style="stop-color:#414141"/>
		<stop  offset="1" style="stop-color:#737373;stop-opacity:0"/>
	</linearGradient>
	<path style="opacity:0.3;fill:url(#SVGID_36_);" d="M0.9,26.9c0.3,0.4,0.7,0.7,1.1,1c0.6,0.5,1.1,0.9,2,1.2
		c0.6,0.2,1.4,0.3,2.2,0.5c1.8,0.4,2.4,0.4,3.4,0.2c1.7-0.3,2.2-0.5,3.8-0.4c0.8,0,3.1,0.2,3.5,0.3c1.3,0.3,4.2,1.1,4.7,1.3
		c1.3,0.3,2.6,0.6,3.9,0.5c1.2,0,2.3-0.3,3.2-0.4c1.7-0.3,3.3-0.2,5-1.3c-0.6-1.1-1.4-2.4-1.3-3.7c-1.3,0.2-2.6,0.4-3.9,0.6
		c-0.6,0.1-1.3,0.2-1.9,0.3c-5.9,0.8-10.5,0.2-16.5,0.4c-0.6,0-2.5,1.1-3.1,1.1c-0.8,0-1.5,0-2.3-0.1c-0.7-0.1-1.3-0.4-1.9-0.6
		C1.5,27.3,0.5,26.4,0.9,26.9z"/>
	<linearGradient id="SVGID_37_" gradientUnits="userSpaceOnUse" x1="44.6383" y1="43.1168" x2="32.5256" y2="43.1168">
		<stop  offset="0" style="stop-color:#151B26"/>
		<stop  offset="1" style="stop-color:#151B26"/>
	</linearGradient>
	<path style="fill:url(#SVGID_37_);" d="M43.4,44.5h-9.7c-0.7,0-1.2-0.5-1.2-1.2v-0.5c0-0.7,0.5-1.2,1.2-1.2h9.7
		c0.7,0,1.2,0.5,1.2,1.2v0.5C44.6,44,44.1,44.5,43.4,44.5z"/>
	
		<linearGradient id="SVGID_38_" gradientUnits="userSpaceOnUse" x1="-2400.177" y1="489.8835" x2="-2366.9856" y2="489.8835" gradientTransform="matrix(1 0 0 1 2432.1917 -455.9269)">
		<stop  offset="0" style="stop-color:#EE4050"/>
		<stop  offset="1" style="stop-color:#D72538"/>
	</linearGradient>
	<path style="fill:url(#SVGID_38_);" d="M32.1,23.9c4.8-4,11-5.6,17.2-5.2s11.6,0.6,16,5c0,0-0.5,5.3-1.5,6c-1,0.7-6.1,0.2-6.1,0.2
		s1.3,15.6,0.6,17.9c-0.6,2.4-14.5,1.4-19.5-0.4c0,0,0.3-13.4,0.3-18.3c0,0-5.7,2.1-6.5,0.8C31.5,28.2,32.3,23.5,32.1,23.9z"/>
</g>
</svg>
