<?xml version="1.0" encoding="utf-8"?>
<!-- Generator: Adobe Illustrator 22.0.1, SVG Export Plug-In . SVG Version: 6.00 Build 0)  -->
<svg version="1.1" id="Layer_1" xmlns="http://www.w3.org/2000/svg" xmlns:xlink="http://www.w3.org/1999/xlink" x="0px" y="0px"
	 viewBox="0 0 62.6 114.9" style="enable-background:new 0 0 62.6 114.9;" xml:space="preserve">
<g>
	
		<linearGradient id="SVGID_1_" gradientUnits="userSpaceOnUse" x1="797.6093" y1="-82.5372" x2="800.1825" y2="-82.8698" gradientTransform="matrix(-0.5595 -0.2262 0.2331 -0.5767 495.145 230.7044)">
		<stop  offset="0" style="stop-color:#D9D9D8"/>
		<stop  offset="1" style="stop-color:#E5E5E4"/>
	</linearGradient>
	<path style="fill:url(#SVGID_1_);" d="M30.1,92.3l0.9,0.4l-3.3,10.1c-0.1,0.2-0.3,0.3-0.5,0.2l-0.2-0.1c-0.2-0.1-0.3-0.3-0.2-0.5
		L30.1,92.3z"/>
	<linearGradient id="SVGID_2_" gradientUnits="userSpaceOnUse" x1="26.1268" y1="84.977" x2="38.8744" y2="79.5938">
		<stop  offset="0" style="stop-color:#EE4050"/>
		<stop  offset="1" style="stop-color:#D72538"/>
	</linearGradient>
	<path style="fill:url(#SVGID_2_);" d="M32,69c-1,0-1.8,0.8-1.8,1.8C30,76.4,29.5,92.7,30,94.3c0.5,1.4,3,1.4,4.2,0.9
		c0.2-0.1,1-0.9,1-1.5c0.1-4.1-0.1-17.7-0.2-22.8c0-1-0.8-1.8-1.8-1.8L32,69z"/>
	<g>
		<defs>
			<path id="SVGID_3_" d="M24.6,97.6c0.7,0,3.3,1,2.1,2.3c-0.5,0.6-0.3,1-1,1.2c-0.8,0.3-1.9,0-2.7,0.1c-0.5,0.1-1.1-0.1-1.6-0.3
				c-0.5-0.2-0.9-0.6-1-1.1c0-0.4,0.2-0.8,0.5-1.1s0.7-0.5,1.1-0.6C22.8,97.7,23.7,97.6,24.6,97.6z"/>
		</defs>
		<clipPath id="SVGID_4_">
			<use xlink:href="#SVGID_3_"  style="overflow:visible;"/>
		</clipPath>
		
			<linearGradient id="SVGID_5_" gradientUnits="userSpaceOnUse" x1="-2408.4746" y1="543.1715" x2="-2391.2988" y2="543.1715" gradientTransform="matrix(1 0 0 1 2432.1917 -455.9269)">
			<stop  offset="0" style="stop-color:#737374;stop-opacity:0"/>
			<stop  offset="1" style="stop-color:#414242"/>
		</linearGradient>
		<path style="opacity:0.3;clip-path:url(#SVGID_4_);fill:url(#SVGID_5_);" d="M33,78.8c-0.5,1.1-0.7,2.3-0.8,3.5
			c-0.2,4,0.5,8.2,3.9,10.4c0.6,0.4,1.6,1.1,2.3,1.3c1,0.3,2.5,0.8,2.4,1.5c-0.2,1.1-2.9,2.3-4.1,2.5c-2.4,0.5-10.2-2.2-11.5-4.3
			c-1.3-2.1-1.9-4.4-1.6-6.9c0.3-2.3,4.9-4.6,6.2-6.6c0.9-1.4,2.2-2.6,3.7-3.3c0.5-0.2,2-0.9,1,0C34,77.4,33.4,77.9,33,78.8z"/>
		
			<linearGradient id="SVGID_6_" gradientUnits="userSpaceOnUse" x1="-2388.9143" y1="557.9583" x2="-2412.7529" y2="534.1196" gradientTransform="matrix(1 0 0 1 2432.1917 -455.9269)">
			<stop  offset="0" style="stop-color:#8E2D37"/>
			<stop  offset="1" style="stop-color:#781A26"/>
		</linearGradient>
		<polygon style="clip-path:url(#SVGID_4_);fill:url(#SVGID_6_);" points="17.8,103.4 44.9,100.4 44.9,76.8 17.8,79.9 		"/>
	</g>
	<g>
		<defs>
			<path id="SVGID_7_" d="M36.2,16c-0.6-1.5,0-3.5-0.9-4.8c-0.7-1-1.8-1.3-3-1.5c-0.9-0.1-3.5,0.2-4,1.5c-0.2,0.6,0,2.2,0,3
				c-0.1,2.1-1.4,2.3-0.7,4.6c0.2,0.8,1.3,1.3,1.9,1.7c0.6,0.4-1.1,5.6-1.1,5.6s1.6,6.5,3.2,6.5s4.2-6,4.2-6s-1.4-5.8-1-6
				c0.8-0.3,1.5-0.9,1.8-1.7C37,18.1,36.6,17,36.2,16z"/>
		</defs>
		<linearGradient id="SVGID_8_" gradientUnits="userSpaceOnUse" x1="27.4776" y1="21.2054" x2="36.7959" y2="21.2054">
			<stop  offset="0" style="stop-color:#FAB23E"/>
			<stop  offset="1" style="stop-color:#FAB220"/>
		</linearGradient>
		<use xlink:href="#SVGID_7_"  style="overflow:visible;fill:url(#SVGID_8_);"/>
		<clipPath id="SVGID_9_">
			<use xlink:href="#SVGID_7_"  style="overflow:visible;"/>
		</clipPath>
		
			<linearGradient id="SVGID_10_" gradientUnits="userSpaceOnUse" x1="-2405.248" y1="477.7467" x2="-2394.1206" y2="477.4109" gradientTransform="matrix(1 0 0 1 2432.1917 -455.9269)">
			<stop  offset="0" style="stop-color:#FAB23E"/>
			<stop  offset="1" style="stop-color:#FAB220"/>
		</linearGradient>
		<rect x="27.3" y="9.4" style="clip-path:url(#SVGID_9_);fill:url(#SVGID_10_);" width="10.4" height="24.5"/>
		
			<linearGradient id="SVGID_11_" gradientUnits="userSpaceOnUse" x1="-2404.4583" y1="480.6543" x2="-2396.8711" y2="480.6543" gradientTransform="matrix(1 0 0 1 2432.1917 -455.9269)">
			<stop  offset="0" style="stop-color:#FAB23E"/>
			<stop  offset="1" style="stop-color:#FAB220"/>
		</linearGradient>
		<path style="opacity:0.3;clip-path:url(#SVGID_9_);fill:url(#SVGID_11_);" d="M29.6,20.6c1.8,0.7,3.6,0.2,5.7,0.2l0,3.2
			c0,0-5,6-6.1,6.1c-0.9,0.1-1.5-10.6-1.5-10.6S28.2,20.1,29.6,20.6z"/>
	</g>
	<linearGradient id="SVGID_12_" gradientUnits="userSpaceOnUse" x1="39.229" y1="51.3375" x2="24.54" y2="51.3375">
		<stop  offset="0" style="stop-color:#151B26"/>
		<stop  offset="1" style="stop-color:#151B26"/>
	</linearGradient>
	<path style="fill:url(#SVGID_12_);" d="M24.5,50.9c1.3,0,1.6-0.3,1.7,1.1c0.1,0.6,0.3,1.3,0.8,1.7c1.5,1.3,3.1,1.3,5,1.3
		c1.6,0,3.4-0.1,4.8-0.8c0.5-0.3,1-1,1.1-1.5c0.3-1.2-0.6-1.8,1.2-1.8c2.1,0,2.1-3.3,0-3.3c-1.5,0-2.7,0.2-3.8,1.3
		c-1.5,1.6,0.7,2.5-2.2,2.7c-0.6,0.1-3.6,0.3-3.7-0.7c-0.1-0.7-0.1-1.4-0.5-2c-0.9-1.5-2.9-1.4-4.4-1.4C22.4,47.7,22.4,51,24.5,50.9
		L24.5,50.9z"/>
	
		<linearGradient id="SVGID_13_" gradientUnits="userSpaceOnUse" x1="-1419.0005" y1="-8817.7451" x2="-1408.9312" y2="-8821.9971" gradientTransform="matrix(1.084854e-02 -0.6034 0.3404 6.119483e-03 3041.2715 -697.2049)">
		<stop  offset="0" style="stop-color:#414141"/>
		<stop  offset="1" style="stop-color:#646464"/>
	</linearGradient>
	<path style="fill:url(#SVGID_13_);" d="M27.7,101.5l0,1.1c0,0.2-0.2,0.4-0.4,0.4l-6.8-0.1c-0.2,0-0.4-0.2-0.4-0.4l0-1.1
		c0-0.2,0.2-0.4,0.4-0.4l6.8,0.1C27.5,101.1,27.7,101.3,27.7,101.5z"/>
	<linearGradient id="SVGID_14_" gradientUnits="userSpaceOnUse" x1="34.574" y1="91.3622" x2="30.4495" y2="91.3622">
		<stop  offset="0" style="stop-color:#151B26"/>
		<stop  offset="1" style="stop-color:#151B26"/>
	</linearGradient>
	<path style="fill:url(#SVGID_14_);" d="M32.8,110.6h-0.7c-1,0-1.7-0.8-1.7-1.7V73.9c0-1,0.8-1.7,1.7-1.7h0.7c1,0,1.7,0.8,1.7,1.7
		v34.9C34.6,109.8,33.8,110.6,32.8,110.6z"/>
	<g>
		<linearGradient id="SVGID_15_" gradientUnits="userSpaceOnUse" x1="27.8324" y1="87.8201" x2="30.2763" y2="87.8201">
			<stop  offset="0" style="stop-color:#D9D9D8"/>
			<stop  offset="1" style="stop-color:#E5E5E4"/>
		</linearGradient>
		<path style="fill:url(#SVGID_15_);" d="M29.5,83.4c0,1.7-1.6,3.4-1.7,5.1c0,1.4-0.1,2.8,0.2,4.1c0.1,0.3,0.2,0.7,0.5,0.8
			c0.3,0.1,0.7-0.1,0.9-0.4c0.2-0.3,0.2-0.7,0.2-1c0.1-1.3,0.1-2.6,0.2-3.9c0-0.4-0.1-1.5-0.1-1.6c-0.1-0.1,0.5-2.6,0.5-2.7
			C30.2,81.4,29.6,82.3,29.5,83.4z"/>
	</g>
	<g>
		
			<linearGradient id="SVGID_16_" gradientUnits="userSpaceOnUse" x1="7870.7451" y1="87.8201" x2="7873.189" y2="87.8201" gradientTransform="matrix(-1 0 0 1 7907.7192 0)">
			<stop  offset="0" style="stop-color:#D9D9D8"/>
			<stop  offset="1" style="stop-color:#E5E5E4"/>
		</linearGradient>
		<path style="fill:url(#SVGID_16_);" d="M35.3,83.4c0,1.7,1.6,3.4,1.7,5.1c0,1.4,0.1,2.8-0.2,4.1c-0.1,0.3-0.2,0.7-0.5,0.8
			c-0.3,0.1-0.7-0.1-0.9-0.4s-0.2-0.7-0.2-1c-0.1-1.3-0.1-2.6-0.2-3.9c0-0.4,0.1-1.5,0.1-1.6c0.1-0.1-0.5-2.6-0.5-2.7
			C34.6,81.4,35.3,82.3,35.3,83.4z"/>
	</g>
	<linearGradient id="SVGID_17_" gradientUnits="userSpaceOnUse" x1="29.5189" y1="90.0555" x2="30.4538" y2="90.0555">
		<stop  offset="0" style="stop-color:#757575"/>
		<stop  offset="1" style="stop-color:#757575"/>
	</linearGradient>
	<path style="fill:url(#SVGID_17_);" d="M30.5,89.8c0,1.6-0.1,2.5-0.5,2.5c-0.5,0-0.5-0.8-0.5-2.5s0.2-2,0.5-2S30.5,88.2,30.5,89.8z
		"/>
	<linearGradient id="SVGID_18_" gradientUnits="userSpaceOnUse" x1="34.5305" y1="90.0555" x2="35.4654" y2="90.0555">
		<stop  offset="0" style="stop-color:#757575"/>
		<stop  offset="1" style="stop-color:#757575"/>
	</linearGradient>
	<path style="fill:url(#SVGID_18_);" d="M35.5,89.8c0,1.6-0.1,2.5-0.5,2.5c-0.5,0-0.5-0.8-0.5-2.5s0.2-2,0.5-2
		C35.3,87.8,35.5,88.2,35.5,89.8z"/>
	<g>
		<defs>
			<path id="SVGID_19_" d="M29.6,17.8c1.6,0.4,6.5,0.2,7-1.8c0.5-2,1.6-9-4.7-9.1c-3.7-0.1-4.4,2.6-4.8,4.7S26.7,17,29.6,17.8z"/>
		</defs>
		<clipPath id="SVGID_20_">
			<use xlink:href="#SVGID_19_"  style="overflow:visible;"/>
		</clipPath>
		<g style="clip-path:url(#SVGID_20_);">
			
				<linearGradient id="SVGID_21_" gradientUnits="userSpaceOnUse" x1="-2413.115" y1="60.0348" x2="-2398.3433" y2="46.2804" gradientTransform="matrix(0.9973 -7.369055e-02 7.369055e-02 0.9973 2426.0613 -216.7559)">
				<stop  offset="0" style="stop-color:#414242"/>
				<stop  offset="1" style="stop-color:#737374"/>
			</linearGradient>
			<polygon style="fill:url(#SVGID_21_);" points="23.9,20.9 38.1,20.6 37.7,6.2 22.9,7.1 			"/>
		</g>
		
			<linearGradient id="SVGID_22_" gradientUnits="userSpaceOnUse" x1="-2414.5986" y1="53.1607" x2="-2399.9971" y2="53.1607" gradientTransform="matrix(0.9973 -7.369055e-02 7.369055e-02 0.9973 2426.0613 -216.7559)">
			<stop  offset="0" style="stop-color:#414242;stop-opacity:0"/>
			<stop  offset="1" style="stop-color:#737374"/>
		</linearGradient>
		<path style="opacity:0.75;clip-path:url(#SVGID_20_);fill:url(#SVGID_22_);" d="M27.5,6.8c0,0,1.2,3,3,2.4c2.9-1,4.9,1,5.5,2.6
			c0.4,1.1,0.8,3.1,0.4,4.3c-0.5,1.2-1.3,2.2-2.4,2.8c-1.3,0.7-7.2,1.9-7.2,1.9l-5-8.3L27.5,6.8z"/>
	</g>
	<linearGradient id="SVGID_23_" gradientUnits="userSpaceOnUse" x1="50.0748" y1="49.2857" x2="37.962" y2="49.2857">
		<stop  offset="0" style="stop-color:#151B26"/>
		<stop  offset="1" style="stop-color:#151B26"/>
	</linearGradient>
	<path style="fill:url(#SVGID_23_);" d="M48.9,50.7h-9.7c-0.7,0-1.2-0.5-1.2-1.2v-0.5c0-0.7,0.5-1.2,1.2-1.2h9.7
		c0.7,0,1.2,0.5,1.2,1.2v0.5C50.1,50.2,49.5,50.7,48.9,50.7z"/>
	<linearGradient id="SVGID_24_" gradientUnits="userSpaceOnUse" x1="25.7366" y1="49.2857" x2="13.6238" y2="49.2857">
		<stop  offset="0" style="stop-color:#151B26"/>
		<stop  offset="1" style="stop-color:#151B26"/>
	</linearGradient>
	<path style="fill:url(#SVGID_24_);" d="M24.5,50.7h-9.7c-0.7,0-1.2-0.5-1.2-1.2v-0.5c0-0.7,0.5-1.2,1.2-1.2h9.7
		c0.7,0,1.2,0.5,1.2,1.2v0.5C25.7,50.2,25.2,50.7,24.5,50.7z"/>
	<linearGradient id="SVGID_25_" gradientUnits="userSpaceOnUse" x1="31.8799" y1="66.7823" x2="33.3426" y2="66.7823">
		<stop  offset="0" style="stop-color:#D9D9D8"/>
		<stop  offset="1" style="stop-color:#E5E5E4"/>
	</linearGradient>
	<path style="fill:url(#SVGID_25_);" d="M32.7,70.6h-0.2c-0.3,0-0.6-0.3-0.6-0.6v-6.3c0-0.3,0.3-0.6,0.6-0.6h0.2
		c0.3,0,0.6,0.3,0.6,0.6V70C33.3,70.3,33.1,70.6,32.7,70.6z"/>
	<linearGradient id="SVGID_26_" gradientUnits="userSpaceOnUse" x1="30.1339" y1="81.6448" x2="34.8555" y2="81.6448">
		<stop  offset="0" style="stop-color:#EE4050"/>
		<stop  offset="1" style="stop-color:#D72538"/>
	</linearGradient>
	<path style="fill:url(#SVGID_26_);" d="M32.9,91.7h-0.8c-1.1,0-2-0.9-2-2V73.6c0-1.1,0.9-2,2-2h0.8c1.1,0,2,0.9,2,2v16.1
		C34.9,90.8,34,91.7,32.9,91.7z"/>
	<linearGradient id="SVGID_27_" gradientUnits="userSpaceOnUse" x1="26.8893" y1="63.292" x2="38.6528" y2="63.292">
		<stop  offset="0" style="stop-color:#151B26"/>
		<stop  offset="1" style="stop-color:#151B26"/>
	</linearGradient>
	<path style="fill:url(#SVGID_27_);" d="M34,61.3c-0.9,0.1-1.8,0.1-2.7,0c-0.6-0.1-1.1-0.2-1.7-0.1c-1.3,0.1-2.3,1-2.6,2.1
		c-0.1,0.3-0.1,0.6,0,0.9c0.2,0.8,1.2,1.3,2.1,1.4c0.9,0.1,1.8-0.2,2.7-0.4c0.9-0.2,1.9-0.4,2.7-0.2c0.6,0.1,1.1,0.4,1.7,0.5
		c1.1,0,2.2-1.3,2.4-2.3c0.1-0.7-0.1-1.5-0.7-2C37,60.5,35.2,61.2,34,61.3z"/>
	
		<linearGradient id="SVGID_28_" gradientUnits="userSpaceOnUse" x1="7911.5889" y1="40.1254" x2="7926.7676" y2="40.1254" gradientTransform="matrix(-1 0 0 1 7969.293 0)">
		<stop  offset="0" style="stop-color:#FFC75B"/>
		<stop  offset="1" style="stop-color:#FBB324"/>
	</linearGradient>
	<path style="fill:url(#SVGID_28_);" d="M42.8,48.2c0-0.2-0.3-0.4-0.3-0.6c0-0.2,0-0.4,0.2-0.5c0.2-0.1,0.4-0.1,0.6,0
		c0.1,0,0.2,0.1,0.2,0.1c0.1,0,0.1,0.1,0.1,0.2c0.1-0.4,0.3-0.9,0.6-1.2c1-1.1,2.9-1,3.4-0.9c1,0.1,1,0.6,1.1,1.1
		c0.1,0.4,0.1,0.1,0.8,0c2-0.2,1.7-2.8,1.7-2.8c-0.1-0.5-3.2-5.6-3.8-7.1c-0.6-1.4,0.8-6.1,1.5-6.6c0,0,8.8,12.2,8.8,14.4
		c0,1.7-2.4,5.1-6.9,6c-1.5,0.3-1,0.1-1.9,0.2c-0.7,0-2.5-1.2-2.6-1.2c-1.6,0-2.4-0.3-2.9-0.3c0,0-0.1,0-0.2,0
		c-0.2,0-0.3-0.1-0.4-0.3C42.8,48.4,42.8,48.3,42.8,48.2z"/>
	
		<linearGradient id="SVGID_29_" gradientUnits="userSpaceOnUse" x1="7913.9146" y1="41.6966" x2="7926.7939" y2="41.6966" gradientTransform="matrix(-1 0 0 1 7969.293 0)">
		<stop  offset="0" style="stop-color:#414141"/>
		<stop  offset="0.2258" style="stop-color:#414141"/>
		<stop  offset="1" style="stop-color:#737373;stop-opacity:0"/>
	</linearGradient>
	<path style="opacity:0.3;fill:url(#SVGID_29_);" d="M47.2,45.2c0.3,0,0.8,0.1,1.1,0.2c0.3,0.1,0.5,0.8,0.5,1.1
		c0.8-0.3,1.5-0.2,1.9-0.8c0.6-0.8,0.7-2,0.4-2.6c-0.5-1-3.1-5.2-3.2-5.5c-0.1-0.3-0.6-1.2-0.6-1.5c-0.1-1.3,0.1-1.8,0.3-3.1
		c1.2,1.2,2.5,2.4,3.4,3.9c0.4,0.6,0.7,1.3,1.1,1.9c0.4,0.6,1,1,1.3,1.6c0.2,0.3,0.3,0.6,0.5,1c0.9,2.4,2.4,5.1,0.8,7.2
		c-1.8,1.1-3.5,2-6.1,1.8c-1.7-0.2-2.1-1.1-2.5-1.2c-0.8-0.1-1.4-0.1-2.2-0.3c-0.2-0.1-0.8,0-0.9-0.2c-0.1-0.1-0.1-0.3-0.2-0.4
		c-0.1-0.5-0.4-0.5-0.2-1c0.1,0,0.1-0.3,0.2-0.3c0,0.1,0.6,0,0.6,0.1c0.2,0.1,0.3,0.3,0.3,0.3c0.1-0.8,0.8-1.6,1.5-1.8
		C45.8,45.3,46.5,45.2,47.2,45.2z"/>
	
		<linearGradient id="SVGID_30_" gradientUnits="userSpaceOnUse" x1="-1406.4764" y1="-8769.3584" x2="-1396.4071" y2="-8773.6104" gradientTransform="matrix(1.084854e-02 -0.6034 0.3404 6.119483e-03 3041.2715 -697.2049)">
		<stop  offset="0" style="stop-color:#414141"/>
		<stop  offset="1" style="stop-color:#646464"/>
	</linearGradient>
	<path style="fill:url(#SVGID_30_);" d="M44.3,94.3l0,1.1c0,0.2-0.2,0.4-0.4,0.4l-6.8-0.1c-0.2,0-0.4-0.2-0.4-0.4l0-1.1
		c0-0.2,0.2-0.4,0.4-0.4l6.8,0.1C44.1,93.9,44.3,94.1,44.3,94.3z"/>
	<linearGradient id="SVGID_31_" gradientUnits="userSpaceOnUse" x1="36.4321" y1="92.133" x2="43.6233" y2="92.133">
		<stop  offset="0" style="stop-color:#8E2D37"/>
		<stop  offset="1" style="stop-color:#781A26"/>
	</linearGradient>
	<path style="fill:url(#SVGID_31_);" d="M42,93.6c0.4-0.1,0.8-0.3,1.1-0.6s0.5-0.7,0.5-1.1c0-0.5-0.4-1-0.9-1.2s-1-0.2-1.5-0.2
		c-0.9,0.1-1.7,0.2-2.5,0.4c-0.7,0.2-1.4-1.2-1.9-0.6c-1.2,1.2,2,3.5,2.6,3.5C40.3,94,41.2,93.9,42,93.6z"/>
	<g>
		<defs>
			<path id="SVGID_33_" d="M20,71.5c1.8,14.7-3.2,27,3.9,28.8c3.2,0.8,1.7-3.2,1.7-3.2s1.5-10.7,2.1-14.6c0.8-6,1-15.9,1-16.9
				c0,0-1-0.2-1.4-0.7c-0.6-0.7-0.5-1.6,0.1-2.2c0.5-0.4,2,0.1,2.8-0.1c2.7-0.5,1.9-1.5,3.3-0.8c0.4,0.2,1.2,0.9,1.7,0.9
				c1.5,0.2,3.4-0.5,3.4,0.1c0,1.4-1.7,2.5-1.7,2.5c1.8,3.1,4.6,8.1,3.2,10.6c-5.3,9.4-3.7,16.4-3.7,16.4s3.1,5.6,5.8-4.4
				c2.1-7.6,5.2-5.5,7.1-14.9c0.6-3-4.4-13.7-7.4-19.3c-1.6-3-3.4,0-7.9,0c-7.7,0-11.4-1.3-11.4-1.3S19.5,67.4,20,71.5z"/>
		</defs>
		<clipPath id="SVGID_32_">
			<use xlink:href="#SVGID_33_"  style="overflow:visible;"/>
		</clipPath>
		
			<linearGradient id="SVGID_34_" gradientUnits="userSpaceOnUse" x1="-2432.1917" y1="540.2212" x2="-2369.5881" y2="540.2212" gradientTransform="matrix(1 0 0 1 2432.1917 -455.9269)">
			<stop  offset="0" style="stop-color:#24324C"/>
			<stop  offset="1" style="stop-color:#3E537D"/>
		</linearGradient>
		<polygon style="clip-path:url(#SVGID_32_);fill:url(#SVGID_34_);" points="0.1,114.9 62.6,114.9 62.5,53.7 0,53.7 		"/>
		
			<linearGradient id="SVGID_35_" gradientUnits="userSpaceOnUse" x1="-2409.033" y1="538.9196" x2="-2386.0398" y2="538.9196" gradientTransform="matrix(1 0 0 1 2432.1917 -455.9269)">
			<stop  offset="0" style="stop-color:#414242"/>
			<stop  offset="0.4135" style="stop-color:#434444;stop-opacity:0.5865"/>
			<stop  offset="0.633" style="stop-color:#4B4C4C;stop-opacity:0.367"/>
			<stop  offset="0.807" style="stop-color:#59595A;stop-opacity:0.193"/>
			<stop  offset="0.9561" style="stop-color:#6C6C6D;stop-opacity:4.391211e-02"/>
			<stop  offset="1" style="stop-color:#737374;stop-opacity:0"/>
		</linearGradient>
		<path style="opacity:0.3;clip-path:url(#SVGID_32_);fill:url(#SVGID_35_);" d="M25.6,73.2c0-1.2,0.7-10.7,1.7-11.3
			c6.1-3.8,11.9-1.7,17.3,9.2c3.2,6.5,0.5,1.2-2,7.9c-1.4,3.6-2.4,8.2-4,11.7s2.3,5.8,4.2,9.2c0.5,0.8,1.1,1.6,1.5,2.5
			s0.3,2.1-0.4,2.7c-0.6,0.6-1.5,0.6-2.3,0.7c-3.2,0.2-6.4,0.4-9.5-0.3c-3.1-0.7-6.1-2.3-7.7-5c-1.4-2.4-1.6-5.5-1-8.2
			C24.1,89.4,25.7,79.6,25.6,73.2z"/>
	</g>
	
		<linearGradient id="SVGID_36_" gradientUnits="userSpaceOnUse" x1="7868.3042" y1="350.7041" x2="7900.0537" y2="350.7041" gradientTransform="matrix(-0.7615 0.6482 -0.6482 -0.7615 6253.668 -4828.9634)">
		<stop  offset="0" style="stop-color:#FFC75B"/>
		<stop  offset="1" style="stop-color:#FBB324"/>
	</linearGradient>
	<path style="fill:url(#SVGID_36_);" d="M15.8,13.2c3.1-3.5,4.6-3.8,7.4-6.2c1.7-0.7,1.6,0,3-0.2c0.8-0.1,1.5-0.3,2.3-0.5
		c0.3-0.1,1.7-0.7,1.7-0.9c0.1-0.9-1.4-0.1-1.3-0.3c0.2-0.4-0.3,0.2,0.1-0.1c1.2-1,3.5-0.9,3.9-2.4c0-1.1-1-2-2-2.3
		c-1-0.3-2.1-0.2-3.2-0.1c-1.3,0.1-2.5,1-3.7,1.6c-3.7,2.1-0.8,2-7.5,6.4c-0.2,0.2-6.3,4.1-8.2,6.4c-0.8,0.9-0.3,3.9-0.1,5
		c0.1,0.2,1,3.2,1.4,3.7c0.6,0.8,6.3,7.6,7,8.4c1.4-1.1,2.5-2,1.8-6.7c-0.3-1.9-2.6-3.5-3.2-6C14.6,16.6,15.7,13.3,15.8,13.2z"/>
	
		<linearGradient id="SVGID_37_" gradientUnits="userSpaceOnUse" x1="7869.1157" y1="350.1487" x2="7900.0474" y2="350.1487" gradientTransform="matrix(-0.7615 0.6482 -0.6482 -0.7615 6253.668 -4828.9634)">
		<stop  offset="0" style="stop-color:#737373;stop-opacity:0"/>
		<stop  offset="1" style="stop-color:#414141"/>
	</linearGradient>
	<path style="opacity:0.3;fill:url(#SVGID_37_);" d="M30.2,0.1C29.7,0,29.2,0,28.7,0c-0.8,0-1.4,0-2.2,0.4c-0.6,0.2-1.3,0.7-2,1.1
		c-1.6,0.8-2.1,1.2-2.7,2c-1.1,1.3-1.4,1.8-2.6,2.7c-0.6,0.5-2.5,1.9-2.8,2c-1.7,0.7-5.1,3.4-7,5.2c-0.7,0.7-1.5,0.9-1.6,2.7
		c-0.1,1.8,0.3,3.9,1.8,7.1c2.7,3.5,6.8,8.3,7.8,9.2c0.4-0.5,1-2.4-0.7-5.4c-1.6-2.9-5.6-7-5.6-7.6c-0.1-1-0.2-3.8,0.6-5.2
		c3.1-5.1,7-4.5,11.4-8.6c0.4-0.4,1.2-2.5,1.6-2.9c0.6-0.5,1.2-1,1.8-1.4c0.6-0.3,1.2-0.6,1.8-0.8C29.5,0.2,30.8,0.2,30.2,0.1z"/>
	
		<linearGradient id="SVGID_38_" gradientUnits="userSpaceOnUse" x1="-2418.5354" y1="495.6672" x2="-2383.2568" y2="495.6672" gradientTransform="matrix(1 0 0 1 2432.1917 -455.9269)">
		<stop  offset="0" style="stop-color:#EE4050"/>
		<stop  offset="1" style="stop-color:#D72538"/>
	</linearGradient>
	<path style="fill:url(#SVGID_38_);" d="M17.8,24.1c0.8-0.7,3.4,3.3,4.3,2.8c4.3-2.6,5.7-2.3,10.9-2c6.2,0.3,11.6,0.6,16,5
		c0,0-0.5,5.3-1.5,6c-1,0.7-6.1,0.2-6.1,0.2S42.6,51.7,42,54s-14.5,1.4-19.5-0.4c0,0,0.3-13.4,0.3-18.3c0,0-1.7,0.5-3.9-0.4
		c-0.6-0.3-4.9-5.7-5.1-6.1C12.8,27.2,18,23.7,17.8,24.1z"/>
</g>
</svg>
