<?xml version="1.0" encoding="utf-8"?>
<!-- Generator: Adobe Illustrator 19.2.0, SVG Export Plug-In . SVG Version: 6.00 Build 0)  -->
<svg version="1.1" id="Capa_1" xmlns="http://www.w3.org/2000/svg" xmlns:xlink="http://www.w3.org/1999/xlink" x="0px" y="0px"
	 viewBox="0 0 210.3 112.9" style="enable-background:new 0 0 210.3 112.9;" xml:space="preserve">
<style type="text/css">
	.st0{clip-path:url(#SVGID_2_);}
	.st1{fill:url(#SVGID_3_);}
	.st2{opacity:0.35;clip-path:url(#SVGID_2_);fill:url(#SVGID_4_);}
	.st3{opacity:0.3;clip-path:url(#SVGID_2_);fill:url(#SVGID_5_);}
	.st4{clip-path:url(#SVGID_2_);fill:url(#SVGID_6_);}
	.st5{clip-path:url(#SVGID_8_);fill:#DBD8D2;}
	.st6{opacity:0.5;clip-path:url(#SVGID_8_);fill:url(#SVGID_9_);}
	.st7{clip-path:url(#SVGID_11_);fill:#DBD8D2;}
	.st8{opacity:0.5;clip-path:url(#SVGID_11_);fill:url(#SVGID_12_);}
	.st9{opacity:0.5;clip-path:url(#SVGID_11_);fill:url(#SVGID_13_);}
	.st10{opacity:0.5;clip-path:url(#SVGID_11_);fill:url(#SVGID_14_);}
	.st11{opacity:0.5;clip-path:url(#SVGID_11_);fill:url(#SVGID_15_);}
	.st12{opacity:0.35;fill:url(#SVGID_16_);}
	.st13{opacity:0.35;fill:url(#SVGID_17_);}
	.st14{clip-path:url(#SVGID_19_);fill:url(#SVGID_20_);}
	.st15{opacity:0.5;clip-path:url(#SVGID_19_);fill:url(#SVGID_21_);}
	.st16{fill:#DBD8D2;}
	.st17{clip-path:url(#SVGID_23_);fill:url(#SVGID_24_);}
	.st18{opacity:0.5;clip-path:url(#SVGID_23_);fill:url(#SVGID_25_);}
</style>
<g>
	<g>
		<defs>
			<path id="SVGID_1_" d="M9.8,92H199c6.2,0,11.3-5.1,11.3-11.3V70.5l-25.6-58.8C181.7,4.6,174.7,0,167,0L0,0l0,82.2
				C0,87.6,4.4,92,9.8,92z"/>
		</defs>
		<clipPath id="SVGID_2_">
			<use xlink:href="#SVGID_1_"  style="overflow:visible;"/>
		</clipPath>
		<g class="st0">
			
				<linearGradient id="SVGID_3_" gradientUnits="userSpaceOnUse" x1="1096.4309" y1="46.3813" x2="1325.3157" y2="46.3813" gradientTransform="matrix(-1 0 0 1 1306.7782 0)">
				<stop  offset="0" style="stop-color:#F91B32"/>
				<stop  offset="0.1719" style="stop-color:#F11527"/>
				<stop  offset="0.4058" style="stop-color:#E90F1D"/>
				<stop  offset="0.6656" style="stop-color:#E40B18"/>
				<stop  offset="1" style="stop-color:#E20A16"/>
			</linearGradient>
			<rect x="-18.5" y="0.4" class="st1" width="228.9" height="92"/>
		</g>
		
			<linearGradient id="SVGID_4_" gradientUnits="userSpaceOnUse" x1="1096.4309" y1="73.5934" x2="1308.2496" y2="73.5934" gradientTransform="matrix(-1 0 0 1 1306.7782 0)">
			<stop  offset="0" style="stop-color:#2E2728;stop-opacity:0"/>
			<stop  offset="1" style="stop-color:#625957"/>
		</linearGradient>
		<polygon class="st2" points="-1.5,81.5 210.3,81.5 210.3,65.6 -1.5,65.6 		"/>
		
			<linearGradient id="SVGID_5_" gradientUnits="userSpaceOnUse" x1="1061.733" y1="56.8914" x2="1217.6768" y2="56.8914" gradientTransform="matrix(-1 0 0 1 1306.7782 0)">
			<stop  offset="0" style="stop-color:#2E2728;stop-opacity:0"/>
			<stop  offset="1" style="stop-color:#625957"/>
		</linearGradient>
		<path class="st3" d="M89.1,95.9c0-43.1,34.9-78,78-78s78,34.9,78,78H89.1z"/>
		
			<linearGradient id="SVGID_6_" gradientUnits="userSpaceOnUse" x1="1096.4309" y1="76.6664" x2="1106.8457" y2="76.6664" gradientTransform="matrix(-1 0 0 1 1306.7782 0)">
			<stop  offset="0" style="stop-color:#FFAC0F"/>
			<stop  offset="1" style="stop-color:#FEC539"/>
		</linearGradient>
		<path class="st4" d="M208.9,82.9h1.5V70.4h-10.4V74C199.9,78.9,203.9,82.9,208.9,82.9z"/>
		<g class="st0">
			<defs>
				<path id="SVGID_7_" d="M208.3,56.2L208.3,56.2L187.7,7.4h-13.2L190,44C193.1,51.4,200.3,56.2,208.3,56.2z"/>
			</defs>
			<clipPath id="SVGID_8_">
				<use xlink:href="#SVGID_7_"  style="overflow:visible;"/>
			</clipPath>
			<polygon class="st5" points="187.7,7.4 171.5,7.4 195.8,73.2 211.9,73.2 			"/>
			
				<linearGradient id="SVGID_9_" gradientUnits="userSpaceOnUse" x1="1106.0774" y1="30.2014" x2="1133.5833" y2="30.2014" gradientTransform="matrix(-1 0 0 1 1306.7782 0)">
				<stop  offset="0" style="stop-color:#DBD8D2"/>
				<stop  offset="1" style="stop-color:#DBD8D2;stop-opacity:0"/>
			</linearGradient>
			<path class="st6" d="M200.7,30.2c0,15.2-12.3,27.5-27.5,27.5v-55C188.4,2.7,200.7,15,200.7,30.2z"/>
		</g>
		<g class="st0">
			<defs>
				<path id="SVGID_10_" d="M144.5,14.5c0-2.2,1.8-3.9,3.9-3.9h14c1.6,0,3.1,1,3.7,2.5l13.6,33.7h-35.2V14.5z M133.4,46.6V25
					c0-8-6.5-14.5-14.5-14.5H114c-8,0-14.5,6.5-14.5,14.5v21.6H133.4z M88.3,46.6V25c0-8-6.5-14.5-14.5-14.5h-4.9
					c-8,0-14.5,6.5-14.5,14.5v21.6H88.3z M43,46.6V25c0-8-6.5-14.5-14.5-14.5h-4.9c-8,0-14.5,6.5-14.5,14.5v21.6H43z"/>
			</defs>
			<clipPath id="SVGID_11_">
				<use xlink:href="#SVGID_10_"  style="overflow:visible;"/>
			</clipPath>
			<polygon class="st7" points="8,49 183.4,49 166.2,8.1 8,8.1 			"/>
			
				<linearGradient id="SVGID_12_" gradientUnits="userSpaceOnUse" x1="1142.6747" y1="20.2911" x2="1163.7028" y2="20.2911" gradientTransform="matrix(-1 0 0 1 1306.7782 0)">
				<stop  offset="0" style="stop-color:#DBD8D2"/>
				<stop  offset="1" style="stop-color:#DBD8D2;stop-opacity:0"/>
			</linearGradient>
			<path class="st8" d="M164.1,20.3c0,8.9-9.4,16-21,16V4.3C154.7,4.3,164.1,11.4,164.1,20.3z"/>
			
				<linearGradient id="SVGID_13_" gradientUnits="userSpaceOnUse" x1="1187.0348" y1="20.2911" x2="1208.0629" y2="20.2911" gradientTransform="matrix(-1 0 0 1 1306.7782 0)">
				<stop  offset="0" style="stop-color:#DBD8D2"/>
				<stop  offset="1" style="stop-color:#DBD8D2;stop-opacity:0"/>
			</linearGradient>
			<path class="st9" d="M119.7,20.3c0,8.9-9.4,16-21,16V4.3C110.3,4.3,119.7,11.4,119.7,20.3z"/>
			
				<linearGradient id="SVGID_14_" gradientUnits="userSpaceOnUse" x1="1233.7623" y1="20.2911" x2="1253.8075" y2="20.2911" gradientTransform="matrix(-1 0 0 1 1306.7782 0)">
				<stop  offset="0" style="stop-color:#DBD8D2"/>
				<stop  offset="1" style="stop-color:#DBD8D2;stop-opacity:0"/>
			</linearGradient>
			<path class="st10" d="M73,20.3c0,8.9-9,16-20,16V4.3C64,4.3,73,11.4,73,20.3z"/>
			
				<linearGradient id="SVGID_15_" gradientUnits="userSpaceOnUse" x1="1279.6813" y1="20.2911" x2="1299.7264" y2="20.2911" gradientTransform="matrix(-1 0 0 1 1306.7782 0)">
				<stop  offset="0" style="stop-color:#DBD8D2"/>
				<stop  offset="1" style="stop-color:#DBD8D2;stop-opacity:0"/>
			</linearGradient>
			<path class="st11" d="M27.1,20.3c0,8.9-9,16-20,16V4.3C18.1,4.3,27.1,11.4,27.1,20.3z"/>
		</g>
	</g>
	
		<linearGradient id="SVGID_16_" gradientUnits="userSpaceOnUse" x1="1121.1991" y1="78.1445" x2="1178.101" y2="78.1445" gradientTransform="matrix(-1 0 0 1 1306.7782 0)">
		<stop  offset="0" style="stop-color:#2E2728;stop-opacity:0"/>
		<stop  offset="1" style="stop-color:#625957"/>
	</linearGradient>
	<path class="st12" d="M128.7,92.4h56.9c0-15.7-12.7-28.5-28.5-28.5S128.7,76.7,128.7,92.4z"/>
	
		<linearGradient id="SVGID_17_" gradientUnits="userSpaceOnUse" x1="1226.1027" y1="78.1445" x2="1283.0045" y2="78.1445" gradientTransform="matrix(-1 0 0 1 1306.7782 0)">
		<stop  offset="0" style="stop-color:#2E2728;stop-opacity:0"/>
		<stop  offset="1" style="stop-color:#625957"/>
	</linearGradient>
	<path class="st13" d="M23.8,92.4h56.9c0-15.7-12.7-28.5-28.5-28.5S23.8,76.7,23.8,92.4z"/>
	<g>
		<g>
			<defs>
				<path id="SVGID_18_" d="M138.6,81.7c-9.3,19.2,9.6,38.1,28.8,28.8c3.6-1.7,6.5-4.7,8.2-8.2c9.3-19.2-9.6-38.1-28.8-28.8
					C143.3,75.2,140.4,78.1,138.6,81.7z"/>
			</defs>
			<clipPath id="SVGID_19_">
				<use xlink:href="#SVGID_18_"  style="overflow:visible;"/>
			</clipPath>
			
				<linearGradient id="SVGID_20_" gradientUnits="userSpaceOnUse" x1="1128.6953" y1="91.9772" x2="1170.6049" y2="91.9772" gradientTransform="matrix(-1 0 0 1 1306.7782 0)">
				<stop  offset="0" style="stop-color:#0E0D14"/>
				<stop  offset="1" style="stop-color:#1E1E3B"/>
			</linearGradient>
			<polygon class="st14" points="136.2,112.9 178.1,112.9 178.1,71 136.2,71 			"/>
			
				<linearGradient id="SVGID_21_" gradientUnits="userSpaceOnUse" x1="1117.2034" y1="100.7331" x2="1164.5851" y2="100.7331" gradientTransform="matrix(-1 0 0 1 1306.7782 0)">
				<stop  offset="0" style="stop-color:#2E2728;stop-opacity:0"/>
				<stop  offset="1" style="stop-color:#625957"/>
			</linearGradient>
			<path class="st15" d="M145,112.3c-10.5-21.7,10.8-43,32.5-32.5c3.4,1.7,7.7,5.9,9.3,9.3c10.5,21.7-10.8,43-32.5,32.5
				C150.8,120,146.6,115.8,145,112.3z"/>
		</g>
		<path class="st16" d="M145.4,85.6c-5.7,12,6,23.8,18.1,18.1c2.4-1.1,4.3-3,5.4-5.4c5.7-12-6-23.8-18.1-18.1
			C148.4,81.4,146.5,83.3,145.4,85.6z"/>
	</g>
	<g>
		<g>
			<defs>
				<path id="SVGID_22_" d="M33.7,81.7c-9.3,19.2,9.6,38.1,28.8,28.8c3.6-1.7,6.5-4.7,8.2-8.2C80,83,61.2,64.2,42,73.5
					C38.4,75.2,35.5,78.1,33.7,81.7z"/>
			</defs>
			<clipPath id="SVGID_23_">
				<use xlink:href="#SVGID_22_"  style="overflow:visible;"/>
			</clipPath>
			
				<linearGradient id="SVGID_24_" gradientUnits="userSpaceOnUse" x1="1233.5989" y1="91.9772" x2="1275.5083" y2="91.9772" gradientTransform="matrix(-1 0 0 1 1306.7782 0)">
				<stop  offset="0" style="stop-color:#0E0D14"/>
				<stop  offset="1" style="stop-color:#1E1E3B"/>
			</linearGradient>
			<polygon class="st17" points="31.3,112.9 73.2,112.9 73.2,71 31.3,71 			"/>
			
				<linearGradient id="SVGID_25_" gradientUnits="userSpaceOnUse" x1="1222.1069" y1="100.7331" x2="1269.4886" y2="100.7331" gradientTransform="matrix(-1 0 0 1 1306.7782 0)">
				<stop  offset="0" style="stop-color:#2E2728;stop-opacity:0"/>
				<stop  offset="1" style="stop-color:#625957"/>
			</linearGradient>
			<path class="st18" d="M40.1,112.3c-10.5-21.7,10.8-43,32.5-32.5c3.4,1.7,7.7,5.9,9.3,9.3c10.5,21.7-10.8,43-32.5,32.5
				C45.9,120,41.7,115.8,40.1,112.3z"/>
		</g>
		<path class="st16" d="M40.5,85.6c-5.7,12,6,23.8,18.1,18.1c2.4-1.1,4.3-3,5.4-5.4c5.7-12-6-23.8-18.1-18.1
			C43.5,81.4,41.6,83.3,40.5,85.6z"/>
	</g>
</g>
</svg>
