<?xml version="1.0" encoding="utf-8"?>
<!-- Generator: Adobe Illustrator 19.2.0, SVG Export Plug-In . SVG Version: 6.00 Build 0)  -->
<svg version="1.1" id="Capa_1" xmlns="http://www.w3.org/2000/svg" xmlns:xlink="http://www.w3.org/1999/xlink" x="0px" y="0px"
	 viewBox="0 0 335.2 305.1" style="enable-background:new 0 0 335.2 305.1;" xml:space="preserve">
<style type="text/css">
	.st0{fill:url(#SVGID_1_);}
	.st1{fill:url(#SVGID_2_);}
	.st2{fill:#FFFFFF;}
</style>
<g>
	<g>
		<linearGradient id="SVGID_1_" gradientUnits="userSpaceOnUse" x1="167.5941" y1="305.0524" x2="167.5941" y2="-7.525159e-09">
			<stop  offset="3.517618e-02" style="stop-color:#3C3233"/>
			<stop  offset="1" style="stop-color:#3C3233"/>
		</linearGradient>
		<rect x="0" y="0" class="st0" width="335.2" height="305.1"/>
	</g>
	<g id="triangulo_prioridad_3_">
		<g>
			
				<linearGradient id="SVGID_2_" gradientUnits="userSpaceOnUse" x1="-15110.8486" y1="-2434.0767" x2="-14923.71" y2="-2434.0767" gradientTransform="matrix(4.489700e-11 1 -1 4.489700e-11 -2266.7485 15147.2441)">
				<stop  offset="0" style="stop-color:#42A62A"/>
				<stop  offset="1" style="stop-color:#306B2C"/>
			</linearGradient>
			<path class="st1" d="M274.1,223.4l15.8,0.1l-11.3-15.7L176,52.4l-10-16l-9,16c0,0-99.6,151.7-100.4,153.1l-11.8,17.6l15.1,0
				L274.1,223.4z"/>
			<path class="st2" d="M301,229.2l-26.9-0.1l-239.9-0.3l17.6-26.4c0.8-1.2,89.6-136.7,100.3-152.9l13.6-24.1l15,24l102.5,155.3
				L301,229.2z M55.3,217.5l223.6,0.3l-4.8-6.7L171.3,55.5l-5.1-8.1l-4.6,8c-34.1,52-99.1,150.9-100.4,153L55.3,217.5z"/>
		</g>
		<g>
			<path class="st2" d="M68.3,279.1l0.1-26l8.5,0c3.2,0,5.3,0.1,6.2,0.4c1.5,0.4,2.8,1.2,3.8,2.5c1,1.3,1.5,3,1.5,5.1
				c0,1.6-0.3,3-0.9,4c-0.6,1.1-1.3,2-2.2,2.6c-0.9,0.6-1.8,1-2.8,1.2c-1.3,0.3-3.1,0.4-5.4,0.4h-3.5l0,9.8L68.3,279.1z M73.5,257.5
				v7.4h2.8c2.1,0,3.5-0.1,4.2-0.4c0.7-0.3,1.2-0.7,1.6-1.3c0.4-0.6,0.6-1.2,0.6-2c0-0.9-0.3-1.7-0.8-2.3c-0.6-0.6-1.3-1-2.1-1.2
				c-0.6-0.1-1.9-0.2-3.8-0.2H73.5z"/>
			<path class="st2" d="M92.5,279.2l0-26l11.1,0c2.8,0,4.8,0.2,6.1,0.7c1.3,0.5,2.3,1.3,3,2.5c0.8,1.2,1.1,2.6,1.1,4.1
				c0,1.9-0.6,3.6-1.7,4.8c-1.2,1.3-2.9,2.1-5.2,2.4c1.1,0.7,2.1,1.4,2.8,2.2c0.7,0.8,1.7,2.2,3,4.2l3.2,5.1l-6.3,0l-3.8-5.6
				c-1.3-2-2.2-3.3-2.8-3.8c-0.5-0.5-1-0.9-1.6-1.1c-0.6-0.2-1.5-0.3-2.6-0.3h-1.1l0,10.8L92.5,279.2z M97.8,264.2h3.9
				c2.5,0,4.1-0.1,4.7-0.3c0.6-0.2,1.1-0.5,1.5-1.1c0.3-0.5,0.5-1.2,0.5-1.9c0-0.9-0.2-1.6-0.7-2.1c-0.5-0.6-1.1-0.9-2-1
				c-0.4-0.1-1.7-0.1-3.9-0.1h-4.1V264.2z"/>
			<path class="st2" d="M118.6,279.2l0-26h5.3l0,26H118.6z"/>
			<path class="st2" d="M127.8,266.4c0-2.6,0.4-4.9,1.2-6.6c0.6-1.3,1.4-2.5,2.4-3.6c1-1,2.2-1.8,3.4-2.3c1.6-0.7,3.5-1,5.7-1
				c3.8,0,6.9,1.2,9.2,3.6c2.3,2.4,3.5,5.7,3.4,9.9c0,4.2-1.2,7.5-3.4,9.9c-2.3,2.4-5.4,3.5-9.2,3.5c-3.9,0-6.9-1.2-9.2-3.5
				C129,273.8,127.8,270.5,127.8,266.4z M133.3,266.2c0,3,0.7,5.2,2.1,6.7c1.4,1.5,3.1,2.3,5.2,2.3c2.1,0,3.8-0.7,5.2-2.3
				c1.4-1.5,2-3.8,2-6.8c0-3-0.6-5.2-1.9-6.7c-1.3-1.5-3.1-2.2-5.2-2.2c-2.2,0-3.9,0.7-5.2,2.2C134,261,133.3,263.2,133.3,266.2z"/>
			<path class="st2" d="M157.2,279.3l0-26l11.1,0c2.8,0,4.8,0.2,6,0.7c1.3,0.5,2.3,1.3,3,2.5c0.8,1.2,1.1,2.5,1.1,4.1
				c0,1.9-0.6,3.6-1.7,4.8c-1.1,1.3-2.9,2.1-5.2,2.4c1.1,0.7,2.1,1.4,2.8,2.2c0.7,0.8,1.7,2.2,2.9,4.2l3.2,5.1l-6.3,0l-3.8-5.6
				c-1.4-2-2.3-3.3-2.8-3.8c-0.5-0.5-1-0.9-1.6-1.1c-0.6-0.2-1.4-0.3-2.7-0.3h-1.1l0,10.9L157.2,279.3z M162.5,264.3h3.9
				c2.6,0,4.1-0.1,4.7-0.3c0.6-0.2,1.1-0.6,1.5-1.1c0.3-0.5,0.5-1.2,0.5-2c0-0.9-0.2-1.6-0.7-2.1c-0.5-0.6-1.1-0.9-2-1
				c-0.4-0.1-1.7-0.1-3.8-0.1h-4.1V264.3z"/>
			<path class="st2" d="M183.3,279.3l0-26l5.3,0l-0.1,26L183.3,279.3z"/>
			<path class="st2" d="M193.6,253.3l9.6,0c2.2,0,3.8,0.2,5,0.5c1.5,0.5,2.8,1.3,3.9,2.4c1.1,1.2,1.9,2.6,2.5,4.2
				c0.6,1.7,0.8,3.7,0.8,6.1c0,2.2-0.2,4-0.8,5.6c-0.7,1.9-1.6,3.4-2.8,4.6c-0.9,0.9-2.2,1.6-3.7,2.1c-1.1,0.3-2.7,0.5-4.6,0.5
				l-9.9,0L193.6,253.3z M198.9,257.7l0,17.2h3.9c1.5,0,2.5-0.1,3.2-0.2c0.8-0.2,1.6-0.6,2.1-1.1c0.5-0.5,1-1.3,1.4-2.5
				c0.4-1.1,0.6-2.7,0.6-4.8c0-2-0.2-3.5-0.6-4.6c-0.3-1.1-0.8-1.9-1.5-2.5c-0.6-0.6-1.5-1-2.4-1.2c-0.7-0.2-2.2-0.3-4.3-0.3H198.9z
				"/>
			<path class="st2" d="M243.4,279.4l-5.7,0l-2.3-5.9l-10.4,0l-2.2,5.9h-5.6l10.2-26h5.5L243.4,279.4z M233.7,269.1l-3.6-9.7
				l-3.5,9.7H233.7z"/>
			<path class="st2" d="M246.2,253.4l9.6,0c2.2,0,3.8,0.2,4.9,0.5c1.5,0.5,2.8,1.3,3.9,2.4c1.1,1.2,1.9,2.6,2.5,4.2
				c0.6,1.7,0.8,3.7,0.8,6.1c0,2.2-0.3,4-0.8,5.6c-0.7,1.9-1.6,3.4-2.8,4.6c-0.9,0.9-2.1,1.6-3.7,2.1c-1.2,0.4-2.7,0.5-4.7,0.5
				l-9.9,0L246.2,253.4z M251.4,257.8l0,17.2l3.9,0c1.5,0,2.5-0.1,3.2-0.3c0.9-0.2,1.6-0.6,2.1-1.1c0.5-0.5,1-1.3,1.4-2.5
				c0.4-1.2,0.5-2.8,0.5-4.8c0-2-0.2-3.5-0.5-4.6c-0.3-1.1-0.8-1.9-1.5-2.5c-0.6-0.6-1.4-1-2.4-1.3c-0.7-0.1-2.2-0.3-4.3-0.3H251.4z
				"/>
		</g>
		<path class="st2" d="M199,149.9c-3.7,0-7.2,1.1-10.1,3.1l-6.3-7.4l0.6-2.7l5.6-2.2c0.6-0.3,1-0.9,0.9-1.6
			c-0.1-0.7-0.8-1.2-1.5-1.2l-13.8,0.5c-0.7,0-1.3,0.6-1.4,1.3c-0.1,0.7,0.4,1.4,1.1,1.5l6.2,1.6c-0.1,0.6-0.3,1.2-0.4,1.6
			l-26.8-0.2l2-5.2c0.1-0.2,0.1-0.3,0.1-0.5c0-0.4-0.2-0.8-0.5-1.1c-0.5-0.5-1-1.3-1-1.5v0c0,0,0.1-0.1,0.4-0.3c0.5,0,7.2,0,7.2,0
			c0.8,0,1.4-0.7,1.4-1.4c0-0.8-0.7-1.5-1.4-1.5h-7.4c-0.2,0-0.3,0-0.5,0.1c-1.8,0.7-2.4,1.7-2.5,2.6c0,0.2,0,0.4,0,0.5
			c0,1.2,0.7,2.3,1.3,3c-0.3,0.8-1.8,4.9-3.3,8.7l-0.6,1.5l0,0c-0.5,1.3-0.9,2.5-1.3,3.5c-2.8-1.7-6.1-2.7-9.5-2.7
			c-10.2,0-18.4,8.2-18.4,18.4c0,10.1,8.3,18.4,18.4,18.4c10.1,0,18.4-8.2,18.4-18.4c0-5.6-2.5-10.6-6.4-13.9l0.8-2.1l20.8,20.7
			c0,0,0,0,0,0c0.1,0.1,0.1,0.1,0.2,0.2c0,0,0,0,0,0c0,0,0.1,0,0.1,0l1,3.2c-0.7,0.1-1.3,0.7-1.3,1.4c0,0.8,0.7,1.4,1.4,1.4h4
			c0.8,0,1.5-0.6,1.5-1.4c0-0.8-0.7-1.4-1.5-1.4h-1.1l-1.1-3.4l6.8-1c1.8,8.3,9.2,14.6,18,14.6c10.2,0,18.4-8.2,18.4-18.4
			C217.4,158.1,209.1,149.9,199,149.9z M152.8,168.2c0,8.5-7,15.5-15.5,15.5c-8.6,0-15.5-6.9-15.5-15.5c0-8.6,6.9-15.5,15.5-15.5
			c3.1,0,6.1,0.9,8.5,2.6c-2.2,6.4-9.3,11.6-9.4,11.7c-0.4,0.3-0.6,0.7-0.6,1.2c0,0.3,0.1,0.6,0.3,0.9c0.4,0.7,1.4,0.8,2,0.3
			c0.3-0.2,7.3-5.3,10.1-12.1C151,160,152.8,163.9,152.8,168.2z M172.1,166.6l-0.3-1.2h0.2c0.2,0,0.4,0,0.6-0.1
			C172.5,165.8,172.3,166.2,172.1,166.6z M172,162.6h-3.6c-0.8,0-1.4,0.6-1.4,1.4c0,0.8,0.6,1.4,1.4,1.4h0.3l0.6,1.9l-18.2-18.2
			c0.3-0.7,0.5-1.3,0.8-2.1c1.6,0,21.5,0.2,27,0.2c-1.1,3.3-3.7,10.4-5.6,16.1C173.1,162.9,172.6,162.6,172,162.6z M174,170.1
			l7.5-21.4c1.1,1.4,3,3.5,5,5.9c-3.7,3.4-6,8.2-6,13.6c0,0.3,0,0.6,0,0.9C177.9,169.6,175.5,169.9,174,170.1z M183.5,168.2
			c0-4.5,1.9-8.5,5-11.3c3.5,4.2,7.1,8.4,8.4,9.9c-2.1,0.3-7.9,1.2-13.3,1.9C183.5,168.6,183.5,168.4,183.5,168.2z M199,183.7
			c-7.4,0-13.6-5.2-15.1-12.1l16-2.3c0.5-0.1,1-0.4,1.2-0.9c0.2-0.5,0.1-1-0.3-1.5l-10-11.8c2.4-1.5,5.2-2.4,8.3-2.4
			c8.6,0,15.5,6.9,15.5,15.5C214.5,176.8,207.5,183.7,199,183.7z"/>
	</g>
</g>
</svg>
