<?xml version="1.0" encoding="utf-8"?>
<!-- Generator: Adobe Illustrator 19.2.0, SVG Export Plug-In . SVG Version: 6.00 Build 0)  -->
<svg version="1.1" id="Capa_1" xmlns="http://www.w3.org/2000/svg" xmlns:xlink="http://www.w3.org/1999/xlink" x="0px" y="0px"
	 viewBox="0 0 303.4 111.1" style="enable-background:new 0 0 303.4 111.1;" xml:space="preserve">
<style type="text/css">
	.st0{fill:url(#SVGID_1_);}
	.st1{fill:url(#SVGID_2_);}
	.st2{fill:url(#SVGID_3_);}
	.st3{fill:url(#SVGID_4_);}
	.st4{fill:#FFFFFF;}
	.st5{clip-path:url(#SVGID_6_);fill:url(#SVGID_7_);}
	.st6{opacity:0.75;clip-path:url(#SVGID_6_);fill:url(#SVGID_8_);}
	.st7{fill:url(#SVGID_9_);}
	.st8{clip-path:url(#SVGID_11_);fill:url(#SVGID_12_);}
	.st9{opacity:0.3;clip-path:url(#SVGID_11_);fill:url(#SVGID_13_);}
	.st10{clip-path:url(#SVGID_15_);}
	.st11{fill:url(#SVGID_16_);}
	.st12{clip-path:url(#SVGID_15_);fill:url(#SVGID_17_);}
	.st13{opacity:0.75;clip-path:url(#SVGID_15_);fill:url(#SVGID_18_);}
	.st14{opacity:0.75;clip-path:url(#SVGID_15_);fill:url(#SVGID_19_);}
	.st15{opacity:0.3;clip-path:url(#SVGID_15_);fill:url(#SVGID_20_);}
	.st16{fill:url(#SVGID_21_);}
	.st17{fill:url(#SVGID_22_);}
	.st18{clip-path:url(#SVGID_25_);}
	.st19{fill:url(#SVGID_26_);}
	.st20{opacity:0.75;clip-path:url(#SVGID_25_);fill:url(#SVGID_27_);}
	.st21{clip-path:url(#SVGID_30_);fill:url(#SVGID_31_);}
	.st22{opacity:0.75;clip-path:url(#SVGID_30_);fill:url(#SVGID_32_);}
	.st23{clip-path:url(#SVGID_35_);fill:url(#SVGID_36_);}
	.st24{opacity:0.75;clip-path:url(#SVGID_35_);fill:url(#SVGID_37_);}
	.st25{clip-path:url(#SVGID_39_);fill:url(#SVGID_40_);}
	.st26{opacity:0.75;clip-path:url(#SVGID_39_);fill:url(#SVGID_41_);}
	.st27{clip-path:url(#SVGID_44_);fill:url(#SVGID_45_);}
	.st28{clip-path:url(#SVGID_44_);fill:url(#SVGID_46_);}
	.st29{clip-path:url(#SVGID_48_);fill:url(#SVGID_49_);}
	.st30{opacity:0.75;clip-path:url(#SVGID_48_);fill:url(#SVGID_50_);}
	.st31{clip-path:url(#SVGID_52_);fill:#EF1224;}
	.st32{clip-path:url(#SVGID_52_);fill:#E7E6DE;}
	.st33{opacity:0.4;clip-path:url(#SVGID_52_);fill:url(#SVGID_53_);}
	.st34{clip-path:url(#SVGID_55_);fill:#EF1224;}
	.st35{opacity:0.4;clip-path:url(#SVGID_55_);fill:url(#SVGID_56_);}
	.st36{clip-path:url(#SVGID_59_);fill:url(#SVGID_60_);}
	.st37{opacity:0.75;clip-path:url(#SVGID_59_);fill:url(#SVGID_61_);}
	.st38{clip-path:url(#SVGID_63_);fill:url(#SVGID_64_);}
	.st39{clip-path:url(#SVGID_63_);}
	.st40{fill:url(#SVGID_65_);}
	.st41{opacity:0.4;clip-path:url(#SVGID_63_);fill:url(#SVGID_66_);}
	.st42{fill:url(#SVGID_67_);}
	.st43{fill:url(#SVGID_68_);}
	.st44{fill:url(#SVGID_69_);}
	.st45{clip-path:url(#SVGID_71_);}
	.st46{fill:url(#SVGID_72_);}
	.st47{opacity:0.3;clip-path:url(#SVGID_71_);fill:url(#SVGID_73_);}
	.st48{clip-path:url(#SVGID_75_);fill:url(#SVGID_76_);}
	.st49{opacity:0.3;clip-path:url(#SVGID_75_);fill:url(#SVGID_77_);}
	.st50{clip-path:url(#SVGID_79_);fill:#5C5455;}
	.st51{clip-path:url(#SVGID_79_);fill:url(#SVGID_80_);}
	.st52{opacity:0.3;clip-path:url(#SVGID_79_);fill:url(#SVGID_81_);}
	.st53{opacity:0.3;clip-path:url(#SVGID_79_);fill:url(#SVGID_82_);}
	.st54{clip-path:url(#SVGID_84_);fill:#D8D6CD;}
	.st55{clip-path:url(#SVGID_84_);fill:url(#SVGID_85_);}
	.st56{opacity:0.25;clip-path:url(#SVGID_84_);fill:url(#SVGID_86_);}
	.st57{opacity:0.25;clip-path:url(#SVGID_84_);fill:url(#SVGID_87_);}
	.st58{clip-path:url(#SVGID_84_);}
	.st59{clip-path:url(#SVGID_89_);fill:#D8D6CD;}
	.st60{opacity:0.5;clip-path:url(#SVGID_89_);fill:url(#SVGID_90_);}
	.st61{clip-path:url(#SVGID_92_);fill:#D8D6CD;}
	.st62{opacity:0.5;clip-path:url(#SVGID_92_);fill:url(#SVGID_93_);}
	.st63{clip-path:url(#SVGID_84_);fill:url(#SVGID_94_);}
	.st64{opacity:0.25;clip-path:url(#SVGID_84_);fill:url(#SVGID_95_);}
	.st65{opacity:0.25;clip-path:url(#SVGID_84_);fill:url(#SVGID_96_);}
	.st66{clip-path:url(#SVGID_98_);fill:url(#SVGID_99_);}
	.st67{opacity:0.5;clip-path:url(#SVGID_98_);fill:url(#SVGID_100_);}
	.st68{fill:#D8D6CD;}
	.st69{clip-path:url(#SVGID_102_);fill:url(#SVGID_103_);}
	.st70{opacity:0.5;clip-path:url(#SVGID_102_);fill:url(#SVGID_104_);}
	.st71{fill:url(#SVGID_105_);}
</style>
<linearGradient id="SVGID_1_" gradientUnits="userSpaceOnUse" x1="151.6373" y1="111.0642" x2="151.6373" y2="-6.808477e-09">
	<stop  offset="0" style="stop-color:#4E8FAF"/>
	<stop  offset="1" style="stop-color:#82CFE2"/>
</linearGradient>
<rect class="st0" width="303.3" height="111.1"/>
<g>
	<linearGradient id="SVGID_2_" gradientUnits="userSpaceOnUse" x1="151.6226" y1="77.5266" x2="151.6226" y2="2.8756">
		<stop  offset="0" style="stop-color:#3D6518"/>
		<stop  offset="1" style="stop-color:#82C53B"/>
	</linearGradient>
	<path class="st1" d="M145.3,58.6c-22,0.8-25.7-40.5-86.2-37C34.9,23,0.1,58.4,0,67.8v9.8h303.2l0-5l0-4.7c0,0-14.6-64.9-56-64.9
		C202.9,2.9,182.4,57.3,145.3,58.6z"/>
</g>
<g>
	<linearGradient id="SVGID_3_" gradientUnits="userSpaceOnUse" x1="151.6481" y1="111.0642" x2="151.6481" y2="70.3427">
		<stop  offset="0" style="stop-color:#2B2834"/>
		<stop  offset="1" style="stop-color:#111114"/>
	</linearGradient>
	<rect x="0" y="70.3" class="st2" width="303.3" height="40.7"/>
</g>
<linearGradient id="SVGID_4_" gradientUnits="userSpaceOnUse" x1="0" y1="69.1879" x2="303.2343" y2="69.1879">
	<stop  offset="0" style="stop-color:#E8E7E0"/>
	<stop  offset="1" style="stop-color:#DAD8D0"/>
</linearGradient>
<rect y="67.8" class="st3" width="303.2" height="2.9"/>
<g>
	<polygon class="st4" points="303.4,98.2 204.8,98.2 0.1,98.2 0.1,99.7 5.2,99.7 0.3,111.1 1.5,111.1 6.5,99.7 13.5,99.7 8.6,111.1 
		9.9,111.1 14.8,99.7 21.8,99.7 16.9,111.1 18.1,111.1 23,99.7 30.1,99.7 25.2,111.1 26.4,111.1 31.3,99.7 38.4,99.7 33.5,111.1 
		34.7,111.1 39.6,99.7 46.7,99.7 41.8,111.1 43,111.1 47.9,99.7 54.8,99.7 49.9,111.1 51.1,111.1 56,99.7 63.3,99.7 58.4,111.1 
		59.6,111.1 64.6,99.7 71.6,99.7 66.7,111.1 68,111.1 72.9,99.7 79.9,99.7 75,111.1 76.3,111.1 81.2,99.7 88.3,99.7 83.4,111.1 
		84.6,111.1 89.5,99.7 96.6,99.7 91.7,111.1 92.9,111.1 97.8,99.7 104.9,99.7 100,111.1 101.2,111.1 106.1,99.7 113.2,99.7 
		108.3,111.1 109.5,111.1 114.4,99.7 121.5,99.7 116.5,111.1 117.8,111.1 122.7,99.7 129.8,99.7 124.9,111.1 126.1,111.1 131,99.7 
		138.1,99.7 133.2,111.1 134.4,111.1 139.3,99.7 146.4,99.7 141.5,111.1 142.7,111.1 147.6,99.7 154.7,99.7 149.8,111.1 151,111.1 
		155.9,99.7 163,99.7 158.1,111.1 159.3,111.1 164.2,99.7 171.2,99.7 166.3,111.1 167.5,111.1 172.4,99.7 179.5,99.7 174.6,111.1 
		175.8,111.1 180.7,99.7 187.8,99.7 182.9,111.1 184.1,111.1 189,99.7 196.1,99.7 191.2,111.1 192.4,111.1 197.3,99.7 204.2,99.7 
		199.3,111.1 200.6,111.1 205.5,99.7 209.9,99.7 205,111.1 206.2,111.1 211.2,99.7 218.2,99.7 213.3,111.1 214.6,111.1 219.5,99.7 
		226.5,99.7 221.6,111.1 222.8,111.1 227.7,99.7 234.8,99.7 229.9,111.1 231.1,111.1 236,99.7 243.1,99.7 238.2,111.1 239.4,111.1 
		244.3,99.7 251.4,99.7 246.5,111.1 247.7,111.1 252.6,99.7 259.5,99.7 254.6,111.1 255.8,111.1 260.7,99.7 268,99.7 263.1,111.1 
		264.3,111.1 269.3,99.7 276.3,99.7 271.4,111.1 272.7,111.1 277.6,99.7 284.6,99.7 279.7,111.1 280.9,111.1 285.9,99.7 293,99.7 
		288.1,111.1 289.3,111.1 294.2,99.7 301.3,99.7 296.4,111.1 297.6,111.1 302.5,99.7 303.4,99.7 	"/>
</g>
<g id="monita">
	<g>
		<g>
			<defs>
				<path id="SVGID_5_" d="M247.3,37.7c-0.1-1.6-1.1-3.6-2.6-4.5c-1.4-0.8-3.3-0.5-4.4,0.5c-1.3,1.1-1.6,3-2.7,4.2
					c-1.2,1.3-2.4,2.7-3.7,3.9c-2.9,2.6-6.3,2.2-8,3c-1.1,0.5-2,1.6-2.4,2.8c-0.5,1.2-0.4,2.5,0.3,3.6c0.8,1.3,2.7,1.7,4.1,1.8
					c1.9,0.2,4,0.1,5.8-0.7c4.2-2,4.6-4.3,5.5-4.7c1.2-0.6,3-0.4,3.9-1.2c1-1,2.1-2.3,2.8-3.5c0.8-1.3,1.4-2.7,1.5-4.2
					C247.4,38.4,247.4,38.1,247.3,37.7z"/>
			</defs>
			<clipPath id="SVGID_6_">
				<use xlink:href="#SVGID_5_"  style="overflow:visible;"/>
			</clipPath>
			
				<linearGradient id="SVGID_7_" gradientUnits="userSpaceOnUse" x1="2358.2498" y1="-421.3135" x2="2329.0981" y2="-409.6957" gradientTransform="matrix(-0.995 0.2058 0.2181 1.054 2657.5022 -2.4806)">
				<stop  offset="0" style="stop-color:#280047"/>
				<stop  offset="1" style="stop-color:#420060"/>
			</linearGradient>
			<polygon class="st5" points="224.2,55.1 250,49.7 245.8,29 219.9,34.4 			"/>
			
				<linearGradient id="SVGID_8_" gradientUnits="userSpaceOnUse" x1="569.6459" y1="51.46" x2="584.272" y2="51.46" gradientTransform="matrix(1.2758 0.1141 -0.2904 1.0087 -484.2891 -74.587)">
				<stop  offset="0" style="stop-color:#1B1617;stop-opacity:0"/>
				<stop  offset="1" style="stop-color:#635A58"/>
			</linearGradient>
			<path class="st6" d="M244.8,35.1c-0.5-0.4-0.9-0.7-1.5-0.9c-0.7-0.3-1.2-0.5-1.9-0.2c-0.6,0.3-1.2,0.8-1.5,1.3
				c-0.7,1.1-0.7,2.5-1.2,3.7c-0.4,1.1-1.5,2.2-2.5,2.8c-0.8,0.5-1.6,0.8-2.3,1.5c-0.8,0.8-1.1,2-1.8,2.8c-1,1.1-2.4,0.8-3.7,0.8
				c-0.6,0-1.4,0.2-2,0.5c-0.7,0.4-0.8,1.5-0.6,2.2c0.3,0.8,0.9,1.4,1.7,1.8c1.3,0.7,2.9,0.9,4.3,0.6c1.5-0.2,2.8-0.9,4.2-1.5
				c3.1-1.6,5.9-3.6,8.4-6c1-1,2.4-2.1,2.6-3.5c0.2-1.4,0.1-2.9-0.6-4.2C246,36.2,245.5,35.6,244.8,35.1z"/>
		</g>
		<g>
			
				<linearGradient id="SVGID_9_" gradientUnits="userSpaceOnUse" x1="13.1201" y1="1069.1991" x2="16.8795" y2="1069.1991" gradientTransform="matrix(-0.8812 -0.4728 -0.4728 0.8812 752.8477 -852.3157)">
				<stop  offset="0" style="stop-color:#2F2829"/>
				<stop  offset="1" style="stop-color:#635A58"/>
			</linearGradient>
			<path class="st7" d="M235.3,84.5L235.3,84.5c-0.1,0.1-0.2,0.2-0.4,0.1c-0.4-0.2-0.8-0.4-1.5-0.8c-0.7-0.4-1.4-2.1-0.5-2.7
				s0.9,1.2,0.9,1.2l1.4,1.9C235.4,84.3,235.4,84.4,235.3,84.5z"/>
		</g>
		<g>
			<defs>
				<path id="SVGID_10_" d="M242,43.5c3.4-0.7,2.7,5.1,3.5,6.4c0.6,1,2.6,2.8,3.9,3.9c0.7,0.6,1.2,0.7,1.5,1
					c0.3,0.3-0.9,1.4-1.1,1.4c-0.2,0-0.4-0.2-0.4-0.2s-0.2,0.2-0.3,0.2c-0.2,0-0.3-0.6-0.3-0.6s-4.4-2.5-5.6-3.7
					C242.1,50.6,239,44.2,242,43.5z"/>
			</defs>
			<clipPath id="SVGID_11_">
				<use xlink:href="#SVGID_10_"  style="overflow:visible;"/>
			</clipPath>
			
				<linearGradient id="SVGID_12_" gradientUnits="userSpaceOnUse" x1="1148.3932" y1="681.0829" x2="1161.2262" y2="681.0829" gradientTransform="matrix(-0.9818 -0.1898 -0.1898 0.9818 1509.6937 -400.3388)">
				<stop  offset="0" style="stop-color:#FDB137"/>
				<stop  offset="1" style="stop-color:#FF940C"/>
			</linearGradient>
			<polygon class="st8" points="250.8,56.8 238.9,55.3 242.3,41.4 254.3,43 			"/>
			
				<linearGradient id="SVGID_13_" gradientUnits="userSpaceOnUse" x1="1494.842" y1="640.1536" x2="1505.368" y2="640.1536" gradientTransform="matrix(0.8672 0.498 -0.498 0.8672 -736.7695 -1252.97)">
				<stop  offset="0" style="stop-color:#635A58;stop-opacity:0"/>
				<stop  offset="1" style="stop-color:#2F2829"/>
			</linearGradient>
			<path class="st9" d="M241.8,47.9c0-0.1-0.1-0.3-0.1-0.4c-0.2-0.9-0.4-1.9,0.1-2.7c0.4-0.9,1.4-1.5,2.3-1.3c1.7,0.3,1.3,2.4,1,3.9
				c-0.2,1-0.4,1.9-0.1,2.9c0.1,0.4,0.5,0.7,0.8,0.9c0.4,0.3,0.8,0.6,1.1,0.9c0.7,0.6,1.3,1.3,1.3,2.3c0,0.3-0.1,0.7-0.3,1
				c-0.3,0.2-0.7,0.2-1,0c-0.6-0.3-1.1-0.8-1.6-1.3c-0.7-0.6-1.3-1.3-2-1.9c-0.6-0.5-1.2-1.1-1.1-2.1
				C242.2,49.3,242,48.6,241.8,47.9z"/>
		</g>
		<g>
			<defs>
				<path id="SVGID_14_" d="M231.6,74c1-2.9,3.2-5.3,3.1-7.3c-0.1-2-5-13.6,0-16.6c2-1.2,2.5,0,3-3.9c0.4-2.7,1.3-4.6,2.7-4.7
					c2-0.2,4.4,2,4.5,3.2c0.2,3.2-1.4,4.8-2.3,5.7c-0.9,0.9-1.4,3-1.4,3s-0.1,7.9-0.9,13.2c-0.9,5.7-6.6,15.7-6.6,15.7
					C231,80.4,230.5,77.3,231.6,74z"/>
			</defs>
			<clipPath id="SVGID_15_">
				<use xlink:href="#SVGID_14_"  style="overflow:visible;"/>
			</clipPath>
			<g class="st10">
				
					<linearGradient id="SVGID_16_" gradientUnits="userSpaceOnUse" x1="1875.0189" y1="558.6968" x2="1905.0593" y2="558.6968" gradientTransform="matrix(0.811 0.585 -0.585 0.811 -971.6784 -1491.6254)">
					<stop  offset="0" style="stop-color:#0E0D15"/>
					<stop  offset="1" style="stop-color:#1F1F3C"/>
				</linearGradient>
				<polygon class="st11" points="240.4,84.5 222,79.9 228.3,49.9 246.7,54.5 				"/>
			</g>
			
				<linearGradient id="SVGID_17_" gradientUnits="userSpaceOnUse" x1="938.4042" y1="701.6653" x2="951.3923" y2="701.6653" gradientTransform="matrix(-0.97 -0.2432 -0.2432 0.97 1328.9823 -403.7104)">
				<stop  offset="0" style="stop-color:#FA1B32"/>
				<stop  offset="1" style="stop-color:#E30A16"/>
			</linearGradient>
			<polygon class="st12" points="246.5,55.1 233.9,51.9 237.1,39.1 249.7,42.3 			"/>
			
				<linearGradient id="SVGID_18_" gradientUnits="userSpaceOnUse" x1="1700.8778" y1="591.4614" x2="1709.1018" y2="591.4614" gradientTransform="matrix(0.8387 0.5447 -0.5447 0.8387 -867.5446 -1377.7981)">
				<stop  offset="0" style="stop-color:#635A58"/>
				<stop  offset="1" style="stop-color:#2F2829;stop-opacity:0"/>
			</linearGradient>
			<path class="st13" d="M236.3,51.6c1.2,0.5,2.2,1.1,3.5,1.2c0.4,0,0.9,0,1.2-0.3c0.3-0.3,0.5-0.7,0.6-1.1c0.4-1.1,0.8-4,3.5-5.2
				c2.7-1.2,0.1-4.3-3.6-5.2c-3.7-0.8-7.6,9.1-7.6,9.1S235.7,51.3,236.3,51.6z"/>
			
				<linearGradient id="SVGID_19_" gradientUnits="userSpaceOnUse" x1="1701.0547" y1="588.5392" x2="1706.7957" y2="588.5392" gradientTransform="matrix(0.8387 0.5447 -0.5447 0.8387 -867.5446 -1377.7981)">
				<stop  offset="0" style="stop-color:#635A58"/>
				<stop  offset="1" style="stop-color:#2F2829;stop-opacity:0"/>
			</linearGradient>
			<path class="st14" d="M243.9,44.5c0,0-0.5-2.3-1.8-3.2c-3.3-2.1-4.8,3.6-4.8,3.6L243.9,44.5z"/>
			
				<linearGradient id="SVGID_20_" gradientUnits="userSpaceOnUse" x1="-1336.0854" y1="-1565.6874" x2="-1336.0854" y2="-1596.7969" gradientTransform="matrix(0.9115 -0.4113 0.4113 0.9115 2100.865 960.5903)">
				<stop  offset="0" style="stop-color:#635A58;stop-opacity:0"/>
				<stop  offset="1" style="stop-color:#2F2829"/>
			</linearGradient>
			<path class="st15" d="M238.5,69.3c-0.6-2.1-1.6-4-1.7-6.1c-0.1-2-0.4-2.2-0.1-4.1c0.2-1.5,0.2-3.2-0.3-4.6
				c-0.5-1.1-1.4-2.2-2.5-2.7c-2.1-0.9-2.8,2.2-3.2,3.6c-0.4,1.5,1.7,5.8,2.2,6.6c0.6,1,1.2,2.1,1.8,3.1c0.4,0.8,0.9,1.5,1,2.4
				c0.3,1.4-0.3,2.9-1.2,4.1c-0.9,1.2-2,2.2-3,3.4c-1,1.1-1.8,2.3-2.3,3.8c-0.5,1.4-0.5,3.1,0.1,4.5c0.6,1.4,2,2.4,3.4,2.3
				c1.7-0.1,3.1-1.6,4.1-3.2C239.1,78.4,239.7,73.5,238.5,69.3z"/>
		</g>
		
			<linearGradient id="SVGID_21_" gradientUnits="userSpaceOnUse" x1="-3558.4072" y1="3788.8801" x2="-3556.6812" y2="3788.657" gradientTransform="matrix(0.5177 0.3102 -0.3197 0.5336 3287.4216 -835.7294)">
			<stop  offset="0" style="stop-color:#DBD9D1"/>
			<stop  offset="1" style="stop-color:#E8E7E0"/>
		</linearGradient>
		<path class="st16" d="M233.7,84.4l-0.5-0.3l2-3.3c0.1-0.1,0.2-0.2,0.4-0.1l0.1,0c0.1,0.1,0.1,0.2,0.1,0.3L233.7,84.4z"/>
		
			<linearGradient id="SVGID_22_" gradientUnits="userSpaceOnUse" x1="-3241.5381" y1="-8558.1738" x2="-3238.7407" y2="-8559.3555" gradientTransform="matrix(0.3087 -0.5186 0.2925 0.1741 3737.4617 -105.8178)">
			<stop  offset="0" style="stop-color:#2F2829"/>
			<stop  offset="1" style="stop-color:#514949"/>
		</linearGradient>
		<path class="st17" d="M234.6,84.6l-0.1,0.1c-0.1,0.1-0.2,0.2-0.4,0.1l-1.5-0.9c-0.1-0.1-0.1-0.2-0.1-0.3l0.1-0.1
			c0.1-0.1,0.2-0.2,0.4-0.1l1.5,0.9C234.7,84.4,234.7,84.5,234.6,84.6z"/>
		<g>
			<g>
				<defs>
					<path id="SVGID_23_" d="M256,55.1l0,5.6c0,0.6-0.5,1-1,1l-3.6,0l0,1.1l4,0c1,0,1.8-0.8,1.8-1.8l0-7.1l0,0
						C256.5,53.9,256,54.5,256,55.1z"/>
				</defs>
				<linearGradient id="SVGID_24_" gradientUnits="userSpaceOnUse" x1="251.3628" y1="58.3884" x2="257.1159" y2="58.3884">
					<stop  offset="0" style="stop-color:#0E0D15"/>
					<stop  offset="1" style="stop-color:#0E0D15"/>
				</linearGradient>
				<use xlink:href="#SVGID_23_"  style="overflow:visible;fill:url(#SVGID_24_);"/>
				<clipPath id="SVGID_25_">
					<use xlink:href="#SVGID_23_"  style="overflow:visible;"/>
				</clipPath>
				<g class="st18">
					
						<linearGradient id="SVGID_26_" gradientUnits="userSpaceOnUse" x1="59.5862" y1="635.0516" x2="66.1918" y2="635.0516" gradientTransform="matrix(1 -2.733596e-04 2.733596e-04 1 191.3335 -576.3569)">
						<stop  offset="0" style="stop-color:#0E0D15"/>
						<stop  offset="1" style="stop-color:#0E0D15"/>
					</linearGradient>
					<rect x="251.1" y="53.8" class="st19" width="6.6" height="9.7"/>
				</g>
				
					<linearGradient id="SVGID_27_" gradientUnits="userSpaceOnUse" x1="62.7315" y1="640.5273" x2="62.7315" y2="633.0987" gradientTransform="matrix(1 -2.733596e-04 2.733596e-04 1 191.3335 -576.3569)">
					<stop  offset="0" style="stop-color:#0E0D15"/>
					<stop  offset="1" style="stop-color:#0E0D15"/>
				</linearGradient>
				<path class="st20" d="M257.6,58.8c1.4,3.3-1.7,6.5-5,5c-0.8-0.3-1.4-0.9-1.7-1.7c-1.4-3.3,1.7-6.5,5-5
					C256.6,57.4,257.3,58,257.6,58.8z"/>
			</g>
			<g>
				<defs>
					<path id="SVGID_28_" d="M232.8,78.6c0-5.9-4.8-10.7-10.6-10.7s-10.6,4.8-10.6,10.7s4.8,10.7,10.6,10.7
						C228,89.3,232.8,84.5,232.8,78.6z M214.9,78.6c0-4,3.2-7.3,7.2-7.3c4,0,7.2,3.3,7.2,7.3s-3.2,7.3-7.2,7.3
						C218.1,85.9,214.9,82.6,214.9,78.6z"/>
				</defs>
				<linearGradient id="SVGID_29_" gradientUnits="userSpaceOnUse" x1="211.5019" y1="78.621" x2="232.755" y2="78.621">
					<stop  offset="0" style="stop-color:#0E0D15"/>
					<stop  offset="1" style="stop-color:#0E0D15"/>
				</linearGradient>
				<use xlink:href="#SVGID_28_"  style="overflow:visible;fill:url(#SVGID_29_);"/>
				<clipPath id="SVGID_30_">
					<use xlink:href="#SVGID_28_"  style="overflow:visible;"/>
				</clipPath>
				
					<linearGradient id="SVGID_31_" gradientUnits="userSpaceOnUse" x1="685.264" y1="-138.1523" x2="685.264" y2="-162.041" gradientTransform="matrix(-1 2.733596e-04 -2.733596e-04 -1 907.3514 -71.6856)">
					<stop  offset="0" style="stop-color:#0E0D15"/>
					<stop  offset="1" style="stop-color:#0E0D15"/>
				</linearGradient>
				<polygon class="st21" points="211.3,66.7 233,66.7 233,90.5 211.3,90.5 				"/>
				
					<linearGradient id="SVGID_32_" gradientUnits="userSpaceOnUse" x1="35.8129" y1="661.5171" x2="35.8129" y2="632.8364" gradientTransform="matrix(1 -2.733596e-04 2.733596e-04 1 191.3335 -576.3569)">
					<stop  offset="0" style="stop-color:#0E0D15"/>
					<stop  offset="1" style="stop-color:#0E0D15"/>
				</linearGradient>
				<path class="st22" d="M240.3,64.5c5.5,12.7-6.6,24.8-19.3,19.3c-3-1.3-5.3-3.7-6.6-6.6c-5.5-12.7,6.6-24.8,19.3-19.3
					C236.6,59.1,239,61.5,240.3,64.5z"/>
			</g>
			<g>
				<defs>
					<path id="SVGID_33_" d="M247.1,78.6c0,5.9,4.8,10.7,10.6,10.7c5.9,0,10.6-4.8,10.6-10.7c0-5.9-4.8-10.7-10.6-10.7
						S247.1,72.7,247.1,78.6z M264.9,78.6c0,4-3.2,7.3-7.2,7.3s-7.2-3.3-7.2-7.3c0-4,3.2-7.3,7.2-7.3S264.9,74.6,264.9,78.6z"/>
				</defs>
				<linearGradient id="SVGID_34_" gradientUnits="userSpaceOnUse" x1="247.0778" y1="78.6112" x2="268.3309" y2="78.6112">
					<stop  offset="0" style="stop-color:#0E0D15"/>
					<stop  offset="1" style="stop-color:#0E0D15"/>
				</linearGradient>
				<use xlink:href="#SVGID_33_"  style="overflow:visible;fill:url(#SVGID_34_);"/>
				<clipPath id="SVGID_35_">
					<use xlink:href="#SVGID_33_"  style="overflow:visible;"/>
				</clipPath>
				
					<linearGradient id="SVGID_36_" gradientUnits="userSpaceOnUse" x1="65.9494" y1="665.6392" x2="65.9494" y2="644.2878" gradientTransform="matrix(1 -2.733596e-04 2.733596e-04 1 191.3335 -576.3569)">
					<stop  offset="0" style="stop-color:#0E0D15"/>
					<stop  offset="1" style="stop-color:#0E0D15"/>
				</linearGradient>
				<rect x="246.6" y="67.9" class="st23" width="21.7" height="21.4"/>
				
					<linearGradient id="SVGID_37_" gradientUnits="userSpaceOnUse" x1="58.5534" y1="676.5901" x2="58.5534" y2="647.9095" gradientTransform="matrix(1 -2.733596e-04 2.733596e-04 1 191.3335 -576.3569)">
					<stop  offset="0" style="stop-color:#0E0D15"/>
					<stop  offset="1" style="stop-color:#0E0D15"/>
				</linearGradient>
				<path class="st24" d="M263,79.5c5.5,12.7-6.6,24.8-19.3,19.3c-3-1.3-5.3-3.7-6.6-6.6c-5.5-12.7,6.6-24.8,19.3-19.3
					C259.3,74.2,261.7,76.6,263,79.5z"/>
			</g>
			<g>
				<defs>
					<path id="SVGID_38_" d="M213,70.8l2.8,2.1l7.2,0c1.7,0,3.2,0.9,4.2,2.3v0l6.2,0c0,0-1.6-8.8-10.1-8.8
						C216.4,66.4,213,70.8,213,70.8z"/>
				</defs>
				<clipPath id="SVGID_39_">
					<use xlink:href="#SVGID_38_"  style="overflow:visible;"/>
				</clipPath>
				
					<linearGradient id="SVGID_40_" gradientUnits="userSpaceOnUse" x1="21.0984" y1="647.4703" x2="41.8363" y2="647.4703" gradientTransform="matrix(1 -2.733596e-04 2.733596e-04 1 191.3335 -576.3569)">
					<stop  offset="0" style="stop-color:#FA1B32"/>
					<stop  offset="1" style="stop-color:#E30A16"/>
				</linearGradient>
				<rect x="212.6" y="66.4" class="st25" width="20.7" height="9.4"/>
				
					<linearGradient id="SVGID_41_" gradientUnits="userSpaceOnUse" x1="18.5382" y1="650.7802" x2="37.0904" y2="650.7802" gradientTransform="matrix(1 -2.733596e-04 2.733596e-04 1 191.3335 -576.3569)">
					<stop  offset="0" style="stop-color:#635A58"/>
					<stop  offset="1" style="stop-color:#2F2829;stop-opacity:0"/>
				</linearGradient>
				<path class="st26" d="M227.6,70c3.9,8.4-4.2,16.6-12.6,12.7c-1.7-0.8-3.1-2.2-3.9-3.9c-3.9-8.4,4.2-16.6,12.6-12.7
					C225.4,66.9,226.8,68.3,227.6,70z"/>
			</g>
			<g>
				<defs>
					<path id="SVGID_42_" d="M251.3,60.1l-1.1,0.3c0-3.4-3.7-3.3-3.7-5.7c0,0,1.8,0,3.5,0C251.8,54.7,251.3,60.1,251.3,60.1z"/>
				</defs>
				<linearGradient id="SVGID_43_" gradientUnits="userSpaceOnUse" x1="246.5097" y1="57.5874" x2="251.3619" y2="57.5874">
					<stop  offset="0" style="stop-color:#0E0D15"/>
					<stop  offset="1" style="stop-color:#0E0D15"/>
				</linearGradient>
				<use xlink:href="#SVGID_42_"  style="overflow:visible;fill:url(#SVGID_43_);"/>
				<clipPath id="SVGID_44_">
					<use xlink:href="#SVGID_42_"  style="overflow:visible;"/>
				</clipPath>
				
					<linearGradient id="SVGID_45_" gradientUnits="userSpaceOnUse" x1="54.3836" y1="636.0977" x2="60.3297" y2="630.1516" gradientTransform="matrix(1 -2.733596e-04 2.733596e-04 1 191.3335 -576.3569)">
					<stop  offset="0" style="stop-color:#0E0D15"/>
					<stop  offset="1" style="stop-color:#0E0D15"/>
				</linearGradient>
				<rect x="246" y="53.6" class="st27" width="5.7" height="6.2"/>
				
					<linearGradient id="SVGID_46_" gradientUnits="userSpaceOnUse" x1="52.4387" y1="634.8777" x2="59.3006" y2="634.8777" gradientTransform="matrix(1 -2.733596e-04 2.733596e-04 1 191.3335 -576.3569)">
					<stop  offset="0" style="stop-color:#0E0D15"/>
					<stop  offset="1" style="stop-color:#0E0D15"/>
				</linearGradient>
				<path class="st28" d="M250.5,57c1.3,3-1.6,6-4.6,4.6c-0.7-0.3-1.3-0.9-1.6-1.6c-1.3-3,1.6-6,4.6-4.6
					C249.6,55.7,250.2,56.3,250.5,57z"/>
			</g>
			<g>
				<defs>
					<path id="SVGID_47_" d="M248.9,60.3L248.9,60.3c0.1,0.3,0.4,0.4,0.6,0.3l0.7-0.2l1.6,4.7l-0.9,0.3l0,0.1
						c0.2,0.5,0.6,0.8,1.1,0.8h0l4.9,12.5c0.3,0.7,1,1,1.6,0.7l0,0l-4.6-14.2c-0.1-0.4-0.6-0.7-1-0.5h0l-1.6-4.7l0.5-0.2
						c0.3-0.1,0.4-0.4,0.3-0.6l0-0.1c-0.1-0.3-0.4-0.4-0.6-0.3l-2.3,0.7C248.9,59.8,248.8,60.1,248.9,60.3z"/>
				</defs>
				<clipPath id="SVGID_48_">
					<use xlink:href="#SVGID_47_"  style="overflow:visible;"/>
				</clipPath>
				
					<linearGradient id="SVGID_49_" gradientUnits="userSpaceOnUse" x1="56.8478" y1="645.533" x2="67.0157" y2="645.533" gradientTransform="matrix(1 -2.733596e-04 2.733596e-04 1 191.3335 -576.3569)">
					<stop  offset="0" style="stop-color:#FA1B32"/>
					<stop  offset="1" style="stop-color:#E30A16"/>
				</linearGradient>
				<rect x="248.4" y="58.4" class="st29" width="10.2" height="21.5"/>
				
					<linearGradient id="SVGID_50_" gradientUnits="userSpaceOnUse" x1="-3215.2722" y1="324.3331" x2="-3203.1238" y2="324.3331" gradientTransform="matrix(0.2366 -7.613864e-02 0.3064 0.9519 912.7115 -483.8656)">
					<stop  offset="0" style="stop-color:#635A58"/>
					<stop  offset="1" style="stop-color:#2F2829;stop-opacity:0"/>
				</linearGradient>
				<polygon class="st30" points="257.7,79.2 254.8,80.1 248.1,59.2 251,58.3 				"/>
			</g>
			<g>
				<defs>
					<polygon id="SVGID_51_" points="235.8,76.5 229.8,59.9 230.7,59.6 236.7,76.1 					"/>
				</defs>
				<clipPath id="SVGID_52_">
					<use xlink:href="#SVGID_51_"  style="overflow:visible;"/>
				</clipPath>
				<line class="st31" x1="230.2" y1="59.8" x2="236.3" y2="76.3"/>
				<rect x="229.4" y="59.6" class="st32" width="3.9" height="7.1"/>
				
					<linearGradient id="SVGID_53_" gradientUnits="userSpaceOnUse" x1="-3297.9739" y1="1918.6842" x2="-3283.9971" y2="1918.6842" gradientTransform="matrix(0.2706 0.302 0.2747 0.9453 594.3328 -755.6847)">
					<stop  offset="8.571827e-02" style="stop-color:#635A58;stop-opacity:0"/>
					<stop  offset="1" style="stop-color:#30292A"/>
				</linearGradient>
				<polygon class="st33" points="232.1,70 233.7,69.4 229.8,58.2 228.1,58.8 				"/>
			</g>
			<g>
				<defs>
					<polygon id="SVGID_54_" points="222.6,76.9 221.5,75.2 229.2,66.8 232.9,65.6 237,76.5 235.8,76.5 232.5,67.4 230.6,67.4 					
						"/>
				</defs>
				<clipPath id="SVGID_55_">
					<use xlink:href="#SVGID_54_"  style="overflow:visible;"/>
				</clipPath>
				<rect x="221.5" y="64.7" class="st34" width="15.2" height="12.3"/>
				
					<linearGradient id="SVGID_56_" gradientUnits="userSpaceOnUse" x1="36.9979" y1="652.3926" x2="51.0167" y2="652.3926" gradientTransform="matrix(1.006 3.995746e-02 -6.236030e-03 1.0454 188.9541 -611.218)">
					<stop  offset="8.571827e-02" style="stop-color:#635A58;stop-opacity:0"/>
					<stop  offset="1" style="stop-color:#30292A"/>
				</linearGradient>
				<polygon class="st35" points="226.1,80 236.2,76.4 232.2,65.2 222.1,68.8 				"/>
			</g>
			<g>
				<defs>
					<path id="SVGID_57_" d="M226.5,57.8c-1.1,1.2,1.7,2.8,1.7,2.8s6.6,0.3,6.3-1.6c-0.4-1.9-2.6-1-4-1
						C229.1,58,227.7,56.4,226.5,57.8z"/>
				</defs>
				<linearGradient id="SVGID_58_" gradientUnits="userSpaceOnUse" x1="226.1914" y1="58.9541" x2="234.4771" y2="58.9541">
					<stop  offset="0" style="stop-color:#0E0D15"/>
					<stop  offset="1" style="stop-color:#0E0D15"/>
				</linearGradient>
				<use xlink:href="#SVGID_57_"  style="overflow:visible;fill:url(#SVGID_58_);"/>
				<clipPath id="SVGID_59_">
					<use xlink:href="#SVGID_57_"  style="overflow:visible;"/>
				</clipPath>
				
					<linearGradient id="SVGID_60_" gradientUnits="userSpaceOnUse" x1="32.8808" y1="635.3474" x2="43.3808" y2="635.3474" gradientTransform="matrix(1 -2.733596e-04 2.733596e-04 1 191.3335 -576.3569)">
					<stop  offset="0" style="stop-color:#0E0D15"/>
					<stop  offset="1" style="stop-color:#0E0D15"/>
				</linearGradient>
				<rect x="224.4" y="57.1" class="st36" width="10.5" height="3.8"/>
				
					<linearGradient id="SVGID_61_" gradientUnits="userSpaceOnUse" x1="35.5604" y1="640.8256" x2="35.5604" y2="634.3903" gradientTransform="matrix(1 -2.733596e-04 2.733596e-04 1 191.3335 -576.3569)">
					<stop  offset="0" style="stop-color:#0E0D15"/>
					<stop  offset="1" style="stop-color:#0E0D15"/>
				</linearGradient>
				<path class="st37" d="M229.9,59.6c1.5,3-1.5,5.9-4.4,4.4c-0.5-0.3-0.9-0.7-1.2-1.2c-1.5-3,1.5-5.9,4.4-4.4
					C229.2,58.7,229.6,59.1,229.9,59.6z"/>
			</g>
			<g>
				<defs>
					<path id="SVGID_62_" d="M250.9,65.5L245.3,76c-1.1,2-3.1,3.3-5.4,3.3l0,0c0,1.4-1,3.3-3.4,3.3c-2.2,0-3.8-1.3-3.8-4l-9,0
						l-2.2-3.4l1,0l0.8,1.2c0,0,10,0,13.5,0c3.5,0,5.1-1,6.4-3.2c1.3-2.2,6.4-11,6.4-11l0-1.9l0.7-0.2l1.9,5.3L250.9,65.5z"/>
				</defs>
				<clipPath id="SVGID_63_">
					<use xlink:href="#SVGID_62_"  style="overflow:visible;"/>
				</clipPath>
				
					<linearGradient id="SVGID_64_" gradientUnits="userSpaceOnUse" x1="29.9506" y1="647.4792" x2="61.5796" y2="647.4792" gradientTransform="matrix(1 -2.733596e-04 2.733596e-04 1 191.3335 -576.3569)">
					<stop  offset="0" style="stop-color:#DBD9D1"/>
					<stop  offset="1" style="stop-color:#E8E7E0"/>
				</linearGradient>
				<rect x="221.5" y="59" class="st38" width="31.6" height="24.2"/>
				<g class="st39">
					
						<linearGradient id="SVGID_65_" gradientUnits="userSpaceOnUse" x1="43.4315" y1="655.8822" x2="46.3642" y2="655.8822" gradientTransform="matrix(1 -2.733596e-04 2.733596e-04 1 191.3335 -576.3569)">
						<stop  offset="0" style="stop-color:#0E0D15"/>
						<stop  offset="1" style="stop-color:#0E0D15"/>
					</linearGradient>
					<path class="st40" d="M237.7,78.9c0.5,1.3-0.7,2.5-2,2c-0.3-0.1-0.6-0.4-0.7-0.7c-0.5-1.3,0.7-2.5,2-2
						C237.4,78.3,237.6,78.6,237.7,78.9z"/>
				</g>
				
					<linearGradient id="SVGID_66_" gradientUnits="userSpaceOnUse" x1="29.4929" y1="648.5339" x2="61.3848" y2="648.5339" gradientTransform="matrix(1 -2.733596e-04 2.733596e-04 1 191.3335 -576.3569)">
					<stop  offset="0" style="stop-color:#635A58"/>
					<stop  offset="1" style="stop-color:#2F2829;stop-opacity:0"/>
				</linearGradient>
				<path class="st41" d="M252.9,64.2l-1.5-3.6l-7.5,13.5c-1.2,1.9-3.3,3-5.5,3L221,77.3l0,6.4l20.6-0.2L252.9,64.2z"/>
			</g>
			
				<linearGradient id="SVGID_67_" gradientUnits="userSpaceOnUse" x1="-1490.4813" y1="-8954.9326" x2="-1488.7554" y2="-8955.1553" gradientTransform="matrix(-0.5077 -0.3263 0.3363 -0.5233 2492.532 -5093.8906)">
				<stop  offset="0" style="stop-color:#DBD9D1"/>
				<stop  offset="1" style="stop-color:#E8E7E0"/>
			</linearGradient>
			<path class="st42" d="M238.3,76l0.5,0.3l-2.1,3.3c-0.1,0.1-0.3,0.1-0.4,0.1l-0.1,0c-0.1-0.1-0.1-0.2-0.1-0.3L238.3,76z"/>
			
				<linearGradient id="SVGID_68_" gradientUnits="userSpaceOnUse" x1="9886.9062" y1="-4826.7549" x2="9889.7021" y2="-4827.9355" gradientTransform="matrix(-0.3248 0.5086 -0.2869 -0.1832 2065.6638 -5837.5913)">
				<stop  offset="0" style="stop-color:#2F2829"/>
				<stop  offset="1" style="stop-color:#514949"/>
			</linearGradient>
			<path class="st43" d="M237.4,75.8l0.1-0.1c0.1-0.1,0.3-0.1,0.4-0.1l1.5,1c0.1,0.1,0.1,0.2,0.1,0.3l-0.1,0.1
				c-0.1,0.1-0.3,0.1-0.4,0.1l-1.5-1C237.4,76,237.4,75.9,237.4,75.8z"/>
		</g>
		<g>
			
				<linearGradient id="SVGID_69_" gradientUnits="userSpaceOnUse" x1="-232.5305" y1="638.7079" x2="-229.1426" y2="638.7079" gradientTransform="matrix(-0.8528 -0.5223 -0.5223 0.8528 376.2133 -590.2015)">
				<stop  offset="0" style="stop-color:#221C1D"/>
				<stop  offset="1" style="stop-color:#534C4B"/>
			</linearGradient>
			<path class="st44" d="M240.3,76.9L240.3,76.9c-0.1,0.1-0.3,0.1-0.4,0.1c-0.4-0.2-0.7-0.5-1.4-0.9c-0.7-0.4-0.6-2.8,0.4-2.8
				s0.3,1.4,0.3,1.4l1.1,1.9C240.4,76.7,240.4,76.8,240.3,76.9z"/>
		</g>
		<g>
			<defs>
				<path id="SVGID_70_" d="M234.8,50.1l4.9,2.4c0,0,8.8,4,8.4,9.8c-0.4,4.8-8.9,12.3-8.9,12.3c-2.4-2.5-2-5.8-0.2-8.7
					c1.6-2.6,3.3-3.1,2.9-3.9C241.6,61.3,225,56.5,234.8,50.1z"/>
			</defs>
			<clipPath id="SVGID_71_">
				<use xlink:href="#SVGID_70_"  style="overflow:visible;"/>
			</clipPath>
			<g class="st45">
				
					<linearGradient id="SVGID_72_" gradientUnits="userSpaceOnUse" x1="1875.7231" y1="552.6544" x2="1906.0511" y2="552.6544" gradientTransform="matrix(0.811 0.585 -0.585 0.811 -971.6784 -1491.6254)">
					<stop  offset="0" style="stop-color:#14152F"/>
					<stop  offset="1" style="stop-color:#0D0B0F"/>
				</linearGradient>
				<polygon class="st46" points="247.8,75.8 224.8,71.8 230.9,47.5 250.5,52.4 				"/>
			</g>
			
				<linearGradient id="SVGID_73_" gradientUnits="userSpaceOnUse" x1="1721.7926" y1="608.8798" x2="1704.3765" y2="597.6924" gradientTransform="matrix(0.8387 0.5447 -0.5447 0.8387 -867.5446 -1377.7981)">
				<stop  offset="0" style="stop-color:#635A58;stop-opacity:0"/>
				<stop  offset="1" style="stop-color:#2F2829"/>
			</linearGradient>
			<path class="st47" d="M233.8,55.8c1.9,1.3,4.2,1.8,6.4,2.1c1.5,0.2,3.5-0.3,4.9,0c1.8,0.3,3.8,1.7,3.6,3.8
				c-0.2,3.2-1.7,6.4-4,8.6c-0.5,0.5-1,0.9-1.6,1.1s-1.4,0.1-1.8-0.4c-0.5-0.5-0.5-1.3-0.4-2c0.1-1.3,0.6-2.6,1.2-3.8
				c0.2-0.4,0.5-0.8,0.6-1.2c0.1-0.4,0.2-0.9-0.1-1.3c-0.3-0.5-0.9-0.7-1.5-0.6c-0.6,0-1.1,0.2-1.6,0.4c-1.6,0.4-4.5-0.4-5.9-1.3
				c-1.1-0.6-1.9-1.5-2.6-2.6c-0.6-1-0.2-2.3-0.1-3.5c0-0.1,0.1-1.1,0.3-1.1C231.8,54.2,233.2,55.4,233.8,55.8z"/>
		</g>
		<g>
			<defs>
				<path id="SVGID_74_" d="M240.5,42.7c3.2-1.3,0.6,5.2,1.6,6.6c0.8,1.1,3.3,3,5.1,4.2c0.9,0.6,1.4,0.7,1.8,1s-0.8,1.5-1,1.5
					c-0.2,0-0.5-0.3-0.5-0.3s-0.1,0.2-0.3,0.2c-0.2,0-0.4-0.6-0.4-0.6s-5.3-2.7-6.9-4C238.3,49.9,237.3,44,240.5,42.7z"/>
			</defs>
			<clipPath id="SVGID_75_">
				<use xlink:href="#SVGID_74_"  style="overflow:visible;"/>
			</clipPath>
			
				<linearGradient id="SVGID_76_" gradientUnits="userSpaceOnUse" x1="1380.0837" y1="646.2631" x2="1398.0862" y2="646.2631" gradientTransform="matrix(-0.9914 -0.131 -0.131 0.9914 1707.1145 -408.8954)">
				<stop  offset="0" style="stop-color:#FF940C"/>
				<stop  offset="1" style="stop-color:#FDB137"/>
			</linearGradient>
			<polygon class="st48" points="249.1,56.6 237.7,55.9 237.3,41.6 255.2,44 			"/>
			
				<linearGradient id="SVGID_77_" gradientUnits="userSpaceOnUse" x1="1262.5193" y1="682.6727" x2="1270.8344" y2="682.6727" gradientTransform="matrix(0.8953 0.4455 -0.4455 0.8953 -586.1463 -1126.2042)">
				<stop  offset="0" style="stop-color:#635A58;stop-opacity:0"/>
				<stop  offset="1" style="stop-color:#2F2829"/>
			</linearGradient>
			<path class="st49" d="M243.7,43.5c0.6,0.1,1,0.5,1.1,1.1c0.1,1-0.9,1.6-1.3,2.4c-0.4,0.7-1.1,1.3-1.2,2.2
				c-0.1,0.8,0.2,1.6,0.8,2.2c0.4,0.4,0.9,0.7,1.4,1c0.5,0.3,0.9,0.7,1.2,1.2c0.2,0.5,0.1,1.1-0.3,1.4c-0.6,0.4-1.5,0.1-2.3-0.2
				c-1.1-0.5-2.1-1.1-3-1.9c-0.6-0.5-1.2-1.1-1-1.8c0.2-0.6,0.9-0.9,1.4-1.3c0.5-0.5,0.7-1.2,0.7-1.8s-0.1-1.3-0.1-2
				c0-0.7,0.1-1.3,0.5-1.9C242.1,43.6,243,43.4,243.7,43.5z"/>
		</g>
		<g>
			<defs>
				<path id="SVGID_78_" d="M240.7,41.9l0.8-2.4c0,0-0.9,0.2-1.3,0c-0.8-0.3-0.5-3.5,0.1-4.3c0.2-0.3,0.8-0.4,1.2-0.5
					c0.5,0,1,0,1.2,0.6c0.1,0.3,0.1,0.6,0.2,0.9c0.2,0.5,0.6,0.9,1.1,1.1c0.1,0,0.3,0.1,0.3,0.1c0,0.1,0,0.2,0,0.3
					c0,0.2,0,0.4,0,0.7c0,1,0.2,6.8-0.5,6.5C243.1,44.7,242.5,42.5,240.7,41.9z"/>
			</defs>
			<clipPath id="SVGID_79_">
				<use xlink:href="#SVGID_78_"  style="overflow:visible;"/>
			</clipPath>
			<path class="st50" d="M242.4,44.9l-5.1-3.2l0,0l3.7-8.4l0,0l6.6,2.9L242.4,44.9z M237.5,41.7l4.9,3.2l5.2-8.6l-6.4-2.9
				L237.5,41.7z"/>
			
				<linearGradient id="SVGID_80_" gradientUnits="userSpaceOnUse" x1="2392.3306" y1="-236.1535" x2="2399.5378" y2="-236.1535" gradientTransform="matrix(-0.9793 0.2026 0.2026 0.9793 2636.3301 -213.9784)">
				<stop  offset="0" style="stop-color:#FF940C"/>
				<stop  offset="1" style="stop-color:#FDB137"/>
			</linearGradient>
			<polygon class="st51" points="244.5,45.8 239.4,44.3 239.8,34.9 244.6,33.6 			"/>
			
				<linearGradient id="SVGID_81_" gradientUnits="userSpaceOnUse" x1="27.4092" y1="173.3242" x2="32.525" y2="173.3242" gradientTransform="matrix(0.992 0.126 -0.126 0.992 234.7538 -136.461)">
				<stop  offset="0" style="stop-color:#2F2829"/>
				<stop  offset="1" style="stop-color:#635A58;stop-opacity:0"/>
			</linearGradient>
			<path class="st52" d="M240.4,38.1l0.5,0l0.4-1.7c0,0,1.2-0.2,1.5,0.4s-0.1,1.5-0.9,2.1c-0.8,0.6-1.7,0.5-1.7,0.5s2.4,1.6,3,4.3
				c0.3,1.3,1.4,0.8,1.4,0.8l0-9c0,0-0.3-1.9-2.6-1.4C241,34.4,240.3,35.3,240.4,38.1z"/>
			
				<linearGradient id="SVGID_82_" gradientUnits="userSpaceOnUse" x1="28.9458" y1="173.9647" x2="32.9399" y2="173.9647" gradientTransform="matrix(0.992 0.126 -0.126 0.992 234.7538 -136.461)">
				<stop  offset="0" style="stop-color:#2F2829"/>
				<stop  offset="1" style="stop-color:#635A58;stop-opacity:0"/>
			</linearGradient>
			<path class="st53" d="M243.4,37.1c0,0-1.4-1.3,0.2-2.4c1.5-1,0.5,5.5,1.6,6.7c-0.2,4.1-0.7,5.9-1.4,2.3c-0.7-3.5-2.2-4.3-2.2-4.3
				S243.1,39.2,243.4,37.1z"/>
		</g>
	</g>
</g>
<path class="st4" d="M198,76.6h-2.9v-1.8h2.9V76.6z M192.2,76.6h-2.9v-1.8h2.9V76.6z M186.5,76.6h-2.9v-1.8h2.9V76.6z M180.7,76.6
	h-2.9v-1.8h2.9V76.6z M174.9,76.6H172v-1.8h2.9V76.6z M169.2,76.6h-2.9v-1.8h2.9V76.6z M163.4,76.6h-2.9v-1.8h2.9V76.6z M157.6,76.6
	h-2.9v-1.8h2.9V76.6z M151.9,76.6H149v-1.8h2.9V76.6z M146.1,76.6h-2.9v-1.8h2.9V76.6z M140.3,76.6h-2.9v-1.8h2.9V76.6z"/>
<g id="carro_morado_1_">
	<g>
		<g>
			<defs>
				<path id="SVGID_83_" d="M36.9,63.5c0,0,10.3-14.9,13.2-18.2c2.9-3.4,6.2-3.4,6.2-3.4H75h18.6c2.8,0,5.5,1.4,7.2,3.7l13,18h10
					c3.6,0,6.5,2.9,6.5,6.5v13.7H28.6V68.5C28.6,65.7,34.2,63.5,36.9,63.5z"/>
			</defs>
			<clipPath id="SVGID_84_">
				<use xlink:href="#SVGID_83_"  style="overflow:visible;"/>
			</clipPath>
			
				<rect x="53.8" y="41.8" transform="matrix(-1 -4.506807e-11 4.506807e-11 -1 135.0958 125.3761)" class="st54" width="27.4" height="41.8"/>
			
				<linearGradient id="SVGID_85_" gradientUnits="userSpaceOnUse" x1="6878.0664" y1="62.4444" x2="6979.6597" y2="62.4444" gradientTransform="matrix(-1 0 0 1 7008.2832 0)">
				<stop  offset="0" style="stop-color:#67258C"/>
				<stop  offset="1" style="stop-color:#4E1570"/>
			</linearGradient>
			<polygon class="st55" points="130.2,41.2 28.6,41.2 28.6,83.7 130.2,83.7 			"/>
			
				<linearGradient id="SVGID_86_" gradientUnits="userSpaceOnUse" x1="6878.0664" y1="79.1049" x2="6979.6597" y2="79.1049" gradientTransform="matrix(-1 0 0 1 7008.2832 0)">
				<stop  offset="0" style="stop-color:#302829;stop-opacity:0"/>
				<stop  offset="1" style="stop-color:#655C5A"/>
			</linearGradient>
			<polygon class="st56" points="28.6,83.7 130.2,83.7 130.2,74.5 28.6,74.5 			"/>
			
				<linearGradient id="SVGID_87_" gradientUnits="userSpaceOnUse" x1="6875.2397" y1="67.2894" x2="6940.1235" y2="67.2894" gradientTransform="matrix(-1 0 0 1 7008.2832 0)">
				<stop  offset="0" style="stop-color:#302829;stop-opacity:0"/>
				<stop  offset="1" style="stop-color:#655C5A"/>
			</linearGradient>
			<path class="st57" d="M68.2,83.7c0-17.8,15.1-32.9,42.8-32.9c25.4,0,22,32.9,22,32.9H68.2z"/>
			<g class="st58">
				<defs>
					<path id="SVGID_88_" d="M80.1,48.3v11.8c0,1.8,1.5,3.2,3.2,3.2h20.2c2.2,0,3.6-2.5,2.3-4.4l-7.5-10.5c-1.5-2.1-4-3.4-6.6-3.4
						h-8.4C81.5,45,80.1,46.5,80.1,48.3z"/>
				</defs>
				<clipPath id="SVGID_89_">
					<use xlink:href="#SVGID_88_"  style="overflow:visible;"/>
				</clipPath>
				
					<rect x="80.1" y="42.9" transform="matrix(-1 -4.515378e-11 4.515378e-11 -1 191.5377 108.3496)" class="st59" width="31.4" height="22.5"/>
				
					<linearGradient id="SVGID_90_" gradientUnits="userSpaceOnUse" x1="1340.9376" y1="-7845.1362" x2="1296.0404" y2="-7890.0332" gradientTransform="matrix(0.7071 0.7071 0.7071 -0.7071 4696.8057 -6447.8184)">
					<stop  offset="0" style="stop-color:#D8D6CD"/>
					<stop  offset="1" style="stop-color:#D8D6CD;stop-opacity:0"/>
				</linearGradient>
				<path class="st60" d="M86.8,60.5c-14.5,8.9-38.1,8.9-52.6,0l52.6-32.3C101.3,37.1,101.3,51.5,86.8,60.5z"/>
			</g>
			<g class="st58">
				<defs>
					<path id="SVGID_91_" d="M71.1,48.3v11.8c0,1.8-1.5,3.2-3.2,3.2H47.7c-2.2,0-3.6-2.5-2.3-4.4l7.5-10.5c1.5-2.1,4-3.4,6.6-3.4
						h8.4C69.7,45,71.1,46.5,71.1,48.3z"/>
				</defs>
				<clipPath id="SVGID_92_">
					<use xlink:href="#SVGID_91_"  style="overflow:visible;"/>
				</clipPath>
				<rect x="39.7" y="42.9" class="st61" width="31.4" height="22.5"/>
				
					<linearGradient id="SVGID_93_" gradientUnits="userSpaceOnUse" x1="6738.4414" y1="-2447.6321" x2="6693.5444" y2="-2492.5295" gradientTransform="matrix(-0.7071 0.7071 -0.7071 -0.7071 3087.5178 -6447.8184)">
					<stop  offset="0" style="stop-color:#D8D6CD"/>
					<stop  offset="1" style="stop-color:#D8D6CD;stop-opacity:0"/>
				</linearGradient>
				<path class="st62" d="M64.4,60.5c14.5,8.9,38.1,8.9,52.6,0L64.4,28.1C49.9,37.1,49.9,51.5,64.4,60.5z"/>
			</g>
			
				<linearGradient id="SVGID_94_" gradientUnits="userSpaceOnUse" x1="6974.7319" y1="69.5312" x2="6979.6597" y2="69.5312" gradientTransform="matrix(-1 0 0 1 7008.2832 0)">
				<stop  offset="0" style="stop-color:#FEC23E"/>
				<stop  offset="1" style="stop-color:#FDA909"/>
			</linearGradient>
			<polygon class="st63" points="28.6,72.2 33.6,72.2 33.6,66.9 28.6,66.9 			"/>
			
				<linearGradient id="SVGID_95_" gradientUnits="userSpaceOnUse" x1="6882.6875" y1="76.6351" x2="6910.8804" y2="76.6351" gradientTransform="matrix(-1 0 0 1 7008.2832 0)">
				<stop  offset="0" style="stop-color:#302829;stop-opacity:0"/>
				<stop  offset="1" style="stop-color:#655C5A"/>
			</linearGradient>
			<path class="st64" d="M97.4,83.7h28.2c0-7.8-6.3-14.1-14.1-14.1S97.4,75.9,97.4,83.7z"/>
			
				<linearGradient id="SVGID_96_" gradientUnits="userSpaceOnUse" x1="6943.4785" y1="76.6351" x2="6971.6709" y2="76.6351" gradientTransform="matrix(-1 0 0 1 7008.2832 0)">
				<stop  offset="0" style="stop-color:#302829;stop-opacity:0"/>
				<stop  offset="1" style="stop-color:#655C5A"/>
			</linearGradient>
			<path class="st65" d="M36.6,83.7h28.2c0-7.8-6.3-14.1-14.1-14.1S36.6,75.9,36.6,83.7z"/>
		</g>
		<g>
			<g>
				<defs>
					<path id="SVGID_97_" d="M102.7,75.7c-8.6,12.1,4.7,25.4,16.8,16.8c0.3-0.2,0.6-0.5,0.8-0.8c8.6-12.1-4.7-25.4-16.8-16.8
						C103.2,75.1,102.9,75.4,102.7,75.7z"/>
				</defs>
				<clipPath id="SVGID_98_">
					<use xlink:href="#SVGID_97_"  style="overflow:visible;"/>
				</clipPath>
				
					<linearGradient id="SVGID_99_" gradientUnits="userSpaceOnUse" x1="6885.1982" y1="83.6762" x2="6908.3696" y2="83.6762" gradientTransform="matrix(-1 0 0 1 7008.2832 0)">
					<stop  offset="0" style="stop-color:#0E0D15"/>
					<stop  offset="1" style="stop-color:#201F3C"/>
				</linearGradient>
				<polygon class="st66" points="99.9,95.3 123.1,95.3 123.1,72.1 99.9,72.1 				"/>
				
					<linearGradient id="SVGID_100_" gradientUnits="userSpaceOnUse" x1="6878.8442" y1="88.5125" x2="6905.0415" y2="88.5125" gradientTransform="matrix(-1 0 0 1 7008.2832 0)">
					<stop  offset="0" style="stop-color:#302829;stop-opacity:0"/>
					<stop  offset="1" style="stop-color:#655C5A"/>
				</linearGradient>
				<ellipse class="st67" cx="116.3" cy="88.5" rx="13.1" ry="13.1"/>
			</g>
			<path class="st68" d="M105.9,78.7c-5.4,7.6,3,16,10.6,10.6c0.2-0.2,0.4-0.3,0.6-0.6c5.4-7.6-3-16-10.6-10.6
				C106.3,78.2,106.1,78.4,105.9,78.7z"/>
		</g>
		<g>
			<g>
				<defs>
					<path id="SVGID_101_" d="M41.9,75.7c-8.6,12.1,4.7,25.4,16.8,16.8c0.3-0.2,0.6-0.5,0.8-0.8c8.6-12.1-4.7-25.4-16.8-16.8
						C42.4,75.1,42.1,75.4,41.9,75.7z"/>
				</defs>
				<clipPath id="SVGID_102_">
					<use xlink:href="#SVGID_101_"  style="overflow:visible;"/>
				</clipPath>
				
					<linearGradient id="SVGID_103_" gradientUnits="userSpaceOnUse" x1="6944.4111" y1="83.6763" x2="6970.7388" y2="83.6763" gradientTransform="matrix(-1 0 0 1 7008.2832 0)">
					<stop  offset="0" style="stop-color:#0E0D15"/>
					<stop  offset="1" style="stop-color:#201F3C"/>
				</linearGradient>
				<polygon class="st69" points="37.5,96.8 63.9,96.8 63.9,70.5 37.5,70.5 				"/>
				
					<linearGradient id="SVGID_104_" gradientUnits="userSpaceOnUse" x1="6939.6353" y1="88.5125" x2="6965.8325" y2="88.5125" gradientTransform="matrix(-1 0 0 1 7008.2832 0)">
					<stop  offset="0" style="stop-color:#302829;stop-opacity:0"/>
					<stop  offset="1" style="stop-color:#655C5A"/>
				</linearGradient>
				<ellipse class="st70" cx="55.5" cy="88.5" rx="13.1" ry="13.1"/>
			</g>
			<path class="st68" d="M45.1,78.7c-5.4,7.6,3,16,10.6,10.6c0.2-0.2,0.4-0.3,0.6-0.6c5.4-7.6-3-16-10.6-10.6
				C45.5,78.2,45.3,78.4,45.1,78.7z"/>
		</g>
		
			<linearGradient id="SVGID_105_" gradientUnits="userSpaceOnUse" x1="6881.4321" y1="69.5312" x2="6888.9639" y2="69.5312" gradientTransform="matrix(-1 0 0 1 7008.2832 0)">
			<stop  offset="0" style="stop-color:#FEC23E"/>
			<stop  offset="1" style="stop-color:#FDA909"/>
		</linearGradient>
		<path class="st71" d="M119.3,72.2h4.9c1.4,0,2.6-1.2,2.6-2.6l0,0c0-1.5-1.2-2.6-2.6-2.6h-4.9V72.2z"/>
	</g>
</g>
</svg>
