<?xml version="1.0" encoding="utf-8"?>
<!-- Generator: Adobe Illustrator 22.0.1, SVG Export Plug-In . SVG Version: 6.00 Build 0)  -->
<svg version="1.1" id="Layer_1" xmlns="http://www.w3.org/2000/svg" xmlns:xlink="http://www.w3.org/1999/xlink" x="0px" y="0px"
	 viewBox="0 0 50.7 103.7" style="enable-background:new 0 0 50.7 103.7;" xml:space="preserve">
<g>
	
		<linearGradient id="SVGID_1_" gradientUnits="userSpaceOnUse" x1="573.8282" y1="-71.6132" x2="576.4013" y2="-71.9458" gradientTransform="matrix(-0.5595 -0.2262 0.2331 -0.5767 361.5873 179.5539)">
		<stop  offset="0" style="stop-color:#D9D9D8"/>
		<stop  offset="1" style="stop-color:#E5E5E4"/>
	</linearGradient>
	<path style="fill:url(#SVGID_1_);" d="M24.3,85.5l0.9,0.4L22,95.9c-0.1,0.2-0.3,0.3-0.5,0.2l-0.2-0.1C21,96,20.9,95.8,21,95.5
		L24.3,85.5z"/>
	<linearGradient id="SVGID_2_" gradientUnits="userSpaceOnUse" x1="20.3245" y1="78.1435" x2="33.0721" y2="72.7603">
		<stop  offset="0" style="stop-color:#EE4050"/>
		<stop  offset="1" style="stop-color:#D72538"/>
	</linearGradient>
	<path style="fill:url(#SVGID_2_);" d="M26.2,62.2c-1,0-1.8,0.8-1.8,1.8c-0.2,5.6-0.7,21.9-0.1,23.4c0.5,1.4,3,1.4,4.2,0.9
		c0.2-0.1,1-0.9,1-1.5c0.1-4.1-0.1-17.7-0.2-22.8c0-1-0.8-1.8-1.8-1.8L26.2,62.2z"/>
	<g>
		<defs>
			<path id="SVGID_3_" d="M18.8,90.7c0.7,0,3.3,1,2.1,2.3c-0.5,0.6-0.3,1-1,1.2c-0.8,0.3-1.9,0-2.7,0.1c-0.5,0.1-1.1-0.1-1.6-0.3
				c-0.5-0.2-0.9-0.6-1-1.1c0-0.4,0.2-0.8,0.5-1.1c0.3-0.3,0.7-0.5,1.1-0.6C17,90.9,17.9,90.7,18.8,90.7z"/>
		</defs>
		<clipPath id="SVGID_4_">
			<use xlink:href="#SVGID_3_"  style="overflow:visible;"/>
		</clipPath>
		
			<linearGradient id="SVGID_5_" gradientUnits="userSpaceOnUse" x1="-2414.2769" y1="536.338" x2="-2397.1011" y2="536.338" gradientTransform="matrix(1 0 0 1 2432.1917 -455.9269)">
			<stop  offset="0" style="stop-color:#737374;stop-opacity:0"/>
			<stop  offset="1" style="stop-color:#414242"/>
		</linearGradient>
		<path style="opacity:0.3;clip-path:url(#SVGID_4_);fill:url(#SVGID_5_);" d="M27.2,71.9c-0.5,1.1-0.7,2.3-0.8,3.5
			c-0.2,4,0.5,8.2,3.9,10.4c0.6,0.4,1.6,1.1,2.3,1.3c1,0.3,2.5,0.8,2.4,1.5c-0.2,1.1-2.9,2.3-4.1,2.5c-2.4,0.5-10.2-2.2-11.5-4.3
			c-1.3-2.1-1.9-4.4-1.6-6.9c0.3-2.3,4.9-4.6,6.2-6.6c0.9-1.4,2.2-2.6,3.7-3.3c0.5-0.2,2-0.9,1,0C28.2,70.6,27.6,71.1,27.2,71.9z"/>
		
			<linearGradient id="SVGID_6_" gradientUnits="userSpaceOnUse" x1="-2394.7166" y1="551.1247" x2="-2418.5552" y2="527.2861" gradientTransform="matrix(1 0 0 1 2432.1917 -455.9269)">
			<stop  offset="0" style="stop-color:#8E2D37"/>
			<stop  offset="1" style="stop-color:#781A26"/>
		</linearGradient>
		<polygon style="clip-path:url(#SVGID_4_);fill:url(#SVGID_6_);" points="12,96.6 39.1,93.5 39.1,70 12,73 		"/>
	</g>
	<g>
		<defs>
			<path id="SVGID_7_" d="M30.4,9.2c-0.6-1.5,0-3.5-0.9-4.8c-0.7-1-1.8-1.3-3-1.5c-0.9-0.1-3.5,0.2-4,1.5c-0.2,0.6,0,2.2,0,3
				c-0.1,2.1-1.4,2.3-0.7,4.6c0.2,0.8,1.3,1.3,1.9,1.7c0.6,0.4-1.1,5.6-1.1,5.6s1.6,6.5,3.2,6.5s4.2-6,4.2-6s-1.4-5.8-1-6
				c0.8-0.3,1.5-0.9,1.8-1.7C31.2,11.3,30.8,10.2,30.4,9.2z"/>
		</defs>
		<linearGradient id="SVGID_8_" gradientUnits="userSpaceOnUse" x1="21.6753" y1="14.3718" x2="30.9936" y2="14.3718">
			<stop  offset="0" style="stop-color:#FAB23E"/>
			<stop  offset="1" style="stop-color:#FAB220"/>
		</linearGradient>
		<use xlink:href="#SVGID_7_"  style="overflow:visible;fill:url(#SVGID_8_);"/>
		<clipPath id="SVGID_9_">
			<use xlink:href="#SVGID_7_"  style="overflow:visible;"/>
		</clipPath>
		
			<linearGradient id="SVGID_10_" gradientUnits="userSpaceOnUse" x1="-2411.0503" y1="470.9131" x2="-2399.9229" y2="470.5773" gradientTransform="matrix(1 0 0 1 2432.1917 -455.9269)">
			<stop  offset="0" style="stop-color:#FAB23E"/>
			<stop  offset="1" style="stop-color:#FAB220"/>
		</linearGradient>
		<rect x="21.5" y="2.6" style="clip-path:url(#SVGID_9_);fill:url(#SVGID_10_);" width="10.4" height="24.5"/>
		
			<linearGradient id="SVGID_11_" gradientUnits="userSpaceOnUse" x1="-2410.2605" y1="473.8207" x2="-2402.6736" y2="473.8207" gradientTransform="matrix(1 0 0 1 2432.1917 -455.9269)">
			<stop  offset="0" style="stop-color:#FAB23E"/>
			<stop  offset="1" style="stop-color:#FAB220"/>
		</linearGradient>
		<path style="opacity:0.3;clip-path:url(#SVGID_9_);fill:url(#SVGID_11_);" d="M23.8,13.7c1.8,0.7,3.6,0.2,5.7,0.2l0,3.2
			c0,0-5,6-6.1,6.1c-0.9,0.1-1.5-10.6-1.5-10.6S22.4,13.2,23.8,13.7z"/>
	</g>
	<linearGradient id="SVGID_12_" gradientUnits="userSpaceOnUse" x1="33.4267" y1="44.504" x2="18.7377" y2="44.504">
		<stop  offset="0" style="stop-color:#151B26"/>
		<stop  offset="1" style="stop-color:#151B26"/>
	</linearGradient>
	<path style="fill:url(#SVGID_12_);" d="M18.7,44.1c1.3,0,1.6-0.3,1.7,1.1c0.1,0.6,0.3,1.3,0.8,1.7c1.5,1.3,3.1,1.3,5,1.3
		c1.6,0,3.4-0.1,4.8-0.8c0.5-0.3,1-1,1.1-1.5c0.3-1.2-0.6-1.8,1.2-1.8c2.1,0,2.1-3.3,0-3.3c-1.5,0-2.7,0.2-3.8,1.3
		c-1.5,1.6,0.7,2.5-2.2,2.7c-0.6,0.1-3.6,0.3-3.7-0.7c-0.1-0.7-0.1-1.4-0.5-2c-0.9-1.5-2.9-1.4-4.4-1.4
		C16.6,40.9,16.6,44.2,18.7,44.1L18.7,44.1z"/>
	
		<linearGradient id="SVGID_13_" gradientUnits="userSpaceOnUse" x1="-1526.496" y1="-8593.6475" x2="-1516.4266" y2="-8597.8994" gradientTransform="matrix(1.084854e-02 -0.6034 0.3404 6.119483e-03 2960.3589 -770.2733)">
		<stop  offset="0" style="stop-color:#414141"/>
		<stop  offset="1" style="stop-color:#646464"/>
	</linearGradient>
	<path style="fill:url(#SVGID_13_);" d="M21.9,94.7l0,1.1c0,0.2-0.2,0.4-0.4,0.4l-6.8-0.1c-0.2,0-0.4-0.2-0.4-0.4l0-1.1
		c0-0.2,0.2-0.4,0.4-0.4l6.8,0.1C21.7,94.3,21.9,94.5,21.9,94.7z"/>
	<linearGradient id="SVGID_14_" gradientUnits="userSpaceOnUse" x1="28.7717" y1="84.5286" x2="24.6472" y2="84.5286">
		<stop  offset="0" style="stop-color:#151B26"/>
		<stop  offset="1" style="stop-color:#151B26"/>
	</linearGradient>
	<path style="fill:url(#SVGID_14_);" d="M27,103.7h-0.7c-1,0-1.7-0.8-1.7-1.7V67.1c0-1,0.8-1.7,1.7-1.7H27c1,0,1.7,0.8,1.7,1.7V102
		C28.8,102.9,28,103.7,27,103.7z"/>
	<g>
		<linearGradient id="SVGID_15_" gradientUnits="userSpaceOnUse" x1="22.0301" y1="80.9866" x2="24.4739" y2="80.9866">
			<stop  offset="0" style="stop-color:#D9D9D8"/>
			<stop  offset="1" style="stop-color:#E5E5E4"/>
		</linearGradient>
		<path style="fill:url(#SVGID_15_);" d="M23.7,76.5c0,1.7-1.6,3.4-1.7,5.1c0,1.4-0.1,2.8,0.2,4.1c0.1,0.3,0.2,0.7,0.5,0.8
			c0.3,0.1,0.7-0.1,0.9-0.4c0.2-0.3,0.2-0.7,0.2-1c0.1-1.3,0.1-2.6,0.2-3.9c0-0.4-0.1-1.5-0.1-1.6c-0.1-0.1,0.5-2.6,0.5-2.7
			C24.4,74.6,23.7,75.4,23.7,76.5z"/>
	</g>
	<g>
		
			<linearGradient id="SVGID_16_" gradientUnits="userSpaceOnUse" x1="7699.3667" y1="80.9866" x2="7701.8105" y2="80.9866" gradientTransform="matrix(-1 0 0 1 7730.5391 0)">
			<stop  offset="0" style="stop-color:#D9D9D8"/>
			<stop  offset="1" style="stop-color:#E5E5E4"/>
		</linearGradient>
		<path style="fill:url(#SVGID_16_);" d="M29.5,76.5c0,1.7,1.6,3.4,1.7,5.1c0,1.4,0.1,2.8-0.2,4.1c-0.1,0.3-0.2,0.7-0.5,0.8
			c-0.3,0.1-0.7-0.1-0.9-0.4c-0.2-0.3-0.2-0.7-0.2-1c-0.1-1.3-0.1-2.6-0.2-3.9c0-0.4,0.1-1.5,0.1-1.6c0.1-0.1-0.5-2.6-0.5-2.7
			C28.8,74.6,29.5,75.4,29.5,76.5z"/>
	</g>
	<linearGradient id="SVGID_17_" gradientUnits="userSpaceOnUse" x1="23.7165" y1="83.2219" x2="24.6515" y2="83.2219">
		<stop  offset="0" style="stop-color:#757575"/>
		<stop  offset="1" style="stop-color:#757575"/>
	</linearGradient>
	<path style="fill:url(#SVGID_17_);" d="M24.7,83c0,1.6-0.1,2.5-0.5,2.5c-0.5,0-0.5-0.8-0.5-2.5s0.2-2,0.5-2
		C24.4,81,24.7,81.4,24.7,83z"/>
	<linearGradient id="SVGID_18_" gradientUnits="userSpaceOnUse" x1="28.7282" y1="83.2219" x2="29.6631" y2="83.2219">
		<stop  offset="0" style="stop-color:#757575"/>
		<stop  offset="1" style="stop-color:#757575"/>
	</linearGradient>
	<path style="fill:url(#SVGID_18_);" d="M29.7,83c0,1.6-0.1,2.5-0.5,2.5c-0.5,0-0.5-0.8-0.5-2.5s0.2-2,0.5-2
		C29.5,81,29.7,81.4,29.7,83z"/>
	<g>
		<defs>
			<path id="SVGID_19_" d="M23.8,10.9c1.6,0.4,6.5,0.2,7-1.8s1.6-9-4.7-9.1c-3.7-0.1-4.4,2.6-4.8,4.7S20.9,10.2,23.8,10.9z"/>
		</defs>
		<clipPath id="SVGID_20_">
			<use xlink:href="#SVGID_19_"  style="overflow:visible;"/>
		</clipPath>
		<g style="clip-path:url(#SVGID_20_);">
			
				<linearGradient id="SVGID_21_" gradientUnits="userSpaceOnUse" x1="-2420.093" y1="59.2669" x2="-2405.321" y2="45.5124" gradientTransform="matrix(0.9973 -7.369055e-02 7.369055e-02 0.9973 2427.2747 -223.3378)">
				<stop  offset="0" style="stop-color:#414242"/>
				<stop  offset="1" style="stop-color:#737374"/>
			</linearGradient>
			<polygon style="fill:url(#SVGID_21_);" points="18.1,14.1 32.3,13.8 31.9,-0.7 17.1,0.3 			"/>
		</g>
		
			<linearGradient id="SVGID_22_" gradientUnits="userSpaceOnUse" x1="-2421.5767" y1="52.3928" x2="-2406.9751" y2="52.3928" gradientTransform="matrix(0.9973 -7.369055e-02 7.369055e-02 0.9973 2427.2747 -223.3378)">
			<stop  offset="0" style="stop-color:#414242;stop-opacity:0"/>
			<stop  offset="1" style="stop-color:#737374"/>
		</linearGradient>
		<path style="opacity:0.75;clip-path:url(#SVGID_20_);fill:url(#SVGID_22_);" d="M21.7,0c0,0,1.2,3,3,2.4c2.9-1,4.9,1,5.5,2.6
			c0.4,1.1,0.8,3.1,0.4,4.3c-0.5,1.2-1.3,2.2-2.4,2.8C26.9,12.8,21,14,21,14l-5-8.3L21.7,0z"/>
	</g>
	<linearGradient id="SVGID_23_" gradientUnits="userSpaceOnUse" x1="44.2725" y1="42.4522" x2="32.1597" y2="42.4522">
		<stop  offset="0" style="stop-color:#151B26"/>
		<stop  offset="1" style="stop-color:#151B26"/>
	</linearGradient>
	<path style="fill:url(#SVGID_23_);" d="M43.1,43.9h-9.7c-0.7,0-1.2-0.5-1.2-1.2v-0.5c0-0.7,0.5-1.2,1.2-1.2h9.7
		c0.7,0,1.2,0.5,1.2,1.2v0.5C44.3,43.3,43.7,43.9,43.1,43.9z"/>
	<linearGradient id="SVGID_24_" gradientUnits="userSpaceOnUse" x1="19.9343" y1="42.4522" x2="7.8215" y2="42.4522">
		<stop  offset="0" style="stop-color:#151B26"/>
		<stop  offset="1" style="stop-color:#151B26"/>
	</linearGradient>
	<path style="fill:url(#SVGID_24_);" d="M18.7,43.9H9c-0.7,0-1.2-0.5-1.2-1.2v-0.5C7.8,41.6,8.4,41,9,41h9.7c0.7,0,1.2,0.5,1.2,1.2
		v0.5C19.9,43.3,19.4,43.9,18.7,43.9z"/>
	<linearGradient id="SVGID_25_" gradientUnits="userSpaceOnUse" x1="26.0776" y1="59.9488" x2="27.5403" y2="59.9488">
		<stop  offset="0" style="stop-color:#D9D9D8"/>
		<stop  offset="1" style="stop-color:#E5E5E4"/>
	</linearGradient>
	<path style="fill:url(#SVGID_25_);" d="M26.9,63.7h-0.2c-0.3,0-0.6-0.3-0.6-0.6v-6.3c0-0.3,0.3-0.6,0.6-0.6h0.2
		c0.3,0,0.6,0.3,0.6,0.6l0,6.3C27.5,63.5,27.3,63.7,26.9,63.7z"/>
	<linearGradient id="SVGID_26_" gradientUnits="userSpaceOnUse" x1="24.3316" y1="74.8113" x2="29.0532" y2="74.8113">
		<stop  offset="0" style="stop-color:#EE4050"/>
		<stop  offset="1" style="stop-color:#D72538"/>
	</linearGradient>
	<path style="fill:url(#SVGID_26_);" d="M27.1,84.9h-0.8c-1.1,0-2-0.9-2-2V66.7c0-1.1,0.9-2,2-2h0.8c1.1,0,2,0.9,2,2v16.1
		C29.1,84,28.2,84.9,27.1,84.9z"/>
	<linearGradient id="SVGID_27_" gradientUnits="userSpaceOnUse" x1="21.0869" y1="56.4585" x2="32.8505" y2="56.4585">
		<stop  offset="0" style="stop-color:#151B26"/>
		<stop  offset="1" style="stop-color:#151B26"/>
	</linearGradient>
	<path style="fill:url(#SVGID_27_);" d="M28.2,54.5c-0.9,0.1-1.8,0.1-2.7,0c-0.6-0.1-1.1-0.2-1.7-0.1c-1.3,0.1-2.3,1-2.6,2.1
		c-0.1,0.3-0.1,0.6,0,0.9c0.2,0.8,1.2,1.3,2.1,1.4c0.9,0.1,1.8-0.2,2.7-0.4c0.9-0.2,1.9-0.4,2.7-0.2c0.6,0.1,1.1,0.4,1.7,0.5
		c1.1,0,2.2-1.3,2.4-2.3c0.1-0.7-0.1-1.5-0.7-2C31.2,53.7,29.4,54.3,28.2,54.5z"/>
	
		<linearGradient id="SVGID_28_" gradientUnits="userSpaceOnUse" x1="7741.3735" y1="33.2919" x2="7756.5522" y2="33.2919" gradientTransform="matrix(-1 0 0 1 7792.1123 0)">
		<stop  offset="0" style="stop-color:#FFC75B"/>
		<stop  offset="1" style="stop-color:#FBB324"/>
	</linearGradient>
	<path style="fill:url(#SVGID_28_);" d="M35.9,41.4c0-0.2-0.3-0.4-0.3-0.6c0-0.2,0-0.4,0.2-0.5c0.2-0.1,0.4-0.1,0.6,0
		c0.1,0,0.2,0.1,0.2,0.1c0.1,0,0.1,0.1,0.1,0.2c0.1-0.4,0.3-0.9,0.6-1.2c1-1.1,2.9-1,3.4-0.9c1,0.1,1,0.6,1.1,1.1
		c0.1,0.4,0.1,0.1,0.8,0c2-0.2,1.7-2.8,1.7-2.8c-0.1-0.5-3.2-5.6-3.8-7.1c-0.6-1.4,0.8-6.1,1.5-6.6c0,0,8.8,12.2,8.8,14.4
		c0,1.7-2.4,5.1-6.9,6c-1.5,0.3-1,0.1-1.9,0.2c-0.7,0-2.5-1.2-2.6-1.2c-1.6,0-2.4-0.3-2.9-0.3c0,0-0.1,0-0.2,0
		c-0.2,0-0.3-0.1-0.4-0.3C35.9,41.6,35.9,41.5,35.9,41.4z"/>
	
		<linearGradient id="SVGID_29_" gradientUnits="userSpaceOnUse" x1="7743.6992" y1="34.8631" x2="7756.5786" y2="34.8631" gradientTransform="matrix(-1 0 0 1 7792.1123 0)">
		<stop  offset="0" style="stop-color:#414141"/>
		<stop  offset="0.2258" style="stop-color:#414141"/>
		<stop  offset="1" style="stop-color:#737373;stop-opacity:0"/>
	</linearGradient>
	<path style="opacity:0.3;fill:url(#SVGID_29_);" d="M40.2,38.4c0.3,0,0.8,0.1,1.1,0.2c0.3,0.1,0.5,0.8,0.5,1.1
		c0.8-0.3,1.5-0.2,1.9-0.8c0.6-0.8,0.7-2,0.4-2.6c-0.5-1-3.1-5.2-3.2-5.5c-0.1-0.3-0.6-1.2-0.6-1.5c-0.1-1.3,0.1-1.8,0.3-3.1
		c1.2,1.2,2.5,2.4,3.4,3.9c0.4,0.6,0.7,1.3,1.1,1.9c0.4,0.6,1,1,1.3,1.6c0.2,0.3,0.3,0.6,0.5,1c0.9,2.4,2.4,5.1,0.8,7.2
		c-1.8,1.1-3.5,2-6.1,1.8c-1.7-0.2-2.1-1.1-2.5-1.2c-0.8-0.1-1.4-0.1-2.2-0.3c-0.2-0.1-0.8,0-0.9-0.2c-0.1-0.1-0.1-0.3-0.2-0.4
		c-0.1-0.5-0.4-0.5-0.2-1c0.1,0,0.1-0.3,0.2-0.3c0,0.1,0.6,0,0.6,0.1c0.2,0.1,0.3,0.3,0.3,0.3c0.1-0.8,0.8-1.6,1.5-1.8
		C38.8,38.4,39.5,38.4,40.2,38.4z"/>
	
		<linearGradient id="SVGID_30_" gradientUnits="userSpaceOnUse" x1="-1513.9719" y1="-8545.2607" x2="-1503.9026" y2="-8549.5127" gradientTransform="matrix(1.084854e-02 -0.6034 0.3404 6.119483e-03 2960.3589 -770.2733)">
		<stop  offset="0" style="stop-color:#414141"/>
		<stop  offset="1" style="stop-color:#646464"/>
	</linearGradient>
	<path style="fill:url(#SVGID_30_);" d="M38.5,87.4l0,1.1c0,0.2-0.2,0.4-0.4,0.4l-6.8-0.1c-0.2,0-0.4-0.2-0.4-0.4l0-1.1
		c0-0.2,0.2-0.4,0.4-0.4l6.8,0.1C38.3,87,38.5,87.2,38.5,87.4z"/>
	<linearGradient id="SVGID_31_" gradientUnits="userSpaceOnUse" x1="30.6298" y1="85.2994" x2="37.8209" y2="85.2994">
		<stop  offset="0" style="stop-color:#8E2D37"/>
		<stop  offset="1" style="stop-color:#781A26"/>
	</linearGradient>
	<path style="fill:url(#SVGID_31_);" d="M36.2,86.8c0.4-0.1,0.8-0.3,1.1-0.6c0.3-0.3,0.5-0.7,0.5-1.1c0-0.5-0.4-1-0.9-1.2
		c-0.5-0.2-1-0.2-1.5-0.2c-0.9,0.1-1.7,0.2-2.5,0.4c-0.7,0.2-1.4-1.2-1.9-0.6c-1.2,1.2,2,3.5,2.6,3.5C34.5,87.2,35.4,87.1,36.2,86.8
		z"/>
	<g>
		<defs>
			<path id="SVGID_33_" d="M14.2,64.7c1.8,14.7-3.2,27,3.9,28.8c3.2,0.8,1.7-3.2,1.7-3.2s1.5-10.7,2.1-14.6c0.8-6,1-15.9,1-16.9
				c0,0-1-0.2-1.4-0.7c-0.6-0.7-0.5-1.6,0.1-2.2c0.5-0.4,2,0.1,2.8-0.1c2.7-0.5,1.9-1.5,3.3-0.8c0.4,0.2,1.2,0.9,1.7,0.9
				c1.5,0.2,3.4-0.5,3.4,0.1c0,1.4-1.7,2.5-1.7,2.5c1.8,3.1,4.6,8.1,3.2,10.6c-5.3,9.4-3.7,16.4-3.7,16.4s3.1,5.6,5.8-4.4
				c2.1-7.6,5.2-5.5,7.1-14.9c0.6-3-4.4-13.7-7.4-19.3c-1.6-3-3.4,0-7.9,0c-7.7,0-11.4-1.3-11.4-1.3S13.7,60.6,14.2,64.7z"/>
		</defs>
		<clipPath id="SVGID_32_">
			<use xlink:href="#SVGID_33_"  style="overflow:visible;"/>
		</clipPath>
		
			<linearGradient id="SVGID_34_" gradientUnits="userSpaceOnUse" x1="-2437.9941" y1="533.3876" x2="-2375.3904" y2="533.3876" gradientTransform="matrix(1 0 0 1 2432.1917 -455.9269)">
			<stop  offset="0" style="stop-color:#24324C"/>
			<stop  offset="1" style="stop-color:#3E537D"/>
		</linearGradient>
		<polygon style="clip-path:url(#SVGID_32_);fill:url(#SVGID_34_);" points="-5.7,108.1 56.8,108.1 56.7,46.8 -5.8,46.8 		"/>
		
			<linearGradient id="SVGID_35_" gradientUnits="userSpaceOnUse" x1="-2414.8354" y1="532.086" x2="-2391.8423" y2="532.086" gradientTransform="matrix(1 0 0 1 2432.1917 -455.9269)">
			<stop  offset="0" style="stop-color:#414242"/>
			<stop  offset="0.4135" style="stop-color:#434444;stop-opacity:0.5865"/>
			<stop  offset="0.633" style="stop-color:#4B4C4C;stop-opacity:0.367"/>
			<stop  offset="0.807" style="stop-color:#59595A;stop-opacity:0.193"/>
			<stop  offset="0.9561" style="stop-color:#6C6C6D;stop-opacity:4.391211e-02"/>
			<stop  offset="1" style="stop-color:#737374;stop-opacity:0"/>
		</linearGradient>
		<path style="opacity:0.3;clip-path:url(#SVGID_32_);fill:url(#SVGID_35_);" d="M19.8,66.3c0-1.2,0.7-10.7,1.7-11.3
			c6.1-3.8,11.9-1.7,17.3,9.2c3.2,6.5,0.5,1.2-2,7.9c-1.4,3.6-2.4,8.2-4,11.7c-1.5,3.5,2.3,5.8,4.2,9.2c0.5,0.8,1.1,1.6,1.5,2.5
			c0.4,0.9,0.3,2.1-0.4,2.7c-0.6,0.6-1.5,0.6-2.3,0.7c-3.2,0.2-6.4,0.4-9.5-0.3c-3.1-0.7-6.1-2.3-7.7-5c-1.4-2.4-1.6-5.5-1-8.2
			C18.3,82.6,19.9,72.8,19.8,66.3z"/>
	</g>
	
		<linearGradient id="SVGID_36_" gradientUnits="userSpaceOnUse" x1="1720.6403" y1="2346.4885" x2="1750.2789" y2="2346.4885" gradientTransform="matrix(0.1963 -0.9805 -0.9805 -0.1963 1970.2832 2197.2295)">
		<stop  offset="0" style="stop-color:#FFC75B"/>
		<stop  offset="1" style="stop-color:#FBB324"/>
	</linearGradient>
	<path style="fill:url(#SVGID_36_);" d="M6,31.8c-1.6,4.4-1,4.6-1.8,8.2c0.2,1.8,0.8,1.4,1.3,2.7C5.7,43.5,6,44.2,6.1,45
		c0,0.3,0.1,1.5,0,1.9c-0.2,0.9-0.8,0.3-1-0.2c-0.1-0.5,0.2-0.9,0.1-0.8c-0.2,0.4,0-0.4-0.1,0.1c-0.3,1.5,0.3,1.2-0.8,2.3
		c-1,0.5-2.2,0.1-3-0.6c-0.8-0.7-0.9-1.1-1.3-2.1c-0.4-0.8,0.3-2.4,1-5.9C1.2,39,0.9,37.5,1,36.5c0.1-1.1,0.3-2.8,0.4-4.2
		c0-0.3-0.3-4.6,2.1-9.1c0.6-1.1,3.2-2.2,4.3-2.5c0.2-0.1,3.3-0.6,3.9-0.5c1,0.2,9.7,1.8,10.7,2c-0.2,1.7-5,5.8-5,5.8
		s-9.2-0.2-10,0.5C6.6,29.3,6.1,31.7,6,31.8z"/>
	
		<linearGradient id="SVGID_37_" gradientUnits="userSpaceOnUse" x1="-2422.3574" y1="489.2105" x2="-2388.9343" y2="489.2105" gradientTransform="matrix(1 0 0 1 2432.1917 -455.9269)">
		<stop  offset="0" style="stop-color:#EE4050"/>
		<stop  offset="1" style="stop-color:#D72538"/>
	</linearGradient>
	<path style="fill:url(#SVGID_37_);" d="M9.9,21.4c-0.4-2.6,11.2-3.7,17.4-3.4s11.6,1.6,15.9,6c0,0-0.6,6.1-1.6,6.8S36,28.2,36,28.2
		s1,16.7,0.4,19c-0.6,2.4-14.5,1.4-19.5-0.4c0,0,0.4-12.8,0.3-17.8c0,0-6-0.3-6.8-1.6C9.4,25.7,10.1,20.9,9.9,21.4z"/>
	<linearGradient id="SVGID_38_" gradientUnits="userSpaceOnUse" x1="2.2479" y1="36.0608" x2="12.3412" y2="36.0608">
		<stop  offset="0" style="stop-color:#414141"/>
		<stop  offset="1" style="stop-color:#737373;stop-opacity:0"/>
	</linearGradient>
	<path style="opacity:0.3;fill:url(#SVGID_38_);" d="M5.1,46.5c0.2,1,0.6,1,0.8,1c0.6-0.6,0.2-3.3-0.3-4.5c-0.5-1.3-1.2-1.5-1.3-2.4
		C4.2,40,4.6,37.7,5,35.1c0.3-1.5,1.7-5.6,2.1-6.3c0.4-0.8,3.6-0.7,5.2-0.8c0.1-1.1-0.5-2.3-1.2-3.2c-2.2-0.5-4.6,0.8-5.9,2.6
		s-1.9,4.1-2.3,6.4c-0.4,2.5-0.6,5-0.6,7.5c0,0.5,0,1,0.3,1.5c0.2,0.3,0.5,0.5,0.8,0.7C4.5,44.3,5.3,45.1,5.1,46.5z"/>
</g>
</svg>
