<?xml version="1.0" encoding="utf-8"?>
<!-- Generator: Adobe Illustrator 19.2.0, SVG Export Plug-In . SVG Version: 6.00 Build 0)  -->
<svg version="1.1" id="Capa_1" xmlns="http://www.w3.org/2000/svg" xmlns:xlink="http://www.w3.org/1999/xlink" x="0px" y="0px"
	 viewBox="0 0 303.3 98.2" style="enable-background:new 0 0 303.3 98.2;" xml:space="preserve">
<style type="text/css">
	.st0{fill:url(#SVGID_1_);}
	.st1{fill:url(#SVGID_2_);}
	.st2{fill:url(#SVGID_3_);}
	.st3{fill:#D2D0C9;}
	.st4{fill:url(#SVGID_4_);}
	.st5{fill:#FFFFFF;}
	.st6{fill:#151011;}
	.st7{fill:url(#SVGID_5_);}
	.st8{opacity:0.5;fill:url(#SVGID_6_);}
	.st9{fill:url(#SVGID_7_);}
	.st10{opacity:0.5;fill:url(#SVGID_8_);}
	.st11{fill:url(#SVGID_9_);}
	.st12{fill:#D8D6CD;}
	.st13{opacity:0.25;clip-path:url(#SVGID_11_);fill:url(#SVGID_12_);}
	.st14{opacity:0.25;clip-path:url(#SVGID_14_);fill:url(#SVGID_15_);}
	.st15{fill:url(#SVGID_16_);}
	.st16{opacity:0.25;fill:url(#SVGID_17_);}
	.st17{opacity:0.25;clip-path:url(#SVGID_19_);fill:url(#SVGID_20_);}
	.st18{fill:url(#SVGID_21_);}
	.st19{fill:url(#SVGID_22_);}
	.st20{fill:url(#SVGID_23_);}
	.st21{fill:url(#SVGID_24_);}
	.st22{clip-path:url(#SVGID_26_);fill:url(#SVGID_27_);}
	.st23{opacity:0.3;clip-path:url(#SVGID_26_);fill:url(#SVGID_28_);}
	.st24{clip-path:url(#SVGID_30_);fill:url(#SVGID_31_);}
	.st25{opacity:0.3;clip-path:url(#SVGID_30_);fill:url(#SVGID_32_);}
	.st26{fill:url(#SVGID_33_);}
	.st27{clip-path:url(#SVGID_35_);}
	.st28{fill:url(#SVGID_36_);}
	.st29{opacity:0.75;clip-path:url(#SVGID_35_);fill:url(#SVGID_37_);}
	.st30{clip-path:url(#SVGID_40_);fill:url(#SVGID_41_);}
	.st31{opacity:0.3;clip-path:url(#SVGID_40_);fill:url(#SVGID_42_);}
	.st32{opacity:0.3;clip-path:url(#SVGID_40_);fill:url(#SVGID_43_);}
	.st33{fill:url(#SVGID_44_);}
	.st34{opacity:0.3;fill:url(#SVGID_45_);}
	.st35{fill:url(#SVGID_46_);}
	.st36{fill:url(#SVGID_47_);}
	.st37{fill:url(#SVGID_48_);}
	.st38{opacity:0.3;fill:url(#SVGID_49_);}
	.st39{fill:url(#SVGID_50_);}
	.st40{opacity:0.3;fill:url(#SVGID_51_);}
	.st41{fill:url(#SVGID_52_);}
	.st42{fill:url(#SVGID_53_);}
	.st43{opacity:0.3;fill:url(#SVGID_54_);}
	.st44{fill:url(#SVGID_55_);}
	.st45{fill:url(#SVGID_56_);}
	.st46{fill:url(#SVGID_57_);}
	.st47{fill:url(#SVGID_58_);}
	.st48{fill:url(#SVGID_59_);}
	.st49{fill:url(#SVGID_60_);}
	.st50{fill:url(#SVGID_61_);}
	.st51{fill:url(#SVGID_62_);}
	.st52{fill:url(#SVGID_63_);}
	.st53{fill:url(#SVGID_64_);}
	.st54{fill:url(#SVGID_65_);}
	.st55{opacity:0.75;fill:url(#SVGID_66_);}
	.st56{fill:url(#SVGID_67_);}
	.st57{fill:url(#SVGID_68_);}
	.st58{fill:url(#SVGID_69_);}
	.st59{fill:url(#SVGID_70_);}
	.st60{fill:url(#SVGID_71_);}
	.st61{fill:url(#SVGID_72_);}
</style>
<g>
	
		<linearGradient id="SVGID_1_" gradientUnits="userSpaceOnUse" x1="5677.3765" y1="95.7596" x2="5677.3765" y2="5.868260e-07" gradientTransform="matrix(-1 0 0 1 5829.0137 0)">
		<stop  offset="0" style="stop-color:#3D6518"/>
		<stop  offset="1" style="stop-color:#82C53B"/>
	</linearGradient>
	<path class="st0" d="M170.5,57.6c31.6-0.7,35.9-28.5,69.4-29.7c54.5-2.1,63.2,48.8,63.4,58.2v9.8H0l0-5l0-6.3C0,84.4,19,0,75.4,0
		C140.8,0,140.6,58.3,170.5,57.6z"/>
</g>
<g>
	<linearGradient id="SVGID_2_" gradientUnits="userSpaceOnUse" x1="151.6373" y1="98.2112" x2="151.6373" y2="88.6667">
		<stop  offset="0" style="stop-color:#2B2834"/>
		<stop  offset="1" style="stop-color:#111114"/>
	</linearGradient>
	<rect x="0" y="88.7" class="st1" width="303.3" height="9.5"/>
</g>
<linearGradient id="SVGID_3_" gradientUnits="userSpaceOnUse" x1="0" y1="91.2791" x2="41.073" y2="91.2791">
	<stop  offset="0" style="stop-color:#E8E7E0"/>
	<stop  offset="1" style="stop-color:#DAD8D0"/>
</linearGradient>
<rect y="84.3" class="st2" width="41.1" height="13.9"/>
<g>
	<g>
		<polygon class="st3" points="34.9,84.6 33.8,84.8 33.8,45.7 34.9,45.6 		"/>
		<g>
			<linearGradient id="SVGID_4_" gradientUnits="userSpaceOnUse" x1="24.6112" y1="38.0469" x2="44.1121" y2="38.0469">
				<stop  offset="0" style="stop-color:#42A62A"/>
				<stop  offset="1" style="stop-color:#306B2C"/>
			</linearGradient>
			<path class="st4" d="M43.4,45.6c0.4,0,0.7-0.3,0.7-0.6c0-0.3-0.2-0.5-0.3-0.7c-0.1-0.1-8.7-13.2-8.7-13.2s-0.3-0.6-0.8-0.6
				c-0.4,0-0.8,0.6-0.8,0.6S25.1,44,25,44.1c-0.1,0.1-0.4,0.6-0.4,0.9c0,0.3,0.3,0.6,0.7,0.6C25.4,45.6,43.4,45.6,43.4,45.6z"/>
			<path class="st5" d="M25.3,45.8c-0.6,0-1-0.4-1-0.9c0-0.3,0.2-0.6,0.4-0.9l0.1-0.1c0.1-0.1,8.1-12.5,8.5-13c0-0.1,0.4-0.7,1-0.7
				c0.7,0,1,0.7,1.1,0.7c0.1,0.1,8.6,13,8.7,13.1c0.1,0.2,0.4,0.5,0.4,0.8c0,0.5-0.4,0.9-0.9,0.9C43.4,45.8,25.4,45.8,25.3,45.8z
				 M34.3,30.8c-0.2,0-0.5,0.3-0.6,0.4c-0.1,0.1-8.4,12.9-8.5,13c0,0,0,0.1-0.1,0.1c-0.1,0.1-0.3,0.5-0.3,0.6c0,0.2,0.2,0.4,0.5,0.4
				c0.1,0,18.1,0,18.1,0c0.3,0,0.4-0.2,0.4-0.4c0-0.2-0.2-0.4-0.3-0.5c-0.1-0.2-8.4-12.7-8.7-13.2C34.9,31.2,34.6,30.8,34.3,30.8z"
				/>
		</g>
		<g>
			<g>
				<path class="st5" d="M43.8,50.6c0,0.4-0.3,0.8-0.8,0.8H25.6c-0.4,0-0.8-0.3-0.8-0.8v-3.1c0-0.4,0.3-0.8,0.8-0.8h17.4
					c0.4,0,0.8,0.3,0.8,0.8V50.6z"/>
			</g>
			<g>
				<path class="st6" d="M26.1,50.1v-2.2h0.7c0.3,0,0.4,0,0.5,0c0.1,0,0.2,0.1,0.3,0.2c0.1,0.1,0.1,0.2,0.1,0.4c0,0.1,0,0.2-0.1,0.3
					c0,0.1-0.1,0.2-0.2,0.2c-0.1,0.1-0.1,0.1-0.2,0.1c-0.1,0-0.3,0-0.4,0h-0.3v0.8H26.1z M26.6,48.3v0.6h0.2c0.2,0,0.3,0,0.3,0
					c0.1,0,0.1-0.1,0.1-0.1c0,0,0-0.1,0-0.2c0-0.1,0-0.1-0.1-0.2c0-0.1-0.1-0.1-0.2-0.1c-0.1,0-0.2,0-0.3,0H26.6z"/>
				<path class="st6" d="M28.1,50.1v-2.2H29c0.2,0,0.4,0,0.5,0.1c0.1,0,0.2,0.1,0.2,0.2c0.1,0.1,0.1,0.2,0.1,0.3
					c0,0.2,0,0.3-0.1,0.4c-0.1,0.1-0.2,0.2-0.4,0.2c0.1,0,0.2,0.1,0.2,0.2c0.1,0.1,0.1,0.2,0.2,0.3l0.3,0.4h-0.5l-0.3-0.5
					c-0.1-0.2-0.2-0.3-0.2-0.3c0,0-0.1-0.1-0.1-0.1c0,0-0.1,0-0.2,0h-0.1v0.9H28.1z M28.6,48.8h0.3c0.2,0,0.3,0,0.4,0
					c0.1,0,0.1,0,0.1-0.1c0,0,0-0.1,0-0.2c0-0.1,0-0.1-0.1-0.2c0,0-0.1-0.1-0.2-0.1c0,0-0.1,0-0.3,0h-0.3V48.8z"/>
				<path class="st6" d="M30.3,50.1v-2.2h0.4v2.2H30.3z"/>
				<path class="st6" d="M31,49c0-0.2,0-0.4,0.1-0.6c0-0.1,0.1-0.2,0.2-0.3c0.1-0.1,0.2-0.1,0.3-0.2c0.1-0.1,0.3-0.1,0.5-0.1
					c0.3,0,0.6,0.1,0.8,0.3c0.2,0.2,0.3,0.5,0.3,0.8c0,0.4-0.1,0.6-0.3,0.8c-0.2,0.2-0.4,0.3-0.8,0.3c-0.3,0-0.6-0.1-0.8-0.3
					C31.1,49.6,31,49.4,31,49z M31.5,49c0,0.2,0.1,0.4,0.2,0.6c0.1,0.1,0.3,0.2,0.4,0.2c0.2,0,0.3-0.1,0.4-0.2
					c0.1-0.1,0.2-0.3,0.2-0.6c0-0.2-0.1-0.4-0.2-0.5c-0.1-0.1-0.3-0.2-0.4-0.2c-0.2,0-0.3,0.1-0.4,0.2C31.5,48.6,31.5,48.7,31.5,49z
					"/>
				<path class="st6" d="M33.4,50.1v-2.2h0.9c0.2,0,0.4,0,0.5,0.1c0.1,0,0.2,0.1,0.2,0.2c0.1,0.1,0.1,0.2,0.1,0.3
					c0,0.2,0,0.3-0.1,0.4c-0.1,0.1-0.2,0.2-0.4,0.2c0.1,0,0.2,0.1,0.2,0.2c0.1,0.1,0.1,0.2,0.2,0.3l0.3,0.4h-0.5l-0.3-0.5
					c-0.1-0.2-0.2-0.3-0.2-0.3c0,0-0.1-0.1-0.1-0.1c0,0-0.1,0-0.2,0h-0.1v0.9H33.4z M33.9,48.8h0.3c0.2,0,0.3,0,0.4,0
					c0.1,0,0.1,0,0.1-0.1c0,0,0-0.1,0-0.2c0-0.1,0-0.1-0.1-0.2c0,0-0.1-0.1-0.2-0.1c0,0-0.1,0-0.3,0h-0.3V48.8z"/>
				<path class="st6" d="M35.6,50.1v-2.2H36v2.2H35.6z"/>
				<path class="st6" d="M36.4,47.9h0.8c0.2,0,0.3,0,0.4,0c0.1,0,0.2,0.1,0.3,0.2c0.1,0.1,0.2,0.2,0.2,0.4c0,0.1,0.1,0.3,0.1,0.5
					c0,0.2,0,0.3-0.1,0.5c-0.1,0.2-0.1,0.3-0.2,0.4c-0.1,0.1-0.2,0.1-0.3,0.2c-0.1,0-0.2,0-0.4,0h-0.8V47.9z M36.9,48.3v1.4h0.3
					c0.1,0,0.2,0,0.3,0c0.1,0,0.1,0,0.2-0.1c0,0,0.1-0.1,0.1-0.2c0-0.1,0-0.2,0-0.4c0-0.2,0-0.3,0-0.4c0-0.1-0.1-0.2-0.1-0.2
					c-0.1-0.1-0.1-0.1-0.2-0.1c-0.1,0-0.2,0-0.4,0H36.9z"/>
				<path class="st6" d="M40.5,50.1h-0.5l-0.2-0.5H39l-0.2,0.5h-0.5l0.8-2.2h0.5L40.5,50.1z M39.7,49.2l-0.3-0.8l-0.3,0.8H39.7z"/>
				<path class="st6" d="M40.8,47.9h0.8c0.2,0,0.3,0,0.4,0c0.1,0,0.2,0.1,0.3,0.2c0.1,0.1,0.2,0.2,0.2,0.4c0,0.1,0.1,0.3,0.1,0.5
					c0,0.2,0,0.3-0.1,0.5c-0.1,0.2-0.1,0.3-0.2,0.4C42.2,49.9,42.1,50,42,50c-0.1,0-0.2,0-0.4,0h-0.8V47.9z M41.2,48.3v1.4h0.3
					c0.1,0,0.2,0,0.3,0c0.1,0,0.1,0,0.2-0.1c0,0,0.1-0.1,0.1-0.2c0-0.1,0-0.2,0-0.4c0-0.2,0-0.3,0-0.4c0-0.1-0.1-0.2-0.1-0.2
					c-0.1-0.1-0.1-0.1-0.2-0.1c-0.1,0-0.2,0-0.4,0H41.2z"/>
			</g>
		</g>
	</g>
	<path class="st5" d="M37.3,38.7c-0.4,0-0.7,0.1-1,0.3l-0.6-0.8l0.1-0.3l0.6-0.2c0.1,0,0.1-0.1,0.1-0.2c0-0.1-0.1-0.1-0.1-0.1
		l-1.4,0.1c-0.1,0-0.1,0.1-0.1,0.1c0,0.1,0,0.1,0.1,0.2l0.6,0.2c0,0.1,0,0.1,0,0.2l-2.7,0l0.2-0.5c0,0,0,0,0-0.1c0,0,0-0.1-0.1-0.1
		c-0.1-0.1-0.1-0.1-0.1-0.2v0c0,0,0,0,0,0c0.1,0,0.7,0,0.7,0c0.1,0,0.1-0.1,0.1-0.1c0-0.1-0.1-0.1-0.1-0.1h-0.8c0,0,0,0,0,0
		c-0.2,0.1-0.2,0.2-0.3,0.3c0,0,0,0,0,0.1c0,0.1,0.1,0.2,0.1,0.3c0,0.1-0.2,0.5-0.3,0.9l-0.1,0.2l0,0c-0.1,0.1-0.1,0.3-0.1,0.4
		c-0.3-0.2-0.6-0.3-1-0.3c-1,0-1.9,0.8-1.9,1.9c0,1,0.8,1.9,1.9,1.9c1,0,1.9-0.8,1.9-1.9c0-0.6-0.3-1.1-0.6-1.4l0.1-0.2l2.1,2.1
		c0,0,0,0,0,0c0,0,0,0,0,0l0,0c0,0,0,0,0,0l0.1,0.3c-0.1,0-0.1,0.1-0.1,0.1c0,0.1,0.1,0.1,0.1,0.1H35c0.1,0,0.1-0.1,0.1-0.1
		c0-0.1-0.1-0.1-0.1-0.1h-0.1L34.8,41l0.7-0.1c0.2,0.8,0.9,1.5,1.8,1.5c1,0,1.9-0.8,1.9-1.9C39.2,39.5,38.4,38.7,37.3,38.7z
		 M32.7,40.5c0,0.9-0.7,1.6-1.6,1.6c-0.9,0-1.6-0.7-1.6-1.6c0-0.9,0.7-1.6,1.6-1.6c0.3,0,0.6,0.1,0.9,0.3c-0.2,0.6-0.9,1.2-1,1.2
		c0,0-0.1,0.1-0.1,0.1c0,0,0,0.1,0,0.1c0,0.1,0.1,0.1,0.2,0c0,0,0.7-0.5,1-1.2C32.5,39.7,32.7,40.1,32.7,40.5z M34.6,40.4l0-0.1h0
		c0,0,0,0,0.1,0C34.7,40.3,34.6,40.3,34.6,40.4z M34.6,39.9h-0.4c-0.1,0-0.1,0.1-0.1,0.1c0,0.1,0.1,0.1,0.1,0.1h0l0.1,0.2l-1.8-1.8
		c0-0.1,0.1-0.1,0.1-0.2c0.2,0,2.2,0,2.7,0c-0.1,0.3-0.4,1.1-0.6,1.6C34.7,40,34.7,39.9,34.6,39.9z M34.8,40.7l0.8-2.2
		c0.1,0.1,0.3,0.4,0.5,0.6c-0.4,0.3-0.6,0.8-0.6,1.4c0,0,0,0.1,0,0.1C35.2,40.7,35,40.7,34.8,40.7z M35.8,40.5
		c0-0.5,0.2-0.9,0.5-1.2c0.4,0.4,0.7,0.9,0.8,1C36.9,40.4,36.3,40.5,35.8,40.5C35.8,40.6,35.8,40.5,35.8,40.5z M37.3,42.1
		c-0.7,0-1.4-0.5-1.5-1.2l1.6-0.2c0.1,0,0.1,0,0.1-0.1c0,0,0-0.1,0-0.1l-1-1.2c0.2-0.2,0.5-0.2,0.8-0.2c0.9,0,1.6,0.7,1.6,1.6
		C38.9,41.4,38.2,42.1,37.3,42.1z"/>
</g>
<path class="st5" d="M191.9,84.5h-4.7v-1.8h4.7V84.5z M182.6,84.5h-4.7v-1.8h4.7V84.5z M173.3,84.5h-4.7v-1.8h4.7V84.5z M164,84.5
	h-4.7v-1.8h4.7V84.5z M154.7,84.5H150v-1.8h4.7V84.5z M145.3,84.5h-4.7v-1.8h4.7V84.5z M136,84.5h-4.7v-1.8h4.7V84.5z M126.7,84.5
	h-4.7v-1.8h4.7V84.5z M117.4,84.5h-4.7v-1.8h4.7V84.5z M108.1,84.5h-4.7v-1.8h4.7V84.5z M98.8,84.5h-4.7v-1.8h4.7V84.5z"/>
<g id="carro_morado">
	<g>
		
			<linearGradient id="SVGID_5_" gradientUnits="userSpaceOnUse" x1="-1779.8317" y1="-6942.46" x2="-1813.5764" y2="-6942.46" gradientTransform="matrix(4.489700e-11 -1 1 4.489700e-11 7152.9648 -1719.1799)">
			<stop  offset="0" style="stop-color:#0E0D15"/>
			<stop  offset="1" style="stop-color:#0E0D15"/>
		</linearGradient>
		<path class="st7" d="M217.3,64.1V91c0,1.9-1.5,3.4-3.4,3.4h-6.8c-1.9,0-3.4-1.5-3.4-3.4V64.1c0-1.9,1.5-3.4,3.4-3.4h6.8
			C215.8,60.7,217.3,62.2,217.3,64.1z"/>
		
			<linearGradient id="SVGID_6_" gradientUnits="userSpaceOnUse" x1="-1779.8317" y1="-6939.1191" x2="-1813.5764" y2="-6939.1191" gradientTransform="matrix(4.489700e-11 -1 1 4.489700e-11 7152.9648 -1719.1799)">
			<stop  offset="0" style="stop-color:#302829;stop-opacity:0"/>
			<stop  offset="1" style="stop-color:#655C5A"/>
		</linearGradient>
		<path class="st8" d="M217.3,63.8v27.5c0,1.7-1.4,3.1-3.1,3.1h-0.7c-1.7,0-3.1,0-3.1,0V63.8c0-1.7,1.4-3.1,3.1-3.1h0.7
			C215.9,60.7,217.3,62.1,217.3,63.8z"/>
		
			<linearGradient id="SVGID_7_" gradientUnits="userSpaceOnUse" x1="-1779.8317" y1="-6881.4849" x2="-1813.5764" y2="-6881.4849" gradientTransform="matrix(4.489700e-11 -1 1 4.489700e-11 7152.9648 -1719.1799)">
			<stop  offset="0" style="stop-color:#0E0D15"/>
			<stop  offset="1" style="stop-color:#0E0D15"/>
		</linearGradient>
		<path class="st9" d="M278.3,64.1V91c0,1.9-1.5,3.4-3.4,3.4h-6.8c-1.9,0-3.4-1.5-3.4-3.4V64.1c0-1.9,1.5-3.4,3.4-3.4h6.8
			C276.7,60.7,278.3,62.2,278.3,64.1z"/>
		
			<linearGradient id="SVGID_8_" gradientUnits="userSpaceOnUse" x1="-1779.8317" y1="-1710.4772" x2="-1813.5764" y2="-1710.4772" gradientTransform="matrix(0 -1 -1 0 -1442.3381 -1719.1799)">
			<stop  offset="0" style="stop-color:#302829;stop-opacity:0"/>
			<stop  offset="1" style="stop-color:#655C5A"/>
		</linearGradient>
		<path class="st10" d="M264.7,63.8v27.5c0,1.7,1.4,3.1,3.1,3.1h0.7c1.7,0,3.1,0,3.1,0V63.8c0-1.7-1.4-3.1-3.1-3.1h-0.7
			C266.1,60.7,264.7,62.1,264.7,63.8z"/>
	</g>
	<linearGradient id="SVGID_9_" gradientUnits="userSpaceOnUse" x1="200.8428" y1="42.3604" x2="278.9799" y2="42.3604">
		<stop  offset="0" style="stop-color:#67258C"/>
		<stop  offset="1" style="stop-color:#4E1570"/>
	</linearGradient>
	<path class="st11" d="M269,64.3h-53.4c-5.5,0-14.8-5.4-14.8-12.1l6.7-19.6c3.1-8,4.5-12.1,10-12.1h45.8c5.5,0,7.6,5.5,10,12.1
		l5.7,19.6C279,58.8,274.5,64.3,269,64.3z"/>
	<path class="st12" d="M264.3,47.4h-44.7c-3.9,0-10.4,2.6-10.4-0.9l4.7-14.7c2.2-4.1,3.2-6.2,7-6.2h39.3c3.9,0,5.3,2.8,7,6.2l4,14.7
		C271.3,49.9,268.2,47.4,264.3,47.4z"/>
	<g>
		<defs>
			<path id="SVGID_10_" d="M264.3,47.4h-44.7c-3.9,0-10.4,2.6-10.4-0.9l4.7-14.7c2.2-4.1,3.2-6.2,7-6.2h39.3c3.9,0,5.3,2.8,7,6.2
				l4,14.7C271.3,49.9,268.2,47.4,264.3,47.4z"/>
		</defs>
		<clipPath id="SVGID_11_">
			<use xlink:href="#SVGID_10_"  style="overflow:visible;"/>
		</clipPath>
		
			<linearGradient id="SVGID_12_" gradientUnits="userSpaceOnUse" x1="6689.3574" y1="41.8302" x2="6783.9985" y2="41.8302" gradientTransform="matrix(-1 0 0 1 7008.2832 0)">
			<stop  offset="0" style="stop-color:#302829;stop-opacity:0"/>
			<stop  offset="1" style="stop-color:#655C5A"/>
		</linearGradient>
		<path class="st13" d="M224.3,65.8c0-25.9,22-47.9,62.4-47.9c37.1,0,32,47.9,32,47.9H224.3z"/>
	</g>
	<g>
		<defs>
			<path id="SVGID_13_" d="M269,64.3h-53.4c-5.5,0-14.8-5.4-14.8-12.1l6.7-19.6c3.1-8,4.5-12.1,10-12.1h45.8c5.5,0,7.6,5.5,10,12.1
				l5.7,19.6C279,58.8,274.5,64.3,269,64.3z"/>
		</defs>
		<clipPath id="SVGID_14_">
			<use xlink:href="#SVGID_13_"  style="overflow:visible;"/>
		</clipPath>
		<linearGradient id="SVGID_15_" gradientUnits="userSpaceOnUse" x1="199.4316" y1="51.1529" x2="280.127" y2="51.1529">
			<stop  offset="0" style="stop-color:#655C5A"/>
			<stop  offset="1" style="stop-color:#302829;stop-opacity:0"/>
		</linearGradient>
		<ellipse class="st14" cx="239.8" cy="51.2" rx="40.3" ry="34.4"/>
	</g>
	<linearGradient id="SVGID_16_" gradientUnits="userSpaceOnUse" x1="192.396" y1="66.3593" x2="287.7172" y2="66.3593">
		<stop  offset="0" style="stop-color:#67258C"/>
		<stop  offset="1" style="stop-color:#4E1570"/>
	</linearGradient>
	<path class="st15" d="M276.7,82h-73.3c-6.1,0-11-4.9-11-11v-9.3c0-6,4.9-11,11-11h73.3c6,0,11,5,11,11V71
		C287.7,77.1,282.8,82,276.7,82z"/>
	<linearGradient id="SVGID_17_" gradientUnits="userSpaceOnUse" x1="192.2754" y1="74.8409" x2="287.8396" y2="74.8409">
		<stop  offset="0" style="stop-color:#302829;stop-opacity:0"/>
		<stop  offset="1" style="stop-color:#655C5A"/>
	</linearGradient>
	<path class="st16" d="M277.7,82c-11.9,0.2-65.4,0-75.3,0c-12,0-10-14.4-10-14.4h95.3C287.7,67.6,289.7,81.8,277.7,82z"/>
	<g>
		<defs>
			<path id="SVGID_18_" d="M276.7,82h-73.3c-6.1,0-11-4.9-11-11v-9.3c0-6,4.9-11,11-11h73.3c6,0,11,5,11,11V71
				C287.7,77.1,282.8,82,276.7,82z"/>
		</defs>
		<clipPath id="SVGID_19_">
			<use xlink:href="#SVGID_18_"  style="overflow:visible;"/>
		</clipPath>
		<linearGradient id="SVGID_20_" gradientUnits="userSpaceOnUse" x1="283.9763" y1="68.3566" x2="348.7223" y2="68.3566">
			<stop  offset="0" style="stop-color:#655C5A"/>
			<stop  offset="1" style="stop-color:#302829;stop-opacity:0"/>
		</linearGradient>
		<ellipse class="st17" cx="316.3" cy="68.4" rx="32.4" ry="32.5"/>
	</g>
	<linearGradient id="SVGID_21_" gradientUnits="userSpaceOnUse" x1="277.9382" y1="60.5745" x2="266.952" y2="60.5745">
		<stop  offset="0" style="stop-color:#FEC23E"/>
		<stop  offset="1" style="stop-color:#FDA909"/>
	</linearGradient>
	<path class="st18" d="M274.1,64.5h-3.2c-2.1,0-3.9-1.7-3.9-3.9v0c0-2.1,1.7-3.9,3.9-3.9h3.2c2.1,0,3.9,1.7,3.9,3.9v0
		C277.9,62.7,276.2,64.5,274.1,64.5z"/>
	<linearGradient id="SVGID_22_" gradientUnits="userSpaceOnUse" x1="214.6838" y1="60.5745" x2="203.6976" y2="60.5745">
		<stop  offset="0" style="stop-color:#FEC23E"/>
		<stop  offset="1" style="stop-color:#FDA909"/>
	</linearGradient>
	<path class="st19" d="M210.8,64.5h-3.2c-2.1,0-3.9-1.7-3.9-3.9v0c0-2.1,1.7-3.9,3.9-3.9h3.2c2.1,0,3.9,1.7,3.9,3.9v0
		C214.7,62.7,212.9,64.5,210.8,64.5z"/>
	<path class="st12" d="M264.7,75h-48.9c-2.4,0-4.3-1.9-4.3-4.3v0c0-2.4,1.9-4.3,4.3-4.3h48.9c2.4,0,4.3,1.9,4.3,4.3v0
		C269,73,267.1,75,264.7,75z"/>
</g>
<g id="monito">
	
		<linearGradient id="SVGID_23_" gradientUnits="userSpaceOnUse" x1="505.8012" y1="-9249.5908" x2="508.2104" y2="-9249.9023" gradientTransform="matrix(-0.5595 -0.2262 0.2331 -0.5767 2520.3457 -5135.9336)">
		<stop  offset="0" style="stop-color:#DBD9D1"/>
		<stop  offset="1" style="stop-color:#E8E7E0"/>
	</linearGradient>
	<path class="st20" d="M81.4,79.2l0.8,0.3l-2.7,7.8c-0.1,0.2-0.3,0.3-0.4,0.2l-0.2-0.1c-0.2-0.1-0.3-0.3-0.2-0.4L81.4,79.2z"/>
	<linearGradient id="SVGID_24_" gradientUnits="userSpaceOnUse" x1="77.8822" y1="72.5376" x2="89.1926" y2="67.7613">
		<stop  offset="0" style="stop-color:#DBD9D1"/>
		<stop  offset="1" style="stop-color:#E8E7E0"/>
	</linearGradient>
	<path class="st21" d="M81.5,59c0,0-0.7,20.2-0.1,21.8c0.4,1.2,2.5,1.2,3.5,0.8c0.2-0.1,0.8-0.7,0.8-1.3c0.1-4.2-0.2-21.3-0.2-21.3
		L81.5,59z"/>
	<g>
		<defs>
			<path id="SVGID_25_" d="M73,61.8c1.5,12.3-2.7,22.5,3.2,24c2.6,0.6,1.4-2.7,1.4-2.7S79,74.2,79.4,71c0.7-5,0.8-12.5,0.8-13.3
				c0-1.3,2.2-6.3,4.4-2.4c1,1.7,6.8,7.6,5.2,10.3c-4.4,7.9-3.1,13.6-3.1,13.6s2.6,4.7,4.9-3.7c1.7-6.4,4.3-4.6,5.9-12.5
				c0.5-2.5-3.7-11.5-6.2-16.1c-1.3-2.5-2.8,0-6.6,0c-6.4,0-9.5-1.1-9.5-1.1S72.6,58.5,73,61.8z"/>
		</defs>
		<clipPath id="SVGID_26_">
			<use xlink:href="#SVGID_25_"  style="overflow:visible;"/>
		</clipPath>
		
			<linearGradient id="SVGID_27_" gradientUnits="userSpaceOnUse" x1="-2375.8005" y1="528.4301" x2="-2323.7441" y2="528.4301" gradientTransform="matrix(1 0 0 1 2432.1917 -455.9269)">
			<stop  offset="0" style="stop-color:#141632"/>
			<stop  offset="1" style="stop-color:#2A2E63"/>
		</linearGradient>
		<polygon class="st22" points="56.5,98 108.4,98 108.4,47 56.4,47 		"/>
		
			<linearGradient id="SVGID_28_" gradientUnits="userSpaceOnUse" x1="-2356.5437" y1="529.5856" x2="-2336.772" y2="529.5856" gradientTransform="matrix(1 0 0 1 2432.1917 -455.9269)">
			<stop  offset="0" style="stop-color:#2F2829"/>
			<stop  offset="0.3578" style="stop-color:#302A2A;stop-opacity:0.6422"/>
			<stop  offset="0.5478" style="stop-color:#342D2E;stop-opacity:0.4522"/>
			<stop  offset="0.6983" style="stop-color:#3C3535;stop-opacity:0.3017"/>
			<stop  offset="0.8281" style="stop-color:#484040;stop-opacity:0.1719"/>
			<stop  offset="0.9434" style="stop-color:#595050;stop-opacity:5.656779e-02"/>
			<stop  offset="1" style="stop-color:#645B5A;stop-opacity:0"/>
		</linearGradient>
		<path class="st23" d="M77.7,63.2c0-1,2-4.3,2.9-4.8c5.1-3.2,8.8-1.3,13,3s0.4,1-1.7,6.6c-1.1,3-2,6.8-3.3,9.7
			c-1.3,2.9,1.9,4.9,3.5,7.6c0.4,0.7,0.9,1.3,1.2,2.1s0.3,1.7-0.3,2.3c-0.5,0.5-1.2,0.5-1.9,0.6c-2.6,0.2-5.3,0.3-7.9-0.2
			c-2.6-0.6-5.1-1.9-6.4-4.2c-1.2-2-1.3-4.6-0.9-6.9C76.4,76.8,77.7,68.6,77.7,63.2z"/>
	</g>
	<g>
		<defs>
			<path id="SVGID_29_" d="M76.9,83.6c0.6,0,2.6,0.5,1.7,1.6c-0.4,0.5-0.4,0.6-1,0.8c-0.7,0.2-1.4,0.4-2.1,0.5
				c-0.4,0-0.9,0.1-1.3-0.1c-0.4-0.1-0.8-0.5-0.8-0.9c0-0.3,0.1-0.7,0.4-0.9c0.2-0.2,0.6-0.4,0.9-0.5C75.4,83.7,76.1,83.6,76.9,83.6
				z M90.8,80.7c0.3-0.1,0.6-0.2,0.9-0.5c0.3-0.2,0.4-0.6,0.4-0.9c0-0.4-0.4-0.8-0.8-1s-0.8-0.2-1.3-0.1c-0.7,0-1.4,0.2-2.1,0.4
				c-0.6,0.2-1.5,0.4-2,0.8c-1,1,2,1.5,2.6,1.5C89.4,81,90.1,80.9,90.8,80.7z"/>
		</defs>
		<clipPath id="SVGID_30_">
			<use xlink:href="#SVGID_29_"  style="overflow:visible;"/>
		</clipPath>
		
			<linearGradient id="SVGID_31_" gradientUnits="userSpaceOnUse" x1="-2339.8037" y1="543.2017" x2="-2359.6475" y2="523.358" gradientTransform="matrix(1 0 0 1 2432.1917 -455.9269)">
			<stop  offset="0" style="stop-color:#83101C"/>
			<stop  offset="1" style="stop-color:#680811"/>
		</linearGradient>
		<polygon class="st24" points="71.2,88.4 93.8,85.9 93.8,66.3 71.2,68.8 		"/>
		
			<linearGradient id="SVGID_32_" gradientUnits="userSpaceOnUse" x1="-2356.0791" y1="530.8895" x2="-2341.7971" y2="530.8895" gradientTransform="matrix(1 0 0 1 2432.1917 -455.9269)">
			<stop  offset="0" style="stop-color:#645B5A;stop-opacity:0"/>
			<stop  offset="1" style="stop-color:#2F2829"/>
		</linearGradient>
		<path class="st25" d="M83.9,67.9c-0.4,0.9-0.6,1.9-0.6,2.9c-0.2,3.4,0.4,6.8,3.2,8.6c0.5,0.3,1.3,0.9,1.9,1.1
			c0.8,0.3,2.1,0.7,2,1.3c-0.1,0.9-2.5,1.9-3.4,2.1c-2,0.4-8.5-1.8-9.5-3.6c-1.1-1.8-1.6-3.7-1.3-5.7c0.2-1.9,4.1-3.9,5.2-5.5
			c0.8-1.2,1.8-2.2,3.1-2.8c0.4-0.2,1.6-0.7,0.8,0C84.7,66.8,84.2,67.2,83.9,67.9z"/>
	</g>
	
		<linearGradient id="SVGID_33_" gradientUnits="userSpaceOnUse" x1="-2362.7097" y1="491.6111" x2="-2335.9058" y2="491.6111" gradientTransform="matrix(1 0 0 1 2432.1917 -455.9269)">
		<stop  offset="0" style="stop-color:#FA1C31"/>
		<stop  offset="1" style="stop-color:#E20A16"/>
	</linearGradient>
	<path class="st26" d="M69.5,27.3c4-3.3,9.1-4.6,14.3-4.4s8.7,1.2,12.3,4.9c0,0,0.6,4.2-0.3,4.7c-0.8,0.6-5.1-0.3-5.1-0.3
		s1,13,0.5,15c-0.5,2-12,1.2-16.2-0.3c0,0,0.3-11.1,0.2-15.3c0,0-4.8,1.7-5.4,0.6C69.1,30.9,69.7,26.9,69.5,27.3z"/>
	<g>
		<defs>
			<path id="SVGID_34_" d="M81,17c1.3,0.4,5.4,0.2,5.8-1.5s1.3-7.5-3.9-7.6c-3.1-0.1-3.6,2.1-4,3.9C78.6,13.7,78.6,16.4,81,17z"/>
		</defs>
		<clipPath id="SVGID_35_">
			<use xlink:href="#SVGID_34_"  style="overflow:visible;"/>
		</clipPath>
		<g class="st27">
			
				<linearGradient id="SVGID_36_" gradientUnits="userSpaceOnUse" x1="-2617.7126" y1="-3.8949" x2="-2605.4133" y2="-15.3474" gradientTransform="matrix(0.9973 -7.369055e-02 7.369055e-02 0.9973 2687.166 -169.3324)">
				<stop  offset="0" style="stop-color:#2F2829"/>
				<stop  offset="1" style="stop-color:#645B5A"/>
			</linearGradient>
			<polygon class="st28" points="76.3,19.7 88,19.4 87.7,7.4 75.4,8.2 			"/>
		</g>
		
			<linearGradient id="SVGID_37_" gradientUnits="userSpaceOnUse" x1="-2618.9385" y1="-9.6183" x2="-2606.7971" y2="-9.6183" gradientTransform="matrix(0.9973 -7.369055e-02 7.369055e-02 0.9973 2687.166 -169.3324)">
			<stop  offset="0" style="stop-color:#2F2829;stop-opacity:0"/>
			<stop  offset="1" style="stop-color:#645B5A"/>
		</linearGradient>
		<path class="st29" d="M79.3,7.9c0,0,1,2.5,2.5,2c2.4-0.9,4.1,0.8,4.6,2.1c0.4,0.9,0.7,2.6,0.3,3.6c-0.4,1-1.1,1.9-2,2.4
			c-1.1,0.6-6,1.6-6,1.6l-4.2-6.9L79.3,7.9z"/>
	</g>
	<g>
		<defs>
			<path id="SVGID_38_" d="M86.5,15.6c-0.5-1.2,0-2.9-0.8-4c-0.6-0.9-1.5-1.1-2.5-1.2c-0.7-0.1-2.9,0.2-3.3,1.3
				c-0.2,0.5,0,1.9,0,2.5c-0.1,1.8-1.1,1.9-0.6,3.8c0.2,0.7,1.1,1.1,1.6,1.4c0.5,0.3-0.9,4.7-0.9,4.7s1.3,5.4,2.7,5.4
				c1.4,0,3.5-5,3.5-5s-1.2-4.8-0.8-5c0.7-0.3,1.3-0.7,1.5-1.4C87.2,17.3,86.9,16.4,86.5,15.6z"/>
		</defs>
		<linearGradient id="SVGID_39_" gradientUnits="userSpaceOnUse" x1="79.2394" y1="19.9124" x2="86.9879" y2="19.9124">
			<stop  offset="0" style="stop-color:#FDA920"/>
			<stop  offset="1" style="stop-color:#FCA909"/>
		</linearGradient>
		<use xlink:href="#SVGID_38_"  style="overflow:visible;fill:url(#SVGID_39_);"/>
		<clipPath id="SVGID_40_">
			<use xlink:href="#SVGID_38_"  style="overflow:visible;"/>
		</clipPath>
		
			<linearGradient id="SVGID_41_" gradientUnits="userSpaceOnUse" x1="-2353.397" y1="476.3512" x2="-2344.1428" y2="476.0719" gradientTransform="matrix(1 0 0 1 2432.1917 -455.9269)">
			<stop  offset="0" style="stop-color:#FDA920"/>
			<stop  offset="1" style="stop-color:#FCA909"/>
		</linearGradient>
		<rect x="79.1" y="10.1" class="st30" width="8.6" height="20.4"/>
		
			<linearGradient id="SVGID_42_" gradientUnits="userSpaceOnUse" x1="-2352.7395" y1="478.7752" x2="-2346.4307" y2="478.7752" gradientTransform="matrix(1 0 0 1 2432.1917 -455.9269)">
			<stop  offset="0" style="stop-color:#FDA920"/>
			<stop  offset="1" style="stop-color:#FCA909"/>
		</linearGradient>
		<path class="st31" d="M81,19.4c1.5,0.5,3,0.1,4.8,0.1l0,2.6c0,0-4.1,5-5.1,5.1c-0.8,0.1-1.2-8.9-1.2-8.9S79.8,19,81,19.4z"/>
		
			<linearGradient id="SVGID_43_" gradientUnits="userSpaceOnUse" x1="53.3214" y1="611.7283" x2="59.6693" y2="612.5467" gradientTransform="matrix(0.8387 0.5445 -0.5445 0.8387 369.0521 -532.3497)">
			<stop  offset="0" style="stop-color:#635A58;stop-opacity:0"/>
			<stop  offset="1" style="stop-color:#2F2829"/>
		</linearGradient>
		<path class="st32" d="M79.9,11.9c0-0.4,2-2.5,2.9,0c0.9,2.6-0.4,3.7-0.4,3.7H84c0,0-0.9-2.7-0.3-4.1c0.8-2.1,2.3,0.6,2.3,0.6
			s0.8-3.7-3-4C80.8,8,79.8,12.2,79.9,11.9z"/>
	</g>
	
		<linearGradient id="SVGID_44_" gradientUnits="userSpaceOnUse" x1="6423.8794" y1="35.8855" x2="6436.9302" y2="35.8855" gradientTransform="matrix(-1 0 0 1 6499.2295 0)">
		<stop  offset="0" style="stop-color:#FEC43B"/>
		<stop  offset="1" style="stop-color:#FEAB0C"/>
	</linearGradient>
	<path class="st33" d="M69.6,27.3c0.6,0.4,1.7,4.3,1.3,5.5c-0.5,1.3-3.1,5.5-3.2,5.9c0,0-0.2,2.1,1.4,2.3c0.6,0.1,0.6,0.3,0.7,0
		c0.1-0.4,1.5-0.8,2.4-0.9c0.4,0,1.9-0.2,2.8,0.8c0.8,0.8,0.3,2.4-0.7,2.8c-0.8,0.3-2.3,0.7-3.5-0.9c-0.3-0.4-0.6,1.9-1.2,1.7
		c-1-0.3,0,0.2-1.6-0.2c-3.7-0.8-5.7-3.6-5.7-5C62.3,37.5,69.6,27.3,69.6,27.3z"/>
	
		<linearGradient id="SVGID_45_" gradientUnits="userSpaceOnUse" x1="6423.8486" y1="36.786" x2="6434.4961" y2="36.786" gradientTransform="matrix(-1 0 0 1 6499.2295 0)">
		<stop  offset="0" style="stop-color:#2F2829"/>
		<stop  offset="1" style="stop-color:#635A58;stop-opacity:0"/>
	</linearGradient>
	<path class="st34" d="M70.8,33c-0.7,1.5-3,5.3-3.1,5.7c0,0-0.3,1.5,1,2.3c0.3,0.2,0.7,0.1,1,0.2c0,0-0.2-0.7,2.4-1
		c0.5-0.1,2.1-0.2,2.8,0.8c0.5,0.7,0.5,0.7,0.3,1.6c-0.3,1.4-0.4,1.4-1.8,1.5c-0.3,0-1.4,0.1-1.8-0.3c-0.5-0.4-0.7-0.9-0.9-1
		c-0.4-0.1-0.6,1.7-1.1,1.7c-1.1,0.1-1.7-0.2-2.2-0.3c-3.7-0.8-2.6-3.4-2.6-4.8c0-1.2,3.4-7.9,5.6-10.2C70.4,29.1,71.3,31.9,70.8,33
		z"/>
	<linearGradient id="SVGID_46_" gradientUnits="userSpaceOnUse" x1="76.6342" y1="43.3201" x2="67.8899" y2="43.3201">
		<stop  offset="0" style="stop-color:#0E0D15"/>
		<stop  offset="1" style="stop-color:#0E0D15"/>
	</linearGradient>
	<path class="st35" d="M75.4,44.5h-6.4c-0.7,0-1.2-0.5-1.2-1.2v0c0-0.7,0.5-1.2,1.2-1.2h6.4c0.7,0,1.2,0.5,1.2,1.2v0
		C76.6,44,76.1,44.5,75.4,44.5z"/>
	<linearGradient id="SVGID_47_" gradientUnits="userSpaceOnUse" x1="89.011" y1="45.0305" x2="76.7968" y2="45.0305">
		<stop  offset="0" style="stop-color:#0E0D15"/>
		<stop  offset="1" style="stop-color:#0E0D15"/>
	</linearGradient>
	<path class="st36" d="M76.8,44.7c1.1,0,1.3-0.3,1.5,0.9c0.1,0.5,0.3,1.1,0.7,1.4c1.3,1.1,2.5,1.1,4.2,1.1c1.3,0,2.8-0.1,4-0.7
		c0.4-0.2,0.8-0.8,0.9-1.2c0.3-1-0.5-1.5,1-1.5c1.8,0,1.8-2.7,0-2.7c-1.3,0-2.3,0.2-3.2,1.1c-1.3,1.4,0.6,2.1-1.9,2.3
		c-0.5,0-3,0.2-3.1-0.6c-0.1-0.6-0.1-1.1-0.4-1.7c-0.7-1.2-2.4-1.2-3.7-1.1C75.1,42,75,44.7,76.8,44.7L76.8,44.7z"/>
	<g>
		
			<linearGradient id="SVGID_48_" gradientUnits="userSpaceOnUse" x1="6423.8794" y1="42.1222" x2="6431.0767" y2="42.1222" gradientTransform="matrix(-1 0 0 1 6499.2295 0)">
			<stop  offset="0" style="stop-color:#FEC43B"/>
			<stop  offset="1" style="stop-color:#FEAB0C"/>
		</linearGradient>
		<path class="st37" d="M68.2,40.8c0.6,0.2,2.4,1.1,2.6,2c0.6,2,2.7,1.3,3.5,0.9c1-0.4,1.5-2,0.7-2.8c-0.9-0.9-2.3-0.9-2.7-0.8
			c-0.8,0.1-2.4,0.5-2.5,0.9c-0.1,0.3-0.2,0-0.8,0L68.2,40.8z"/>
		
			<linearGradient id="SVGID_49_" gradientUnits="userSpaceOnUse" x1="6423.8794" y1="42.1256" x2="6431.373" y2="42.1256" gradientTransform="matrix(-1 0 0 1 6499.2295 0)">
			<stop  offset="0" style="stop-color:#2F2829"/>
			<stop  offset="1" style="stop-color:#635A58;stop-opacity:0"/>
		</linearGradient>
		<path class="st38" d="M69,41c0.6,0.1,0.7,0.4,0.8,0c0.1-0.4,1.7-0.8,2.5-0.9c0.4,0,1.8-0.1,2.7,0.8c0.8,0.8,0.3,2.4-0.7,2.8
			c-0.8,0.3-2.1,0.8-3-0.1c-0.5-0.4-0.3-1.3-1-1.5c-1.5-0.4-2.9-2.4-2.2-1.8C68.7,40.9,69,41,69,41z"/>
	</g>
	
		<linearGradient id="SVGID_50_" gradientUnits="userSpaceOnUse" x1="24.7955" y1="36.1472" x2="37.8465" y2="36.1472" gradientTransform="matrix(1 0 0 1 66.2165 0)">
		<stop  offset="0" style="stop-color:#FEC43B"/>
		<stop  offset="1" style="stop-color:#FEAB0C"/>
	</linearGradient>
	<path class="st39" d="M96.1,27.8c-0.6,0.4-1.1,3.8-0.6,5c0.5,1.3,3.1,5.5,3.2,5.9c0,0,0.2,2.1-1.4,2.3c-0.6,0.1-0.6,0.3-0.7,0
		c-0.1-0.4-1.5-0.8-2.4-0.9c-0.4,0-1.9-0.2-2.8,0.8c-0.8,0.8-0.3,2.4,0.7,2.8c0.8,0.3,2.3,0.7,3.5-0.9c0.3-0.4,0.6,1.9,1.2,1.7
		c1-0.3,0,0.2,1.6-0.2c3.7-0.8,5.7-3.6,5.7-5C104.1,37.5,96.1,27.8,96.1,27.8z"/>
	
		<linearGradient id="SVGID_51_" gradientUnits="userSpaceOnUse" x1="24.7648" y1="36.786" x2="35.4124" y2="36.786" gradientTransform="matrix(1 0 0 1 66.2165 0)">
		<stop  offset="0" style="stop-color:#2F2829"/>
		<stop  offset="1" style="stop-color:#635A58;stop-opacity:0"/>
	</linearGradient>
	<path class="st40" d="M95.6,33c0.7,1.5,3,5.3,3.1,5.7c0,0,0.3,1.5-1,2.3c-0.3,0.2-0.7,0.1-1,0.2c0,0,0.2-0.7-2.4-1
		c-0.5-0.1-2.1-0.2-2.8,0.8c-0.5,0.7-0.5,0.7-0.3,1.6c0.3,1.4,0.4,1.4,1.8,1.5c0.3,0,1.4,0.1,1.8-0.3c0.5-0.4,0.7-0.9,0.9-1
		c0.4-0.1,0.6,1.7,1.1,1.7c1.1,0.1,1.7-0.2,2.2-0.3c3.7-0.8,2.6-3.4,2.6-4.8c0-1.2-3.8-7.9-5.9-10.2C95.6,29.1,95.1,31.9,95.6,33z"
		/>
	<linearGradient id="SVGID_52_" gradientUnits="userSpaceOnUse" x1="98.0296" y1="43.3201" x2="87.9575" y2="43.3201">
		<stop  offset="0" style="stop-color:#0E0D15"/>
		<stop  offset="1" style="stop-color:#0E0D15"/>
	</linearGradient>
	<path class="st41" d="M96.8,44.5h-7.7c-0.7,0-1.2-0.5-1.2-1.2v0c0-0.7,0.5-1.2,1.2-1.2h7.7c0.7,0,1.2,0.5,1.2,1.2v0
		C98,44,97.5,44.5,96.8,44.5z"/>
	<g>
		
			<linearGradient id="SVGID_53_" gradientUnits="userSpaceOnUse" x1="24.7955" y1="42.1222" x2="31.9929" y2="42.1222" gradientTransform="matrix(1 0 0 1 66.2165 0)">
			<stop  offset="0" style="stop-color:#FEC43B"/>
			<stop  offset="1" style="stop-color:#FEAB0C"/>
		</linearGradient>
		<path class="st42" d="M98.2,40.8c-0.6,0.2-2.4,1.1-2.6,2c-0.6,2-2.7,1.3-3.5,0.9c-1-0.4-1.5-2-0.7-2.8c0.9-0.9,2.3-0.9,2.7-0.8
			c0.8,0.1,2.4,0.5,2.5,0.9c0.1,0.3,0.2,0,0.8,0L98.2,40.8z"/>
		
			<linearGradient id="SVGID_54_" gradientUnits="userSpaceOnUse" x1="24.7955" y1="42.1256" x2="32.2894" y2="42.1256" gradientTransform="matrix(1 0 0 1 66.2165 0)">
			<stop  offset="0" style="stop-color:#2F2829"/>
			<stop  offset="1" style="stop-color:#635A58;stop-opacity:0"/>
		</linearGradient>
		<path class="st43" d="M97.3,41c-0.6,0.1-0.7,0.4-0.8,0c-0.1-0.4-1.7-0.8-2.5-0.9c-0.4,0-1.8-0.1-2.7,0.8c-0.8,0.8-0.3,2.4,0.7,2.8
			c0.8,0.3,2.1,0.8,3-0.1c0.5-0.4,0.3-1.3,1-1.5c1.5-0.4,2.9-2.4,2.2-1.8C97.7,40.9,97.3,41,97.3,41z"/>
	</g>
	
		<linearGradient id="SVGID_55_" gradientUnits="userSpaceOnUse" x1="-6464.9058" y1="-14265.2002" x2="-6456.5312" y2="-14268.7373" gradientTransform="matrix(1.084854e-02 -0.6034 0.3404 6.119483e-03 5002.4243 -3723.8552)">
		<stop  offset="0" style="stop-color:#2F2829"/>
		<stop  offset="1" style="stop-color:#514949"/>
	</linearGradient>
	<path class="st44" d="M79.4,86.9l0,0.9c0,0.2-0.1,0.3-0.3,0.3L73.4,88c-0.2,0-0.3-0.1-0.3-0.3l0-0.9c0-0.2,0.1-0.3,0.3-0.3l5.6,0.1
		C79.3,86.5,79.4,86.7,79.4,86.9z"/>
	
		<linearGradient id="SVGID_56_" gradientUnits="userSpaceOnUse" x1="-6454.4668" y1="-14224.9668" x2="-6446.0918" y2="-14228.5029" gradientTransform="matrix(1.084854e-02 -0.6034 0.3404 6.119483e-03 5002.4243 -3723.8552)">
		<stop  offset="0" style="stop-color:#2F2829"/>
		<stop  offset="1" style="stop-color:#514949"/>
	</linearGradient>
	<path class="st45" d="M93.2,80.8l0,0.9c0,0.2-0.1,0.3-0.3,0.3L87.2,82c-0.2,0-0.3-0.1-0.3-0.3l0-0.9c0-0.2,0.1-0.3,0.3-0.3l5.6,0.1
		C93.1,80.5,93.2,80.6,93.2,80.8z"/>
	<linearGradient id="SVGID_57_" gradientUnits="userSpaceOnUse" x1="85.1041" y1="78.395" x2="81.6745" y2="78.395">
		<stop  offset="0" style="stop-color:#0E0D15"/>
		<stop  offset="1" style="stop-color:#0E0D15"/>
	</linearGradient>
	<path class="st46" d="M83.4,94.4L83.4,94.4c-0.9,0-1.7-0.8-1.7-1.7V64.1c0-0.9,0.8-1.7,1.7-1.7l0,0c0.9,0,1.7,0.8,1.7,1.7v28.6
		C85.1,93.6,84.3,94.4,83.4,94.4z"/>
	<g>
		<linearGradient id="SVGID_58_" gradientUnits="userSpaceOnUse" x1="79.5345" y1="69.3695" x2="82.1821" y2="69.3695">
			<stop  offset="0" style="stop-color:#FA1C31"/>
			<stop  offset="1" style="stop-color:#E20A16"/>
		</linearGradient>
		<path class="st47" d="M81,58.7c0,0.8-0.1,2.9-0.4,3.9c-0.1,0.7-0.3,1.3-0.5,2c-0.3,1.4-0.4,2.9-0.4,4.3c0,0.9-0.1,1.8-0.1,2.8
			c0,1.4-0.1,2.8-0.1,4.2c0,1.1-0.1,2.3,0.2,3.4c0.1,0.3,0.2,0.6,0.5,0.7c0.3,0.1,0.6-0.1,0.7-0.3c0.1-0.3,0.2-0.6,0.2-0.8
			c0.1-1.1,0.1-2.2,0.2-3.3c0-0.4,0-0.8-0.3-1.1c-0.1-0.1-0.2-0.2-0.3-0.3c0-0.1-0.1-0.2-0.1-0.3c-0.1-1.9,0-3.9,0-5.8
			c0-1.3,0.1-2.5,0.4-3.7c0.4-1.2,1.2-2.5,1-3.7l0.1-1.6c0,0-0.3,0-0.7-0.1C81.2,59,81,58.4,81,58.7z"/>
	</g>
	<g>
		<linearGradient id="SVGID_59_" gradientUnits="userSpaceOnUse" x1="84.9087" y1="69.4437" x2="87.4031" y2="69.4437">
			<stop  offset="0" style="stop-color:#FA1C31"/>
			<stop  offset="1" style="stop-color:#E20A16"/>
		</linearGradient>
		<path class="st48" d="M86.2,58.9c0,0.8,0,2.6,0.2,3.7c0.1,0.7,0.2,1.4,0.4,2.1c0.3,1.4,0.4,2.9,0.4,4.3c0,0.9,0.1,1.8,0.1,2.8
			c0,1.4,0.1,2.8,0.1,4.2c0,1.1,0.1,2.3-0.2,3.4c-0.1,0.3-0.2,0.6-0.5,0.7c-0.3,0.1-0.6-0.1-0.7-0.3c-0.1-0.3-0.2-0.6-0.2-0.8
			c-0.1-1.1-0.1-2.2-0.2-3.3c0-0.4,0-0.8,0.3-1.1c0.1-0.1,0.2-0.2,0.3-0.3c0-0.1,0.1-0.2,0.1-0.3c0.1-1.9,0-3.9,0-5.8
			c0-1.3-0.3-2.5-0.4-3.7c-0.1-1.5-0.9-2.1-0.8-3.7l-0.1-1.4c0,0,0.3,0,0.7-0.1C85.9,59.2,86.2,58.6,86.2,58.9z"/>
	</g>
	<linearGradient id="SVGID_60_" gradientUnits="userSpaceOnUse" x1="80.9368" y1="77.3058" x2="81.7142" y2="77.3058">
		<stop  offset="0" style="stop-color:#757575"/>
		<stop  offset="1" style="stop-color:#757575"/>
	</linearGradient>
	<path class="st49" d="M81.7,77.1c0,1.4-0.1,2.1-0.4,2.1c-0.4,0-0.4-0.7-0.4-2.1s0.2-1.7,0.4-1.7C81.5,75.4,81.7,75.8,81.7,77.1z"/>
	<linearGradient id="SVGID_61_" gradientUnits="userSpaceOnUse" x1="85.1041" y1="77.3058" x2="85.8815" y2="77.3058">
		<stop  offset="0" style="stop-color:#757575"/>
		<stop  offset="1" style="stop-color:#757575"/>
	</linearGradient>
	<path class="st50" d="M85.9,77.1c0,1.4-0.1,2.1-0.4,2.1c-0.4,0-0.4-0.7-0.4-2.1s0.2-1.7,0.4-1.7C85.7,75.4,85.9,75.8,85.9,77.1z"/>
	<g>
		<linearGradient id="SVGID_62_" gradientUnits="userSpaceOnUse" x1="80.2469" y1="57.6846" x2="87.2145" y2="57.6846">
			<stop  offset="0" style="stop-color:#0E0D15"/>
			<stop  offset="1" style="stop-color:#0E0D15"/>
		</linearGradient>
		<path class="st51" d="M80.2,55.7c0.4,0.3,0.5,1,0.5,1.5c0,0.5,0,0.9,0,1.4c0,0.3,0,0.6,0.2,0.8c0.1,0.1,0.2,0.1,0.3,0.2
			c0.4,0.2,0.9,0.2,1.3,0.2c1.1,0.1,2.5,0,3.4-0.3c0.3-0.1,0.3-0.5,0.3-0.6c0.1-0.5,0.1-0.8,0.1-1.3c0-0.3-0.1-0.7,0-1
			c0.1-0.3,0.3-0.6,0.7-0.7L80.2,55.7z"/>
	</g>
	<linearGradient id="SVGID_63_" gradientUnits="userSpaceOnUse" x1="82.5842" y1="57.5216" x2="84.4901" y2="57.5216">
		<stop  offset="0" style="stop-color:#DAD8D0"/>
		<stop  offset="1" style="stop-color:#E7E6DF"/>
	</linearGradient>
	<ellipse class="st52" cx="83.5" cy="57.5" rx="1" ry="1"/>
	<linearGradient id="SVGID_64_" gradientUnits="userSpaceOnUse" x1="80.8093" y1="59.7448" x2="86.2649" y2="59.7448">
		<stop  offset="0" style="stop-color:#0E0D15"/>
		<stop  offset="1" style="stop-color:#0E0D15"/>
	</linearGradient>
	<path class="st53" d="M85.5,60.5h-4c-0.4,0-0.7-0.3-0.7-0.7v0c0-0.4,0.3-0.7,0.7-0.7h4.3c0.3,0,0.5,0.2,0.5,0.5v0.2
		C86.3,60.1,85.9,60.5,85.5,60.5z"/>
	<linearGradient id="SVGID_65_" gradientUnits="userSpaceOnUse" x1="90.4991" y1="49.9192" x2="75.8961" y2="49.9192">
		<stop  offset="0" style="stop-color:#0E0D15"/>
		<stop  offset="1" style="stop-color:#0E0D15"/>
	</linearGradient>
	<path class="st54" d="M88.7,56.6h-11c-1,0-1.8-0.8-1.8-1.8l0.7-9.7c0-1,0.8-1.8,1.8-1.8h9.3c1,0,1.8,0.8,1.8,1.8l0.9,9.7
		C90.5,55.8,89.7,56.6,88.7,56.6z"/>
	<linearGradient id="SVGID_66_" gradientUnits="userSpaceOnUse" x1="88.5316" y1="50.1033" x2="77.6956" y2="50.1033">
		<stop  offset="0" style="stop-color:#0E0D15"/>
		<stop  offset="1" style="stop-color:#0E0D15"/>
	</linearGradient>
	<path class="st55" d="M86.5,55.7h-6.8c-1.1,0-2-0.9-2-2v-7.1c0-1.1,0.9-2,2-2h6.8c1.1,0,2,0.9,2,2v7.1
		C88.5,54.8,87.6,55.7,86.5,55.7z"/>
	<g>
		<linearGradient id="SVGID_67_" gradientUnits="userSpaceOnUse" x1="79.4495" y1="54.7751" x2="80.3711" y2="54.7751">
			<stop  offset="0" style="stop-color:#DAD8D0"/>
			<stop  offset="1" style="stop-color:#E7E6DF"/>
		</linearGradient>
		<circle class="st56" cx="79.9" cy="54.8" r="0.5"/>
		<linearGradient id="SVGID_68_" gradientUnits="userSpaceOnUse" x1="80.915" y1="54.7751" x2="81.8365" y2="54.7751">
			<stop  offset="0" style="stop-color:#DAD8D0"/>
			<stop  offset="1" style="stop-color:#E7E6DF"/>
		</linearGradient>
		<circle class="st57" cx="81.4" cy="54.8" r="0.5"/>
		<linearGradient id="SVGID_69_" gradientUnits="userSpaceOnUse" x1="82.4987" y1="54.7751" x2="83.4202" y2="54.7751">
			<stop  offset="0" style="stop-color:#DAD8D0"/>
			<stop  offset="1" style="stop-color:#E7E6DF"/>
		</linearGradient>
		<circle class="st58" cx="83" cy="54.8" r="0.5"/>
		<linearGradient id="SVGID_70_" gradientUnits="userSpaceOnUse" x1="84.1386" y1="54.7751" x2="85.0601" y2="54.7751">
			<stop  offset="0" style="stop-color:#DAD8D0"/>
			<stop  offset="1" style="stop-color:#E7E6DF"/>
		</linearGradient>
		<circle class="st59" cx="84.6" cy="54.8" r="0.5"/>
		<linearGradient id="SVGID_71_" gradientUnits="userSpaceOnUse" x1="85.8562" y1="54.7751" x2="86.7777" y2="54.7751">
			<stop  offset="0" style="stop-color:#DAD8D0"/>
			<stop  offset="1" style="stop-color:#E7E6DF"/>
		</linearGradient>
		<circle class="st60" cx="86.3" cy="54.8" r="0.5"/>
	</g>
	<g>
		<path class="st5" d="M83.2,45.7c1.9,0,3.5,1.6,3.5,3.6c0,1.9-1.6,3.5-3.6,3.5c-1.9,0-3.5-1.6-3.5-3.6
			C79.7,47.2,81.3,45.6,83.2,45.7 M83.2,45.4L83.2,45.4c-1,0-1.9,0.4-2.7,1.1c-0.7,0.7-1.1,1.6-1.1,2.6c0,1,0.4,2,1.1,2.7
			c0.7,0.7,1.6,1.1,2.6,1.1c1,0,1.9-0.4,2.7-1.1c0.7-0.7,1.1-1.6,1.1-2.6c0-1-0.4-2-1.1-2.7C85.2,45.9,84.2,45.4,83.2,45.4
			L83.2,45.4L83.2,45.4z"/>
		<g>
			<path class="st5" d="M84.6,47.8L84.6,47.8L84.6,47.8C84.6,47.8,84.6,47.8,84.6,47.8l0-0.1c0,0,0,0,0,0l-0.2,0l-0.1-0.3l0.1,0.1
				l0.3,0h0c0,0,0.1,0,0.1-0.1c0,0,0-0.1,0-0.1c0,0,0,0,0,0l0-0.2l0-0.1c0,0,0,0,0,0c0,0,0,0,0,0l0,0.1l0,0.2v0v0c0,0,0,0,0,0
				c0,0,0,0,0,0l-0.3,0l-0.1-0.1c0,0,0,0,0,0l0,0l0-0.1l0-0.2c0,0,0-0.1-0.1-0.1c-0.1,0-0.1,0-0.1,0c0,0,0-0.1-0.1-0.1c0,0,0,0,0,0
				s-0.1,0-0.1,0c0,0,0,0,0,0s0,0-0.1,0c0,0-0.1,0-0.1,0.1c0,0,0,0.1,0.1,0.1c0,0,0.1,0,0.1,0s0,0,0,0l0,0c0,0,0.1,0,0.1,0l0,0
				l0.1,0.3l-0.1,0c0,0,0,0,0,0l0.1,0.2l-0.5,0.8c-0.2,0.2-0.3,0.3-0.6,0.3c0,0-0.1-0.1-0.1-0.3h0l0-0.1l0,0c0-0.1-0.1-0.2-0.1-0.3
				l0,0l0-0.1l0,0c0,0,0,0,0,0c0,0,0,0,0,0l0,0c0,0,0,0,0,0c0,0,0,0,0-0.1c0,0,0,0,0,0c0,0,0,0,0,0c0,0,0,0,0,0c0,0,0,0,0,0
				c0,0,0,0,0,0l0,0l0,0c0,0,0,0,0,0l0,0l0,0c0,0,0,0,0.1,0l0,0c0,0,0,0,0.1,0l0.1,0c0,0,0-0.1-0.1-0.1c0,0-0.1,0-0.2,0
				c0,0-0.1,0-0.1,0c0,0-0.1,0-0.1,0.1c0,0,0.1,0,0.1,0c0,0,0,0,0,0l0,0c0,0,0,0,0,0c0,0,0,0,0,0c0,0,0,0,0,0c0,0,0,0,0,0l0,0l0,0
				l0.1,0l0,0l0,0c0,0,0,0,0,0c0,0,0,0,0,0c0,0,0,0,0,0c0,0,0,0,0,0l0,0c0,0,0,0,0,0c0,0,0,0,0,0c0,0,0,0,0,0l0,0l0,0l0,0l0,0
				c0,0,0,0,0,0c0,0,0,0,0,0c0,0,0,0,0,0.1c0,0,0,0,0,0v0l0,0c0,0,0,0,0,0c0,0,0,0,0,0l0,0l0,0.1l0,0c0,0-0.2,0.1-0.2,0.1
				c-0.1-0.1-0.3-0.2-0.5-0.2h0c-0.5,0-0.9,0.4-0.9,0.9v0c0,0.5,0.4,0.9,0.9,0.9l0,0l0,0c0.4,0,0.8-0.3,0.9-0.7c0,0,0,0,0,0
				c0,0.1,0.1,0.2,0.3,0.2c0.1,0,0.1,0,0.1,0l0.1,0.1l0,0c0,0,0,0,0,0c0,0,0,0,0,0l0.2,0c0,0,0,0,0,0c0,0,0,0,0,0l0,0c0,0,0,0,0,0
				l-0.1-0.1c0,0,0.1-0.1,0.1-0.2c0.2,0,0.4-0.2,0.5-0.4c0.1-0.1,0.4-0.7,0.4-0.7c0,0,0,0,0,0l0,0.1c0,0,0,0,0,0l0.1,0l0,0l0,0.1
				c-0.3,0.1-0.5,0.4-0.5,0.8c0,0,0,0,0,0c0,0.5,0.4,0.9,0.9,0.9l0,0c0.5,0,0.9-0.4,0.9-0.9C85.5,48.2,85.1,47.8,84.6,47.8z
				 M82.4,47.3L82.4,47.3C82.3,47.3,82.3,47.3,82.4,47.3L82.4,47.3L82.4,47.3L82.4,47.3C82.3,47.3,82.3,47.3,82.4,47.3
				C82.3,47.3,82.3,47.3,82.4,47.3C82.3,47.3,82.3,47.3,82.4,47.3c0,0,0.1,0,0.1,0L82.4,47.3C82.5,47.3,82.5,47.3,82.4,47.3
				L82.4,47.3C82.4,47.3,82.4,47.3,82.4,47.3z M82.5,48.4l-0.5,0c0,0,0.2-0.2,0.3-0.4C82.3,48.2,82.4,48.3,82.5,48.4z M82.5,48.6
				c0,0.4-0.3,0.7-0.7,0.7h0c-0.4,0-0.7-0.3-0.7-0.7v0c0-0.4,0.3-0.7,0.7-0.7l0,0v0c0.1,0,0.3,0,0.4,0.1c-0.1,0.2-0.4,0.4-0.4,0.5
				c-0.1,0-0.1,0.1-0.1,0.1c0,0.1,0,0.1,0.1,0.1c0.1,0,0.1,0,0.1-0.1l0,0L82.5,48.6C82.5,48.6,82.5,48.6,82.5,48.6L82.5,48.6z
				 M82.6,48.5L82.6,48.5L82.6,48.5C82.6,48.4,82.6,48.4,82.6,48.5c-0.1-0.2-0.2-0.4-0.3-0.5c0.1,0,0.2-0.1,0.2-0.1l0.2,0.6
				L82.6,48.5z M82.9,48.7C82.9,48.7,82.9,48.7,82.9,48.7C82.9,48.7,82.9,48.7,82.9,48.7l0,0.2c0,0,0,0-0.1,0
				c-0.1,0-0.2-0.1-0.2-0.2c0-0.1,0.1-0.2,0.2-0.2c0.1,0,0.2,0.1,0.2,0.2c0,0,0,0.1,0,0.1L82.9,48.7z M84.6,49.3L84.6,49.3
				c-0.4,0-0.7-0.3-0.7-0.7l0,0c0-0.3,0.2-0.5,0.4-0.6l0.2,0.6c0,0,0,0,0,0.1c0,0.1,0,0.1,0.1,0.1c0.1,0,0.1,0,0.1-0.1
				c0-0.1,0-0.1-0.1-0.1L84.5,48c0.1,0,0.1,0,0.2,0l0,0v0h0c0.4,0,0.7,0.3,0.7,0.7v0C85.3,49,85,49.3,84.6,49.3z"/>
			<path class="st5" d="M85.6,50c0-0.1,0-0.1-0.1-0.1l-0.4,0c-0.1,0-0.1,0-0.1,0.1c0,0.1,0,0.1,0.1,0.1l0.2,0
				c-0.4,0.5-1.1,0.9-2,0.9c-0.8,0-1.6-0.4-2-0.9l0.2,0c0.1,0,0.1,0,0.1-0.1c0-0.1,0-0.1-0.1-0.1l-0.4,0c-0.1,0-0.1,0-0.1,0.1l0,0.4
				c0,0.1,0,0.1,0.1,0.1c0,0,0.1,0,0.1,0c0,0,0,0,0-0.1l0-0.1c0.1,0.2,0.3,0.3,0.4,0.4c0.4,0.3,1,0.5,1.7,0.5c0.6,0,1.2-0.2,1.7-0.5
				c0.2-0.1,0.3-0.3,0.5-0.4l0,0.2c0,0,0,0.1,0,0.1c0,0,0,0,0.1,0c0.1,0,0.1,0,0.1-0.1L85.6,50z"/>
		</g>
	</g>
</g>
<rect x="146.1" y="88.7" class="st5" width="2.7" height="9.5"/>
<linearGradient id="SVGID_72_" gradientUnits="userSpaceOnUse" x1="39.2071" y1="98.2112" x2="39.2071" y2="84.3614">
	<stop  offset="0" style="stop-color:#FEC23E"/>
	<stop  offset="1" style="stop-color:#FDA909"/>
</linearGradient>
<rect x="37.3" y="84.4" class="st61" width="3.7" height="13.8"/>
<polygon class="st5" points="50.9,88.7 50.9,95.2 44.4,88.7 41.2,88.7 41.2,88.7 41.1,88.7 41.1,98.2 43.8,98.2 43.8,91.3 
	50.4,98.2 53.6,98.2 53.6,88.7 "/>
</svg>
