<?xml version="1.0" encoding="utf-8"?>
<!-- Generator: Adobe Illustrator 19.2.0, SVG Export Plug-In . SVG Version: 6.00 Build 0)  -->
<svg version="1.1" id="Capa_1" xmlns="http://www.w3.org/2000/svg" xmlns:xlink="http://www.w3.org/1999/xlink" x="0px" y="0px"
	 viewBox="0 0 60.3 91.9" style="enable-background:new 0 0 60.3 91.9;" xml:space="preserve">
<style type="text/css">
	.st0{fill:url(#SVGID_1_);}
	.st1{clip-path:url(#SVGID_3_);fill:url(#SVGID_4_);}
	.st2{clip-path:url(#SVGID_3_);}
	.st3{fill:url(#SVGID_5_);}
	.st4{opacity:0.5;clip-path:url(#SVGID_3_);fill:url(#SVGID_6_);}
	.st5{clip-path:url(#SVGID_8_);fill:url(#SVGID_9_);}
	.st6{clip-path:url(#SVGID_8_);}
	.st7{fill:url(#SVGID_10_);}
	.st8{opacity:0.5;clip-path:url(#SVGID_8_);fill:url(#SVGID_11_);}
	.st9{opacity:0.3;clip-path:url(#SVGID_8_);fill:url(#SVGID_12_);}
	.st10{fill:url(#SVGID_13_);}
	.st11{clip-path:url(#SVGID_15_);fill:url(#SVGID_16_);}
	.st12{opacity:0.5;clip-path:url(#SVGID_15_);fill:url(#SVGID_17_);}
	.st13{opacity:0.3;clip-path:url(#SVGID_15_);fill:url(#SVGID_18_);}
	.st14{clip-path:url(#SVGID_20_);fill:url(#SVGID_21_);}
	.st15{opacity:0.3;clip-path:url(#SVGID_20_);fill:url(#SVGID_22_);}
	.st16{clip-path:url(#SVGID_24_);fill:url(#SVGID_25_);}
	.st17{opacity:0.5;clip-path:url(#SVGID_24_);fill:url(#SVGID_26_);}
	.st18{fill:#151011;}
	.st19{clip-path:url(#SVGID_28_);}
	.st20{fill:url(#SVGID_29_);}
	.st21{opacity:0.3;clip-path:url(#SVGID_28_);fill:url(#SVGID_30_);}
</style>
<g>
	<g>
		
			<linearGradient id="SVGID_1_" gradientUnits="userSpaceOnUse" x1="1906.2272" y1="29.7656" x2="1921.7257" y2="29.7656" gradientTransform="matrix(1 0 0 1 -1876.6437 0)">
			<stop  offset="0" style="stop-color:#FEC43B"/>
			<stop  offset="1" style="stop-color:#FEAB0C"/>
		</linearGradient>
		<path class="st0" d="M30.7,20.8c4.5-2.5,9.5,13.4,9.5,13.4l2.3-3.6c0,0-1.6-3.1-1-4.4s3-0.3,3-0.3s1.3,2.3,0.5,5.2
			c-0.9,2.9-4.4,8-6,8C37.2,39,26.2,23.3,30.7,20.8z"/>
		<g>
			<defs>
				<path id="SVGID_2_" d="M45.9,83.9c0,0,4.6,6.7,5,6.8c0.4,0.1,9.4-5.8,9.4-5.8s-0.9-1.8-2.9-1.2c-1.2,0.4-2.7,2.4-3.7,2.6
					c-1.2,0.2-3.1-0.3-4-2.2c-0.9-1.9-6.2-19.6-7.9-23.6c-1.9-4.5-7.8-16.3-7.8-16.3H22.6c0,0,10.2,14.8,14.2,30.2
					C38,79.1,41.9,83.9,45.9,83.9z"/>
			</defs>
			<clipPath id="SVGID_3_">
				<use xlink:href="#SVGID_2_"  style="overflow:visible;"/>
			</clipPath>
			
				<linearGradient id="SVGID_4_" gradientUnits="userSpaceOnUse" x1="1898.0524" y1="66.4952" x2="1941.4607" y2="66.4952" gradientTransform="matrix(1 0 0 1 -1876.6437 0)">
				<stop  offset="0" style="stop-color:#FA1B32"/>
				<stop  offset="1" style="stop-color:#E30A16"/>
			</linearGradient>
			<rect x="21.4" y="41.8" class="st1" width="43.4" height="49.5"/>
			<g class="st2">
				
					<linearGradient id="SVGID_5_" gradientUnits="userSpaceOnUse" x1="1417.9011" y1="-1568.1497" x2="1430.2045" y2="-1568.1497" gradientTransform="matrix(1.0379 -0.7604 0.591 0.8067 -498.9726 2433.5874)">
					<stop  offset="0" style="stop-color:#0E0D15"/>
					<stop  offset="1" style="stop-color:#1F1F3C"/>
				</linearGradient>
				<path class="st3" d="M52.7,82.5c0.6-0.3,1.2-0.7,1.8-0.9c0.8-0.2,1.6-0.2,2.2,0.1c0.7,0.2,1.2,0.6,1.7,1
					c0.9,0.6,1.7,1.2,2.6,1.8c0.2,0.1,0.3,0.2,0.4,0.5c0.1,0.4-0.4,0.8-0.8,1.1c-2.9,2.1-5.8,4.1-8.7,6.1c-0.9,0.6-2,1.2-2.9,1.1
					c-0.7-0.1-1.1-0.7-1.4-1.3s-0.6-1.2-1.2-1.5c-0.4-0.2-0.9-0.3-1-0.8c-0.1-0.2,0-0.5,0.1-0.7c0.2-0.8,0.5-1.5,0.7-2.3
					c0.2-0.6-0.1-2.8-0.1-2.8l4.7-1.7C50.6,82.2,51.9,82.9,52.7,82.5z"/>
			</g>
			
				<linearGradient id="SVGID_6_" gradientUnits="userSpaceOnUse" x1="1905.8478" y1="65.6451" x2="1931.3915" y2="65.6451" gradientTransform="matrix(1 0 0 1 -1876.6437 0)">
				<stop  offset="0" style="stop-color:#2F2829"/>
				<stop  offset="1" style="stop-color:#635A58;stop-opacity:0"/>
			</linearGradient>
			<path class="st4" d="M54.7,83.5c0,3.4-3.6,6.2-8.3,1.5S34,79.7,30.9,67.4s-1.1-23.6-1.1-23.6c8.7,11.1,3.5,20,10.8,28.1
				S54.7,80.1,54.7,83.5z"/>
		</g>
		<g>
			<defs>
				<path id="SVGID_7_" d="M2.9,82.9c0,0-2.9,3.9-2.9,4.3c0,0.4,2.5,4.3,2.5,4.3c0.1,0.2,0.4,0.4,0.7,0.4h6.6c0,0-0.4-2.4-1.3-2.4
					S5.7,89.3,5.3,89c-1.1-1.1-1.1-3.6,0.4-5.3c1.6-1.8,13.4-12.9,16.9-16.4c5-5,11.5-23.2,11.5-23.2H22.6c0,0-6,14.7-9,19.2
					c-1.6,2.4-5.1,6.1-8.1,9C2.7,75.1,1.7,79.2,2.9,82.9z"/>
			</defs>
			<clipPath id="SVGID_8_">
				<use xlink:href="#SVGID_7_"  style="overflow:visible;"/>
			</clipPath>
			
				<linearGradient id="SVGID_9_" gradientUnits="userSpaceOnUse" x1="1872.9088" y1="67.3706" x2="1911.5999" y2="67.3706" gradientTransform="matrix(1 0 0 1 -1876.6437 0)">
				<stop  offset="0" style="stop-color:#FA1B32"/>
				<stop  offset="1" style="stop-color:#E30A16"/>
			</linearGradient>
			<rect x="-3.7" y="42.8" class="st5" width="38.7" height="49.1"/>
			<g class="st6">
				
					<linearGradient id="SVGID_10_" gradientUnits="userSpaceOnUse" x1="1875.2231" y1="87.5751" x2="1887.5265" y2="87.5751" gradientTransform="matrix(1 0 0 1 -1876.6437 0)">
					<stop  offset="0" style="stop-color:#0E0D15"/>
					<stop  offset="1" style="stop-color:#1F1F3C"/>
				</linearGradient>
				<path class="st7" d="M6.5,84.8C7,84.8,7.6,84.9,8,85.1c0.6,0.3,1.1,0.8,1.4,1.4s0.5,1.2,0.6,1.8c0.3,1,0.5,2,0.8,3
					c0.1,0.2,0.1,0.4,0,0.6c-0.1,0.4-0.6,0.4-1,0.4c-2.8,0-5.5-0.1-8.3-0.2c-0.9,0-1.8-0.2-2.3-0.9c-0.4-0.5-0.4-1.2-0.3-1.9
					c0.1-0.6,0.2-1.3,0-1.9c-0.1-0.4-0.4-0.8-0.3-1.2c0.1-0.2,0.2-0.4,0.4-0.5c0.5-0.5,1-1,1.5-1.5c0.4-0.4,0.9-1,1.4-1.3
					c0.4-0.2,0.8,0,1.2,0.3c0.5,0.3,1,0.7,1.5,0.9C5.2,84.4,5.8,84.6,6.5,84.8z"/>
			</g>
			
				<linearGradient id="SVGID_11_" gradientUnits="userSpaceOnUse" x1="1880.2201" y1="58.4588" x2="1905.8306" y2="58.4588" gradientTransform="matrix(1 0 0 1 -1876.6437 0)">
				<stop  offset="0" style="stop-color:#635A58;stop-opacity:0"/>
				<stop  offset="1" style="stop-color:#2F2829"/>
			</linearGradient>
			<path class="st8" d="M25.3,56c0-0.9,0.1-1.8,0.3-2.7c0.4-1.4,1-2.8,1.7-4.1c0.5-0.8,1-1.5,1.4-2.3c0.4-0.8,0.6-1.8,0.3-2.6
				c-0.6-1.6-2.7-2.2-4.3-1.7c-4,1.2-6.4,6.1-8.1,9.6c-1.8,3.9-3.3,8.1-5.8,11.7c-2.3,3.3-6.2,6.4-7.3,10.3c1.5,0.3,3,0.9,4.3,0.2
				c1.8-1,3.1-2.8,4.7-4.1c2.4-2,5.5-3.1,8-5.1c2-1.6,4.2-4.3,4.6-7C25.3,57.3,25.3,56.7,25.3,56z"/>
			
				<linearGradient id="SVGID_12_" gradientUnits="userSpaceOnUse" x1="1878.0298" y1="72.1488" x2="1908.2501" y2="72.1488" gradientTransform="matrix(1 0 0 1 -1876.6437 0)">
				<stop  offset="0" style="stop-color:#2F2829"/>
				<stop  offset="1" style="stop-color:#635A58;stop-opacity:0"/>
			</linearGradient>
			<path class="st9" d="M3.9,89.5c-3.3-3.3-5-18.5,5.9-21.5c11-3,14.7-13.8,20.3-13.8s-4.7,13.1-13.8,20C7.2,81.2,7.2,92.8,3.9,89.5
				z"/>
		</g>
		<g>
			
				<linearGradient id="SVGID_13_" gradientUnits="userSpaceOnUse" x1="339.8742" y1="-51.2076" x2="356.3135" y2="-51.2076" gradientTransform="matrix(0.8628 -0.5055 0.5055 0.8628 -241.4845 230.9741)">
				<stop  offset="0" style="stop-color:#0E0D15"/>
				<stop  offset="1" style="stop-color:#1F1F3C"/>
			</linearGradient>
			<path class="st10" d="M38.6,4.1c3.9,6.7-1.7,13-1.7,13l-10-0.6L30.4,4C30.4,4,35.6-1,38.6,4.1z"/>
		</g>
		<g>
			<defs>
				<path id="SVGID_14_" d="M27.8,17.9c1-1.5,2-5.9,1.8-8.2s0.1-4.7,3.1-6.3c1.7-0.9,4.5,0.3,5.8,2.8c1.3,2.5-0.4,7.6-0.6,8.4
					s-3-0.1-3-0.1l-0.8,5.6L27.8,17.9z"/>
			</defs>
			<clipPath id="SVGID_15_">
				<use xlink:href="#SVGID_14_"  style="overflow:visible;"/>
			</clipPath>
			
				<linearGradient id="SVGID_16_" gradientUnits="userSpaceOnUse" x1="1906.2651" y1="10.9798" x2="1920.1232" y2="10.9798" gradientTransform="matrix(1 0 0 1 -1876.6437 0)">
				<stop  offset="0" style="stop-color:#FEC43B"/>
				<stop  offset="1" style="stop-color:#FEAB0C"/>
			</linearGradient>
			<rect x="29.6" y="2.6" class="st11" width="13.9" height="16.8"/>
			
				<linearGradient id="SVGID_17_" gradientUnits="userSpaceOnUse" x1="1908.3936" y1="7.9619" x2="1916.3458" y2="7.9619" gradientTransform="matrix(1 0 0 1 -1876.6437 0)">
				<stop  offset="0" style="stop-color:#635A58;stop-opacity:0"/>
				<stop  offset="1" style="stop-color:#2F2829"/>
			</linearGradient>
			<path class="st12" d="M36,11.5l1.2,0c0,0,0.4-2.8,0.4-3.5s2.2-0.3,2.2,0L38,4.4l-4.3,1l-1.9,2.7c0,0,2.9-1.1,3.6-0.4
				S36,11.5,36,11.5z"/>
			
				<linearGradient id="SVGID_18_" gradientUnits="userSpaceOnUse" x1="1904.8732" y1="14.1036" x2="1912.8196" y2="14.1036" gradientTransform="matrix(1 0 0 1 -1876.6437 0)">
				<stop  offset="0" style="stop-color:#635A58;stop-opacity:0"/>
				<stop  offset="1" style="stop-color:#2F2829"/>
			</linearGradient>
			<path class="st13" d="M33.8,13.8c-0.2-0.2-0.4-0.4-0.6-0.7c-0.4-0.6-0.6-1.2-0.6-1.9c0-0.6,0.1-1-0.3-1.6C32,9.2,31.5,9,30.9,9
				c-1.6,0.1-2.3,2.5-2.5,3.8c-0.2,0.9-0.2,1.9,0.1,2.7c0.4,0.8,1.1,1.5,1.8,2c1.3,0.8,2.7,1.4,4.2,1.6c0.3,0,0.9,0.2,1.1,0.1
				c0.3-0.1,0.2-0.6,0.2-1c0.1-0.9,0.2-1.7,0.2-2.6c0-0.2,0-0.5-0.1-0.7c-0.2-0.2-0.5-0.3-0.8-0.4C34.8,14.5,34.3,14.2,33.8,13.8z"
				/>
		</g>
		<g>
			<defs>
				<path id="SVGID_19_" d="M25,35.7c0.1,5.5-2.5,8.4-2.5,8.4h11.5c0,0,1.2-10,3.6-13.9c2.4-4-3.2-11.6-3.2-11.6
					c-0.9-0.2-1.8-0.4-2.7-0.5c-0.7-0.1-1.4-0.2-2.2-0.2c-0.4,0-4.7,2.6-5.8,5.5C22.7,26.3,25,31.5,25,35.7z"/>
			</defs>
			<clipPath id="SVGID_20_">
				<use xlink:href="#SVGID_19_"  style="overflow:visible;"/>
			</clipPath>
			
				<linearGradient id="SVGID_21_" gradientUnits="userSpaceOnUse" x1="1895.4364" y1="32.2294" x2="1915.691" y2="32.2294" gradientTransform="matrix(1 0 0 1 -1876.6437 0)">
				<stop  offset="0" style="stop-color:#635A58"/>
				<stop  offset="1" style="stop-color:#2F2829"/>
			</linearGradient>
			<rect x="18.8" y="13.4" class="st14" width="20.3" height="37.6"/>
			
				<linearGradient id="SVGID_22_" gradientUnits="userSpaceOnUse" x1="1894.4918" y1="34.2618" x2="1914.9414" y2="34.2618" gradientTransform="matrix(1 0 0 1 -1876.6437 0)">
				<stop  offset="0" style="stop-color:#635A58;stop-opacity:0"/>
				<stop  offset="1" style="stop-color:#2F2829"/>
			</linearGradient>
			<path class="st15" d="M30.4,34.9c0,0,6.7,17.4,2.5,17.4S19.7,51,18.1,48.7c-1.1-1.6,2.5-25.2,3.8-27.5c0.4-0.8,6.3-4.9,6.3-4.9
				l5.7,1.2c0,0-9.8,5.2-3.4,11.6c2.2,2.2,8,1.3,8,1.3L37,36.2L30.4,34.9z"/>
		</g>
		<g>
			<defs>
				<path id="SVGID_23_" d="M18.3,32.5c-0.9,1.6,2.8,12.5,3.8,13.3c0.3,0.2,0.4,2.1,0.4,2.1l2.7-2.4c0,0-1.6-0.9-1.8-1.4
					C23.1,43,23,34.1,23,34.1s10.7-7.9,7.9-12.3C27.1,15.8,19.6,30.2,18.3,32.5z"/>
			</defs>
			<clipPath id="SVGID_24_">
				<use xlink:href="#SVGID_23_"  style="overflow:visible;"/>
			</clipPath>
			
				<linearGradient id="SVGID_25_" gradientUnits="userSpaceOnUse" x1="2926.3762" y1="-4404.687" x2="2947.7229" y2="-4404.687" gradientTransform="matrix(-0.4619 1.435 -0.9519 -0.3064 -2811.5994 -5531.6704)">
				<stop  offset="0" style="stop-color:#FEC43B"/>
				<stop  offset="1" style="stop-color:#FEAB0C"/>
			</linearGradient>
			<polygon class="st16" points="20.8,14.6 10.9,45.3 28.1,50.8 38,20.2 			"/>
			
				<linearGradient id="SVGID_26_" gradientUnits="userSpaceOnUse" x1="4317.8882" y1="-4446.8184" x2="4314.4087" y2="-4462.6855" gradientTransform="matrix(-0.1963 0.8497 -0.8066 -0.1863 -2721.5977 -4463.3677)">
				<stop  offset="0" style="stop-color:#635A58;stop-opacity:0"/>
				<stop  offset="1" style="stop-color:#2F2829"/>
			</linearGradient>
			<path class="st17" d="M30.1,25.7c-2.3,2.5-8.3,6.3-9.5,8.8s1.3,10.3,3.6,10.3s2.9,0.8,2.6,1.6c-0.2,0.5-0.7,0.9-1.2,1.2
				c-0.5,0.3-1,0.7-1.5,1c-0.4,0.2-0.8,0.5-1.2,0.6c-0.5,0.1-5.7-12.6-5-15.8c0.6-2.6,7.3-14,10.7-14S32.4,23.2,30.1,25.7z"/>
		</g>
		<g>
			<defs>
				<path id="SVGID_27_" d="M29,1.2c-6.9,4-3.1,15.7-3.1,15.7l5.5,0.2c0-5-0.6-7.9,4.7-11.1c2-1.2,2.5-2.5,2.5-2.5
					C37.1,1,33.8-1.6,29,1.2z"/>
			</defs>
			<clipPath id="SVGID_28_">
				<use xlink:href="#SVGID_27_"  style="overflow:visible;"/>
			</clipPath>
			<g class="st19">
				
					<linearGradient id="SVGID_29_" gradientUnits="userSpaceOnUse" x1="516.0898" y1="-646.9073" x2="535.0848" y2="-646.9073" gradientTransform="matrix(0.9219 -0.4773 0.5759 1.1122 -80.049 978.5691)">
					<stop  offset="0" style="stop-color:#0E0D15"/>
					<stop  offset="1" style="stop-color:#1F1F3C"/>
				</linearGradient>
				<polygon class="st20" points="44.3,10.6 26.8,19.6 19.6,5.8 37.1,-3.3 				"/>
			</g>
			
				<linearGradient id="SVGID_30_" gradientUnits="userSpaceOnUse" x1="487.2726" y1="-273.3889" x2="504.1387" y2="-273.3889" gradientTransform="matrix(0.888 -0.4598 0.4956 0.9571 -273.8718 500.3019)">
				<stop  offset="0" style="stop-color:#2F2829"/>
				<stop  offset="1" style="stop-color:#635A58;stop-opacity:0"/>
			</linearGradient>
			<path class="st21" d="M34,5.1c-1,0.4-1.8,1.2-2.2,2.1c-0.3,0.5-1.7,3.1-3.4,2.1c-1.7-1-3.6-4.1-3.6-4.1
				c-2.3,1.2,0.2,12.4,0.2,12.4s8.2,0.5,9.3,0.1c1.1-0.4,1.6-5.9,1.7-6.9c0-0.8-0.3-1.6,0.2-2.2c0.3-0.3,0.7-0.5,1.1-0.8
				C37.7,7.4,38,6.6,37.9,6c-0.1-0.4-0.9-1.2-1.3-1.3c-0.4-0.1-0.8-0.1-1.2,0C34.9,4.7,34.4,4.9,34,5.1z"/>
		</g>
	</g>
</g>
</svg>
