<?xml version="1.0" encoding="utf-8"?>
<!-- Generator: Adobe Illustrator 19.2.0, SVG Export Plug-In . SVG Version: 6.00 Build 0)  -->
<svg version="1.1" id="Capa_1" xmlns="http://www.w3.org/2000/svg" xmlns:xlink="http://www.w3.org/1999/xlink" x="0px" y="0px"
	 viewBox="0 0 187.6 98.6" style="enable-background:new 0 0 187.6 98.6;" xml:space="preserve">
<style type="text/css">
	.st0{clip-path:url(#SVGID_2_);fill:#DBD8D2;}
	.st1{clip-path:url(#SVGID_2_);fill:url(#SVGID_3_);}
	.st2{opacity:0.5;clip-path:url(#SVGID_2_);fill:url(#SVGID_4_);}
	.st3{clip-path:url(#SVGID_2_);}
	.st4{clip-path:url(#SVGID_6_);fill:#DBD8D2;}
	.st5{opacity:0.5;clip-path:url(#SVGID_6_);fill:url(#SVGID_7_);}
	.st6{clip-path:url(#SVGID_2_);fill:url(#SVGID_8_);}
	.st7{opacity:0.5;clip-path:url(#SVGID_2_);fill:url(#SVGID_9_);}
	.st8{opacity:0.5;clip-path:url(#SVGID_2_);fill:url(#SVGID_10_);}
	.st9{opacity:0.5;clip-path:url(#SVGID_2_);fill:url(#SVGID_11_);}
	.st10{clip-path:url(#SVGID_13_);fill:url(#SVGID_14_);}
	.st11{opacity:0.5;clip-path:url(#SVGID_13_);fill:url(#SVGID_15_);}
	.st12{fill:#DBD8D2;}
	.st13{clip-path:url(#SVGID_17_);fill:url(#SVGID_18_);}
	.st14{opacity:0.5;clip-path:url(#SVGID_17_);fill:url(#SVGID_19_);}
	.st15{fill:url(#SVGID_20_);}
</style>
<g>
	<g>
		<defs>
			<path id="SVGID_1_" d="M9.1,40h76.5V0l34.3,0c5.2,0,10.2,2.5,13.2,6.8l24,33.2h18.5c6.6,0,12,5.4,12,12v25.3H0l0-28.1
				C0,44,4.1,40,9.1,40z"/>
		</defs>
		<clipPath id="SVGID_2_">
			<use xlink:href="#SVGID_1_"  style="overflow:visible;"/>
		</clipPath>
		
			<rect x="46.5" y="-0.2" transform="matrix(-1 -4.497703e-11 4.497703e-11 -1 143.7399 78.533)" class="st0" width="50.7" height="79"/>
		
			<linearGradient id="SVGID_3_" gradientUnits="userSpaceOnUse" x1="575.3156" y1="37.9266" x2="762.8965" y2="37.9266" gradientTransform="matrix(-1 0 0 1 762.8965 0)">
			<stop  offset="0" style="stop-color:#280048"/>
			<stop  offset="1" style="stop-color:#41005E"/>
		</linearGradient>
		<polygon class="st1" points="187.6,-1.3 0,-1.3 0,77.2 187.6,77.2 		"/>
		
			<linearGradient id="SVGID_4_" gradientUnits="userSpaceOnUse" x1="569.201" y1="46.6543" x2="689.8973" y2="46.6543" gradientTransform="matrix(-1 0 0 1 762.8965 0)">
			<stop  offset="0" style="stop-color:#2E2728;stop-opacity:0"/>
			<stop  offset="1" style="stop-color:#625957"/>
		</linearGradient>
		<path class="st2" d="M73,77.3c0-33.1,28.1-61.2,79.6-61.2c47.3,0,40.8,61.2,40.8,61.2H73z"/>
		<g class="st3">
			<defs>
				<path id="SVGID_5_" d="M95,11.7v21.9c0,3.3,2.7,6,6,6h37.3c4.1,0,6.6-4.7,4.2-8.1L128.6,12c-2.8-3.9-7.3-6.3-12.2-6.3H101
					C97.6,5.7,95,8.4,95,11.7z"/>
			</defs>
			<clipPath id="SVGID_6_">
				<use xlink:href="#SVGID_5_"  style="overflow:visible;"/>
			</clipPath>
			
				<rect x="95" y="1.9" transform="matrix(-1 -4.499124e-11 4.499124e-11 -1 247.9535 45.285)" class="st4" width="58" height="41.6"/>
			
				<linearGradient id="SVGID_7_" gradientUnits="userSpaceOnUse" x1="5711.4751" y1="-3665.8657" x2="5628.5767" y2="-3748.7637" gradientTransform="matrix(0.7071 0.7071 0.7071 -0.7071 -1318.9318 -6620.1265)">
				<stop  offset="0" style="stop-color:#DBD8D2"/>
				<stop  offset="1" style="stop-color:#DBD8D2;stop-opacity:0"/>
			</linearGradient>
			<path class="st5" d="M107.4,34.3c-26.8,16.5-70.3,16.5-97.1,0l97.1-59.8C134.2-9,134.2,17.8,107.4,34.3z"/>
		</g>
		
			<linearGradient id="SVGID_8_" gradientUnits="userSpaceOnUse" x1="753.7977" y1="51.0247" x2="762.8965" y2="51.0247" gradientTransform="matrix(-1 0 0 1 762.8965 0)">
			<stop  offset="0" style="stop-color:#FEC539"/>
			<stop  offset="1" style="stop-color:#FFAC0F"/>
		</linearGradient>
		<polygon class="st6" points="0,55.9 9.1,55.9 9.1,46.2 0,46.2 		"/>
		
			<linearGradient id="SVGID_9_" gradientUnits="userSpaceOnUse" x1="575.3156" y1="69.16" x2="762.8965" y2="69.16" gradientTransform="matrix(-1 0 0 1 762.8965 0)">
			<stop  offset="0" style="stop-color:#2E2728;stop-opacity:0"/>
			<stop  offset="1" style="stop-color:#625957"/>
		</linearGradient>
		<rect x="0" y="61.2" class="st7" width="187.6" height="16"/>
		
			<linearGradient id="SVGID_10_" gradientUnits="userSpaceOnUse" x1="583.8479" y1="64.1544" x2="635.9025" y2="64.1544" gradientTransform="matrix(-1 0 0 1 762.8965 0)">
			<stop  offset="0" style="stop-color:#2E2728;stop-opacity:0"/>
			<stop  offset="1" style="stop-color:#625957"/>
		</linearGradient>
		<path class="st8" d="M127,77.2H179c0-14.4-11.7-26-26-26C138.6,51.1,127,62.8,127,77.2z"/>
		
			<linearGradient id="SVGID_11_" gradientUnits="userSpaceOnUse" x1="696.092" y1="64.1544" x2="748.1466" y2="64.1544" gradientTransform="matrix(-1 0 0 1 762.8965 0)">
			<stop  offset="0" style="stop-color:#2E2728;stop-opacity:0"/>
			<stop  offset="1" style="stop-color:#625957"/>
		</linearGradient>
		<path class="st9" d="M14.7,77.2h52.1c0-14.4-11.7-26-26-26C26.4,51.1,14.7,62.8,14.7,77.2z"/>
	</g>
	<g>
		<g>
			<defs>
				<path id="SVGID_12_" d="M134.1,66.7c-9.5,19.6,9.8,38.9,29.4,29.4c3.7-1.8,6.7-4.8,8.4-8.4c9.5-19.6-9.8-38.9-29.4-29.4
					C138.9,60.1,135.9,63,134.1,66.7z"/>
			</defs>
			<clipPath id="SVGID_13_">
				<use xlink:href="#SVGID_12_"  style="overflow:visible;"/>
			</clipPath>
			
				<linearGradient id="SVGID_14_" gradientUnits="userSpaceOnUse" x1="588.4833" y1="77.1681" x2="631.2671" y2="77.1681" gradientTransform="matrix(-1 0 0 1 762.8965 0)">
				<stop  offset="0" style="stop-color:#0E0D14"/>
				<stop  offset="1" style="stop-color:#1E1E3B"/>
			</linearGradient>
			<polygon class="st10" points="131.6,98.6 174.4,98.6 174.4,55.8 131.6,55.8 			"/>
			
				<linearGradient id="SVGID_15_" gradientUnits="userSpaceOnUse" x1="576.7515" y1="86.1066" x2="625.1218" y2="86.1066" gradientTransform="matrix(-1 0 0 1 762.8965 0)">
				<stop  offset="0" style="stop-color:#2E2728;stop-opacity:0"/>
				<stop  offset="1" style="stop-color:#625957"/>
			</linearGradient>
			<path class="st11" d="M140.6,97.9c-10.7-22.2,11-43.9,33.2-33.2c4.1,2,7.5,5.4,9.5,9.5c10.7,22.2-11,43.9-33.2,33.2
				C146,105.5,142.6,102.1,140.6,97.9z"/>
		</g>
		<path class="st12" d="M141,70.7c-5.8,12.3,6.2,24.2,18.4,18.4c2.4-1.1,4.4-3.1,5.5-5.5c5.8-12.3-6.2-24.2-18.4-18.4
			C144.1,66.3,142.2,68.3,141,70.7z"/>
	</g>
	<g>
		<g>
			<defs>
				<path id="SVGID_16_" d="M21.9,66.7c-9.5,19.6,9.8,38.9,29.4,29.4c3.7-1.8,6.7-4.8,8.4-8.4c9.5-19.6-9.8-38.9-29.4-29.4
					C26.6,60.1,23.7,63,21.9,66.7z"/>
			</defs>
			<clipPath id="SVGID_17_">
				<use xlink:href="#SVGID_16_"  style="overflow:visible;"/>
			</clipPath>
			
				<linearGradient id="SVGID_18_" gradientUnits="userSpaceOnUse" x1="697.8134" y1="77.1681" x2="746.4251" y2="77.1681" gradientTransform="matrix(-1 0 0 1 762.8965 0)">
				<stop  offset="0" style="stop-color:#0E0D14"/>
				<stop  offset="1" style="stop-color:#1E1E3B"/>
			</linearGradient>
			<polygon class="st13" points="16.5,101.5 65.1,101.5 65.1,52.9 16.5,52.9 			"/>
			
				<linearGradient id="SVGID_19_" gradientUnits="userSpaceOnUse" x1="688.9957" y1="86.1066" x2="737.3659" y2="86.1066" gradientTransform="matrix(-1 0 0 1 762.8965 0)">
				<stop  offset="0" style="stop-color:#2E2728;stop-opacity:0"/>
				<stop  offset="1" style="stop-color:#625957"/>
			</linearGradient>
			<path class="st14" d="M28.4,97.9C17.6,75.8,39.4,54,61.5,64.7c4.1,2,7.5,5.4,9.5,9.5c10.7,22.2-11,43.9-33.2,33.2
				C33.7,105.5,30.4,102.1,28.4,97.9z"/>
		</g>
		<path class="st12" d="M28.8,70.7C23,83,35,95,47.2,89.1c2.4-1.1,4.4-3.1,5.5-5.5c5.8-12.3-6.2-24.2-18.4-18.4
			C31.9,66.3,29.9,68.3,28.8,70.7z"/>
	</g>
	
		<linearGradient id="SVGID_20_" gradientUnits="userSpaceOnUse" x1="581.5298" y1="51.0247" x2="595.4367" y2="51.0247" gradientTransform="matrix(-1 0 0 1 762.8965 0)">
		<stop  offset="0" style="stop-color:#FEC539"/>
		<stop  offset="1" style="stop-color:#FFAC0F"/>
	</linearGradient>
	<path class="st15" d="M167.5,55.9h9c2.7,0,4.9-2.2,4.9-4.9l0,0c0-2.7-2.2-4.9-4.9-4.9h-9V55.9z"/>
</g>
</svg>
