<?xml version="1.0" encoding="utf-8"?>
<!-- Generator: Adobe Illustrator 19.2.0, SVG Export Plug-In . SVG Version: 6.00 Build 0)  -->
<svg version="1.1" id="Capa_1" xmlns="http://www.w3.org/2000/svg" xmlns:xlink="http://www.w3.org/1999/xlink" x="0px" y="0px"
	 viewBox="0 0 102.7 99.5" style="enable-background:new 0 0 102.7 99.5;" xml:space="preserve">
<style type="text/css">
	.st0{clip-path:url(#SVGID_2_);fill:url(#SVGID_3_);}
	.st1{opacity:0.3;clip-path:url(#SVGID_2_);fill:url(#SVGID_4_);}
	.st2{fill:url(#SVGID_5_);}
	.st3{clip-path:url(#SVGID_7_);fill:url(#SVGID_8_);}
	.st4{opacity:0.75;clip-path:url(#SVGID_7_);fill:url(#SVGID_9_);}
	.st5{fill:url(#SVGID_10_);}
	.st6{fill:url(#SVGID_11_);}
	.st7{clip-path:url(#SVGID_13_);}
	.st8{fill:url(#SVGID_14_);}
	.st9{opacity:0.75;clip-path:url(#SVGID_13_);fill:url(#SVGID_15_);}
	.st10{clip-path:url(#SVGID_17_);fill:url(#SVGID_18_);}
	.st11{opacity:0.75;clip-path:url(#SVGID_17_);fill:url(#SVGID_19_);}
	.st12{clip-path:url(#SVGID_21_);fill:url(#SVGID_22_);}
	.st13{opacity:0.75;clip-path:url(#SVGID_21_);fill:url(#SVGID_23_);}
	.st14{clip-path:url(#SVGID_25_);fill:url(#SVGID_26_);}
	.st15{opacity:0.75;clip-path:url(#SVGID_25_);fill:url(#SVGID_27_);}
	.st16{clip-path:url(#SVGID_29_);fill:url(#SVGID_30_);}
	.st17{clip-path:url(#SVGID_29_);fill:url(#SVGID_31_);}
	.st18{clip-path:url(#SVGID_33_);fill:url(#SVGID_34_);}
	.st19{opacity:0.75;clip-path:url(#SVGID_33_);fill:url(#SVGID_35_);}
	.st20{clip-path:url(#SVGID_37_);fill:#EF1224;}
	.st21{clip-path:url(#SVGID_37_);fill:#E7E6DE;}
	.st22{opacity:0.4;clip-path:url(#SVGID_37_);fill:url(#SVGID_38_);}
	.st23{clip-path:url(#SVGID_40_);fill:#EF1224;}
	.st24{opacity:0.4;clip-path:url(#SVGID_40_);fill:url(#SVGID_41_);}
	.st25{clip-path:url(#SVGID_43_);fill:url(#SVGID_44_);}
	.st26{opacity:0.75;clip-path:url(#SVGID_43_);fill:url(#SVGID_45_);}
	.st27{clip-path:url(#SVGID_47_);fill:url(#SVGID_48_);}
	.st28{clip-path:url(#SVGID_47_);}
	.st29{fill:url(#SVGID_49_);}
	.st30{opacity:0.4;clip-path:url(#SVGID_47_);fill:url(#SVGID_50_);}
	.st31{fill:url(#SVGID_51_);}
	.st32{fill:url(#SVGID_52_);}
	.st33{fill:url(#SVGID_53_);}
	.st34{clip-path:url(#SVGID_55_);fill:url(#SVGID_56_);}
	.st35{opacity:0.75;clip-path:url(#SVGID_55_);fill:url(#SVGID_57_);}
	.st36{opacity:0.75;clip-path:url(#SVGID_55_);fill:url(#SVGID_58_);}
	.st37{clip-path:url(#SVGID_60_);fill:url(#SVGID_61_);}
	.st38{opacity:0.5;clip-path:url(#SVGID_60_);fill:url(#SVGID_62_);}
	.st39{clip-path:url(#SVGID_64_);fill:url(#SVGID_65_);}
	.st40{opacity:0.75;clip-path:url(#SVGID_64_);fill:url(#SVGID_66_);}
	.st41{fill:url(#SVGID_67_);}
	.st42{clip-path:url(#SVGID_69_);fill:url(#SVGID_70_);}
	.st43{opacity:0.75;clip-path:url(#SVGID_69_);fill:url(#SVGID_71_);}
	.st44{clip-path:url(#SVGID_73_);fill:url(#SVGID_74_);}
	.st45{opacity:0.75;clip-path:url(#SVGID_73_);fill:url(#SVGID_75_);}
</style>
<g>
	<g>
		<defs>
			<path id="SVGID_1_" d="M72.2,49.1c0.5-4.4,0.8-9.8,1.3-14.2c0.1-1.2,1.3-2.4,1.3-2.4s-1.9-3.5-1.8-3.8c0.1-0.3,1.3-0.7,1.5-0.6
				c0.3,0.1,2.3,3.8,2.3,3.8s2.2,1,2.4,1.9c0.8,4.2,1.1,9.1,1.8,13.3c0.2,1.4,0.4,3.1-0.7,4.2c-0.9,0.9-2.5,1.1-3.9,1.2
				c-1.3,0.1-2.9,0.1-3.7-0.9C72,51,72.1,50,72.2,49.1z"/>
		</defs>
		<clipPath id="SVGID_2_">
			<use xlink:href="#SVGID_1_"  style="overflow:visible;"/>
		</clipPath>
		
			<linearGradient id="SVGID_3_" gradientUnits="userSpaceOnUse" x1="1482.9388" y1="39.9196" x2="1493.8646" y2="39.9196" gradientTransform="matrix(-1 0 0 1 1564.6886 0)">
			<stop  offset="0" style="stop-color:#B11323"/>
			<stop  offset="1" style="stop-color:#940712"/>
		</linearGradient>
		<polygon class="st0" points="81,52.6 70.8,52.3 71.5,27.2 81.7,27.5 		"/>
		
			<linearGradient id="SVGID_4_" gradientUnits="userSpaceOnUse" x1="1406.921" y1="45.9665" x2="1419.0677" y2="45.9665" gradientTransform="matrix(-0.9996 -2.841962e-02 -2.841962e-02 0.9996 1490.6219 36.513)">
			<stop  offset="0" style="stop-color:#635A58;stop-opacity:0"/>
			<stop  offset="1" style="stop-color:#2F2829"/>
		</linearGradient>
		<path class="st1" d="M77.3,36.6c0.1,0.4,0.1,0.8,0.1,1.2c-0.1,1.6-1.2,2-2.3,3c-1.1,1-1.8,2.5-1.8,4c0,0.8,0.1,1.8-0.6,2.2
			c-0.5,0.4-1.3,0.2-1.8,0.6c-0.6,0.5-0.3,1.4,0.1,2.1c1.1,1.7,2.9,2.8,4.9,2.9c2,0.1,4-0.8,5.2-2.3c1.3-1.6,1.8-3.8,1.7-5.9
			s-0.6-4.1-1-6.2c-0.2-1.2-0.4-2.3-0.5-3.5c-0.1-0.9-0.3-1.6-1-2.3c-0.7-0.6-1.7-0.7-2.4-0.2c-0.8,0.6-1,1.6-0.9,2.6
			C77.1,35.6,77.3,36.1,77.3,36.6z"/>
	</g>
	<g>
		
			<linearGradient id="SVGID_5_" gradientUnits="userSpaceOnUse" x1="-1004.1994" y1="1210.6129" x2="-997.415" y2="1210.6129" gradientTransform="matrix(-1 -3.938187e-03 -3.938187e-03 1 -953.2443 -1124.0746)">
			<stop  offset="0" style="stop-color:#2F2829"/>
			<stop  offset="1" style="stop-color:#635A58"/>
		</linearGradient>
		<path class="st2" d="M46.2,92.3L46.2,92.3c0,0.3-0.3,0.4-0.5,0.5c-0.8,0-1.6,0-3,0s-3.9-2.1-3.1-3.9c0.9-1.8,2.4,1.1,2.4,1.1
			l3.9,1.8C46.1,91.8,46.2,92,46.2,92.3z"/>
	</g>
	<g>
		<defs>
			<path id="SVGID_6_" d="M35.9,61.1c-1-3.7-7.4-13.8-4.8-28.5l10.9,1.2c0,0,3.5,14.5,4.4,24.5c1,10.9-4.9,31.7-4.9,31.7
				c-6.2-2.1-8.4-7.6-7.9-14.1C33.9,70.1,36.9,64.8,35.9,61.1z"/>
		</defs>
		<clipPath id="SVGID_7_">
			<use xlink:href="#SVGID_6_"  style="overflow:visible;"/>
		</clipPath>
		
			<linearGradient id="SVGID_8_" gradientUnits="userSpaceOnUse" x1="5808.9741" y1="-558.7284" x2="5865.5542" y2="-558.7284" gradientTransform="matrix(0.5118 0.3715 -0.2067 0.9284 -3065.2087 -1587.6571)">
			<stop  offset="0" style="stop-color:#4D2B91"/>
			<stop  offset="1" style="stop-color:#1E0C45"/>
		</linearGradient>
		<polygon class="st3" points="48.3,91.2 28.6,91.2 27.5,33.4 47.2,33.5 		"/>
		
			<linearGradient id="SVGID_9_" gradientUnits="userSpaceOnUse" x1="1062.0599" y1="575.0367" x2="1089.2856" y2="575.6071" gradientTransform="matrix(-0.868 -4.195547e-02 -3.841500e-03 0.8246 976.1921 -371.3869)">
			<stop  offset="0" style="stop-color:#635A58;stop-opacity:0"/>
			<stop  offset="1" style="stop-color:#2F2829"/>
		</linearGradient>
		<path class="st4" d="M47.1,57.4c-0.4-0.8-0.7-1.6-0.8-2.4c-0.4-3.6-1.1-7.1-2.2-10.6c-0.7-2-1.4-4-2.6-5.8c-1.1-1.7-1.9-3.5-3.3-5
			c-1-1-2.2-1.8-3.6-2.1c-2.5-0.4-5,1.3-5.9,3.6c-1,2.6-0.3,5.4,1.6,7.3c1.7,1.8,3,4,4.8,5.8c1.4,1.4,2.8,2.7,4.2,4.1
			c1,1,2,2,2.6,3.3c1,2.1,0.8,4.5-0.1,6.7c-0.8,2.1-2.2,4.1-3.3,6.2c-1,2-1.9,4.2-2,6.5c-0.1,2.4,0.5,4.9,2,6.7
			c1.6,1.9,4.2,3,6.4,2.3c2.7-0.7,4.2-3.5,5-6.2c0.5-1.5,1-2.9,1.5-4.4c1.3-3.9,0.9-7.2-1-10.8C49.6,60.8,48.1,59.2,47.1,57.4z"/>
	</g>
	
		<linearGradient id="SVGID_10_" gradientUnits="userSpaceOnUse" x1="7310.3906" y1="-3805.9114" x2="7313.4941" y2="-3806.3125" gradientTransform="matrix(0.5635 0.2161 -0.2227 0.5808 -4924.5508 719.8553)">
		<stop  offset="0" style="stop-color:#2F2829"/>
		<stop  offset="1" style="stop-color:#514949"/>
	</linearGradient>
	<path class="st5" d="M42.4,92.8l-1-0.4l2.5-6.6c0.1-0.2,0.4-0.4,0.6-0.3l0.1,0c0.2,0.1,0.4,0.4,0.3,0.6L42.4,92.8z"/>
	
		<linearGradient id="SVGID_11_" gradientUnits="userSpaceOnUse" x1="4300.4077" y1="10865.5986" x2="4305.5063" y2="10863.4453" gradientTransform="matrix(0.2145 -0.5641 0.3182 0.121 -4337.8501 1205.3165)">
		<stop  offset="0" style="stop-color:#2F2829"/>
		<stop  offset="1" style="stop-color:#514949"/>
	</linearGradient>
	<path class="st6" d="M44.1,93L44.1,93c-0.1,0.3-0.4,0.4-0.6,0.4l-3-1.1c-0.2-0.1-0.4-0.4-0.3-0.6l0-0.1c0.1-0.2,0.4-0.4,0.6-0.3
		l3,1.1C44,92.5,44.2,92.8,44.1,93z"/>
	<g>
		<g>
			<defs>
				<path id="SVGID_12_" d="M80.6,37.9l-0.1,10.1c0,1-0.8,1.8-1.9,1.8l-6.5,0l0,2.1l7.1,0c1.8,0,3.3-1.4,3.3-3.2l0.1-12.8h0
					C81.6,35.8,80.6,36.7,80.6,37.9z"/>
			</defs>
			<clipPath id="SVGID_13_">
				<use xlink:href="#SVGID_12_"  style="overflow:visible;"/>
			</clipPath>
			<g class="st7">
				
					<linearGradient id="SVGID_14_" gradientUnits="userSpaceOnUse" x1="2323.6531" y1="882.4083" x2="2335.5852" y2="882.4083" gradientTransform="matrix(1 6.073594e-03 -6.073594e-03 1 -2246.5073 -852.199)">
					<stop  offset="0" style="stop-color:#2F2829"/>
					<stop  offset="1" style="stop-color:#635A58"/>
				</linearGradient>
				<polygon class="st8" points="83.6,53.1 71.7,53 71.8,35.6 83.7,35.7 				"/>
			</g>
			
				<linearGradient id="SVGID_15_" gradientUnits="userSpaceOnUse" x1="2329.3345" y1="892.2748" x2="2329.3345" y2="878.8894" gradientTransform="matrix(1 6.073594e-03 -6.073594e-03 1 -2246.5073 -852.199)">
				<stop  offset="0" style="stop-color:#635A58"/>
				<stop  offset="1" style="stop-color:#2F2829;stop-opacity:0"/>
			</linearGradient>
			<path class="st9" d="M83.4,44.4c2.8,6.1-3.1,11.9-9.2,9.1c-1.2-0.6-2.2-1.6-2.8-2.9c-2.8-6.1,3.1-11.9,9.2-9.1
				C81.8,42.1,82.8,43.2,83.4,44.4z"/>
		</g>
		<g>
			<defs>
				<path id="SVGID_16_" d="M38.4,80c0.1-10.6-8.5-19.2-19.1-19.3S0.1,69.2,0,79.8S8.5,99,19.1,99.1C29.7,99.2,38.3,90.6,38.4,80z
					 M6.1,79.8c0-7.2,5.9-13.1,13.2-13c7.2,0,13.1,5.9,13,13.2S26.3,93,19.1,93S6.1,87.1,6.1,79.8z"/>
			</defs>
			<clipPath id="SVGID_17_">
				<use xlink:href="#SVGID_16_"  style="overflow:visible;"/>
			</clipPath>
			
				<linearGradient id="SVGID_18_" gradientUnits="userSpaceOnUse" x1="-1817.3571" y1="-625.0626" x2="-1817.3571" y2="-668.1069" gradientTransform="matrix(-1 -6.073594e-03 6.073594e-03 -1 -1794.2007 -577.7444)">
				<stop  offset="0" style="stop-color:#514949"/>
				<stop  offset="1" style="stop-color:#2F2829"/>
			</linearGradient>
			<polygon class="st10" points="-0.3,58.2 39,58.5 38.7,101.5 -0.6,101.3 			"/>
			
				<linearGradient id="SVGID_19_" gradientUnits="userSpaceOnUse" x1="2280.7097" y1="930.0957" x2="2280.7097" y2="878.4167" gradientTransform="matrix(1 6.073594e-03 -6.073594e-03 1 -2246.5073 -852.199)">
				<stop  offset="0" style="stop-color:#635A58"/>
				<stop  offset="1" style="stop-color:#2F2829;stop-opacity:0"/>
			</linearGradient>
			<path class="st11" d="M52.1,54.7c9.7,22.9-12.2,44.5-35,34.6c-5.4-2.4-9.7-6.7-12-12.1c-9.7-22.9,12.2-44.5,35-34.6
				C45.5,44.9,49.9,49.3,52.1,54.7z"/>
		</g>
		<g>
			<defs>
				<path id="SVGID_20_" d="M64.3,80.2c-0.1,10.6,8.5,19.2,19.1,19.3c10.6,0.1,19.2-8.5,19.3-19.1c0.1-10.6-8.5-19.2-19.1-19.3
					S64.3,69.6,64.3,80.2z M96.5,80.4c0,7.2-5.9,13.1-13.2,13c-7.2,0-13.1-5.9-13-13.2c0-7.2,5.9-13.1,13.2-13S96.6,73.1,96.5,80.4z
					"/>
			</defs>
			<clipPath id="SVGID_21_">
				<use xlink:href="#SVGID_20_"  style="overflow:visible;"/>
			</clipPath>
			
				<linearGradient id="SVGID_22_" gradientUnits="userSpaceOnUse" x1="2335.1472" y1="937.5233" x2="2335.1472" y2="899.0508" gradientTransform="matrix(1 6.073594e-03 -6.073594e-03 1 -2246.5073 -852.199)">
				<stop  offset="0" style="stop-color:#2F2829"/>
				<stop  offset="1" style="stop-color:#514949"/>
			</linearGradient>
			<polygon class="st12" points="102.5,99.6 63.3,99.4 63.5,60.9 102.8,61.1 			"/>
			
				<linearGradient id="SVGID_23_" gradientUnits="userSpaceOnUse" x1="2321.7874" y1="957.2554" x2="2321.7874" y2="905.5765" gradientTransform="matrix(1 6.073594e-03 -6.073594e-03 1 -2246.5073 -852.199)">
				<stop  offset="0" style="stop-color:#635A58"/>
				<stop  offset="1" style="stop-color:#2F2829;stop-opacity:0"/>
			</linearGradient>
			<path class="st13" d="M93.1,82.1c9.7,22.9-12.2,44.5-35,34.6c-5.4-2.4-9.7-6.7-12-12.1C36.4,81.7,58.3,60,81.1,70
				C86.5,72.3,90.8,76.7,93.1,82.1z"/>
		</g>
		<g>
			<defs>
				<path id="SVGID_24_" d="M2.8,65.7l5,3.9l13.1,0.1c3,0,5.8,1.6,7.5,4.1l0,0l11.1,0.1c0,0-2.8-15.8-18.2-15.9
					C9,57.9,2.8,65.7,2.8,65.7z"/>
			</defs>
			<clipPath id="SVGID_25_">
				<use xlink:href="#SVGID_24_"  style="overflow:visible;"/>
			</clipPath>
			
				<linearGradient id="SVGID_26_" gradientUnits="userSpaceOnUse" x1="2254.1301" y1="904.7852" x2="2291.5901" y2="904.7852" gradientTransform="matrix(1 6.073594e-03 -6.073594e-03 1 -2246.5073 -852.199)">
				<stop  offset="0" style="stop-color:#FA1B32"/>
				<stop  offset="1" style="stop-color:#E30A16"/>
			</linearGradient>
			<polygon class="st14" points="39.5,74.9 2,74.7 2.1,57.8 39.6,58 			"/>
			
				<linearGradient id="SVGID_27_" gradientUnits="userSpaceOnUse" x1="2249.5054" y1="910.7492" x2="2283.0173" y2="910.7492" gradientTransform="matrix(1 6.073594e-03 -6.073594e-03 1 -2246.5073 -852.199)">
				<stop  offset="0" style="stop-color:#635A58"/>
				<stop  offset="1" style="stop-color:#2F2829;stop-opacity:0"/>
			</linearGradient>
			<path class="st15" d="M29.3,64.9C35.8,79.8,21.4,94,6.6,87.4c-3.4-1.5-6.1-4.2-7.5-7.6c-6.5-14.9,7.9-29.2,22.8-22.5
				C25.2,58.7,27.9,61.5,29.3,64.9z"/>
		</g>
		<g>
			<defs>
				<path id="SVGID_28_" d="M72.1,46.9l-2,0.5c0-6.1-6.6-6-6.6-10.3c0,0,3.2,0,6.4,0C73.1,37.2,72.1,46.9,72.1,46.9z"/>
			</defs>
			<clipPath id="SVGID_29_">
				<use xlink:href="#SVGID_28_"  style="overflow:visible;"/>
			</clipPath>
			
				<linearGradient id="SVGID_30_" gradientUnits="userSpaceOnUse" x1="2314.2622" y1="884.2995" x2="2324.989" y2="873.5727" gradientTransform="matrix(1 6.073594e-03 -6.073594e-03 1 -2246.5073 -852.199)">
				<stop  offset="0" style="stop-color:#2F2829"/>
				<stop  offset="1" style="stop-color:#635A58"/>
			</linearGradient>
			<polygon class="st16" points="72.8,46.5 62.6,46.4 62.7,35.2 72.9,35.2 			"/>
			
				<linearGradient id="SVGID_31_" gradientUnits="userSpaceOnUse" x1="2310.7419" y1="882.095" x2="2323.137" y2="882.095" gradientTransform="matrix(1 6.073594e-03 -6.073594e-03 1 -2246.5073 -852.199)">
				<stop  offset="8.571827e-02" style="stop-color:#635A58;stop-opacity:0"/>
				<stop  offset="1" style="stop-color:#30292A"/>
			</linearGradient>
			<path class="st17" d="M70.6,41.2c2.4,5.5-2.9,10.8-8.4,8.3C61,49,60,47.9,59.4,46.7c-2.4-5.5,2.9-10.8,8.4-8.3
				C69.1,38.9,70.1,40,70.6,41.2z"/>
		</g>
		<g>
			<defs>
				<path id="SVGID_32_" d="M67.7,47.2L67.7,47.2c0.1,0.5,0.6,0.8,1.1,0.6l1.3-0.4l2.8,8.6l-1.6,0.6l0.1,0.2c0.3,0.8,1.1,1.4,2,1.4
					l0,0L82,80.7c0.5,1.2,1.8,1.7,2.9,1.2l0,0l-8.2-25.6c-0.2-0.8-1.1-1.2-1.9-0.9l0,0l-2.8-8.5l1-0.3c0.5-0.1,0.7-0.6,0.6-1.1
					l0-0.1c-0.1-0.5-0.6-0.7-1.1-0.6l-4.2,1.3C67.8,46.3,67.6,46.8,67.7,47.2z"/>
			</defs>
			<clipPath id="SVGID_33_">
				<use xlink:href="#SVGID_32_"  style="overflow:visible;"/>
			</clipPath>
			
				<linearGradient id="SVGID_34_" gradientUnits="userSpaceOnUse" x1="2318.7065" y1="901.2944" x2="2337.0735" y2="901.2944" gradientTransform="matrix(1 6.073594e-03 -6.073594e-03 1 -2246.5073 -852.199)">
				<stop  offset="0" style="stop-color:#FA1B32"/>
				<stop  offset="1" style="stop-color:#E30A16"/>
			</linearGradient>
			<polygon class="st18" points="84.9,82.7 66.6,82.6 66.8,43.8 85.2,43.9 			"/>
			
				<linearGradient id="SVGID_35_" gradientUnits="userSpaceOnUse" x1="5370.7769" y1="1295.9243" x2="5392.6006" y2="1295.9243" gradientTransform="matrix(0.237 -7.463539e-02 0.3003 0.9538 -1589.9445 -771.1205)">
				<stop  offset="0" style="stop-color:#635A58"/>
				<stop  offset="1" style="stop-color:#2F2829;stop-opacity:0"/>
			</linearGradient>
			<polygon class="st19" points="83.5,81.4 78.3,83 66.4,45.2 71.6,43.6 			"/>
		</g>
		<g>
			<defs>
				
					<rect id="SVGID_36_" x="39" y="47.8" transform="matrix(0.942 -0.3356 0.3356 0.942 -18.5881 16.9953)" width="1.9" height="28.9"/>
			</defs>
			<clipPath id="SVGID_37_">
				<use xlink:href="#SVGID_36_"  style="overflow:visible;"/>
			</clipPath>
			<line class="st20" x1="34.1" y1="46" x2="44.7" y2="75.9"/>
			
				<rect x="32.4" y="48.3" transform="matrix(1 6.073594e-03 -6.073594e-03 1 0.3248 -0.2174)" class="st21" width="7" height="10.2"/>
			
				<linearGradient id="SVGID_38_" gradientUnits="userSpaceOnUse" x1="8996.9883" y1="-1777.8561" x2="9020.0391" y2="-1777.8561" gradientTransform="matrix(0.2686 0.3037 0.2687 0.947 -1906.1453 -996.2046)">
				<stop  offset="8.571827e-02" style="stop-color:#635A58;stop-opacity:0"/>
				<stop  offset="1" style="stop-color:#30292A"/>
			</linearGradient>
			<polygon class="st22" points="37.3,64.4 40.3,63.4 35.1,48.4 32.1,49.5 			"/>
		</g>
		<g>
			<defs>
				<polygon id="SVGID_39_" points="20.1,76.9 18.1,73.7 32.1,58.8 38.8,56.5 46.1,76.2 43.9,76.2 38,59.8 34.6,59.9 				"/>
			</defs>
			<clipPath id="SVGID_40_">
				<use xlink:href="#SVGID_39_"  style="overflow:visible;"/>
			</clipPath>
			
				<rect x="18.2" y="54.8" transform="matrix(1 6.073594e-03 -6.073594e-03 1 0.4009 -0.1927)" class="st23" width="27.5" height="22.1"/>
			
				<linearGradient id="SVGID_41_" gradientUnits="userSpaceOnUse" x1="2265.4167" y1="803.6171" x2="2290.7397" y2="803.6171" gradientTransform="matrix(1.0057 4.634130e-02 -1.287110e-02 1.0454 -2248.738 -876.5583)">
				<stop  offset="8.571827e-02" style="stop-color:#635A58;stop-opacity:0"/>
				<stop  offset="1" style="stop-color:#30292A"/>
			</linearGradient>
			<polygon class="st24" points="26.4,82.4 44.6,76 37.6,55.8 19.3,62.2 			"/>
		</g>
		<g>
			<defs>
				<path id="SVGID_42_" d="M28.2,45.4c-2,2.2,3.1,5.1,3.1,5.1s12,0.6,11.4-2.8c-0.6-3.4-4.6-1.8-7.2-1.9
					C32.9,45.7,30.4,42.9,28.2,45.4z"/>
			</defs>
			<clipPath id="SVGID_43_">
				<use xlink:href="#SVGID_42_"  style="overflow:visible;"/>
			</clipPath>
			
				<linearGradient id="SVGID_44_" gradientUnits="userSpaceOnUse" x1="2276.3513" y1="885.8399" x2="2295.3181" y2="885.8399" gradientTransform="matrix(1 6.073594e-03 -6.073594e-03 1 -2246.5073 -852.199)">
				<stop  offset="0" style="stop-color:#2F2829"/>
				<stop  offset="1" style="stop-color:#635A58"/>
			</linearGradient>
			<polygon class="st25" points="43.4,50.9 24.4,50.8 24.4,44.1 43.4,44.2 			"/>
			
				<linearGradient id="SVGID_45_" gradientUnits="userSpaceOnUse" x1="2281.1917" y1="895.7109" x2="2281.1917" y2="884.1152" gradientTransform="matrix(1 6.073594e-03 -6.073594e-03 1 -2246.5073 -852.199)">
				<stop  offset="0" style="stop-color:#635A58"/>
				<stop  offset="1" style="stop-color:#2F2829;stop-opacity:0"/>
			</linearGradient>
			<path class="st26" d="M34.5,49c2.2,5.2-2.7,10.1-7.9,7.8c-1.2-0.5-2.1-1.5-2.6-2.7c-2.2-5.2,2.7-10.1,7.9-7.8
				C33,46.9,34,47.8,34.5,49z"/>
		</g>
		<g>
			<defs>
				<path id="SVGID_46_" d="M71.3,56.6L61.1,75.4c-1.9,3.6-5.7,5.9-9.8,5.9h0c0,2.5-1.8,6-6.1,5.9c-3.9,0-6.8-2.3-6.8-7.2l-16.3-0.1
					l-3.9-6.2l1.8,0l1.5,2.1c0,0,18.1,0.1,24.3,0.1c6.4,0,9.2-1.8,11.6-5.6C59.8,66.5,69,50.7,69,50.7l0-3.5l1.3-0.4l3.3,9.5
					L71.3,56.6z"/>
			</defs>
			<clipPath id="SVGID_47_">
				<use xlink:href="#SVGID_46_"  style="overflow:visible;"/>
			</clipPath>
			
				<linearGradient id="SVGID_48_" gradientUnits="userSpaceOnUse" x1="2270.1204" y1="904.8013" x2="2327.2537" y2="904.8013" gradientTransform="matrix(1 6.073594e-03 -6.073594e-03 1 -2246.5073 -852.199)">
				<stop  offset="0" style="stop-color:#DBD9D1"/>
				<stop  offset="1" style="stop-color:#E8E7E0"/>
			</linearGradient>
			<polygon class="st27" points="75.1,88.6 17.9,88.2 18.2,44.5 75.3,44.9 			"/>
			<g class="st28">
				
					<linearGradient id="SVGID_49_" gradientUnits="userSpaceOnUse" x1="2294.4717" y1="919.9423" x2="2299.7693" y2="919.9423" gradientTransform="matrix(1 6.073594e-03 -6.073594e-03 1 -2246.5073 -852.199)">
					<stop  offset="0" style="stop-color:#2F2829"/>
					<stop  offset="1" style="stop-color:#514949"/>
				</linearGradient>
				<path class="st29" d="M47.4,80.4c1.1,2.4-1.2,4.7-3.6,3.6c-0.5-0.2-0.9-0.6-1.1-1.1c-1.1-2.4,1.2-4.7,3.6-3.6
					C46.7,79.6,47.1,80,47.4,80.4z"/>
			</g>
			
				<linearGradient id="SVGID_50_" gradientUnits="userSpaceOnUse" x1="2269.2935" y1="906.7017" x2="2326.9019" y2="906.7017" gradientTransform="matrix(1 6.073594e-03 -6.073594e-03 1 -2246.5073 -852.199)">
				<stop  offset="0" style="stop-color:#635A58"/>
				<stop  offset="1" style="stop-color:#2F2829;stop-opacity:0"/>
			</linearGradient>
			<path class="st30" d="M74.9,54.3l-2.7-6.5L58.6,72.1c-2.2,3.4-5.9,5.4-10,5.4l-31.4,0.1l-0.1,11.5L54.3,89L74.9,54.3z"/>
		</g>
		
			<linearGradient id="SVGID_51_" gradientUnits="userSpaceOnUse" x1="-4878.8013" y1="-8810.8105" x2="-4875.6978" y2="-8811.2109" gradientTransform="matrix(-0.5635 -0.2161 0.2227 -0.5808 -740.1456 -6092.4106)">
			<stop  offset="0" style="stop-color:#2F2829"/>
			<stop  offset="1" style="stop-color:#514949"/>
		</linearGradient>
		<path class="st31" d="M47,74.9l1,0.4l-2.5,6.6c-0.1,0.2-0.4,0.4-0.6,0.3l-0.1,0c-0.2-0.1-0.4-0.4-0.3-0.6L47,74.9z"/>
		
			<linearGradient id="SVGID_52_" gradientUnits="userSpaceOnUse" x1="9492.9268" y1="-10717.4551" x2="9498.0254" y2="-10719.6084" gradientTransform="matrix(-0.2145 0.5641 -0.3182 -0.121 -1326.8464 -6577.8721)">
			<stop  offset="0" style="stop-color:#2F2829"/>
			<stop  offset="1" style="stop-color:#514949"/>
		</linearGradient>
		<path class="st32" d="M45.4,74.6L45.4,74.6c0.1-0.3,0.4-0.4,0.6-0.4l3,1.1c0.2,0.1,0.4,0.4,0.3,0.6l0,0.1
			c-0.1,0.2-0.4,0.4-0.6,0.3l-3-1.1C45.4,75.1,45.3,74.9,45.4,74.6z"/>
	</g>
	<g>
		
			<linearGradient id="SVGID_53_" gradientUnits="userSpaceOnUse" x1="-2271.7979" y1="534.2247" x2="-2265.6858" y2="534.2247" gradientTransform="matrix(-0.953 -0.303 -0.303 0.953 -1951.6481 -1121.6998)">
			<stop  offset="0" style="stop-color:#221C1D"/>
			<stop  offset="1" style="stop-color:#534C4B"/>
		</linearGradient>
		<path class="st33" d="M50.8,77.8L50.8,77.8c-0.1,0.2-0.4,0.3-0.6,0.3c-0.8-0.2-1.5-0.5-2.9-1c-1.4-0.5-2.3-4.5-0.4-5.2
			c1.9-0.6,1.1,2.4,1.1,2.4l2.7,2.9C50.9,77.3,51,77.6,50.8,77.8z"/>
	</g>
	<g>
		<defs>
			<path id="SVGID_54_" d="M30.5,35.5l6.8,0.2c0,0,19.6,1.2,21.4,12c1.5,9-10.7,26.6-10.7,26.6c-5.5-3.5-6.3-9.7-4.2-15.9
				c1.8-5.5,5.3-7.6,4.3-8.8C47.2,48.5,25.8,55.3,30.5,35.5z"/>
		</defs>
		<clipPath id="SVGID_55_">
			<use xlink:href="#SVGID_54_"  style="overflow:visible;"/>
		</clipPath>
		
			<linearGradient id="SVGID_56_" gradientUnits="userSpaceOnUse" x1="4188.9697" y1="-187.6167" x2="4246.1094" y2="-187.6167" gradientTransform="matrix(0.7314 0.4248 -0.2475 0.9432 -3086.8125 -1560.9159)">
			<stop  offset="0" style="stop-color:#4D2B91"/>
			<stop  offset="1" style="stop-color:#1E0C45"/>
		</linearGradient>
		<polygon class="st34" points="62.7,74.9 28.9,76.2 26.9,27.5 56.3,29.3 		"/>
		
			<linearGradient id="SVGID_57_" gradientUnits="userSpaceOnUse" x1="1440.7012" y1="46.1945" x2="1460.7382" y2="46.1945" gradientTransform="matrix(-0.9996 -2.841962e-02 -2.841962e-02 0.9996 1490.6219 36.513)">
			<stop  offset="0" style="stop-color:#2F2829;stop-opacity:0"/>
			<stop  offset="1" style="stop-color:#635A58"/>
		</linearGradient>
		<path class="st35" d="M47.6,42.1c-1.7,1.8-4.3,3.2-6,3.9c-2.5,1.1-9.4,3-11-0.2c-1.3-2.5-2.5-7.2,0.7-8.9c1-0.5,2.2-0.7,3.4-0.8
			c2.4-0.2,4.8-0.3,7.2-0.4c1.8-0.1,4.5-0.9,6.1,0.2c0.9,0.6,1.4,1.7,1.4,2.8C49.2,39.9,48.5,41.1,47.6,42.1z"/>
		
			<linearGradient id="SVGID_58_" gradientUnits="userSpaceOnUse" x1="3497.0771" y1="442.5924" x2="3481.5132" y2="447.4831" gradientTransform="matrix(0.9451 0.3268 -0.3268 0.9451 -3100.5205 -1506.6891)">
			<stop  offset="0" style="stop-color:#635A58"/>
			<stop  offset="1" style="stop-color:#2F2829;stop-opacity:0"/>
		</linearGradient>
		<path class="st36" d="M44,47.9c0.2-0.4,0.4-0.7,0.6-1.1c0.8-1.4,1.6-2.7,2.8-3.8c3.7-3.3,11.3-2.2,12.3,3.2
			c1.1,6-0.2,12.4-3.4,17.6c-0.7,1.1-1.4,2.1-2.5,2.7c-1.1,0.6-2.5,0.8-3.5,0.1c-1.1-0.7-1.5-2.1-1.7-3.5c-0.3-2.5-0.2-5,0.5-7.4
			c0.2-0.8,0.5-1.6,0.6-2.5c0.1-0.9-0.1-1.8-0.8-2.4c-1.4-1.3-3.4,0.4-4.5-0.7c-0.5-0.4-0.6-1.1-0.5-1.7
			C43.9,48.3,43.9,48.1,44,47.9z"/>
	</g>
	<g>
		<defs>
			<path id="SVGID_59_" d="M40.6,11.3c0.1-2.1-2.2-8.2,4.5-8c7.9,0.2,4.9,12,4.1,12.7c-0.8,0.7-3.3-0.7-3.3-0.7l-2.4,5.1L38,17.3
				C38,17.3,40.5,13.4,40.6,11.3z"/>
		</defs>
		<clipPath id="SVGID_60_">
			<use xlink:href="#SVGID_59_"  style="overflow:visible;"/>
		</clipPath>
		
			<linearGradient id="SVGID_61_" gradientUnits="userSpaceOnUse" x1="1439.0903" y1="16.9556" x2="1452.965" y2="14.8379" gradientTransform="matrix(-0.9996 -2.841962e-02 -2.841962e-02 0.9996 1490.6219 36.513)">
			<stop  offset="0" style="stop-color:#FEC43B"/>
			<stop  offset="1" style="stop-color:#FEAB0C"/>
		</linearGradient>
		<polygon class="st37" points="38.6,19.3 50.3,19.7 50.8,3.3 39.1,3 		"/>
		
			<linearGradient id="SVGID_62_" gradientUnits="userSpaceOnUse" x1="1439.8079" y1="15.9651" x2="1451.2289" y2="15.9651" gradientTransform="matrix(-0.9996 -2.841962e-02 -2.841962e-02 0.9996 1490.6219 36.513)">
			<stop  offset="0" style="stop-color:#2F2829"/>
			<stop  offset="1" style="stop-color:#635A58;stop-opacity:0"/>
		</linearGradient>
		<path class="st38" d="M47.2,3.3c-1.7-0.7-3.8-0.4-5.4,0.5c-1.1,0.7-1.5,1.8-2.1,2.9c-0.6,1.2,2.3,5.3,2,6.6
			c-0.5,1.9-0.2,4.2,0.5,6c0.5,1.3,6-1.5,3.6-4c-2.4-2.5-1.9-8.6-0.2-8.6C49.8,7,48.8,12,48.5,13c0.8,0.1,1.5,0.3,2.3,0.4
			c0.2-0.8,0.2-1.7,0.2-2.5c0-1.5-0.3-3-0.9-4.3C50.1,6.7,48.7,3.9,47.2,3.3z"/>
	</g>
	<g>
		<defs>
			<path id="SVGID_63_" d="M43.8,42.6c7.5-7.1,1.5-23.2,1.5-23.2l-7.2-6.9l-0.6,3.2c0,0-4.7,3.4-4.9,11.9
				c-0.1,5.3-9.6,10.5-4.5,20.8c0,0,1.9-3.3,6.6-3.2C39.5,45.2,42.1,44.2,43.8,42.6z"/>
		</defs>
		<clipPath id="SVGID_64_">
			<use xlink:href="#SVGID_63_"  style="overflow:visible;"/>
		</clipPath>
		
			<linearGradient id="SVGID_65_" gradientUnits="userSpaceOnUse" x1="-730.5289" y1="306.8647" x2="-707.085" y2="306.8647" gradientTransform="matrix(-1.097 6.495935e-03 8.368250e-03 1.4131 -753.9134 -400.0482)">
			<stop  offset="0" style="stop-color:#1E0C45"/>
			<stop  offset="1" style="stop-color:#4D2B91"/>
		</linearGradient>
		<polygon class="st39" points="50.1,45.6 24.4,45.8 24.2,12.2 49.9,12.1 		"/>
		
			<linearGradient id="SVGID_66_" gradientUnits="userSpaceOnUse" x1="-3735.2732" y1="-2731.3481" x2="-3723.0906" y2="-2735.1948" gradientTransform="matrix(-0.9444 -0.3953 0.3288 -1.1407 -2579.9092 -4560.4785)">
			<stop  offset="0" style="stop-color:#2F2829;stop-opacity:0"/>
			<stop  offset="1" style="stop-color:#635A58"/>
		</linearGradient>
		<path class="st40" d="M37.6,15.6l-0.4,7c1.3,5.8,4.5,11.7,3.6,17.7c-0.4,2.6-2,5.3-4.5,6.1c3.9,0.6,7.9-1.5,10.2-4.7
			c2.5-3.5,3.2-8.1,2.9-12.3c-0.1-2.1-0.5-4.2-1-6.2c-0.1-0.4-3-3.9-3.4-4.1L37.6,15.6z"/>
	</g>
	
		<linearGradient id="SVGID_67_" gradientUnits="userSpaceOnUse" x1="1418.8273" y1="43.7921" x2="1425.2902" y2="43.7921" gradientTransform="matrix(-0.9996 -2.841962e-02 -2.841962e-02 0.9996 1490.6219 36.513)">
		<stop  offset="0" style="stop-color:#FEC43B"/>
		<stop  offset="1" style="stop-color:#FEAB0C"/>
	</linearGradient>
	<path class="st41" d="M66.2,38.2c0,0,0.9-0.7,1.7-0.7c0.7,0,2.8,1,3.2,1.9c0.4,0.9-0.5,2.3-1.2,2.3c-0.6,0-1.5-1.1-2.2-1.2
		c-0.7,0,0.1,1.3-0.2,1.6c-0.3,0.3-2.8-1.2-2.8-1.2l0.4-3.3L66.2,38.2z"/>
	<g>
		<defs>
			<path id="SVGID_68_" d="M37.2,24.6c-0.1,4.5,9,11.3,10.5,12.1c1.4,0.8,17.6,5.2,17.6,5.2l0.2-4.4c0,0-13.9-5.6-14.8-6.5
				c-0.9-0.9-4.5-7.6-6.5-10.4C41.6,16.8,37.3,20.1,37.2,24.6z"/>
		</defs>
		<clipPath id="SVGID_69_">
			<use xlink:href="#SVGID_68_"  style="overflow:visible;"/>
		</clipPath>
		
			<linearGradient id="SVGID_70_" gradientUnits="userSpaceOnUse" x1="1424.5273" y1="34.7569" x2="1453.8505" y2="34.7569" gradientTransform="matrix(-0.9996 -2.841962e-02 -2.841962e-02 0.9996 1490.6219 36.513)">
			<stop  offset="0" style="stop-color:#4D2B91"/>
			<stop  offset="1" style="stop-color:#1E0C45"/>
		</linearGradient>
		<polygon class="st42" points="65.3,43.4 36,42.6 36.7,17.3 66,18.2 		"/>
		
			<linearGradient id="SVGID_71_" gradientUnits="userSpaceOnUse" x1="1429.459" y1="36.1442" x2="1449.8075" y2="36.1442" gradientTransform="matrix(-0.9996 -2.841962e-02 -2.841962e-02 0.9996 1490.6219 36.513)">
			<stop  offset="0" style="stop-color:#635A58"/>
			<stop  offset="1" style="stop-color:#2F2829;stop-opacity:0"/>
		</linearGradient>
		<path class="st43" d="M41.6,23.1c0.4-0.5,0.9-0.9,1.4-1.1c1.7-0.8,3.9-0.2,5.2,1.2c1.3,1.4,1.8,3.4,1.6,5.3
			c-0.2,1.5-0.9,3-0.5,4.5c0.5,2.1,2.8,3.3,4.9,3.9s4.4,1,5.9,2.6c0.4,0.4,0.7,1,0.5,1.5c-0.2,0.6-0.9,0.7-1.6,0.8
			c-4.2,0.3-8.6-1.3-11.5-4.4c-2.5-2.6-3.7-5.8-5.1-9c-0.5-1-1.7-1.7-1.7-2.9C40.5,24.7,41,23.8,41.6,23.1z"/>
	</g>
	<g>
		<defs>
			<path id="SVGID_72_" d="M51.8,3.8c0,1.2-0.9,2-2,2S46.4,3,45,4.5c-1,1-1,5.2-1,5.2l-1-0.1l-0.1-2.9c0,0-2-0.2-2,1.4
				c0,1.1,1.1,1.6,1.4,1.9c0.2,0.4,0.2,0.8-0.1,1.1c-0.5,0.6-1.5,0.1-2-0.2C38.9,10.2,38,8.8,38,7.3c0-5.4,4-7.9,9.6-7.2
				C50.8,0.6,51.8,2.6,51.8,3.8z"/>
		</defs>
		<clipPath id="SVGID_73_">
			<use xlink:href="#SVGID_72_"  style="overflow:visible;"/>
		</clipPath>
		
			<linearGradient id="SVGID_74_" gradientUnits="userSpaceOnUse" x1="1512.6182" y1="5.4874" x2="1526.8738" y2="5.4874" gradientTransform="matrix(-1 0 0 1 1564.6886 0)">
			<stop  offset="0" style="stop-color:#635A58"/>
			<stop  offset="1" style="stop-color:#2F2829"/>
		</linearGradient>
		<polygon class="st44" points="52.1,11.8 37.8,11.8 37.8,-0.8 52.1,-0.8 		"/>
		
			<linearGradient id="SVGID_75_" gradientUnits="userSpaceOnUse" x1="1512.1013" y1="7.005" x2="1525.7671" y2="7.005" gradientTransform="matrix(-1 0 0 1 1564.6886 0)">
			<stop  offset="0" style="stop-color:#2F2829;stop-opacity:0"/>
			<stop  offset="1" style="stop-color:#635A58"/>
		</linearGradient>
		<path class="st45" d="M51.6,1.7c-0.9-0.9-2.3-1-3.6-1c-0.6,0-1.2,0.1-1.6,0.4c-0.4,0.3-0.6,0.9-1,1.2c-0.6,0.5-1.5,0.5-2.2,0.5
			c-0.9-0.1-1.7,0.1-2.3,0.6c-0.6,0.5-1,1.4-1.1,2.2c0,0.5,0.1,0.9,0.1,1.3s0,0.9-0.2,1.3c-0.2,0.3-0.5,0.6-0.7,0.9
			c-0.3,0.5-0.2,1.2,0.1,1.7c0.3,0.5,0.7,1,1.1,1.4c0.4,0.5,1.2,0.7,1.8,0.8c0.7,0.2,1.4-0.3,1.9-0.9c0.5-0.6,0.7-1.3,0.9-2
			c0.2-0.7,0.3-1.5,0.4-2.2c0.2-0.6,0.4-1.1,0.8-1.6c0.4-0.5,1-0.8,1.6-0.8c0.7,0,1.3,0.5,1.8,0.9C50,7,50.6,7.4,51.3,7.4
			c1-0.1,1.4-1.1,1.2-1.9c-0.2-0.8,0.1-1.6-0.1-2.4C52.3,2.5,52,2.1,51.6,1.7z"/>
	</g>
</g>
</svg>
