<?xml version="1.0" encoding="utf-8"?>
<!-- Generator: Adobe Illustrator 19.2.1, SVG Export Plug-In . SVG Version: 6.00 Build 0)  -->
<svg version="1.1" id="Layer_1" xmlns="http://www.w3.org/2000/svg" xmlns:xlink="http://www.w3.org/1999/xlink" x="0px" y="0px"
	 viewBox="0 0 20 20" style="enable-background:new 0 0 20 20;" xml:space="preserve">
<g>
	<path d="M19.5,4.1v11.9c0,2-1.6,3.6-3.6,3.6h-2.3v-7.4h2.5l0.4-2.9h-2.8V7.4c0-0.8,0.2-1.4,1.4-1.4l1.5,0V3.5
		c-0.3,0-1.2-0.1-2.2-0.1c-2.2,0-3.7,1.3-3.7,3.8v2.1H8.2v2.9h2.5v7.4H4.1c-2,0-3.6-1.6-3.6-3.6V4.1c0-2,1.6-3.6,3.6-3.6h11.9
		C17.9,0.5,19.5,2.1,19.5,4.1z"/>
</g>
</svg>
