<?xml version="1.0" encoding="utf-8"?>
<!-- Generator: Adobe Illustrator 18.0.0, SVG Export Plug-In . SVG Version: 6.00 Build 0)  -->
<!DOCTYPE svg PUBLIC "-//W3C//DTD SVG 1.1//EN" "http://www.w3.org/Graphics/SVG/1.1/DTD/svg11.dtd">
<svg version="1.1" xmlns="http://www.w3.org/2000/svg" xmlns:xlink="http://www.w3.org/1999/xlink" x="0px" y="0px"
	 viewBox="0 0 110.3 10.7" enable-background="new 0 0 110.3 10.7" xml:space="preserve">
<g id="Layer_1">
	<g>
		<g>
			<g>
				<rect x="83.7" y="8.5" fill="#29DBB9" width="21.5" height="2"/>
			</g>
		</g>
		<g>
			<g>
				<path fill="#FFFFFF" d="M5.3,10.7C2.1,10.7,0,8.4,0,5.5c0-2.9,2.2-5.3,5.3-5.3c1.8,0,2.9,0.5,3.9,1.4L8,2.9
					C7.3,2.2,6.5,1.8,5.2,1.8c-1.9,0-3.3,1.6-3.3,3.6c0,2.1,1.4,3.7,3.5,3.7c1,0,1.8-0.3,2.5-0.8V6.4H5.2V4.9h4.3v4.3
					C8.5,10,7.1,10.7,5.3,10.7z"/>
			</g>
			<g>
				<path fill="#FFFFFF" d="M13.4,10.5h-1.8V2.9h1.8v1.7c0.5-1.1,1.4-1.9,2.7-1.9v1.9H16c-1.5,0-2.6,1-2.6,3V10.5z"/>
			</g>
			<g>
				<path fill="#FFFFFF" d="M22,10.5V9.6c-0.5,0.6-1.3,1.1-2.5,1.1c-1.5,0-2.7-0.8-2.7-2.4v0c0-1.7,1.3-2.5,3.1-2.5
					c0.9,0,1.5,0.1,2.1,0.3V6c0-1.1-0.7-1.6-1.9-1.6c-0.9,0-1.5,0.2-2.2,0.5l-0.5-1.4c0.8-0.4,1.7-0.6,2.9-0.6
					c2.3,0,3.4,1.2,3.4,3.2v4.6H22z M22,7.3C21.6,7.1,21,7,20.3,7c-1.1,0-1.8,0.5-1.8,1.2v0c0,0.7,0.7,1.1,1.5,1.1
					c1.2,0,2-0.7,2-1.6V7.3z"/>
			</g>
			<g>
				<path fill="#FFFFFF" d="M29.4,10.7c-2.3,0-4-1.8-4-4s1.7-4,4-4c1.5,0,2.4,0.5,3.1,1.3l-1.1,1.2c-0.5-0.6-1.1-1-2-1
					c-1.3,0-2.2,1.1-2.2,2.5c0,1.4,0.9,2.5,2.3,2.5c0.8,0,1.4-0.4,2-1l1.1,1C31.8,10.1,30.9,10.7,29.4,10.7z"/>
			</g>
			<g>
				<path fill="#FFFFFF" d="M34.2,1.7V0h1.9v1.7H34.2z M34.2,10.5V2.9H36v7.7H34.2z"/>
			</g>
			<g>
				<path fill="#FFFFFF" d="M43,10.5V9.6c-0.5,0.6-1.3,1.1-2.5,1.1c-1.5,0-2.7-0.8-2.7-2.4v0c0-1.7,1.3-2.5,3.1-2.5
					c0.9,0,1.5,0.1,2.1,0.3V6c0-1.1-0.7-1.6-1.9-1.6c-0.9,0-1.5,0.2-2.2,0.5l-0.5-1.4c0.8-0.4,1.7-0.6,2.9-0.6
					c2.3,0,3.4,1.2,3.4,3.2v4.6H43z M43,7.3C42.6,7.1,42,7,41.3,7c-1.1,0-1.8,0.5-1.8,1.2v0c0,0.7,0.7,1.1,1.5,1.1
					c1.2,0,2-0.7,2-1.6V7.3z"/>
			</g>
			<g>
				<path fill="#FFFFFF" d="M49.5,10.7c-1.1,0-2.3-0.4-3.3-1.2L47,8.3c0.8,0.6,1.7,0.9,2.5,0.9c0.8,0,1.2-0.3,1.2-0.8v0
					c0-0.6-0.8-0.8-1.7-1.1c-1.1-0.3-2.4-0.8-2.4-2.3v0c0-1.5,1.2-2.3,2.7-2.3c1,0,2,0.3,2.8,0.9l-0.7,1.3c-0.7-0.5-1.5-0.7-2.2-0.7
					c-0.7,0-1.1,0.3-1.1,0.8v0c0,0.6,0.8,0.8,1.7,1.1c1.1,0.4,2.4,0.9,2.4,2.2v0C52.3,9.9,51.1,10.7,49.5,10.7z"/>
			</g>
			<g>
				<path fill="#FFFFFF" d="M63.2,10.5V9.6c-0.5,0.6-1.3,1.1-2.5,1.1c-1.5,0-2.7-0.8-2.7-2.4v0c0-1.7,1.3-2.5,3.1-2.5
					c0.9,0,1.5,0.1,2.1,0.3V6c0-1.1-0.7-1.6-1.9-1.6c-0.9,0-1.5,0.2-2.2,0.5l-0.5-1.4c0.8-0.4,1.7-0.6,2.9-0.6
					c2.3,0,3.4,1.2,3.4,3.2v4.6H63.2z M63.2,7.3C62.8,7.1,62.1,7,61.4,7c-1.1,0-1.8,0.5-1.8,1.2v0c0,0.7,0.7,1.1,1.5,1.1
					c1.2,0,2-0.7,2-1.6V7.3z"/>
			</g>
			<g>
				<path fill="#FFFFFF" d="M73.5,8.1c0,0.7,0.3,1,0.9,1c0.4,0,0.7-0.1,1.1-0.3v1.4c-0.4,0.2-0.9,0.4-1.6,0.4
					c-1.3,0-2.2-0.6-2.2-2.3v-4h-1V2.9h1V0.7h1.8v2.1h2.1v1.5h-2.1V8.1z"/>
			</g>
			<g>
				<path fill="#FFFFFF" d="M77.3,1.7V0h1.9v1.7H77.3z M77.4,10.5V2.9h1.8v7.7H77.4z"/>
			</g>
			<g>
				<path fill="#FFFFFF" d="M108.4,10.5v-2h1.9v2H108.4z"/>
			</g>
		</g>
	</g>
</g>
<g id="Layer_2" display="none">
</g>
</svg>
