<?xml version="1.0" encoding="utf-8"?>
<!-- Generator: Adobe Illustrator 18.0.0, SVG Export Plug-In . SVG Version: 6.00 Build 0)  -->
<!DOCTYPE svg PUBLIC "-//W3C//DTD SVG 1.1//EN" "http://www.w3.org/Graphics/SVG/1.1/DTD/svg11.dtd">
<svg version="1.1" xmlns="http://www.w3.org/2000/svg" xmlns:xlink="http://www.w3.org/1999/xlink" x="0px" y="0px"
	 viewBox="0 0 84.7 40" enable-background="new 0 0 84.7 40" xml:space="preserve">
<g id="Layer_1">
	<g id="XMLID_473_">
		<g>
			<g id="XMLID_181_">
				<path id="XMLID_196_" fill="#FFFFFF" d="M25.9,30c2.6,0,4.4,1.3,4.4,2.6c0,0.9-0.6,1.4-1.4,1.4c-1,0-1.4-1.3-2.7-1.3
					c-1.5,0-1.9,1.3-1.9,2.3c0,1.2,0.4,2.5,1.7,2.5c1.3,0,1.8-1.3,2.9-1.3c0.9,0,1.4,0.7,1.4,1.4c0,0.8-1.1,2.6-4.4,2.6
					c-3,0-5.4-1.6-5.4-5C20.6,31.5,22.9,30,25.9,30z"/>
				<path id="XMLID_193_" fill="#FFFFFF" d="M32,31.9c0-1.3,0.8-1.9,1.9-1.9s1.9,0.6,1.9,1.9v6.3c0,1.3-0.8,1.9-1.9,1.9
					S32,39.5,32,38.2V31.9z M33.9,25.7c1,0,1.8,0.8,1.8,1.8s-0.8,1.8-1.8,1.8c-1,0-1.8-0.8-1.8-1.8S32.9,25.7,33.9,25.7z"/>
				<path id="XMLID_191_" fill="#FFFFFF" d="M44.3,31.9c0-1.3,0.8-1.9,1.9-1.9s1.9,0.6,1.9,1.9v6.4c0,1.2-0.6,1.8-1.8,1.8
					c-1.1,0-1.6-0.6-1.7-1.8h0c-0.6,1.1-1.7,1.8-3.1,1.8c-2.6,0-3.7-1.6-3.7-3.7v-4.5c0-1.3,0.8-1.9,1.9-1.9c1.1,0,1.9,0.6,1.9,1.9
					v3.6c0,1,0.5,1.6,1.4,1.6c0.9,0,1.4-0.7,1.4-1.9V31.9z"/>
				<path id="XMLID_188_" fill="#FFFFFF" d="M56.6,28.3c0-1.3,0.7-1.9,1.8-1.9c1.2,0,1.8,0.6,1.8,1.9v9.9c0,1.2-0.5,1.8-1.7,1.8
					c-1.1,0-1.6-0.8-1.6-1.7h0C56.6,39.5,55.1,40,54,40c-2.6,0-4.3-2-4.3-5.1c0-1.9,1-5,4.2-5c1.2,0,2.1,0.6,2.7,1.5h0V28.3z
					 M55.2,33c-1.3,0-1.7,1.1-1.7,2.2c0,1,0.3,2.2,1.6,2.2c1.1,0,1.5-0.9,1.5-2.3C56.6,33.7,56,33,55.2,33z"/>
				<path id="XMLID_185_" fill="#FFFFFF" d="M72.5,37c0,0.7,0.1,1.2,0.1,1.7c0,0.9-0.9,1.3-1.8,1.3c-1.3,0-1.8-0.7-1.9-1.5
					c-0.7,1.1-2.1,1.5-3.4,1.5c-2.1,0-3.6-0.9-3.6-3c0-1.6,1.1-2.8,4.9-3c1.4-0.1,2-0.3,2-0.9c0-0.6-0.5-0.9-1.5-0.9
					c-1.6,0-2,1.3-3.3,1.3c-0.8,0-1.2-0.4-1.2-1.2c0-1.4,2-2.3,4.6-2.3c2,0,5.1,0.5,5.1,2.8V37z M68.8,35.5
					c-0.5,0.6-1.8,0.5-2.4,0.7c-0.3,0.1-0.5,0.4-0.5,0.8c0,0.6,0.5,0.9,1.2,0.9c1.1,0,1.8-0.7,1.8-1.4V35.5z"/>
				<path id="XMLID_182_" fill="#FFFFFF" d="M81,28.3c0-1.3,0.7-1.9,1.8-1.9c1.2,0,1.8,0.6,1.8,1.9v9.9c0,1.2-0.5,1.8-1.7,1.8
					c-1.1,0-1.6-0.8-1.6-1.7h0C81,39.5,79.5,40,78.4,40c-2.6,0-4.3-2-4.3-5.1c0-1.9,1-5,4.2-5c1.2,0,2.1,0.6,2.7,1.5h0V28.3z
					 M79.6,33c-1.3,0-1.7,1.1-1.7,2.2c0,1,0.3,2.2,1.6,2.2c1.1,0,1.5-0.9,1.5-2.3C81,33.7,80.4,33,79.6,33z"/>
			</g>
			<g id="XMLID_175_">
				<path id="XMLID_180_" fill="#FFFFFF" d="M51.8,21.3c-0.2,0.1-0.4,0.3-0.7,0.4c-0.3,0.1-0.5,0.3-0.8,0.4
					c-0.6,0.3-1.3,0.4-1.9,0.5c-0.7,0.1-1.4,0-2.1-0.3c-0.7-0.2-1.4-0.6-2.1-1.2c-0.7-0.5-1.3-1.2-1.9-2c-0.3-0.4-0.6-0.8-0.8-1.2
					c-0.1-0.2-0.3-0.4-0.4-0.7c0-0.1-0.1-0.2-0.1-0.2l-0.2-0.5c-0.2-0.5-0.5-1-0.7-1.5l-0.8-1.7c-0.3-0.6-0.6-1.2-0.8-1.7
					c-0.2-0.3-0.3-0.6-0.4-0.9l-0.2-0.4l-0.1-0.3c-0.1-0.2-0.2-0.4-0.3-0.5l-0.2-0.3l0.4-0.1c0.1,0,0.1,0,0.2,0c0.1,0,0.2,0,0.3-0.1
					L38.4,9c0.1,0,0.1,0,0.2-0.1c0.4-0.1,0.7-0.2,0.9-0.4c0.1-0.1,0.2-0.2,0.3-0.3c0,0,0,0,0,0c0,0,0,0,0,0L39.9,8c0,0,0,0,0-0.1
					l0,0c0,0,0-0.1,0-0.1c0.1-0.3,0.1-0.5,0.1-0.9c0-0.5-0.3-4-0.8-4c-0.5,0-0.5,3.7-1,4C37.9,7.1,35.8,7,35.8,7l-0.1-0.2
					c-0.2-0.4-0.4-0.9-0.7-1.3c-0.3-0.7-0.7-1.4-1.1-2c-0.2-0.3-0.3-0.6-0.5-0.8c0-0.1-0.1-0.1-0.1-0.2c0-0.1-0.1-0.1-0.1-0.2
					l-0.1-0.2c0,0,0-0.1-0.1-0.1c0,0,0,0,0-0.1L33,1.5c-0.1-0.1-0.1-0.2-0.2-0.3c-0.1-0.2-0.3-0.4-0.5-0.5c-0.2-0.1-0.4-0.3-0.6-0.4
					c-0.1,0-0.2-0.1-0.3-0.1l0,0c-0.1,0-0.2,0-0.3,0c0,0-0.1,0-0.1,0l-0.5-0.1c0,0-0.1,0-0.1,0l-0.2,0c-0.1,0-0.2,0-0.4,0
					C28.8,0,27.8,0,27,0.1c-0.8,0.1-1.5,0.3-2,0.6c-0.4,0.3-0.6,0.6-0.6,0.9c0,0.4,0.2,0.7,0.7,0.9c0.4,0.3,1,0.4,1.9,0.6
					c0.7,0.1,1.6,0.2,2.8,0.3l0.4,0c0.1,0,0.3,0,0.5,0.3L30.7,4c0.1,0.1,0.1,0.2,0.2,0.3c0.1,0.2,0.2,0.3,0.4,0.5l0.2,0.3l-0.4,0.1
					c-0.2,0.1-0.3,0.1-0.5,0.2c-0.4,0.2-0.8,0.5-1.1,0.8c-0.3,0.3-0.7,0.7-1.1,1.3c-0.3,0.4-0.6,0.9-1.1,1.5
					c-0.2,0.3-0.3,0.5-0.5,0.8c-0.1,0.1-0.1,0.2-0.2,0.3l-0.2,0.4l-1.1,1.7c-0.4,0.6-0.7,1.1-1.1,1.6c-0.2,0.3-0.4,0.5-0.5,0.8
					l-0.1,0.1l-0.1,0.1l-0.1,0c0,0,0,0,0,0l0,0c0,0-0.1,0-0.1,0l0,0l-0.1-0.1l-1.3-1.9c-0.1-0.1-0.1-0.2-0.2-0.3
					c-0.1-0.1-0.1-0.2-0.2-0.3c-0.1-0.1-0.1-0.2-0.2-0.3c-0.3-0.4-0.5-0.8-0.8-1.1c-0.3-0.4-0.6-0.7-0.8-1c-0.3-0.3-0.6-0.6-0.9-0.8
					c-0.3-0.2-0.6-0.4-0.9-0.5c-0.3-0.1-0.6-0.2-0.9-0.3c0,0-0.1,0-0.1,0l0,0c0,0,0,0-0.1,0c0,0,0,0,0,0c0,0,0,0-0.1,0l-0.3,0
					l-0.1,0c0,0-0.1,0-0.1,0c-0.1,0-0.1,0-0.2,0L15.8,8l-0.1,0c0,0,0,0-0.1,0c0,0,0,0-0.1,0c0,0-0.1,0-0.1,0l-0.1,0l-0.1,0
					c-0.1,0-0.1,0-0.1,0.1c0,0-0.1,0-0.1,0l0,0c-0.1,0-0.1,0.1-0.2,0.1c-0.2,0.1-0.3,0.2-0.4,0.3c-0.5,0.3-1.1,0.8-1.7,1.5
					c-0.1,0.1-0.2,0.2-0.3,0.4l-0.1,0.2c-0.1,0.1-0.2,0.2-0.3,0.4c-0.2,0.3-0.4,0.6-0.7,0.9l0,0c-0.1,0.1-0.2,0.3-0.3,0.4l-0.2,0.3
					c-0.1,0.2-0.2,0.4-0.3,0.5c-0.4,0.7-0.7,1.3-1,2c-0.3,0.6-0.5,1.2-0.7,1.7c-0.4,1.1-0.6,1.9-0.6,2.6c0,0.6,0.1,1,0.5,1.3
					C8.7,21,8.8,21,9,21c0.2,0,0.5-0.1,0.8-0.2c0.6-0.3,1.3-0.8,2.2-1.6c0.4-0.4,0.8-0.8,1.3-1.3c0.5-0.5,1-1,1.5-1.5
					c0,0,0,0,0.1-0.1c0.4-0.4,0.6-0.6,0.9-0.6c0.3,0,0.5,0.3,0.7,0.6l0.4,0.6c0.2,0.3,0.5,0.8,0.8,1.3c0.1,0.1,0.2,0.3,0.3,0.4
					l0.1,0.1c0.1,0.1,0.1,0.2,0.2,0.3c0,0,0.1,0.1,0.1,0.1c0,0.1,0.1,0.1,0.1,0.2c0.3,0.4,0.6,0.8,0.9,1.2c0.3,0.4,0.6,0.7,0.9,1
					l0.1,0.1c0,0,0.1,0.1,0.1,0.1l0.1,0.1c0,0,0.1,0.1,0.1,0.1c0.2,0.1,0.3,0.3,0.5,0.4l0,0c0.1,0,0.1,0.1,0.2,0.1l0.1,0.1l0.1,0.1
					c0.1,0,0.1,0.1,0.2,0.1c0,0,0.1,0,0.1,0c0,0,0,0,0.1,0c0,0,0,0,0.1,0l0,0c0,0,0.1,0,0.1,0l0.1,0c0,0,0.1,0,0.1,0c0,0,0,0,0.1,0
					c0,0,0.1,0,0.1,0c0,0,0,0,0.1,0c0,0,0.1,0,0.1,0l0.1,0c0,0,0.1,0,0.1,0l0.5,0l0.1,0c0,0,0,0,0.1,0l0.2,0c0.1,0,0.2,0,0.4,0
					c0.2,0,0.4-0.1,0.7-0.2c0.4-0.1,0.9-0.4,1.3-0.7c0.4-0.3,0.8-0.7,1.2-1.1c0.4-0.4,0.7-0.9,1.1-1.5c0.2-0.2,0.3-0.5,0.5-0.8
					l0.5-0.7c0.2-0.3,0.3-0.6,0.5-0.9c0.3-0.5,0.6-1.1,1-1.7c0.1-0.1,0.1-0.2,0.2-0.4c1-1.9,1.3-2.2,1.6-2.2c0.2,0,0.4,0.2,1.1,1.2
					c0.1,0.1,0.1,0.2,0.1,0.2c0.4,0.5,0.7,1,1,1.5l1,1.5c0.3,0.5,0.7,1,1,1.5c0.1,0.1,0.2,0.3,0.3,0.4l0.1,0.1
					c0.1,0.1,0.1,0.2,0.2,0.3c0.2,0.3,0.4,0.6,0.6,0.8c0.4,0.5,0.9,1,1.3,1.4c1,0.9,2,1.6,3,2.2c0.6,0.3,1.1,0.5,1.6,0.7
					c0.1,0,0.2,0.1,0.3,0.1l0.1,0l0.1,0c0.1,0,0.2,0.1,0.3,0.1c0.3,0.1,0.5,0.1,0.8,0.1c0.2,0,0.5,0,0.8,0l0.4,0l0.3,0l0.2,0
					c0.1,0,0.1,0,0.2,0l0.2,0l0.2,0c0.1,0,0.1,0,0.2,0l0.2,0c0,0,0.1,0,0.1,0l0.1,0c0.1,0,0.2-0.1,0.3-0.1l0,0
					c0.4-0.1,0.8-0.3,1.2-0.6c0.3-0.2,0.7-0.4,1-0.7c0.3-0.2,0.5-0.5,0.8-0.7c0.2-0.2,0.4-0.5,0.6-0.7c0.3-0.4,0.5-0.8,0.7-1.2
					c0.2-0.3,0.2-0.6,0.3-0.7c-0.2,0.1-0.4,0.3-0.6,0.4C52.6,20.7,52.2,21,51.8,21.3z"/>
				<path id="XMLID_179_" fill="#FFFFFF" d="M11,6.4c0.1,0.1,0.3,0.1,0.5,0.2c0.4,0.1,0.9,0.2,1.4,0.2c0.4,0,0.9,0,1.4-0.1
					c1-0.1,2.1-0.4,2.9-0.7c0.7-0.2,1-0.4,1.1-0.5c-0.1-0.1-0.4-0.3-1.1-0.5c-0.9-0.3-1.9-0.6-2.9-0.7c-0.6-0.1-1.1-0.1-1.6-0.1
					c-0.5,0-0.9,0-1.2,0.1c-0.2,0-0.4,0.1-0.5,0.2c-0.1,0.1-0.3,0.2-0.4,0.2c-0.2,0.2-0.3,0.4-0.3,0.8c0,0.3,0.1,0.6,0.3,0.8
					C10.7,6.2,10.8,6.3,11,6.4z"/>
				<path id="XMLID_178_" fill="#FFFFFF" d="M47.4,19.7c0.9,0,1.7-0.6,2.2-1.7c0.5-1,0.7-2.5,0.7-4.1c0-3.4-1.1-7-2.8-7
					c-1.7,0-2.9,3.8-2.9,7.2c0,1.6,0.2,3,0.7,4C45.8,19.2,46.5,19.7,47.4,19.7z"/>
				<circle id="XMLID_177_" fill="#FFFFFF" cx="47.4" cy="3.3" r="1.6"/>
				<path id="XMLID_176_" fill="#FFFFFF" d="M15.8,21.6c-0.2-0.3-0.4-0.3-0.5-0.3c-0.2,0-0.4,0.1-0.6,0.3c-0.2,0.2-0.4,0.4-0.6,0.8
					l-0.1,0.1c-0.2,0.3-0.4,0.6-0.7,1c-0.3,0.4-0.7,0.8-1.1,1.2c-0.5,0.4-1,0.7-1.5,1c-0.6,0.3-1.3,0.4-1.9,0.5c-0.3,0-0.7,0-1.1,0
					C7.4,26,7,26,6.7,25.8c-0.7-0.2-1.4-0.6-1.9-1.1c-0.6-0.5-1.1-1.1-1.4-1.8C3.2,22.6,3,22.2,3,21.8c-0.1-0.4-0.1-0.8-0.2-1.2
					c0-0.8,0.1-1.5,0.4-2.2c0.2-0.7,0.6-1.3,1.1-1.9c0.4-0.5,0.9-0.9,1.4-1.3C6,15,6.5,14.7,7,14.5c0.2-0.1,0.4-0.2,0.6-0.3
					c0.1,0,0.2-0.1,0.3-0.1c-0.2,0-0.5-0.1-1-0.1c-0.5,0-1.1,0.1-1.7,0.3c-0.7,0.2-1.4,0.6-2.1,1c-0.8,0.5-1.4,1.3-1.9,2
					c-0.3,0.4-0.5,0.9-0.7,1.4c-0.2,0.5-0.3,1.1-0.4,1.6C0,21,0,21.6,0,22.2c0,0.6,0.1,1.2,0.3,1.8c0.4,1.2,1,2.3,1.9,3.3
					c0.9,0.9,2,1.7,3.2,2.1c0.6,0.2,1.2,0.4,1.8,0.5C7.8,30,8.5,30,9.1,29.9c0.6,0,1.2-0.2,1.8-0.3c0.6-0.2,1.1-0.4,1.6-0.7
					c0.9-0.5,1.7-1.2,2.4-2c0.5-0.7,1-1.5,1.2-2.3c0.2-0.8,0.3-1.5,0.2-1.9C16.2,22.3,16,21.9,15.8,21.6z"/>
			</g>
		</g>
	</g>
</g>
<g id="Layer_2">
</g>
</svg>
