<?xml version="1.0" encoding="utf-8"?>
<!-- Generator: Adobe Illustrator 18.0.0, SVG Export Plug-In . SVG Version: 6.00 Build 0)  -->
<!DOCTYPE svg PUBLIC "-//W3C//DTD SVG 1.1//EN" "http://www.w3.org/Graphics/SVG/1.1/DTD/svg11.dtd">
<svg version="1.1" xmlns="http://www.w3.org/2000/svg" xmlns:xlink="http://www.w3.org/1999/xlink" x="0px" y="0px"
	 viewBox="0 0 106.1 59.6" enable-background="new 0 0 106.1 59.6" xml:space="preserve">
<g id="Layer_1">
	<g>
		<g id="XMLID_149_">
			<g id="XMLID_160_">
				<path fill="#FFFFFF" d="M40.7,29.7c0.2,0.1,0.4,0.3,0.6,0.4c0.4,0.4,0.4,0.9,0,1.2c-0.3,0.3-0.9,0.3-1.2,0
					c-0.7-0.7-1.5-1.4-2.2-2.2c-0.4-0.4-0.4-0.9,0-1.3c0.7-0.7,1.4-1.4,2.1-2.1c0.4-0.4,1-0.4,1.3,0c0.3,0.3,0.3,0.9-0.1,1.3
					c-0.1,0.1-0.2,0.3-0.4,0.5c1.1,0,2,0,3,0c0.3,0,0.6,0,0.9,0c0.9,0,1.3,0.3,1.5,1.5c0.9-1,2-1.7,3.4-1.7c1.4,0,2.5,0.6,3.1,2
					c0.1-0.2,0.2-0.3,0.3-0.4c1.1-1.4,3-1.9,4.7-1.4c1.4,0.4,2,1.5,2.2,2.9c0.1,1.3,0.1,2.6,0.1,3.9c0,0.3,0,0.5,0,0.8
					c0,0.3-0.1,0.8,0.1,1c0.1,0.2,0.6,0.1,0.9,0.2c0.1,0,0.3,0.2,0.3,0.3c0,0.5,0,1,0,1.4c0,0.1-0.2,0.3-0.4,0.3c-0.6,0-1.3,0-1.9,0
					c-1,0-1.4-0.5-1.4-1.4c0-1.7,0-3.3,0-5c0-0.3,0-0.6-0.1-0.9c-0.2-1.3-1-1.8-2.2-1.4c-1.2,0.4-1.8,1.3-2.1,2.5
					c-0.1,0.5-0.1,1-0.1,1.5c0,1.4,0,2.8,0,4.2c0,0.4-0.1,0.5-0.5,0.5c-0.4,0-0.9,0-1.3,0c-0.4,0-0.5-0.1-0.5-0.5c0-2,0-4,0-6
					c0-0.3,0-0.6-0.1-0.8c-0.2-1.3-1-1.8-2.2-1.4c-1.2,0.4-2.1,1.7-2.2,3.2c-0.1,1.5,0,3.1,0,4.6c0,1,0.1,0.9-0.9,0.9
					c-0.3,0-0.6,0-0.9,0c-0.4,0-0.5-0.1-0.5-0.5c0-2.5,0-4.9,0-7.4c0-0.7,0-0.7-0.7-0.7c-0.8,0-1.5,0-2.3,0
					C40.8,29.6,40.7,29.7,40.7,29.7z"/>
			</g>
			<g id="XMLID_157_">
				<path fill="#FFFFFF" d="M70.9,28.5c1.2-1.2,2.6-1.4,4.1-1.2c1.8,0.3,2.9,1.5,3.4,3.1c0.5,1.6,0.5,3.2,0,4.7
					c-1.2,3.6-5.6,4.1-7.4,2.1c0,0-0.1,0-0.1,0c0,0-0.1,0-0.1,0.1c-0.1,0.9,0,0.9-1,0.9c-1.3,0-1.3,0-1.3-1.3c0-3.6,0-7.2,0-10.8
					c0-0.7,0-0.7-0.6-0.7c-0.6,0-0.7,0-0.6-0.7c0-0.4-0.1-1.1,0.1-1.3c0.3-0.2,0.9-0.1,1.3-0.1c0.2,0,0.5,0,0.7,0
					c1,0,1.5,0.4,1.5,1.5c0,1,0,2.1,0,3.1C70.9,28.1,70.9,28.2,70.9,28.5z M76.4,32.5c-0.1-0.3-0.2-1-0.4-1.6
					c-0.4-1-1.2-1.5-2.2-1.6c-1.1,0-2,0.4-2.5,1.4c-0.7,1.5-0.7,3,0.2,4.4c0.8,1.4,2.8,1.6,3.9,0.5C76.2,34.8,76.3,33.9,76.4,32.5z"
					/>
			</g>
			<g id="XMLID_156_">
				<path fill="#FFFFFF" d="M85.6,32.8c-0.1-3.2,2.4-5.5,5.5-5.5c0.9,0,1.7,0.1,2.5,0.5c1.3,0.5,1.8,1.5,1.4,2.9
					c0,0.1-0.2,0.2-0.3,0.3c-0.3,0-0.5,0-0.8,0c-0.8,0-0.7,0-0.9-0.7c-0.1-0.3-0.4-0.6-0.7-0.7c-1.4-0.6-3.1,0-3.9,1.3
					c-0.8,1.3-0.8,2.6-0.1,3.9c0.7,1.3,1.9,1.8,3.3,1.7c1,0,1.9-0.5,2.7-1.2c0.3-0.2,0.4-0.2,0.6,0.1c0.2,0.3,0.3,0.6,0.5,0.8
					c0.2,0.3,0.1,0.5-0.1,0.7c-2.4,2.3-6.7,2-8.7-0.6C85.9,35.3,85.6,34.1,85.6,32.8z"/>
			</g>
			<g id="XMLID_155_">
				<path fill="#FFFFFF" d="M59.6,27.5c1.5,0,3,0,4.5,0c0.8,0,1.3,0.5,1.3,1.4c0,2.2,0,4.3,0,6.5c0,0.7,0,0.7,0.7,0.7
					c0.5,0,1.1,0,1.6,0c0,0.1,0,0.2,0,0.2c0,0.6,0,1.2,0,1.8c-1.2,0-2.4,0-3.6,0c-0.7,0-1-0.4-1.1-1c0-0.2-0.1-0.5-0.1-0.7
					c0-2.1,0-4.2,0-6.3c0-0.4-0.1-0.6-0.6-0.6c-0.5,0-1.1,0-1.6,0c-0.1,0-0.3-0.1-0.4-0.2C60.2,28.7,60,28.1,59.6,27.5z"/>
			</g>
			<g id="XMLID_154_">
				<path fill="#FFFFFF" d="M63.1,25.8c0-0.8,0-1.4,0-2.1c0-0.1,0.2-0.2,0.3-0.3c0.1,0,0.2,0,0.2,0c0.5,0,1,0.1,1.5,0.1
					c0,0.7,0,1.4,0,2.1c0,0.1-0.2,0.2-0.2,0.2C64.4,25.8,63.8,25.8,63.1,25.8z"/>
			</g>
			<g id="XMLID_153_">
				<path fill="#FFFFFF" d="M87.8,38.2c-0.7-0.5-1.8-1.3-2.1-1.9c0-0.1-0.1-0.2-0.2-0.2c0,0,0,0,0,0c0,0,0,0-0.1,0c0,0,0,0,0,0
					c-0.5,0-1.1,0-1.6,0c-0.4,0-0.6-0.1-0.6-0.6c0-2.1,0-4.2,0-6.3c0-0.2,0-0.5-0.1-0.7c-0.1-0.6-0.4-1-1-1c-0.1,0-0.2,0-0.2,0
					c-0.2,0-0.4,0-0.5,0c-0.3,0-0.7,0-1,0c-1,0-1.9,0-2.9,0c0.3,0.6,0.6,1.2,0.9,1.8c0,0.1,0.1,0.2,0.2,0.2c0,0,0,0,0,0
					c0,0,0,0,0.1,0c0,0,0,0,0,0c0.5,0,1.1,0,1.6,0c0.4,0,0.6,0.1,0.6,0.6c0,2.1,0,4.2,0,6.3c0,0.2,0,0.5,0.1,0.7c0.1,0.6,0.4,1,1,1
					c0.1,0,0.2,0,0.2,0C83.7,38.2,86.4,38.2,87.8,38.2z"/>
			</g>
			<g id="XMLID_152_">
				<path fill="#FFFFFF" d="M80.9,25.8c0-0.8,0-1.4,0-2.1c0-0.1,0.2-0.2,0.3-0.3c0.1,0,0.2,0,0.2,0c0.5,0,1,0.1,1.5,0.1
					c0,0.7,0,1.4,0,2.1c0,0.1-0.2,0.2-0.2,0.2C82.2,25.8,81.6,25.8,80.9,25.8z"/>
			</g>
			<g id="XMLID_151_">
				<path fill="#FFFFFF" d="M97.6,25.8c0-0.8,0-1.4,0-2.1c0-0.1,0.2-0.2,0.3-0.3c0.1,0,0.2,0,0.2,0c0.5,0,1,0.1,1.5,0.1
					c0,0.7,0,1.4,0,2.1c0,0.1-0.2,0.2-0.2,0.2C98.8,25.8,98.2,25.8,97.6,25.8z"/>
			</g>
			<g id="XMLID_150_">
				<path fill="#FFFFFF" d="M105.8,36.6l-2.5-2.4c-0.3-0.3-0.9-0.3-1.2,0c-0.3,0.3-0.3,0.9,0,1.2l0.8,0.8h-0.8c0,0-1.2-0.1-1.7,0
					c-0.4,0-0.6-0.1-0.6-0.6c0-2.1,0-4.2,0-6.3c0-0.2,0-0.5-0.1-0.7c-0.1-0.6-0.4-1-1-1c-0.1,0-0.2,0-0.2,0c-0.2,0-0.4,0-0.5,0
					c-0.3,0-0.7,0-1,0c-0.9,0-1.7,0-2.6,0v0.1c0.4,0.1,1.2,0.6,1.4,2c0.4,0,0.7,0,1.1,0c0.4,0,0.6,0.1,0.6,0.6c0,2.1,0,4.2,0,6.3
					c0,0.2,0,0.5,0.1,0.7c0.1,0.6,0.4,1,1,1c0.1,0,0.2,0,0.2,0c0.4,0,0.8,0,1.3,0c0.2,0,0.4,0.1,0.6,0.1h2.4l-0.8,0.8
					c-0.3,0.3-0.3,0.9,0,1.2c0.2,0.2,0.4,0.2,0.6,0.2c0.2,0,0.5-0.1,0.6-0.3l2.3-2.4C106.2,37.4,106.2,36.9,105.8,36.6z"/>
			</g>
		</g>
		<g>
			<g>
				<g>
					<path fill="#FFFFFF" d="M18.9,59.6c-5.8,0-10.4-1.5-13.7-4.3c-1.5-1.3-2.7-2.9-3.5-4.8c-0.8-1.7-1.3-3.6-1.5-5.7L0,43.5l13.9,0
						l0.2,1c0.2,1.1,0.8,2.2,1.7,2.9c0.9,0.8,2,1.2,3.2,1.2c2.7,0,4.9-2.2,4.9-4.9h2.4c0,4-3.3,7.3-7.3,7.3c-1.7,0-3.4-0.6-4.7-1.8
						c-1-0.9-1.8-2.1-2.2-3.4l-9.3,0c0.2,1.3,0.6,2.6,1.1,3.7c0.7,1.5,1.7,2.9,2.9,4c2.8,2.5,6.9,3.7,12.1,3.7
						c2.4,0,4.7-0.4,6.8-1.1c2-0.7,3.7-1.7,5.2-3c2.9-2.5,4.4-6,4.4-9.7c0-5.9-4.5-10.9-10.7-12.8l-9.7,8.9L6.8,31l1.3-0.8
						c3.2-1.9,6.9-2.9,10.8-2.9c1.8,0,3.5,0.2,5.1,0.6l7.6-7v-8.7H4.9v7.3h17.3V22H2.5v-12h31.4V22l-7.4,6.8c2,0.8,3.9,1.9,5.5,3.2
						c1.7,1.5,3.1,3.2,4.1,5.1c1,2,1.5,4.1,1.5,6.3c0,4.4-1.9,8.5-5.2,11.5c-1.7,1.5-3.7,2.7-5.9,3.5C24.1,59.2,21.6,59.6,18.9,59.6
						z M10.6,31.6l4.4,4.6l6.8-6.2c-1-0.1-1.9-0.2-2.9-0.2C15.9,29.7,13.1,30.4,10.6,31.6z"/>
				</g>
			</g>
			<g>
				<g>
					<path fill="#FFFFFF" d="M6.4,6.5L6,5.4H4l-0.4,1h-1l2-4.7h0.9l2,4.7H6.4z M5,3L4.3,4.5h1.2L5,3z"/>
					<path fill="#FFFFFF" d="M15.3,6.5l-2.3-3v3h-1V1.8h0.9l2.2,2.9V1.8h1v4.7H15.3z"/>
					<path fill="#FFFFFF" d="M23.4,6.6c-1.4,0-2.5-1.1-2.5-2.4v0c0-1.3,1-2.4,2.5-2.4c1.4,0,2.5,1.1,2.5,2.4v0
						C25.9,5.5,24.8,6.6,23.4,6.6z M24.8,4.1c0-0.8-0.6-1.5-1.4-1.5S22,3.3,22,4.1v0c0,0.8,0.6,1.5,1.4,1.5
						C24.2,5.6,24.8,4.9,24.8,4.1L24.8,4.1z"/>
					<path fill="#FFFFFF" d="M32.2,6.5c-0.7,0-1.4-0.2-2-0.7l0.6-0.7c0.4,0.3,0.9,0.6,1.4,0.6c0.4,0,0.7-0.2,0.7-0.4v0
						c0-0.3-0.2-0.4-0.9-0.6c-0.9-0.2-1.6-0.5-1.6-1.4v0c0-0.8,0.7-1.4,1.6-1.4c0.7,0,1.3,0.2,1.7,0.6l-0.5,0.8
						c-0.4-0.3-0.8-0.5-1.2-0.5c-0.4,0-0.6,0.2-0.6,0.4v0c0,0.3,0.2,0.4,1,0.6c0.9,0.2,1.5,0.6,1.5,1.4v0C33.9,6,33.2,6.5,32.2,6.5z
						"/>
				</g>
				<g>
					<g>
						<rect x="12" y="0" fill="#FFFFFF" width="3.2" height="0.9"/>
					</g>
				</g>
			</g>
		</g>
	</g>
</g>
<g id="Layer_2" display="none">
</g>
</svg>
