<?xml version="1.0" encoding="utf-8"?>
<!-- Generator: Adobe Illustrator 19.2.0, SVG Export Plug-In . SVG Version: 6.00 Build 0)  -->
<svg version="1.1" id="Capa_1" xmlns="http://www.w3.org/2000/svg" xmlns:xlink="http://www.w3.org/1999/xlink" x="0px" y="0px"
	 viewBox="0 0 108.9 56.4" style="enable-background:new 0 0 108.9 56.4;" xml:space="preserve">
<style type="text/css">
	.st0{fill:#262626;}
</style>
<g>
	<g>
		<polygon class="st0" points="52.1,37 52.1,38.1 51.4,38.7 51.4,37.6 		"/>
	</g>
	<g>
		<polygon class="st0" points="51.4,37.6 51.4,38.7 7.8,37.6 11.4,37.6 		"/>
	</g>
	<g>
		<polygon class="st0" points="55,37 55,38.1 55.7,38.7 55.7,37.6 		"/>
	</g>
	<g>
		<polygon class="st0" points="55.7,37.6 55.7,38.7 108.9,37.6 103.4,37.6 		"/>
	</g>
	<g>
		<g>
			<path class="st0" d="M0,32.5V0h9.3v32.5H0z"/>
			<path class="st0" d="M15.7,32.5V0h13l8.6,20.8L45.4,0h13.3v32.5h-9.1l0-23.1l-9.8,23.1h-6.1l-9.5-23l0,23H15.7z"/>
			<path class="st0" d="M71.9,32.5V6.6H61.2V0h30.3v6.6H80.7v25.9H71.9z"/>
			<path class="st0" d="M100,0h9v20.4c0,2.7-0.2,4.7-0.7,6.2c-0.7,1.7-1.5,3.2-4.2,4.8c-2.1,1.3-3.7,1.8-7.3,1.8
				c-4.2,0-6.9-1.4-9.2-3.2c-1.6-1.3-2.3-2.3-3-4.5l7.7-2.3c0.1,0.4,1.3,2.8,3.8,3c1.8,0.1,2.3-0.2,2.8-0.8c0.8-1,1.1-2.1,1.1-4.7V0
				z"/>
		</g>
		<g>
			<path class="st0" d="M0.4,48.3v-5h0.7v5H0.4z"/>
			<path class="st0" d="M2.2,48.3v-3.5h0.5v0.5C3,45,3.4,44.8,3.9,44.8c0.2,0,0.4,0,0.6,0.1c0.2,0.1,0.3,0.2,0.4,0.3
				c0.1,0.1,0.2,0.3,0.2,0.4c0,0.1,0,0.3,0,0.6v2.1H4.5v-2.1c0-0.2,0-0.4-0.1-0.5c0-0.1-0.1-0.2-0.3-0.3c-0.1-0.1-0.3-0.1-0.4-0.1
				c-0.3,0-0.5,0.1-0.7,0.2c-0.2,0.2-0.3,0.5-0.3,0.9v1.9H2.2z"/>
			<path class="st0" d="M85.5,48.3v-3.5h0.6v0.5c0.3-0.4,0.7-0.6,1.2-0.6c0.2,0,0.4,0,0.6,0.1c0.2,0.1,0.3,0.2,0.4,0.3
				c0.1,0.1,0.2,0.3,0.2,0.4c0,0.1,0,0.3,0,0.6v2.1h-0.6v-2.1c0-0.2,0-0.4-0.1-0.5c0-0.1-0.1-0.2-0.3-0.3c-0.1-0.1-0.3-0.1-0.4-0.1
				c-0.3,0-0.5,0.1-0.7,0.2c-0.2,0.2-0.3,0.5-0.3,0.9v1.9H85.5z"/>
			<path class="st0" d="M5.9,47.3l0.6-0.1c0,0.2,0.1,0.4,0.3,0.5c0.2,0.1,0.4,0.2,0.7,0.2c0.3,0,0.5,0,0.6-0.2
				c0.1-0.1,0.2-0.2,0.2-0.4c0-0.1-0.1-0.2-0.2-0.3C8,47,7.8,46.9,7.4,46.9c-0.5-0.1-0.8-0.2-0.9-0.3c-0.2-0.1-0.3-0.2-0.4-0.3
				C6,46.1,6,46,6,45.8c0-0.2,0-0.3,0.1-0.4c0.1-0.1,0.2-0.2,0.3-0.3c0.1-0.1,0.2-0.1,0.4-0.2c0.2,0,0.3-0.1,0.5-0.1
				c0.3,0,0.5,0,0.7,0.1c0.2,0.1,0.4,0.2,0.5,0.3c0.1,0.1,0.2,0.3,0.2,0.5l-0.6,0.1c0-0.2-0.1-0.3-0.2-0.4c-0.1-0.1-0.3-0.1-0.6-0.1
				c-0.3,0-0.5,0-0.6,0.1c-0.1,0.1-0.2,0.2-0.2,0.3c0,0.1,0,0.1,0.1,0.2c0,0.1,0.1,0.1,0.2,0.2c0.1,0,0.2,0.1,0.5,0.2
				c0.4,0.1,0.7,0.2,0.9,0.3c0.2,0.1,0.3,0.2,0.4,0.3c0.1,0.1,0.1,0.3,0.1,0.5c0,0.2-0.1,0.4-0.2,0.6c-0.1,0.2-0.3,0.3-0.5,0.4
				c-0.2,0.1-0.5,0.1-0.8,0.1c-0.5,0-0.8-0.1-1.1-0.3C6.1,48,5.9,47.7,5.9,47.3z"/>
			<path class="st0" d="M88.9,47.3l0.6-0.1c0,0.2,0.1,0.4,0.3,0.5c0.2,0.1,0.4,0.2,0.6,0.2c0.3,0,0.5,0,0.6-0.2
				c0.1-0.1,0.2-0.2,0.2-0.4c0-0.1-0.1-0.2-0.2-0.3c-0.1-0.1-0.3-0.1-0.6-0.2c-0.5-0.1-0.8-0.2-0.9-0.3c-0.2-0.1-0.3-0.2-0.4-0.3
				C89.1,46.1,89,46,89,45.8c0-0.2,0-0.3,0.1-0.4c0.1-0.1,0.2-0.2,0.3-0.3c0.1-0.1,0.2-0.1,0.4-0.2c0.2,0,0.3-0.1,0.5-0.1
				c0.3,0,0.5,0,0.8,0.1c0.2,0.1,0.4,0.2,0.5,0.3c0.1,0.1,0.2,0.3,0.2,0.5l-0.6,0.1c0-0.2-0.1-0.3-0.2-0.4c-0.1-0.1-0.3-0.1-0.6-0.1
				c-0.3,0-0.5,0-0.6,0.1c-0.1,0.1-0.2,0.2-0.2,0.3c0,0.1,0,0.1,0.1,0.2c0,0.1,0.1,0.1,0.2,0.2c0.1,0,0.2,0.1,0.5,0.2
				c0.4,0.1,0.7,0.2,0.9,0.3c0.2,0.1,0.3,0.2,0.4,0.3c0.1,0.1,0.1,0.3,0.1,0.5c0,0.2-0.1,0.4-0.2,0.6c-0.1,0.2-0.3,0.3-0.5,0.4
				c-0.2,0.1-0.5,0.1-0.8,0.1c-0.5,0-0.8-0.1-1.1-0.3C89.1,48,89,47.7,88.9,47.3z"/>
			<path class="st0" d="M33.7,55.1l0.6-0.1c0,0.2,0.1,0.4,0.3,0.5c0.2,0.1,0.4,0.2,0.6,0.2c0.3,0,0.5-0.1,0.6-0.2
				c0.1-0.1,0.2-0.2,0.2-0.4c0-0.1-0.1-0.2-0.2-0.3c-0.1-0.1-0.3-0.1-0.6-0.2c-0.5-0.1-0.8-0.2-0.9-0.3c-0.2-0.1-0.3-0.2-0.4-0.3
				c-0.1-0.1-0.1-0.3-0.1-0.5c0-0.2,0-0.3,0.1-0.4c0.1-0.1,0.2-0.2,0.3-0.3c0.1-0.1,0.2-0.1,0.4-0.2c0.2,0,0.3-0.1,0.5-0.1
				c0.3,0,0.5,0,0.7,0.1c0.2,0.1,0.4,0.2,0.5,0.3c0.1,0.1,0.2,0.3,0.2,0.5L36,53.6c0-0.2-0.1-0.3-0.2-0.4c-0.1-0.1-0.3-0.2-0.6-0.2
				c-0.3,0-0.5,0-0.6,0.1c-0.1,0.1-0.2,0.2-0.2,0.3c0,0.1,0,0.1,0.1,0.2c0,0.1,0.1,0.1,0.2,0.2c0.1,0,0.2,0.1,0.5,0.1
				c0.4,0.1,0.7,0.2,0.9,0.3c0.2,0.1,0.3,0.2,0.4,0.3c0.1,0.1,0.1,0.3,0.1,0.5c0,0.2-0.1,0.4-0.2,0.6c-0.1,0.2-0.3,0.3-0.5,0.4
				c-0.2,0.1-0.5,0.1-0.8,0.1c-0.5,0-0.8-0.1-1.1-0.3C33.9,55.8,33.8,55.5,33.7,55.1z"/>
			<path class="st0" d="M75,55.1l0.6-0.1c0,0.2,0.1,0.4,0.3,0.5c0.2,0.1,0.4,0.2,0.7,0.2c0.3,0,0.5-0.1,0.6-0.2
				c0.1-0.1,0.2-0.2,0.2-0.4c0-0.1-0.1-0.2-0.2-0.3c-0.1-0.1-0.3-0.1-0.6-0.2c-0.4-0.1-0.8-0.2-0.9-0.3c-0.2-0.1-0.3-0.2-0.4-0.3
				c-0.1-0.1-0.1-0.3-0.1-0.5c0-0.2,0-0.3,0.1-0.4c0.1-0.1,0.2-0.2,0.3-0.3c0.1-0.1,0.2-0.1,0.4-0.2c0.2,0,0.3-0.1,0.5-0.1
				c0.3,0,0.5,0,0.7,0.1c0.2,0.1,0.4,0.2,0.5,0.3c0.1,0.1,0.2,0.3,0.2,0.5l-0.6,0.1c0-0.2-0.1-0.3-0.2-0.4c-0.1-0.1-0.3-0.2-0.6-0.2
				c-0.3,0-0.5,0-0.6,0.1c-0.1,0.1-0.2,0.2-0.2,0.3c0,0.1,0,0.1,0.1,0.2c0,0.1,0.1,0.1,0.2,0.2c0.1,0,0.2,0.1,0.5,0.1
				c0.4,0.1,0.7,0.2,0.9,0.3c0.2,0.1,0.3,0.2,0.4,0.3c0.1,0.1,0.1,0.3,0.1,0.5c0,0.2-0.1,0.4-0.2,0.6c-0.1,0.2-0.3,0.3-0.5,0.4
				c-0.2,0.1-0.5,0.1-0.8,0.1c-0.5,0-0.8-0.1-1.1-0.3C75.2,55.8,75.1,55.5,75,55.1z"/>
			<path class="st0" d="M11,47.8v0.5c-0.2,0-0.2,0.1-0.4,0.1c-0.2,0-0.4,0-0.5-0.1c-0.1-0.1-0.2-0.2-0.3-0.3
				c-0.1-0.1-0.1-0.4-0.1-0.7v-1.8H9.3V45h0.4v-1h0.6v1H11v0.5h-0.6v1.8c0,0.2,0,0.3,0,0.3c0,0.1,0.1,0.1,0.1,0.1c0.1,0,0.1,0,0.2,0
				C10.8,47.8,10.8,47.8,11,47.8z"/>
			<path class="st0" d="M14.6,47.8v0.5c-0.2,0-0.2,0.1-0.4,0.1c-0.2,0-0.4,0-0.5-0.1c-0.1-0.1-0.2-0.2-0.3-0.3
				c0-0.1-0.1-0.4-0.1-0.7v-1.8h-0.5V45h0.5v-1H14v1h0.6v0.5H14v1.8c0,0.2,0,0.3,0,0.3c0,0.1,0.1,0.1,0.1,0.1c0,0,0.1,0,0.2,0
				C14.4,47.8,14.5,47.8,14.6,47.8z"/>
			<path class="st0" d="M20.8,47.8v0.5c-0.2,0-0.2,0.1-0.4,0.1c-0.2,0-0.4,0-0.5-0.1c-0.1-0.1-0.2-0.2-0.3-0.3
				c-0.1-0.1-0.1-0.4-0.1-0.7v-1.8h-0.4V45h0.4v-1h0.6v1h0.6v0.5h-0.6v1.8c0,0.2,0,0.3,0,0.3c0,0.1,0.1,0.1,0.1,0.1
				c0.1,0,0.1,0,0.2,0C20.6,47.8,20.7,47.8,20.8,47.8z"/>
			<path class="st0" d="M38.7,55.6v0.5c-0.2,0-0.2,0-0.4,0c-0.2,0-0.4,0-0.5-0.1c-0.1-0.1-0.2-0.2-0.3-0.3c-0.1-0.1-0.1-0.4-0.1-0.7
				v-1.8H37v-0.5h0.4v-1h0.6v1h0.6v0.5h-0.6v1.8c0,0.2,0,0.3,0,0.3c0,0,0.1,0.1,0.1,0.1c0,0,0.1,0,0.2,0
				C38.5,55.7,38.6,55.6,38.7,55.6z"/>
			<path class="st0" d="M104.4,47.8l0,0.5c-0.2,0-0.2,0.1-0.4,0.1c-0.2,0-0.4,0-0.5-0.1c-0.1-0.1-0.2-0.2-0.3-0.3
				c-0.1-0.1-0.1-0.4-0.1-0.7v-1.8h-0.5V45h0.5v-1h0.6v1h0.6v0.5h-0.6v1.8c0,0.2,0,0.3,0,0.3c0,0.1,0.1,0.1,0.1,0.1c0,0,0.1,0,0.2,0
				C104.2,47.8,104.3,47.8,104.4,47.8z"/>
			<path class="st0" d="M11.6,44.1v-0.7h0.6v0.7H11.6z M11.6,48.3v-3.6h0.6v3.6H11.6z"/>
			<path class="st0" d="M17.9,48.3v-0.5c-0.3,0.4-0.7,0.6-1.2,0.6c-0.2,0-0.4,0-0.6-0.1c-0.2-0.1-0.3-0.2-0.4-0.3
				c-0.1-0.1-0.2-0.3-0.2-0.5c0-0.1,0-0.3,0-0.6v-2.2h0.6v2c0,0.3,0,0.5,0,0.6c0,0.2,0.1,0.3,0.2,0.4c0.1,0.1,0.3,0.1,0.5,0.1
				c0.2,0,0.4,0,0.5-0.1c0.2-0.1,0.3-0.2,0.3-0.4c0.1-0.2,0.1-0.4,0.1-0.7v-1.9h0.6v3.6H17.9z"/>
			<path class="st0" d="M21.6,46.6c0-0.6,0.2-1.1,0.6-1.4c0.3-0.3,0.7-0.4,1.1-0.4c0.5,0,0.9,0.2,1.2,0.5c0.3,0.3,0.5,0.7,0.5,1.3
				c0,0.4-0.1,0.8-0.2,1.1c-0.1,0.3-0.3,0.5-0.6,0.6c-0.3,0.1-0.6,0.2-0.9,0.2c-0.5,0-0.9-0.2-1.2-0.5
				C21.7,47.6,21.6,47.2,21.6,46.6z M22.2,46.6c0,0.4,0.1,0.8,0.3,1c0.2,0.2,0.5,0.3,0.8,0.3c0.3,0,0.6-0.1,0.8-0.3
				c0.2-0.2,0.3-0.6,0.3-1c0-0.4-0.1-0.8-0.3-1c-0.2-0.2-0.5-0.3-0.8-0.3c-0.3,0-0.6,0.1-0.8,0.3C22.3,45.8,22.2,46.2,22.2,46.6z"/>
			<path class="st0" d="M43.4,46.6c0-0.6,0.2-1.1,0.6-1.4c0.3-0.3,0.7-0.4,1.1-0.4c0.5,0,0.9,0.2,1.2,0.5c0.3,0.3,0.5,0.7,0.5,1.3
				c0,0.4-0.1,0.8-0.2,1.1c-0.1,0.3-0.3,0.5-0.6,0.6c-0.3,0.1-0.6,0.2-0.9,0.2c-0.5,0-0.9-0.2-1.2-0.5
				C43.5,47.6,43.4,47.2,43.4,46.6z M44,46.6c0,0.4,0.1,0.8,0.3,1c0.2,0.2,0.5,0.3,0.8,0.3c0.3,0,0.6-0.1,0.8-0.3
				c0.2-0.2,0.3-0.6,0.3-1c0-0.4-0.1-0.8-0.3-1c-0.2-0.2-0.5-0.3-0.8-0.3c-0.3,0-0.6,0.1-0.8,0.3C44.1,45.8,44,46.2,44,46.6z"/>
			<path class="st0" d="M47.1,54.4c0-0.6,0.2-1.1,0.6-1.4c0.3-0.3,0.7-0.4,1.2-0.4c0.5,0,0.9,0.2,1.2,0.5c0.3,0.3,0.5,0.7,0.5,1.3
				c0,0.5-0.1,0.8-0.2,1.1c-0.1,0.3-0.3,0.5-0.6,0.6c-0.3,0.1-0.6,0.2-0.9,0.2c-0.5,0-0.9-0.1-1.2-0.5C47.3,55.4,47.1,55,47.1,54.4z
				 M47.7,54.4c0,0.4,0.1,0.8,0.3,1c0.2,0.2,0.5,0.3,0.8,0.3c0.3,0,0.6-0.1,0.8-0.3c0.2-0.2,0.3-0.6,0.3-1c0-0.4-0.1-0.8-0.3-1
				c-0.2-0.2-0.5-0.3-0.8-0.3c-0.3,0-0.6,0.1-0.8,0.3C47.8,53.6,47.7,54,47.7,54.4z"/>
			<path class="st0" d="M82,54.4c0-0.6,0.2-1.1,0.6-1.4c0.3-0.3,0.7-0.4,1.1-0.4c0.5,0,0.9,0.2,1.2,0.5c0.3,0.3,0.5,0.7,0.5,1.3
				c0,0.5-0.1,0.8-0.2,1.1c-0.1,0.3-0.3,0.5-0.6,0.6c-0.3,0.1-0.6,0.2-0.9,0.2c-0.5,0-0.9-0.1-1.2-0.5C82.2,55.4,82,55,82,54.4z
				 M82.7,54.4c0,0.4,0.1,0.8,0.3,1c0.2,0.2,0.5,0.3,0.8,0.3c0.3,0,0.6-0.1,0.8-0.3c0.2-0.2,0.3-0.6,0.3-1c0-0.4-0.1-0.8-0.3-1
				c-0.2-0.2-0.5-0.3-0.8-0.3c-0.3,0-0.6,0.1-0.8,0.3C82.8,53.6,82.7,54,82.7,54.4z"/>
			<path class="st0" d="M96.2,46.6c0-0.6,0.2-1.1,0.6-1.4c0.3-0.3,0.7-0.4,1.1-0.4c0.5,0,0.9,0.2,1.2,0.5c0.3,0.3,0.5,0.7,0.5,1.3
				c0,0.4-0.1,0.8-0.2,1.1c-0.1,0.3-0.3,0.5-0.6,0.6c-0.3,0.1-0.6,0.2-0.9,0.2c-0.5,0-0.9-0.2-1.2-0.5
				C96.3,47.6,96.2,47.2,96.2,46.6z M96.8,46.6c0,0.4,0.1,0.8,0.3,1c0.2,0.2,0.5,0.3,0.8,0.3c0.3,0,0.6-0.1,0.8-0.3
				c0.2-0.2,0.3-0.6,0.3-1c0-0.4-0.1-0.8-0.3-1c-0.2-0.2-0.5-0.3-0.8-0.3c-0.3,0-0.6,0.1-0.8,0.3C96.9,45.8,96.8,46.2,96.8,46.6z"/>
			<path class="st0" d="M30.2,48.3v-0.5c-0.2,0.4-0.6,0.5-1,0.5c-0.3,0-0.6-0.1-0.8-0.2c-0.2-0.2-0.4-0.4-0.6-0.7
				c-0.1-0.3-0.2-0.6-0.2-1c0-0.4,0.1-0.6,0.2-0.8c0.1-0.3,0.3-0.5,0.5-0.7c0.2-0.2,0.5-0.2,0.8-0.2c0.2,0,0.4,0,0.6,0.1
				c0.2,0.1,0.3,0.2,0.4,0.4v-1.9h0.6v5H30.2z M28.2,46.5c0,0.5,0.1,0.8,0.3,1c0.2,0.2,0.4,0.3,0.7,0.3c0.3,0,0.5-0.1,0.7-0.3
				c0.2-0.2,0.3-0.6,0.3-1c0-0.5-0.1-0.7-0.3-0.9c-0.2-0.2-0.4-0.4-0.7-0.4c-0.3,0-0.5,0.1-0.7,0.3C28.3,45.8,28.2,46.1,28.2,46.5z"
				/>
			<path class="st0" d="M45.6,56.1v-0.5c-0.2,0.4-0.6,0.5-1,0.5c-0.3,0-0.5-0.1-0.8-0.2c-0.2-0.2-0.4-0.4-0.6-0.7
				c-0.1-0.3-0.2-0.6-0.2-1c0-0.4,0.1-0.5,0.2-0.8c0.1-0.3,0.3-0.5,0.5-0.7c0.2-0.2,0.5-0.2,0.8-0.2c0.2,0,0.4,0,0.6,0.1
				c0.2,0.1,0.3,0.2,0.4,0.4v-1.9h0.6v5H45.6z M43.6,54.3c0,0.5,0.1,0.8,0.3,1c0.2,0.2,0.4,0.3,0.7,0.3c0.3,0,0.5-0.1,0.7-0.3
				c0.2-0.2,0.3-0.5,0.3-1c0-0.5-0.1-0.7-0.3-0.9c-0.2-0.2-0.4-0.3-0.7-0.3c-0.3,0-0.5,0.1-0.7,0.3C43.7,53.6,43.6,53.9,43.6,54.3z"
				/>
			<path class="st0" d="M67.5,48.3v-0.5c-0.2,0.4-0.6,0.5-1,0.5c-0.3,0-0.6-0.1-0.8-0.2c-0.2-0.2-0.4-0.4-0.6-0.7
				c-0.1-0.3-0.2-0.6-0.2-1c0-0.4,0.1-0.6,0.2-0.8c0.1-0.3,0.3-0.5,0.5-0.7c0.2-0.2,0.5-0.2,0.8-0.2c0.2,0,0.4,0,0.6,0.1
				c0.2,0.1,0.3,0.2,0.4,0.4v-1.9h0.6v5H67.5z M65.5,46.5c0,0.5,0.1,0.8,0.3,1c0.2,0.2,0.4,0.3,0.7,0.3c0.3,0,0.5-0.1,0.7-0.3
				c0.2-0.2,0.3-0.6,0.3-1c0-0.5-0.1-0.7-0.3-0.9c-0.2-0.2-0.4-0.4-0.7-0.4c-0.3,0-0.5,0.1-0.7,0.3C65.6,45.8,65.5,46.1,65.5,46.5z"
				/>
			<path class="st0" d="M59,48.3v-0.5c-0.2,0.4-0.6,0.5-1,0.5c-0.3,0-0.6-0.1-0.8-0.2c-0.2-0.2-0.4-0.4-0.6-0.7
				c-0.1-0.3-0.2-0.6-0.2-1c0-0.4,0.1-0.6,0.2-0.8c0.1-0.3,0.3-0.5,0.5-0.7c0.2-0.2,0.5-0.2,0.8-0.2c0.2,0,0.4,0,0.6,0.1
				c0.2,0.1,0.3,0.2,0.4,0.4v-1.9h0.6v5H59z M57.1,46.5c0,0.5,0.1,0.8,0.3,1c0.2,0.2,0.4,0.3,0.7,0.3c0.3,0,0.5-0.1,0.7-0.3
				c0.2-0.2,0.3-0.6,0.3-1c0-0.5-0.1-0.7-0.3-0.9c-0.2-0.2-0.4-0.4-0.7-0.4c-0.3,0-0.5,0.1-0.7,0.3C57.2,45.8,57.1,46.1,57.1,46.5z"
				/>
			<path class="st0" d="M35,47.6c-0.1,0.1-0.4,0.5-0.5,0.5c-0.3,0.2-0.6,0.3-1,0.3c-0.5,0-1-0.2-1.3-0.5c-0.3-0.3-0.5-0.8-0.5-1.3
				c0-0.6,0.2-1,0.5-1.4c0.3-0.3,0.7-0.5,1.2-0.5c0.5,0,0.9,0.2,1.2,0.5c0.3,0.3,0.5,0.8,0.5,1.3c0,0,0,0.3,0,0.3h-2.7
				c0,0.7,0.5,1,1.1,1c0.2,0,0.4,0,0.6-0.2c0.1,0,0.1-0.1,0.2-0.2L35,47.6z M32.4,46.5h2c0-0.3-0.1-0.7-0.2-0.8
				c-0.2-0.2-0.4-0.3-0.8-0.3c-0.3,0-0.5,0.1-0.7,0.3C32.5,45.7,32.4,46.2,32.4,46.5z"/>
			<path class="st0" d="M56.4,56.1v-0.5c-0.2,0.4-0.6,0.5-1,0.5c-0.3,0-0.6-0.1-0.8-0.2c-0.2-0.2-0.4-0.4-0.6-0.7
				c-0.1-0.3-0.2-0.6-0.2-1c0-0.4,0.1-0.5,0.2-0.8c0.1-0.3,0.3-0.5,0.5-0.7c0.2-0.2,0.5-0.2,0.8-0.2c0.2,0,0.4,0,0.6,0.1
				c0.2,0.1,0.3,0.2,0.4,0.4v-1.9h0.6v5H56.4z M54.4,54.3c0,0.5,0.1,0.8,0.3,1c0.2,0.2,0.4,0.3,0.7,0.3c0.3,0,0.5-0.1,0.7-0.3
				c0.2-0.2,0.3-0.5,0.3-1c0-0.5-0.1-0.7-0.3-0.9c-0.2-0.2-0.4-0.3-0.7-0.3c-0.3,0-0.5,0.1-0.7,0.3C54.5,53.6,54.4,53.9,54.4,54.3z"
				/>
			<path class="st0" d="M61.2,55.4c-0.1,0.1-0.4,0.5-0.5,0.6c-0.3,0.2-0.6,0.3-1,0.3c-0.5,0-1-0.2-1.3-0.5c-0.3-0.3-0.5-0.8-0.5-1.3
				c0-0.6,0.2-1,0.5-1.4c0.3-0.3,0.7-0.5,1.2-0.5c0.5,0,0.9,0.2,1.2,0.5c0.3,0.3,0.5,0.8,0.5,1.3c0,0,0,0.3,0,0.3h-2.7
				c0,0.7,0.5,1,1.1,1c0.2,0,0.4-0.1,0.6-0.2c0.1,0,0.1-0.1,0.2-0.2H61.2z M58.6,54.3h2c0-0.3-0.1-0.7-0.2-0.8
				c-0.2-0.2-0.5-0.3-0.8-0.3c-0.3,0-0.5,0.1-0.7,0.3C58.7,53.5,58.6,53.9,58.6,54.3z"/>
			<path class="st0" d="M19.3,56.1v-0.5c-0.2,0.4-0.6,0.5-1,0.5c-0.3,0-0.6-0.1-0.8-0.2c-0.2-0.2-0.4-0.4-0.6-0.7
				c-0.1-0.3-0.2-0.6-0.2-1c0-0.4,0.1-0.5,0.2-0.8c0.1-0.3,0.3-0.5,0.5-0.7c0.2-0.2,0.5-0.2,0.8-0.2c0.2,0,0.4,0,0.6,0.1
				c0.2,0.1,0.3,0.2,0.4,0.4v-1.9h0.6v5H19.3z M17.4,54.3c0,0.5,0.1,0.8,0.3,1c0.2,0.2,0.4,0.3,0.7,0.3c0.3,0,0.5-0.1,0.7-0.3
				c0.2-0.2,0.3-0.5,0.3-1c0-0.5-0.1-0.7-0.3-0.9c-0.2-0.2-0.4-0.3-0.7-0.3c-0.3,0-0.5,0.1-0.7,0.3C17.5,53.6,17.4,53.9,17.4,54.3z"
				/>
			<path class="st0" d="M24.1,55.4c-0.1,0.1-0.4,0.5-0.5,0.6c-0.3,0.2-0.6,0.3-1,0.3c-0.5,0-1-0.2-1.3-0.5c-0.3-0.3-0.5-0.8-0.5-1.3
				c0-0.6,0.2-1,0.5-1.4c0.3-0.3,0.7-0.5,1.2-0.5c0.5,0,0.9,0.2,1.2,0.5c0.3,0.3,0.5,0.8,0.5,1.3c0,0,0,0.3,0,0.3h-2.7
				c0,0.7,0.5,1,1.1,1c0.2,0,0.4-0.1,0.6-0.2c0.1,0,0.1-0.1,0.2-0.2H24.1z M21.5,54.3h2c0-0.3-0.1-0.7-0.2-0.8
				c-0.2-0.2-0.5-0.3-0.8-0.3c-0.3,0-0.5,0.1-0.7,0.3C21.7,53.5,21.6,53.9,21.5,54.3z"/>
			<path class="st0" d="M37.7,48.3v-5h1l1.2,3.5c0.1,0.3,0.2,0.6,0.2,0.7c0.1-0.2,0.1-0.4,0.3-0.8l1.2-3.5h0.9v5h-0.6v-4.2l-1.5,4.2
				h-0.6l-1.5-4.3v4.3H37.7z"/>
			<path class="st0" d="M48.4,48.3l-1.4-3.5h0.7l0.8,2.1c0.1,0.2,0.2,0.5,0.2,0.7c0.1-0.2,0.1-0.4,0.2-0.7l0.8-2.1h0.6L49,48.3H48.4
				z"/>
			<path class="st0" d="M51.3,44.1v-0.7h0.6v0.7H51.3z M51.3,48.3v-3.6h0.6v3.6H51.3z"/>
			<path class="st0" d="M53.1,48.3v-5h0.6v5H53.1z"/>
			<path class="st0" d="M54.9,44.1v-0.7h0.6v0.7H54.9z M54.9,48.3v-3.6h0.6v3.6H54.9z"/>
			<path class="st0" d="M63.3,47.9c-0.2,0.2-0.4,0.3-0.7,0.4c-0.2,0.1-0.4,0.1-0.7,0.1c-0.4,0-0.7-0.1-0.9-0.3
				c-0.2-0.2-0.3-0.4-0.3-0.7c0-0.2,0-0.3,0.1-0.5c0.1-0.1,0.2-0.3,0.3-0.3c0.1-0.1,0.3-0.1,0.4-0.2c0.1,0,0.3-0.1,0.6-0.1
				c0.5,0,0.9-0.1,1.1-0.2c0-0.1,0-0.1,0-0.2c0-0.2-0.1-0.4-0.2-0.5c-0.2-0.1-0.4-0.2-0.7-0.2c-0.3,0-0.5,0-0.6,0.1
				c-0.1,0.1-0.2,0.3-0.3,0.5l-0.6-0.1c0.1-0.2,0.1-0.4,0.3-0.6c0.1-0.1,0.3-0.3,0.5-0.3c0.2-0.1,0.5-0.1,0.8-0.1
				c0.3,0,0.6,0,0.8,0.1c0.2,0.1,0.3,0.2,0.4,0.3c0.1,0.1,0.2,0.2,0.2,0.4c0,0.1,0,0.3,0,0.5v0.8c0,0.5,0,1.5,0,1.5h-0.5L63.3,47.9z
				 M63.2,46.6c-0.2,0.1-0.6,0.2-1,0.2c-0.3,0-0.4,0.1-0.5,0.1c-0.1,0-0.2,0.1-0.2,0.2c-0.1,0.1-0.1,0.2-0.1,0.3
				c0,0.2,0.1,0.3,0.2,0.4c0.1,0.1,0.3,0.2,0.6,0.2c0.2,0,0.4-0.1,0.6-0.2c0.2-0.1,0.3-0.2,0.4-0.4c0.1-0.1,0.1-0.3,0.1-0.6V46.6z"
				/>
			<path class="st0" d="M41.9,55.7c-0.2,0.2-0.4,0.3-0.7,0.4c-0.2,0.1-0.4,0.1-0.7,0.1c-0.4,0-0.7-0.1-0.9-0.3
				c-0.2-0.2-0.3-0.4-0.3-0.7c0-0.2,0-0.3,0.1-0.5c0.1-0.1,0.2-0.3,0.3-0.3c0.1-0.1,0.3-0.2,0.4-0.2c0.1,0,0.3-0.1,0.6-0.1
				c0.5-0.1,0.9-0.1,1.1-0.2c0-0.1,0-0.1,0-0.2c0-0.2-0.1-0.4-0.2-0.5c-0.2-0.1-0.4-0.2-0.7-0.2c-0.3,0-0.5,0-0.6,0.1
				c-0.1,0.1-0.2,0.3-0.3,0.5l-0.6-0.1c0.1-0.2,0.1-0.4,0.3-0.6c0.1-0.2,0.3-0.3,0.5-0.3c0.2-0.1,0.5-0.1,0.8-0.1
				c0.3,0,0.6,0,0.8,0.1c0.2,0.1,0.3,0.2,0.4,0.3c0.1,0.1,0.2,0.2,0.2,0.4c0,0.1,0,0.3,0,0.5v0.8c0,0.6,0,1.5,0,1.5h-0.5L41.9,55.7z
				 M41.8,54.4c-0.2,0.1-0.6,0.2-1,0.2c-0.3,0-0.4,0.1-0.5,0.1c-0.1,0-0.2,0.1-0.2,0.2C40,55,40,55.1,40,55.2c0,0.2,0.1,0.3,0.2,0.4
				c0.1,0.1,0.3,0.2,0.5,0.2c0.2,0,0.4-0.1,0.6-0.1c0.2-0.1,0.3-0.2,0.4-0.4c0.1-0.1,0.1-0.3,0.1-0.6V54.4z"/>
			<path class="st0" d="M70.6,55.7c-0.2,0.2-0.5,0.3-0.7,0.4c-0.2,0.1-0.4,0.1-0.7,0.1c-0.4,0-0.7-0.1-0.9-0.3
				c-0.2-0.2-0.3-0.4-0.3-0.7c0-0.2,0-0.3,0.1-0.5c0.1-0.1,0.2-0.3,0.3-0.3c0.1-0.1,0.3-0.2,0.4-0.2c0.1,0,0.3-0.1,0.5-0.1
				c0.5-0.1,0.9-0.1,1.1-0.2c0-0.1,0-0.1,0-0.2c0-0.2-0.1-0.4-0.2-0.5c-0.2-0.1-0.4-0.2-0.7-0.2c-0.3,0-0.5,0-0.6,0.1
				c-0.1,0.1-0.2,0.3-0.3,0.5l-0.6-0.1c0.1-0.2,0.2-0.4,0.3-0.6c0.1-0.2,0.3-0.3,0.5-0.3c0.2-0.1,0.5-0.1,0.8-0.1
				c0.3,0,0.6,0,0.8,0.1c0.2,0.1,0.3,0.2,0.4,0.3c0.1,0.1,0.2,0.2,0.2,0.4c0,0.1,0,0.3,0,0.5v0.8c0,0.6,0,1.5,0,1.5h-0.5L70.6,55.7z
				 M70.6,54.4c-0.2,0.1-0.6,0.2-1,0.2c-0.3,0-0.4,0.1-0.5,0.1c-0.1,0-0.2,0.1-0.2,0.2c-0.1,0.1-0.1,0.2-0.1,0.3
				c0,0.2,0.1,0.3,0.2,0.4c0.1,0.1,0.3,0.2,0.5,0.2c0.2,0,0.4-0.1,0.6-0.1c0.2-0.1,0.3-0.2,0.4-0.4c0.1-0.1,0.1-0.3,0.1-0.6V54.4z"
				/>
			<path class="st0" d="M84.3,47.9c-0.2,0.2-0.4,0.3-0.6,0.4c-0.2,0.1-0.4,0.1-0.6,0.1c-0.4,0-0.7-0.1-0.8-0.3
				c-0.2-0.2-0.3-0.4-0.3-0.7c0-0.2,0-0.3,0.1-0.5c0.1-0.1,0.2-0.3,0.3-0.3c0.1-0.1,0.3-0.1,0.4-0.2c0.1,0,0.3-0.1,0.5-0.1
				c0.5,0,0.8-0.1,1-0.2c0-0.1,0-0.1,0-0.2c0-0.2-0.1-0.4-0.2-0.5c-0.1-0.1-0.4-0.2-0.6-0.2c-0.3,0-0.5,0-0.6,0.1
				c-0.1,0.1-0.2,0.2-0.3,0.4l-0.6,0c0.1-0.2,0.1-0.4,0.2-0.6c0.1-0.1,0.3-0.3,0.5-0.3c0.2-0.1,0.5-0.1,0.8-0.1s0.5,0,0.7,0.1
				c0.2,0.1,0.3,0.2,0.4,0.3c0.1,0.1,0.1,0.2,0.2,0.4c0,0.1,0,0.3,0,0.5v0.8c0,0.5,0,1.5,0,1.5h-0.5L84.3,47.9z M84.2,46.6
				c-0.2,0.1-0.5,0.2-0.9,0.2c-0.2,0-0.4,0.1-0.5,0.1c-0.1,0-0.2,0.1-0.2,0.2c-0.1,0.1-0.1,0.2-0.1,0.3c0,0.2,0.1,0.3,0.2,0.4
				c0.1,0.1,0.3,0.2,0.5,0.2c0.2,0,0.4-0.1,0.6-0.2c0.2-0.1,0.3-0.2,0.4-0.4c0.1-0.1,0.1-0.3,0.1-0.6V46.6z"/>
			<path class="st0" d="M70.7,49.7l-0.1-0.6c0.1,0,0.2,0.1,0.4,0.1c0.1,0,0.2,0,0.3-0.1c0.1,0,0.1-0.1,0.2-0.2
				c0-0.1,0.1-0.2,0.2-0.5c0,0,0-0.1,0.1-0.1l-1.4-3.6H71l0.8,2.1c0.1,0.3,0.2,0.5,0.3,0.8c0.1-0.3,0.2-0.6,0.3-0.8l0.8-2.1h0.6
				l-1.4,3.7c-0.1,0.4-0.3,0.7-0.3,0.8c-0.1,0.2-0.2,0.4-0.4,0.4c-0.1,0.1-0.3,0.1-0.5,0.1C70.9,49.8,70.8,49.8,70.7,49.7z"/>
			<path class="st0" d="M76.9,48.3v-4.4h-1.7v-0.6h4v0.6h-1.7v4.4H76.9z"/>
			<path class="st0" d="M79.7,48.3v-3.5h0.6v0.5c0.2-0.2,0.3-0.4,0.4-0.5c0.1-0.1,0.3-0.1,0.4-0.1c0.2,0,0.3,0,0.5,0.1v0.5
				c0,0-0.7-0.1-0.9,0.1c-0.1,0.1-0.2,0.2-0.2,0.3c-0.1,0.2-0.1,0.4-0.1,0.7v1.8H79.7z"/>
			<path class="st0" d="M100.3,48.3v-3.5h0.6v0.5c0.1-0.2,0.3-0.4,0.4-0.5c0.1-0.1,0.3-0.1,0.4-0.1c0.2,0,0.3,0,0.5,0.1v0.5
				c0,0-0.7-0.1-0.9,0.1c-0.1,0.1-0.2,0.2-0.2,0.3c-0.1,0.2-0.1,0.4-0.1,0.7v1.8H100.3z"/>
			<path class="st0" d="M92.3,49.7v-5h0.6v0.5c0.1-0.2,0.3-0.3,0.4-0.4c0.2-0.1,0.4-0.1,0.6-0.1c0.3,0,0.6,0.1,0.8,0.2
				c0.2,0.2,0.4,0.4,0.5,0.7c0.1,0.3,0.2,0.6,0.2,0.9c0,0.4-0.1,0.7-0.2,1c-0.1,0.3-0.3,0.5-0.6,0.7c-0.3,0.2-0.5,0.2-0.8,0.2
				c-0.2,0-0.4,0-0.6-0.1c-0.2-0.1-0.3-0.2-0.4-0.3v1.8H92.3z M92.9,46.6c0,0.5,0.1,0.8,0.3,1c0.2,0.2,0.4,0.3,0.7,0.3
				c0.3,0,0.5-0.1,0.7-0.3c0.2-0.2,0.3-0.6,0.3-1.1c0-0.5-0.1-0.8-0.3-1c-0.2-0.2-0.4-0.3-0.7-0.3c-0.3,0-0.5,0.1-0.7,0.4
				C93,45.7,92.9,46.1,92.9,46.6z"/>
			<path class="st0" d="M107.8,47.2l0.6,0.1c-0.1,0.4-0.3,0.7-0.6,0.9c-0.3,0.2-0.6,0.3-1,0.3c-0.5,0-1-0.2-1.3-0.5
				c-0.3-0.3-0.5-0.8-0.5-1.4c0-0.6,0.2-1.1,0.5-1.4c0.3-0.3,0.7-0.5,1.2-0.5c0.5,0,0.9,0.2,1.2,0.5c0.3,0.3,0.5,0.8,0.5,1.4
				c0,0,0,0.1,0,0.2h-2.7c0,0.4,0.1,0.7,0.3,0.9c0.2,0.2,0.5,0.3,0.8,0.3c0.2,0,0.4-0.1,0.6-0.2C107.6,47.6,107.7,47.4,107.8,47.2z
				 M105.8,46.2h2c0-0.3-0.1-0.5-0.2-0.7c-0.2-0.2-0.5-0.4-0.8-0.4c-0.3,0-0.5,0.1-0.7,0.3C105.9,45.6,105.8,45.9,105.8,46.2z"/>
			<path class="st0" d="M24.9,56.1v-5h0.6v5H24.9z"/>
			<path class="st0" d="M29.6,56.1v-5h3.6v0.6h-3v1.5h2.8v0.6h-2.8v1.7h3.1v0.6H29.6z"/>
			<path class="st0" d="M64.6,54.7l0.6-0.1c0,0.4,0.1,0.6,0.2,0.8c0.1,0.1,0.3,0.2,0.5,0.2c0.2,0,0.3,0,0.4-0.1
				c0.1-0.1,0.2-0.2,0.2-0.3c0-0.1,0.1-0.3,0.1-0.6v-3.4h0.7v3.4c0,0.4,0,0.7-0.2,1c-0.1,0.2-0.3,0.4-0.5,0.5
				c-0.2,0.1-0.5,0.2-0.8,0.2c-0.4,0-0.8-0.1-1-0.4C64.7,55.6,64.6,55.2,64.6,54.7z"/>
			<path class="st0" d="M72,56.1v-5h0.6v5H72z"/>
			<path class="st0" d="M73.8,51.8v-0.7h0.6v0.7H73.8z M73.8,56.1v-3.6h0.6v3.6H73.8z"/>
			<path class="st0" d="M81,55l0.6,0.1c-0.1,0.4-0.2,0.7-0.5,1c-0.3,0.2-0.6,0.4-1,0.4c-0.5,0-0.9-0.2-1.2-0.5
				c-0.3-0.3-0.5-0.8-0.5-1.4c0-0.4,0.1-0.7,0.2-1c0.1-0.3,0.3-0.5,0.6-0.7c0.3-0.1,0.6-0.2,0.9-0.2c0.4,0,0.7,0.1,1,0.3
				c0.2,0.2,0.4,0.5,0.5,0.8L81,53.8c-0.1-0.2-0.2-0.4-0.3-0.6c-0.1-0.1-0.3-0.2-0.5-0.2c-0.3,0-0.6,0.1-0.8,0.3
				c-0.2,0.2-0.3,0.6-0.3,1.1c0,0.5,0.1,0.8,0.3,1.1c0.2,0.2,0.4,0.3,0.7,0.3c0.2,0,0.4-0.1,0.6-0.2C80.9,55.5,81,55.3,81,55z"/>
		</g>
		<g>
			<polygon class="st0" points="4,37.6 51.4,38.7 52.1,38.1 52.1,37 51.4,36.5 			"/>
			<polygon class="st0" points="108.9,37.6 55.7,38.7 55,38.1 55,37 55.7,36.5 			"/>
			<g>
				<g>
					<polygon class="st0" points="55.7,37.6 55.7,38.7 108.9,37.6 99.5,37.6 					"/>
				</g>
				<g>
					<polygon class="st0" points="55.7,37.6 55.7,38.7 55,38.1 55,37 					"/>
				</g>
			</g>
			<g>
				<g>
					<polygon class="st0" points="51.4,37.6 51.4,38.7 0,37.6 7.6,37.6 					"/>
				</g>
				<g>
					<polygon class="st0" points="51.4,37.6 51.4,38.7 52.1,38.1 52.1,37 					"/>
				</g>
			</g>
		</g>
	</g>
</g>
</svg>
