<?xml version="1.0" encoding="utf-8"?>
<!-- Generator: Adobe Illustrator 19.2.1, SVG Export Plug-In . SVG Version: 6.00 Build 0)  -->
<svg version="1.1" id="Layer_1" xmlns="http://www.w3.org/2000/svg" xmlns:xlink="http://www.w3.org/1999/xlink" x="0px" y="0px"
	 viewBox="0 0 20 20" style="enable-background:new 0 0 20 20;" xml:space="preserve">
<g>
	<path d="M10,2.2c2.5,0,2.8,0,3.8,0.1c0.9,0,1.4,0.2,1.8,0.3C16,2.8,16.4,3,16.7,3.3C17,3.6,17.2,4,17.4,4.4
		c0.1,0.3,0.3,0.8,0.3,1.8c0,1,0.1,1.3,0.1,3.8s0,2.8-0.1,3.8c0,0.9-0.2,1.4-0.3,1.8c-0.2,0.4-0.4,0.8-0.7,1.1
		c-0.3,0.3-0.6,0.5-1.1,0.7c-0.3,0.1-0.8,0.3-1.8,0.3c-1,0-1.3,0.1-3.8,0.1c-2.5,0-2.8,0-3.8-0.1c-0.9,0-1.4-0.2-1.8-0.3
		C4,17.2,3.6,17,3.3,16.7C3,16.4,2.8,16,2.6,15.6c-0.1-0.3-0.3-0.8-0.3-1.8c0-1-0.1-1.3-0.1-3.8s0-2.8,0.1-3.8
		c0-0.9,0.2-1.4,0.3-1.8C2.8,4,3,3.6,3.3,3.3C3.6,3,4,2.8,4.4,2.6c0.3-0.1,0.8-0.3,1.8-0.3C7.2,2.2,7.5,2.2,10,2.2 M10,0.5
		c-2.6,0-2.9,0-3.9,0.1c-1,0-1.7,0.2-2.3,0.4C3.2,1.2,2.6,1.6,2.1,2.1C1.6,2.6,1.2,3.2,1,3.8C0.8,4.4,0.6,5.1,0.6,6.1
		c0,1-0.1,1.3-0.1,3.9c0,2.6,0,2.9,0.1,3.9c0,1,0.2,1.7,0.4,2.3c0.2,0.6,0.6,1.2,1.1,1.7c0.5,0.5,1.1,0.9,1.7,1.1
		c0.6,0.2,1.3,0.4,2.3,0.4c1,0,1.3,0.1,3.9,0.1c2.6,0,2.9,0,3.9-0.1c1,0,1.7-0.2,2.3-0.4c0.6-0.2,1.2-0.6,1.7-1.1
		c0.5-0.5,0.9-1.1,1.1-1.7c0.2-0.6,0.4-1.3,0.4-2.3c0-1,0.1-1.3,0.1-3.9c0-2.6,0-2.9-0.1-3.9c0-1-0.2-1.7-0.4-2.3
		c-0.2-0.6-0.6-1.2-1.1-1.7c-0.5-0.5-1.1-0.9-1.7-1.1c-0.6-0.2-1.3-0.4-2.3-0.4C12.9,0.5,12.6,0.5,10,0.5"/>
	<path d="M10,5.1c-2.7,0-4.9,2.2-4.9,4.9s2.2,4.9,4.9,4.9c2.7,0,4.9-2.2,4.9-4.9S12.7,5.1,10,5.1 M10,13.2c-1.7,0-3.2-1.4-3.2-3.2
		S8.3,6.8,10,6.8s3.2,1.4,3.2,3.2S11.7,13.2,10,13.2"/>
	<path d="M16.2,4.9c0,0.6-0.5,1.1-1.1,1.1c-0.6,0-1.1-0.5-1.1-1.1c0-0.6,0.5-1.1,1.1-1.1C15.7,3.8,16.2,4.3,16.2,4.9"/>
</g>
</svg>
