<?xml version="1.0" encoding="utf-8"?>
<!-- Generator: Adobe Illustrator 19.2.0, SVG Export Plug-In . SVG Version: 6.00 Build 0)  -->
<svg version="1.1" id="Capa_1" xmlns="http://www.w3.org/2000/svg" xmlns:xlink="http://www.w3.org/1999/xlink" x="0px" y="0px"
	 viewBox="0 0 88.6 88.3" style="enable-background:new 0 0 88.6 88.3;" xml:space="preserve">
<style type="text/css">
	.st0{fill:#262626;}
	.st1{fill:#EBEBEB;}
	.st2{opacity:0.5;fill:#EBEBEB;}
</style>
<g>
	<path class="st0" d="M88.6,0H44.9l0,0c-0.2,0-0.4,0-0.6,0C19.8,0,0,19.8,0,44.1c0,24.4,19.8,44.1,44.3,44.1
		c24.5,0,44.3-19.8,44.3-44.1c0-0.9,0-1.7-0.1-2.6L88.6,0z"/>
	<g>
		<g>
			<g>
				<g>
					<path class="st1" d="M45.4,13.5l-0.4,1.6l0.4,0.6l0.3-0.6L45.4,13.5z M45.4,15.4l-0.2-0.4l0.2-1.3l0.1,1.3L45.4,15.4z"/>
				</g>
				<g>
					<polygon class="st1" points="50.7,32.9 50.9,32.7 51.1,32.9 51.2,32.8 51,32.6 51.2,32.3 51.1,32.2 50.9,32.4 50.7,32.2 
						50.5,32.3 50.7,32.6 50.5,32.8 					"/>
				</g>
				<g>
					<polygon class="st1" points="51.2,37 50.9,37.3 50.7,37 50.5,37.2 50.8,37.4 50.5,37.7 50.7,37.8 50.9,37.6 51.2,37.8 
						51.3,37.7 51.1,37.4 51.3,37.2 					"/>
				</g>
				<g>
					<polygon class="st1" points="39.3,33 39.5,32.7 39.8,33 39.9,32.8 39.7,32.5 39.9,32.3 39.8,32.1 39.5,32.4 39.3,32.1 
						39.1,32.3 39.3,32.5 39.1,32.8 					"/>
				</g>
				<g>
					<polygon class="st1" points="39.9,37.7 39.6,37.4 39.9,37.2 39.7,37 39.5,37.3 39.2,37 39,37.2 39.3,37.4 39,37.7 39.2,37.9 
						39.5,37.6 39.7,37.9 					"/>
				</g>
				<g>
					<polygon class="st1" points="40.2,42.1 40,42.3 39.8,42.1 39.6,42.3 39.8,42.5 39.6,42.7 39.8,42.8 40,42.6 40.2,42.8 
						40.4,42.7 40.1,42.5 40.4,42.3 					"/>
				</g>
				<g>
					<polygon class="st1" points="50.6,42.1 50.4,42.3 50.2,42.1 50,42.2 50.2,42.5 50,42.7 50.2,42.9 50.4,42.6 50.6,42.9 
						50.8,42.7 50.5,42.5 50.8,42.2 					"/>
				</g>
				<g>
					<polygon class="st1" points="45.4,45.4 45.2,45.6 44.9,45.4 44.8,45.5 45,45.8 44.8,46 44.9,46.2 45.2,46 45.4,46.2 45.6,46 
						45.3,45.8 45.6,45.5 					"/>
				</g>
				<g>
					<path class="st1" d="M45.7,31.2c0.6-0.3,1.1-1.4,2-1.2c-1.1-0.4-1.2-0.5-1.2-1.1c-0.2,0.3-0.6,0.8-1.3,0.9
						C45.9,30.3,45.9,30.6,45.7,31.2z"/>
				</g>
				<g>
					<path class="st1" d="M44,31.4c-0.4,0.4-0.7,0.6-1.1,0.6c0.4-1.2,1.4-2,1.7-2.3c-0.1,0-0.3-0.1-0.4-0.1
						c-0.7,0.7-1.1,1.2-1.6,2.2c-0.1,0.1-0.2,0.3-0.3,0.4C42.7,32.3,43.5,32.2,44,31.4z"/>
				</g>
				<g>
					<path class="st1" d="M44.3,29.5c0,0,0.3,0,0.4,0c-0.1-0.3,0-0.9,0.2-1.1c-0.3,0.2-0.6,0.1-0.6,0.1
						C44.4,28.6,44.4,29.2,44.3,29.5z"/>
				</g>
				<g>
					<path class="st1" d="M43.6,31.3L43.6,31.3c0,0.1,0,0.1,0.1,0.1c0.1,0,0.1-0.1,0.1-0.1c0,0-0.1-0.1-0.1-0.1
						C43.7,31.2,43.7,31.3,43.6,31.3z"/>
				</g>
				<g>
					<path class="st1" d="M43.2,31.7L43.2,31.7c0,0.1,0,0.2,0.1,0.2c0.1,0,0.1-0.1,0.1-0.1c0,0,0-0.1-0.1-0.1
						C43.3,31.6,43.2,31.6,43.2,31.7z"/>
				</g>
				<g>
					<path class="st1" d="M44.3,31.1C44.3,31.1,44.2,31.1,44.3,31.1c-0.1,0.1-0.1,0.1-0.1,0.1c0,0.1,0.1,0.1,0.1,0.1
						c0.1,0,0.1,0,0.1-0.1C44.4,31.1,44.4,31.1,44.3,31.1z"/>
				</g>
				<g>
					<path class="st1" d="M44.8,31.2C44.8,31.2,44.8,31.2,44.8,31.2c0,0.1,0,0.2,0.1,0.2c0.1,0,0.1,0,0.1-0.1c0-0.1,0-0.1-0.1-0.1
						C44.9,31.2,44.9,31.2,44.8,31.2z"/>
				</g>
				<g>
					<path class="st1" d="M45.5,31C45.5,31,45.4,31,45.5,31c-0.1,0.1-0.1,0.1-0.1,0.1c0,0,0.1,0.1,0.1,0.1c0.1,0,0.1-0.1,0.1-0.1
						C45.7,31,45.6,31,45.5,31z"/>
				</g>
				<g>
					<path class="st1" d="M45.4,27.1c0.1,0,0.1-0.1,0.1-0.1c0-0.1-0.1-0.1-0.1-0.1c0,0-0.1,0-0.1,0.1c0,0,0,0,0,0
						C45.3,27,45.3,27.1,45.4,27.1z"/>
				</g>
				<g>
					<path class="st1" d="M46.9,25.1c0.1,0.1,0.2,0.2,0.5,0.4c-0.2-0.1-0.5-0.5-0.6-0.7c0,0.7,0.3,1.1,0.4,1.6
						C47.1,25.7,46.9,25.4,46.9,25.1z"/>
				</g>
				<g>
					<path class="st1" d="M47.1,24.1c0.2,0.2,0.3,0.5,0.7,1c-0.3-0.3-0.3-1-0.9-1.2c0.1,0.2,0.3,0.7,0.3,0.9
						C47.2,24.4,47.2,24.4,47.1,24.1z"/>
				</g>
				<g>
					<path class="st1" d="M48.4,29.6c1.3-0.3,1.2,1.2,2.5,1.3c-0.8-0.4-1-0.7-1.3-1.2c1.2,0.5,2.1,1.4,3.2,0.8
						C51.2,30.7,49.3,28.7,48.4,29.6z"/>
				</g>
				<g>
					<path class="st1" d="M54.3,35.9c-0.1,0.2-0.2,0.9-0.3,1.3c-0.2-0.3-0.2-1.2-0.2-1.5c0,1.3,0.2,2.4,1,4.2
						C54.4,38.8,54,37.2,54.3,35.9z"/>
				</g>
				<g>
					<path class="st1" d="M56.6,41.7c0.4-0.8,0.2-1.7,0.1-2.2c2.7-1,0-3.8-0.3-4.7c-0.2-0.4-0.7-1.5,0.1-3.4
						c0.6-2.4-1.8-1.3-2.2-1.4C55,29.7,55,29,55,28.5c-0.4,0.4-0.9,0.5-1.1,0.5c0.3-0.3,0.4-1,0.5-1.3c-1,1-2.1,0.6-2.7,0.4
						c-1.3-0.4-1.7-0.2-2.2,0c-1.4,0.7-1.5,1-1.9,1.2c-0.2-0.1-0.3-0.3-0.5-0.4c-0.1-0.1-0.2-0.1-0.3-0.2c0-0.2,0-0.3-0.1-0.4
						c0,0,0.1-0.2,0.1-0.4c0.1-0.1,0.2-0.2,0.5-0.5c0-0.1,0.1-0.1,0.1-0.2c0.2,0.2,0.3,0.3,0.5,0.3l0.1,0l-0.1-0.1
						c0-0.1-0.1-0.2-0.1-0.3c0,0,0.1,0,0.1,0.1l0.3,0.1L48,27.2c-0.2-0.3-0.2-0.4-0.2-0.6c0,0,0,0,0,0c0,0,0,0,0-0.1
						c0-0.1,0-0.1,0-0.2c0,0,0.1,0,0.2,0.1l0.1,0L48,26.3c-0.2-0.3-0.2-0.3-0.2-0.4c0,0,0,0,0-0.1c0,0,0.1,0,0.1,0.1
						c0.1,0.1,0.3,0.3,0.5,0.4c0,0,0-0.2,0-0.2c0-0.1-0.1-0.2-0.1-0.2c0,0,0.1,0,0.1,0.1c0.1,0,0.1,0.1,0.2,0.1l0.2,0.2l0-0.2
						c0-0.2-0.1-0.2-0.2-0.4c0,0,0.2,0.1,0.2,0.1l0.2,0.1c-0.3-0.2-0.5-0.7-0.6-1.1c-0.1-0.6-0.3-1.2-1.2-1.3
						c0.1-0.1,0.1-0.2,0.1-0.4c0-0.1,0-0.3-0.1-0.4c-0.3-0.4-0.9-0.7-1.4-0.5l0,0.1c0,0,0.1,0,0.1,0c-0.1,0-0.2,0-0.3,0l-0.2,0.1
						l0.1,0.1c0,0,0,0,0,0c-0.2,0-0.3,0.1-0.4,0.3c0,0,0,0,0,0c-0.2-0.1-0.7-0.2-1.3,0.6l0,0.1l0.1,0c0.1,0.1,0.1,0.1,0.2,0.1
						c-0.1,0.1-0.2,0.3-0.3,0.4l-0.2,0.3l0.1,0c0.1,0.1,0.2,0,0.4-0.1c0,0.1,0,0.1,0,0.2c0,0,0,0.1,0,0.1l0,0.1l0.1-0.1
						c0.1-0.1,0.1-0.1,0.2-0.1c0,0,0.1,0,0.2-0.1c0,0,0,0.1,0,0.1l0.1,0.1l0.1-0.1c0.1-0.1,0.1-0.2,0.3-0.2c0,0,0,0,0,0
						c0.2,0.1,0.4,0,0.6-0.1l0.1-0.1c0,0,0,0,0,0c0,0,0,0,0,0c0,0,0,0.1,0,0.2c-0.1,0.1-0.2,0.2-0.2,0.4c0,0-0.1,0-0.1,0
						c-0.3,0-1.4,0.2-2.2,1.2c-0.2,0.1-0.2,0.2-0.3,0.3c0,0.1,0,0.1,0,0.1c0,0,0,0.1,0,0.1c-0.2,0.5-0.2,1.4,0.3,2.1
						c0,0,0.1,0,0.1,0c0.1,0.1,0.1,0.1,0.2,0.1c0,0.2,0.1,0.3,0.3,0.3c0,0,0.1,0,0.1,0c0,0,0,0,0.1,0h0c0.1,0,0.2,0.1,0.3,0.1
						c0.1,0.1,0.1,0.5,0,0.7c-0.1,0-0.1,0-0.1,0.1c0,0,0,0.1,0,0.2c-0.4,0.3-0.6,0.6-0.8,0.9c-0.5,0-1.2,0-1.9,0.1
						c-2.4,1-2.5,0.5-3.8,0.7c-1.2,0.6,0.3,1.8-0.8,3.3c-0.2-1.7-0.5-1.1-0.7-2.5c-0.9,1.5,2.7,4.8,1.2,6c0,0.1-1.5,1.3-0.7,2.9
						c0.1-0.6,0-1.1,0.7-1.9c-0.4,1.6,0,2,0.4,2.4c1.8,1.7,0.6,2.4,0.1,2.6c0.1-0.7,0.3-1.3-1-2.6c1.7,2.7-0.1,4.7-1.4,3.1
						c1.5-2.4,0.1-1.7,0-4.4c-0.2,0.6-0.1,1.1,0,1.7c0.3,2-1.6,2.1-2.2,1.5c1.1-0.4,1.2-1,1-1.8c-1.3-2,1.6-4.2,1.2-6.5
						c-0.1,1.7-1.3,2.3-1.6,3.8c-0.8-0.8-0.9-1.1-0.5-2.2c0.8-1.7,1.4-2.6,1.1-4.5c0.5,0.5,0.2,2.5,0.4,3.2c0-0.5,0.4-0.4,0.2-2.2
						c0.3,0.5,0.3,0.3,0.8,1.5c0.5-1.2-4.3-6,1.2-4.6c-1-0.2-1.2-1-1.3-1.4c2.1,1.4,2.8,0,4-0.2c-1.8,0.2-2.7,1.2-3.1-0.4
						c1.2,0.8,2.9-0.9,4.6,0c1.8,1,1.1,1.1,2.5,1.4c0.1-0.1,0.1-0.1,0.2-0.2c-1.5-0.4-0.8-0.6-2.8-1.6c-0.6-0.2-1-0.4-2.2,0
						c-0.6,0.2-1.8,0.6-2.7-0.4c0,0.3,0.2,1,0.5,1.3c-0.2-0.1-0.7-0.1-1.1-0.5c-0.1,0.5,0,1.3,0.7,1.6c-0.4,0.1-2.8-1.1-2.2,1.4
						c0.7,1.9,0.3,3,0.1,3.4c-0.2,0.9-3,3.6-0.3,4.7c-0.1,0.5-0.3,1.4,0.1,2.2c0.2,0.8,0.1,1.5-1.8,1.7c0.5,0.6,2.7,2.3,3.6-0.6
						c0.3,0.5-0.6,1.8-1,2.1c1,1.9,3.1,0.5,2.9-0.2c0.7-0.3,1.2-0.6,1.4-0.8c1.3,2.2,3.6,3.6,6.3,3.6c2.7,0,5-1.5,6.3-3.6l0,0
						c0.2,0.3,0.6,0.5,1.4,0.8c-0.1,0.6,2,2.1,2.9,0.2c-0.5-0.3-1.4-1.6-1-2.1c0.9,2.9,3.1,1.2,3.6,0.6
						C56.5,43.2,56.4,42.5,56.6,41.7z M45.7,24.1c0,0,0.1-0.2,0.1-0.2c0,0,0-0.1,0-0.1c0,0-0.1-0.1-0.2,0c0,0-0.2,0.1-0.2,0.1
						c-0.1,0.1-0.2,0.2-0.4,0.1l0,0l-0.1,0c-0.1,0-0.2,0.1-0.3,0.2v-0.1L44.4,24c-0.2,0.1-0.2,0.1-0.3,0.2c0,0-0.1,0-0.1,0
						c0,0,0-0.1,0-0.1c0-0.1,0-0.1,0-0.1v-0.1L43.8,24c0,0-0.1,0.1-0.1,0.1c0,0,0.1-0.1,0.1-0.1c0.1-0.2,0.2-0.4,0.4-0.5l0,0
						c0.3-0.1,0.5-0.2,0.6-0.1c-0.1,0.1-0.1,0.2-0.3,0.5c0.1-0.2,0.3-0.4,0.4-0.6c-0.3-0.1-0.5,0.1-0.7,0.2l0.1-0.1l-0.2,0
						c-0.1,0-0.2,0-0.2,0c0.5-0.7,0.9-0.5,1.1-0.5l0.1,0c0,0,0,0,0,0c-0.3,0.2-0.2,0.5-0.3,0.8c0.2-0.1,0.3,0,0.6-0.3
						c0,0,0,0.2,0.1,0.2c0.1-0.1,0.2-0.2,0.2-0.3c0.2,0,0.5,0.2,0,0.7c0.3-0.2,0.6-0.9,0-0.8c0,0.1-0.1,0.2-0.2,0.3
						c-0.1,0-0.1-0.2-0.1-0.2c-0.1,0.2-0.4,0.4-0.5,0.4c0.1-0.3-0.1-0.6,0.4-0.7c0,0-0.1,0-0.2,0v0c0.1-0.3,0.4-0.3,0.5-0.3l0.2,0
						l-0.2-0.2c0,0,0,0-0.1-0.1c0.1,0,0.2,0,0.3,0.1l0.1,0.1l0-0.2c0,0,0-0.1-0.1-0.2c0.4,0,0.8,0.2,1,0.5c0.1,0.2,0.2,0.4,0,0.7
						l-0.1,0.1h0.1c-0.1,0.1-0.2,0.3-0.3,0.3c0,0,0.2,0,0.2,0.1c-0.3,0-0.3,0.2-0.5,0.2c0,0,0.1,0.2,0.1,0.3
						c-0.4,0.1-0.5,0.3-0.5,0.4c0.2-0.2,0.6-0.4,0.9-0.1c0-0.1-0.2-0.2-0.3-0.3c0-0.1,0-0.2,0-0.2c0.2-0.1,0.3-0.3,0.5-0.2
						c0-0.1-0.1-0.1-0.2-0.2c0.1-0.2,0.5-0.3,0.9-0.1c0.3,0.2,0.4,0.6,0.5,1c0.1,0.3,0.1,0.5,0.3,0.7c0,0-0.3-0.1-0.3-0.1l0.1,0.2
						c0.1,0.2,0.2,0.2,0.2,0.3c0,0,0,0,0,0c-0.1-0.1-0.3-0.2-0.5-0.5c0,0,0,0,0,0.1c0,0.1,0.1,0.3,0.1,0.3c0,0.1,0.1,0.1,0.1,0.2
						c-0.1,0-0.1-0.1-0.2-0.1c-0.1,0-0.2,0-0.4-0.2c0.1,0.2,0.1,0.2,0.1,0.3c0,0.1,0,0.1,0.1,0.3c-0.1-0.1-0.2-0.1-0.3-0.2
						c0.2,0.4,0.2,0.5,0.2,0.7c0,0,0,0,0,0c0,0,0,0,0,0.1c0,0.1,0,0.2,0.1,0.4c0,0-0.2,0-0.2-0.2c0,0.1,0,0.2,0.1,0.3
						c0,0.1,0,0.1,0,0.2c-0.2-0.1-0.6-0.5-0.7-1.2l0-0.1l-0.2,0c0,0-0.1,0-0.1,0c0-0.1,0-0.2-0.1-0.3l-0.1-0.4l-0.1,0l-0.1,0.1
						c0,0,0,0,0,0c0,0,0-0.2,0-0.3c0-0.2,0-0.3-0.1-0.4c0,0-0.1,0-0.1-0.1c-0.2-0.1-0.5-0.2-0.5-0.4c0,0,0-0.1,0-0.1
						C45.5,24.3,45.6,24.2,45.7,24.1z M43.2,27.8c-0.4-0.3-0.4-1.2-0.1-1.7c0-0.1,0.2-0.1,0.2-0.1c1,0.2,1.2,0.3,1.8,0.7
						c0,0.1,0,0.3,0,0.3C44.9,27.3,44,27.6,43.2,27.8z M43.6,28.2c0-0.1-0.1-0.1-0.1-0.2c1.1-0.4,1.5-0.7,1.7-0.9
						c0,0.1,0.1,0.1,0.1,0.1C44.7,27.8,44.2,28,43.6,28.2z M45.2,26.9C45.2,26.9,45.2,26.9,45.2,26.9c0-0.2,0.1-0.2,0.2-0.2
						c0.1,0,0.2,0.1,0.2,0.2c0,0.1-0.1,0.2-0.2,0.2C45.3,27.1,45.2,27,45.2,26.9z M44.1,29.6c-0.1-0.1-0.1-0.2,0.1-0.2
						c0.1-0.3,0.1-0.7,0-0.8c-0.1-0.1-0.2-0.1-0.3-0.1c0,0,0,0,0,0c0,0,0,0-0.1,0c0.6-0.3,1.1-0.5,1.5-1.2c0.7,0.1,0.5-1-0.1-0.6
						c-0.5-0.4-1.2-0.9-2-1c0.7-1,1.9-1.2,2.1-1.2c0,0,0.1,0,0.1,0c0,0,0,0,0,0c0,0,0,0.1,0,0.1c-0.4,0-1.4,0.3-1.9,1
						c0.3,0.1,0.4,0.1,0.6,0.2c0.1-0.5,0.7-1,1.3-1.2c0.1,0.3,0.4,0.5,0.6,0.5l0.1,0c0,0,0,0,0,0c0.1,0,0.1,0.2,0.1,0.3
						c0,0.2,0,0.4,0.2,0.5l0,0l0,0c0,0,0,0,0.1,0c0,0.1,0,0.2,0,0.2c0,0.1,0,0.2,0.1,0.3l0,0.1l0.1,0c0,0,0.1,0,0.1,0h0
						c0,0.2,0.1,0.4,0.2,0.5c-0.1,0.6-0.4,1.1-0.9,1.3c0.3,0.4,0.1,0.7-0.8,1.4c0.6-0.2,1.1-0.6,1.3-1.1c0.1,0.1,0.1,0.3,0.1,0.4
						c0.3,0.2,1,0.7,1.3,1.2c0.1,0.1,0.2,0.1,0.2,0.3c0.1,0.2,0,0.6-0.7,0.6c-0.1,0-0.1,0-0.2,0c0,0,0,0,0,0c0,0,0,0,0,0
						c1.2,0,0.5-1.4-0.7,0c-0.6,0.6-0.9,0.9-1.7,0.9c-0.2,0-0.5,0-0.8-0.1c-0.5,0.6-1.1,0.9-1.6,0.9c-0.2,0-0.3,0-0.5-0.1
						c-0.1,0-0.1-0.3,0.1-0.3c0,0,0,0,0.1,0C42.8,31.5,43,30.5,44.1,29.6z M53.3,35.1c-0.2,0.4-0.7,1.3-0.9,2.3v-5.8
						c-0.2,0-0.3,0-0.5,0c0.6,0,1.1-0.1,1.2,0.7C53,33.3,52.6,34,53.3,35.1z M52.4,37.7C52.4,37.7,52.4,37.7,52.4,37.7
						C52.4,37.7,52.4,37.7,52.4,37.7z M52.4,37.6C52.4,37.6,52.4,37.6,52.4,37.6C52.4,37.6,52.4,37.6,52.4,37.6z M52.4,37.5
						c0,0,0-0.1,0-0.1C52.5,37.4,52.5,37.4,52.4,37.5z M52.4,38.2C52.4,38.1,52.4,38.1,52.4,38.2C52.4,38.1,52.4,38.1,52.4,38.2z
						 M52.4,38C52.4,38,52.4,38,52.4,38C52.4,38,52.4,38,52.4,38z M52.5,40.4v-2.1c0.1,0.3,0.2,0.6,0.5,0.8c0.5,1.8-0.7,2.9-1.3,3.7
						c0.2-0.3,0.4-0.5,0.7-0.8C52.4,41.4,52.5,40.9,52.5,40.4z M46.7,30.9L46.7,30.9c-0.1,0.1-0.1,0.1-0.2,0.2
						C46.6,31,46.6,30.9,46.7,30.9z M47.2,30.9L47.2,30.9L47.2,30.9z M48.8,30.8c-0.1,0-0.1,0-0.2,0H48c0,0,0,0-0.1,0
						c0,0,0.1-0.1,0.1-0.1C48.3,30.8,48.5,30.8,48.8,30.8z M47.9,30.9C47.9,30.9,47.9,30.9,47.9,30.9C47.9,30.9,47.9,30.9,47.9,30.9
						z M47.8,30.9C47.8,30.9,47.8,30.9,47.8,30.9C47.8,30.9,47.8,30.9,47.8,30.9z M47.7,30.9c0,0-0.1,0-0.1,0
						C47.7,30.9,47.7,30.9,47.7,30.9z M47.6,30.9c0,0-0.1,0-0.1,0C47.5,30.9,47.6,30.9,47.6,30.9z M43,30.8C43,30.8,43,30.8,43,30.8
						l-1.3,0c-0.1,0-0.1,0-0.2,0C42.1,30.7,42.6,30.7,43,30.8z M38.5,31.5c-0.2,0-0.4,0-0.6,0C38.1,31.5,38.3,31.5,38.5,31.5z
						 M37,35.1c0.7-1.1,0.3-1.8,0.2-2.9c0-0.5,0.3-0.6,0.7-0.7v6l0,0C37.8,36.5,37.2,35.5,37,35.1z M37.5,39.1
						c0.3-0.3,0.4-0.6,0.5-0.9v2.2c0,0.6,0.1,1.1,0.2,1.7c0.2,0.2,0.3,0.4,0.5,0.6C38,41.8,37,40.8,37.5,39.1z M38.8,42.9
						C38.8,42.9,38.9,42.9,38.8,42.9C38.9,42.9,38.8,42.9,38.8,42.9z M38.6,42.5C38.6,42.6,38.6,42.6,38.6,42.5
						C38.6,42.6,38.6,42.6,38.6,42.5z M38.7,42.6C38.7,42.6,38.7,42.7,38.7,42.6C38.7,42.7,38.7,42.6,38.7,42.6z M38.7,42.7
						C38.7,42.7,38.7,42.7,38.7,42.7C38.7,42.7,38.7,42.7,38.7,42.7z M38.8,42.8C38.8,42.8,38.8,42.8,38.8,42.8
						C38.8,42.8,38.8,42.8,38.8,42.8z M38.9,42.9C38.9,42.9,38.9,42.9,38.9,42.9C38.9,42.9,38.9,42.9,38.9,42.9z M39,43.7
						C39,43.7,39,43.7,39,43.7C39,43.7,39,43.7,39,43.7z M38.9,43C38.9,43,38.9,43,38.9,43C38.9,43,38.9,43,38.9,43z M39,43
						C39,43,39,43,39,43C39,43,39,43,39,43z M39,43.2C39,43.2,39,43.2,39,43.2C39,43.2,39,43.2,39,43.2z M39,43.3
						C39,43.3,39,43.3,39,43.3C39,43.3,39,43.3,39,43.3z M39.1,43.3C39.1,43.3,39.1,43.3,39.1,43.3C39.1,43.3,39.1,43.3,39.1,43.3z
						 M39.1,43.4L39.1,43.4L39.1,43.4z M39.1,43.5L39.1,43.5L39.1,43.5z M39.1,43.6C39,43.6,39,43.6,39.1,43.6
						C39,43.6,39,43.6,39.1,43.6z M39,43.6C39,43.6,39,43.6,39,43.6C39,43.6,39,43.6,39,43.6z M45.2,46.3c-3.4,0-6.3-2.8-6.3-6.2
						v-8.2h3.4c0,0,0,0,0,0c-0.1,0.1-0.1,0.1-0.2,0.2c0,0,0,0,0,0c-0.2,0-0.2,0.1-0.2,0.2c0,0.1,0,0.2,0.1,0.2
						c0.2,0.1,0.3,0.1,0.5,0.1c0.5,0,1.1-0.3,1.5-0.7h7.5l0,8.3C51.5,43.6,48.6,46.3,45.2,46.3z M42.6,31.5
						C42.6,31.5,42.6,31.6,42.6,31.5C42.6,31.6,42.6,31.5,42.6,31.5z M42.5,31.7C42.5,31.7,42.5,31.8,42.5,31.7
						C42.5,31.8,42.5,31.7,42.5,31.7z M51.5,43C51.5,43,51.5,43,51.5,43C51.5,43,51.5,43,51.5,43z M51.4,43
						C51.4,43.1,51.4,43.1,51.4,43C51.4,43.1,51.4,43.1,51.4,43z M51.4,43.1C51.4,43.1,51.4,43.1,51.4,43.1
						C51.4,43.1,51.4,43.1,51.4,43.1z M51.4,43.2C51.4,43.2,51.4,43.2,51.4,43.2C51.4,43.2,51.4,43.2,51.4,43.2z M51.4,43.2
						C51.3,43.3,51.3,43.3,51.4,43.2C51.3,43.3,51.3,43.3,51.4,43.2z M51.3,43.3C51.3,43.3,51.3,43.3,51.3,43.3
						C51.3,43.3,51.3,43.3,51.3,43.3z M51.3,43.4C51.3,43.4,51.3,43.4,51.3,43.4C51.3,43.4,51.3,43.4,51.3,43.4z M51.3,43.4
						C51.3,43.4,51.3,43.4,51.3,43.4C51.3,43.4,51.3,43.4,51.3,43.4z M51.4,43.8C51.4,43.8,51.5,43.8,51.4,43.8
						C51.5,43.8,51.4,43.8,51.4,43.8z M51.3,43.5L51.3,43.5L51.3,43.5z M51.3,43.6C51.3,43.6,51.3,43.6,51.3,43.6
						C51.3,43.6,51.3,43.6,51.3,43.6z M51.4,43.6C51.4,43.6,51.4,43.6,51.4,43.6C51.4,43.6,51.4,43.6,51.4,43.6z M51.4,43.7
						C51.4,43.7,51.4,43.7,51.4,43.7C51.4,43.7,51.4,43.7,51.4,43.7z M51.4,43.8C51.4,43.8,51.4,43.8,51.4,43.8
						C51.4,43.8,51.4,43.8,51.4,43.8z M51.5,42.9C51.5,42.9,51.6,42.9,51.5,42.9C51.6,42.9,51.5,42.9,51.5,42.9z M51.5,42.9
						C51.5,42.9,51.5,42.9,51.5,42.9C51.5,42.9,51.5,42.9,51.5,42.9z M51.6,42.8C51.6,42.8,51.6,42.8,51.6,42.8
						C51.6,42.8,51.6,42.8,51.6,42.8z M55,42.1c0.1-0.6,0.2-1.1,0-1.7c-0.1,2.7-1.5,2,0,4.4c-1.3,1.5-3.1-0.4-1.4-3.1
						c-1.3,1.2-1,1.8-1,2.6c-0.5-0.3-1.7-0.9,0.1-2.6c0.3-0.5,0.7-0.9,0.4-2.4c0.7,0.7,0.6,1.2,0.7,1.9c0.8-1.6-0.7-2.8-0.7-2.9
						c-1.5-1.2,2.1-4.5,1.2-6c-0.2,1.4-0.5,0.8-0.7,2.5c-1.1-1.5,0.4-2.6-0.8-3.3c-1.3-0.3-1.4,0.3-3.8-0.7
						c-0.3-0.1-0.6-0.1-0.8-0.1c0-0.1,0-0.2,0-0.2c0-0.1-0.1-0.2-0.2-0.3c0,0,0,0,0,0c-0.1-0.2-0.2-0.3-0.4-0.4
						c0.3-0.2,0.4-0.5,1.6-1.1c1.7-0.9,3.4,0.7,4.6,0c-0.4,1.6-1.3,0.7-3.1,0.4c1.2,0.2,2,1.6,4,0.2c-0.1,0.3-0.3,1.2-1.3,1.4
						c5.5-1.4,0.7,3.4,1.2,4.6c0.5-1.2,0.5-1.1,0.8-1.5c-0.3,1.8,0.2,1.7,0.2,2.2c0.2-0.8-0.1-2.7,0.4-3.2c-0.3,1.9,0.3,2.8,1.1,4.5
						c0.4,1,0.2,1.4-0.5,2.2c-0.3-1.5-1.5-2-1.6-3.8c-0.3,2.3,2.6,4.5,1.2,6.5c-0.2,0.9-0.1,1.5,1,1.8C56.7,44.2,54.8,44.1,55,42.1z
						"/>
				</g>
				<g>
					<path class="st1" d="M39.5,30.8c1.4,0,1.2-1.6,2.5-1.3c-0.9-0.9-2.8,1.1-4.5,0.8c1.1,0.6,2-0.2,3.2-0.8
						C40.5,30.1,40.3,30.4,39.5,30.8z"/>
				</g>
				<g>
					<path class="st1" d="M36.6,35.7c-0.1,0.4,0,1.2-0.2,1.5c0-0.4-0.2-1.2-0.3-1.3c0.3,1.3-0.1,2.9-0.5,4
						C36.5,38.2,36.6,37,36.6,35.7z"/>
				</g>
				<g>
					<path class="st1" d="M47.1,19.9L47.1,19.9C47.1,19.8,47.1,19.8,47.1,19.9z"/>
				</g>
				<g>
					<path class="st1" d="M42.5,39C42.5,39,42.5,39,42.5,39C42.5,38.9,42.5,38.9,42.5,39C42.5,38.9,42.5,38.9,42.5,39
						C42.4,39,42.4,39,42.5,39C42.4,39,42.5,39,42.5,39z"/>
				</g>
				<g>
					<path class="st1" d="M47.9,38.9C47.9,38.9,47.8,38.9,47.9,38.9C47.8,38.9,47.8,38.9,47.9,38.9C47.9,39,47.9,39,47.9,38.9
						C48,39,47.9,39,47.9,38.9C47.9,38.9,47.9,38.9,47.9,38.9z"/>
				</g>
				<g>
					<path class="st1" d="M50.3,33.1H40v7c0,2.8,2.4,5.2,5.2,5.2c2.8,0,5.2-2.4,5.2-5.1V33.1z M46.3,44.4c-0.7-0.4-0.6-0.4-1.1-0.5
						c-0.5,0.1-0.4,0.1-1.1,0.5c0.1-0.2,0.6-0.5,0.6-0.6c-0.2-0.1-0.7,0-0.9,0.2c0.1-0.2,0.3-0.3,0.8-0.5c0.2,0,0.3,0,0.3-0.5
						c0-0.7,0-1.3,0-1.8c0,0,0,0-0.1,0c0,0,0,0.1,0,0.1c0.1,0,0,0.1,0.1,0.2c-0.1,0-0.1,0-0.1,0c-0.1,0,0,0.1,0,0.2c0,0-0.1,0-0.2,0
						c-0.1,0-0.1,0-0.1,0c0,0,0,0.1,0.1,0.1c-0.1,0-0.1,0-0.2-0.1c0,0-0.1,0-0.1-0.1c0,0,0-0.1,0-0.1c0-0.1,0-0.1-0.1-0.2
						c0,0,0,0.1,0,0.1c0-0.2-0.1-0.2-0.2-0.3c-0.1-0.1-0.3-0.1-0.3-0.1c-0.1,0-0.1,0-0.1,0c0,0,0,0.1,0,0.1c0,0-0.2-0.1-0.2-0.2
						c0-0.1,0-0.2-0.1-0.2c-0.1,0.7-0.5,0.7-0.6,0.9c0.3-0.1,0.3,0,0.4-0.1c0.2-0.2,0.3-0.3,0.5-0.2c0.1,0.1,0.2,0.1,0.3,0
						c0.2,0,0.3,0.1,0.3,0.2c0,0,0.1,0.1,0.1,0.2c0,0-0.1-0.1-0.3-0.1c0,0-0.1,0.1-0.2,0.1c0,0.1,0,0.1,0,0.2c0,0.1,0,0.1,0,0.2
						c0,0-0.1,0-0.1,0c0,0,0,0.1,0,0.2c0,0,0,0-0.1,0c0,0-0.1,0.1,0.1,0.1c0.2,0,0.4,0,0.5-0.2c0,0,0.1-0.1,0.1-0.1
						c0.1,0,0.1-0.1,0.2-0.1c0,0,0.1,0,0.1,0c0,0,0,0.1,0.1,0.1c0.1,0,0.1,0,0.1,0.1c0,0-0.1,0-0.1,0c0,0,0,0.1,0,0.1
						c0,0,0.1,0,0.1,0c0,0-0.1,0-0.1,0c0,0,0,0-0.1,0.1c0,0.1,0.1,0,0.1,0.1c0,0,0,0-0.1,0.1c0,0-0.1,0-0.1,0c-0.1,0-0.1,0-0.2,0
						c-0.1,0-0.2,0-0.3-0.1c-0.1,0-0.2,0-0.3,0.1c-0.2,0.1-0.3,0.1-0.5,0.1c-0.2,0-0.2,0-0.2-0.2c0-0.1,0-0.1,0-0.2
						C43,42.1,43,42.1,43,42c0,0.1,0,0.2,0.1,0.3c-0.1,0-0.1-0.1-0.2-0.2c-0.1-0.1-0.1-0.1-0.2-0.2c-0.1,0-0.1,0-0.2,0
						c0,0,0,0,0,0.1c0.2,0.1,0.2,0.3,0.1,0.6c0,0.1,0.1,0.2,0.1,0.3c0.1,0.2,0,0.4,0,0.5c0-0.2,0-0.2-0.1-0.3c0,0-0.1-0.1-0.1-0.1
						c-0.1,0.1-0.2,0.1-0.3,0.1c-0.1,0-0.1,0.1-0.1,0.1c0,0,0,0.2,0,0.2c0,0,0,0.1,0.2,0.1c0,0,0.1,0,0.1,0c0,0,0.1,0,0.1,0.1
						c0,0,0,0.1,0.1,0.2c-0.1,0-0.1,0-0.2,0c0,0-0.1,0-0.1,0c0,0-0.1,0.1-0.3,0c0-0.1-0.2-0.1-0.2-0.1c0,0-0.1,0-0.1-0.1
						c0.1-0.1,0.1-0.1,0.1-0.3c0,0,0-0.1,0-0.2c0-0.1-0.1-0.2,0.1-0.2c0.1,0,0.2-0.1,0.2-0.2c0-0.1-0.1-0.2-0.2-0.2
						c-0.1-0.1-0.1-0.3-0.1-0.4c-0.5-0.1-0.5-0.6-0.6-0.7c0-0.1,0-0.7,0-0.7c0,0,0.1-0.8-0.2-0.6c0,0-0.1-0.2,0-0.2
						c-0.1-0.1-0.1-0.1-0.1-0.4c0-0.1,0-0.3-0.1-0.5c0.1,0,0.2,0.2,0.3,0.4c0,0.2,0.1,0.3,0.1,0.3c0.2,0.2,0.1,0.4,0.1,0.7
						c0,0.2,0,0.5-0.1,0.7c0,0.2,0.1,0.7,0.5,0.7c0.2-0.2,0.5-0.8,0.2-1.2c0,0-0.1,0.1-0.2,0.1c0-0.2,0-0.2-0.1-0.4
						c0,0-0.1-0.1,0-0.2c0,0-0.2,0.1-0.2,0c0,0,0.1,0,0-0.2c0-0.1,0-0.2,0-0.3c-0.1,0-0.1-0.2-0.1-0.3c0.1,0,0.1,0.1,0.2-0.1
						c0,0,0-0.1,0.1-0.1c-0.1-0.1,0-0.1,0-0.2c0.1,0.1,0.2,0.1,0.3,0c0.1-0.1,0.1-0.1,0.2-0.1c0.1,0,0.1,0,0.2,0
						c0.2-0.1,0.2,0,0.3,0c0.1,0,0.1,0,0.2,0c0.1,0,0.1,0,0.1,0c0,0.1,0,0.1,0,0.2c0,0.1-0.1,0.1-0.1,0.1c0,0-0.1,0-0.1,0.1
						c0,0,0-0.1-0.1-0.1c-0.1,0-0.1,0-0.1,0.1c0,0.1,0,0.2,0.1,0.2c0,0,0-0.1,0-0.1c0.1,0,0.1,0.1,0.1,0.1c0.1,0,0.1,0.1,0,0.1
						c0,0.1-0.2,0.1-0.2,0c-0.1-0.1-0.1,0.1-0.1,0.1c0,0,0.1,0.1,0.3,0c0.1-0.1,0.1-0.1,0.3-0.2c0.1,0,0.1,0,0.1-0.1
						c0.1,0,0.1,0.1,0.1,0.1c0.2,0,0.4-0.1,0.4-0.2c0,0,0.1,0,0.1,0.1c0.2-0.1,0.3-0.3,0.3-0.4c0-0.1,0.1-0.2,0.1-0.2
						c0.1,0,0.1,0,0.1,0c0.1-0.1,0.1,0,0.2,0c0.2,0,0.2,0,0.2,0c0.1,0.1,0.1,0.2,0.1,0.3c0,0,0,0.1-0.1,0.1c0,0,0-0.1,0-0.1
						c0,0,0,0,0,0c0,0.1,0,0.1-0.1,0.2c0,0,0-0.1,0-0.1h0c-0.1,0,0,0.1-0.1,0.2c0,0,0-0.1,0-0.1c0,0,0,0-0.1,0
						c-0.1,0.1-0.1,0.2-0.2,0.4c0,0.1,0,0.1,0,0.2c0,0.2-0.2,0.3-0.3,0.3c0,0,0,0,0,0.1c0.1,0.1,0.2,0.1,0.2,0.2
						c0.1,0.1,0.2,0.2,0.3,0.3c-0.2,0-0.5,0-0.6-0.3c0,0,0,0-0.1,0c0,0.1,0.1,0.2,0.1,0.2c0.2,0.2,0.2,0.2,0.5,0.4
						c0.1,0,0.1,0.1,0.2,0c0.1,0,0.1,0,0.2,0.1c0,0,0,0,0,0.1c0-1.6,0-2.5,0.1-3c-0.1,0-0.1-0.1-0.2-0.2c-0.3,0.4-0.7-0.2-0.8-0.2
						c-0.1,0-0.2,0.1-0.4,0c-0.2,0-0.4,0-0.5-0.3c-0.1-0.1-0.4-0.1-0.3-0.5c-0.2-0.1-0.3-0.4-0.1-0.7c-0.4-0.4,0.1-0.9,0.2-1
						c0-0.1,0-0.3,0.4-0.3c0-0.5,0.6-0.4,0.6-0.4c0-0.1,0.2-0.4,0.5-0.2c0.1-0.4,0.7-0.2,0.7-0.1c0-0.1,0.6-0.2,0.7,0.1
						c0.3-0.2,0.5,0.1,0.5,0.2c0.1,0,0.6-0.1,0.6,0.4c0.3,0,0.3,0.2,0.4,0.3c0.2,0.1,0.6,0.6,0.2,1c0.2,0.3,0.1,0.6-0.1,0.7
						c0,0.5-0.2,0.4-0.4,0.5c-0.1,0.3-0.3,0.3-0.5,0.3c-0.2,0.2-0.3,0-0.4,0c-0.1,0-0.5,0.5-0.8,0.2c-0.1,0.1-0.1,0.1-0.2,0.1
						c0.1,0.7,0.1,2.1,0.1,4.9c0,0.5,0.1,0.5,0.3,0.5c0.5,0.2,0.7,0.3,0.8,0.5c-0.3-0.2-0.7-0.3-0.9-0.2
						C45.6,44,46.2,44.2,46.3,44.4z M47.5,39.3c0.1,0,0.2-0.1,0.3,0c-0.2-0.1-0.4,0.1-0.5,0c-0.1,0-0.2-0.2-0.1-0.3
						C47.1,39.4,47.4,39.3,47.5,39.3z M49.3,39.4c0,0.2,0,0.2-0.1,0.4c0.1,0.1,0.1,0.2,0,0.2c-0.3-0.2-0.2,0.5-0.2,0.6
						c0,0,0,0.5,0,0.7c0,0.2-0.1,0.7-0.6,0.7c0,0.1,0,0.3-0.1,0.4c-0.1,0.1-0.2,0.1-0.1,0.2c-0.1,0.2,0.1,0.2,0.2,0.2
						c0.2,0,0.2,0.2,0.1,0.2c0,0.1,0,0.1,0,0.2c0,0.2,0.1,0.2,0.1,0.3c0,0.1,0,0.1-0.1,0.1c0,0-0.2,0-0.2,0.1c-0.2,0.2-0.3,0-0.3,0
						c0,0,0,0-0.1,0c0-0.1-0.1-0.1-0.2,0c0-0.1,0.1-0.2,0.1-0.2c0.1,0,0.1,0,0.1-0.1c0.1,0,0.1,0,0.1,0c0.2,0,0.2-0.1,0.2-0.1
						c0-0.1,0-0.2,0-0.2c0,0,0-0.1-0.1-0.1c-0.1,0-0.2,0.1-0.3-0.1c0,0,0,0.1-0.1,0.1c-0.1,0.1-0.1,0.1-0.1,0.3c0-0.2-0.1-0.4,0-0.5
						c0-0.1,0.1-0.2,0.1-0.3c-0.1-0.3,0-0.5,0.1-0.6c0,0,0,0,0-0.1c-0.1,0-0.1,0-0.2,0c-0.1,0-0.1,0.1-0.2,0.2
						c0,0.1-0.1,0.2-0.2,0.2c0.1-0.1,0.1-0.2,0.1-0.3c0,0,0,0.1-0.1,0.1c-0.1,0.1,0,0.2,0,0.2c0.1,0.2,0,0.2-0.2,0.2
						c-0.2,0-0.3,0.1-0.5-0.1c-0.1,0-0.1-0.1-0.3-0.1c-0.1,0-0.1,0.1-0.3,0.1c-0.1,0-0.1,0-0.2,0c-0.1,0-0.1,0-0.1,0
						c-0.1,0-0.1,0-0.1-0.1c0,0,0.1,0,0.1-0.1c0,0,0,0-0.1-0.1c0,0-0.1,0-0.1,0c0,0,0.1,0,0.1,0c0,0,0.1-0.1,0-0.1c0,0-0.1,0-0.1,0
						c0-0.1,0.1,0,0.1-0.1c0,0,0,0,0.1-0.1c0.1,0,0.1,0,0.2,0c0,0,0.1,0.1,0.1,0.1c0.1,0,0.1,0.1,0.1,0.1c0.1,0.2,0.3,0.1,0.5,0.2
						c0.1,0,0.1-0.1,0.1-0.1c0,0,0,0-0.1,0c0-0.1,0-0.2,0-0.2c0,0,0,0-0.1,0c0-0.1,0.1-0.2,0-0.2c0-0.1,0-0.2,0-0.2
						c-0.1,0-0.1,0-0.2-0.1c-0.1,0-0.2,0-0.3,0.1c0-0.1,0.1-0.2,0.1-0.2c0,0,0.1-0.2,0.3-0.2c0.1,0,0.2,0.1,0.3,0
						c0.2-0.1,0.3,0,0.5,0.2c0.1,0.1,0.1,0,0.4,0.1c-0.2-0.3-0.5-0.3-0.6-0.9c0,0,0,0.1-0.1,0.2c0,0.1-0.2,0.1-0.2,0.2
						c0,0,0-0.1,0-0.1c0,0,0,0-0.1,0c-0.1,0-0.2,0-0.4,0.1c0,0-0.1,0.1-0.2,0.3c0,0,0-0.1,0-0.1c-0.1,0-0.1,0.1-0.1,0.2
						c0,0,0,0.1,0,0.1c0,0.1-0.1,0.1-0.2,0.1c0,0-0.1,0-0.1,0.1c0,0,0-0.1,0-0.1c0,0,0,0-0.1,0c-0.1,0-0.1,0-0.2,0
						c0-0.1,0.1-0.2,0-0.2c0,0-0.1,0-0.1,0c0-0.1,0-0.1,0.1-0.2c0,0,0,0,0-0.1c0,0,0,0-0.1,0c0,0,0-0.1,0-0.1
						c0.1-0.1,0.2-0.1,0.2-0.1c0.1,0.1,0.2,0,0.3,0c0.3-0.1,0.3-0.2,0.5-0.4c0-0.1,0.2-0.1,0.1-0.2c0,0,0,0-0.1,0
						c-0.1,0.2-0.4,0.3-0.6,0.3c0.1-0.1,0.2-0.1,0.3-0.3c0.1-0.1,0.1-0.2,0.2-0.2c0,0,0-0.1,0-0.1c-0.1,0-0.3-0.1-0.3-0.3
						c0-0.1,0-0.1,0-0.2c0-0.2-0.1-0.3-0.2-0.4c0,0,0,0,0,0c0,0,0,0.1,0,0.1c0,0,0-0.2-0.1-0.2c0,0,0,0,0,0c0,0,0,0.1,0,0.1
						c-0.1,0,0-0.1-0.1-0.2c0,0,0,0,0,0c0,0,0,0.1,0,0.1c0,0,0,0-0.1-0.1c0-0.1,0-0.2,0.1-0.3c0,0,0-0.1,0.2,0c0,0,0.1-0.1,0.1,0
						c0.1,0,0.1,0,0.1,0c0.1,0,0.1,0.1,0.1,0.2c0,0.1,0.1,0.3,0.3,0.4c0-0.1,0.1-0.2,0.1-0.1c0,0.1,0.2,0.3,0.4,0.2
						c0,0,0-0.1,0.1-0.1c0,0.1,0.1,0.1,0.2,0.1c0.2,0,0.2,0.1,0.3,0.2c0.2,0.1,0.3,0,0.3,0c0,0,0-0.1-0.1-0.1c0,0-0.2,0.1-0.2,0
						c0,0-0.1-0.1,0-0.1c0,0,0-0.1,0.1-0.1c0,0,0,0.1,0,0.1c0.1,0,0.1-0.1,0.1-0.2c0,0,0-0.1-0.2-0.1c0,0,0,0.1-0.1,0.1
						c0,0-0.1-0.1-0.1-0.1c0,0-0.1,0-0.1-0.1c0-0.1,0-0.1,0-0.2c0,0,0-0.1,0.1,0c0,0,0.1,0,0.2,0c0,0,0-0.1,0.2,0c0.1,0,0.1,0,0.2,0
						c0.1,0,0.2,0,0.2,0.1c0.1,0.1,0.2,0.1,0.3,0c0,0.1,0,0.1,0,0.2c0,0,0,0.1,0,0.1c0,0.1,0.2,0.1,0.2,0.1c0,0.1,0,0.2-0.1,0.3
						c0,0.1,0,0.2,0,0.3c-0.1,0.2,0,0.2,0,0.2c0,0.2-0.2,0.1-0.2,0c0,0.1,0,0.1,0,0.2c-0.2,0.2-0.2,0.2-0.2,0.4
						c-0.1,0-0.1,0-0.2-0.1c-0.2,0.4,0,1,0.2,1.2c0.4,0,0.5-0.5,0.5-0.7c0-0.2,0-0.5-0.1-0.7c0-0.2-0.1-0.4,0.1-0.7
						c0.1-0.1,0.1-0.2,0.1-0.3c0-0.2,0.2-0.4,0.3-0.4C49.3,39.1,49.3,39.3,49.3,39.4z"/>
				</g>
				<g>
					<path class="st1" d="M44.7,19.6L44.7,19.6c0,0.3,0.3,0.1,0.6,0v2.5h0.3v-2.9c0,0-0.1,0-0.1,0l0,0c0.7-0.2,1.3-0.2,1.6-0.2l0,0
						c0.7,0.1,1,0.1,1.1,0.3c0,0.2-1.1-0.2-1.1,0.5c0.1,0.5,1.5-0.7,3.6-0.8c2-0.1,2.2-0.6,2.5-0.7c-2.5,0.1-2-0.4-3.7-0.1
						c1.2-0.4,3-0.5,3.7-1.3c-1.3,0.4-1.8,0.1-2.8,0.1c-0.8-0.1-0.9-0.1-2,0c-0.3-1-1.7-1-2.7-0.8v-0.6h-0.2h-0.1v0.7l0,0
						c-0.4,0.1-0.7,0.3-0.7,0.3C44.8,17.2,44.9,18,44.7,19.6z M48.2,17l0.2,2l-0.2,0.2V17z M45.7,18.4h-0.2v0.2h-0.1v-0.2h-0.2v-0.1
						h0.2v-0.2h0.1v0.2h0.2V18.4z M47.1,18.4H47v0.2h-0.1v-0.2h-0.2v-0.1h0.2v-0.2H47v0.2h0.2V18.4z M46.7,16.9h0.2v-0.2H47v0.2h0.2
						V17H47v0.2h-0.1V17h-0.2V16.9z M45.5,16.3C45.4,16.3,45.4,16.3,45.5,16.3C45.4,16.3,45.4,16.3,45.5,16.3z M45.3,16.9h0.2v-0.2
						h0.1v0.2h0.2V17h-0.2v0.2h-0.1V17h-0.2V16.9z M45.3,17.4h0.3v0.1h0.5V17h-0.1v-0.3h0.6V17h-0.1v0.5h0.5v-0.1h0.3v0.6h-0.3v-0.2
						h-0.5v0.5h0.1v0.3h-0.6v-0.3h0.1v-0.5h-0.5v0.2h-0.3V17.4z"/>
				</g>
			</g>
		</g>
		<path class="st1" d="M38.8,44.4c0,0-0.6,0.5-1,0.6c0,0-0.6,1.1-1.8,1.1c-1.2,0-1.7-1-1.7-1v-0.5c0,0-1.1,0.4-2.3-0.7v0.7
			c0,0,0.6,0.8,2.1,0.8c0,0,0.1,1.5,1.9,1.5c1.8,0,1.9-1.2,1.9-1.2s0.3,0.2,0.8-0.2v0.5v0c0,0,2.3,3.1,6.4,3.1
			c4.1,0,6.4-3.1,6.4-3.1v-0.5c0.5,0.4,0.8,0.2,0.8,0.2s0.1,1.2,1.9,1.2c1.8,0,1.9-1.5,1.9-1.5c1.5,0,2.1-0.8,2.1-0.8v-0.7
			C57.1,45,56,44.6,56,44.6v0.5c0,0-0.5,1-1.7,1c-1.2,0-1.8-1.1-1.8-1.1c-0.4,0-1-0.6-1-0.6s-2,3.4-6.4,3.4
			C40.8,47.8,38.8,44.4,38.8,44.4z"/>
		<path class="st1" d="M53.1,18.8c0,0-0.7,0.5-2.2,0.6c-1.5,0.1-3,0.8-3,0.8s-1.2,0.7-1.1-0.7c0,0-0.2,0-0.8,0v1.4
			c0,0,0.8-0.1,0.8-0.1c0,0-0.1,1.2,0.8,0.9c0.9-0.3,1.9-0.8,2.7-0.8c0.8,0,1.9-0.2,2.9-0.7L53.1,18.8z"/>
		<path class="st1" d="M53.1,17.4c0,0-0.3,0.4-1.5,0.7c0,0,1.1,0,1.5,0L53.1,17.4z"/>
		<path class="st1" d="M58,38.3c0,0,0,0.9-1.1,1.5c0,0,0.2,0.4,0,1.2C57,40.9,58.1,40.5,58,38.3z"/>
		<path class="st1" d="M32.4,38.3c0,0,0,0.9,1.1,1.5c0,0-0.2,0.4-0.1,1.2C33.4,40.9,32.3,40.5,32.4,38.3z"/>
	</g>
	<g>
		<g>
			<polygon class="st1" points="44.4,62.9 23.1,62.6 44.4,62.4 44.8,62.6 			"/>
			<polygon class="st1" points="46.6,62.4 74.8,62.6 46.6,62.9 46.2,62.6 			"/>
		</g>
		<g>
			<path class="st1" d="M19.3,65l0.1,0.8h-0.1c-0.1-0.2-0.2-0.4-0.3-0.5c-0.2-0.2-0.4-0.2-0.6-0.2c-0.3,0-0.6,0.1-0.8,0.4
				c-0.1,0.2-0.2,0.5-0.2,0.8c0,0.3,0.1,0.5,0.2,0.7c0.1,0.2,0.2,0.4,0.4,0.5c0.2,0.1,0.3,0.1,0.5,0.1c0.1,0,0.2,0,0.3,0
				c0.1,0,0.2-0.1,0.3-0.1v-0.8c0-0.1,0-0.2,0-0.3c0,0-0.1-0.1-0.1-0.1c0,0-0.1,0-0.2,0v-0.1h1v0.1h0c-0.1,0-0.2,0-0.2,0.1
				c0,0.1,0,0.1,0,0.3v0.8c-0.1,0.1-0.3,0.1-0.4,0.2c-0.1,0-0.3,0-0.5,0c-0.5,0-0.9-0.2-1.2-0.5C17.1,67,17,66.7,17,66.4
				c0-0.2,0.1-0.4,0.2-0.7c0.1-0.3,0.3-0.4,0.5-0.6c0.2-0.1,0.4-0.2,0.7-0.2c0.1,0,0.2,0,0.3,0c0.1,0,0.2,0,0.3,0.1
				c0.1,0,0.1,0,0.2,0c0,0,0,0,0.1,0C19.2,65.1,19.2,65.1,19.3,65L19.3,65z"/>
			<path class="st1" d="M21.9,65c0.3,0,0.6,0.1,0.9,0.4c0.2,0.3,0.4,0.6,0.4,1c0,0.4-0.1,0.7-0.4,1c-0.3,0.3-0.6,0.4-0.9,0.4
				c-0.4,0-0.7-0.1-0.9-0.4c-0.2-0.3-0.4-0.6-0.4-1c0-0.4,0.1-0.8,0.4-1C21.2,65.1,21.5,65,21.9,65z M21.8,65.1
				c-0.2,0-0.4,0.1-0.6,0.3c-0.2,0.2-0.3,0.5-0.3,0.9c0,0.4,0.1,0.8,0.3,1c0.1,0.2,0.3,0.3,0.6,0.3c0.2,0,0.4-0.1,0.6-0.3
				c0.2-0.2,0.2-0.5,0.2-0.9c0-0.4-0.1-0.8-0.3-1C22.3,65.2,22.1,65.1,21.8,65.1z"/>
			<path class="st1" d="M25.8,66.3c0.2,0,0.3,0.1,0.4,0.2c0.1,0.1,0.2,0.3,0.2,0.4c0,0.1,0,0.3-0.1,0.4c-0.1,0.1-0.2,0.2-0.3,0.3
				c-0.2,0.1-0.4,0.1-0.7,0.1h-1.2v-0.1h0.1c0.1,0,0.2,0,0.2-0.1c0,0,0-0.1,0-0.3v-1.7c0-0.2,0-0.3-0.1-0.3c0-0.1-0.1-0.1-0.2-0.1
				h-0.1v-0.1h1.1c0.2,0,0.4,0,0.5,0c0.2,0,0.3,0.1,0.5,0.2c0.1,0.1,0.1,0.3,0.1,0.4c0,0.1,0,0.3-0.1,0.4
				C26.1,66.2,26,66.3,25.8,66.3z M24.8,66.2c0,0,0.1,0,0.2,0c0.1,0,0.1,0,0.2,0c0.2,0,0.3,0,0.4-0.1c0.1,0,0.2-0.1,0.2-0.2
				c0.1-0.1,0.1-0.2,0.1-0.3c0-0.2-0.1-0.3-0.2-0.4c-0.1-0.1-0.3-0.2-0.5-0.2c-0.1,0-0.2,0-0.3,0V66.2z M24.8,67.5
				c0.1,0,0.3,0.1,0.4,0.1c0.2,0,0.4-0.1,0.5-0.2c0.1-0.1,0.2-0.2,0.2-0.4c0-0.1,0-0.2-0.1-0.3c-0.1-0.1-0.1-0.2-0.3-0.2
				c-0.1-0.1-0.3-0.1-0.5-0.1c-0.1,0-0.1,0-0.2,0c-0.1,0-0.1,0-0.1,0V67.5z"/>
			<path class="st1" d="M28.6,67.6L28.6,67.6l-1.1,0.1v-0.1h0.1c0.1,0,0.2,0,0.2-0.1c0,0,0-0.1,0-0.3v-1.7c0-0.1,0-0.2,0-0.3
				c0,0,0-0.1-0.1-0.1c-0.1,0-0.1,0-0.2,0h-0.1v-0.1h1.1v0.1h-0.1c-0.1,0-0.2,0-0.2,0.1c0,0-0.1,0.1-0.1,0.3v1.7c0,0.1,0,0.2,0,0.3
				c0,0,0,0.1,0.1,0.1C28.4,67.6,28.4,67.6,28.6,67.6L28.6,67.6z"/>
			<path class="st1" d="M30.2,65.2v1h0.6c0.2,0,0.3,0,0.3-0.1c0.1-0.1,0.1-0.2,0.1-0.3h0.1v0.9h-0.1c0-0.1,0-0.2-0.1-0.2
				c0,0-0.1-0.1-0.1-0.1c0,0-0.1,0-0.2,0h-0.6v0.9c0,0.1,0,0.2,0,0.2c0,0,0,0,0,0c0,0,0.1,0,0.2,0h0.4c0.1,0,0.2,0,0.3,0
				c0.1,0,0.1-0.1,0.2-0.1c0.1-0.1,0.2-0.2,0.2-0.4h0.1l-0.2,0.7h-2v-0.1h0.1c0.1,0,0.1,0,0.2,0c0,0,0.1-0.1,0.1-0.1
				c0,0,0-0.1,0-0.3v-1.7c0-0.2,0-0.3,0-0.3c0-0.1-0.1-0.1-0.2-0.1h-0.1v-0.1h2l0,0.6h-0.1c0-0.1,0-0.2-0.1-0.3c0,0-0.1-0.1-0.1-0.1
				c0,0-0.1,0-0.3,0H30.2z"/>
			<path class="st1" d="M35.2,67.7h-0.7l-0.9-1.2c-0.1,0-0.1,0-0.2,0c0,0,0,0-0.1,0c0,0,0,0-0.1,0v0.8c0,0.2,0,0.3,0.1,0.3
				c0,0.1,0.1,0.1,0.2,0.1h0.1v0.1h-1.1v-0.1h0.1c0.1,0,0.2,0,0.2-0.1c0,0,0-0.1,0-0.3v-1.7c0-0.2,0-0.3-0.1-0.3
				c-0.1-0.1-0.1-0.1-0.2-0.1h-0.1v-0.1h1c0.3,0,0.5,0,0.6,0.1c0.1,0,0.2,0.1,0.3,0.2c0.1,0.1,0.1,0.2,0.1,0.4
				c0,0.2-0.1,0.3-0.2,0.4c-0.1,0.1-0.3,0.2-0.5,0.2l0.5,0.8c0.1,0.2,0.2,0.3,0.3,0.3C35,67.6,35.1,67.6,35.2,67.7L35.2,67.7z
				 M33.4,66.3C33.4,66.3,33.4,66.3,33.4,66.3c0.1,0,0.1,0,0.1,0c0.3,0,0.4-0.1,0.6-0.2c0.1-0.1,0.2-0.2,0.2-0.4
				c0-0.2-0.1-0.3-0.2-0.4c-0.1-0.1-0.2-0.2-0.4-0.2c-0.1,0-0.2,0-0.3,0V66.3z"/>
			<path class="st1" d="M35.8,65.1h0.7l1.6,2v-1.5c0-0.2,0-0.3-0.1-0.3c0-0.1-0.1-0.1-0.2-0.1h-0.1v-0.1h0.9v0.1h-0.1
				c-0.1,0-0.2,0-0.2,0.1c0,0,0,0.1,0,0.3v2.2h-0.1l-1.7-2.1v1.6c0,0.2,0,0.3,0.1,0.3c0,0.1,0.1,0.1,0.2,0.1h0.1v0.1H36v-0.1h0.1
				c0.1,0,0.2,0,0.2-0.1c0,0,0-0.1,0-0.3v-1.8c-0.1-0.1-0.1-0.1-0.2-0.2c0,0-0.1-0.1-0.2-0.1C36,65.1,35.9,65.1,35.8,65.1L35.8,65.1
				z"/>
			<path class="st1" d="M40.9,65c0.3,0,0.6,0.1,0.9,0.4c0.3,0.3,0.4,0.6,0.4,1c0,0.4-0.1,0.7-0.4,1c-0.3,0.3-0.6,0.4-0.9,0.4
				c-0.4,0-0.7-0.1-0.9-0.4c-0.2-0.3-0.4-0.6-0.4-1c0-0.4,0.1-0.8,0.4-1C40.3,65.1,40.6,65,40.9,65z M40.9,65.1
				c-0.2,0-0.4,0.1-0.6,0.3c-0.2,0.2-0.3,0.5-0.3,0.9c0,0.4,0.1,0.8,0.3,1c0.1,0.2,0.3,0.3,0.6,0.3c0.2,0,0.4-0.1,0.6-0.3
				c0.2-0.2,0.2-0.5,0.2-0.9c0-0.4-0.1-0.8-0.3-1C41.3,65.2,41.1,65.1,40.9,65.1z"/>
			<path class="st1" d="M44.8,67.7L44.8,67.7L44.8,67.7c0.2-0.1,0.3-0.1,0.3-0.2c0,0,0-0.1,0-0.3v-1.7c0-0.2,0-0.3-0.1-0.3
				c-0.1-0.1-0.1-0.1-0.2-0.1h-0.1v-0.1h1.1c0.4,0,0.7,0,0.9,0.1c0.2,0.1,0.4,0.2,0.5,0.4c0.1,0.2,0.2,0.5,0.2,0.7
				c0,0.4-0.1,0.7-0.3,0.9c-0.2,0.3-0.6,0.4-1.1,0.4H44.8z M45.6,67.5c0.2,0,0.3,0.1,0.4,0.1c0.3,0,0.5-0.1,0.8-0.3
				c0.2-0.2,0.3-0.5,0.3-0.9c0-0.4-0.1-0.6-0.3-0.9c-0.2-0.2-0.5-0.3-0.8-0.3c-0.1,0-0.2,0-0.4,0.1V67.5z"/>
			<path class="st1" d="M49.2,65.2v1h0.6c0.2,0,0.3,0,0.3-0.1c0.1-0.1,0.1-0.2,0.1-0.3h0.1v0.9h-0.1c0-0.1,0-0.2-0.1-0.2
				c0,0-0.1-0.1-0.1-0.1c0,0-0.1,0-0.2,0h-0.6v0.9c0,0.1,0,0.2,0,0.2c0,0,0,0,0.1,0c0,0,0.1,0,0.1,0h0.4c0.1,0,0.3,0,0.3,0
				c0.1,0,0.1-0.1,0.2-0.1c0.1-0.1,0.2-0.2,0.2-0.4h0.1l-0.2,0.7h-2v-0.1h0.1c0.1,0,0.1,0,0.2,0c0,0,0.1-0.1,0.1-0.1
				c0,0,0-0.1,0-0.3v-1.7c0-0.2,0-0.3-0.1-0.3c0-0.1-0.1-0.1-0.2-0.1h-0.1v-0.1h2l0,0.6h-0.1c0-0.1-0.1-0.2-0.1-0.3
				c0,0-0.1-0.1-0.1-0.1c0,0-0.1,0-0.3,0H49.2z"/>
			<path class="st1" d="M53.8,67L53.8,67l-0.2,0.7h-2v-0.1h0.1c0.1,0,0.2,0,0.2-0.1c0,0,0-0.1,0-0.3v-1.7c0-0.2,0-0.3,0-0.3
				c-0.1-0.1-0.1-0.1-0.2-0.1h-0.1v-0.1h1.2v0.1c-0.1,0-0.2,0-0.3,0c-0.1,0-0.1,0.1-0.1,0.1c0,0,0,0.1,0,0.3v1.6c0,0.1,0,0.2,0,0.2
				c0,0,0,0,0.1,0.1c0,0,0.1,0,0.3,0h0.2c0.2,0,0.3,0,0.4,0c0.1,0,0.2-0.1,0.2-0.2C53.6,67.2,53.7,67.1,53.8,67z"/>
			<path class="st1" d="M57,65.2v1h0.6c0.1,0,0.2,0,0.3-0.1C58,66.1,58,66,58,65.9h0.1v0.9H58c0-0.1,0-0.2-0.1-0.2
				c0,0-0.1-0.1-0.1-0.1c-0.1,0-0.1,0-0.2,0H57v0.9c0,0.1,0,0.2,0,0.2c0,0,0,0,0.1,0c0,0,0.1,0,0.1,0h0.4c0.1,0,0.3,0,0.3,0
				c0.1,0,0.1-0.1,0.2-0.1c0.1-0.1,0.2-0.2,0.2-0.4h0.1l-0.2,0.7h-2v-0.1h0.1c0.1,0,0.1,0,0.2,0c0,0,0.1-0.1,0.1-0.1
				c0,0,0-0.1,0-0.3v-1.7c0-0.2,0-0.3,0-0.3c0-0.1-0.1-0.1-0.2-0.1h-0.1v-0.1h2l0,0.6h-0.1c0-0.1-0.1-0.2-0.1-0.3
				c0,0-0.1-0.1-0.1-0.1c0,0-0.1,0-0.3,0H57z"/>
			<path class="st1" d="M61.1,65v0.9h-0.1c0-0.2-0.1-0.3-0.1-0.4c-0.1-0.1-0.1-0.2-0.3-0.2c-0.1-0.1-0.2-0.1-0.3-0.1
				c-0.1,0-0.2,0-0.3,0.1c-0.1,0.1-0.1,0.2-0.1,0.3c0,0.1,0,0.2,0.1,0.2c0.1,0.1,0.3,0.2,0.6,0.4c0.2,0.1,0.4,0.2,0.5,0.3
				c0.1,0.1,0.2,0.2,0.2,0.2c0,0.1,0.1,0.2,0.1,0.3c0,0.2-0.1,0.4-0.2,0.5c-0.2,0.1-0.4,0.2-0.6,0.2c-0.1,0-0.1,0-0.2,0
				c0,0-0.1,0-0.2-0.1c-0.1,0-0.2-0.1-0.2-0.1c0,0-0.1,0-0.1,0c0,0,0,0.1,0,0.1h-0.1v-0.9h0.1c0,0.2,0.1,0.3,0.1,0.4
				c0.1,0.1,0.1,0.2,0.3,0.2c0.1,0.1,0.3,0.1,0.4,0.1c0.2,0,0.3,0,0.4-0.1c0.1-0.1,0.1-0.2,0.1-0.3c0-0.1,0-0.1-0.1-0.2
				c0-0.1-0.1-0.1-0.2-0.2c0,0-0.2-0.1-0.4-0.2c-0.2-0.1-0.4-0.2-0.5-0.3c-0.1-0.1-0.2-0.2-0.2-0.3c0-0.1-0.1-0.2-0.1-0.3
				c0-0.2,0.1-0.4,0.2-0.5c0.1-0.1,0.3-0.2,0.5-0.2c0.1,0,0.3,0,0.5,0.1c0.1,0,0.1,0.1,0.1,0.1c0,0,0.1,0,0.1,0
				C61,65.1,61.1,65.1,61.1,65L61.1,65z"/>
			<path class="st1" d="M64.5,65.1l0,0.6h-0.1c0-0.1,0-0.2-0.1-0.2c0-0.1-0.1-0.1-0.2-0.2c-0.1,0-0.2-0.1-0.3-0.1h-0.4v2
				c0,0.2,0,0.3,0.1,0.3c0,0.1,0.1,0.1,0.2,0.1H64v0.1h-1.1v-0.1H63c0.1,0,0.2,0,0.2-0.1c0,0,0-0.1,0-0.3v-2H63c-0.1,0-0.2,0-0.3,0
				c-0.1,0-0.1,0.1-0.2,0.1c0,0.1-0.1,0.2-0.1,0.3h-0.1l0-0.6H64.5z"/>
			<path class="st1" d="M66.9,66.8h-1l-0.2,0.4c0,0.1-0.1,0.2-0.1,0.2c0,0,0,0.1,0,0.1c0,0,0.1,0,0.2,0.1v0.1h-0.8v-0.1
				c0.1,0,0.2,0,0.2-0.1c0.1-0.1,0.1-0.2,0.2-0.4l0.9-2.2h0.1l0.9,2.2c0.1,0.2,0.1,0.3,0.2,0.3c0.1,0.1,0.1,0.1,0.2,0.1v0.1h-1v-0.1
				c0.1,0,0.2,0,0.2,0c0,0,0.1-0.1,0.1-0.1c0-0.1,0-0.1-0.1-0.3L66.9,66.8z M66.8,66.7l-0.4-1.1l-0.5,1.1H66.8z"/>
			<path class="st1" d="M68.7,67.7L68.7,67.7L68.7,67.7c0.2-0.1,0.3-0.1,0.3-0.2c0,0,0-0.1,0-0.3v-1.7c0-0.2,0-0.3-0.1-0.3
				c0-0.1-0.1-0.1-0.2-0.1h-0.1v-0.1h1.1c0.4,0,0.7,0,0.9,0.1c0.2,0.1,0.4,0.2,0.5,0.4c0.1,0.2,0.2,0.5,0.2,0.7
				c0,0.4-0.1,0.7-0.3,0.9c-0.3,0.3-0.6,0.4-1.1,0.4H68.7z M69.5,67.5c0.2,0,0.3,0.1,0.4,0.1c0.3,0,0.5-0.1,0.7-0.3
				c0.2-0.2,0.3-0.5,0.3-0.9c0-0.4-0.1-0.6-0.3-0.9c-0.2-0.2-0.5-0.3-0.8-0.3c-0.1,0-0.2,0-0.4,0.1V67.5z"/>
			<path class="st1" d="M73.7,65c0.3,0,0.6,0.1,0.9,0.4c0.2,0.3,0.4,0.6,0.4,1c0,0.4-0.1,0.7-0.4,1c-0.2,0.3-0.6,0.4-0.9,0.4
				c-0.4,0-0.7-0.1-0.9-0.4c-0.2-0.3-0.4-0.6-0.4-1c0-0.4,0.1-0.8,0.4-1C73,65.1,73.3,65,73.7,65z M73.6,65.1
				c-0.2,0-0.4,0.1-0.6,0.3c-0.2,0.2-0.3,0.5-0.3,0.9c0,0.4,0.1,0.8,0.3,1c0.1,0.2,0.3,0.3,0.6,0.3c0.2,0,0.4-0.1,0.6-0.3
				c0.2-0.2,0.2-0.5,0.2-0.9c0-0.4-0.1-0.8-0.3-1C74.1,65.2,73.9,65.1,73.6,65.1z"/>
		</g>
		<g>
			<g>
				<path class="st1" d="M18.9,50.7v0.2c0.4,0,0.9-0.1,1.2,0.6c0.1,0.1,0.1,0.5,0.1,0.8v7c0,0.4,0,0.8,0,1c0,0.2-0.1,0.5-0.2,0.7
					c-0.1,0.2-0.2,0.3-0.4,0.5c-0.2,0.1-0.5,0.2-0.8,0.2c-0.5,0-0.7-0.1-0.7-0.4c0-0.1,0-0.1,0.1-0.2c0-0.1,0-0.2,0-0.2
					c0-0.1,0-0.2-0.1-0.4c-0.1-0.1-0.2-0.2-0.3-0.3C17.6,60,17.4,60,17.2,60c-0.3,0-0.5,0.1-0.7,0.3c-0.2,0.2-0.3,0.4-0.3,0.6
					c0,0.3,0.1,0.5,0.3,0.7c0.2,0.2,0.5,0.4,0.8,0.5c0.4,0.1,0.8,0.2,1.2,0.2c0.3,0,0.6,0,1-0.1c0.4-0.1,0.8-0.2,1.2-0.5
					c0.4-0.2,0.8-0.6,1-1c0.2-0.3,0.3-0.6,0.3-0.9c0-0.3,0.1-0.7,0.1-1.1v-6.4c0-0.3,0-0.6,0.1-0.8c0.3-0.6,0.8-0.6,1.2-0.6v-0.2
					H18.9z M21.3,59.7c0,0-0.3,1.9-1.9,1.9h0c0,0,0,0,0,0c1.5-0.1,1.7-1.9,1.7-1.9s0-5.7,0-7.2c0-0.9-0.8-1.2-1.4-1.4c0,0,0,0-0.1,0
					c0.7,0.1,1.6,0.5,1.6,1.4C21.3,53.9,21.3,59.7,21.3,59.7z"/>
			</g>
			<g>
				<path class="st1" d="M32,59.2c-0.2-0.2-0.5-0.6-0.8-1.3L28,50.5h-0.1l-0.6,1.2c0.1,0.3,2.6,6.1,3,6.8c0.3,0.8-1.2,0.9-1.2,0.9
					l0,0c0.1,0,0.1,0,0.2,0c0.4-0.1,1.2-0.3,0.9-0.8c-0.3-0.7-2.5-5.6-2.9-6.6l-2.6,5.8c-0.3,0.7-0.6,1.1-0.8,1.4
					c-0.2,0.2-0.5,0.3-0.8,0.4v0.2h3v-0.2c-0.5,0-0.8-0.1-0.9-0.2c-0.2-0.1-0.3-0.3-0.3-0.5c0.1-0.3,0.5-2.2,3.3-2.3
					c0,0-0.9-0.8-2.3-0.2L26,56l1.1-2.5l1.2,2.7l0.4,0.9h0l0.1,0.2l0,0l0.4,0.9c0.1,0.3,0.2,0.5,0.2,0.5c0,0.1,0,0.2,0,0.2
					c0,0.1-0.1,0.2-0.1,0.3c-0.1,0.1-0.4,0.1-0.7,0.1h-0.2v0.2h4.4v-0.2C32.4,59.4,32.2,59.3,32,59.2z"/>
			</g>
			<path class="st2" d="M25.5,56.9l-0.9,2c0,0-0.2,0.4,0.7,0.5c-0.1,0-0.2,0-0.2-0.1c-0.2-0.1-0.3-0.3-0.3-0.5
				c0.1-0.3,0.5-2.2,3.3-2.3C28.1,56.4,26.7,56,25.5,56.9z"/>
			<g>
				<path class="st1" d="M41.5,56.5c-0.2,0.7-0.4,1.2-0.7,1.6c-0.2,0.4-0.5,0.6-0.8,0.8c-0.3,0.2-0.7,0.2-1.2,0.2H38
					c-0.4,0-0.7,0-0.8-0.1c-0.2-0.1-0.3-0.2-0.3-0.3c0-0.1-0.1-0.4-0.1-0.9v-5.7c0-0.4,0-0.7,0.1-0.8c0.1-0.2,0.2-0.3,0.3-0.3
					c0.2-0.1,0.4-0.1,0.6-0.1h0.4v-0.2h-4.8v0.2h0.3c0.3,0,0.5,0,0.6,0.1c0.2,0.1,0.2,0.2,0.3,0.3c0,0.1,0.1,0.4,0.1,0.9v5.9
					c0,0.4,0,0.7-0.1,0.8c-0.1,0.1-0.2,0.3-0.3,0.3c-0.2,0.1-0.4,0.1-0.6,0.1h-0.3v0.2h8l0.3-3.2H41.5z M34.2,59.4
					C34.2,59.4,34.2,59.4,34.2,59.4c1.4-0.1,1.5-0.8,1.5-0.8s0-5.6,0-6.6c0-0.6-0.8-0.9-1.5-0.9c0,0-0.1,0-0.1,0
					c0.7,0.1,1.8,0.3,1.7,1c0,1,0,6.6,0,6.6S35.7,59.4,34.2,59.4z"/>
			</g>
			<g>
				<path class="st1" d="M46,51.4c0.1-0.2,0.2-0.3,0.3-0.3c0.2-0.1,0.4-0.1,0.6-0.1h0.3v-0.2h-4.7v0.2h0.3c0.2,0,0.5,0,0.6,0.1
					c0.1,0.1,0.2,0.2,0.3,0.3c0.1,0.1,0.1,0.4,0.1,0.9v5.9c0,0.4,0,0.7-0.1,0.8c-0.1,0.1-0.1,0.3-0.3,0.3c-0.2,0.1-0.4,0.1-0.6,0.1
					h-0.3v0.2h4.7v-0.2h-0.3c-0.3,0-0.5,0-0.6-0.1c-0.1-0.1-0.2-0.2-0.3-0.3c0-0.1-0.1-0.4-0.1-0.9v-5.9C46,51.7,46,51.5,46,51.4z
					 M43.3,59.4C43.3,59.4,43.3,59.4,43.3,59.4c1.4-0.1,1.5-0.8,1.5-0.8s0-5.6,0-6.7c0-0.6-0.8-0.8-1.5-0.9c0,0-0.1,0-0.1,0
					c0.7,0.1,1.7,0.2,1.7,1c0,1,0,6.7,0,6.7S44.9,59.4,43.3,59.4z"/>
			</g>
			<g>
				<path class="st1" d="M54,55.5c-0.4-0.5-1.1-0.9-2.1-1.5c-0.8-0.4-1.2-0.6-1.4-0.8c-0.3-0.2-0.5-0.4-0.6-0.6
					c-0.1-0.1-0.1-0.3-0.1-0.5c0-0.3,0.1-0.6,0.4-0.8c0.3-0.2,0.6-0.4,1.1-0.4c0.6,0,1.1,0.2,1.6,0.7c0.5,0.5,0.8,1.1,0.9,1.8H54
					l-0.1-3h-0.2c-0.1,0.3-0.1,0.4-0.2,0.5c-0.1,0.1-0.2,0.1-0.3,0.1c-0.1,0-0.3-0.1-0.6-0.2c-0.3-0.1-0.6-0.2-0.8-0.3
					c-0.1,0-0.2,0-0.3-0.1c-0.5,0-2.4,0.3-2.4,2.2c0.1,2.3,4.9,2.2,4.8,4.9c0,1.4-1.7,1.8-2.4,1.8c0.1,0,0.2,0,0.3,0c0,0,0,0,0.1,0
					c0.8-0.1,1.9-0.6,1.8-1.7c0.1-2.7-4.8-2.6-4.8-4.9c0-1.9,2-2.2,2.6-2.3c-0.2,0-0.3,0-0.5,0c-0.8,0-1.5,0.3-2,0.8
					c-0.5,0.5-0.8,1.1-0.8,1.8c0,0.4,0.1,0.8,0.3,1.2c0.2,0.4,0.5,0.7,0.8,0.9c0.4,0.3,1,0.6,1.8,1c0.6,0.3,1,0.5,1.2,0.7
					c0.2,0.2,0.4,0.4,0.5,0.6c0.1,0.2,0.2,0.4,0.2,0.6c0,0.4-0.1,0.7-0.4,0.9c-0.3,0.3-0.7,0.4-1.2,0.4c-0.6,0-1.2-0.3-1.8-0.7
					c-0.6-0.5-0.9-1.2-1.1-2.2h-0.3v3.4h0.3c0.1-0.2,0.2-0.3,0.3-0.4c0.1-0.1,0.3-0.1,0.4-0.1c0.1,0,0.3,0,0.5,0.1
					c0.4,0.2,0.7,0.3,1,0.3c0.3,0.1,0.5,0.1,0.8,0.1c0.9,0,1.6-0.3,2.2-0.8c0.6-0.5,0.9-1.2,0.9-1.9C54.6,56.5,54.4,56,54,55.5z"/>
			</g>
			<g>
				<g>
					<path class="st1" d="M73.8,51.8c-0.9-0.9-2.1-1.3-3.5-1.3c-1.3,0-2.5,0.4-3.4,1.3c-0.9,0.9-1.4,2-1.4,3.3
						c0,1.2,0.4,2.2,1.1,3.1c0.9,1.1,2.1,1.6,3.8,1.6c1.6,0,2.9-0.6,3.8-1.7c0.7-0.9,1-1.9,1-3C75.1,53.8,74.7,52.7,73.8,51.8z
						 M70.3,59.7C70.3,59.7,70.3,59.7,70.3,59.7c-0.6,0-3.8-0.4-3.8-4.5c0-4.5,3.8-4.5,3.8-4.5s3.8,0,3.8,4.5
						C74.1,59.7,70.3,59.7,70.3,59.7z"/>
				</g>
				<g>
					<path class="st1" d="M73.9,55.2c0-4.5-3.6-4.5-3.6-4.5s-3.7,0-3.6,4.5c0,4.1,3.1,4.5,3.6,4.5c0,0,0.1,0,0.1,0
						S73.9,59.7,73.9,55.2z M72.4,57.7c-0.2,0.6-0.5,1.1-0.9,1.4c-0.3,0.2-0.7,0.3-1.1,0.3c-0.7,0-1.2-0.3-1.6-0.8
						c-0.5-0.7-0.8-1.9-0.8-3.4c0-1.3,0.2-2.3,0.5-3c0.4-0.8,1.1-1.3,1.9-1.3c0.5,0,0.8,0.1,1.2,0.4c0.3,0.2,0.6,0.7,0.8,1.3
						c0.2,0.6,0.3,1.5,0.3,2.7C72.7,56.2,72.6,57.1,72.4,57.7z"/>
				</g>
			</g>
			<g>
				<path class="st1" d="M59.5,51.5c0.5-0.3,1-0.5,1.6-0.5c0.7,0,1.3,0.2,1.8,0.7c0.5,0.4,0.9,1.1,1.1,1.9h0.3v-3.1H64
					c0,0.2-0.1,0.4-0.2,0.5c-0.1,0.1-0.2,0.2-0.4,0.2c-0.1,0-0.4-0.1-0.8-0.2c-0.7-0.3-1.4-0.4-2-0.4c-0.9,0-1.7,0.2-2.4,0.6
					c-0.8,0.4-1.4,1-1.8,1.8c-0.5,0.8-0.7,1.6-0.7,2.4c0,0.8,0.2,1.6,0.6,2.3c0.4,0.7,1,1.3,1.7,1.7c0.7,0.4,1.6,0.6,2.6,0.6
					c0.7,0,1.4-0.1,1.9-0.4c0.5-0.2,1.1-0.6,1.6-1.1v-0.8c-0.5,0.6-1,1-1.5,1.3c-0.5,0.2-1,0.4-1.6,0.4c-0.7,0-1.3-0.2-1.7-0.5
					c-0.4-0.3-0.8-0.8-1-1.5c-0.2-0.7-0.3-1.4-0.3-2.2c0-0.8,0.1-1.6,0.4-2.2C58.7,52.3,59.1,51.9,59.5,51.5z M56.9,55.2
					c0.1,3.2,1.9,4.4,3.8,4.4c-1.9,0-3.8-1-3.9-4.4c-0.1-3.6,2-4.6,3.9-4.5C58.9,50.7,56.8,51.7,56.9,55.2z"/>
			</g>
		</g>
	</g>
</g>
</svg>
