<?xml version="1.0" encoding="utf-8"?>
<!-- Generator: Adobe Illustrator 20.0.0, SVG Export Plug-In . SVG Version: 6.00 Build 0)  -->
<svg version="1.1" id="Layer_1" xmlns="http://www.w3.org/2000/svg" xmlns:xlink="http://www.w3.org/1999/xlink" x="0px" y="0px"
	 viewBox="0 0 182 127" style="enable-background:new 0 0 182 127;" xml:space="preserve">
<g>
	<polygon style="fill:#D72538;" points="77.4,87.5 42.7,30.5 54.5,29.5 89.3,86.5 	"/>
	<g>
		<g>
			<path style="fill:#0CAD9B;" d="M139.8,46.5c-19.7,1.7-34.3,19-32.6,38.7s19,34.3,38.7,32.6c19.7-1.7,34.3-19,32.6-38.7
				S159.5,44.9,139.8,46.5z M144.9,106.8c-13.6,1.2-25.6-8.9-26.7-22.6c-1.1-13.6,8.9-25.6,22.6-26.7c13.6-1.2,25.6,8.9,26.7,22.6
				S158.5,105.8,144.9,106.8z"/>
			<path style="fill:#1A9E8C;" d="M115.4,59.2c-12.7,15.1-10.8,37.7,4.3,50.4s37.7,10.8,50.4-4.3l-8.4-7.1
				c-8.8,10.4-24.4,11.7-34.9,3s-11.7-24.4-3-34.9L115.4,59.2z"/>
		</g>
		<g>
			<g>
				<path style="fill:#0CAD9B;" d="M32.9,55.6c-19.7,1.7-34.3,19-32.7,38.7s19,34.3,38.7,32.6c19.7-1.7,34.3-19,32.6-38.7
					C69.8,68.6,52.5,54,32.9,55.6z M37.9,115.9c-13.6,1.2-25.6-8.9-26.7-22.6s8.9-25.6,22.6-26.7s25.6,8.9,26.7,22.6
					C61.7,102.8,51.5,114.8,37.9,115.9z"/>
				<path style="fill:#1A9E8C;" d="M8.5,68.2c-12.7,15.1-10.8,37.7,4.3,50.4s37.7,10.8,50.4-4.3l-8.4-7.1
					c-8.8,10.4-24.4,11.7-34.9,3S8.1,85.7,17,75.2L8.5,68.2z"/>
			</g>
			<path style="fill:#D72538;" d="M32.9,55.6C17.4,56.9,5,68,1.3,82.2l33.6-2.9c6.6-0.6,12.3,4.3,12.9,10.8l0,0l23.7-2
				C69.8,68.6,52.5,54,32.9,55.6z"/>
			<path style="fill:#CD091D;" d="M33.9,67.2c-8.7,0.7-15.9,6.4-19.5,13.6l20.5-1.7c6.6-0.6,12.4,5,12.9,10.8l11.9-1
				C58.5,76,47,66.1,33.9,67.2z"/>
			<path style="fill:#D6D6D5;" d="M90.3,98.6l-47.5,4c-6.6,0.6-12.3-4.3-12.9-10.8l-0.5-6l47.5-4L108,25.4l23.7-2L90.3,98.6z"/>
			<path style="fill:#CFCFCF;" d="M90.3,98.6l-47.5,4c-6.6,0.6-12.3-4.3-12.9-10.8l0,0l53.5-4.5l36.6-62.9l11.9-1L90.3,98.6z"/>
			<g>
				<path style="fill:#424343;" d="M154.6,9.5l2,23.7l-11.9,1l-0.5-6l-12.4-5l-1.5-17.8c-0.3-3.3-3.2-5.8-6.5-5.5L100,2
					c-3.3,0.3-5.8,3.2-5.5,6.5l0,0c0.3,3.3,3.2,5.8,6.5,5.5l17.8-1.5l1,11.9l6.5,5.5l1,11.9l35.7-3L160.1,3L154.6,9.5z"/>
			</g>
		</g>
		<path style="fill:#D72538;" d="M143.3,88.2c-2.8,0.2-5.5-1.5-6.3-4.3l-16.9-58.4c-0.9-3.2,0.9-6.5,4.1-7.4
			c3.2-0.9,6.5,0.9,7.4,4.1l16.9,58.4c0.9,3.2-0.9,6.5-4.1,7.4C144.1,88.1,143.7,88.2,143.3,88.2z"/>
	</g>
	<path style="fill:#424343;" d="M30.4,25.9L30.4,25.9c0.6,6.6,6.4,11.4,12.9,10.8L73,34.2l0,0c-0.6-6.6-6.4-11.4-12.9-10.8
		L30.4,25.9z"/>
</g>
<g>
	<polygon style="fill:#702E8A;" points="181.9,126.6 116.3,126.6 158.1,84.9 158.1,55.1 181.9,55.1 	"/>
	<polygon style="fill:#551272;" points="181.9,126.6 116.3,126.6 158.1,84.9 158.1,55.1 	"/>
</g>
</svg>
