<?xml version="1.0" encoding="utf-8"?>
<!-- Generator: Adobe Illustrator 22.0.1, SVG Export Plug-In . SVG Version: 6.00 Build 0)  -->
<svg version="1.1" id="Capa_1" xmlns="http://www.w3.org/2000/svg" xmlns:xlink="http://www.w3.org/1999/xlink" x="0px" y="0px"
	 viewBox="0 0 436.1 391.8" style="enable-background:new 0 0 436.1 391.8;" xml:space="preserve">
<style type="text/css">
	.st0{fill:#F7F7F7;}
	.st1{fill:#10AE9C;}
	.st2{fill:#FFFF00;}
	.st3{fill:#EEC340;}
	.st4{fill:#E89626;}
	.st5{fill:#D6D6D5;}
</style>
<g>
	<g>
		
			<rect x="0" y="0" transform="matrix(-1 8.041688e-11 -8.041688e-11 -1 436.0569 391.8199)" class="st0" width="436.1" height="391.8"/>
		<g>
			<polygon class="st1" points="178.4,268.6 178.4,374.3 218,341 257.6,374.3 257.6,268.6 			"/>
			<polygon class="st2" points="202.6,274.9 202.6,354 218,341 233.5,354 233.5,274.9 			"/>
			<rect x="178.4" y="17" class="st1" width="79.2" height="103"/>
			<rect x="206.7" y="17" class="st2" width="22.7" height="103"/>
			<g>
				<circle class="st3" cx="218" cy="195.6" r="89.1"/>
				<circle class="st4" cx="218" cy="195.6" r="72"/>
				<g>
					<path class="st3" d="M256.5,185.7c-1.8,0-3.6,0.1-5.3,0.5l-1.1-2.8l18.3,0.4l0.5-27.3l-2.9,2.7l-0.3,18.8l-9.7-0.2l0.1-5.1
						l-7.9-4.1l0.3-12.6c0-2.2-1.7-4-3.9-4.1l-14.3-0.3c-2.2,0-5.3,1.7-5.3,3.9v1.2c0,2.2,2.3,6.2,5.1,6.2h12l-0.2,6.6l3.9,4.1
						l0,0.3c-0.9-0.7-2.1-1.1-3.2-0.8c-2.1,0.5-3.5,2.7-2.9,4.8c0,0,0.2,0.8,0.6,2.1l-23.5,32.7l-1.3,2.3h-0.5l-6.7-8.9l-4.4,0
						c-0.2-1.6-0.6-3.1-1.1-4.6l0.7,1.5l4.1,0.7l-14.3-29h16.2l-0.1-3.4c0,0-4.7-8-8.3-8h-19.7v3.4c0,4.1,4,7.4,8.1,7.9l10.8,21.9
						c-4.2-6.4-11.4-10.7-19.6-10.9c-13.3-0.3-24.2,10.2-24.5,23.5c-0.3,13.3,10.2,24.2,23.5,24.5c10.3,0.2,19.2-6.1,22.8-15.1h11.2
						h4.1h0.1l23.7-34.1c0.4,1.6,0.9,3.3,1.4,5.2c-6.3,4.2-10.6,11.3-10.8,19.5c-0.3,13.3,10.2,24.2,23.5,24.5
						c13.3,0.3,24.2-10.2,24.5-23.5C280.3,196.9,269.8,186,256.5,185.7z M180.4,193.1c7.9,0.2,14.3,5.8,15.9,13.2l-0.8,0
						c-2.3-6.7-10.4-12.6-17.9-12.6c-0.8,0-1.6,0.1-2.3,0.2C176.9,193.3,178.6,193,180.4,193.1z M179.7,226.3
						c-9.2-0.2-16.5-7.8-16.3-17c0-2.3,0.6-4.5,1.5-6.5h15.3c2.9,0,5.4,1.3,6.7,3.4l-11,0l-0.1,4c-0.1,4.4,3.4,8.3,7.8,8.4h10.4
						C191.1,223.3,185.7,226.4,179.7,226.3z M255.7,226.3c-9.2-0.2-16.5-7.8-16.3-17c0.1-4.7,2.2-9,5.4-11.9
						c1.8,6.6,3.3,12.5,3.5,13.2c0.5,1.8,2.8,2.8,4.1,3c1.2,0.2,2.7,0.1,3.8-0.3c2.1-0.7,3.6-3.4,3.1-5.6l-0.2-1.2l-5.2-13.3
						c0.8-0.1,1.6-0.2,2.4-0.1c9.2,0.2,16.5,7.8,16.3,17S264.8,226.5,255.7,226.3z"/>
					<polygon class="st3" points="208.6,206.9 188.6,166.9 196.6,166.9 216.6,206.9 					"/>
					<g>
						<path class="st3" d="M256.7,182.2c-13.3-0.3-24.2,10.2-24.5,23.5c-0.3,13.3,10.2,24.2,23.5,24.5c13.3,0.3,24.2-10.2,24.5-23.5
							C280.5,193.4,270,182.5,256.7,182.2z M255.9,222.8c-9.2-0.2-16.5-7.8-16.3-17s7.8-16.5,17-16.3c9.2,0.2,16.5,7.8,16.3,17
							C272.6,215.7,265,223,255.9,222.8z"/>
						<path class="st3" d="M239.6,188.9c-9.6,9.2-9.9,24.4-0.7,33.9c9.2,9.6,24.4,9.9,33.9,0.7l-5.1-5.3c-6.6,6.4-17.1,6.1-23.5-0.5
							c-6.4-6.6-6.1-17.1,0.5-23.5L239.6,188.9z"/>
					</g>
					<path class="st3" d="M180.7,182.2c-13.3-0.3-24.2,10.2-24.5,23.5c-0.3,13.3,10.2,24.2,23.5,24.5c13.3,0.3,24.2-10.2,24.5-23.5
						S194,182.5,180.7,182.2z M179.9,222.8c-9.2-0.2-16.5-7.8-16.3-17c0.2-9.2,7.8-16.5,17-16.3c9.2,0.2,16.5,7.8,16.3,17
						S189.1,223,179.9,222.8z"/>
					<g>
						<path class="st3" d="M163.6,188.9c-9.6,9.2-9.9,24.4-0.7,33.9c9.2,9.6,24.4,9.9,33.9,0.7l-5.1-5.3c-6.6,6.4-17.1,6.1-23.5-0.5
							c-6.4-6.6-6.1-17.1,0.5-23.5L163.6,188.9z"/>
					</g>
					<path class="st3" d="M180.4,182.6c-10.4-0.2-19.6,6.5-23,15.7l22.7-0.1c4.4,0.1,7.9,4.1,7.8,8.5l0,0l16,0.3
						C204.1,193.8,193.6,182.9,180.4,182.6z"/>
					<path class="st5" d="M180.6,189.8c-8.3,0-12,4.5-14.9,8.4l14.7,0c3.9,0.1,7.5,3.7,7.4,7.7l8.4,0.2
						C196.4,198.1,189.4,189.8,180.6,189.8z"/>
					<path class="st3" d="M215.9,215.1h-32.2c-4.4-0.1-7.9-4-7.8-8.4l0-3.9l32.3-0.1l24.5-35.1l16,0.3L215.9,215.1z"/>
					<path class="st5" d="M215.9,215.1h-32.2c-4.4-0.1-7.9-4-7.8-8.4v-0.2l36.4,0.1l28.4-38.7l8,0.2L215.9,215.1z"/>
					<g>
						<path class="st3" d="M264.9,160.4l-0.3,15.9l-8-0.1l0.1-4l-7.9-4.2l0-12c0-2.2-1.7-4-3.9-4.1l-15.7-0.3c-2.2,0-4,1.7-4.1,3.9
							v0c0,2.2,1.7,4,3.9,4.1l11.9,0l0,8.2l3.9,4.1l-0.2,8l24.1,0.4l0.4-23.8L264.9,160.4z"/>
					</g>
					<path class="st3" d="M255.6,211.3c-1.9,0.1-3.6-1.2-4.1-3L241,168.2c-0.5-2.1,1.2-3.8,3.3-4.3c2.2-0.5,4.1,1.2,4.6,3.3
						l10.4,39.3c0.5,2.1-0.8,4.3-2.9,4.8C256.1,211.3,255.9,211.3,255.6,211.3z"/>
					<path class="st3" d="M180,163.4L180,163.4c0,4.4,3.6,8,8,8h20l0,0c0-4.4-3.6-8-8-8H180z"/>
				</g>
			</g>
		</g>
	</g>
</g>
</svg>
