<svg xmlns="http://www.w3.org/2000/svg" xmlns:xlink="http://www.w3.org/1999/xlink" width="73.13" height="73.135" viewBox="0 0 73.13 73.135"><path fill="#303030" d="M73.13 0H37.042l.007.009c-.161 0-.322-.009-.49-.009C16.368 0 0 16.373 0 36.566c0 20.197 16.368 36.568 36.559 36.568 20.196 0 36.571-16.371 36.571-36.568 0-.715-.025-1.423-.068-2.123L73.13 0z"/><path fill="#FFF" d="M37.483 11.182l-.289 1.319.289.47.266-.47-.266-1.319zm-.022 1.605l-.175-.304.175-1.095.058 1.112-.058.287zM41.793 27.292l.179-.184.182.184.123-.128-.182-.179.182-.184-.123-.125-.182.184-.179-.184-.128.125.183.184-.183.179M42.205 30.691l-.197.194-.197-.194-.134.133.195.197-.195.192.134.141.197-.2.197.2.13-.141-.196-.192.196-.197M32.389 27.305l.206-.211.206.211.146-.148-.21-.206.21-.197-.146-.146-.206.205-.206-.205-.138.146.206.197-.206.206M32.898 31.226l-.21-.205.21-.209-.144-.148-.206.208-.216-.208-.144.148.207.209-.207.205.144.147.216-.209.206.209M33.171 34.901l-.171.174-.179-.174-.122.12.171.171-.171.177.122.123.179-.177.171.177.119-.123-.172-.177.172-.171M41.767 34.873l-.193.193-.19-.193-.131.133.194.185-.194.195.131.135.19-.197.193.197.133-.135-.196-.195.196-.185M37.463 37.604l-.196.202-.203-.202-.136.138.197.2-.197.199.136.141.203-.202.196.202.14-.141-.201-.199.201-.2M37.737 25.856c.463-.251.898-1.194 1.654-1.009-.896-.345-.951-.399-.971-.902-.176.23-.508.669-1.103.755.526.38.563.669.42 1.156M36.276 26.056c-.291.304-.582.482-.883.497.301-1.033 1.156-1.65 1.441-1.865-.118.013-.251-.043-.327-.073-.612.551-.881.956-1.314 1.801-.055.089-.129.251-.236.325.273.035.92-.019 1.319-.685M36.583 24.448c.036.034.217.034.306.034-.074-.249.037-.753.195-.896-.25.144-.501.056-.534.068.085.055.085.543.033.794"/><path fill="#FFF" d="M36.003 25.945v.016c0 .058.037.104.092.104.05 0 .093-.046.093-.104 0-.03-.043-.093-.093-.093-.04 0-.072.037-.092.077M35.66 26.249v.021c0 .056.034.105.092.105.055 0 .092-.05.092-.105 0-.03-.037-.089-.092-.089-.034.001-.073.038-.092.068M36.559 25.746c-.032 0-.068.021-.068.058-.014.019-.014.031-.014.031 0 .055.05.096.082.096.06 0 .092-.041.092-.096 0-.052-.032-.089-.092-.089M36.998 25.868v.037c0 .056.036.096.086.096.054 0 .092-.04.092-.096 0-.049-.038-.083-.092-.083-.034 0-.075.013-.086.046M37.55 25.691c-.031 0-.067.019-.067.055 0 0-.022.021-.022.037 0 .04.058.086.089.086.055 0 .113-.046.113-.086 0-.056-.058-.092-.113-.092M37.461 22.415c.058 0 .113-.057.113-.108 0-.055-.055-.113-.113-.113-.03 0-.071.025-.084.073v.04c0 .051.033.108.084.108M38.721 20.767c.111.111.2.184.451.328-.144-.088-.395-.399-.528-.564-.034.576.257.93.345 1.325-.124-.595-.303-.813-.268-1.089M38.883 19.954c.164.161.229.427.555.85-.226-.288-.239-.819-.702-.979.096.185.238.543.274.727-.036-.314-.055-.362-.127-.598M39.92 24.51c1.047-.252.953 1.01 2.074 1.046-.683-.343-.826-.601-1.043-.998 1.023.435 1.768 1.14 2.645.634-1.385.235-2.917-1.44-3.676-.682M44.806 29.769c-.109.129-.195.739-.231 1.102-.184-.273-.13-.973-.199-1.265-.04 1.068.124 2.018.861 3.467-.374-.924-.662-2.219-.431-3.304"/><path fill="#FFF" d="M46.661 34.543c.323-.624.131-1.369.055-1.784 2.218-.861-.04-3.132-.218-3.869-.198-.309-.555-1.208.054-2.8.487-2.027-1.458-1.098-1.778-1.153.589-.288.629-.896.561-1.347-.308.34-.704.396-.905.45.215-.258.359-.797.376-1.045-.793.864-1.734.524-2.253.354-1.046-.303-1.369-.158-1.838 0-1.134.547-1.208.816-1.568 1.031-.138-.123-.282-.224-.401-.315-.079-.063-.16-.116-.212-.16.024-.135-.008-.288-.113-.355-.007-.041.046-.167.105-.301.085-.087.199-.2.379-.454.03-.046.052-.09.074-.129.135.137.276.214.393.246l.123.027-.063-.111c-.041-.079-.06-.162-.085-.246.025.019.056.031.085.044l.211.098-.083-.158c-.148-.24-.161-.363-.161-.47v-.033c.004-.022.004-.037.004-.057 0-.055-.008-.117-.031-.193.039.022.076.037.132.048l.113.008-.057-.095c-.141-.219-.148-.285-.149-.342-.004-.018-.007-.032-.008-.052.029.02.057.034.088.046.09.044.288.209.416.34 0 0 0-.131-.02-.183-.017-.053-.058-.136-.085-.193.031.024.065.036.085.05.053.03.089.049.138.107l.126.156-.021-.2c-.024-.125-.044-.187-.137-.322.026.008.137.043.137.043l.15.063c-.222-.129-.399-.574-.475-.875-.114-.473-.245-1.003-1.023-1.04.058-.099.091-.203.091-.31 0-.114-.033-.225-.102-.329-.234-.334-.78-.539-1.129-.427l.01.107c.023.004.042.012.053.021-.095-.018-.171.01-.223.02l-.148.049.097.067c.01.006.011.012.023.016-.131.019-.277.085-.334.263h-.017c-.175-.061-.596-.199-1.103.491l-.031.049.043.028c.06.043.112.063.178.063-.087.109-.168.226-.236.334l-.148.227.046.036c.102.056.203-.027.322-.119-.017.05-.03.095-.03.148 0 .021.01.042.013.066l.032.092.066-.073c.073-.079.104-.09.155-.103.041-.014.102-.036.197-.094.004.017.013.042.025.055l.049.104.049-.104c.059-.11.12-.129.278-.178 0 0 .004 0 .017-.004.205.087.346.004.457-.064l.112-.069c.024-.017.032-.017.039-.017v.017c0 .029-.008.101-.031.128-.093.104-.148.2-.171.298-.03.006-.06.006-.095.006-.233 0-1.182.172-1.784.998-.172.054-.205.162-.223.208-.006.046 0 .092.024.123-.001.028-.001.053-.005.076-.191.427-.173 1.185.256 1.707.017 0 .043-.004.069-.004.045.05.091.081.127.116.025.142.104.216.24.216.031 0 .063-.004.089-.004.015 0 .036-.004.059-.004h.001c.104.02.177.051.21.103.068.095.108.386.027.601-.047.016-.082.037-.098.08-.021.039-.02.085.005.142-.293.255-.514.51-.687.76-.45-.016-1.002-.027-1.554.102-1.967.856-2.073.384-3.122.602-.991.524.237 1.457-.664 2.715-.145-1.379-.378-.911-.542-2.064-.738 1.262 2.255 3.997.971 4.988 0 .071-1.276 1.065-.611 2.381.111-.521-.033-.933.58-1.534-.29 1.303.019 1.639.306 2.022 1.478 1.39.523 1.948.089 2.163.05-.597.268-1.105-.793-2.113 1.417 2.272-.071 3.88-1.175 2.6 1.227-2.018.095-1.423.021-3.659-.126.521-.074.896.018 1.405.215 1.69-1.352 1.768-1.8 1.264.878-.308 1.022-.797.825-1.516-1.099-1.682 1.316-3.495 1.031-5.408-.074 1.445-1.047 1.93-1.281 3.139-.63-.633-.738-.939-.431-1.801.681-1.375 1.151-2.151.899-3.7.417.432.165 2.058.308 2.684-.023-.395.343-.303.128-1.797.229.396.282.254.674 1.279.419-.997-3.578-4.992.991-3.819-.834-.181-1.003-.87-1.055-1.135 1.712 1.183 2.344 0 3.333-.148-1.514.178-2.234.954-2.597-.362.995.648 2.381-.721 3.789.034 1.522.791.914.918 2.056 1.19.049-.065.097-.111.148-.147-1.269-.302-.695-.515-2.333-1.295-.469-.158-.791-.303-1.836 0-.525.17-1.461.51-2.255-.354.016.248.164.787.379 1.045-.201-.055-.594-.11-.901-.45-.072.45-.038 1.059.558 1.347-.319.056-2.27-.874-1.786 1.153.614 1.592.255 2.491.058 2.8-.182.737-2.434 3.008-.214 3.869-.076.415-.274 1.16.052 1.784.141.687.052 1.248-1.479 1.389.433.473 2.197 1.874 2.973-.498.288.429-.468 1.494-.866 1.726.814 1.57 2.544.377 2.432-.145.612-.242.961-.467 1.134-.678 1.039 1.782 2.992 3.012 5.194 3.001 2.193 0 4.137-1.225 5.181-2.986.173.21.521.421 1.117.663-.106.521 1.624 1.715 2.433.145-.396-.231-1.145-1.297-.858-1.726.772 2.372 2.538.971 2.969.498-1.534-.146-1.617-.708-1.479-1.394m-8.95-14.606c.031-.04.065-.128.065-.2 0-.034-.009-.071-.027-.096-.028-.024-.075-.063-.182-.01.007 0-.125.074-.125.074-.106.07-.205.135-.366.049l-.018-.006-.054.015c-.116.04-.204.063-.277.134v-.108l-.086.065c-.129.091-.19.104-.242.129-.034.006-.066.018-.098.039.007-.037.027-.073.032-.102.017-.049.032-.08.032-.111v-.112l-.226.165c-.032.028-.068.059-.105.077.018-.025.044-.062.044-.062.091-.146.189-.294.308-.433l.008-.01c.257-.046.378-.162.499-.102-.078.096-.11.169-.225.421.056-.144.234-.346.344-.457-.233-.092-.43.074-.607.132l.086-.098-.157.021c-.092.013-.14.017-.177 0 .442-.558.772-.452.932-.398l.119.034h.004c-.233.147-.163.421-.284.693.175-.07.268-.036.535-.289.025.037.025.142.098.166.049-.056.16-.166.175-.261.128-.031.404.132.025.543.234-.159.488-.755 0-.666-.025.111-.058.178-.184.286-.089-.016-.089-.163-.074-.194-.092.163-.307.292-.454.306.095-.286-.09-.471.328-.618-.041 0-.085.01-.144 0v-.025c.065-.269.334-.234.385-.226l.189.036-.149-.141c-.016-.019-.033-.036-.053-.052.058-.016.137-.016.233.042l.119.071-.033-.132c-.013-.031-.026-.083-.07-.139.291-.009.672.157.842.405.095.134.167.347-.039.598l-.074.094h.09c-.047.092-.167.226-.281.269.035 0 .181 0 .2.055-.271.017-.288.166-.401.2.04.031.113.145.077.217-.329.071-.404.249-.435.306.139-.163.488-.323.72-.057-.016-.052-.197-.195-.249-.235.017-.067-.019-.139-.036-.199.124-.12.285-.215.433-.179-.016-.088-.09-.088-.164-.145.116-.199.413-.215.746-.101.279.169.352.489.436.818.054.222.11.437.233.607-.032-.011-.219-.073-.219-.073l.1.139c.087.133.134.193.165.252-.013-.004-.022-.013-.031-.017-.085-.049-.23-.132-.42-.4 0 0 .013.037.013.072.002.043.057.228.057.228.031.052.058.101.087.153-.051-.027-.096-.053-.139-.073-.08-.036-.193-.031-.301-.139.095.133.05.206.056.262.006.049.015.109.079.227-.059-.043-.147-.073-.259-.202.203.296.174.43.174.542 0 .014-.004.028-.004.04v.053c0 .083.01.184.089.35-.033-.024-.147-.024-.195-.129.008.113.033.203.057.286.007.042.025.088.038.132-.204-.113-.519-.394-.578-.979l-.005-.066-.13.026c-.021.003-.046.01-.074.016-.018-.067-.033-.135-.052-.209l-.068-.29-.062.04-.062.042s-.004.003-.013.006c-.028-.037-.037-.15-.039-.23-.008-.144-.016-.272-.085-.346-.022-.025-.048-.034-.115-.059-.142-.063-.411-.172-.451-.365-.01-.021-.015-.043-.015-.064 0-.1.055-.213.161-.328m-2.033 3.14c-.325-.282-.325-1.025-.123-1.439.036-.069.138-.107.197-.107.807.163.963.289 1.46.614-.037.122-.018.229.04.271-.244.183-.919.483-1.574.661m.255.306c-.039-.054-.071-.085-.108-.144.92-.307 1.208-.573 1.442-.771.031.053.05.053.05.053-.429.526-.88.679-1.384.862m1.352-1.076v-.077c.032-.067.105-.12.176-.12.113 0 .202.084.202.196 0 .09-.089.182-.202.182-.102 0-.176-.092-.176-.181m-.863 2.233c-.042-.057-.09-.159.055-.184.105-.232.072-.574-.026-.702-.052-.068-.158-.104-.249-.123-.008 0-.013-.006-.013-.006-.024 0-.035.006-.056.006.514-.242.885-.411 1.257-.954.611.089.384-.851-.105-.509-.378-.342-.97-.734-1.681-.857.59-.815 1.539-.98 1.737-.98.024 0 .043 0 .07-.005v.038c0 .021 0 .043.012.064-.34.04-1.15.288-1.546.819.217.058.344.095.47.166.116-.455.594-.798 1.076-.96.065.251.369.373.522.44l.073.031c0 .004.004.004.004.004.046.039.048.165.053.275.008.158.014.343.125.384l.031-.025.018-.01s.024-.021.046-.033c.014.063.026.135.026.135.021.091.04.185.085.286l.033.062.052-.034c.021-.019.059-.027.094-.033h.007c.026.177.075.328.138.453-.112.482-.349.905-.745 1.083.258.301.111.611-.7 1.133.507-.147.901-.467 1.096-.902.093.053.113.218.071.324.238.198.791.54 1.097.958.078.071.13.108.167.229.07.173-.037.458-.549.458h-.133c-.015-.016-.025-.03-.031-.036.004-.004.006-.004.012-.004 1.025-.036.422-1.139-.576.04-.495.46-.761.755-1.406.755-.183 0-.392-.025-.653-.077-.374.527-.868.74-1.287.74-.139 0-.273-.025-.387-.071-.047-.012-.117-.217.087-.217h.054c.475-.574.65-1.402 1.575-2.161m7.591 4.529c-.154.334-.603 1.117-.725 1.893v-4.835c-.125-.01-.262-.01-.402 0 .478-.019.912-.044.962.539-.125.943-.411 1.498.165 2.403m-.757 2.196v-.042.042zm.003-.101c0-.022 0-.033.007-.052-.007.019-.007.03-.007.052m.011-.104c.006-.033.008-.064.019-.098-.012.033-.014.064-.019.098m0 .552c0-.005 0-.016-.003-.028.003.013.003.023.003.028m-.011-.101v-.015.015zm.029 1.93v-1.755c.051.257.166.486.382.681.433 1.527-.586 2.395-1.083 3.066.148-.211.346-.428.539-.683.103-.42.162-.858.162-1.309m-4.762-7.87c-.057.058-.112.104-.158.15.046-.046.099-.092.158-.15m1.739-.015c-.055-.015-.103-.019-.159-.024h-.489c-.016.01-.036.016-.052.035.039-.029.083-.046.106-.084.187.012.381.038.594.073m-.718.015c-.022.007-.04.012-.062.023.022-.011.04-.016.062-.023m-.077.028c-.022.007-.046.014-.067.016.021-.003.045-.01.067-.016m-.084.021c-.03.009-.06.009-.091.019.031-.01.061-.01.091-.019m-.115.019h-.103.103zm-3.765-.144c-.009.012-.02.027-.025.036h-1.019c-.052.006-.104.01-.157.024.462-.079.852-.079 1.201-.06m-3.703.634c-.178-.002-.346-.012-.505-.002.16-.013.327 0 .505.002m-1.245 2.94c.576-.905.288-1.46.165-2.403.031-.417.268-.524.575-.539v4.936c-.1-.806-.586-1.651-.74-1.994m.34 3.298c.236-.212.359-.482.4-.771v1.813c0 .469.062.935.173 1.383.13.167.262.32.378.464-.521-.652-1.348-1.483-.951-2.889m1.144 3.144c.005.011.01.02.017.021-.007-.002-.012-.011-.017-.021m-.193-.254c.013.016.028.039.04.057-.012-.018-.027-.042-.04-.057m.053.067c.006.012.017.031.029.041-.012-.01-.023-.029-.029-.041m.042.062c.016.01.023.025.034.04-.011-.015-.018-.03-.034-.04m.055.071c.009.012.02.021.021.033-.002-.011-.013-.021-.021-.033m.08.113c0 .003.004.012.009.015-.005-.003-.009-.012-.009-.015m.109.638s-.004 0-.004.003c-.001-.003.004-.003.004-.003m-.082-.592c0 .006.007.014.007.018 0-.004-.007-.012-.007-.018m.03.052c.001 0 .001.004.001.012 0-.008 0-.012-.001-.012m.055.131c0 .007 0 .007.006.007-.006 0-.006 0-.006-.007m.02.046v.011-.011zm.01.046c0 .011.002.011.002.011s-.002-.001-.002-.011m.002.175v.007-.007zm-.002.046c-.005 0-.005.004-.005.004s0-.004.005-.004m-.019.044s0 .009-.004.012c.004-.003.004-.012.004-.012m5.096 2.245c-2.826.013-5.168-2.311-5.188-5.103V26.47h2.832c.002-.009.002-.015.006-.015-.045.067-.081.123-.128.181h-.027c-.167 0-.198.113-.204.145-.011.074.026.181.092.196.129.055.267.079.412.079.443 0 .867-.211 1.2-.586h6.166l.015 6.849c-.015 2.772-2.343 5.082-5.176 5.082m-2.151-12.278c-.015.019-.024.038-.036.062.013-.024.021-.043.036-.062m-.084.148c-.013.024-.023.046-.043.07.019-.024.029-.045.043-.07m7.405 9.342c-.002.003-.009.021-.017.034.008-.013.015-.031.017-.034m-.03.052c-.011.015-.019.03-.023.046.004-.016.012-.031.023-.046m-.032.067c-.011.015-.011.019-.015.027.005-.008.005-.012.015-.027m-.022.059c-.003.006-.005.015-.009.015.004 0 .006-.009.009-.015m-.018.046c-.003.008-.006.019-.01.025.004-.007.007-.017.01-.025m-.012.052c0 .013 0 .016-.004.021.004-.006.004-.009.004-.021m-.004.052c0 .002-.008.012-.008.019 0-.007.008-.017.008-.019m-.011.044v.021-.021zm.106.313c0 .015.006.015.014.021-.008-.006-.014-.006-.014-.021m-.095-.232v.01-.01zm.004.04c0 .006.002.019.002.019s-.002-.013-.002-.019m.012.05c0 .009.009.012.009.024 0-.012-.009-.015-.009-.024m.018.052c.003.003.007.012.011.019-.004-.007-.008-.016-.011-.019m.027.046c.004.009.008.016.008.02 0-.004-.003-.011-.008-.02m.101-.718c.012-.012.017-.025.026-.037-.009.012-.014.025-.026.037m-.033.052c.009-.006.016-.018.024-.033-.008.015-.015.027-.024.033m.098-.148c-.006.017-.018.03-.029.05.011-.019.023-.033.029-.05m2.826-.551c.086-.509.144-.884.019-1.405-.077 2.236-1.209 1.642.012 3.659-1.098 1.28-2.596-.327-1.167-2.6-1.066 1.008-.849 1.517-.797 2.113-.432-.215-1.389-.773.092-2.163.286-.384.594-.72.307-2.022.611.602.467 1.013.575 1.534.668-1.315-.615-2.31-.615-2.381-1.276-.991 1.718-3.727.977-4.988-.161 1.153-.394.686-.539 2.064-.903-1.258.324-2.19-.671-2.715-1.043-.218-1.151.255-3.117-.602-.231-.046-.462-.079-.687-.098.013-.058.012-.132-.013-.19-.033-.12-.092-.173-.144-.23-.008-.009-.023-.018-.031-.024-.088-.126-.197-.232-.315-.344.227-.168.36-.402 1.301-.896 1.404-.755 2.791.614 3.786-.034-.363 1.316-1.087.54-2.598.362.989.148 1.624 1.331 3.334.148-.054.265-.218.954-1.063 1.135 4.576-1.173.582 2.822.991 3.819.394-1.025.449-.883.687-1.279-.218 1.494.143 1.402.124 1.797.139-.626-.107-2.252.307-2.684-.252 1.549.215 2.325.9 3.7.306.861.202 1.168-.428 1.801-.242-1.209-1.208-1.693-1.285-3.139-.287 1.913 2.13 3.727 1.028 5.408-.194.719-.052 1.208.828 1.516-.45.505-2.022.428-1.798-1.262"/><path fill="#FFF" d="M32.576 25.556c1.12-.036 1.025-1.298 2.074-1.046-.757-.757-2.291.917-3.68.681.883.507 1.625-.198 2.655-.632-.217.396-.362.654-1.049.997M30.195 29.605c-.071.292-.012.991-.196 1.265-.037-.362-.126-.973-.235-1.102.235 1.085-.053 2.381-.433 3.303.742-1.447.904-2.397.864-3.466M38.873 16.484c-.001-.055-.007-.049 0 0M35.049 32.287c.015 0 .015 0 .015-.019.022-.015.037-.033.022-.055 0 0-.037.021-.074.04-.011.033-.034.073-.034.073.023.013.055.001.071-.039M39.51 32.26c-.019-.035-.052-.056-.072-.035 0 0 .02.035.035.071.037.019.074.034.074.034.018-.016 0-.034-.022-.056 0-.014 0-.014-.015-.014"/><path fill="#FFF" d="M41.534 27.402H33v5.807c0 2.323 1.942 4.272 4.286 4.272 2.322-.019 4.248-1.949 4.248-4.253v-5.826zm-3.367 9.428c-.562-.343-.525-.309-.915-.406-.404.098-.364.063-.924.406.052-.198.506-.406.506-.537-.199-.112-.558.02-.779.159.074-.159.253-.271.636-.434.143 0 .268-.034.251-.415 0-.574 0-1.073.006-1.518h-.046c-.014.021-.014.041-.014.061.054.036.038.071.054.125-.074.038-.094.019-.108.038-.051.015 0 .1.014.159-.033 0-.086-.016-.132-.016-.048 0-.048 0-.065.016.017.039.04.052.065.091-.065-.018-.081-.039-.133-.052-.034 0-.076 0-.106-.11-.041-.034-.041-.073-.041-.107-.013-.052-.037-.107-.089-.144-.015.015 0 .052-.034.071-.02-.148-.11-.197-.169-.22-.121-.106-.231-.106-.282-.106-.056-.016-.056-.033-.07-.033-.019.018.014.104-.019.123-.021-.019-.127-.071-.147-.139-.034-.06-.022-.166-.052-.166-.11.562-.381.562-.488.776.215-.073.236-.024.322-.107.184-.199.252-.26.398-.199.107.071.163.052.249.015.166-.015.238.11.258.148.019.015.052.088.067.144-.033-.024-.118-.073-.215-.044-.036.02-.07.044-.142.044.017.055.032.089.032.198-.015.05 0 .123.02.194-.035 0-.052-.016-.09-.037-.016.037 0 .114.018.163-.018 0-.034-.019-.049-.034-.041.016-.059.108.049.092.126-.021.329 0 .396-.128.037-.035.078-.071.108-.108.052-.03.092-.052.128-.072.033-.02.056-.031.11 0 .017.021.038.042.055.054.048.034.068.019.102.071h-.068c-.034.04 0 .056.014.092.02 0 .054.016.078.034-.024.016-.078.016-.092.037-.019.021-.034.037-.051.058.017.083.085.031.105.071 0 .012-.02.036-.054.052-.034 0-.072.025-.11.034-.073 0-.073 0-.141-.009-.106 0-.147-.041-.218-.065-.103 0-.162.04-.236.074-.126.104-.234.092-.377.058-.178 0-.196-.033-.16-.163.012-.052.034-.109-.018-.181-.077-.052-.077-.092-.11-.107 0 .093.017.157.092.255-.075-.019-.115-.056-.148-.147-.055-.052-.071-.107-.143-.129-.072-.016-.108-.034-.201-.034.022.019 0 .034.022.056.126.107.179.268.071.497 0 .065.055.15.088.225.056.144-.015.294-.033.454-.019-.15-.019-.16-.089-.255-.037-.024-.059-.114-.09-.09-.055.108-.147.09-.218.065-.092 0-.109.079-.121.098v.182c0 .036.029.086.174.086.036-.02.074-.02.11-.034.034.015.055.015.086.049.022.041.037.114.059.166-.09-.016-.111-.033-.145.04-.021-.04-.055-.02-.055-.02-.019-.021-.055.091-.217-.036-.037-.093-.14-.109-.197-.109-.036 0-.089-.023-.074-.09.058-.052.096-.073.108-.233.023-.037 0-.073 0-.144-.034-.044-.05-.188.092-.169.071 0 .18-.071.144-.196 0-.092-.073-.126-.129-.197-.107-.109-.084-.252-.084-.355-.4-.042-.454-.473-.466-.602-.02-.106.029-.54.029-.555 0-.038.057-.685-.178-.491-.019-.037-.091-.125.019-.181-.059-.107-.077-.107-.077-.308-.013-.089-.013-.269-.089-.373.076.033.202.144.233.343 0 .142.063.212.11.283.165.198.111.349.111.549-.018.192-.04.393-.059.592 0 .162.059.589.42.589.174-.141.381-.646.174-.988-.014.037-.07.074-.143.056.019-.162.019-.162-.119-.311-.022-.034-.058-.066-.038-.138-.02.031-.148.09-.181-.04.013 0 .086-.033.033-.159-.02-.055-.033-.149 0-.254-.105-.037-.105-.148-.105-.213.053.034.123.064.158-.058.022-.021.037-.059.059-.073-.059-.073-.037-.119-.022-.178.074.059.148.059.215-.019.073-.074.111-.074.184-.074H35c.176-.07.176 0 .212.04.053 0 .11.013.125.034.056-.021.056.019.056.033v.129c-.021.086-.071.107-.092.119-.036 0-.071.021-.089.046-.019.017-.019-.058-.074-.058-.089-.021-.105.033-.105.074 0 .048 0 .196.105.159 0-.015 0-.055-.015-.071.053 0 .053.057.07.057.091.028.052.119.037.119-.018.092-.144.058-.166.037-.064-.054-.086.041-.064.054.012.04.101.114.245.04.077-.053.108-.107.252-.132.059 0 .095-.016.107-.119.075.015.075.085.089.119.169.024.33-.104.347-.194.015-.021.067 0 .067.104.155-.068.24-.247.273-.354 0-.058.043-.129.111-.162.092-.021.068 0 .108 0 .052-.056.117-.021.125 0 .124-.021.124.019.144.033.091.111.074.178.058.27-.024.041-.024.059-.058.074v-.096h-.034c-.019.046-.019.096-.051.132-.021-.036 0-.086-.038-.11h-.021c-.056 0-.033.11-.073.129 0-.019-.016-.055-.016-.07-.016-.018-.036-.018-.052 0-.056.087-.106.155-.147.304-.013.052-.013.113-.037.159-.019.2-.178.24-.255.259-.015 0-.037.014 0 .048.077.043.149.075.188.169.048.123.159.142.251.215-.203.017-.418-.039-.528-.235-.015-.016-.032-.04-.052-.04-.034.073.052.132.104.184.169.185.186.2.442.323.05 0 .119.057.196-.019.055 0 .103-.017.181.058 0 .013.007.034.022.049.011-1.298.04-2.058.083-2.51-.052-.034-.103-.076-.163-.138-.217.311-.56-.125-.65-.125-.074 0-.178.109-.323-.02-.158 0-.321.02-.379-.215-.123-.092-.307-.071-.286-.447-.181-.092-.218-.313-.054-.577-.342-.327.054-.776.196-.829.021-.109.021-.287.307-.287.039-.396.465-.308.52-.308.019-.079.181-.309.452-.131.101-.301.574-.197.601-.096.04-.102.509-.205.61.096.247-.178.411.052.447.131.056 0 .492-.089.525.308.289 0 .289.178.306.287.146.053.522.502.2.829.164.265.12.485-.054.577 0 .376-.163.355-.306.447-.057.234-.219.215-.382.215-.146.129-.233.02-.325.02-.073 0-.435.436-.631.144-.062.052-.117.092-.166.119.058.611.098 1.78.098 4.044-.04.381.084.415.233.415.379.162.558.274.632.434-.221-.14-.577-.271-.781-.159 0 .127.451.335.509.533m.987-4.233c.089-.018.202-.059.257.03-.125-.048-.343.057-.431.04-.108-.019-.179-.184-.057-.27-.079.27.178.2.231.2m1.485.03c-.027.2-.027.2-.092.308.106.056.055.144.035.181-.231-.193-.184.453-.184.491 0 .015.041.448.021.555-.021.129-.068.56-.467.602.021.104.021.246-.094.355-.052.071-.124.105-.102.197-.061.125.05.196.144.196.14-.02.126.125.086.169-.013.07-.013.106 0 .144 0 .16.054.182.11.233.014.066-.037.09-.092.09-.031 0-.146.017-.179.109-.177.127-.217.016-.217.036-.015 0-.032-.021-.058.02-.031-.073-.065-.056-.159-.04.041-.052.057-.125.069-.166.044-.034.044-.034.09-.049.043.015.077.015.112.034.127 0 .163-.05.181-.086 0-.043-.018-.16-.018-.182 0-.019-.036-.098-.109-.098-.068.024-.179.043-.231-.065-.025-.024-.037.065-.074.09-.071.095-.071.104-.091.255-.019-.16-.092-.311-.034-.454.015-.074.07-.159.07-.225-.092-.229-.036-.39.076-.497.016-.021.016-.037.016-.056-.075 0-.108.019-.184.034-.068.021-.11.077-.141.129-.03.092-.089.129-.143.147.073-.098.073-.162.073-.255-.037.016-.037.056-.111.107-.052.071-.019.129-.019.181.057.13.019.163-.146.163-.159.034-.251.046-.396-.058-.072-.034-.108-.074-.214-.074-.07.024-.12.065-.212.065-.074.009-.093.009-.163.009-.043-.009-.055-.034-.098-.034-.047-.016-.047-.04-.047-.052.016-.04.09.012.102-.071-.034-.021-.034-.037-.071-.058-.015-.021-.052-.021-.073-.037.021-.019.042-.034.073-.034 0-.036.059-.052.016-.092h-.068c.021-.053.052-.037.089-.071.022-.012.034-.033.059-.054.068-.031.088-.02.124 0 .035.021.068.042.103.072.058.037.075.073.108.108.091.128.272.107.397.128.112.017.092-.076.078-.092-.019.016-.034.034-.058.034.024-.049.024-.126 0-.163-.02.021-.032.037-.087.037.013-.071.055-.145.035-.194 0-.109.02-.144.02-.198-.055 0-.088-.024-.146-.044-.092-.029-.162.02-.217.044.036-.056.069-.129.087-.144.025-.038.091-.163.256-.148.076.037.124.057.251-.015.147-.061.217 0 .398.199.088.083.105.034.325.107-.128-.215-.38-.215-.491-.776-.034 0-.015.106-.052.166-.033.067-.128.12-.159.139-.021-.019.015-.105 0-.123-.021 0-.021.018-.077.033-.071 0-.175 0-.304.106-.035.022-.122.071-.165.22-.014-.02-.014-.057-.014-.071-.077.036-.077.092-.089.144-.021.034-.021.073-.038.107-.034.11-.074.11-.126.11-.035.013-.052.034-.107.052 0-.039.016-.052.036-.091 0-.016 0-.016-.055-.016-.058 0-.092.016-.144.016.031-.06.074-.145.031-.159-.016-.02-.047 0-.1-.038.011-.054 0-.089.053-.125 0-.02-.021-.04-.021-.061h-.052c.02-.017.02-.048.031-.065.073-.074.132-.058.169-.058.088.075.138.019.211.019.233-.123.271-.139.435-.323.032-.052.145-.11.106-.184-.02 0-.032.024-.052.04-.109.196-.329.252-.519.235.092-.073.176-.092.245-.215.043-.094.109-.126.181-.169.039-.034 0-.048 0-.048-.086-.019-.25-.059-.272-.259 0-.046-.012-.107-.012-.159-.038-.148-.096-.217-.164-.304-.021-.018-.035-.018-.035 0-.017.016-.017.052-.036.07-.036-.019 0-.129-.055-.129h-.033c-.025.024-.025.074-.025.11-.055-.036-.034-.086-.055-.132h-.031v.096c-.037-.016-.037-.033-.058-.074-.011-.092-.031-.158.042-.27.016-.015.031-.055.145-.033.034-.021.089-.056.12 0 .043 0 .043-.021.113 0 .072.033.106.104.12.162.041.107.111.286.261.354.014-.104.068-.125.088-.104.012.09.159.219.34.194 0-.034.01-.104.071-.119.018.104.075.119.129.119.143.024.177.079.23.132.147.074.24 0 .255-.04.031-.013.018-.107-.059-.055-.012.021-.14.055-.174-.037 0 0-.043-.091.034-.119.036 0 .036-.057.071-.057v.071c.113.037.113-.111.113-.159 0-.041-.019-.096-.131-.074-.033 0-.033.074-.053.058-.034-.024-.056-.046-.092-.046-.032-.012-.088-.033-.105-.119v-.129c0-.015 0-.055.054-.033.034-.021.066-.034.143-.034.02-.04.036-.11.199-.04h.16c.088 0 .127 0 .179.074.094.077.146.077.238.019.014.059.035.104-.018.178.018.015.018.052.032.073.041.122.132.092.164.058.021.064 0 .176-.09.213.035.104 0 .199 0 .254-.053.126 0 .159.035.159-.035.13-.179.071-.179.04.019.071-.036.104-.036.138-.146.148-.146.148-.146.311-.052.019-.102-.019-.142-.056-.179.342.018.848.196.988.362 0 .399-.427.42-.589-.037-.199-.037-.399-.058-.592-.019-.2-.055-.351.11-.549.055-.071.107-.142.107-.283.019-.199.162-.31.235-.343-.073.109-.087.289-.087.378M36.918 16.264c-.004.208.252.085.458.029v2.041h.25v-2.381c-.024.01-.061.024-.092.026.602-.155 1.077-.144 1.337-.144.553.053.862.07.887.237.028.165-.941-.127-.885.411.084.45 1.211-.559 2.953-.672 1.656-.102 1.854-.498 2.033-.553-2.07.071-1.635-.307-3.079-.111.969-.337 2.486-.377 3.025-1.061-1.046.325-1.472.123-2.303.074-.63-.108-.71-.074-1.644-.022-.235-.816-1.419-.819-2.232-.65v-.519h-.25v.58c-.345.098-.574.211-.543.282.092.4.209 1.107.085 2.433m2.838-2.16l.156 1.64-.156.146v-1.786zm-2.035 1.162h-.127v.126h-.111v-.126h-.133v-.117h.133v-.129h.111v.129h.127v.117zm1.164 0h-.13v.126h-.117v-.126h-.128v-.117h.128v-.129h.117v.129h.13v.117zm-.375-1.291h.128v-.129h.117v.129h.13v.113h-.13v.129h-.117v-.129h-.128v-.113zm-1.007-.457c-.009 0-.009.002-.009.002s0-.002.009-.002m-.153.457h.133v-.129h.111v.129h.127v.113h-.127v.129h-.111v-.129h-.133v-.113zm-.016.402h.284v.119h.383v-.393h-.111v-.286h.475v.286h-.116v.393h.385v-.119h.287v.48h-.287v-.126h-.385v.394h.116v.289h-.475v-.289h.111v-.394h-.383v.126h-.284v-.48z"/><path fill="#FFF" d="M32.032 36.782s-.483.447-.787.466c0 0-.464.949-1.457.949-.991 0-1.424-.857-1.424-.857v-.405s-.874.345-1.915-.616v.616s.527.669 1.759.669c0 0 .094 1.23 1.58 1.23 1.485 0 1.55-1.027 1.55-1.027s.275.135.694-.203v.401s1.888 2.535 5.254 2.535c3.362 0 5.285-2.535 5.285-2.535v-.401c.409.338.685.203.685.203s.062 1.027 1.55 1.027c1.485 0 1.582-1.23 1.582-1.23 1.232 0 1.752-.669 1.752-.669v-.616c-1.043.961-1.905.616-1.905.616v.405s-.438.857-1.429.857c-.995 0-1.458-.949-1.458-.949-.307-.019-.836-.466-.836-.466s-1.611 2.825-5.245 2.825c-3.635 0-5.235-2.825-5.235-2.825M43.805 15.585s-.594.437-1.816.482c-1.231.042-2.466.672-2.466.672s-.999.563-.924-.604c0 0-.138-.036-.7.031v1.123s.635-.104.686-.067c0 0-.051.988.652.725.715-.268 1.607-.669 2.221-.699.621-.037 1.537-.138 2.371-.578l-.024-1.085zM43.796 14.383s-.229.349-1.243.595c0 0 .902.02 1.252.01l-.009-.605zM47.87 31.716s.03.736-.917 1.239c0 0 .136.319.037.964 0 0 .966-.383.88-2.203M26.704 31.716s-.031.736.92 1.239c0 0-.144.319-.046.964 0 0-.962-.383-.874-2.203M36.668 52.143l-17.645-.237 17.645-.232.283.232M38.439 51.673l23.283.233-23.283.237-.286-.237M15.901 53.857l.062.685h-.062c-.052-.169-.125-.3-.216-.377-.133-.128-.293-.193-.497-.193-.276 0-.484.107-.628.326-.122.186-.183.404-.183.662 0 .208.046.392.124.564.075.167.185.294.311.376.128.081.258.117.4.117.079 0 .159-.013.231-.028.075-.018.145-.054.22-.089v-.628c0-.11-.012-.176-.029-.215-.017-.034-.046-.059-.082-.077-.03-.015-.089-.027-.179-.027v-.062h.839v.062h-.038c-.085 0-.14.027-.17.084-.022.042-.033.118-.033.235v.663c-.122.069-.241.115-.364.15-.118.021-.251.04-.395.04-.42 0-.738-.132-.957-.396-.165-.205-.243-.438-.243-.703 0-.189.046-.367.138-.549.107-.209.257-.365.448-.478.159-.092.342-.143.562-.143.079 0 .15.006.213.022.067.015.152.04.272.082.063.026.105.04.125.04.018 0 .034-.014.046-.028.023-.021.025-.058.028-.114h.057zM18.048 53.858c.278 0 .523.107.731.325.206.212.308.478.308.795 0 .331-.102.606-.308.821-.211.218-.465.325-.755.325-.3 0-.551-.104-.754-.315-.202-.212-.309-.487-.309-.819 0-.35.119-.629.359-.844.205-.193.438-.288.728-.288m-.03.121c-.193 0-.349.069-.467.215-.145.177-.221.445-.221.785 0 .354.076.626.222.817.121.14.277.216.468.216.202 0 .371-.076.503-.232.135-.16.202-.411.202-.755 0-.365-.077-.651-.221-.831-.117-.146-.28-.215-.486-.215M21.32 54.969c.146.033.255.087.334.16.099.095.151.217.151.354 0 .111-.032.209-.099.31-.067.103-.159.173-.279.216-.125.043-.301.07-.549.07h-1.019v-.062h.077c.095 0 .158-.027.199-.088.025-.029.035-.114.035-.237v-1.401c0-.127-.019-.219-.047-.255-.04-.043-.105-.063-.187-.063h-.077v-.063h.934c.177 0 .313.018.419.038.16.039.285.11.371.202.08.104.123.211.123.334 0 .114-.037.213-.097.298-.062.081-.166.144-.289.187m-.841-.082c.04.006.084.008.133.015.052.003.109.003.171.003.147 0 .269-.012.348-.046.078-.035.137-.087.179-.156.042-.064.062-.145.062-.225 0-.132-.05-.236-.157-.328-.099-.089-.254-.135-.448-.135-.11 0-.204.016-.288.04v.832zm0 1.033c.121.026.247.046.365.046.195 0 .34-.046.444-.133.096-.085.149-.195.149-.318 0-.086-.025-.165-.072-.248-.043-.077-.12-.136-.22-.183-.103-.042-.234-.066-.389-.066-.062 0-.118 0-.164.003-.046 0-.086.004-.113.012v.887zM23.587 56.018v.062h-.929v-.062h.077c.087 0 .154-.024.192-.082.028-.029.04-.111.04-.243v-1.4c0-.108-.006-.18-.021-.214-.012-.03-.031-.052-.064-.072-.046-.025-.097-.034-.147-.034h-.077v-.063h.929v.063h-.082c-.093 0-.153.028-.189.074-.028.032-.042.118-.042.246v1.4c0 .114.01.181.022.221.007.022.033.05.064.068.047.024.099.036.145.036h.082zM24.943 54.03v.856h.471c.13 0 .208-.023.248-.057.055-.049.083-.134.092-.257h.057v.749h-.057c-.012-.102-.03-.173-.043-.203-.019-.035-.049-.063-.096-.087-.041-.017-.107-.029-.201-.029h-.471v.711c0 .102.006.153.01.182.006.018.024.03.04.04.023.021.07.026.128.026h.37c.117 0 .206-.012.263-.032.057-.013.109-.051.159-.097.066-.069.134-.169.202-.3h.069l-.189.546h-1.678v-.062h.083c.05 0 .098-.013.142-.036.04-.016.057-.046.072-.074.013-.04.02-.106.02-.215v-1.405c0-.138-.014-.227-.04-.251-.039-.05-.108-.063-.194-.063h-.083v-.062h1.678l.025.476h-.071c-.015-.117-.04-.192-.072-.236-.022-.04-.066-.077-.121-.095-.039-.019-.117-.024-.218-.024h-.595zM29.059 56.08h-.581l-.736-1.017c-.05 0-.094.006-.132.006-.013 0-.027 0-.044-.006h-.048v.629c0 .142.012.222.046.254.04.047.101.071.178.071h.085v.063H26.9v-.063h.08c.096 0 .157-.027.199-.092.022-.025.034-.111.034-.233v-1.4c0-.134-.013-.22-.044-.255-.046-.045-.102-.065-.189-.065h-.08v-.063h.792c.226 0 .4.017.508.051.109.04.201.098.278.186.078.087.113.2.113.323 0 .132-.042.249-.133.347-.084.095-.22.165-.401.205l.446.623c.11.148.195.236.268.282.072.056.165.079.288.092v.062zm-1.541-1.114h.088c.208 0 .364-.046.47-.135.104-.086.156-.197.156-.348 0-.129-.042-.242-.125-.318-.085-.093-.197-.133-.341-.133-.058 0-.141.005-.248.028v.906zM29.576 53.91h.586l1.329 1.629v-1.251c0-.138-.02-.218-.05-.251-.036-.044-.1-.065-.183-.065h-.074v-.062h.748v.062h-.072c-.092 0-.154.027-.198.082-.024.037-.033.111-.033.234v1.819h-.057l-1.428-1.74v1.329c0 .144.012.224.043.255.039.043.101.066.183.066h.078v.063h-.752v-.063h.074c.092 0 .159-.027.197-.082.02-.034.033-.11.033-.239v-1.503c-.061-.074-.112-.12-.142-.146-.03-.021-.077-.042-.147-.067-.024-.006-.073-.009-.135-.009v-.061zM33.767 53.858c.278 0 .525.107.73.325.209.212.313.478.313.795 0 .331-.104.606-.313.821-.212.218-.46.325-.752.325-.303 0-.555-.104-.758-.315-.199-.212-.303-.487-.303-.819 0-.35.117-.629.354-.844.204-.193.445-.288.729-.288m-.031.121c-.195 0-.344.069-.466.215-.148.177-.213.445-.213.785 0 .354.068.626.224.817.115.14.266.216.461.216.203 0 .365-.076.498-.232.137-.16.201-.411.201-.755 0-.365-.072-.651-.214-.831-.12-.146-.282-.215-.491-.215M36.988 56.079v-.062h.078c.094 0 .159-.027.199-.088.021-.029.033-.114.033-.237v-1.401c0-.127-.012-.219-.043-.255-.042-.043-.105-.063-.189-.063h-.078v-.063h.883c.323 0 .569.034.74.111.166.077.304.194.405.365.107.172.156.375.156.595 0 .304-.091.559-.277.761-.204.225-.517.338-.94.338h-.967zm.617-.159c.135.03.25.046.34.046.249 0 .451-.086.62-.262.16-.174.242-.411.242-.705 0-.301-.082-.536-.242-.708-.169-.173-.377-.259-.632-.259-.094 0-.199.014-.328.046v1.842zM40.568 54.03v.856h.473c.132 0 .211-.023.251-.057.056-.049.086-.134.092-.257h.062v.749h-.062c-.012-.102-.032-.173-.042-.203-.023-.035-.05-.063-.097-.087-.04-.017-.106-.029-.204-.029h-.473v.711c0 .102.006.153.014.182.011.018.026.03.046.04.019.021.063.026.121.026h.368c.12 0 .209-.012.267-.032.051-.013.106-.051.16-.097.065-.069.133-.169.203-.3h.067l-.19.546h-1.672v-.062h.078c.054 0 .1-.013.146-.036.034-.016.059-.046.072-.074.007-.04.017-.106.017-.215v-1.405c0-.138-.017-.227-.046-.251-.035-.05-.102-.063-.189-.063h-.078v-.062h1.672l.025.476h-.069c-.015-.117-.046-.192-.071-.236-.027-.04-.063-.077-.121-.095-.04-.019-.121-.024-.221-.024h-.599zM44.351 55.48l.053.007-.187.593h-1.679v-.063h.082c.093 0 .157-.027.197-.092.021-.024.031-.111.031-.233v-1.401c0-.126-.01-.218-.04-.254-.047-.044-.104-.065-.188-.065h-.082v-.062h.981v.062c-.113-.006-.196.006-.242.03-.044.018-.076.052-.095.083-.012.034-.024.117-.024.246v1.361c0 .087.012.151.024.181.014.028.034.04.059.05.028.013.11.013.249.013h.162c.165 0 .282-.01.348-.028.065-.027.13-.067.186-.135.053-.062.108-.16.165-.293M47.037 54.03v.856h.473c.122 0 .204-.023.25-.057.052-.049.087-.134.089-.257h.062v.749h-.062c-.011-.102-.028-.173-.042-.203-.022-.035-.05-.063-.093-.087-.046-.017-.115-.029-.204-.029h-.473v.711c0 .102 0 .153.005.182.015.018.026.03.047.04.024.021.063.026.122.026h.369c.123 0 .215-.012.267-.032.057-.013.109-.051.165-.097.059-.069.129-.169.2-.3h.061l-.188.546H46.42v-.062h.073c.055 0 .098-.013.147-.036.032-.016.055-.046.068-.074.009-.04.018-.106.018-.215v-1.405c0-.138-.012-.227-.041-.251-.038-.05-.106-.063-.192-.063h-.073v-.062h1.665l.025.476h-.058c-.028-.117-.053-.192-.08-.236-.021-.04-.064-.077-.12-.095-.04-.019-.116-.024-.225-.024h-.59zM50.439 53.857v.751h-.062c-.017-.146-.052-.257-.102-.342-.05-.084-.119-.15-.208-.207-.094-.048-.186-.073-.286-.073-.108 0-.205.034-.276.104-.073.074-.107.142-.107.229 0 .065.021.127.067.176.067.086.224.184.475.328.198.102.335.19.411.248.072.059.133.127.172.2.039.085.06.162.06.252 0 .167-.062.31-.19.422-.127.123-.289.18-.495.18-.061 0-.123-.006-.178-.02-.031 0-.102-.021-.203-.056-.104-.03-.17-.046-.196-.046-.027 0-.052.007-.064.024-.015.014-.025.051-.034.097h-.057v-.743h.057c.031.157.067.272.111.353.044.073.119.139.212.19.098.056.208.079.323.079.13 0 .236-.033.314-.104.077-.075.117-.155.117-.255 0-.052-.019-.105-.046-.162-.029-.049-.073-.104-.142-.15-.034-.029-.15-.099-.337-.202-.184-.107-.316-.185-.395-.245-.072-.068-.138-.138-.178-.212-.036-.073-.06-.157-.06-.238 0-.161.06-.295.179-.405.118-.11.27-.173.454-.173.118 0 .239.027.371.086.058.028.098.043.123.043.026 0 .052-.009.068-.026.021-.017.035-.05.04-.103h.062zM53.239 53.91l.025.509h-.055c-.012-.088-.032-.153-.054-.192-.033-.059-.072-.107-.131-.136-.054-.031-.125-.046-.215-.046h-.305v1.651c0 .144.015.224.042.255.04.043.102.066.19.066h.073v.063h-.915v-.063h.07c.094 0 .159-.027.196-.082.027-.034.033-.11.033-.239v-1.651h-.254c-.102 0-.172.009-.215.021-.059.024-.106.059-.144.116-.038.06-.065.139-.067.236h-.069l.029-.509h1.766zM55.172 55.353h-.841l-.143.34c-.038.087-.053.147-.053.188 0 .033.015.063.041.091.032.023.103.038.205.047v.062H53.7v-.062c.091-.013.152-.036.18-.061.049-.05.107-.157.177-.313l.765-1.786h.053l.754 1.807c.06.145.114.236.17.282.045.043.114.063.204.07v.062h-.857v-.062c.086-.007.145-.013.173-.036.031-.031.052-.063.052-.099 0-.043-.025-.12-.066-.218l-.133-.312zm-.046-.118l-.369-.874-.376.874h.745zM56.687 56.079v-.062h.082c.088 0 .155-.027.192-.088.021-.029.034-.114.034-.237v-1.401c0-.127-.013-.219-.046-.255-.037-.043-.105-.063-.18-.063h-.082v-.063h.883c.32 0 .566.034.731.111.175.077.307.194.415.365.104.172.15.375.15.595 0 .304-.091.559-.27.761-.212.225-.522.338-.942.338h-.967zm.617-.159c.133.03.25.046.342.046.244 0 .45-.086.613-.262.163-.174.245-.411.245-.705 0-.301-.082-.536-.245-.708-.163-.173-.375-.259-.63-.259-.092 0-.202.014-.325.046v1.842zM60.78 53.858c.28 0 .528.107.731.325.206.212.31.478.31.795 0 .331-.104.606-.313.821-.206.218-.459.325-.755.325-.294 0-.546-.104-.75-.315-.203-.212-.306-.487-.306-.819 0-.35.117-.629.352-.844.204-.193.446-.288.731-.288m-.027.121c-.201 0-.35.069-.467.215-.149.177-.22.445-.22.785 0 .354.071.626.225.817.112.14.271.216.462.216.199 0 .368-.076.503-.232.135-.16.2-.411.2-.755 0-.365-.074-.651-.221-.831-.118-.146-.283-.215-.482-.215M15.599 41.981v.203c.354 0 .778-.044.993.521.051.123.088.426.088.66v5.761c0 .359-.009.639-.025.843-.014.207-.063.395-.128.56-.081.166-.197.287-.359.374-.163.09-.387.136-.676.136-.397 0-.593-.105-.593-.313 0-.053.014-.117.046-.192.022-.068.036-.14.036-.204 0-.104-.032-.202-.102-.3-.067-.093-.159-.165-.271-.221-.112-.058-.242-.089-.38-.089-.252 0-.447.079-.592.236-.139.156-.208.334-.208.534 0 .238.084.447.247.618.164.179.402.308.695.399.302.092.638.135 1.019.135.236 0 .506-.03.826-.085.316-.062.65-.193.996-.394.341-.196.62-.477.816-.835.142-.25.23-.49.271-.725.03-.226.052-.539.052-.937v-5.302c0-.211.026-.52.08-.646.24-.523.69-.536 1.027-.536v-.203h-3.858zm1.99 7.453s-.215 1.553-1.538 1.546h-.002.011c1.248-.054 1.425-1.546 1.425-1.546v-6.008c0-.72-.634-1.02-1.167-1.15-.023-.012-.041-.021-.065-.03.556.107 1.336.399 1.336 1.188v6zM26.412 49.032c-.168-.147-.38-.513-.635-1.093l-2.684-6.114h-.106l-.461 1.021c.092.218 2.177 5.021 2.45 5.646.28.629-1.024.712-1.024.712.049-.013.092-.021.128-.027.37-.065.961-.237.765-.685-.25-.567-2.024-4.654-2.387-5.494l-2.14 4.772c-.253.568-.459.945-.634 1.127-.171.177-.392.288-.661.331v.205h2.478v-.205c-.385-.028-.631-.074-.733-.135-.165-.092-.249-.246-.249-.449.049-.274.436-1.8 2.691-1.907 0 0-.743-.63-1.878-.188l.082-.188.903-2.03.957 2.218.337.762h.007l.079.196.312.732c.103.239.161.375.169.411.02.068.034.142.034.202 0 .111-.042.196-.123.252-.119.08-.321.123-.616.123h-.145v.205h3.603v-.205c-.218-.016-.399-.085-.519-.195"/><g opacity=".5"><defs><path id="a" d="M20.294 46.66h2.916v2.492h-2.916z"/></defs><clipPath id="b"><use xlink:href="#a" overflow="visible"/></clipPath><path clip-path="url(#b)" fill="#FFF" d="M21.072 47.117l-.758 1.651s-.191.313.616.383c-.07-.015-.124-.037-.161-.058-.165-.092-.25-.246-.25-.448.05-.276.436-1.801 2.692-1.908 0 0-1.206-.332-2.139.38"/></g><path fill="#FFF" d="M34.218 46.817c-.172.586-.355 1.03-.542 1.331-.195.301-.429.519-.689.664-.263.134-.592.201-.988.201h-.622c-.348 0-.569-.016-.666-.05-.126-.048-.211-.131-.257-.229-.04-.109-.065-.354-.065-.731v-4.755c0-.372.02-.599.06-.687.053-.127.135-.214.226-.266.133-.079.307-.113.524-.113h.324v-.201h-3.975v.201h.248c.207 0 .375.031.497.111.124.067.205.146.245.248.04.096.059.328.059.706v4.912c0 .367-.019.595-.059.687-.053.122-.125.215-.22.265-.132.08-.303.117-.522.117h-.248v.204h6.617l.281-2.616h-.228zm-6.032 2.387c.004 0 .004-.004.01-.004 1.181-.048 1.252-.699 1.252-.699s-.013-4.651 0-5.509c.011-.522-.673-.71-1.228-.777-.03-.006-.059-.009-.099-.018.571.048 1.449.215 1.436.795-.015.857 0 5.509 0 5.509s-.076.693-1.371.703M37.973 42.563c.057-.126.129-.213.225-.266.131-.079.302-.112.524-.112h.245v-.202h-3.894v.202h.249c.206 0 .372.03.496.11.119.067.201.146.237.248.045.097.07.328.07.706v4.912c0 .367-.025.594-.07.687-.048.123-.119.215-.217.265-.128.079-.305.117-.516.117h-.249v.205h3.894v-.205h-.245c-.211 0-.379-.038-.503-.108-.117-.071-.203-.157-.246-.245-.04-.096-.061-.342-.061-.715V43.25c0-.373.021-.6.061-.687m-2.252 6.647c.004-.004.01-.004.012-.004 1.182-.048 1.255-.694 1.255-.694s-.015-4.658 0-5.518c.012-.516-.68-.699-1.228-.77-.029-.01-.066-.016-.1-.02.568.046 1.443.206 1.435.789-.012.859 0 5.518 0 5.518s-.079.693-1.374.699M44.584 46.02c-.307-.381-.891-.786-1.767-1.218-.626-.303-1.019-.519-1.193-.639-.231-.172-.401-.344-.508-.516-.079-.123-.119-.27-.119-.436 0-.262.113-.491.328-.689.219-.2.519-.305.892-.305.482 0 .926.194 1.35.572.407.382.673.883.781 1.505h.226l-.06-2.488h-.166c-.05.227-.102.363-.155.432-.054.057-.128.084-.225.084-.099 0-.275-.059-.519-.182-.249-.116-.455-.196-.632-.244-.085-.022-.165-.038-.259-.046-.405.021-1.984.244-2.012 1.854.055 1.924 4.072 1.821 3.998 4.058.029 1.167-1.414 1.495-1.986 1.47.084-.003.174-.013.274-.024.021-.003.039-.014.062-.016.653-.117 1.546-.513 1.521-1.43.077-2.236-3.941-2.134-3.997-4.058.024-1.615 1.61-1.846 2.106-1.866-.137-.022-.275-.031-.41-.031-.666 0-1.214.213-1.646.63-.438.416-.656.92-.656 1.515 0 .35.087.669.24.956.158.292.386.558.682.787.297.236.785.516 1.464.855.487.235.817.432 1.012.578.189.149.332.303.423.466.098.165.143.334.143.517 0 .292-.123.558-.367.777-.24.224-.571.335-.982.335-.528 0-1.026-.209-1.484-.62-.465-.421-.77-1.023-.931-1.813h-.207v2.813h.207c.065-.153.152-.261.255-.338.114-.073.209-.107.307-.107.111 0 .258.034.429.107.316.136.577.221.789.273.209.05.431.067.667.067.748 0 1.361-.224 1.848-.669.482-.454.724-.985.724-1.611.001-.487-.145-.928-.447-1.305M60.851 42.917c-.743-.732-1.705-1.083-2.891-1.043-1.101-.04-2.029.311-2.781 1.047-.748.732-1.13 1.653-1.13 2.762 0 .99.293 1.838.872 2.558.732.908 1.769 1.363 3.111 1.363 1.333 0 2.371-.477 3.101-1.429.552-.717.832-1.552.832-2.5 0-1.104-.37-2.028-1.114-2.758m-2.843 6.561s-.02 0-.053-.006c-.402-.021-3.066-.296-3.084-3.731-.015-3.721 3.137-3.731 3.137-3.731s3.152.011 3.137 3.731c-.015 3.717-3.137 3.737-3.137 3.737"/><path fill="#FFF" d="M61.006 45.74c.021-3.721-2.999-3.731-2.999-3.731s-3.014.011-3.001 3.734c.016 3.434 2.551 3.707 2.948 3.728.034.007.053.007.053.007s2.992-.019 2.999-3.738m-1.297 2.053c-.171.516-.43.886-.75 1.123-.25.187-.57.275-.947.275-.56 0-.997-.211-1.3-.641-.451-.607-.677-1.55-.677-2.816 0-1.071.143-1.892.437-2.464.353-.693.872-1.046 1.548-1.046.372 0 .699.102.985.304.281.205.519.546.699 1.037.188.49.278 1.227.278 2.212 0 .829-.088 1.503-.273 2.016M49.109 42.706c.384-.27.814-.405 1.281-.405.555 0 1.052.188 1.493.543.437.363.742.872.899 1.551h.215v-2.588h-.215c-.027.19-.082.328-.169.408-.086.086-.186.134-.307.134-.088 0-.304-.068-.641-.195-.582-.228-1.131-.347-1.656-.347-.715 0-1.384.176-2.017.53-.63.354-1.134.845-1.502 1.483-.375.641-.559 1.314-.559 2.023 0 .676.167 1.308.503 1.908.333.596.812 1.061 1.432 1.375.611.317 1.318.477 2.115.477.603 0 1.132-.103 1.584-.299.453-.192.888-.506 1.306-.943v-.64c-.436.497-.847.853-1.23 1.059-.394.205-.825.305-1.29.305-.576 0-1.042-.139-1.398-.418-.36-.285-.625-.694-.794-1.245-.167-.55-.252-1.151-.252-1.82 0-.678.117-1.298.35-1.847.178-.433.464-.782.852-1.049m-2.142 3.003c.07 2.642 1.598 3.608 3.111 3.646-1.577.033-3.155-.862-3.226-3.614-.076-2.967 1.676-3.795 3.256-3.762-1.528.03-3.213.89-3.141 3.73"/></svg>