<?xml version="1.0" encoding="utf-8"?>
<!-- Generator: Adobe Illustrator 16.0.0, SVG Export Plug-In . SVG Version: 6.00 Build 0)  -->
<!DOCTYPE svg PUBLIC "-//W3C//DTD SVG 1.1//EN" "http://www.w3.org/Graphics/SVG/1.1/DTD/svg11.dtd">
<svg version="1.1" id="Capa_1" xmlns="http://www.w3.org/2000/svg" xmlns:xlink="http://www.w3.org/1999/xlink" x="0px" y="0px"
	 width="27.779px" height="27.613px" viewBox="0 0 27.779 27.613" enable-background="new 0 0 27.779 27.613" xml:space="preserve">
<g>
	<path fill="#FFFFFF" d="M27.677,27.519l-1.173-12.448c-0.202-1.641-1.057-3.207-2.371-4.386V4.724c0-0.918-0.27-1.793-0.784-2.549
		c-0.074-0.316-0.233-0.603-0.474-0.843C22.016,0.473,20.873,0,19.658,0s-2.356,0.473-3.216,1.332
		c-0.454,0.453-0.8,0.985-1.03,1.582c-0.25,0.576-0.377,1.185-0.377,1.81v4.572c-0.476-0.214-0.977-0.388-1.504-0.508V8.379
		c0.852-0.92,1.332-2.13,1.332-3.387C14.863,2.239,12.623,0,9.871,0C7.117,0,4.879,2.239,4.879,4.992
		c0,1.257,0.479,2.467,1.33,3.387v0.409C2.562,9.619,0,12.805,0,16.672v10.941h1h3.547v-7.154L1,16.911v-0.239
		c0-3.699,2.647-6.623,6.209-7.043V9.044c0.65,1.253,1.6,2.248,2.662,2.248c1.061,0,2.01-0.995,2.66-2.248l0,0v0.585
		c0.903,0.106,1.748,0.376,2.504,0.776v0.078c-1.439,1.236-2.472,3.012-2.674,4.647l-1.164,12.389l-0.104,0.094h0.803h0.295h2.07
		l2.07-8.576l-2.957-3.844l-0.074,0.622l0.053-0.562c0.025-0.205,0.066-0.41,0.119-0.614c0.215-0.816,0.645-1.617,1.189-2.316
		c0.408-0.524,0.879-0.99,1.373-1.361V4.724c0-0.51,0.11-0.993,0.303-1.431c0.152-0.398,0.4-0.842,0.812-1.254
		c0.173-0.173,0.36-0.325,0.556-0.454C18.297,1.195,18.978,1,19.658,1c0.682,0,1.362,0.195,1.953,0.585
		c0.196,0.129,0.383,0.281,0.557,0.454c0.076,0.077,0.132,0.16,0.168,0.248c0.037,0.087,0.056,0.18,0.058,0.275
		c0.116,0.15,0.22,0.309,0.312,0.476c0.181,0.334,0.311,0.701,0.377,1.089c0.033,0.194,0.051,0.393,0.051,0.597v6.426
		c0.626,0.494,1.171,1.102,1.584,1.784c0.207,0.342,0.38,0.701,0.514,1.075c0.135,0.373,0.229,0.76,0.278,1.156l0.052,0.555v-0.002
		l-0.063-0.525l-2.365,3.075l-0.592,0.769l0.104,0.429l1.967,8.147h2.07h0.295h0.803L27.677,27.519z M12.518,3.162
		c-0.072,0.937-1.225,1.682-2.646,1.682c-1.424,0-2.574-0.746-2.648-1.682c-0.555,0.691-0.9,1.589-0.9,2.584
		c0,0.405,0.059,0.855,0.162,1.316c-0.373-0.605-0.605-1.306-0.605-2.07C5.879,2.787,7.666,1,9.871,1
		c2.203,0,3.992,1.787,3.992,3.992c0,0.764-0.234,1.465-0.607,2.071c0.104-0.462,0.162-0.911,0.162-1.317
		C13.418,4.751,13.072,3.853,12.518,3.162"/>
	<path fill="#FFFFFF" d="M16.93,5.074c0.03,0.759,0.245,1.662,0.592,2.461c0.488,1.125,1.231,2.04,2.063,2.04
		c0.404,0,0.787-0.222,1.131-0.574c0.904-0.926,1.531-2.784,1.531-4.106c0-0.504-0.098-0.976-0.262-1.403
		C21.037,4.655,18.625,5.757,16.93,5.074"/>
</g>
</svg>
