<svg xmlns="http://www.w3.org/2000/svg" width="177.014" height="41.463" viewBox="0 0 177.014 41.463"><g fill="#010302"><path d="M66.448 5.973l4.599.009c.28 0 .498-.205.498-.461l.003-5.059c0-.256-.215-.462-.487-.462h-4.606c-.269 0-.49.206-.49.462l-.004 5.052c0 .258.217.459.487.459m36.655 7.319c-2.191-2.527-5.288-3.856-8.94-3.863-4.382-.002-6.927 1.901-8.145 3.208.003-.219.003-.452.003-.697l.013-8.262C86.039 1.182 84.813.015 82.168.01h-5.08c-.274 0-.489.209-.489.461l-.005 4.152c0 .255.216.466.488.466h2.169c.496 0 .669.169.669.638L79.894 35.8c0 .253.216.459.493.464h4.916c.274 0 .491-.202.493-.459v-1.749c0-.171-.002-.339-.007-.485 1.227 1.328 3.744 3.302 7.922 3.302 3.59.008 6.814-1.332 9.09-3.759 2.336-2.482 3.581-5.927 3.583-9.947.004-3.998-1.133-7.409-3.281-9.875m-2.884 9.919c-.008 2.618-.75 4.824-2.165 6.381-1.292 1.424-3.095 2.205-5.08 2.205-4.856-.01-7.064-4.442-7.06-8.551.004-2.858.77-5.159 2.224-6.66 1.585-1.633 3.574-1.973 4.961-1.973 2.072.001 3.836.788 5.114 2.294 1.31 1.55 2.006 3.727 2.006 6.304M112.73 6.02l4.599.013c.272 0 .493-.211.493-.472l.004-5.05c0-.259-.214-.463-.491-.463l-4.602-.003c-.272 0-.486.204-.486.459l-.011 5.057c0 .256.218.459.494.459m37.154 25.854l-2.218-3.455c-.081-.122-.222-.201-.375-.222h-.041c-.145 0-.273.051-.371.151-.025.034-3.207 3.342-7.936 3.339-2.407-.004-4.621-.794-6.239-2.224-1.754-1.558-2.68-3.746-2.68-6.329.004-2.442.883-4.649 2.482-6.207 1.571-1.53 3.768-2.379 6.185-2.375 1.832.007 4.48.77 4.48 2.144v1.398c0 .258.219.471.487.471l4.655.003c.269 0 .497-.211.497-.467v-2.599c.003-2.073-1.343-3.736-3.888-4.822-2.093-.885-4.589-1.208-6.22-1.208-8.626-.009-14.892 5.756-14.897 13.707-.009 7.952 6.202 13.73 14.757 13.742 7.241.003 11.117-4.328 11.28-4.508.135-.156.149-.374.042-.539m5.579-25.811l4.605.008c.265 0 .494-.208.494-.459l.004-5.06c0-.255-.222-.466-.491-.466L155.47.083c-.269 0-.487.211-.487.466l-.003 5.055c0 .25.218.459.483.459"/><path d="M124.197 31.229l-5.359-.007c-.497 0-.673-.172-.673-.64l.02-16.865c.004-2.492-1.229-3.666-3.867-3.672l-12.502-.007c1.057.65 2.01 1.456 2.86 2.415.694.809 1.293 1.702 1.787 2.669l4.986.005c.498.007.68.173.671.637l-.01 16.863c-.005 2.503 1.225 3.67 3.876 3.67l13.838.011c-2.341-1.212-4.267-2.95-5.627-5.079m52.176 1.169l-5.817-5.521c-.864-.811-2.262-.811-3.122 0-.863.818-.863 2.138 0 2.956l1.519 1.439-7.378-.009c-.497 0-.67-.173-.67-.637l.018-16.866c.004-2.503-1.23-3.67-3.874-3.67l-9.868-.007c2.158 1.238 3.377 3.007 3.494 5.082h3.518c.494.005.671.169.671.642l-.019 16.86c-.003 2.5 1.223 3.666 3.871 3.666l10.344.014-1.633 1.55c-.862.813-.862 2.135-.003 2.952.432.407.989.612 1.553.612.567 0 1.133-.205 1.568-.608l5.824-5.503c.86-.815.86-2.139.004-2.952m-115.867-1.23l-2.178-.005c-.491 0-.671-.173-.671-.639l.014-10.959c.007-3.395-.735-5.872-2.264-7.573-1.548-1.73-3.916-2.603-7.051-2.604-4.32-.007-7.765 2.485-9.446 5.085-1.178-3.383-3.933-5.101-8.215-5.101-3.742-.005-6.987 2.125-8.721 4.524v-.67c0-2.704-2.101-3.272-3.873-3.272l-9.94-.008L9.593 8.59c.864-.812.864-2.133.008-2.948-.864-.815-2.265-.818-3.122-.004L.644 11.142c-.86.813-.86 2.136 0 2.951l5.818 5.515c.435.412.997.609 1.564.614.566 0 1.125-.202 1.558-.608.86-.811.86-2.137.007-2.95l-1.73-1.635 7.484.004c.498 0 .67.173.67.643l-.014 20.06c0 .259.219.458.488.458l5.129.013c.277 0 .495-.205.495-.468l.006-11.549c0-1.208.118-2.236.36-3.145.822-2.924 3.204-6.35 7.199-6.348 3.428.009 4.111 2.262 4.111 5.899l-.02 15.155c0 .263.217.467.494.467h5.13c.269 0 .491-.196.491-.459l.009-11.557c0-1.169.135-2.237.419-3.345 1.163-4.22 4.464-6.144 7.036-6.144 3.035.004 4.209 1.658 4.209 5.895l-.011 11.959c0 2.499 1.234 3.668 3.878 3.668l5.078.008c.266 0 .487-.204.487-.464v-4.15c0-.259-.22-.461-.483-.461M5.33 12.619v.003-.003zm72.685 23.178l.006-4.616h-5.458c-.497-.007-.677-.179-.677-.642l.018-16.868c0-2.494-1.226-3.662-3.867-3.669l-11.521-.01c.258.23.498.468.724.721 1.057 1.182 1.809 2.625 2.255 4.364l5.679.007c.495 0 .67.163.67.635l-.017 16.867c0 2.5 1.228 3.663 3.874 3.663l8.38.009c-.039-.143-.066-.3-.066-.461"/></g></svg>