<svg xmlns="http://www.w3.org/2000/svg" xmlns:xlink="http://www.w3.org/1999/xlink" width="94.51" height="46.707" viewBox="0 0 94.51 46.707"><path fill="#010302" d="M5.401 31.128l39.157.913.572-.477v-.874l-.572-.476"/><path fill="#010302" d="M45.131 30.689v.874l-.573.478v-.87M44.558 31.171v.87l-39.157-.912h2.973M92.631 31.128l-44.561.913-.564-.477v-.874l.564-.476"/><path fill="#010302" d="M47.506 30.689v.874l.564.478v-.87M48.07 31.171v.87l44.561-.912h-8.372M4.647.001h7.658v26.966H4.647zM17.573 26.966V0h10.706l7.072 17.245L42.101 0h10.935v26.966h-7.484l.022-19.158-8.118 19.158h-5.055L24.599 7.922l.026 19.044M64.004 26.929V5.464h-8.879V.028h24.961v5.436h-8.875v21.465M87.112.028h7.398v16.871c0 2.203-.156 3.925-.613 5.139-.548 1.424-1.236 2.611-3.445 3.984-1.738 1.079-3.083 1.523-6.062 1.523-3.493 0-5.666-1.155-7.55-2.628-1.321-1.038-1.937-1.931-2.441-3.753l6.384-1.883c.119.322 1.067 2.333 3.14 2.452 1.453.082 1.917-.174 2.284-.636.655-.813.905-1.699.905-3.859V.028zM5.01 35.919h.546v4.143H5.01zM6.46 40.062v-2.889h.453v.407c.224-.312.541-.472.954-.472.18 0 .347.032.504.096.147.061.261.143.339.243.077.104.126.22.157.362.02.088.028.245.028.477v1.775h-.508V38.3c0-.198-.018-.344-.059-.442-.038-.1-.113-.18-.214-.238-.098-.063-.219-.09-.349-.09-.22 0-.406.067-.563.201-.156.13-.239.381-.239.75v1.58H6.46zM75.182 40.062v-2.889h.458v.407c.221-.312.538-.472.955-.472.179 0 .344.032.495.096.155.061.273.143.344.243.077.104.128.22.155.362.021.088.032.245.032.477v1.775h-.506V38.3c0-.198-.025-.344-.061-.442-.038-.1-.115-.18-.214-.238-.099-.063-.216-.09-.35-.09-.216 0-.405.067-.565.201-.156.13-.233.381-.233.75v1.58h-.51zM9.469 39.2l.506-.075c.031.188.105.341.233.445.13.101.31.153.544.153.231 0 .407-.04.519-.135.113-.093.169-.203.169-.324 0-.111-.051-.198-.149-.259-.073-.046-.246-.104-.522-.165-.374-.093-.629-.173-.776-.24-.143-.065-.251-.15-.323-.274-.077-.115-.115-.245-.115-.386 0-.131.032-.248.092-.36.064-.104.147-.197.253-.271.075-.055.186-.103.319-.139.141-.04.286-.063.442-.063.237 0 .44.033.618.1.178.063.315.154.394.265.085.108.145.262.174.449l-.493.062c-.023-.145-.092-.259-.2-.347-.109-.084-.256-.12-.455-.12-.233 0-.399.03-.503.11-.095.071-.149.159-.149.256 0 .059.023.124.063.173.04.053.105.099.192.129.053.02.203.059.45.129.361.093.613.163.753.223.144.06.254.146.337.26.08.113.122.255.122.42 0 .16-.055.315-.15.461-.102.142-.245.253-.43.336-.187.075-.395.117-.632.117-.39 0-.682-.08-.884-.237-.21-.156-.338-.385-.399-.693M77.986 39.2l.495-.075c.03.188.112.341.243.445.125.101.305.153.534.153.235 0 .41-.04.526-.135.106-.093.166-.203.166-.324 0-.111-.048-.198-.152-.259-.07-.046-.24-.104-.515-.165-.374-.093-.632-.173-.779-.24-.143-.065-.252-.15-.327-.274-.071-.115-.11-.245-.11-.386 0-.131.032-.248.09-.36.061-.104.148-.197.25-.271.08-.055.189-.103.324-.139.137-.04.288-.063.436-.063.239 0 .447.033.625.1.18.063.308.154.391.265.087.108.144.262.178.449l-.498.062c-.023-.145-.086-.259-.197-.347-.108-.084-.26-.12-.46-.12-.229 0-.4.03-.5.11-.099.071-.146.159-.146.256 0 .059.017.124.061.173.039.053.106.099.193.129.054.02.205.059.45.129.358.093.614.163.756.223.143.06.25.146.334.26.079.113.118.255.118.42 0 .16-.047.315-.145.461-.102.142-.245.253-.428.336-.188.075-.4.117-.635.117-.39 0-.687-.08-.892-.237-.208-.156-.328-.385-.386-.693M32.457 45.663l.5-.079c.027.193.104.344.238.444.128.111.31.156.534.156.241 0 .411-.043.528-.136.111-.092.165-.196.165-.32 0-.113-.052-.2-.15-.261-.068-.047-.243-.102-.518-.165-.372-.093-.631-.173-.773-.236-.15-.064-.256-.157-.335-.277-.07-.116-.11-.245-.11-.385 0-.13.03-.249.096-.36.061-.107.144-.202.247-.273.08-.057.189-.103.327-.141.133-.04.284-.061.437-.061.235 0 .448.033.619.099.182.064.309.153.396.266.083.11.145.262.172.447l-.495.065c-.022-.15-.088-.266-.199-.343-.107-.092-.258-.13-.454-.13-.238 0-.404.036-.501.11-.098.075-.15.158-.15.261 0 .065.017.118.064.172.039.057.103.096.195.13.049.022.2.063.446.123.362.093.608.171.75.232.143.057.255.143.337.254.078.113.12.252.12.418 0 .164-.047.321-.142.466-.101.141-.246.247-.431.333-.187.077-.399.11-.634.11-.391 0-.688-.073-.894-.229-.202-.152-.333-.385-.385-.69M66.522 45.663l.501-.079c.023.193.109.344.235.444.126.111.309.156.541.156.236 0 .407-.043.52-.136.11-.092.173-.196.173-.32 0-.113-.051-.2-.155-.261-.067-.047-.243-.102-.522-.165-.367-.093-.627-.173-.775-.236-.14-.064-.249-.157-.325-.277-.075-.116-.114-.245-.114-.385 0-.13.03-.249.091-.36.065-.107.149-.202.253-.273.08-.057.189-.103.326-.141.135-.04.281-.061.438-.061.233 0 .444.033.619.099.18.064.312.153.392.266.086.11.146.262.177.447l-.497.065c-.021-.15-.09-.266-.194-.343-.112-.092-.264-.13-.459-.13-.241 0-.402.036-.502.11-.101.075-.153.158-.153.261 0 .065.025.118.067.172.039.057.103.096.193.13.049.022.2.063.449.123.358.093.611.171.75.232.144.057.26.143.338.254.083.113.119.252.119.418 0 .164-.048.321-.145.466-.097.141-.241.247-.428.333-.188.077-.399.11-.634.11-.388 0-.684-.073-.895-.229-.199-.152-.331-.385-.384-.69M13.676 39.607v.445c-.143.033-.196.048-.309.048-.182 0-.328-.031-.43-.089-.106-.062-.174-.136-.215-.23-.045-.095-.063-.296-.063-.602v-1.466h-.369v-.391h.369v-.835h.508v.835h.509v.391h-.509v1.493c0 .148.005.236.023.281.02.042.05.076.089.1.043.024.103.038.172.038.059.001.13-.008.225-.018M16.701 39.607v.445c-.142.033-.192.048-.308.048-.183 0-.328-.031-.43-.089-.098-.062-.167-.136-.213-.23-.04-.095-.06-.296-.06-.602v-1.466h-.375v-.391h.375v-.835h.503v.835h.508v.391h-.508v1.493c0 .148.011.236.027.281.019.042.045.076.09.1.038.024.098.038.175.038.053.001.123-.008.216-.018M21.81 39.607v.445c-.144.033-.198.048-.31.048-.187 0-.33-.031-.429-.089-.099-.062-.17-.136-.211-.23-.045-.095-.066-.296-.066-.602v-1.466h-.37v-.391h.37v-.835h.504v.835h.512v.391h-.512v1.493c0 .148.01.236.033.281.012.042.047.076.084.1.045.024.099.038.174.038.056.001.132-.008.221-.018M36.559 46.096v.449c-.149.029-.201.038-.313.038-.186 0-.332-.021-.432-.081-.097-.057-.167-.136-.21-.231-.047-.095-.065-.294-.065-.604v-1.458h-.369v-.396h.369v-.835h.508v.835h.512v.396h-.512v1.49c0 .15.009.242.026.284.021.04.048.069.089.096.037.024.096.036.172.036.057-.001.131-.008.225-.019M90.768 39.607l-.008.445c-.142.033-.196.048-.309.048-.184 0-.325-.031-.428-.089-.102-.062-.175-.136-.214-.23-.043-.095-.061-.296-.061-.602v-1.466h-.378v-.391h.378v-.835h.502v.835h.518v.391h-.518v1.493c0 .148.012.236.027.281.02.042.048.076.089.1.038.024.096.038.17.038.059.001.136-.008.232-.018M14.179 35.919h.509v.584h-.509v-.584zm0 1.14h.509v3.003h-.509v-3.003zM19.379 40.062v-.436c-.234.333-.549.503-.951.503-.176 0-.344-.036-.493-.102-.153-.068-.271-.15-.343-.252-.075-.1-.128-.227-.154-.373-.024-.096-.033-.253-.033-.47v-1.828h.507v1.637c0 .265.01.442.032.531.034.13.101.235.203.307.105.077.233.116.382.116.156 0 .301-.039.429-.116.133-.08.227-.181.286-.314.052-.131.083-.324.083-.574v-1.586h.505v2.957h-.453zM22.453 38.617c0-.537.155-.93.465-1.19.253-.211.567-.318.939-.318.416 0 .753.132 1.014.391.265.261.391.62.391 1.077 0 .37-.053.663-.17.874-.115.215-.285.38-.508.5-.222.119-.465.178-.727.178-.418 0-.754-.129-1.018-.392-.256-.258-.386-.633-.386-1.12m.524 0c0 .37.084.647.247.83.174.188.38.277.634.277.255 0 .462-.096.632-.281.17-.185.253-.463.253-.846 0-.355-.083-.622-.253-.806s-.377-.276-.632-.276c-.254 0-.46.087-.634.276-.163.182-.247.451-.247.826M40.43 38.617c0-.537.151-.93.462-1.19.253-.211.568-.318.936-.318.416 0 .753.132 1.016.391.26.261.39.62.39 1.077 0 .37-.06.663-.173.874-.116.215-.284.38-.504.5-.221.119-.463.178-.729.178-.411 0-.753-.129-1.013-.392-.261-.258-.385-.633-.385-1.12m.52 0c0 .37.083.647.25.83.166.188.38.277.628.277.26 0 .465-.096.634-.281.165-.185.25-.463.25-.846 0-.355-.085-.622-.25-.806-.171-.184-.379-.276-.634-.276-.248 0-.462.087-.628.276-.167.182-.25.451-.25.826M43.507 45.08c0-.536.157-.933.46-1.189.261-.211.575-.322.949-.322.411 0 .747.132 1.012.393.257.259.389.621.389 1.077 0 .375-.057.663-.172.878-.119.211-.285.38-.504.495-.225.113-.464.173-.725.173-.42 0-.763-.123-1.02-.384-.259-.262-.389-.637-.389-1.121m.522 0c0 .368.083.648.252.832.165.184.376.272.635.272.248 0 .458-.089.625-.272.168-.189.252-.472.252-.849 0-.361-.086-.629-.252-.813-.167-.18-.377-.276-.625-.276-.259 0-.47.092-.635.276-.169.185-.252.46-.252.83M72.311 45.08c0-.536.158-.933.464-1.189.258-.211.575-.322.944-.322.413 0 .751.132 1.007.393.263.259.396.621.396 1.077 0 .375-.062.663-.173.878-.119.211-.288.38-.509.495-.216.113-.462.173-.721.173-.421 0-.757-.123-1.021-.384-.257-.262-.387-.637-.387-1.121m.522 0c0 .368.083.648.253.832.164.184.38.272.633.272.252 0 .46-.089.629-.272.167-.189.25-.472.25-.849 0-.361-.083-.629-.252-.813-.168-.18-.375-.276-.627-.276-.253 0-.469.092-.633.276-.17.185-.253.46-.253.83M83.979 38.617c0-.537.149-.93.462-1.19.257-.211.568-.318.941-.318.415 0 .749.132 1.011.391.262.261.394.62.394 1.077 0 .37-.059.663-.178.874-.112.215-.282.38-.499.5-.224.119-.466.178-.728.178-.424 0-.763-.129-1.018-.392-.261-.258-.385-.633-.385-1.12m.515 0c0 .37.088.647.252.83.169.188.381.277.636.277.252 0 .463-.096.631-.281.168-.185.25-.463.25-.846 0-.355-.082-.622-.25-.806-.173-.184-.383-.276-.631-.276-.255 0-.467.087-.636.276-.164.182-.252.451-.252.826M29.524 40.063v-.378c-.191.299-.47.444-.84.444-.238 0-.455-.066-.654-.2-.204-.138-.359-.316-.471-.554-.108-.233-.168-.507-.168-.81s.053-.457.153-.703c.103-.242.255-.427.453-.561.194-.129.42-.193.665-.193.183 0 .344.039.482.117.143.076.258.174.345.297v-1.604h.507v4.145h-.472zm-1.606-1.498c0 .38.079.669.245.857.156.189.349.286.574.286.218 0 .407-.092.566-.272.153-.183.235-.456.235-.833 0-.411-.082-.595-.245-.785-.157-.192-.35-.29-.579-.29-.231 0-.42.098-.571.275-.146.189-.225.36-.225.762M42.244 46.519v-.376c-.19.297-.469.441-.841.441-.236 0-.453-.062-.655-.197-.199-.13-.353-.313-.47-.549-.108-.235-.165-.506-.165-.813 0-.299.052-.452.15-.699.105-.24.249-.433.449-.557.201-.133.424-.2.671-.2.183 0 .341.036.48.113.141.081.257.176.348.305V42.38h.503v4.139h-.47zm-1.607-1.495c0 .382.082.666.243.861.162.188.353.288.571.288.227 0 .412-.088.566-.281.158-.173.233-.452.233-.827 0-.407-.077-.592-.236-.785-.159-.195-.356-.289-.583-.289-.229 0-.415.094-.567.279-.152.178-.227.358-.227.754M60.31 40.063v-.378c-.194.299-.471.444-.841.444-.241 0-.461-.066-.662-.2-.201-.138-.353-.316-.468-.554-.11-.233-.162-.507-.162-.81s.052-.457.148-.703c.099-.242.251-.427.451-.561.2-.129.418-.193.671-.193.178 0 .34.039.483.117.136.076.256.174.346.297v-1.604h.505v4.145h-.471zm-1.611-1.498c0 .38.083.669.243.857.162.189.356.286.574.286.22 0 .414-.092.568-.272.158-.183.232-.456.232-.833 0-.411-.077-.595-.24-.785-.155-.192-.352-.29-.585-.29-.222 0-.408.098-.566.275-.151.189-.226.36-.226.762M53.354 40.063v-.378c-.186.299-.472.444-.839.444-.235 0-.458-.066-.656-.2-.199-.138-.355-.316-.468-.554-.11-.233-.167-.507-.167-.81s.047-.457.153-.703c.095-.242.251-.427.448-.561.199-.129.424-.193.671-.193.181 0 .339.039.483.117.143.076.255.174.345.297v-1.604h.503v4.145h-.473zm-1.607-1.498c0 .38.087.669.246.857.164.189.353.286.574.286.223 0 .412-.092.567-.272.153-.183.23-.456.23-.833 0-.411-.08-.595-.233-.785-.167-.192-.356-.29-.584-.29-.231 0-.423.098-.571.275-.151.189-.229.36-.229.762M33.497 39.428c-.073.103-.303.376-.41.451-.223.163-.508.249-.859.249-.441 0-.785-.129-1.041-.392-.258-.262-.389-.622-.389-1.095 0-.485.132-.862.394-1.126.253-.272.595-.407 1.006-.407.409 0 .732.135.987.395.249.263.379.636.379 1.11v.28h-2.237c.003.545.43.827.906.831.186 0 .346-.04.478-.146.056-.037.103-.086.153-.148l.633-.002zm-2.146-.934h1.679c-.025-.247-.091-.574-.195-.699-.16-.192-.366-.279-.628-.279-.23 0-.435.066-.59.224-.157.148-.246.502-.266.754M51.143 46.519v-.376c-.191.297-.47.441-.839.441-.24 0-.457-.062-.658-.197-.202-.13-.361-.313-.469-.549-.109-.235-.166-.506-.166-.813 0-.299.055-.452.149-.699.103-.24.25-.433.447-.557.202-.133.427-.2.676-.2.178 0 .341.036.48.113.138.081.259.176.344.305V42.38h.503v4.139h-.467zm-1.608-1.495c0 .382.079.666.242.861.163.188.353.288.575.288.221 0 .411-.088.568-.281.154-.173.227-.452.227-.827 0-.407-.073-.592-.232-.785-.158-.195-.355-.289-.586-.289-.224 0-.414.094-.57.279-.153.178-.224.358-.224.754M55.115 45.891c-.069.104-.304.378-.408.456-.226.16-.511.236-.86.236-.437 0-.786-.127-1.044-.386-.256-.257-.384-.627-.384-1.092 0-.485.128-.864.39-1.131.259-.271.595-.405 1.016-.405.398 0 .723.132.975.396.257.262.386.631.386 1.107 0 .031-.008.224-.008.279h-2.234c.008.552.43.834.903.834.19 0 .349-.045.481-.143.058-.041.112-.088.153-.152h.634zm-2.146-.936h1.677c-.019-.246-.085-.576-.189-.702-.163-.187-.371-.278-.63-.278-.241 0-.43.071-.593.223-.158.154-.244.505-.265.757M20.581 46.519v-.376c-.192.297-.47.441-.84.441-.242 0-.46-.062-.661-.197-.198-.13-.359-.313-.467-.549-.104-.235-.162-.506-.162-.813 0-.299.05-.452.146-.699.105-.24.255-.433.451-.557.2-.133.423-.2.671-.2.182 0 .341.036.483.113.14.081.256.176.343.305V42.38h.506v4.139h-.47zm-1.61-1.495c0 .382.081.666.241.861.168.188.356.288.58.288.221 0 .41-.088.563-.281.156-.173.233-.452.233-.827 0-.407-.077-.592-.237-.785-.157-.195-.352-.289-.583-.289-.226 0-.414.094-.566.279-.154.178-.231.358-.231.754M24.552 45.891c-.072.104-.302.378-.41.456-.223.16-.51.236-.857.236-.435 0-.787-.127-1.043-.386-.258-.257-.384-.627-.384-1.092 0-.485.128-.864.389-1.131.258-.271.597-.405 1.007-.405.404 0 .735.132.984.396.262.262.386.631.386 1.107v.279h-2.245c.006.552.432.834.906.834.19 0 .347-.045.479-.143.058-.041.111-.088.155-.152h.633zm-2.145-.936h1.675c-.019-.246-.08-.576-.188-.702-.164-.187-.374-.278-.629-.278-.237 0-.431.071-.591.223-.158.154-.25.505-.267.757M35.716 40.062v-4.143h.826l.981 2.928c.091.279.154.477.197.615.049-.151.121-.372.218-.664l.998-2.879h.733v4.143h-.521v-3.47l-1.21 3.47h-.494l-1.199-3.528v3.528h-.529zM44.597 40.063l-1.138-2.916h.537l.643 1.746c.069.19.137.38.19.588.044-.156.115-.34.194-.557l.666-1.777h.519l-1.137 2.916h-.474zM46.926 35.919h.508v.584h-.508v-.584zm0 1.14h.508v3.003h-.508v-3.003zM48.418 35.919h.509v4.143h-.509zM49.963 35.919h.51v.584h-.51v-.584zm0 1.14h.51v3.003h-.51v-3.003zM56.846 39.709c-.185.152-.369.26-.542.321-.177.063-.365.098-.563.098-.331 0-.584-.078-.758-.236-.175-.155-.266-.351-.266-.587 0-.146.033-.271.1-.387.064-.121.156-.213.262-.279.108-.073.232-.124.364-.163.104-.021.25-.051.457-.078.408-.041.71-.099.905-.164v-.13c0-.194-.046-.338-.138-.423-.136-.105-.325-.159-.582-.159-.24 0-.416.037-.532.117-.112.086-.196.224-.255.433L54.802 38c.046-.199.12-.363.228-.495.1-.122.249-.221.446-.285.193-.073.424-.106.679-.106.259 0 .465.033.626.091.161.059.279.126.351.214.078.098.129.202.159.336.018.083.024.233.024.448v1.861h-.447l-.022-.355zm-.041-1.092c-.185.073-.463.13-.833.18-.208.034-.354.068-.442.103-.087.033-.154.088-.204.158-.047.067-.066.142-.066.23 0 .133.051.238.15.329.106.082.256.13.456.13.194 0 .366-.042.52-.128.152-.083.263-.191.337-.334.051-.113.082-.272.082-.49v-.178zM39.197 46.168c-.189.154-.37.264-.546.327-.17.062-.354.089-.554.089-.333 0-.586-.074-.764-.23-.178-.153-.267-.351-.267-.591 0-.138.034-.266.103-.384.063-.12.157-.212.261-.282.105-.072.232-.125.368-.156.098-.028.252-.049.454-.079.41-.044.71-.1.903-.161.005-.069.005-.113.005-.134 0-.198-.051-.341-.145-.424-.131-.102-.326-.156-.579-.156-.239 0-.415.036-.534.118-.112.077-.199.221-.247.426l-.5-.066c.049-.202.122-.365.223-.496.105-.125.257-.221.449-.285.194-.075.425-.101.682-.101.254 0 .466.022.625.084.16.055.278.131.355.219.071.083.127.2.158.33.015.087.022.233.022.455v1.852h-.448l-.024-.355zm-.042-1.088c-.184.071-.458.133-.831.179-.209.034-.359.064-.438.101-.092.034-.161.089-.204.159-.047.066-.072.148-.072.231 0 .127.052.235.159.324.099.087.25.136.447.136.194 0 .369-.042.522-.124.15-.083.267-.195.335-.34.052-.11.082-.271.082-.49v-.176zM62.911 46.168c-.188.154-.372.264-.542.327-.178.062-.364.089-.564.089-.331 0-.585-.074-.761-.23-.179-.153-.263-.351-.263-.591 0-.138.034-.266.095-.384.07-.12.157-.212.265-.282.111-.072.228-.125.366-.156.099-.028.253-.049.452-.079.411-.044.714-.1.908-.161v-.134c0-.198-.047-.341-.14-.424-.132-.102-.327-.156-.585-.156-.235 0-.411.036-.526.118-.114.077-.2.221-.253.426l-.498-.066c.045-.202.124-.365.226-.496.104-.125.248-.221.448-.285.195-.075.42-.101.681-.101.255 0 .463.022.62.084.166.055.28.131.36.219.073.083.127.2.154.33.016.087.025.233.025.455v1.852h-.447l-.021-.355zm-.044-1.088c-.184.071-.464.133-.83.179-.21.034-.36.064-.441.101-.089.034-.155.089-.206.159-.042.066-.068.148-.068.231 0 .127.047.235.152.324.108.087.252.136.452.136.196 0 .37-.042.52-.124.155-.083.265-.195.339-.34.053-.11.082-.271.082-.49v-.176zM74.153 39.709c-.176.152-.34.26-.498.321-.163.063-.335.098-.515.098-.302 0-.537-.078-.697-.236-.164-.155-.241-.351-.241-.587 0-.146.032-.271.09-.387.06-.121.141-.213.239-.279.103-.073.211-.124.335-.163.096-.021.234-.051.419-.078.372-.041.649-.099.827-.164 0-.069.003-.11.003-.13 0-.194-.045-.338-.137-.423-.113-.105-.292-.159-.527-.159-.218 0-.381.037-.485.117-.105.086-.176.146-.224.354l-.463.007c.042-.199.109-.363.205-.495.092-.122.233-.221.408-.285.182-.073.393-.106.628-.106.234 0 .426.033.572.091.145.059.254.126.321.214.073.098.116.202.15.336.013.083.02.233.02.448v1.861h-.409l-.021-.355zm-.041-1.092c-.169.073-.422.13-.763.18-.188.034-.324.068-.402.103-.081.033-.145.088-.185.158-.042.067-.065.142-.065.23 0 .133.045.238.141.329.093.082.232.13.412.13.178 0 .335-.042.477-.128.138-.083.243-.191.308-.334.052-.113.077-.272.077-.49v-.178zM62.932 41.214l-.055-.48c.11.029.204.049.291.049.107 0 .199-.02.272-.056.066-.037.12-.093.164-.159.031-.056.086-.184.155-.381.01-.024.021-.068.044-.123l-1.137-3.005h.548l.621 1.736c.088.222.155.453.222.698.059-.235.128-.464.208-.684l.64-1.751h.508l-1.141 3.056c-.122.325-.215.551-.282.675-.092.172-.196.293-.312.372-.118.079-.259.113-.417.113-.102 0-.212-.018-.329-.06M68.112 40.062v-3.657h-1.367v-.486h3.283v.486h-1.372v3.657M70.352 40.062v-2.881h.455v.437c.124-.202.227-.338.324-.404.1-.066.211-.1.333-.1.167 0 .264.018.44.118v.38s-.575-.068-.773.104c-.078.078-.149.156-.188.268-.056.174-.082.363-.082.572v1.507h-.509zM87.376 40.062v-2.881h.457v.437c.117-.202.227-.338.323-.404.102-.066.21-.1.329-.1.17 0 .27.018.447.118v.38s-.581-.068-.774.104c-.083.078-.149.156-.186.268-.057.174-.087.363-.087.572v1.507h-.509zM80.818 41.21v-4.151h.46v.389c.107-.151.233-.267.365-.339.144-.078.309-.117.507-.117.257 0 .48.067.677.2.195.129.344.313.441.557.101.239.151.499.151.786 0 .309-.055.585-.165.825-.109.253-.272.441-.482.57-.21.132-.43.198-.658.198-.174 0-.324-.036-.459-.11-.134-.071-.244-.163-.33-.271v1.463h-.507zm.46-2.634c0 .388.075.672.233.859.157.182.343.273.563.273.23 0 .426-.097.584-.286.16-.19.238-.49.238-.889 0-.382-.078-.67-.232-.861-.159-.188-.343-.28-.564-.28-.22 0-.41.099-.574.301-.169.205-.248.497-.248.883M93.588 39.095l.523.058c-.082.309-.233.553-.458.721-.225.169-.511.255-.863.255-.437 0-.785-.139-1.045-.407-.251-.271-.38-.651-.38-1.139 0-.502.129-.895.388-1.175.26-.277.595-.416 1.009-.416.403 0 .726.139.981.408.259.274.388.655.388 1.156 0 .026-.004.072-.004.135h-2.24c.022.326.115.58.28.753.166.176.374.266.626.266.192 0 .349-.052.478-.146.136-.103.235-.257.317-.469m-1.673-.822h1.678c-.025-.257-.086-.445-.19-.568-.168-.2-.376-.298-.633-.298-.234 0-.425.083-.589.237-.16.157-.245.365-.266.629M25.222 42.344h.506v4.146h-.506zM29.092 46.49v-4.146h2.996v.492h-2.447v1.269h2.291v.486h-2.291v1.405h2.541v.494M57.912 45.312l.493-.069c.011.321.073.535.176.65.106.121.246.179.439.179.134 0 .252-.033.355-.095.101-.062.17-.151.206-.256.04-.11.056-.285.056-.521v-2.854h.549v2.821c0 .353-.04.621-.125.811-.085.19-.214.327-.397.431-.185.104-.398.155-.639.155-.368 0-.643-.108-.841-.313-.191-.217-.281-.522-.272-.939M64.042 42.344h.506v4.146h-.506zM65.545 42.344h.508v.588h-.508v-.588zm0 1.142h.508v3.004h-.508v-3.004zM71.5 45.537l.498.067c-.051.344-.191.614-.421.811-.219.193-.493.292-.827.292-.41 0-.739-.133-.988-.403-.254-.27-.377-.653-.377-1.152 0-.326.058-.607.16-.85.114-.243.273-.426.493-.548.219-.121.461-.186.718-.186.328 0 .596.087.799.249.205.169.339.397.4.703l-.492.076c-.052-.2-.134-.356-.257-.457-.115-.099-.264-.148-.429-.148-.252 0-.466.089-.625.271-.164.187-.244.472-.244.874 0 .401.08.696.232.88.153.181.359.28.607.28.199 0 .364-.071.502-.188.128-.126.215-.315.251-.571"/><defs><path id="a" d="M48.07 31.128h44.561v.913H48.07z"/></defs><clipPath id="b"><use xlink:href="#a" overflow="visible"/></clipPath><path clip-path="url(#b)" fill="#010302" d="M48.07 31.171v.87l44.561-.912h-8.372"/><defs><path id="c" d="M47.506 30.69h.564v1.351h-.564z"/></defs><clipPath id="d"><use xlink:href="#c" overflow="visible"/></clipPath><path clip-path="url(#d)" fill="#010302" d="M48.07 31.171v.87l-.564-.477v-.875"/><g><defs><path id="e" d="M0 31.128h44.558v.913H0z"/></defs><clipPath id="f"><use xlink:href="#e" overflow="visible"/></clipPath><path clip-path="url(#f)" fill="#010302" d="M44.558 31.171v.87L0 31.129h8.374"/></g><g><defs><path id="g" d="M44.558 30.69h.572v1.351h-.572z"/></defs><clipPath id="h"><use xlink:href="#g" overflow="visible"/></clipPath><path clip-path="url(#h)" fill="#010302" d="M44.558 31.171v.87l.573-.477v-.875"/></g></svg>