<?xml version="1.0" encoding="utf-8"?>
<!-- Generator: Adobe Illustrator 19.2.0, SVG Export Plug-In . SVG Version: 6.00 Build 0)  -->
<svg version="1.1" id="Capa_1" xmlns="http://www.w3.org/2000/svg" xmlns:xlink="http://www.w3.org/1999/xlink" x="0px" y="0px"
	 viewBox="0 0 214.6 50" style="enable-background:new 0 0 214.6 50;" xml:space="preserve">
<style type="text/css">
	.st0{fill:#262626;}
</style>
<g>
	<g>
		<g>
			<g>
				<path class="st0" d="M80.5,7.2l5.6,0c0.3,0,0.6-0.2,0.6-0.6l0-6.1c0-0.3-0.3-0.6-0.6-0.6h-5.6C80.2,0,80,0.2,80,0.6l0,6.1
					C80,7,80.2,7.2,80.5,7.2z"/>
				<path class="st0" d="M125,16c-2.7-3.1-6.4-4.7-10.8-4.7c-5.3,0-8.4,2.3-9.9,3.9c0-0.3,0-0.5,0-0.8l0-10c0-3-1.5-4.4-4.7-4.4
					h-6.2c-0.3,0-0.6,0.3-0.6,0.6l0,5c0,0.3,0.3,0.6,0.6,0.6h2.6c0.6,0,0.8,0.2,0.8,0.8l0,36.3c0,0.3,0.3,0.6,0.6,0.6h6
					c0.3,0,0.6-0.2,0.6-0.6v-2.1c0-0.2,0-0.4,0-0.6c1.5,1.6,4.5,4,9.6,4c4.4,0,8.3-1.6,11-4.5c2.8-3,4.3-7.2,4.3-12
					C129,23.1,127.6,19,125,16z M121.5,28c0,3.2-0.9,5.8-2.6,7.7c-1.6,1.7-3.8,2.7-6.2,2.7c-5.9,0-8.6-5.4-8.6-10.3
					c0-3.5,0.9-6.2,2.7-8c1.9-2,4.3-2.4,6-2.4c2.5,0,4.6,1,6.2,2.8C120.6,22.3,121.5,24.9,121.5,28z"/>
				<path class="st0" d="M136.6,7.3l5.6,0c0.3,0,0.6-0.3,0.6-0.6l0-6.1c0-0.3-0.3-0.6-0.6-0.6l-5.6,0c-0.3,0-0.6,0.2-0.6,0.6l0,6.1
					C136,7,136.3,7.3,136.6,7.3z"/>
				<path class="st0" d="M181.7,38.5l-2.7-4.2c-0.1-0.1-0.3-0.2-0.5-0.3c0,0,0,0,0,0c-0.2,0-0.3,0.1-0.4,0.2c0,0-3.9,4-9.6,4
					c-2.9,0-5.6-1-7.6-2.7c-2.1-1.9-3.2-4.5-3.2-7.6c0-2.9,1.1-5.6,3-7.5c1.9-1.8,4.6-2.9,7.5-2.9c2.2,0,5.4,0.9,5.4,2.6v1.7
					c0,0.3,0.3,0.6,0.6,0.6l5.6,0c0.3,0,0.6-0.3,0.6-0.6v-3.1c0-2.5-1.6-4.5-4.7-5.8c-2.5-1.1-5.6-1.5-7.5-1.5
					c-10.5,0-18.1,6.9-18.1,16.5c0,9.6,7.5,16.6,17.9,16.6c8.8,0,13.5-5.2,13.7-5.4C181.8,38.9,181.8,38.7,181.7,38.5z"/>
				<path class="st0" d="M188.4,7.3l5.6,0c0.3,0,0.6-0.3,0.6-0.6l0-6.1c0-0.3-0.3-0.6-0.6-0.6l-5.6,0c-0.3,0-0.6,0.3-0.6,0.6l0,6.1
					C187.9,7.1,188.1,7.3,188.4,7.3z"/>
				<path class="st0" d="M150.5,37.7l-6.5,0c-0.6,0-0.8-0.2-0.8-0.8l0-20.4c0-3-1.5-4.4-4.7-4.4l-15.2,0c1.3,0.8,2.4,1.8,3.5,2.9
					c0.8,1,1.6,2.1,2.2,3.2l6,0c0.6,0,0.8,0.2,0.8,0.8l0,20.4c0,3,1.5,4.4,4.7,4.4l16.8,0C154.5,42.4,152.2,40.3,150.5,37.7z"/>
				<path class="st0" d="M213.8,39.1l-7.1-6.7c-1-1-2.7-1-3.8,0c-1,1-1,2.6,0,3.6l1.8,1.7l-8.9,0c-0.6,0-0.8-0.2-0.8-0.8l0-20.4
					c0-3-1.5-4.4-4.7-4.4l-12,0c2.6,1.5,4.1,3.6,4.2,6.1h4.3c0.6,0,0.8,0.2,0.8,0.8l0,20.3c0,3,1.5,4.4,4.7,4.4l12.5,0l-2,1.9
					c-1,1-1,2.6,0,3.6c0.5,0.5,1.2,0.7,1.9,0.7c0.7,0,1.4-0.2,1.9-0.7l7.1-6.6C214.8,41.7,214.8,40.1,213.8,39.1z"/>
				<path class="st0" d="M73.3,37.6l-2.6,0c-0.6,0-0.8-0.2-0.8-0.8l0-13.2c0-4.1-0.9-7.1-2.7-9.1c-1.9-2.1-4.7-3.1-8.5-3.1
					c-5.2,0-9.4,3-11.5,6.1c-1.4-4.1-4.8-6.2-10-6.2c-4.5,0-8.5,2.6-10.6,5.5V16c0-3.3-2.5-3.9-4.7-3.9l-12,0l1.7-1.6
					c1-1,1-2.6,0-3.6c-1-1-2.7-1-3.8,0l-7.1,6.6c-1,1-1,2.6,0,3.6l7.1,6.7c0.5,0.5,1.2,0.7,1.9,0.7c0.7,0,1.4-0.2,1.9-0.7
					c1-1,1-2.6,0-3.6l-2.1-2l9.1,0c0.6,0,0.8,0.2,0.8,0.8l0,24.2c0,0.3,0.3,0.6,0.6,0.6l6.2,0c0.3,0,0.6-0.2,0.6-0.6l0-13.9
					c0-1.5,0.1-2.7,0.4-3.8c1-3.5,3.9-7.7,8.7-7.7c4.2,0,5,2.7,5,7.1l0,18.3c0,0.3,0.3,0.6,0.6,0.6h6.2c0.3,0,0.6-0.2,0.6-0.6
					l0-13.9c0-1.4,0.2-2.7,0.5-4c1.4-5.1,5.4-7.4,8.5-7.4c3.7,0,5.1,2,5.1,7.1l0,14.4c0,3,1.5,4.4,4.7,4.4l6.2,0
					c0.3,0,0.6-0.2,0.6-0.6v-5C73.9,37.9,73.7,37.6,73.3,37.6z M6.5,15.2L6.5,15.2L6.5,15.2L6.5,15.2z"/>
				<path class="st0" d="M94.6,43.2l0-5.6H88c-0.6,0-0.8-0.2-0.8-0.8l0-20.4c0-3-1.5-4.4-4.7-4.4l-14,0c0.3,0.3,0.6,0.6,0.9,0.9
					c1.3,1.4,2.2,3.2,2.7,5.3l6.9,0c0.6,0,0.8,0.2,0.8,0.8l0,20.4c0,3,1.5,4.4,4.7,4.4l10.2,0C94.6,43.6,94.6,43.4,94.6,43.2z"/>
			</g>
		</g>
	</g>
</g>
</svg>
