<?xml version="1.0" encoding="utf-8"?>
<!-- Generator: Adobe Illustrator 20.0.0, SVG Export Plug-In . SVG Version: 6.00 Build 0)  -->
<svg version="1.1" id="Capa_1" xmlns="http://www.w3.org/2000/svg" xmlns:xlink="http://www.w3.org/1999/xlink" x="0px" y="0px"
	 viewBox="0 0 141.5 33.1" style="enable-background:new 0 0 141.5 33.1;" xml:space="preserve">
<style type="text/css">
	.st0{fill:#BC2333;}
	.st1{fill:#B12429;}
	.st2{fill:#11B09D;}
	.st3{fill:#7FAD41;}
	.st4{fill:#F0AF2A;}
	.st5{fill:#861D1E;}
</style>
<g>
	<g>
		<g>
			<g>
				<g>
					<path class="st0" d="M53.1,4.8l3.7,0c0.2,0,0.4-0.2,0.4-0.4l0-4C57.2,0.2,57,0,56.8,0h-3.7c-0.2,0-0.4,0.2-0.4,0.4l0,4
						C52.7,4.6,52.9,4.8,53.1,4.8z"/>
					<path class="st1" d="M82.4,10.6c-1.8-2-4.2-3.1-7.1-3.1c-3.5,0-5.5,1.5-6.5,2.6c0-0.2,0-0.4,0-0.6l0-6.6c0-2-1-2.9-3.1-2.9
						h-4.1c-0.2,0-0.4,0.2-0.4,0.4l0,3.3c0,0.2,0.2,0.4,0.4,0.4h1.7c0.4,0,0.5,0.1,0.5,0.5l0,24c0,0.2,0.2,0.4,0.4,0.4h3.9
						c0.2,0,0.4-0.2,0.4-0.4v-1.4c0-0.1,0-0.3,0-0.4c1,1.1,3,2.6,6.3,2.6c2.9,0,5.4-1.1,7.3-3c1.9-2,2.9-4.7,2.9-8
						C85,15.3,84.1,12.6,82.4,10.6z M80.1,18.6c0,2.1-0.6,3.9-1.7,5.1c-1,1.1-2.5,1.8-4.1,1.8c-3.9,0-5.6-3.6-5.6-6.8
						c0-2.3,0.6-4.1,1.8-5.3c1.3-1.3,2.9-1.6,4-1.6c1.7,0,3.1,0.6,4.1,1.8C79.5,14.8,80.1,16.5,80.1,18.6z"/>
					<path class="st2" d="M90.1,4.8l3.7,0c0.2,0,0.4-0.2,0.4-0.4l0-4C94.2,0.2,94,0,93.8,0l-3.7,0c-0.2,0-0.4,0.2-0.4,0.4l0,4
						C89.7,4.6,89.9,4.8,90.1,4.8z"/>
					<path class="st3" d="M119.8,25.5l-1.8-2.8c-0.1-0.1-0.2-0.2-0.3-0.2c0,0,0,0,0,0c-0.1,0-0.2,0-0.3,0.1c0,0-2.6,2.7-6.3,2.7
						c-1.9,0-3.7-0.6-5-1.8c-1.4-1.2-2.1-3-2.1-5.1c0-2,0.7-3.7,2-5c1.3-1.2,3-1.9,4.9-1.9c1.5,0,3.6,0.6,3.6,1.7v1.1
						c0,0.2,0.2,0.4,0.4,0.4l3.7,0c0.2,0,0.4-0.2,0.4-0.4v-2.1c0-1.7-1.1-3-3.1-3.9c-1.7-0.7-3.7-1-5-1c-6.9,0-11.9,4.6-11.9,11
						c0,6.4,5,11,11.8,11c5.8,0,8.9-3.5,9-3.6C119.9,25.8,119.9,25.6,119.8,25.5z"/>
					<path class="st4" d="M124.2,4.8l3.7,0c0.2,0,0.4-0.2,0.4-0.4l0-4c0-0.2-0.2-0.4-0.4-0.4l-3.7,0c-0.2,0-0.4,0.2-0.4,0.4l0,4
						C123.9,4.7,124,4.8,124.2,4.8z"/>
					<path class="st2" d="M99.3,25L95,25c-0.4,0-0.5-0.1-0.5-0.5l0-13.5c0-2-1-2.9-3.1-2.9l-10,0c0.8,0.5,1.6,1.2,2.3,1.9
						c0.6,0.6,1,1.4,1.4,2.1l4,0c0.4,0,0.5,0.1,0.5,0.5l0,13.5c0,2,1,2.9,3.1,2.9l11.1,0C101.9,28,100.3,26.7,99.3,25z"/>
					<path class="st4" d="M141,25.9l-4.6-4.4c-0.7-0.6-1.8-0.6-2.5,0c-0.7,0.7-0.7,1.7,0,2.4L135,25l-5.9,0c-0.4,0-0.5-0.1-0.5-0.5
						l0-13.5c0-2-1-2.9-3.1-2.9l-7.9,0c1.7,1,2.7,2.4,2.8,4.1h2.8c0.4,0,0.5,0.1,0.5,0.5l0,13.5c0,2,1,2.9,3.1,2.9l8.3,0l-1.3,1.2
						c-0.7,0.6-0.7,1.7,0,2.4c0.3,0.3,0.8,0.5,1.2,0.5c0.5,0,0.9-0.2,1.3-0.5l4.7-4.4C141.6,27.6,141.6,26.5,141,25.9z"/>
					<path class="st5" d="M48.4,24.9l-1.7,0c-0.4,0-0.5-0.1-0.5-0.5l0-8.8c0-2.7-0.6-4.7-1.8-6.1c-1.2-1.4-3.1-2.1-5.6-2.1
						c-3.5,0-6.2,2-7.5,4.1c-0.9-2.7-3.1-4.1-6.6-4.1c-3,0-5.6,1.7-7,3.6v-0.5c0-2.2-1.7-2.6-3.1-2.6l-7.9,0l1.1-1.1
						c0.7-0.6,0.7-1.7,0-2.4C7,3.9,5.9,3.9,5.2,4.5L0.5,8.9c-0.7,0.6-0.7,1.7,0,2.4l4.6,4.4C5.5,16,6,16.2,6.4,16.2
						c0.5,0,0.9-0.2,1.2-0.5c0.7-0.6,0.7-1.7,0-2.4L6.3,12l6,0c0.4,0,0.5,0.1,0.5,0.5l0,16c0,0.2,0.2,0.4,0.4,0.4l4.1,0
						c0.2,0,0.4-0.2,0.4-0.4l0-9.2c0-1,0.1-1.8,0.3-2.5c0.7-2.3,2.6-5.1,5.8-5.1c2.7,0,3.3,1.8,3.3,4.7l0,12.1
						c0,0.2,0.2,0.4,0.4,0.4h4.1c0.2,0,0.4-0.2,0.4-0.4l0-9.2c0-0.9,0.1-1.8,0.3-2.7c0.9-3.4,3.6-4.9,5.6-4.9c2.4,0,3.4,1.3,3.4,4.7
						l0,9.6c0,2,1,2.9,3.1,2.9l4.1,0c0.2,0,0.4-0.2,0.4-0.4v-3.3C48.7,25.1,48.6,24.9,48.4,24.9z M4.3,10.1L4.3,10.1L4.3,10.1
						L4.3,10.1z"/>
					<path class="st0" d="M62.4,28.6l0-3.7H58c-0.4,0-0.5-0.1-0.5-0.5l0-13.5c0-2-1-2.9-3.1-2.9l-9.2,0c0.2,0.2,0.4,0.4,0.6,0.6
						c0.8,0.9,1.4,2.1,1.8,3.5l4.5,0c0.4,0,0.5,0.1,0.5,0.5l0,13.5c0,2,1,2.9,3.1,2.9l6.7,0C62.4,28.9,62.4,28.7,62.4,28.6z"/>
				</g>
			</g>
		</g>
	</g>
</g>
</svg>
