<svg enable-background="new 0 0 311.1 421.2" viewBox="0 0 311.1 421.2" xmlns="http://www.w3.org/2000/svg" xmlns:xlink="http://www.w3.org/1999/xlink"><clipPath id="a"><path d="m7.4 15.1h303.7v272.7h-303.7z"/></clipPath><linearGradient id="b"><stop offset=".03517618" stop-color="#4f4d4d"/><stop offset="1" stop-color="#4f4d4d"/></linearGradient><linearGradient id="c" gradientUnits="userSpaceOnUse" x1="157.9829" x2="157.9829" xlink:href="#b" y1="287.7462" y2="0"/><linearGradient id="d"><stop offset="0" stop-color="#781a26"/><stop offset=".2055" stop-color="#741e24"/><stop offset=".4189" stop-color="#682b1f"/><stop offset=".636" stop-color="#543f16"/><stop offset=".8542" stop-color="#395c0a"/><stop offset="1" stop-color="#227400"/></linearGradient><radialGradient id="e" cx="6644.5405" cy="209.4173" gradientTransform="matrix(-1 0 0 1 6926.1841 0)" gradientUnits="userSpaceOnUse" r="16.9316" xlink:href="#d"/><linearGradient id="f"><stop offset="0" stop-color="#8cc65b"/><stop offset="1" stop-color="#507e24"/></linearGradient><linearGradient id="g" gradientTransform="matrix(-1 0 0 1 6926.1841 0)" gradientUnits="userSpaceOnUse" x1="6629.5137" x2="6656.4512" xlink:href="#f" y1="209.2218" y2="209.2218"/><linearGradient id="h"><stop offset="0" stop-color="#62b946"/><stop offset="1" stop-color="#629050"/></linearGradient><linearGradient id="i" gradientUnits="userSpaceOnUse" x1="87.6771" x2="87.0833" xlink:href="#h" y1="204.871" y2="381.7563"/><linearGradient id="j"><stop offset="0" stop-color="#151b26"/><stop offset="1" stop-color="#151b26"/></linearGradient><linearGradient id="k" gradientTransform="matrix(1 .00335716 -.00335716 1 89.2448 272.1153)" gradientUnits="userSpaceOnUse" x1="34.8405" x2="34.8405" xlink:href="#j" y1="55.0631" y2="89.904"/><linearGradient id="l" gradientTransform="matrix(-1 -.00335716 -.00335716 1 342.8802 272.9668)" gradientUnits="userSpaceOnUse" x1="293.1436" x2="293.1436" xlink:href="#j" y1="55.0631" y2="89.904"/><linearGradient id="m" gradientTransform="matrix(1 .00335716 -.00335716 1 89.2448 272.1153)" gradientUnits="userSpaceOnUse" x1="37.8115" x2="37.8115" xlink:href="#j" y1="-74.6772" y2="-39.8362"/><linearGradient id="n" gradientTransform="matrix(-1 -.00335716 -.00335716 1 342.8802 272.9668)" gradientUnits="userSpaceOnUse" x1="295.2948" x2="295.2948" xlink:href="#j" y1="-74.6772" y2="-39.8362"/><linearGradient id="o" gradientTransform="matrix(1 .00335716 -.00337667 1.0058 89.2297 276.6017)" gradientUnits="userSpaceOnUse" x1="-46.996" x2="-27.1372" xlink:href="#h" y1="57.627" y2="77.4858"/><linearGradient id="p" gradientTransform="matrix(1 .00335716 -.00337667 1.0058 89.2297 276.6017)" gradientUnits="userSpaceOnUse" x1="22.4705" x2="42.3293" xlink:href="#h" y1="57.627" y2="77.4858"/><linearGradient id="q" gradientTransform="matrix(1.1999 .00402833 -.00335716 1 -555.7906 269.9488)" gradientUnits="userSpaceOnUse" x1="494.7896" x2="514.6484" xlink:href="#h" y1="-67.1838" y2="-47.325"/><linearGradient id="r" gradientTransform="matrix(1.0904 .00366064 -.00335716 1 -206.8933 271.1207)" gradientUnits="userSpaceOnUse" x1="293.8559" x2="313.9991" xlink:href="#h" y1="-67.3262" y2="-47.1829"/><linearGradient id="s" gradientTransform="matrix(-.00335716 1 -1 -.00335716 4.2338 585.8818)" gradientUnits="userSpaceOnUse" x1="-406.9411" x2="-373.4004" xlink:href="#h" y1="-82.1331" y2="-82.1331"/><linearGradient id="t"><stop offset="0" stop-color="#fab11f"/><stop offset="1" stop-color="#ffc55d"/></linearGradient><linearGradient id="u" gradientTransform="matrix(1 .00335716 -.00335716 1 -2.5838 327.7783)" gradientUnits="userSpaceOnUse" x1="108.9863" x2="122.0495" xlink:href="#t" y1="-147.672" y2="-147.672"/><linearGradient id="v" gradientTransform="matrix(1 .00335716 -.00335716 1 -2.5838 327.7783)" gradientUnits="userSpaceOnUse" x1="57.009" x2="70.0722" xlink:href="#t" y1="-147.4975" y2="-147.4975"/><linearGradient id="w" gradientTransform="matrix(-.00335716 1 -1 -.00335716 4.2338 585.8818)" gradientUnits="userSpaceOnUse" x1="-406.9615" x2="-401.1728" xlink:href="#h" y1="-108.1624" y2="-108.1624"/><linearGradient id="x"><stop offset="0" stop-color="#d6d6d5"/><stop offset="1" stop-color="#d6d6d5" stop-opacity="0"/></linearGradient><linearGradient id="y" gradientTransform="matrix(-.00335716 1 -1 -.00335716 829.8627 610.3027)" gradientUnits="userSpaceOnUse" x1="-359.1739" x2="-333.324" xlink:href="#x" y1="715.0306" y2="715.0306"/><linearGradient id="z" gradientTransform="matrix(-.00335716 1 -1 -.00335716 829.8627 610.3027)" gradientUnits="userSpaceOnUse" x1="-318.1367" x2="-292.2868" xlink:href="#x" y1="714.8928" y2="714.8928"/><linearGradient id="A" gradientTransform="matrix(-.00335716 1 -1 -.00335716 829.8627 610.3027)" gradientUnits="userSpaceOnUse" x1="-276.4849" x2="-250.6347" xlink:href="#x" y1="714.8066" y2="714.8066"/><linearGradient id="B" gradientTransform="matrix(-.00335716 1 -1 -.00335716 4.2338 585.8818)" gradientUnits="userSpaceOnUse" x1="-204.4688" x2="-202.3785" xlink:href="#t" y1="-105.4765" y2="-105.4765"/><linearGradient id="C" gradientTransform="matrix(-.00335716 1 -1 -.00335716 4.2338 585.8818)" gradientUnits="userSpaceOnUse" x1="-204.4688" x2="-202.3785" xlink:href="#t" y1="-58.184" y2="-58.184"/><linearGradient id="D" gradientTransform="matrix(-.3599 -.933 .933 -.3599 426.3257 280.2192)" gradientUnits="userSpaceOnUse" x1="31.5867" x2="52.923" xlink:href="#x" y1="-345.1082" y2="-345.1082"/><linearGradient id="E" gradientTransform="matrix(-.00335716 1 -1 -.00335716 4.2338 585.8818)" gradientUnits="userSpaceOnUse" x1="-406.787" x2="-400.9983" xlink:href="#h" y1="-56.1851" y2="-56.1851"/><clipPath id="F"><path d="m49.9 204.7s-.2-4.8.1-14.5c.1-3.7 2.9-6.5 3.7-7.3v-3.6h10 60.9l.6 25.7z"/></clipPath><linearGradient id="G"><stop offset="0" stop-color="#414141" stop-opacity="0"/><stop offset="1" stop-color="#737373"/></linearGradient><linearGradient id="H" gradientTransform="matrix(1 .00335716 -.00335716 1 89.2448 272.1153)" gradientUnits="userSpaceOnUse" x1="-72.088" x2=".1037" xlink:href="#G" y1="-85.6268" y2="-85.6268"/><clipPath id="I"><path d="m121.3 381.7h-72l .3-94.8 72 .3z"/></clipPath><linearGradient id="J" gradientTransform="matrix(1 .00335716 -.00335716 1 89.2448 272.1153)" gradientUnits="userSpaceOnUse" x1="-38.9086" x2="-38.9086" xlink:href="#G" y1="119.8299" y2="13.6773"/><linearGradient id="K" gradientTransform="matrix(1 .00336062 -.01332339 3.9697 80.8012 2788.0793)" gradientUnits="userSpaceOnUse" x1="-27.4371" x2=".9207" xlink:href="#G" y1="-642.7007" y2="-614.3429"/><linearGradient id="L" gradientTransform="matrix(.00335716 1 1 -.00335716 5821.1606 610.3027)" gradientUnits="userSpaceOnUse" x1="-380.9167" x2="-355.0669" xlink:href="#x" y1="-5761.5098" y2="-5761.5098"/><linearGradient id="M" gradientTransform="matrix(.00335716 1 1 -.00335716 5821.1606 610.3027)" gradientUnits="userSpaceOnUse" x1="-339.8796" x2="-314.0297" xlink:href="#x" y1="-5761.6475" y2="-5761.6475"/><linearGradient id="N" gradientTransform="matrix(.00335716 1 1 -.00335716 5821.1606 610.3027)" gradientUnits="userSpaceOnUse" x1="-298.2278" x2="-272.3776" xlink:href="#x" y1="-5761.7339" y2="-5761.7339"/><linearGradient id="O" gradientTransform="matrix(.00335716 1 1 -.00335716 5821.1606 610.3027)" gradientUnits="userSpaceOnUse" x1="-272.3637" x2="-262.2372" xlink:href="#x" y1="-5761.521" y2="-5761.521"/><linearGradient id="P" gradientTransform="matrix(-.00335716 1 -1 -.00335716 894.8765 610.3027)" gradientUnits="userSpaceOnUse" x1="-250.4026" x2="-240.2762" xlink:href="#x" y1="780.0146" y2="780.0146"/><linearGradient id="Q" gradientTransform="matrix(1 .00335716 -.00335716 1 40.9829 398.0573)" gradientUnits="userSpaceOnUse" x1="53.1353" x2="94.5499" xlink:href="#h" y1="-187.2316" y2="-187.2316"/><linearGradient id="R" gradientTransform="matrix(-1 -.00335716 -.00335716 1 -262.9427 397.0369)" gradientUnits="userSpaceOnUse" x1="-347.3482" x2="-299.7191" xlink:href="#h" y1="-187.2883" y2="-187.2883"/><linearGradient id="S" gradientTransform="matrix(.3599 .933 -.933 .3599 73.5676 549.5788)" gradientUnits="userSpaceOnUse" x1="-319.4775" x2="-277.3737" xlink:href="#x" y1="-127.8475" y2="-127.8475"/><linearGradient id="T"><stop offset="0" stop-color="#8d2d37"/><stop offset="1" stop-color="#781a26"/></linearGradient><linearGradient id="U" gradientTransform="matrix(0 -1 1 0 -1540.2244 3059.0037)" gradientUnits="userSpaceOnUse" x1="2850.3872" x2="2854.0693" xlink:href="#T" y1="1770.5692" y2="1770.5692"/><linearGradient id="V" gradientTransform="matrix(0 -1 1 0 -1540.2244 3059.0037)" gradientUnits="userSpaceOnUse" x1="2857.5967" x2="2861.2788" xlink:href="#T" y1="1770.5692" y2="1770.5692"/><linearGradient id="W"><stop offset="0" stop-color="#25334d"/><stop offset="1" stop-color="#3e537d"/></linearGradient><linearGradient id="X" gradientTransform="matrix(0 -1 1 0 -1540.2244 3059.0037)" gradientUnits="userSpaceOnUse" x1="2856.0037" x2="2862.8069" xlink:href="#W" y1="1777.3964" y2="1777.3964"/><linearGradient id="Y" gradientTransform="matrix(0 -1 1 0 -1540.2244 3059.0037)" gradientUnits="userSpaceOnUse" x1="2849.0178" x2="2855.821" xlink:href="#W" y1="1777.3798" y2="1777.3798"/><linearGradient id="Z"><stop offset="0" stop-color="#ffc65b"/><stop offset="1" stop-color="#fab224"/></linearGradient><linearGradient id="aa" gradientTransform="matrix(-.1813 -.9834 .9834 -.1813 -861.9112 3351.3313)" gradientUnits="userSpaceOnUse" x1="2882.5986" x2="2888.3604" xlink:href="#Z" y1="1657.3036" y2="1657.3036"/><linearGradient id="ab" gradientTransform="matrix(-.2436 .9699 .9699 .2436 -915.5933 -3244.9707)" gradientUnits="userSpaceOnUse" x1="3049.1196" x2="3054.8816" xlink:href="#Z" y1="1962.8376" y2="1962.8376"/><linearGradient id="ac" gradientTransform="matrix(0 -1 1 0 -1540.2244 3059.0037)" gradientUnits="userSpaceOnUse" x1="2855.6489" x2="2855.6489" y1="1782.0658" y2="1789.3076"><stop offset=".02740354" stop-color="#109488"/><stop offset="1" stop-color="#10ad9b"/></linearGradient><linearGradient id="ad" gradientTransform="matrix(0 -1 1 0 -1540.2244 3059.0037)" gradientUnits="userSpaceOnUse" x1="2848.6433" x2="2862.7939" xlink:href="#Z" y1="1783.2177" y2="1783.2177"/><linearGradient id="ae" gradientTransform="matrix(0 -1 1 0 -1540.2244 3059.0037)" gradientUnits="userSpaceOnUse" x1="2848.6433" x2="2862.7939" xlink:href="#j" y1="1786.0541" y2="1786.0541"/><linearGradient id="af" gradientUnits="userSpaceOnUse" x1="194.5977" x2="194.5977" xlink:href="#j" y1="217.3538" y2="241.4702"/><linearGradient id="ag"><stop offset="0" stop-color="#ed3f50"/><stop offset=".2472" stop-color="#e23244"/><stop offset=".5761" stop-color="#da283b"/><stop offset="1" stop-color="#d72538"/></linearGradient><linearGradient id="ah" gradientUnits="userSpaceOnUse" x1="194.5977" x2="194.5977" xlink:href="#ag" y1="209.0233" y2="227.9336"/><linearGradient id="ai"><stop offset="0" stop-color="#d6d6d5"/><stop offset="1" stop-color="#e3e3e2"/></linearGradient><linearGradient id="aj" gradientTransform="matrix(0 -1 1 0 504.0288 1138.3567)" gradientUnits="userSpaceOnUse" x1="923.7526" x2="923.7526" xlink:href="#ai" y1="-311.8315" y2="-310.6915"/><linearGradient id="ak" gradientTransform="matrix(0 -1 1 0 504.0288 1138.3567)" gradientUnits="userSpaceOnUse" x1="923.7526" x2="923.7526" xlink:href="#ai" y1="-308.1707" y2="-307.0307"/><linearGradient id="al" gradientUnits="userSpaceOnUse" x1="194.5977" x2="194.5977" xlink:href="#j" y1="161.8361" y2="185.9525"/><linearGradient id="am" gradientUnits="userSpaceOnUse" x1="193.0628" x2="193.0628" xlink:href="#ag" y1="179.0912" y2="184.5307"/><linearGradient id="an" gradientTransform="matrix(-1 0 0 1 912.4505 760.7803)" gradientUnits="userSpaceOnUse" x1="716.3636" x2="716.3636" xlink:href="#ag" y1="-581.6891" y2="-576.2496"/><linearGradient id="ao" gradientUnits="userSpaceOnUse" x1="194.615" x2="194.615" xlink:href="#ai" y1="186.4323" y2="207.1759"/><linearGradient id="ap"><stop offset="0" stop-color="#3b2e61"/><stop offset="1" stop-color="#6052a1"/></linearGradient><linearGradient id="aq" gradientUnits="userSpaceOnUse" x1="194.9126" x2="201.4899" xlink:href="#ap" y1="202.3325" y2="202.3325"/><linearGradient id="ar" gradientUnits="userSpaceOnUse" x1="187.4699" x2="194.0471" xlink:href="#ap" y1="201.3975" y2="201.3975"/><linearGradient id="as" gradientUnits="userSpaceOnUse" x1="193.8549" x2="193.8549" xlink:href="#ap" y1="205.5122" y2="212.8062"/><linearGradient id="at" gradientUnits="userSpaceOnUse" x1="187.1076" x2="200.7883" xlink:href="#Z" y1="206.9187" y2="206.9187"/><linearGradient id="au" gradientUnits="userSpaceOnUse" x1="207.6379" x2="207.6379" xlink:href="#Z" y1="183.3444" y2="189.5962"/><linearGradient id="av" gradientUnits="userSpaceOnUse" x1="180.8094" x2="180.8094" xlink:href="#Z" y1="183.3444" y2="189.5962"/><linearGradient id="aw" gradientTransform="matrix(.9993 .03671309 -.03433254 .9345 381.4447 758.5305)" gradientUnits="userSpaceOnUse" x1="-195.1242" x2="-195.1242" xlink:href="#ap" y1="-602.2113" y2="-576.1818"/><linearGradient id="ax" gradientTransform="matrix(-.9993 .03671309 .03433254 .9345 882.9268 758.5305)" gradientUnits="userSpaceOnUse" x1="679.979" x2="679.979" xlink:href="#ap" y1="-636.5899" y2="-610.5604"/><linearGradient id="ay"><stop offset="0" stop-color="#3f444e"/><stop offset="1" stop-color="#1b2226"/></linearGradient><linearGradient id="az" gradientUnits="userSpaceOnUse" x1="194.574" x2="194.4555" xlink:href="#ay" y1="183.5221" y2="186.7478"/><linearGradient id="aA" gradientUnits="userSpaceOnUse" x1="188.4875" x2="188.4875" xlink:href="#ay" y1="183.948" y2="187.6798"/><linearGradient id="aB" gradientTransform="matrix(-1 0 0 1 921.5394 760.7803)" gradientUnits="userSpaceOnUse" x1="720.6622" x2="720.6622" xlink:href="#ay" y1="-576.8323" y2="-573.1005"/><linearGradient id="aC" gradientUnits="userSpaceOnUse" x1="194.615" x2="194.615" xlink:href="#ay" y1="182.1941" y2="188.4458"/><linearGradient id="aD" gradientUnits="userSpaceOnUse" x1="194.5977" x2="194.5977" xlink:href="#ay" y1="179.8805" y2="181.0205"/><linearGradient id="aE" gradientUnits="userSpaceOnUse" x1="187.1076" x2="200.7883" xlink:href="#ai" y1="210.5728" y2="210.5728"/><linearGradient id="aF" gradientUnits="userSpaceOnUse" x1="159.4675" x2="181.0312" y1="203.2709" y2="203.2709"><stop offset="0" stop-color="#10a290"/><stop offset="1" stop-color="#49b1a6"/></linearGradient><linearGradient id="aG" gradientTransform="matrix(0 -1 1 0 603.7063 1361.4786)" gradientUnits="userSpaceOnUse" x1="1227.8284" x2="1231.2836" xlink:href="#T" y1="-418.099" y2="-418.099"/><linearGradient id="aH" gradientTransform="matrix(0 -1 1 0 603.7063 1361.4786)" gradientUnits="userSpaceOnUse" x1="1234.5936" x2="1238.0488" xlink:href="#T" y1="-422.4716" y2="-422.4716"/><linearGradient id="aI" gradientTransform="matrix(0 -1 1 0 603.7063 1361.4786)" gradientUnits="userSpaceOnUse" x1="1233.0988" x2="1239.4828" xlink:href="#W" y1="-416.0651" y2="-416.0651"/><linearGradient id="aJ" gradientTransform="matrix(0 -1 1 0 603.7063 1361.4786)" gradientUnits="userSpaceOnUse" x1="1226.5433" x2="1232.9274" xlink:href="#W" y1="-411.7081" y2="-411.7081"/><linearGradient id="aK" gradientTransform="matrix(0 -1 1 0 603.7063 1361.4786)" gradientUnits="userSpaceOnUse" x1="1220.7849" x2="1226.1918" xlink:href="#Z" y1="-409.1327" y2="-409.1327"/><linearGradient id="aL" gradientTransform="matrix(0 1 1 0 603.7063 -4540.2925)" gradientUnits="userSpaceOnUse" x1="4657.0845" x2="4662.4917" xlink:href="#Z" y1="-410.5588" y2="-410.5588"/><linearGradient id="aM" gradientTransform="matrix(0 -1 1 0 603.7063 1361.4786)" gradientUnits="userSpaceOnUse" x1="1232.7357" x2="1232.7357" xlink:href="#ag" y1="-412.0066" y2="-405.211"/><linearGradient id="aN" gradientTransform="matrix(0 -1 1 0 603.7063 1361.4786)" gradientUnits="userSpaceOnUse" x1="1226.1918" x2="1239.4706" xlink:href="#Z" y1="-410.9257" y2="-410.9257"/><linearGradient id="aO" gradientTransform="matrix(0 -1 1 0 603.7063 1361.4786)" gradientUnits="userSpaceOnUse" x1="1226.1918" x2="1239.4706" xlink:href="#j" y1="-408.264" y2="-408.264"/><clipPath id="aP"><path d="m4.9 11.7h302v409.4h-302z" transform="matrix(-1 0 0 -1 311.7534 432.9146)"/></clipPath><linearGradient id="aQ" gradientUnits="userSpaceOnUse" x1="155.4773" x2="155.4773" xlink:href="#b" y1="421.1805" y2="11.7341"/><linearGradient id="aR" gradientTransform="matrix(1 -.00390356 .00390356 1 -4186.9414 -875.1093)" gradientUnits="userSpaceOnUse" x1="4374.393600000001" x2="4374.393600000001" xlink:href="#j" y1="1107.8746" y2="1129.7469"/><linearGradient id="aS" gradientTransform="matrix(-1 .00390356 .00390356 1 -3933.3062 -876.0994)" gradientUnits="userSpaceOnUse" x1="-4073.5022" x2="-4073.5022" xlink:href="#j" y1="1108.0021" y2="1129.8744"/><linearGradient id="aT" gradientTransform="matrix(1 -.00390356 .00390356 1 -4186.9414 -875.1093)" gradientUnits="userSpaceOnUse" x1="4376.5181" x2="4376.5181" xlink:href="#j" y1="1056.5249" y2="1078.3972"/><linearGradient id="aU" gradientTransform="matrix(-1 .00390356 .00390356 1 -3933.3062 -876.0994)" gradientUnits="userSpaceOnUse" x1="-4072.5964" x2="-4072.5964" xlink:href="#j" y1="1056.5646" y2="1078.4368"/><linearGradient id="aV"><stop offset="0" stop-color="#d72538"/><stop offset="1" stop-color="#d72538"/></linearGradient><linearGradient id="aW" gradientTransform="matrix(1 -.00390356 .00390356 1 -4186.9414 -875.1093)" gradientUnits="userSpaceOnUse" x1="4322.4375" x2="4334.904800000001" xlink:href="#aV" y1="1112.7061" y2="1125.173"/><linearGradient id="aX" gradientTransform="matrix(1 -.00390356 .00390356 1 -4186.9414 -875.1093)" gradientUnits="userSpaceOnUse" x1="4366.627900000001" x2="4379.0947" xlink:href="#aV" y1="1112.5786" y2="1125.0455"/><linearGradient id="aY" gradientTransform="matrix(1 -.00390356 .00390356 1 -4186.9414 -875.1093)" gradientUnits="userSpaceOnUse" x1="4321.1016" x2="4333.5684" xlink:href="#Z" y1="1061.2672" y2="1073.7341"/><linearGradient id="aZ" gradientTransform="matrix(1 -.00390356 .00390356 1 -4186.9414 -875.1093)" gradientUnits="userSpaceOnUse" x1="4369.024900000001" x2="4381.4917" xlink:href="#Z" y1="1061.2277" y2="1073.6945"/><linearGradient id="a0" gradientTransform="matrix(.00390356 1 -1 .00390356 -4269.671900000001 -560.7338)" gradientUnits="userSpaceOnUse" x1="720.2131" x2="742.4715" xlink:href="#Z" y1="-4434.888700000001" y2="-4434.888700000001"/><linearGradient id="a1" gradientTransform="matrix(-.8488 -.5287 .5287 -.8488 2136.3582 -1040.3976)" gradientUnits="userSpaceOnUse" x1="973.6373" x2="1059.1102" xlink:href="#Z" y1="-2093.3677" y2="-2093.3677"/><linearGradient id="a2"><stop offset="0" stop-color="#fab11f"/><stop offset="1" stop-color="#ffff5d"/></linearGradient><linearGradient id="a3" gradientTransform="matrix(.9999 .01281735 -.01281735 .9999 -4325.4438 -895.7435)" gradientUnits="userSpaceOnUse" x1="4512.0278" x2="4520.2285" xlink:href="#a2" y1="982.4525" y2="982.4525"/><linearGradient id="a4" gradientTransform="matrix(-.01281735 .9999 -.9999 -.01281735 -4321.0684 -637.5871)" gradientUnits="userSpaceOnUse" x1="723.6135" x2="727.2475" xlink:href="#Z" y1="-4508.6504" y2="-4508.6504"/><linearGradient id="a5" gradientTransform="matrix(.3666 .9304 -.9304 .3666 -4200.6035 -597.5393)" gradientUnits="userSpaceOnUse" x1="2309.8105" x2="2335.6013" xlink:href="#x" y1="-3778.9155" y2="-3778.9155"/><linearGradient id="a6" gradientTransform="matrix(.00390356 1 1 -.00390356 -4548.1787 -537.9975)" gradientUnits="userSpaceOnUse" x1="746.2582" x2="776.2598" xlink:href="#x" y1="4695.4194" y2="4695.4194"/><linearGradient id="a7" gradientTransform="matrix(.00390356 1 -1 .00390356 -3443.8872 -542.3082)" gradientUnits="userSpaceOnUse" x1="746.0427" x2="776.3038" xlink:href="#x" y1="-3626.5225" y2="-3626.5225"/><linearGradient id="a8" gradientTransform="matrix(.00390356 1 -1 .00390356 -4269.671900000001 -560.7338)" gradientUnits="userSpaceOnUse" x1="818.9518" x2="820.264" xlink:href="#t" y1="-4450.3623" y2="-4450.3623"/><linearGradient id="a9" gradientTransform="matrix(.00390356 1 -1 .00390356 -4269.671900000001 -560.7338)" gradientUnits="userSpaceOnUse" x1="818.9518" x2="820.264" xlink:href="#t" y1="-4420.673300000001" y2="-4420.673300000001"/><linearGradient id="ba" gradientTransform="matrix(-.3666 -.9304 .9304 -.3666 -3849.8103 -869.4531)" gradientUnits="userSpaceOnUse" x1="-2490.6577" x2="-2477.5242" xlink:href="#x" y1="3339.9534" y2="3339.9534"/><clipPath id="bb"><path d="m144.4 164.5s-.1-24.1 24.5-22.3c21.2 1.6 23 16.6 23 18.9s-.3 3.2-.3 3.2z"/></clipPath><linearGradient id="bc" gradientTransform="matrix(1 -.00390356 .00390356 1 -4186.9414 -875.1093)" gradientUnits="userSpaceOnUse" x1="4306.786100000001" x2="4352.1064" xlink:href="#G" y1="1045.6849" y2="1045.6849"/><linearGradient id="bd" gradientTransform="matrix(.9999 -.01174495 .01174495 .9999 -4293.832000000001 -814.6989)" gradientUnits="userSpaceOnUse" x1="4435.437" x2="4443.6377" xlink:href="#a2" y1="1011.4873" y2="1011.4873"/><linearGradient id="be" gradientTransform="matrix(.01174495 .9999 -.9999 .01174495 -4283.1172 -556.7278)" gradientUnits="userSpaceOnUse" x1="752.6483" x2="756.2823" xlink:href="#Z" y1="-4432.0596" y2="-4432.0596"/><linearGradient id="bf" gradientTransform="matrix(-.8488 -.5287 .5287 -.8488 2136.3582 -1040.3976)" gradientUnits="userSpaceOnUse" x1="978.9064" x2="1053.7875" xlink:href="#G" y1="-2104.8013" y2="-2104.8013"/><linearGradient id="bg" gradientTransform="matrix(1 -.00390356 .00390356 1 -4186.9414 -875.1093)" gradientUnits="userSpaceOnUse" x1="4259.6104" x2="4259.6104" xlink:href="#j" y1="902.7202" y2="924.5925"/><linearGradient id="bh" gradientTransform="matrix(-1 .00390356 .00390356 1 -3933.3062 -876.0994)" gradientUnits="userSpaceOnUse" x1="-3958.7195" x2="-3958.7195" xlink:href="#j" y1="902.8477" y2="924.72"/><linearGradient id="bi" gradientTransform="matrix(1 -.00390356 .00390356 1 -4186.9414 -875.1093)" gradientUnits="userSpaceOnUse" x1="4207.654800000001" x2="4220.121600000001" xlink:href="#aV" y1="907.5516" y2="920.0185"/><linearGradient id="bj" gradientTransform="matrix(1 -.00390356 .00390356 1 -4186.9414 -875.1093)" gradientUnits="userSpaceOnUse" x1="4251.8452" x2="4264.312" xlink:href="#aV" y1="907.4242" y2="919.8911"/><linearGradient id="bk" gradientTransform="matrix(-.8488 -.5287 .5287 -.8488 2136.3582 -1040.3976)" gradientUnits="userSpaceOnUse" x1="1179.973" x2="1265.4459" xlink:href="#ag" y1="-1980.722" y2="-1980.722"/><linearGradient id="bl" gradientTransform="matrix(.00390356 1 1 -.00390356 -4548.1787 -537.9975)" gradientUnits="userSpaceOnUse" x1="541.1037" x2="571.1053" xlink:href="#x" y1="4580.6362" y2="4580.6362"/><linearGradient id="bm" gradientTransform="matrix(.00390356 1 -1 .00390356 -3443.8872 -542.3082)" gradientUnits="userSpaceOnUse" x1="540.8882" x2="571.1493" xlink:href="#x" y1="-3511.7397" y2="-3511.7397"/><linearGradient id="bn" gradientTransform="matrix(.00390356 1 -1 .00390356 -4269.671900000001 -560.7338)" gradientUnits="userSpaceOnUse" x1="613.7973" x2="615.1096" xlink:href="#t" y1="-4335.5791" y2="-4335.5791"/><linearGradient id="bo" gradientTransform="matrix(.00390356 1 -1 .00390356 -4269.671900000001 -560.7338)" gradientUnits="userSpaceOnUse" x1="613.7973" x2="615.1096" xlink:href="#t" y1="-4305.8901" y2="-4305.8901"/><linearGradient id="bp" gradientTransform="matrix(-.3666 -.9304 .9304 -.3666 -3849.8103 -869.4531)" gradientUnits="userSpaceOnUse" x1="-2257.8311" x2="-2244.6975" xlink:href="#x" y1="3307.4692" y2="3307.4692"/><linearGradient id="bq" gradientTransform="matrix(-.8488 -.5287 .5287 -.8488 2136.3582 -1040.3976)" gradientUnits="userSpaceOnUse" x1="1185.2421" x2="1260.1232" xlink:href="#G" y1="-1992.1555" y2="-1992.1555"/><radialGradient id="br" cx="255.5085" cy="226.8783" gradientUnits="userSpaceOnUse" r="13.7629" xlink:href="#d"/><linearGradient id="bs" gradientUnits="userSpaceOnUse" x1="243.2937" x2="265.1902" xlink:href="#f" y1="226.7195" y2="226.7195"/><radialGradient id="bt" cx="255.5085" cy="136.5845" gradientUnits="userSpaceOnUse" r="13.7629" xlink:href="#d"/><linearGradient id="bu" gradientUnits="userSpaceOnUse" x1="243.2937" x2="265.1902" xlink:href="#f" y1="136.4256" y2="136.4256"/><radialGradient id="bv" cx="255.5085" cy="305.6848" gradientUnits="userSpaceOnUse" r="13.7629" xlink:href="#d"/><linearGradient id="bw" gradientUnits="userSpaceOnUse" x1="243.2937" x2="265.1902" xlink:href="#f" y1="305.5259" y2="305.5259"/><radialGradient id="bx" cx="255.5085" cy="384.6203" gradientUnits="userSpaceOnUse" r="13.7629" xlink:href="#d"/><linearGradient id="by" gradientUnits="userSpaceOnUse" x1="243.2937" x2="265.1902" xlink:href="#f" y1="384.4614" y2="384.4614"/><linearGradient id="bz" gradientTransform="matrix(1 -.00390356 .00390356 1 -4186.9414 -875.1093)" gradientUnits="userSpaceOnUse" x1="4260.0674" x2="4260.0674" xlink:href="#j" y1="1278.5742" y2="1300.4465"/><linearGradient id="bA" gradientTransform="matrix(-1 .00390356 .00390356 1 -3933.3062 -876.0994)" gradientUnits="userSpaceOnUse" x1="-3956.1458" x2="-3956.1458" xlink:href="#j" y1="1278.6139" y2="1300.4862"/><linearGradient id="bB" gradientTransform="matrix(1 -.00390356 .00390356 1 -4186.9414 -875.1093)" gradientUnits="userSpaceOnUse" x1="4204.6514" x2="4217.1182" xlink:href="#ag" y1="1283.3167" y2="1295.7834"/><linearGradient id="bC" gradientTransform="matrix(1 -.00390356 .00390356 1 -4186.9414 -875.1093)" gradientUnits="userSpaceOnUse" x1="4252.5742" x2="4265.041" xlink:href="#ag" y1="1283.277" y2="1295.7439"/><linearGradient id="bD" gradientTransform="matrix(.00390356 1 -1 .00390356 -4269.671900000001 -560.7338)" gradientUnits="userSpaceOnUse" x1="942.2625" x2="964.5209" xlink:href="#ag" y1="-4318.4385" y2="-4318.4385"/><linearGradient id="bE" gradientTransform="matrix(-.8488 -.5287 .5287 -.8488 2136.3582 -1040.3976)" gradientUnits="userSpaceOnUse" x1="954.1069" x2="1039.5797" xlink:href="#ag" y1="-2343.3381" y2="-2343.3381"/><linearGradient id="bF" gradientTransform="matrix(.9999 .01281735 -.01281735 .9999 -4325.4438 -895.7435)" gradientUnits="userSpaceOnUse" x1="4399.3066" x2="4407.5073" xlink:href="#a2" y1="1206.418" y2="1206.418"/><linearGradient id="bG" gradientTransform="matrix(-.01281735 .9999 -.9999 -.01281735 -4321.0684 -637.5871)" gradientUnits="userSpaceOnUse" x1="947.579" x2="951.213" xlink:href="#ag" y1="-4395.9292" y2="-4395.9292"/><linearGradient id="bH" gradientTransform="matrix(.3666 .9304 -.9304 .3666 -4200.6035 -597.5393)" gradientUnits="userSpaceOnUse" x1="2474.4438" x2="2500.2346" xlink:href="#x" y1="-3589.8057" y2="-3589.8057"/><linearGradient id="bI" gradientTransform="matrix(.00390356 1 1 -.00390356 -4548.1787 -537.9975)" gradientUnits="userSpaceOnUse" x1="968.3076" x2="998.3091" xlink:href="#x" y1="4578.9688" y2="4578.9688"/><linearGradient id="bJ" gradientTransform="matrix(.00390356 1 -1 .00390356 -3443.8872 -542.3082)" gradientUnits="userSpaceOnUse" x1="968.0921" x2="998.3531" xlink:href="#x" y1="-3510.072" y2="-3510.072"/><clipPath id="bK"><path d="m28.8 387s-.1-24.1 24.5-22.3c21.2 1.6 23 16.6 23 18.9s-.3 3.2-.3 3.2z"/></clipPath><linearGradient id="bL" gradientTransform="matrix(1 -.00390356 .00390356 1 -4186.9414 -875.1093)" gradientUnits="userSpaceOnUse" x1="4190.3354" x2="4235.655800000001" xlink:href="#G" y1="1267.7344" y2="1267.7344"/><linearGradient id="bM" gradientTransform="matrix(.9999 -.01174495 .01174495 .9999 -4293.832000000001 -814.6989)" gradientUnits="userSpaceOnUse" x1="4317.2485" x2="4325.4497" xlink:href="#a2" y1="1232.6167" y2="1232.6167"/><linearGradient id="bN" gradientTransform="matrix(.01174495 .9999 -.9999 .01174495 -4283.1172 -556.7278)" gradientUnits="userSpaceOnUse" x1="973.7777" x2="977.4117" xlink:href="#ag" y1="-4313.871100000001" y2="-4313.871100000001"/><linearGradient id="bO" gradientTransform="matrix(-.8488 -.5287 .5287 -.8488 2136.3582 -1040.3976)" gradientUnits="userSpaceOnUse" x1="959.376" x2="1034.257" xlink:href="#G" y1="-2354.7715" y2="-2354.7715"/><linearGradient id="bP" gradientUnits="userSpaceOnUse" x1="160.7793" x2="160.7793" xlink:href="#j" y1="14.2046" y2="36.9204"/><linearGradient id="bQ" gradientUnits="userSpaceOnUse" x1="160.7793" x2="160.7793" xlink:href="#ag" y1="6.358" y2="24.17"/><linearGradient id="bR" gradientTransform="matrix(0 -1 1 0 1371.1039 689.2615)" gradientUnits="userSpaceOnUse" x1="677.6469" x2="677.6469" xlink:href="#ai" y1="-1212.5856" y2="-1211.5117"/><linearGradient id="bS" gradientTransform="matrix(0 -1 1 0 1371.1039 689.2615)" gradientUnits="userSpaceOnUse" x1="677.6469" x2="677.6469" xlink:href="#ai" y1="-1209.1375" y2="-1208.0636"/><linearGradient id="bT" gradientUnits="userSpaceOnUse" x1="160.7955" x2="160.7955" xlink:href="#ai" y1="-14.921" y2="4.6178"/><linearGradient id="bU" gradientUnits="userSpaceOnUse" x1="161.0759" x2="167.2711" xlink:href="#ap" y1=".0557" y2=".0557"/><linearGradient id="bV" gradientUnits="userSpaceOnUse" x1="154.0654" x2="160.2606" xlink:href="#ap" y1="-.8249" y2="-.8249"/><linearGradient id="bW" gradientUnits="userSpaceOnUse" x1="160.0796" x2="160.0796" xlink:href="#ap" y1="3.0508" y2="9.9211"/><linearGradient id="bX" gradientUnits="userSpaceOnUse" x1="153.7243" x2="166.6104" xlink:href="#Z" y1="4.3755" y2="4.3755"/><linearGradient id="bY" gradientTransform="matrix(.9993 .03671309 -.03433254 .9345 1248.5198 309.4352)" gradientUnits="userSpaceOnUse" x1="-1087.0469" x2="-1087.0469" xlink:href="#ap" y1="-302.2071" y2="-277.6893"/><linearGradient id="bZ" gradientTransform="matrix(-.9993 .03671309 .03433254 .9345 1750.0018 309.4352)" gradientUnits="userSpaceOnUse" x1="1588.5988" x2="1588.5988" xlink:href="#ap" y1="-407.3204" y2="-382.8026"/><linearGradient id="b0" gradientUnits="userSpaceOnUse" x1="153.7243" x2="166.6104" xlink:href="#ai" y1="7.8174" y2="7.8174"/><linearGradient id="b1" gradientTransform="matrix(.8867 -.4623 .4623 .8867 1542.9304 133.2859)" gradientUnits="userSpaceOnUse" x1="-1329.2083" x2="-1329.2083" xlink:href="#j" y1="-498.9976" y2="-477.8841"/><linearGradient id="b2" gradientTransform="matrix(.8867 -.4623 .4623 .8867 1542.9304 133.2859)" gradientUnits="userSpaceOnUse" x1="-1329.2083" x2="-1329.2083" xlink:href="#ag" y1="-506.2907" y2="-489.7351"/><linearGradient id="b3" gradientTransform="matrix(-.4623 -.8867 .8867 -.4623 1829.7017 409.5931)" gradientUnits="userSpaceOnUse" x1="878.9813" x2="878.9813" xlink:href="#ai" y1="-1457.8778" y2="-1456.8798"/><linearGradient id="b4" gradientTransform="matrix(-.4623 -.8867 .8867 -.4623 1829.7017 409.5931)" gradientUnits="userSpaceOnUse" x1="878.9813" x2="878.9813" xlink:href="#ai" y1="-1454.6729" y2="-1453.6747"/><linearGradient id="b5" gradientTransform="matrix(.8867 -.4623 .4623 .8867 1542.9304 133.2859)" gradientUnits="userSpaceOnUse" x1="-1329.2083" x2="-1329.2083" xlink:href="#j" y1="-547.6024" y2="-526.4889"/><linearGradient id="b6" gradientTransform="matrix(.8867 -.4623 .4623 .8867 1542.9304 133.2859)" gradientUnits="userSpaceOnUse" x1="-1330.5521" x2="-1330.5521" xlink:href="#ag" y1="-532.4958" y2="-527.7336"/><linearGradient id="b7" gradientTransform="matrix(-.8867 .4623 .4623 .8867 2017.3302 -114.0172)" gradientUnits="userSpaceOnUse" x1="1862.8943" x2="1862.8943" xlink:href="#ag" y1="-532.4958" y2="-527.7336"/><linearGradient id="b8" gradientTransform="matrix(.8867 -.4623 .4623 .8867 1542.9304 133.2859)" gradientUnits="userSpaceOnUse" x1="-1329.1931" x2="-1329.1931" xlink:href="#ai" y1="-526.0688" y2="-507.9081"/><linearGradient id="b9" gradientTransform="matrix(.8867 -.4623 .4623 .8867 1542.9304 133.2859)" gradientUnits="userSpaceOnUse" x1="-1328.9326" x2="-1323.1743" xlink:href="#ap" y1="-512.1485" y2="-512.1485"/><linearGradient id="ca" gradientTransform="matrix(.8867 -.4623 .4623 .8867 1542.9304 133.2859)" gradientUnits="userSpaceOnUse" x1="-1335.4486" x2="-1329.5073" xlink:href="#ap" y1="-513.1795" y2="-513.1795"/><linearGradient id="cb" gradientTransform="matrix(.8867 -.4623 .4623 .8867 1542.9304 133.2859)" gradientUnits="userSpaceOnUse" x1="-1326.8311" x2="-1326.8311" xlink:href="#ap" y1="-509.368" y2="-502.9789"/><linearGradient id="cc" gradientTransform="matrix(.8867 -.4623 .4623 .8867 1542.9304 133.2859)" gradientUnits="userSpaceOnUse" x1="-1317.7919" x2="-1317.7919" xlink:href="#Z" y1="-528.7722" y2="-523.2989"/><linearGradient id="cd" gradientTransform="matrix(-.4456 -.8952 .8952 -.4456 1535.271 -1635.9038)" gradientUnits="userSpaceOnUse" x1="-1107.0315" x2="-1107.0315" xlink:href="#Z" y1="-2150.0374" y2="-2144.5642"/><linearGradient id="ce" gradientTransform="matrix(.9031 -.4294 .4015 .8446 1545.4232 129.4492)" gradientUnits="userSpaceOnUse" x1="-1340.493" x2="-1340.493" xlink:href="#ap" y1="-505.8404" y2="-483.0519"/><linearGradient id="cf" gradientTransform="matrix(.4782 .8783 .8213 -.4472 1308.0166 -2087.4084)" gradientUnits="userSpaceOnUse" x1="1532.0785" x2="1532.0785" xlink:href="#ap" y1="-2353.5405" y2="-2330.752"/><linearGradient id="cg" gradientTransform="matrix(.8867 -.4623 .4623 .8867 1542.9304 133.2859)" gradientUnits="userSpaceOnUse" x1="-1329.229" x2="-1329.3328" xlink:href="#ay" y1="-528.6166" y2="-525.7926"/><linearGradient id="ch" gradientTransform="matrix(.8867 -.4623 .4623 .8867 1542.9304 133.2859)" gradientUnits="userSpaceOnUse" x1="-1334.5576" x2="-1334.5576" xlink:href="#ay" y1="-528.2438" y2="-524.9766"/><linearGradient id="ci" gradientTransform="matrix(-.8867 .4623 .4623 .8867 2025.3898 -118.2186)" gradientUnits="userSpaceOnUse" x1="1867.7893" x2="1867.7893" xlink:href="#ay" y1="-528.2438" y2="-524.9766"/><linearGradient id="cj" gradientTransform="matrix(.8867 -.4623 .4623 .8867 1542.9304 133.2859)" gradientUnits="userSpaceOnUse" x1="-1329.1931" x2="-1329.1931" xlink:href="#ay" y1="-529.7793" y2="-524.306"/><linearGradient id="ck" gradientTransform="matrix(.8867 -.4623 .4623 .8867 1542.9304 133.2859)" gradientUnits="userSpaceOnUse" x1="-1329.2083" x2="-1329.2083" xlink:href="#ay" y1="-531.8049" y2="-530.8068"/><linearGradient id="cl" gradientTransform="matrix(.8337 -.5522 .5522 .8337 1446.1664 75.6434)" gradientUnits="userSpaceOnUse" x1="-1227.2996" x2="-1215.3224" xlink:href="#Z" y1="-543.6905" y2="-543.6905"/><linearGradient id="cm" gradientTransform="matrix(.8337 -.5522 .5522 .8337 1446.1664 75.6434)" gradientUnits="userSpaceOnUse" x1="-1227.2996" x2="-1215.3224" xlink:href="#ai" y1="-540.4913" y2="-540.4913"/><linearGradient id="cn" gradientTransform="matrix(.9994 .03328194 -.03328194 .9994 882.8354 492.7142)" gradientUnits="userSpaceOnUse" x1="-809.6258" x2="-809.6258" xlink:href="#j" y1="-290.0518" y2="-268.9383"/><linearGradient id="co" gradientTransform="matrix(.9994 .03328194 -.03328194 .9994 882.8354 492.7142)" gradientUnits="userSpaceOnUse" x1="-809.6258" x2="-809.6258" xlink:href="#ag" y1="-297.345" y2="-280.7894"/><linearGradient id="cp" gradientTransform="matrix(.03328194 -.9994 .9994 .03328194 996.7668 874.2938)" gradientUnits="userSpaceOnUse" x1="670.0355" x2="670.0355" xlink:href="#ai" y1="-938.2953" y2="-937.2972"/><linearGradient id="cq" gradientTransform="matrix(.03328194 -.9994 .9994 .03328194 996.7668 874.2938)" gradientUnits="userSpaceOnUse" x1="670.0355" x2="670.0355" xlink:href="#ai" y1="-935.0903" y2="-934.0923"/><linearGradient id="cr" gradientTransform="matrix(.9994 .03328194 -.03328194 .9994 882.8354 492.7142)" gradientUnits="userSpaceOnUse" x1="-809.6258" x2="-809.6258" xlink:href="#j" y1="-338.6566" y2="-317.5431"/><linearGradient id="cs" gradientTransform="matrix(.9994 .03328194 -.03328194 .9994 882.8354 492.7142)" gradientUnits="userSpaceOnUse" x1="-810.9697" x2="-810.9697" xlink:href="#ag" y1="-323.5501" y2="-318.7879"/><linearGradient id="ct" gradientTransform="matrix(-.9994 -.03328194 -.03328194 .9994 1417.5287 510.5197)" gradientUnits="userSpaceOnUse" x1="1343.3118" x2="1343.3118" xlink:href="#ag" y1="-323.5501" y2="-318.7879"/><linearGradient id="cu" gradientTransform="matrix(.9994 .03328194 -.03328194 .9994 882.8354 492.7142)" gradientUnits="userSpaceOnUse" x1="-809.6107" x2="-809.6107" xlink:href="#ai" y1="-317.123" y2="-298.9623"/><linearGradient id="cv" gradientTransform="matrix(.9994 .03328194 -.03328194 .9994 882.8354 492.7142)" gradientUnits="userSpaceOnUse" x1="-809.3501" x2="-803.5917" xlink:href="#ap" y1="-304.6247" y2="-304.6247"/><linearGradient id="cw" gradientTransform="matrix(.9994 .03328194 -.03328194 .9994 882.8354 492.7142)" gradientUnits="userSpaceOnUse" x1="-815.8661" x2="-809.9249" xlink:href="#ap" y1="-304.2337" y2="-304.2337"/><linearGradient id="cx" gradientTransform="matrix(.912 .03035264 -.03330041 .9994 831.8479 491.0055)" gradientUnits="userSpaceOnUse" x1="-836.3141" x2="-836.3141" xlink:href="#ap" y1="-300.4283" y2="-294.0393"/><linearGradient id="cy" gradientTransform="matrix(-.9994 -.03345331 -.03345331 .9994 124.1954 467.386)" gradientUnits="userSpaceOnUse" x1="62.7858" x2="62.7858" xlink:href="#Z" y1="-319.7526" y2="-314.2793"/><linearGradient id="cz" gradientTransform="matrix(-1 .00326178 .00305028 .9352 120.2889 465.0041)" gradientUnits="userSpaceOnUse" x1="46.8276" x2="46.8276" xlink:href="#ap" y1="-336.6781" y2="-313.8896"/><linearGradient id="cA" gradientTransform="matrix(.01477381 -.9999 -.9999 -.01477381 -601.9808 -1130.1659)" gradientUnits="userSpaceOnUse" x1="-1290.5338" x2="-1290.5338" xlink:href="#Z" y1="-733.9068" y2="-728.4335"/><linearGradient id="cB" gradientTransform="matrix(-.05147293 .9987 -.9339 -.04813531 -592.2634 -1635.5435)" gradientUnits="userSpaceOnUse" x1="1767.4476" x2="1767.4476" xlink:href="#ap" y1="-847.4427" y2="-824.6542"/><linearGradient id="cC" gradientTransform="matrix(.9994 .03328194 -.03328194 .9994 882.8354 492.7142)" gradientUnits="userSpaceOnUse" x1="-809.6466" x2="-809.7504" xlink:href="#ay" y1="-319.6709" y2="-316.8468"/><linearGradient id="cD" gradientTransform="matrix(.9994 .03328194 -.03328194 .9994 882.8354 492.7142)" gradientUnits="userSpaceOnUse" x1="-814.9752" x2="-814.9752" xlink:href="#ay" y1="-319.2981" y2="-316.0309"/><linearGradient id="cE" gradientTransform="matrix(-.9994 -.03328194 -.03328194 .9994 1426.6125 510.8222)" gradientUnits="userSpaceOnUse" x1="1348.2068" x2="1348.2068" xlink:href="#ay" y1="-319.2981" y2="-316.0309"/><linearGradient id="cF" gradientTransform="matrix(.9994 .03328194 -.03328194 .9994 882.8354 492.7142)" gradientUnits="userSpaceOnUse" x1="-809.6107" x2="-809.6107" xlink:href="#ay" y1="-320.8336" y2="-315.3602"/><linearGradient id="cG" gradientTransform="matrix(.9994 .03328194 -.03328194 .9994 882.8354 492.7142)" gradientUnits="userSpaceOnUse" x1="-809.6258" x2="-809.6258" xlink:href="#ay" y1="-322.8591" y2="-321.861"/><linearGradient id="cH" gradientTransform="matrix(.9975 -.07116859 .07116859 .9975 826.8986 394.9542)" gradientUnits="userSpaceOnUse" x1="-732.3511" x2="-720.3739" xlink:href="#Z" y1="-281.6785" y2="-281.6785"/><linearGradient id="cI" gradientTransform="matrix(.9975 -.07116859 .07116859 .9975 826.8986 394.9542)" gradientUnits="userSpaceOnUse" x1="-732.3511" x2="-720.3739" xlink:href="#ai" y1="-278.4794" y2="-278.4794"/><linearGradient id="cJ" gradientTransform="matrix(.991 -.134 .134 .991 1189.2661 386.4283)" gradientUnits="userSpaceOnUse" x1="-1023.2968" x2="-1023.2968" xlink:href="#j" y1="-127.6212" y2="-106.5077"/><linearGradient id="cK" gradientTransform="matrix(.991 -.134 .134 .991 1189.2661 386.4283)" gradientUnits="userSpaceOnUse" x1="-1023.2968" x2="-1023.2968" xlink:href="#ag" y1="-134.9144" y2="-118.3587"/><linearGradient id="cL" gradientTransform="matrix(-.134 -.991 .991 -.134 1365.2838 743.6414)" gradientUnits="userSpaceOnUse" x1="507.6049" x2="507.6049" xlink:href="#ai" y1="-1151.9663" y2="-1150.9683"/><linearGradient id="cM" gradientTransform="matrix(-.134 -.991 .991 -.134 1365.2838 743.6414)" gradientUnits="userSpaceOnUse" x1="507.6049" x2="507.6049" xlink:href="#ai" y1="-1148.7614" y2="-1147.7633"/><linearGradient id="cN" gradientTransform="matrix(.991 -.134 .134 .991 1189.2661 386.4283)" gradientUnits="userSpaceOnUse" x1="-1023.2968" x2="-1023.2968" xlink:href="#j" y1="-176.226" y2="-155.1125"/><linearGradient id="cO" gradientTransform="matrix(.991 -.134 .134 .991 1189.2661 386.4283)" gradientUnits="userSpaceOnUse" x1="-1024.6406" x2="-1024.6406" xlink:href="#ag" y1="-161.1195" y2="-156.3573"/><linearGradient id="cP" gradientTransform="matrix(-.991 .134 .134 .991 1719.4318 314.7457)" gradientUnits="userSpaceOnUse" x1="1556.9828" x2="1556.9828" xlink:href="#ag" y1="-161.1195" y2="-156.3573"/><linearGradient id="cQ" gradientTransform="matrix(.991 -.134 .134 .991 1189.2661 386.4283)" gradientUnits="userSpaceOnUse" x1="-1023.2817" x2="-1023.2817" xlink:href="#ai" y1="-154.6924" y2="-136.5317"/><linearGradient id="cR" gradientTransform="matrix(.991 -.134 .134 .991 1189.2661 386.4283)" gradientUnits="userSpaceOnUse" x1="-1023.0211" x2="-1017.2628" xlink:href="#ap" y1="-140.7721" y2="-140.7721"/><linearGradient id="cS" gradientTransform="matrix(.991 -.134 .134 .991 1189.2661 386.4283)" gradientUnits="userSpaceOnUse" x1="-1029.5371" x2="-1023.7789" xlink:href="#ap" y1="-141.5906" y2="-141.5906"/><linearGradient id="cT" gradientTransform="matrix(.991 -.134 .134 .991 1189.2661 386.4283)" gradientUnits="userSpaceOnUse" x1="-1023.9471" x2="-1023.9471" xlink:href="#ap" y1="-137.9883" y2="-131.6025"/><linearGradient id="cU" gradientTransform="matrix(.991 -.134 .134 .991 1189.2661 386.4283)" gradientUnits="userSpaceOnUse" x1="-1011.8804" x2="-1011.8804" xlink:href="#Z" y1="-157.3958" y2="-151.9225"/><linearGradient id="cV" gradientTransform="matrix(.991 -.134 .134 .991 1189.2661 386.4283)" gradientUnits="userSpaceOnUse" x1="-1035.3683" x2="-1035.3683" xlink:href="#Z" y1="-157.3958" y2="-151.9225"/><linearGradient id="cW" gradientTransform="matrix(.9952 -.09751642 .09119324 .9307 1192.9127 383.6649)" gradientUnits="userSpaceOnUse" x1="-1021.1534" x2="-1021.1534" xlink:href="#ap" y1="-120.9908" y2="-98.2023"/><linearGradient id="cX" gradientTransform="matrix(-.9854 .1703 .1592 .9215 1689.8728 316.4719)" gradientUnits="userSpaceOnUse" x1="1533.6196" x2="1533.6196" xlink:href="#ap" y1="-221.3556" y2="-198.5671"/><linearGradient id="cY" gradientTransform="matrix(.991 -.134 .134 .991 1189.2661 386.4283)" gradientUnits="userSpaceOnUse" x1="-1023.3176" x2="-1023.4213" xlink:href="#ay" y1="-157.2403" y2="-154.4162"/><linearGradient id="cZ" gradientTransform="matrix(.991 -.134 .134 .991 1189.2661 386.4283)" gradientUnits="userSpaceOnUse" x1="-1028.6461" x2="-1028.6461" xlink:href="#ay" y1="-156.8674" y2="-153.6002"/><linearGradient id="c0" gradientTransform="matrix(-.991 .134 .134 .991 1728.4387 313.5279)" gradientUnits="userSpaceOnUse" x1="1561.8778" x2="1561.8778" xlink:href="#ay" y1="-156.8674" y2="-153.6002"/><linearGradient id="c1" gradientTransform="matrix(.991 -.134 .134 .991 1189.2661 386.4283)" gradientUnits="userSpaceOnUse" x1="-1023.2817" x2="-1023.2817" xlink:href="#ay" y1="-158.4029" y2="-152.9296"/><linearGradient id="c2" gradientTransform="matrix(.991 -.134 .134 .991 1189.2661 386.4283)" gradientUnits="userSpaceOnUse" x1="-1023.2968" x2="-1023.2968" xlink:href="#ay" y1="-160.4285" y2="-159.4304"/><linearGradient id="c3" gradientUnits="userSpaceOnUse" x1="47.2046" x2="143.0976" y1="383.3023" y2="348.4001"><stop offset="0" stop-color="#d6d6d5" stop-opacity="0"/><stop offset=".3075" stop-color="#dededd" stop-opacity=".3075"/><stop offset=".7833" stop-color="#f3f3f3" stop-opacity=".7833"/><stop offset="1" stop-color="#fff"/></linearGradient><linearGradient id="c4" gradientTransform="matrix(.4052 -.9142 .9142 .4052 1758.7441 -465.8979)" gradientUnits="userSpaceOnUse" x1="-1436.7081" x2="-1424.731" xlink:href="#Z" y1="-1120.0477" y2="-1120.0477"/><linearGradient id="c5" gradientTransform="matrix(.4052 -.9142 .9142 .4052 1758.7441 -465.8979)" gradientUnits="userSpaceOnUse" x1="-1436.7081" x2="-1424.731" xlink:href="#ai" y1="-1116.8486" y2="-1116.8486"/><g clip-path="url(#a)"><path clip-rule="evenodd" d="m309 56.7.5-.3h-.5z" fill="#fff" fill-rule="evenodd"/><g><path d="m4.9.1 306.2-.1v287.7h-306.2z" fill="url(#c)"/></g><path d="m172.7 153.6h43.2v134.1h-43.2z" fill="#bbbdbf"/><g><path d="m173.3 160.6h42.6v31.5h-42.6z" fill="#b2b4b6"/><path d="m175.6 192.1h-1.3l20-31.5 21.6 31.5h-1.2l-20.4-29.6z" fill="#d6d6d5"/></g><g><path d="m173.3 256.4h42.6v31.3h-42.6z" fill="#b2b4b6" transform="matrix(-1 0 0 -1 389.1605 544.1912)"/><path d="m214.4 256.4 1.3.1-20.8 31.3-20.8-31.4h1.2l19.5 29.6z" fill="#d6d6d5"/></g><path d="m25.4 156.9h3v131.1h-3z" fill="#fff"/><g><g><path d="m190 76.1h9.3v45.3h-9.3z" fill="#3b824a" transform="matrix(0 -1 1 0 95.8417 293.3666)"/><path d="m190 61.3h9.3v45.3h-9.3z" fill="#3b824a" transform="matrix(0 -1 1 0 110.6052 278.6031)"/></g><g fill="#3b824a"><path d="m190 46.6h9.3v45.3h-9.3z" transform="matrix(0 -1 1 0 125.3686 263.8397)"/><path d="m190 31.8h9.3v45.3h-9.3z" transform="matrix(0 -1 1 0 140.1321 249.0762)"/><path d="m190 17h9.3v45.3h-9.3z" transform="matrix(0 -1 1 0 154.8955 234.3127)"/><path d="m190 2.3h9.3v45.3h-9.3z" transform="matrix(0 -1 1 0 169.659 219.5493)"/></g></g><g><g><g><path d="m244.8 62.5h9.3v36.5h-9.3z" fill="#fff" transform="matrix(0 -1 1 0 168.6769 330.1157)"/></g><g fill="#fff"><path d="m244.8 47.7h9.3v36.5h-9.3z" transform="matrix(0 -1 1 0 183.4404 315.3522)"/><path d="m244.8 32.9h9.3v36.5h-9.3z" transform="matrix(0 -1 1 0 198.2038 300.5887)"/><path d="m244.8 18.2h9.3v36.5h-9.3z" transform="matrix(0 -1 1 0 212.9673 285.8253)"/><path d="m244.8 3.4h9.3v36.5h-9.3z" transform="matrix(0 -1 1 0 227.7308 271.0618)"/></g></g><path d="m239 47.9h76v7.4h-76z" fill="#fff" transform="matrix(0 1 -1 0 328.697 -225.4052)"/></g><g><path d="m4.9 153.1h211.5v7.4h-211.5z" fill="#fff"/><g><g><g><path d="m10.8 110.9h9.3v36.5h-9.3z" fill="#fff"/><path d="m25.6 110.9h9.3v36.5h-9.3z" fill="#fff"/></g></g></g><g><g><path d="m25.7 110.9h9.3v36.5h-9.3z" fill="#fff"/></g><g fill="#fff"><path d="m40.4 110.9h9.3v36.5h-9.3z"/><path d="m55.2 110.9h9.3v36.5h-9.3z"/><path d="m70 110.9h9.3v36.5h-9.3z"/><path d="m84.7 110.9h9.3v36.5h-9.3z"/><path d="m99.5 110.9h9.3v36.5h-9.3z"/><path d="m114.3 110.9h9.3v36.5h-9.3z"/></g></g><g><g><path d="m129.1 110.9h9.3v36.5h-9.3z" fill="#fff"/></g><g fill="#fff"><path d="m143.8 110.9h9.3v36.5h-9.3z"/><path d="m158.6 110.9h9.3v36.5h-9.3z"/><path d="m173.4 110.9h9.3v36.5h-9.3z"/><path d="m188.1 110.9h9.3v36.5h-9.3z"/><path d="m202.9 110.9h9.3v36.5h-9.3z"/></g></g></g><g><path d="m240.6 89.7c-9.5.1-22.6 14.4-23.2 23.8l-.1 174.2h93.7v-164.3-16.7-17z" fill="#bbbdbf"/><g><path d="m217.5 171.6h93.6v2.2h-93.6z" fill="#d6d6d5"/></g><g><path d="m217.5 245h93.6v2.2h-93.6z" fill="#d6d6d5"/></g><path d="m215.9 287.7v-173.7c0-.4 26.1-25.9 31.6-25.9h63.5v3h-63.5c-4.7 0-28.6 22.7-28.6 22.8v173.7h-3z" fill="#fad03b"/></g><g><path d="m264.3 226h34.6v-33.1h-34.6z" fill="url(#e)"/><path d="m269.7 211c0-.7.1-1.3.3-1.9 0-.3 0-.5 0-.8 0-2 .5-3.9 1.3-5.6-.1-.5-.2-1-.2-1.6 0-3.5 2.9-6.4 6.4-6.4 1.4 0 2.6.4 3.7 1.2.4 0 .8-.1 1.3-.1 2.6 0 4.9.8 6.9 2.1.3 0 .6-.1.9-.1 3.5 0 6.4 2.9 6.4 6.4 0 1.7-.7 3.3-1.8 4.4v.7c1.1 1.2 1.8 2.7 1.8 4.5 0 3.5-2.9 6.4-6.4 6.4-1 0-1.9-.2-2.7-.6-.9 2.4-3.2 4.1-6 4.1-3.1 0-5.7-2.3-6.3-5.2-.8-.5-1.5-1.1-2.1-1.8-2-1.1-3.5-3.2-3.5-5.7z" fill="url(#g)"/></g><g><path d="m120 179.4-64.4-.1h-1.9v-2.3c0-1 .9-1.9 1.9-1.9l64.4.1c1 0 1.9.9 1.9 1.9v2.2z" fill="#b2b2b2"/><g><path d="m125.3 205-75.4-.3-.5 176.9 75.4.3z" fill="url(#i)"/><path d="m123 381.8-71.8-.2h-1.9v2.3c0 1 .8 1.9 1.9 1.9l71.8.2c1 0 1.9-.8 1.9-1.9v-2.2z" fill="#b2b2b2"/><path d="m128.5 344.7c0 9.6 0 17.4-2.6 17.4-.3 0-2.8 0-3.3 0-3 0-3.4-9-3.4-17.4s.8-15.6 3.3-17.2c.4-.2 3.2-.2 3.5-.2 2.6 0 2.5 7.8 2.5 17.4z" fill="url(#k)"/><path d="m44.9 344.5c0 9.6-.1 17.4 2.5 17.4h3.3c3 0 3.5-9 3.5-17.4s-.7-15.6-3.2-17.2c-.4-.2-3.2-.2-3.5-.2-2.7-.1-2.6 7.7-2.6 17.4z" fill="url(#l)"/><path d="m131.9 215c0 9.6 0 17.4-2.6 17.4-.3 0-2.8 0-3.3 0-3 0-3.4-9-3.4-17.4s.8-15.6 3.3-17.2c.4-.2 3.2-.2 3.5-.2 2.6 0 2.5 7.8 2.5 17.4z" fill="url(#m)"/><path d="m43.1 214.7c0 9.6-.1 17.4 2.5 17.4h3.3c3 0 3.5-9 3.5-17.4s-.7-15.6-3.2-17.2c-.4-.2-3.2-.2-3.5-.2-2.6 0-2.5 7.8-2.6 17.4z" fill="url(#n)"/><path d="m54.3 362-4.9-.1.2-35h4.8z" fill="url(#o)"/><path d="m123.8 362.2h-4.9l.1-35.1h4.9z" fill="url(#p)"/><path d="m52.9 232.2-5.9-.1.2-34.8h5.8z" fill="url(#q)"/><path d="m127.6 232.4h-5.9l.1-34.8h5.9z" fill="url(#r)"/><path d="m50 212.6s0-10.7 0-21c0-13.5 16.6-12.3 16.6-12.3h41.6s17.1-1.1 17.1 11.2c0 6.9-.1 21.6-.1 21.6z" fill="url(#s)"/><path d="m119.9 184.2h-13v-7.4h13.1z" fill="url(#u)"/><path d="m68 184.2h-13.1v-7.4h13.1z" fill="url(#v)"/><path d="m105.7 185v-5.7h16.1v5.8z" fill="url(#w)"/><path d="m121.4 236.8-10.6-3.5-.1 32.5 10.5 8.8z" fill="#d6d6d5"/><path d="m121.3 278.6-10.6-9-.1 37.4 10.5 8.6z" fill="#d6d6d5"/><path d="m121.3 320.2-10.6-8.9-.1 35.4 10.5 10.6z" fill="#d6d6d5"/><path d="m116 248.7c-2.9 0-5.3 7.4-5.3 17.1l10.5 8.8c.1-9.7-2.3-25.9-5.2-25.9z" fill="url(#y)" opacity=".5"/><path d="m116 289.8c-2.9 0-5.3 7.4-5.3 17.1l10.5 8.8c.1-9.7-2.3-25.9-5.2-25.9z" fill="url(#z)" opacity=".5"/><path d="m116 331.4c-2.9 0-5.3 5.6-5.3 15.3l10.4 10.6c.1-9.7-2.2-25.9-5.1-25.9z" fill="url(#A)" opacity=".5"/><path d="m105.1 383.8v-2h10.6v2.1z" fill="url(#B)"/><path d="m57.8 383.7v-2.1h10.6v2.1z" fill="url(#C)"/><path d="m60.7 368.9 7-7.1 41.3.2 7.2 8.1s2.3 2-.1 2-52.2-.5-55.4-.4c-3.3 0 0-2.8 0-2.8z" fill="#d6d6d5"/><path d="m87.7 371.7c20.3.3 20.3-1.6 21.3-9.7l-41.3-.1c1.4 9.1 3.2 9.6 20 9.8z" fill="url(#D)" opacity=".5"/><path d="m53.7 185v-5.7h16.2l-.1 5.8z" fill="url(#E)"/><g><ellipse clip-path="url(#F)" cx="53.5" cy="186.4" fill="url(#H)" opacity=".25" rx="36.1" ry="33.9"/></g><g><path clip-path="url(#I)" d="m100.2 339c-.1 29.3-22.6 53-50.2 52.9-27.7-.1-50.1-24-50-53.3s22.6-53 50.2-52.9c27.7.1 50.1 23.9 50 53.3z" fill="url(#J)" opacity=".25"/></g><path d="m87.1 223.8-.4 138s-15.9-.1-19-.1-3.8-3.1-3.8-3.1l-.2-128.8s6.2-2.8 10.8-4.1c7.4-1.9 12.6-1.9 12.6-1.9z" fill="url(#K)" opacity=".25"/><g fill="#d6d6d5"><path d="m110.6 351.1v7.7s3.6 3.6 7.1 7.3 3.5-1.1 3.5-1.1v-3.7z"/><path d="m53 236.8 10.7-3.5.1 32.5-10.6 8.8z"/><path d="m53.1 278.6 10.7-9 .1 37.4-10.6 8.6z"/><path d="m53.1 320.2 10.7-8.9.1 35.4-10.6 10.6z"/></g><path d="m58.4 248.7c2.9 0 5.3 7.4 5.3 17.1l-10.5 8.8c0-9.7 2.3-25.9 5.2-25.9z" fill="url(#L)" opacity=".5"/><path d="m58.4 289.8c2.9 0 5.3 7.4 5.3 17.1l-10.5 8.8c0-9.7 2.3-25.9 5.2-25.9z" fill="url(#M)" opacity=".5"/><path d="m58.4 331.4c2.9 0 5.3 5.6 5.3 15.3l-10.4 10.6c0-9.7 2.2-25.9 5.1-25.9z" fill="url(#N)" opacity=".5"/><path d="m63.9 351.1v7.7s-3.6 3.6-7.1 7.3-3.5-1.1-3.5-1.1v-3.7z" fill="#d6d6d5"/><path d="m58.5 359.2c4-3.5 5.3-1.5 5.3-.4 0 0-6.2 6.4-7.5 7.7-1.3 1.2-2.5 1.1-2.5 0 .1-3 3-5.8 4.7-7.3z" fill="url(#O)" opacity=".5"/><path d="m116 359.2c-4-3.5-5.3-1.5-5.3-.4 0 0 6.2 6.4 7.5 7.7 1.3 1.2 2.5 1.1 2.5 0-.2-3-3.1-5.8-4.7-7.3z" fill="url(#P)" opacity=".5"/><path d="m94.8 205h41.4v8.4l-14.5 3.8z" fill="url(#Q)"/><path d="m85.1 204.7h-47.7v8.4l15.6 3.9z" fill="url(#R)"/><path d="m121.7 212.1c0 1.9.1 21.6.1 21.6l-10.8-3.6s-11.2-6.9-23.2-6.3c-11.9-.2-24.1 6.1-24.1 6.1l-10.7 3.8v-7.1s-.2-10.6 0-14.6 17.3-7.3 34.8-7.3c19.6 0 33.8 5.4 33.9 7.4z" fill="#d6d6d5"/><path d="m89.6 204.9c-21.7-.9-35.6 13.6-36.6 21.7v7.1l10.6-3.8s10.6-5.6 23.5-6.1c8.7-.4 16.6 2.8 16.6 2.8l7.3 3.5 10.8 3.6v-7.2c-4-9.2-17.7-21-32.2-21.6z" fill="url(#S)" opacity=".5"/></g></g><path clip-rule="evenodd" d="m307 23.8-10.8 6.3-10.9 6.3 10.9 6.2 10.8 6.3v-8.3h4.1v-8.5h-4.1z" fill="#fff" fill-rule="evenodd" opacity=".5"/><g><path d="m253.4 163.1h4.3v108.2h-4.3z" fill="#b2b4b6"/><g fill="#b2b4b6"><path d="m236.2 163h20.1v108.3h-20.1z"/><path d="m253.4 163.2h4.3v108h-4.3z"/><path d="m236.2 188.7h17.2v1.8h-17.2z"/><path d="m236.2 216.3h17.2v1.8h-17.2z"/><path d="m236.2 243.7h17.2v1.8h-17.2z"/><g><g><g><circle cx="241" cy="170" r="1.4"/><circle cx="244.9" cy="170" r="1.4"/><circle cx="244.9" cy="166.1" r="1.4"/><circle cx="248.7" cy="169.9" r="1.4"/><circle cx="241" cy="173.9" r="1.4"/><circle cx="248.7" cy="173.9" r="1.4"/><circle cx="241" cy="177.8" r="1.4"/><circle cx="244.9" cy="177.8" r="1.4"/><circle cx="244.9" cy="173.9" r="1.4"/><circle cx="248.7" cy="177.8" r="1.4"/></g><circle cx="241" cy="181.7" r="1.4"/><circle cx="244.9" cy="185.6" r="1.4"/><circle cx="244.9" cy="181.7" r="1.4"/><circle cx="248.7" cy="181.7" r="1.4"/></g><g><g><circle cx="241" cy="197.5" r="1.4"/><circle cx="244.9" cy="197.5" r="1.4"/><circle cx="244.9" cy="193.6" r="1.4"/><circle cx="248.7" cy="197.4" r="1.4"/><circle cx="241" cy="201.4" r="1.4"/><circle cx="248.7" cy="201.4" r="1.4"/><circle cx="241" cy="205.3" r="1.4"/><circle cx="244.9" cy="205.3" r="1.4"/><circle cx="244.9" cy="201.4" r="1.4"/><circle cx="248.7" cy="205.2" r="1.4"/></g><circle cx="241" cy="209.1" r="1.4"/><circle cx="244.9" cy="213" r="1.4"/><circle cx="244.9" cy="209.1" r="1.4"/><circle cx="248.7" cy="209.1" r="1.4"/></g><g><g><circle cx="241" cy="225.1" r="1.4"/><circle cx="244.9" cy="225.1" r="1.4"/><circle cx="244.9" cy="221.2" r="1.4"/><circle cx="248.7" cy="225" r="1.4"/><circle cx="241" cy="229" r="1.4"/><circle cx="248.7" cy="229" r="1.4"/><circle cx="241" cy="232.9" r="1.4"/><circle cx="244.9" cy="232.9" r="1.4"/><circle cx="244.9" cy="229" r="1.4"/><circle cx="248.7" cy="232.8" r="1.4"/></g><circle cx="241" cy="236.7" r="1.4"/><circle cx="244.9" cy="240.6" r="1.4"/><circle cx="244.9" cy="236.7" r="1.4"/><circle cx="248.7" cy="236.7" r="1.4"/></g><g><g><circle cx="241" cy="252.5" r="1.4"/><circle cx="244.9" cy="252.5" r="1.4"/><circle cx="244.9" cy="248.6" r="1.4"/><circle cx="248.7" cy="252.4" r="1.4"/><circle cx="241" cy="256.4" r="1.4"/><circle cx="248.7" cy="256.4" r="1.4"/><circle cx="241" cy="260.3" r="1.4"/><circle cx="244.9" cy="260.3" r="1.4"/><circle cx="244.9" cy="256.4" r="1.4"/><circle cx="248.7" cy="260.3" r="1.4"/></g><circle cx="241" cy="264.2" r="1.4"/><circle cx="244.9" cy="268.1" r="1.4"/><circle cx="244.9" cy="264.2" r="1.4"/><circle cx="248.7" cy="264.2" r="1.4"/></g></g></g><g><path d="m233.7 205.9v1.7c0 .6-.5 1-1 1h-4.7c-.6 0-1-.5-1-1v-1.7c0-.6.5-1 1-1h4.7c.5 0 1 .5 1 1z" fill="url(#U)"/><path d="m233.7 198.7v1.7c0 .6-.5 1-1 1h-4.7c-.6 0-1-.5-1-1v-1.7c0-.6.5-1 1-1h4.7c.5 0 1 .5 1 1z" fill="url(#V)"/><path d="m244 198v3.1c0 1-.8 1.8-1.8 1.8h-10c-1 0-1.8-.8-1.8-1.8v-3.1c0-1 .8-1.8 1.8-1.8h10c1 0 1.8.8 1.8 1.8z" fill="url(#X)"/><path d="m244 205v3.1c0 1-.8 1.8-1.8 1.8h-10c-1 0-1.8-.8-1.8-1.8v-3.1c0-1 .8-1.8 1.8-1.8h10c1 0 1.8.8 1.8 1.8z" fill="url(#Y)"/><path d="m248.9 212.1-.2.5c.3 1.4-2.4 3.3-2.4 3.3l-2.5.5c-1.4.3-2.7-1-3-2.4-.3-1.4.6-3 2-3.3l5.7-1c-.1 0 .2 1.1.4 2.4z" fill="url(#aa)"/><path d="m248.5 194.6-.1-.5c.3-1.3-2.2-3.4-2.2-3.4l-2.5-.6c-1.3-.3-2.8.8-3.1 2.2-.3 1.3.4 3.1 1.7 3.4l5.6 1.4c-.1 0 .2-1.1.6-2.5z" fill="url(#ab)"/><path d="m249.1 192v22.6c0 1.1-.9 2-2 2h-3.3c-1.1 0-2-.9-2-2v-22.6c0-1.1.9-2 2-2h3.3c1.1.1 2 1 2 2z" fill="url(#ac)"/><path d="m243 196.2c5.4 0 9.9 1.5 9.9 7 0 5.4-4.4 7.2-9.9 7.2-2.5 0-4.1-.9-5.3-2.3-1-1.2-1.8-1.7-2.3-3.5-.2-.7-2.3-.5-2.3-1.3s1.8-.7 2-1.3c.4-1.5 1.3-2.5 2.2-3.5 1.3-1.8 2.8-2.3 5.7-2.3z" fill="url(#ad)"/><path d="m242.6 210.4s.9-1.3 2-1.1.9 1 1.1 1c .2-.1 7.2-.2 7.1-7.2-.1-6.7-7.8-6.6-7.8-6.6s0 1.5-1.3 1.3-1.5-1.4-1.5-1.4l-.9.1-.7.1s.9 1.5 1.6 1.9c.5.3.4.7.4.7s-4-.1-3.9 4c .2 4.6 3.9 4.2 3.9 4.2s.5.5-.2.9c-.6.3-1.8 2-1.8 2s .5.2 1 .2c.5-.2 1-.1 1-.1z" fill="url(#ae)"/></g></g><g><path d="m257.4 280.6h-30.8c-1.3 0-2.3-1-2.3-2.3v-122.3c0-1.3 1-2.3 2.3-2.3h30.8c1.3 0 2.3 1 2.3 2.3v122.2c0 1.3-1 2.4-2.3 2.4z" fill="#c0ffff" opacity=".3"/><path d="m258.1 151.4h-32.1c-2.1 0-3.8 1.7-3.8 3.8v124c0 2.1 1.7 3.8 3.8 3.8h32.2c2.1 0 3.8-1.7 3.8-3.8v-124c-.1-2.1-1.8-3.8-3.9-3.8zm1.6 125.4c0 2.1-1.7 3.8-3.8 3.8h-27.9c-2.1 0-3.8-1.7-3.8-3.8v-119.3c0-2.1 1.7-3.8 3.8-3.8h28c2.1 0 3.8 1.7 3.8 3.8v119.3z" fill="#42210b"/></g><path d="m173.3 160.6h1v127.2h-1z" fill="#989898"/><path d="m170.3 153.8v23.1l-20.5-20.5v-2.5h-3v134h3v-22l20.5 20.5v1.5h3v-134h-3zm0 27.3v16.9l-20.5-20.5v-16.9zm-20.5 42.7 20.5 20.5v16.9l-20.5-20.5zm0-4.2v-16.9l20.5 20.5v16.9zm0-21.1v-16.9l20.5 20.5v16.9zm0 63v-16.5l20.5 20.5v16.5z" fill="#fff"/><g><g><path d="m195.2 241.5h-1.2c-.5 0-.9-.4-.9-.9v-22.3c0-.5.4-.9.9-.9h1.2c.5 0 .9.4.9.9v22.3c0 .5-.4.9-.9.9z" fill="url(#af)"/><path d="m195.3 227.9h-1.4c-.6 0-1.1-.5-1.1-1.1v-16.7c0-.6.5-1.1 1.1-1.1h1.4c.6 0 1.1.5 1.1 1.1v16.7c0 .6-.5 1.1-1.1 1.1z" fill="url(#ah)"/><path d="m193.3 210.3v8.7c0 .2-.2.4-.4.4h-.4c-.2 0-.4-.2-.4-.4v-8.7c0-.2.2-.4.4-.4h.4c.3 0 .4.2.4.4z" fill="url(#aj)"/><path d="m197 210.3v8.7c0 .2-.2.4-.4.4h-.4c-.2 0-.4-.2-.4-.4v-8.7c0-.2.2-.4.4-.4h.4c.2 0 .4.2.4.4z" fill="url(#ak)"/><path d="m195.2 186h-1.2c-.5 0-.9-.4-.9-.9v-22.3c0-.5.4-.9.9-.9h1.2c.5 0 .9.4.9.9v22.2c0 .5-.4 1-.9 1z" fill="url(#al)"/><path d="m193.1 184.5h-.4c-.1 0-.2-.1-.2-.2v-5.1c0-.1.1-.2.2-.2h.4c.3 0 .5.2.5.5v4.5c0 .3-.2.5-.5.5z" fill="url(#am)"/><path d="m196 184.5h.4c.1 0 .2-.1.2-.2v-5.1c0-.1-.1-.2-.2-.2h-.4c-.3 0-.5.2-.5.5v4.5c.1.3.3.5.5.5z" fill="url(#an)"/><path d="m193.1 186.4h3v20.7h-3z" fill="url(#ao)"/><path d="m199.5 212.8h-2.5c-1.1 0-2-.9-2-2v-16.9c0-1.1.9-2 2-2h2.5c1.1 0 2 .9 2 2v16.9c0 1.1-.9 2-2 2z" fill="url(#aq)"/><path d="m192 212.8h-2.5c-1.1 0-2-.9-2-2v-18.8c0-1.1.9-2 2-2h2.5c1.1 0 2 .9 2 2v18.8c0 1.1-.9 2-2 2z" fill="url(#ar)"/><path d="m181.5 205.5h24.6v7.3h-24.6z" fill="url(#as)"/><path d="m200.8 206.9c0 5.3-1.5 9.5-6.7 9.5s-7-4.3-7-9.5c0-2.5.9-3.9 2.3-5.1 1.2-1 1.7-1.8 3.4-2.2.7-.2.5-2.2 1.3-2.2.7 0 .6 1.8 1.2 1.9 1.5.4 2.4 1.3 3.4 2.1 1.6 1.3 2.1 2.7 2.1 5.5z" fill="url(#at)"/><circle cx="207.6" cy="186.5" fill="url(#au)" r="3.1"/><circle cx="180.8" cy="186.5" fill="url(#av)" r="3.1"/><path d="m206.8 212.8c-1.4-.1-3.5.9-3.5-2.5 0-5.5 2.2-5.8 2.1-9.6 0-2.3-.3-10.9-.3-10.9 0-1.3 1.2-1.2 2.6-1.2 1.3.1 2.4 0 2.4 1.3l-.7 20.5c0 1.4-1.2 2.4-2.6 2.4z" fill="url(#aw)"/><path d="m181.9 212.8c1.4-.1 3.5.9 3.5-2.5 0-5.5-2.2-5.8-2.1-9.6 0-2.3.3-10.9.3-10.9 0-1.3-1.2-1.2-2.6-1.2-1.3.1-2.4 0-2.4 1.3l.7 20.5c0 1.4 1.2 2.4 2.6 2.4z" fill="url(#ax)"/><path d="m207 185.1c0-.6-.4-1.2-.8-1.2s-23.2 0-23.3 0c-.5 0-.9.5-.9 1.2s.4 1.2.9 1.2h23.3c.4 0 .8-.5.8-1.2z" fill="url(#az)"/><path d="m186.1 187.6s5 1 4.7-3.6h-4.8z" fill="url(#aA)"/><path d="m203.2 187.6s-5 1-4.7-3.6h4.8z" fill="url(#aB)"/><ellipse cx="194.6" cy="185.3" fill="url(#aC)" rx="2.7" ry="3.1"/><path d="m200.2 181h-11.2c-.2 0-.4-.2-.4-.4v-.4c0-.2.2-.4.4-.4h11.3c.2 0 .4.2.4.4v.4c-.1.3-.3.4-.5.4z" fill="url(#aD)"/><path d="m187.1 206.6s1.2.8 1.1 2c-.1 1.1-1 .9-.9 1.1s.2 6.9 7 6.8c6.5-.1 6.4-7.5 6.4-7.5s-1.4 0-1.2-1.3c.2-1.2 1.3-1.4 1.3-1.4l-.2-1.6s-1.5.9-1.8 1.5c-.3.5-1.4 2-.6 3.5s-.2 2.6-.7 3.2c-.6.7-4.8.9-6.2.3s-2.2-1.9-2-2.9.7-3.5 0-3.9-1.9-1.7-1.9-1.7l-.2.9z" fill="url(#aE)"/></g><g><g><g><path d="m170.2 214.1c-5.9 0-10.8-4.8-10.8-10.8 0-5.9 4.8-10.8 10.8-10.8 5.9 0 10.8 4.8 10.8 10.8 0 5.9-4.8 10.8-10.8 10.8z" fill="url(#aF)"/><path d="m170.2 214.5c-6.2 0-11.2-5-11.2-11.2s5-11.2 11.2-11.2 11.2 5 11.2 11.2c0 6.1-5 11.2-11.2 11.2zm0-21.6c-5.7 0-10.4 4.7-10.4 10.4s4.7 10.4 10.4 10.4 10.4-4.7 10.4-10.4-4.6-10.4-10.4-10.4z" fill="#fff"/></g><path d="m168.6 208.2-4.8-4.8 1.9-1.9 2.9 3 6.2-6.3 1.9 1.9z" fill="#fff"/></g><path d="m162.6 195.7 15.2 15.2c-4.2 4.2-11 4.2-15.2 0-4.1-4.2-4.2-11 0-15.2z" fill="#d8d8d8"/></g></g><g><path d="m247.2 88.2v29.3s-20.2 0-31.3 0v-3.6s.4-9.3 8.5-17.5c7.7-7.8 21-8.2 21-8.2z" fill="#b2b4b6"/><g fill="#fff"><path d="m236.4 106.9c-.5.4-.6 1.1-.2 1.6s1.1.6 1.6.2.6-1.1.2-1.6-1.1-.5-1.6-.2zm0 0"/><path d="m231.2 103.1c-.4-1-.1-2.2.7-2.8 1.1-.8 2.6-.7 3.4.4.6.8.7 1.8.3 2.7l.6.8c.8-1.2.8-2.9-.1-4.1-1.2-1.5-3.3-1.7-4.8-.5-1.1.9-1.5 2.2-1.2 3.5l.8.4c.1-.2.2-.3.3-.4zm0 0"/><path d="m227.9 104.1 3 1.4c.2.1.5.1.7-.1l1.5-1.2.3.3-1.3 1c-.1.1-.2.3-.2.4s0 .2.1.3c.2.2.5.2.7.1l1.3-1 .9 1.1c.3.3.8.6 1.4.2.4-.3.5-.9.2-1.4l-2-2.5c-.3-.4-1-.5-1.4-.2l-1.9 1.5-2.6-1.2c-.2-.1-.5-.1-.7.1-.1.1-.1.1-.2.2-.3.5-.1.8.2 1zm0 0"/></g></g></g><g clip-path="url(#a)"><path d="m188.7 131.5v.9c0 .7-.6 1.3-1.3 1.3h-3.7c-.7 0-1.3-.6-1.3-1.3v-.9c0-.7.6-1.3 1.3-1.3h3.7c.8 0 1.3.6 1.3 1.3z" fill="url(#aG)"/><path d="m184.4 124.7v.9c0 .7-.6 1.3-1.3 1.3h-3.7c-.7 0-1.3-.6-1.3-1.3v-.9c0-.7.6-1.3 1.3-1.3h3.7c.7 0 1.3.6 1.3 1.3z" fill="url(#aH)"/><path d="m194.1 124.4v1.6c0 1.3-1.1 2.4-2.4 2.4h-8c-1.3 0-2.4-1.1-2.4-2.4v-1.6c0-1.3 1.1-2.4 2.4-2.4h8c1.3 0 2.4 1.1 2.4 2.4z" fill="url(#aI)"/><path d="m198.4 131v1.6c0 1.3-1.1 2.4-2.4 2.4h-8c-1.3 0-2.4-1.1-2.4-2.4v-1.6c0-1.3 1.1-2.4 2.4-2.4h8.1c1.2 0 2.3 1 2.3 2.4z" fill="url(#aJ)"/><path d="m198.5 137.7-.3.5c0 1.3-2.8 2.6-2.8 2.6h-2.4c-1.3 0-2.4-1.4-2.4-2.7 0-1.3 1.1-2.7 2.4-2.7h5.4c0-.1.1 1 .1 2.3z" fill="url(#aK)"/><path d="m197.1 119.8-.3-.5c0-1.3-2.8-2.6-2.8-2.6h-2.4c-1.3 0-2.4 1.4-2.4 2.7 0 1.3 1.1 2.7 2.4 2.7h5.4c0 .1.1-1 .1-2.3z" fill="url(#aL)"/><path d="m198.5 119.3v18.8c0 1.4-1.1 2.6-2.6 2.6h-1.7c-1.4 0-2.6-1.1-2.6-2.6v-18.8c0-1.4 1.1-2.6 2.6-2.6h1.7c1.4.1 2.6 1.2 2.6 2.6z" fill="url(#aM)"/><path d="m192.8 122c5.1 0 9.3 1.4 9.3 6.5s-4.1 6.7-9.3 6.7c-2.4 0-3.8-.8-5-2.2-.9-1.1-1.7-1.6-2.2-3.3-.2-.6-2.1-.5-2.1-1.3 0-.7 1.7-.6 1.9-1.2.4-1.4 1.3-2.3 2-3.3 1.2-1.4 2.7-1.9 5.4-1.9z" fill="url(#aN)"/><path d="m192.5 135.3s.8-1.2 1.9-1.1.9 1 1.1.9 6.7-.2 6.6-6.8c-.1-6.3-7.3-6.2-7.3-6.2s0 1.4-1.2 1.2-1.4-1.3-1.4-1.3l-.9.1-.7.1s.9 1.4 1.5 1.8c.5.3.4.7.4.7s-3.8-.1-3.6 3.8c.2 4.3 3.6 3.9 3.6 3.9s.5.5-.2.8c-.6.3-1.7 1.9-1.7 1.9s.5.1.9.2 1 0 1 0z" fill="url(#aO)"/></g><g clip-path="url(#aP)"><g><path d="m4.9 11.7h301.2v409.4h-301.2z" fill="url(#aQ)"/></g><path clip-rule="evenodd" d="m72.3 262.2-6.5-11.3-6.5-11.3-6.6 11.3-6.5 11.3h8.7v27.2h8.8v-27.2z" fill="#fff" fill-rule="evenodd" opacity=".5"/><path clip-rule="evenodd" d="m72.3 262.2-6.5-11.3-6.5-11.3-6.6 11.3-6.5 11.3h8.7v27.2h8.8v-27.2z" fill="#fff" fill-rule="evenodd" opacity=".5"/><g><path d="m190.8 163.1s-19.6-20.7-23.4-20.8c-3.7-.1-15.4 7.7-15.4 7.7l-7.7 14.6-.1-2.5c0-.6.8-9.7 4.7-14.8 3.8-5 11.6-7.6 18.1-7.6 11.7-.1 19.8 6.2 19.8 6.2 7 7.6 5.5 15.8 5.5 16.4l-.2 2.1z" fill="#b2b2b2"/><g><path d="m189.5 240.8-41.1.2h-1.2v1.4c0 .6.5 1.2 1.2 1.2l41.1-.2c.6 0 1.2-.5 1.2-1.2v-1.4z" fill="#b2b2b2"/><path d="m194.7 226.6c0 6 .1 10.9-1.5 10.9-.2 0-1.7 0-2.1 0-1.9 0-2.2-5.6-2.2-10.9s.4-9.8 2-10.8c.2-.1 2-.1 2.2-.1 1.6 0 1.6 4.9 1.6 10.9z" fill="url(#aR)"/><path d="m141.6 226.9c0 6 0 10.9 1.6 10.9h2.1c1.9 0 2.1-5.7 2.1-10.9 0-5.3-.5-9.8-2.1-10.8-.2-.1-2-.1-2.2-.1-1.6 0-1.5 4.9-1.5 10.9z" fill="url(#aS)"/><path d="m196.6 175.2c0 6 .1 10.9-1.5 10.9-.2 0-1.7 0-2.1 0-1.9 0-2.2-5.6-2.2-10.9s.4-9.8 2-10.8c.2-.1 2-.1 2.2-.1 1.6 0 1.6 4.9 1.6 10.9z" fill="url(#aT)"/><path d="m140.5 175.5c0 6 0 10.9 1.6 10.9h2.1c1.9 0 2.1-5.7 2.1-10.9 0-5.3-.5-9.8-2.1-10.8-.2-.1-2-.1-2.2-.1-1.6 0-1.5 4.9-1.5 10.9z" fill="url(#aU)"/><path d="m147.6 237.9h-3l-.1-21.9h3.1z" fill="url(#aW)"/><path d="m191.8 237.6h-3l-.1-21.9h3z" fill="url(#aX)"/><path d="m146.1 186.4h-3.1v-21.8h3z" fill="url(#aY)"/><path d="m194 186.2h-3l-.1-21.9h3z" fill="url(#aZ)"/><path d="m144.4 164.5s-.2-22.2 22-22.3c28.7-.1 25.3 22.2 25.3 22.2z" fill="url(#a0)"/><path d="m144.4 164.5h-6.3v5.2l6.3 1.7.2 66.3s.3 3.2 2.7 3.2c2.3.1 41.9-.2 43.4-.2s1.2-3.3 1.2-3.3l-.2-66.2 6.8-1.9v-5.2h-9.1z" fill="url(#a1)"/><path d="m181.8 146.9-8.2-.1.1-4.7 8.2.1z" fill="url(#a3)"/><path d="m189.4 164.3-7.7 21.7-26 .1-8.6-21.6z" fill="#d6d6d5"/><path d="m172.8 147.3.1-3.6 10.1.1v3.7z" fill="url(#a4)"/><path d="m146.3 172.8 6.8 17.4-.3 22.9-5.2 6.8z" fill="#d6d6d5"/><path d="m169.3 164.3c-13.6-.5-12.9 16.7-13.5 21.8l25.9-.1c-1-5.8-2-21.3-12.4-21.7z" fill="url(#a5)" opacity=".5"/><path d="m150.1 189.9c1.8 0 2.7 17.1 2.7 23.1l-5.2 6.9c0-6 .7-30 2.5-30z" fill="url(#a6)" opacity=".5"/><path d="m189.3 172.6-6.6 17.5-.4 23.5 7.4 7.1z" fill="#d6d6d5"/><path d="m186 189.6c-1.8 0-3.5 18.4-3.5 24.4l6.1 5.8c.1-6-.7-30.2-2.6-30.2z" fill="url(#a7)" opacity=".5"/><path d="m180.5 242.2v-1.3l6.7-.1v1.3z" fill="url(#a8)"/><path d="m150.8 242.3v-1.3l6.7-.1v1.4z" fill="url(#a9)"/><path d="m150.7 220.6c3-3.5 5.6-5.7 5.6-5.7l23 .1s.8.7 5.5 5.2c4.1 3.9-1.2 3.6-1.2 3.6l-32.3.3s-3.6 0-.6-3.5z" fill="#d6d6d5"/><path d="m167.2 221.3c13.6.5 11.5-1.3 12.1-6.4l-23-.1c.9 5.8.4 6.1 10.9 6.5z" fill="url(#ba)" opacity=".5"/><g><circle clip-path="url(#bb)" cx="146.6" cy="153.7" fill="url(#bc)" opacity=".25" r="22.7"/></g><path d="m161.4 146.8-8.2.1v-4.6l8.2-.1z" fill="url(#bd)"/><path d="m152.5 147.5-.1-3.6 10.1-.1.1 3.6z" fill="url(#be)"/><path d="m188.2 234.5c.1-.6 2-6.1 1.5-9.3-1-6.1-8.7-12.7-8.7-12.7-3.5-.1-24.8-.4-24.8-.4s1.2-5.1 1-6.5c-.9-5.7.7-10.8 2.5-12.1.9-.6 1.8-1 2.8-1.4 2-.8 4-1.6 5.9-2.4 1.6-.6 3.1-1.3 4.7-1.8 2.8-.9 5.6-1.9 8.5-2-6.7.1-10.1 0-16.7.1-1.3 0-9.3 0-9.3 0l-8.6-21.6-2.9.2 2.1 8.1 6.7 17.4-.2 22.9s-7.9 12-7.1 17.2c1.3 8.2 7 8.7 7 8.7h31.4c.2.1 3.8-.1 4.2-4.4z" fill="url(#bf)" opacity=".25"/></g></g><g><g><path d="m74 36.1-41.1.2h-1.2v1.4c0 .6.5 1.2 1.2 1.2l41.1-.2c.6 0 1.2-.5 1.2-1.2v-1.4z" fill="#b2b2b2"/><path d="m79.1 21.9c0 6 .1 10.9-1.5 10.9-.2 0-1.7 0-2.1 0-1.9 0-2.2-5.6-2.2-10.9s.4-9.8 2-10.8c.2-.1 2-.1 2.2-.1 1.6 0 1.6 4.9 1.6 10.9z" fill="url(#bg)"/><path d="m26 22.2c0 6 0 10.9 1.6 10.9h2.1c1.9 0 2.1-5.7 2.1-10.9 0-5.3-.5-9.8-2.1-10.8-.2-.1-2-.1-2.2-.1-1.6 0-1.5 4.9-1.5 10.9z" fill="url(#bh)"/><path d="m32.1 33.1-3.1.1-.1-21.9h3.1z" fill="url(#bi)"/><path d="m76.2 32.8-3 .1-.1-21.9h3.1z" fill="url(#bj)"/><path d="m28.8-40.2h-6.3v5.2l6.3 1.7.2 66.4s.3 3.2 2.7 3.2c2.3.1 41.9-.2 43.4-.2s1.2-3.3 1.2-3.3l-.2-66.2 6.8-1.9v-5.2h-9.1z" fill="url(#bk)"/><path d="m30.8-31.9 6.7 17.4-.2 22.9-5.3 6.8z" fill="#d6d6d5"/><path d="m34.5-14.8c1.8 0 2.7 17.1 2.7 23.1l-5.2 6.9c0-6 .7-30 2.5-30z" fill="url(#bl)" opacity=".5"/><path d="m73.7-32.1-6.5 17.5-.5 23.5 7.4 7.1z" fill="#d6d6d5"/><path d="m70.5-15.1c-1.9 0-3.5 18.3-3.5 24.4l6.1 5.8c0-6-.8-30.2-2.6-30.2z" fill="url(#bm)" opacity=".5"/><path d="m65 37.5-.1-1.4h6.7v1.3z" fill="url(#bn)"/><path d="m35.3 37.6v-1.3l6.6-.1v1.3z" fill="url(#bo)"/><path d="m35.1 15.8c3-3.5 5.6-5.7 5.6-5.7l23 .1s.8.7 5.5 5.2c4.1 3.9-1.2 3.6-1.2 3.6l-32.3.3c0 .1-3.5.1-.6-3.5z" fill="#d6d6d5"/><path d="m51.6 16.6c13.6.5 11.5-1.3 12.1-6.4l-23-.1c.9 5.8.4 6.1 10.9 6.5z" fill="url(#bp)" opacity=".5"/><path d="m72.7 29.8c.1-.6 2-6.1 1.5-9.3-1-6.1-8.7-12.7-8.7-12.7-3.5-.1-24.8-.4-24.8-.4s1.2-5.1 1-6.5c-.9-5.7.7-10.8 2.5-12.1.9-.6 1.8-1 2.8-1.4 2-.8 4-1.6 5.9-2.4 1.6-.6 3.1-1.3 4.7-1.8 2.8-.9 5.6-1.9 8.5-2-6.7.1-10.1 0-16.7.1-1.3 0-9.3 0-9.3 0l-8.6-21.6-2.8.3 2.1 8.1 6.7 17.4-.2 22.9s-7.9 12-7.1 17.2c1.3 8.2 7 8.7 7 8.7h31.4s3.6-.2 4.1-4.5z" fill="url(#bq)" opacity=".25"/></g></g><g><g><g><g><path d="m242.1 55.3h9.1v35.7h-9.1z" fill="#fff" transform="matrix(0 -1 1 0 173.473 319.8137)"/></g><g fill="#fff"><path d="m242.1 40.9h9.1v35.7h-9.1z" transform="matrix(0 -1 1 0 187.9049 305.3817)"/><path d="m242.1 26.5h9.1v35.7h-9.1z" transform="matrix(0 -1 1 0 202.3369 290.9497)"/><path d="m242.1 12h9.1v35.7h-9.1z" transform="matrix(0 -1 1 0 216.7689 276.5178)"/><path d="m242.5-2h8.3v35.7h-8.3z" transform="matrix(0 -1 1 0 230.8074 262.4792)"/></g></g><path d="m238.7 43.3h69.9v7.3h-69.9z" fill="#fff" transform="matrix(0 1 -1 0 320.6225 -226.7319)"/></g><path d="m306.8 82.2h-66.7c-6.7 1.1-24.6 16.1-25.1 29.5l-.1 309.5h91.8v-291.5h.1z" fill="#bbbdbf"/><g><path d="m215.6 186.5h91.1v1.6h-91.1z" fill="#d6d6d5"/></g><g><path d="m215.6 265.5h91.1v1.6h-91.1z" fill="#d6d6d5"/></g><path d="m216.3 421.2h-2.8v-315.1c0-.7 24.9-26 29.7-26h63.5v2.8l-65.3.1c-4 0-25.1 17.4-25.1 17.4v5.6z" fill="#fad03b"/><g><path d="m241.4 213.4h28.1v26.9h-28.1z" fill="url(#br)"/><path d="m265.2 228.1c0-.5-.1-1.1-.2-1.6 0-.2 0-.4 0-.6 0-1.6-.4-3.2-1.1-4.6.1-.4.2-.8.2-1.3 0-2.9-2.3-5.2-5.2-5.2-1.1 0-2.1.4-3 .9-.3 0-.7-.1-1-.1-2.1 0-4 .6-5.6 1.7-.2 0-.5-.1-.7-.1-2.9 0-5.2 2.3-5.2 5.2 0 1.4.6 2.7 1.5 3.6v.6c-.9.9-1.5 2.2-1.5 3.6 0 2.9 2.3 5.2 5.2 5.2.8 0 1.5-.2 2.2-.5.7 1.9 2.6 3.3 4.8 3.3 2.5 0 4.7-1.8 5.1-4.3.6-.4 1.2-.9 1.7-1.5 1.6-.5 2.8-2.2 2.8-4.3z" fill="url(#bs)"/></g><g><path d="m215.6 265.5h91.1v1.6h-91.1z" fill="#d6d6d5"/></g><g><path d="m215.6 344.4h91.1v1.6h-91.1z" fill="#d6d6d5"/></g><path d="m241.4 123.1h28.1v26.9h-28.1z" fill="url(#bt)"/><path d="m265.2 137.8c0-.5-.1-1.1-.2-1.6 0-.2 0-.4 0-.6 0-1.6-.4-3.2-1.1-4.6.1-.4.2-.8.2-1.3 0-2.9-2.3-5.2-5.2-5.2-1.1 0-2.1.4-3 .9-.3 0-.7-.1-1-.1-2.1 0-4 .6-5.6 1.7-.2 0-.5-.1-.7-.1-2.9 0-5.2 2.3-5.2 5.2 0 1.4.6 2.7 1.5 3.6v.6c-.9.9-1.5 2.2-1.5 3.6 0 2.9 2.3 5.2 5.2 5.2.8 0 1.5-.2 2.2-.5.7 1.9 2.6 3.3 4.8 3.3 2.5 0 4.7-1.8 5.1-4.3.6-.4 1.2-.9 1.7-1.5 1.6-.5 2.8-2.2 2.8-4.3z" fill="url(#bu)"/><g><path d="m244.2 80.1v28.6s-19.7 0-30.6 0v-3.5s.4-9.1 8.3-17.1c7.5-7.6 20.5-8 20.5-8z" fill="#b2b4b6"/><g fill="#fff"><path d="m233.7 98.5c-.5.4-.5 1.1-.2 1.5.4.5 1.1.5 1.5.2.5-.4.5-1.1.2-1.5-.4-.5-1.1-.6-1.5-.2zm0 0"/><path d="m228.5 94.7c-.4-1-.1-2.1.7-2.8 1-.8 2.5-.7 3.4.4.6.8.7 1.8.2 2.6l.6.8c.8-1.2.8-2.8-.1-4-1.1-1.4-3.3-1.7-4.7-.5-1 .8-1.5 2.2-1.2 3.4l.8.3c.1 0 .2-.1.3-.2zm0 0"/><path d="m225.3 95.7 2.9 1.3c.2.1.5.1.7-.1l1.4-1.2.3.3-1.2 1c-.1.1-.2.2-.2.4 0 .1 0 .2.1.3.2.2.5.2.7.1l1.2-1 .8 1.2c.2.3.8.6 1.3.2.4-.3.5-.9.2-1.3l-1.9-2.4c-.3-.4-.9-.5-1.4-.2l-1.9 1.5-2.5-1.2c-.2-.1-.5-.1-.7.1-.1.1-.1.1-.2.2-.1.3.1.6.4.8zm0 0"/></g></g><g><path d="m241.4 292.2h28.1v26.9h-28.1z" fill="url(#bv)"/><path d="m265.2 306.9c0-.5-.1-1.1-.2-1.6 0-.2 0-.4 0-.6 0-1.6-.4-3.2-1.1-4.6.1-.4.2-.8.2-1.3 0-2.9-2.3-5.2-5.2-5.2-1.1 0-2.1.4-3 .9-.3 0-.7-.1-1-.1-2.1 0-4 .6-5.6 1.7-.2 0-.5-.1-.7-.1-2.9 0-5.2 2.3-5.2 5.2 0 1.4.6 2.7 1.5 3.6v.6c-.9.9-1.5 2.2-1.5 3.6 0 2.9 2.3 5.2 5.2 5.2.8 0 1.5-.2 2.2-.5.7 1.9 2.6 3.3 4.8 3.3 2.5 0 4.7-1.8 5.1-4.3.6-.4 1.2-.9 1.7-1.5 1.6-.5 2.8-2.2 2.8-4.3z" fill="url(#bw)"/></g><g><path d="m241.4 371.2h28.1v26.9h-28.1z" fill="url(#bx)"/><path d="m265.2 385.9c0-.5-.1-1.1-.2-1.6 0-.2 0-.4 0-.6 0-1.6-.4-3.2-1.1-4.6.1-.4.2-.8.2-1.3 0-2.9-2.3-5.2-5.2-5.2-1.1 0-2.1.4-3 .9-.3 0-.7-.1-1-.1-2.1 0-4 .6-5.6 1.7-.2 0-.5-.1-.7-.1-2.9 0-5.2 2.3-5.2 5.2 0 1.4.6 2.7 1.5 3.6v.6c-.9.9-1.5 2.2-1.5 3.6 0 2.9 2.3 5.2 5.2 5.2.8 0 1.5-.2 2.2-.5.7 1.9 2.6 3.3 4.8 3.3 2.5 0 4.7-1.8 5.1-4.3.6-.4 1.2-.9 1.7-1.5 1.6-.5 2.8-2.3 2.8-4.3z" fill="url(#by)"/></g></g><path d="m116 422.2h-3v-28h3zm0-56h-3v-28h3zm0-56h-3v-28h3zm0-56.1h-3v-28h3zm0-56h-3v-28h3zm0-56h-3v-28h3zm0-56.1h-3v-28h3zm0-56h-3v-17.9h3z" fill="#fff"/><g><path d="m60.6 183.2c0 1.1-.9 2.1-2.1 2.1l-16.2-.1c-1.1 0-2.1-.9-2.1-2.1l.1-16.2c0-1.1.9-2.1 2.1-2.1l16.2.1c1.1 0 2.1.9 2.1 2.1z" fill="#1b75bb"/><path d="m58.5 184.7-16.2-.1c-.8 0-1.5-.7-1.5-1.5l.1-16.2c0-.8.7-1.5 1.5-1.5l16.2.1c.8 0 1.5.7 1.5 1.5l-.1 16.2c0 .8-.6 1.5-1.5 1.5zm-16.1-19c-.6 0-1.2.5-1.2 1.2l-.1 16.2c0 .6.5 1.2 1.2 1.2l16.2.1c.6 0 1.2-.5 1.2-1.2l.1-16.2c0-.6-.5-1.2-1.2-1.2z" fill="#fff"/></g><g><path d="m167.2 297.6c0 1.1-.9 2.1-2.1 2.1h-16.2c-1.1 0-2.1-.9-2.1-2.1v-16.2c0-1.1.9-2.1 2.1-2.1h16.2c1.1 0 2.1.9 2.1 2.1z" fill="#1b75bb"/><path d="m165.1 299.1h-16.2c-.8 0-1.5-.7-1.5-1.5v-16.2c0-.8.7-1.5 1.5-1.5h16.2c.8 0 1.5.7 1.5 1.5v16.2c0 .8-.7 1.5-1.5 1.5zm-16.2-18.9c-.6 0-1.2.5-1.2 1.2v16.2c0 .6.5 1.2 1.2 1.2h16.2c.6 0 1.2-.5 1.2-1.2v-16.2c0-.6-.5-1.2-1.2-1.2z" fill="#fff"/></g><g><path d="m197.6 50.9c0 1.1-.9 2.1-2.1 2.1h-16.2c-1.1 0-2.1-.9-2.1-2.1v-16.3c0-1.1.9-2.1 2.1-2.1h16.2c1.1 0 2.1.9 2.1 2.1z" fill="#1b75bb"/><path d="m195.5 52.4h-16.2c-.8 0-1.5-.7-1.5-1.5v-16.3c0-.8.7-1.5 1.5-1.5h16.2c.8 0 1.5.7 1.5 1.5v16.2c.1.9-.6 1.6-1.5 1.6zm-16.2-18.9c-.6 0-1.2.5-1.2 1.2v16.2c0 .6.5 1.2 1.2 1.2h16.2c.6 0 1.2-.5 1.2-1.2v-16.3c0-.6-.5-1.2-1.2-1.2h-16.2z" fill="#fff"/></g><g><path d="m161.1 296.5h-8.1v-1.8l3.8-4.8c.5-.7.9-1.3 1.1-1.9.2-.5.3-1 .3-1.4 0-.6-.1-1.1-.3-1.4-.2-.4-.6-.5-1-.5s-.8.2-1 .7c-.2.4-.4 1-.4 1.7h-2.6c0-1.3.3-2.3 1.1-3.2.7-.9 1.7-1.3 3-1.3s2.2.4 3 1.1c.7.7 1.1 1.7 1.1 3 0 .8-.2 1.6-.6 2.3s-1.1 1.7-2 2.8l-1.8 2.6h4.7v2.1z" fill="#fff"/></g><g><path d="m192 408.6c0 1.1-.9 2.1-2.1 2.1h-16.2c-1.1 0-2.1-.9-2.1-2.1v-16.2c0-1.1.9-2.1 2.1-2.1h16.2c1.1 0 2.1.9 2.1 2.1z" fill="#1b75bb"/><path d="m189.9 410.1h-16.2c-.8 0-1.5-.7-1.5-1.5v-16.2c0-.8.7-1.5 1.5-1.5h16.2c.8 0 1.5.7 1.5 1.5v16.2c0 .8-.7 1.5-1.5 1.5zm-16.2-18.9c-.6 0-1.2.5-1.2 1.2v16.2c0 .6.5 1.2 1.2 1.2h16.2c.6 0 1.2-.5 1.2-1.2v-16.2c0-.6-.5-1.2-1.2-1.2z" fill="#fff"/></g><g><path d="m49 173.8h1.3c.5 0 .8-.2 1.1-.5.2-.3.3-.8.3-1.4 0-.5-.1-1-.4-1.3-.2-.3-.6-.5-1-.5s-.7.2-.9.5c-.3.3-.4.7-.4 1.2h-2.6v-.1c0-1.1.3-2 1.1-2.7.7-.7 1.7-1 2.8-1.1 1.3 0 2.3.3 3 1s1.1 1.6 1.1 2.9c0 .6-.2 1.2-.5 1.7s-.8 1-1.3 1.3c.6.3 1.1.7 1.5 1.2.3.6.5 1.2.5 2 0 1.3-.4 2.2-1.2 3-.8.7-1.8 1.1-3.1 1.1-1.1 0-2.1-.3-2.9-1s-1.2-1.6-1.2-2.9v-.1h2.6c0 .5.1 1 .4 1.3s.6.5 1 .5c.5 0 .8-.2 1.1-.5.3-.4.4-.8.4-1.4 0-.7-.1-1.3-.4-1.6s-.7-.5-1.2-.5h-1.3z" fill="#fff"/></g><g><path d="m190.5 44.5h1.2v2.1h-1.2v3h-2.7v-3h-4.6l-.1-1.7 4.7-9.1h2.7zm-4.9 0h2.3v-4.8h-.1l-.1.3z" fill="#fff"/></g><g><path d="m184.4 407.4h-2.7v-11l-2.6.1v-1.9l5.2-.9v13.7z" fill="#fff"/></g><g><path d="m75.2 385.6s-19.6-20.7-23.4-20.8-15.4 7.7-15.4 7.7l-7.7 14.6-.1-2.5c0-.6.8-9.7 4.7-14.8 3.8-5 11.6-7.6 18.1-7.6 11.7-.1 19.8 6.2 19.8 6.2 7 7.6 5.5 15.8 5.5 16.4l-.2 2.1z" fill="#b2b2b2"/><g><path d="m81 397.8c0 6 .1 10.9-1.5 10.9-.2 0-1.7 0-2.1 0-1.9 0-2.2-5.6-2.2-10.9s.4-9.8 2-10.8c.2-.1 2-.1 2.2-.1 1.6-.1 1.6 4.8 1.6 10.9z" fill="url(#bz)"/><path d="m24.9 398c0 6 0 10.9 1.6 10.9h2.1c1.9 0 2.1-5.7 2.1-10.9 0-5.3-.5-9.8-2.1-10.8-.2-.1-2-.1-2.2-.1-1.6 0-1.5 4.9-1.5 10.9z" fill="url(#bA)"/><path d="m30.5 408.9h-3l-.1-21.8h3z" fill="url(#bB)"/><path d="m78.4 408.7h-3l-.1-21.9h3.1z" fill="url(#bC)"/><path d="m28.8 387s-.2-22.2 22-22.3c28.7-.1 25.3 22.2 25.3 22.2z" fill="url(#bD)"/><path d="m28.8 387h-6.3v5.2l6.3 1.7.2 66.3s.3 3.2 2.7 3.2c2.3.1 41.9-.2 43.4-.2s1.2-3.3 1.2-3.3l-.2-66.2 6.8-1.9v-5.2h-9.1z" fill="url(#bE)"/><path d="m66.2 369.4-8.2-.1.1-4.7 8.2.1z" fill="url(#bF)"/><path d="m73.8 386.8-7.7 21.7-26 .1-8.5-21.6z" fill="#d6d6d5"/><path d="m57.2 369.8.1-3.6 10.1.1v3.7z" fill="url(#bG)"/><path d="m30.8 395.3 6.7 17.4-.2 22.9-5.3 6.8z" fill="#d6d6d5"/><path d="m53.7 386.8c-13.6-.5-12.9 16.7-13.5 21.8l25.9-.1c-1-5.8-2-21.3-12.4-21.7z" fill="url(#bH)" opacity=".5"/><path d="m34.5 412.4c1.8 0 2.7 17.1 2.7 23.1l-5.2 6.9c0-6 .7-30 2.5-30z" fill="url(#bI)" opacity=".5"/><path d="m73.7 395.1-6.5 17.5-.5 23.5 7.4 7.1z" fill="#d6d6d5"/><path d="m70.5 412.1c-1.8 0-3.5 18.4-3.5 24.4l6.1 5.8c0-6-.8-30.2-2.6-30.2z" fill="url(#bJ)" opacity=".5"/><g><circle clip-path="url(#bK)" cx="31" cy="376.2" fill="url(#bL)" opacity=".25" r="22.7"/></g><path d="m45.8 369.4h-8.2v-4.6l8.2-.1z" fill="url(#bM)"/><path d="m36.9 370-.1-3.6 10.2-.1v3.6z" fill="url(#bN)"/><path d="m72.7 457c .1-.6 2-6.1 1.5-9.3-1-6.1-8.7-12.7-8.7-12.7-3.5-.1-24.8-.4-24.8-.4s1.2-5.1 1-6.5c-.9-5.7.7-10.8 2.5-12.1.9-.6 1.8-1 2.8-1.4 2-.8 4-1.6 5.9-2.4 1.6-.6 3.1-1.3 4.7-1.8 2.8-.9 5.6-1.9 8.5-2-6.7.1-10.1 0-16.7.1-1.3 0-9.3 0-9.3 0l-8.5-21.5-2.9.2 2.1 8.1 6.7 17.4-.2 22.9s-7.9 12-7.1 17.2c1.3 8.2 7 8.7 7 8.7h31.4s3.6-.2 4.1-4.5z" fill="url(#bO)" opacity=".25"/></g></g><path d="m150.9 351.1s-.4-2.2-1.4-6.2l2.1-.6c1.1 4.1 1.5 6.3 1.5 6.4zm-3.3-12.4c-.6-2-1.4-4-2.1-6.1l2-.8c.8 2.1 1.5 4.1 2.2 6.1zm-4.4-12c-.8-1.9-1.7-3.9-2.6-5.9l2-.9c.9 2 1.8 4 2.6 6zm-5.4-11.7c-.9-1.9-1.9-3.8-2.9-5.7l1.9-1c1 1.9 2 3.9 3 5.8zm-6-11.4c-.9-1.6-1.8-3.2-2.8-4.8-.2-.3-.3-.5-.5-.8l1.9-1.1c.1.3.3.5.4.7 1 1.6 1.9 3.2 2.8 4.8zm-6.1-11.4-.6-1.3c-.7-1.4-1.3-2.9-2.1-4.5l1.9-.9c.8 1.6 1.5 3.2 2.1 4.5l.6 1.3zm-5.6-11.6c-1-1.9-2-3.8-3.1-5.7l1.9-1.1c1.1 1.9 2.1 3.8 3.1 5.7zm-6.3-11.2c-1.1-1.8-2.2-3.6-3.4-5.4l1.8-1.2c1.2 1.9 2.4 3.7 3.5 5.5zm-7-10.9c-1.2-1.7-2.4-3.5-3.7-5.3l1.8-1.3c1.3 1.8 2.5 3.6 3.7 5.3zm-7.4-10.5c-1.1-1.7-2.3-3.6-3.4-5.6l1.9-1.1c1.1 1.9 2.2 3.8 3.4 5.4zm-6.6-11.3c-1-1.9-1.9-3.9-2.8-5.9l2-.9c.9 2 1.8 3.9 2.7 5.8zm-5.2-12c-.8-2.1-1.5-4.1-2.2-6.2l2.1-.7c.6 2 1.3 4 2.1 6.1zm-4-12.4c-.5-2.2-1-4.3-1.4-6.4l2.1-.4c.3 2 .8 4.1 1.3 6.2zm-2.1-13c-.1-.8-.1-1.6-.1-2.4 0-.3 0-.6 0-1 0-.8 0-1.9 0-3.1h2.2v3.1 1c0 .8 0 1.5.1 2.3zm2.2-13-2.2-.1c.1-2 .1-4.2.2-6.5l2.2.1c-.1 2.4-.1 4.6-.2 6.5zm.4-12.9-2.2-.1c.1-2.1.1-4.3.2-6.5l2.2.1c-.1 2.2-.1 4.4-.2 6.5zm.4-12.9-2.2-.1c.1-2.2.2-4.3.2-6.5l2.2.1c0 2.1-.1 4.3-.2 6.5zm.5-13-2.2-.1c.1-2.3.2-4.4.2-6.5l2.2.1c0 2.1-.1 4.3-.2 6.5zm.5-12.9-2.2-.1c.1-2 .1-3.7.2-5.1 0-.5.1-1 .1-1.4l2.1.2c0 .4-.1.9-.1 1.3 0 1.4 0 3.1-.1 5.1zm1.4-12.5-2.1-.6c.6-2.1 1.5-4.1 2.5-6.1l1.9 1c-.9 1.8-1.7 3.7-2.3 5.7zm5.8-11-1.7-1.3c1.2-1.6 2.7-3.3 4.3-5l1.6 1.5c-1.6 1.6-3 3.2-4.2 4.8zm8.8-9.2-1.4-1.6c1.5-1.3 3.2-2.7 5-4.2l1.3 1.7c-1.8 1.4-3.5 2.8-4.9 4.1zm10-8-1.3-1.7c1.8-1.4 3.7-2.7 5.2-3.8l1.3 1.7c-1.5 1.1-3.4 2.4-5.2 3.8zm10.5-7.6-1.3-1.7c2.1-1.5 3.7-2.7 5.2-3.8l1.3 1.7c-1.5 1.1-3.1 2.3-5.2 3.8zm10.4-7.8-1.3-1.7c1.8-1.4 3.4-2.8 5-4.1l1.4 1.6c-1.7 1.4-3.3 2.8-5.1 4.2zm9.8-8.5-1.5-1.5c1.6-1.5 3.1-3.1 4.4-4.6l1.6 1.4c-1.3 1.5-2.8 3.1-4.5 4.7zm8.7-9.8-1.7-1.3c1.3-1.7 2.5-3.5 3.5-5.3l1.9 1.1c-1.1 1.9-2.4 3.7-3.7 5.5zm6.7-11.3-2-.9c.9-1.9 1.6-3.9 2.2-5.9l2.1.6c-.7 2.1-1.4 4.2-2.3 6.2zm3.8-12.6-2.1-.4c.4-2 .6-4.1.8-6.3l2.2.1c-.2 2.3-.5 4.5-.9 6.6zm-1.3-13c0-.8-.1-1.5-.1-2.3l2.1-.2c.1.8.1 1.6.1 2.4z" fill="#fff"/><g><g><path d="m161.3 36.9h-1c-.5 0-.9-.4-.9-.9v-20.9c0-.5.4-.9.9-.9h1c .5 0 .9.4.9.9v20.9c0 .5-.4.9-.9.9z" fill="url(#bP)"/><path d="m161.4 24.2h-1.2c-.6 0-1.1-.5-1.1-1.1v-15.6c0-.6.5-1.1 1.1-1.1h1.2c.6 0 1.1.5 1.1 1.1v15.5c0 .7-.5 1.2-1.1 1.2z" fill="url(#bQ)"/><path d="m159.6 7.5v8.2c0 .2-.2.4-.4.4h-.4c-.2 0-.4-.2-.4-.4v-8.2c0-.2.2-.4.4-.4h.4c.2.1.4.2.4.4z" fill="url(#bR)"/><path d="m163 7.5v8.2c0 .2-.2.4-.4.4h-.4c-.2 0-.4-.2-.4-.4v-8.2c0-.2.2-.4.4-.4h.4c.3.1.4.2.4.4z" fill="url(#bS)"/><path d="m159.4-14.9h2.8v19.5h-2.8z" fill="url(#bT)"/><path d="m165.3 9.9h-2.2c-1.1 0-2-.9-2-2v-15.7c0-1.1.9-2 2-2h2.2c1.1 0 2 .9 2 2v15.7c0 1.1-.9 2-2 2z" fill="url(#bU)"/><path d="m158.2 9.9h-2.2c-1.1 0-2-.9-2-2v-17.4c0-1.1.9-2 2-2h2.2c1.1 0 2 .9 2 2v17.4c.1 1.1-.8 2-2 2z" fill="url(#bV)"/><path d="m148.5 3.1h23.2v6.9h-23.2z" fill="url(#bW)"/><path d="m166.6 4.4c0 5-1.4 9-6.3 9-5 0-6.5-4-6.5-9 0-2.3.8-3.7 2.1-4.8 1.1-.9 1.6-1.7 3.2-2.1.6-.2.5-2.1 1.2-2.1s.6 1.7 1.2 1.8c1.4.4 2.3 1.2 3.2 2 1.4 1.2 1.9 2.6 1.9 5.2z" fill="url(#bX)"/><path d="m172.3 9.9c-1.3-.1-3.3.9-3.3-2.3 0-5.2 2-5.5 2-9.1 0-2.1-.3-10.3-.3-10.3 0-1.2 1.1-1.2 2.4-1.1 1.3.1 2.3 0 2.2 1.2l-.6 19.4c0 1.3-1.1 2.3-2.4 2.2z" fill="url(#bY)"/><path d="m148.8 9.9c1.3-.1 3.3.9 3.3-2.3 0-5.2-2-5.5-2-9.1 0-2.1.3-10.3.3-10.3 0-1.2-1.1-1.2-2.4-1.1-1.3.1-2.3 0-2.2 1.2l.6 19.4c0 1.3 1.1 2.3 2.4 2.2z" fill="url(#bZ)"/><path d="m153.7 4.1s1.2.8 1 1.8c-.1 1.1-.9.8-.9 1 .1.2.2 6.5 6.6 6.4 6.1-.1 6-7.1 6-7.1s-1.3 0-1.2-1.2c.2-1.1 1.2-1.3 1.2-1.3l-.2-1.5s-1.4.9-1.7 1.4-1.3 1.9-.6 3.3c.8 1.4-.2 2.4-.7 3-.5.7-4.5.9-5.8.3s-2.1-1.8-1.9-2.7.6-3.3 0-3.7-1.5-1.5-1.5-1.5l-.2.9z" fill="url(#b0)"/></g></g><g><g><path d="m143.7 323.8-.7.4c-.4.2-1 .1-1.2-.4l-8.9-17.1c-.2-.4-.1-1 .4-1.2l.7-.4c.4-.2 1-.1 1.2.4l8.9 17.1c.2.4.1.9-.4 1.2z" fill="url(#b1)"/><path d="m138.3 313.2-.8.4c-.5.3-1.2.1-1.5-.5l-6.6-12.7c-.3-.5-.1-1.2.5-1.5l.8-.4c.5-.3 1.2-.1 1.5.5l6.6 12.7c.3.6 0 1.2-.5 1.5z" fill="url(#b2)"/><path d="m129.8 300.3 3.5 6.7c.1.2 0 .4-.1.5l-.3.1c-.2.1-.4 0-.5-.1l-3.5-6.7c-.1-.2 0-.4.1-.5l.3-.1c.2-.2.4-.1.5.1z" fill="url(#b3)"/><path d="m132.6 298.8 3.5 6.7c.1.2 0 .4-.1.5l-.3.1c-.2.1-.4 0-.5-.1l-3.5-6.7c-.1-.2 0-.4.1-.5l.3-.1c.2-.1.4-.1.5.1z" fill="url(#b4)"/><path d="m121.2 280.7-.7.4c-.4.2-1 .1-1.2-.4l-8.9-17.1c-.2-.4-.1-1 .4-1.2l.7-.4c.4-.2 1-.1 1.2.4l8.9 17.1c.3.4.1.9-.4 1.2z" fill="url(#b5)"/><path d="m119.1 280.4-.2.1c-.1 0-.2 0-.2-.1l-2-3.9c0-.1 0-.2.1-.2l.2-.1c.2-.1.5 0 .6.2l1.8 3.4c0 .2-.1.5-.3.6z" fill="url(#b6)"/><path d="m121.5 279.2.2-.1c.1 0 .1-.2.1-.2l-2-3.9c0-.1-.2-.1-.2-.1l-.2.1c-.2.1-.3.4-.2.6l1.8 3.4c0 .2.2.3.5.2z" fill="url(#b7)"/><path d="m130.6 296.7-2.3 1.2-8.4-16.1 2.3-1.2z" fill="url(#b8)"/><path d="m135.3 299.8-1.5.8c-1 .5-2.2.1-2.7-.9l-6.6-12.7c-.5-1-.1-2.2.9-2.7l1.5-.8c1-.5 2.2-.1 2.7.9l6.6 12.7c.5 1 .1 2.2-.9 2.7z" fill="url(#b9)"/><path d="m130.5 301.9-3.6 1.9c-.4.2-1 .1-1.2-.4l-8.4-15.7c-.2-.4-.1-1 .4-1.2l3.6-1.9c.4-.2 1-.1 1.2.4l8.4 15.7c.2.4 0 .9-.4 1.2z" fill="url(#ca)"/><path d="m140.7 297-13.7 7.2-3-5.7 13.8-7.1z" fill="url(#cb)"/><circle cx="131.2" cy="276" fill="url(#cc)" r="2.7"/><circle cx="106.3" cy="312" fill="url(#cd)" r="2.7"/><path d="m141.2 296.7c-1.1.5-2.4 2.1-3.7-.5-2.2-4.3-.7-5.4-2.3-8.3-.9-1.7-4.6-8.4-4.6-8.4-.5-1 .4-1.4 1.5-2 1.1-.5 1.9-1 2.4.1l7.8 16.2c.5 1.2 0 2.4-1.1 2.9z" fill="url(#ce)"/><path d="m126.5 300.9c-.6-1-.7-3.1-3.3-1.8-4.3 2.2-3.7 4-6.7 5.4-1.8.8-8.7 4-8.7 4-1 .6-.5 1.4.1 2.5.6 1 1 1.9 2 1.3l15.8-8.5c1-.5 1.3-1.8.8-2.9z" fill="url(#cf)"/><path d="m130.2 275.2c-.3-.5-.8-.7-1.1-.6s-18 9.4-18.1 9.4c-.4.2-.5.8-.2 1.3s.8.8 1.2.6c0 0 18.1-9.4 18.1-9.4.3-.2.4-.8.1-1.3z" fill="url(#cg)"/><path d="m115 285.6s4.3-1.3 2.2-4.7l-3.7 1.9z" fill="url(#ch)"/><path d="m128.2 278.7s-3.5 2.8-5.1-.9l3.7-1.9z" fill="url(#ci)"/><path d="m122.7 279.3c.7 1.3.3 2.9-.8 3.5-1.2.6-2.7 0-3.4-1.3s-.3-2.9.8-3.5c1.2-.7 2.7-.1 3.4 1.3z" fill="url(#cj)"/><path d="m123.2 274.8-8.7 4.5c-.2.1-.4 0-.5-.1l-.1-.3c-.1-.2 0-.4.1-.5l8.7-4.5c.2-.1.4 0 .5.1l.1.3c.2.2.1.4-.1.5z" fill="url(#ck)"/><path d="m132.7 293.5c2.5 3.8 3.5 7.7-.3 10.2s-7.1.2-9.7-3.6c-1.2-1.8-1.3-3.3-.8-4.8.4-1.3.3-2.1 1.4-3.3.4-.4-.7-1.8-.1-2.2.5-.4 1.3 1 1.8.8 1.3-.4 2.4-.2 3.5-.1 1.8.2 2.9 1 4.2 3z" fill="url(#cl)"/><path d="m122.6 299.9s1.3 0 1.7.9-.3 1.1-.1 1.3c.2.1 3.5 5 8.4 1.6 4.7-3.2 1-8.6 1-8.6s-1 .7-1.5-.3.3-1.7.3-1.7l-.9-1.1s-.6 1.4-.6 2c0 .5-.1 2.1 1.2 2.8s1.1 2 1 2.7c-.1.8-3.1 3-4.4 3.2s-2.5-.3-2.8-1.1-1.2-2.8-1.9-2.8-2.2-.3-2.2-.3l.3.8z" fill="url(#cm)"/></g></g><g><g><path d="m83 197h-.8c-.5 0-.9-.4-.9-.9l.6-19.3c0-.5.4-.9.9-.9h.8c.5 0 .9.4.9.9l-.6 19.3c0 .5-.4.9-.9.9z" fill="url(#cn)"/><path d="m83.5 185.2h-1c-.6 0-1.1-.5-1.1-1.2l.5-14.3c0-.6.5-1.1 1.2-1.1h1c .6 0 1.1.5 1.1 1.2l-.5 14.3c-.1.6-.6 1.1-1.2 1.1z" fill="url(#co)"/><path d="m82.4 169.7-.3 7.5c0 .2-.2.3-.4.3h-.3c-.2 0-.3-.2-.3-.4l.3-7.5c0-.2.2-.3.4-.3h.3c.2 0 .3.2.3.4z" fill="url(#cp)"/><path d="m85.6 169.8-.3 7.5c0 .2-.2.3-.4.3h-.3c-.2 0-.3-.2-.3-.4l.3-7.5c0-.2.2-.3.4-.3h.3c.2 0 .3.2.3.4z" fill="url(#cq)"/><path d="m84.6 148.4h-.8c-.5 0-.9-.4-.9-.9l.6-19.3c0-.5.4-.9.9-.9h.8c.5 0 .9.4.9.9l-.6 19.3c.1.5-.4.9-.9.9z" fill="url(#cr)"/><path d="m82.9 147.1h-.3c-.1 0-.2-.1-.2-.2l.1-4.4c0-.1.1-.2.2-.2h.3c.3 0 .5.2.5.5l-.1 3.8c0 .3-.2.5-.5.5z" fill="url(#cs)"/><path d="m85.6 147.2h.3c.1 0 .2-.1.2-.2l.1-4.4c0-.1-.1-.2-.2-.2h-.3c-.3 0-.5.2-.5.5l-.1 3.8c0 .3.2.5.5.5z" fill="url(#ct)"/><path d="m84.9 167-2.6-.1.6-18.1 2.6.1z" fill="url(#cu)"/><path d="m87.6 169.2-1.7-.1c-1.1 0-2-1-2-2.1l.4-11.4c0-1.1 1-2 2.1-2l1.7.1c1.1 0 2 1 2 2.1l-.4 11.4c-.1 1.1-1 2-2.1 2z" fill="url(#cv)"/><path d="m82.3 171.4-4-.1c-.5 0-.9-.4-.8-.9l.4-17.8c0-.5.4-.9.9-.8l4 .1c.5 0 .9.4.8.9l-.4 17.8c0 .5-.4.8-.9.8z" fill="url(#cw)"/><path d="m86 172-14.2-.5.2-6.4 14.2.5z" fill="url(#cx)"/><circle cx="72" cy="148.4" fill="url(#cy)" r="2.7"/><path d="m72 171.5c1.2 0 3.1.9 3.2-2 .2-4.8-1.7-5.1-1.6-8.5.1-2 .6-9.6.6-9.6 0-1.2-1-1.1-2.2-1.1-1.2 0-2.1 0-2.1 1.1v18c-.1 1.2.9 2.1 2.1 2.1z" fill="url(#cz)"/><g><circle cx="110" cy="171" fill="url(#cA)" r="2.7"/><path d="m87 169.8c.1-1.2-.8-3.1 2.2-3.1 4.9.1 5.1 2 8.4 2 2 0 9.6-.1 9.6-.1 1.2.1 1.1 1.1 1 2.3-.1 1.2-.1 2.1-1.2 2.1l-18-.8c-1.1-.2-2-1.2-2-2.4z" fill="url(#cB)"/></g><path d="m95.1 148c0-.6-.3-1-.7-1.1s-20.3-.7-20.4-.7c-.4 0-.8.4-.8 1s .3 1.1.7 1.1c0 0 20.4.7 20.4.7.5.1.8-.4.8-1z" fill="url(#cC)"/><path d="m76.8 149.6s4.4 1 4.2-3.1l-4.2-.1z" fill="url(#cD)"/><path d="m91.7 150.1s-4.4.7-4-3.3l4.2.1z" fill="url(#cE)"/><path d="m86.6 147.9c-.1 1.5-1.1 2.7-2.5 2.7-1.3 0-2.3-1.3-2.3-2.8.1-1.5 1.1-2.7 2.5-2.7 1.4.1 2.4 1.3 2.3 2.8z" fill="url(#cF)"/><path d="m89.3 144.2-9.8-.3c-.2 0-.3-.2-.3-.4v-.3c0-.2.2-.3.4-.3l9.8.3c.2 0 .3.2.3.4v.3c-.1.2-.2.4-.4.3z" fill="url(#cG)"/><path d="m88.3 165.3c.3 4.6-.7 8.4-5.3 8.7s-6.3-3.3-6.7-7.9c-.2-2.1.5-3.5 1.7-4.6.9-.9 1.3-1.7 2.8-2.2.6-.2.3-1.9 1-2 .6 0 .7 1.5 1.2 1.6 1.3.2 2.2 1 3.1 1.6 1.5 1.1 2 2.3 2.2 4.8z" fill="url(#cH)"/><path d="m76.3 165.8s1.1.7 1.1 1.6-.8.8-.7 1 .6 6 6.5 5.5c5.7-.5 5.1-7 5.1-7s-1.2.1-1.2-1c .1-1.1 1.1-1.3 1.1-1.3l-.2-1.4s-1.2.9-1.5 1.4c-.2.4-1.1 1.8-.3 3.1s0 2.3-.4 2.8c-.5.7-4.1 1.1-5.4.6-1.2-.5-2-1.5-1.9-2.4.1-.8.4-3.1-.2-3.4s-1.8-1.4-1.8-1.4l-.1.8z" fill="url(#cI)"/></g></g><g><g><path d="m161.3 417.9-.8.1c-.5.1-1-.3-1-.8l-2.6-19.1c-.1-.5.3-1 .8-1l .8-.1c.5-.1 1 .3 1 .8l2.6 19.1c.1.5-.3 1-.8 1z" fill="url(#cJ)"/><path d="m159.8 406.2-.9.1c-.6.1-1.2-.4-1.3-1l-1.9-14.2c-.1-.6.4-1.2 1-1.3l.9-.1c.6-.1 1.2.4 1.3 1l1.9 14.2c.1.6-.4 1.2-1 1.3z" fill="url(#cK)"/><path d="m156.2 391.1 1 7.5c0 .2-.1.4-.3.4h-.3c-.2 0-.4-.1-.4-.3l-1-7.5c0-.2.1-.4.3-.4h.3c.2 0 .3.1.4.3z" fill="url(#cL)"/><path d="m159.4 390.7 1 7.5c0 .2-.1.4-.3.4h-.3c-.2 0-.4-.1-.4-.3l-1-7.5c0-.2.1-.4.3-.4h.3c.1-.1.3.1.4.3z" fill="url(#cM)"/><path d="m154.8 369.8-.8.1c-.5.1-1-.3-1-.8l-2.6-19.1c-.1-.5.3-1 .8-1l .8-.1c.5-.1 1 .3 1 .8l2.6 19.1c.1.4-.3.9-.8 1z" fill="url(#cN)"/><path d="m152.9 368.8h-.3c-.1 0-.2-.1-.2-.2l-.6-4.4c0-.1.1-.2.2-.2h.3c.3 0 .5.1.5.4l.5 3.8c0 .3-.1.5-.4.6z" fill="url(#cO)"/><path d="m155.5 368.4h.3c.1 0 .2-.1.2-.2l-.6-4.4c0-.1-.1-.2-.2-.2h-.3c-.3 0-.4.3-.4.5l.5 3.8c0 .4.3.6.5.5z" fill="url(#cP)"/><path d="m158.2 388.1-2.6.3-2.4-18 2.6-.3z" fill="url(#cQ)"/><path d="m161.5 392.6-1.7.2c-1.1.1-2.1-.6-2.3-1.7l-1.9-14.2c-.1-1.1.6-2.1 1.7-2.3l1.7-.2c1.1-.1 2.1.6 2.3 1.7l1.9 14.2c.2 1.1-.6 2.1-1.7 2.3z" fill="url(#cR)"/><path d="m155.1 393.5-1.7.2c-1.1.1-2.1-.6-2.3-1.7l-2.1-15.8c-.1-1.1.6-2.1 1.7-2.3l1.7-.2c1.1-.1 2.1.6 2.3 1.7l2.1 15.8c.2 1.1-.6 2.1-1.7 2.3z" fill="url(#cS)"/><path d="m167.6 391.8-21.4 2.9-.8-6.4 21.3-2.9z" fill="url(#cT)"/><circle cx="165.8" cy="368.7" fill="url(#cU)" r="2.7"/><circle cx="142.5" cy="371.9" fill="url(#cV)" r="2.7"/><path d="m168.1 391.7c-1.2.1-3 1.2-3.4-1.7-.6-4.8 1.2-5.3.7-8.6-.3-1.9-1.5-9.4-1.5-9.4-.1-1.2.9-1.2 2.1-1.3 1.2-.1 2.1-.3 2.2.9l1.8 17.9c.3 1-.6 2.1-1.9 2.2z" fill="url(#cW)"/><path d="m146.5 394.6c1.2-.2 3.2.4 2.8-2.5-.6-4.8-2.6-4.8-3-8.1-.2-2-1-9.5-1-9.5-.2-1.1-1.2-.9-2.4-.7-1.2.2-2.1.3-1.9 1.4l3 17.7c.2 1.1 1.3 1.9 2.5 1.7z" fill="url(#cX)"/><path d="m165.1 367.7c-.1-.6-.5-1-.9-.9s-20.2 2.7-20.2 2.7c-.4.1-.7.6-.6 1.1.1.6.5 1 .9.9 0 0 20.2-2.7 20.2-2.7.4-.1.7-.6.6-1.1z" fill="url(#cY)"/><path d="m147.3 372.2s4.5.2 3.7-3.7l-4.1.6z" fill="url(#cZ)"/><path d="m162.1 370.2s-4.2 1.4-4.5-2.6l4.1-.6z" fill="url(#c0)"/><path d="m156.7 369c .2 1.5-.7 2.9-2 3-1.3.2-2.5-.9-2.7-2.4s.7-2.9 2-3c1.3-.2 2.5.9 2.7 2.4z" fill="url(#c1)"/><path d="m158.7 364.9-9.7 1.3c-.2 0-.4-.1-.4-.3v-.3c0-.2.1-.4.3-.4l9.7-1.3c.2 0 .4.1.4.3v.3c0 .2-.1.4-.3.4z" fill="url(#c2)"/><path d="m51.9 334.4 103.5 47.7-4.5 10.6-100.5-.7" fill="url(#c3)" opacity=".5"/><path d="m157.5 382.8c4.2 1.9 7.1 4.6 5.2 8.8s-5.9 4-10.1 2.2c-2-.9-2.8-2.1-3.3-3.6-.4-1.3-.8-2-.6-3.5.1-.6-1.6-1.2-1.3-1.8s1.6.1 2-.3c.8-1 1.9-1.5 2.9-2 1.6-.9 2.9-.8 5.2.2z" fill="url(#c4)"/><path d="m152.3 393.6s1.1-.7 2-.2c.8.5.4 1.1.6 1.1s5.6 2.3 7.9-3.2c2.2-5.2-3.7-7.8-3.7-7.8s-.5 1.1-1.4.5-.7-1.6-.7-1.6l-1.3-.4s.2 1.5.6 2c .3.4 1.1 1.8 2.6 1.7s2 1.1 2.3 1.7c.4.7-1 4.2-2 5-1 .9-2.3 1.1-3 .6s-2.5-1.8-3.1-1.4-2 .9-2 .9l.7.5z" fill="url(#c5)"/></g></g></g></svg>