<svg enable-background="new 0 0 566.9 258.6" viewBox="0 0 566.9 258.6" xmlns="http://www.w3.org/2000/svg" xmlns:xlink="http://www.w3.org/1999/xlink"><path d="m235.4.1c-147-3.4-233.5 104.6-234.1 133.1v9.2h557.6v-9.2l-120 .6s-56.8-130.3-203.5-133.7z" fill="url(#a)"/><path d="m1.3 138.4h558v118.5h-558z" fill="url(#b)"/><path d="m1.3 133.2h558v5.2h-558z" fill="url(#c)"/><path d="m565.7 234.5-14.5 23.4" fill="url(#e)"/><path d="m544.7 244.8h27.6v2.7h-27.6z" fill="#fff" transform="matrix(.5292 -.8485 .8485 .5292 54.0592 589.7686)"/><path d="m543.8 234.5-14.6 23.4" fill="url(#f)"/><path d="m522.7 244.8h27.6v2.7h-27.6z" fill="#fff" transform="matrix(.5292 -.8485 .8485 .5292 43.7247 571.1442)"/><path d="m303.1 234.5-14.6 23.4" fill="url(#g)"/><path d="m282 244.8h27.6v2.7h-27.6z" fill="#fff" transform="matrix(.5292 -.8485 .8485 .5292 -69.6091 366.8992)"/><path d="m281.1 234.5-14.5 23.4" fill="url(#h)"/><path d="m260.1 244.8h27.6v2.7h-27.6z" fill="#fff" transform="matrix(.5292 -.8485 .8485 .5292 -79.944 348.274)"/><path d="m259.2 234.5-14.6 23.4" fill="url(#i)"/><path d="m238.1 244.8h27.6v2.7h-27.6z" fill="#fff" transform="matrix(.5292 -.8485 .8485 .5292 -90.2788 329.6492)"/><path d="m237.2 234.5-14.5 23.4" fill="url(#j)"/><path d="m216.2 244.8h27.6v2.7h-27.6z" fill="#fff" transform="matrix(.5292 -.8485 .8485 .5292 -100.6133 311.0247)"/><path d="m215.1 234.5-14.5 23.4" fill="url(#k)"/><path d="m194.1 244.8h27.6v2.7h-27.6z" fill="#fff" transform="matrix(.5292 -.8485 .8485 .5292 -111.0238 292.2635)"/><path d="m193.2 234.5-14.6 23.4" fill="url(#l)"/><path d="m172.1 244.8h27.6v2.7h-27.6z" fill="#fff" transform="matrix(.5292 -.8485 .8485 .5292 -121.3586 273.6386)"/><path d="m171.2 234.5-14.5 23.4" fill="url(#m)"/><path d="m150.2 244.8h27.6v2.7h-27.6z" fill="#fff" transform="matrix(.5292 -.8485 .8485 .5292 -131.6931 255.0142)"/><path d="m434.7 234.5-14.6 23.4" fill="url(#n)"/><path d="m413.6 244.8h27.6v2.7h-27.6z" fill="#fff" transform="matrix(.5292 -.8485 .8485 .5292 -7.6537 478.5524)"/><path d="m412.7 234.5-14.6 23.4" fill="url(#o)"/><path d="m391.7 244.8h27.6v2.7h-27.6z" fill="#fff" transform="matrix(.5292 -.8485 .8485 .5292 -17.988 459.9283)"/><path d="m390.8 234.5-14.6 23.4" fill="url(#p)"/><path d="m369.7 244.8h27.6v2.7h-27.6z" fill="#fff" transform="matrix(.5292 -.8485 .8485 .5292 -28.323 441.3032)"/><path d="m368.8 234.5-14.6 23.4" fill="url(#q)"/><path d="m347.8 244.8h27.6v2.7h-27.6z" fill="#fff" transform="matrix(.5292 -.8485 .8485 .5292 -38.6577 422.6783)"/><path d="m346.9 234.5-14.6 23.4" fill="url(#r)"/><path d="m325.8 244.8h27.6v2.7h-27.6z" fill="#fff" transform="matrix(.5292 -.8485 .8485 .5292 -48.9923 404.0539)"/><path d="m324.9 234.5-14.6 23.4" fill="url(#s)"/><path d="m303.9 244.8h27.6v2.7h-27.6z" fill="#fff" transform="matrix(.5292 -.8485 .8485 .5292 -59.3268 385.4294)"/><path d="m522.3 234.5-14.6 23.4" fill="url(#t)"/><path d="m501.2 244.8h27.6v2.7h-27.6z" fill="#fff" transform="matrix(.5292 -.8485 .8485 .5292 33.5844 552.8698)"/><path d="m500.3 234.5-14.6 23.4" fill="url(#u)"/><path d="m479.2 244.8h27.6v2.7h-27.6z" fill="#fff" transform="matrix(.5292 -.8485 .8485 .5292 23.2494 534.2446)"/><path d="m478.4 234.5-14.6 23.4" fill="url(#v)"/><path d="m457.3 244.8h27.6v2.7h-27.6z" fill="#fff" transform="matrix(.5292 -.8485 .8485 .5292 12.9147 515.6198)"/><path d="m456.4 234.5-14.6 23.4" fill="url(#w)"/><path d="m435.3 244.8h27.6v2.7h-27.6z" fill="#fff" transform="matrix(.5292 -.8485 .8485 .5292 2.5801 496.9953)"/><path d="m148.7 234.5-14.6 23.4" fill="url(#x)"/><path d="m127.6 244.8h27.6v2.7h-27.6z" fill="#fff" transform="matrix(.5292 -.8485 .8485 .5292 -142.3026 235.8943)"/><path d="m39.6 234.5-14.6 23.4" fill="url(#y)"/><path d="m18.5 244.8h27.6v2.7h-27.6z" fill="#fff" transform="matrix(.5292 -.8485 .8485 .5292 -193.6809 143.3026)"/><path d="m17.6 234.5-14.6 23.4" fill="url(#z)"/><path d="m-3.4 244.8h27.6v2.7h-27.6z" fill="#fff" transform="matrix(.5292 -.8485 .8485 .5292 -204.0153 124.6785)"/><path d="m127.2 234.5-14.6 23.4" fill="url(#A)"/><path d="m106.1 244.8h27.6v2.7h-27.6z" fill="#fff" transform="matrix(.5292 -.8485 .8485 .5292 -152.4429 217.6199)"/><path d="m105.2 234.5-14.6 23.4" fill="url(#B)"/><path d="m84.1 244.8h27.6v2.7h-27.6z" fill="#fff" transform="matrix(.5292 -.8485 .8485 .5292 -162.7778 198.9947)"/><path d="m83.3 234.5-14.6 23.4" fill="url(#C)"/><path d="m62.2 244.8h27.6v2.7h-27.6z" fill="#fff" transform="matrix(.5292 -.8485 .8485 .5292 -173.1126 180.3699)"/><path d="m61.3 234.5-14.6 23.4" fill="url(#D)"/><path d="m40.2 244.8h27.6v2.7h-27.6z" fill="#fff" transform="matrix(.5292 -.8485 .8485 .5292 -183.4471 161.7454)"/><path d="m558.5 234.9h-558.5" fill="url(#E)"/><path d="m0 233.6h558.5v2.7h-558.5z" fill="#fff"/><path d="m66.2 34.3h215v148.9h-215z" fill="none"/><path d="m274 218.2v4.8l4.7-3.4 46.9-30.9 4.8-3-4.8-2.7s-45.8-30-46.2-30.3l-5.3-3.6v4.6z" fill="url(#F)"/><path d="m272.3 226.3v-8.1l.1-72.4 8 5.3c.4.2 41.3 27 46.2 30.3l7.3 4.1-7.3 4.5-46.9 30.9zm3.5-74.2-.1 67.4 2-1.5 47-31 2.4-1.5-2.4-1.4c-15.7-10.3-45.6-29.9-46.2-30.3z" fill="#fff"/><path d="m257.2 156.1h7.9v2.5c0 1 0 1.6-.1 1.9-.1.5-.4.8-.8 1.1s-.9.4-1.5.4c-.5 0-.9-.1-1.2-.3s-.6-.4-.8-.7-.3-.6-.4-.8c-.1-.4-.1-.9-.1-1.6v-1h-3zm6.6 1.6h-2.2v.9c0 .6 0 1 .1 1.3.1.2.2.4.4.5s.4.2.6.2c.3 0 .5-.1.7-.2.2-.2.3-.4.4-.6 0-.2.1-.6.1-1.1v-1z" fill="#fff"/><path d="m257.2 163.4h7.9v3.3c0 .8-.1 1.5-.2 1.8-.1.4-.4.7-.8.9s-.8.3-1.2.3c-.6 0-1.1-.2-1.5-.5-.4-.4-.6-.9-.7-1.6-.2.3-.4.6-.7.8-.2.2-.7.5-1.3.9l-1.5 1v-1.9l1.7-1.1c.6-.4 1-.7 1.2-.8s.3-.3.3-.5c.1-.2.1-.4.1-.8v-.2h-3.3zm4.6 1.6v1.2c0 .8 0 1.2.1 1.4s.2.3.3.4c.2.1.4.2.6.2.3 0 .5-.1.6-.2.2-.1.3-.3.3-.6 0-.1 0-.5 0-1.2v-1.2z" fill="#fff"/><path d="m257.2 171.3h7.9v1.6h-7.9z" fill="#fff"/><path d="m261.1 174c .8 0 1.5.1 2 .4.4.2.8.4 1.1.7s.5.7.7 1c .2.5.3 1.1.3 1.7 0 1.2-.4 2.1-1.1 2.8s-1.7 1-3 1-2.3-.3-3-1-1.1-1.6-1.1-2.8.4-2.1 1.1-2.8c.7-.6 1.7-1 3-1zm0 1.7c-.9 0-1.6.2-2 .6-.5.4-.7.9-.7 1.6 0 .6.2 1.2.7 1.6.4.4 1.1.6 2 .6s1.6-.2 2-.6.7-.9.7-1.6-.2-1.2-.7-1.6c-.4-.4-1.1-.6-2-.6z" fill="#fff"/><path d="m257.2 182.9h7.9v3.3c0 .8-.1 1.5-.2 1.8-.1.4-.4.7-.8.9s-.8.3-1.2.3c-.6 0-1.1-.2-1.5-.5s-.6-.9-.7-1.6c-.2.3-.4.6-.7.9-.2.2-.7.5-1.3.9l-1.5 1v-1.9l1.7-1.2c.6-.4 1-.7 1.2-.8.2-.2.3-.3.3-.5.1-.2.1-.4.1-.8v-.3h-3.3zm4.5 1.6v1.2c0 .8 0 1.2.1 1.4s.2.3.3.5c.2.1.4.2.6.2.3 0 .5-.1.6-.2.2-.1.3-.3.3-.6 0-.1 0-.5 0-1.2v-1.2h-1.9z" fill="#fff"/><path d="m257.2 190.8h7.9v1.6h-7.9z" fill="#fff"/><path d="m265 193.9v2.9c0 .7-.1 1.2-.2 1.5-.1.5-.4.9-.7 1.2-.4.3-.8.6-1.3.7-.5.2-1.1.3-1.9.3-.7 0-1.2-.1-1.7-.2-.6-.2-1-.5-1.4-.8-.3-.3-.5-.7-.6-1.1-.1-.3-.2-.8-.2-1.4v-3zm-1.3 1.6h-5.2v1.2c0 .4 0 .8.1 1 .1.3.2.5.3.6.2.2.4.3.8.4.3.1.8.2 1.4.2s1.1-.1 1.4-.2.6-.3.8-.4c.2-.2.3-.4.4-.7 0-.2.1-.7.1-1.3v-.8z" fill="#fff"/><path d="m257.1 208.9v-1.7l1.8-.7v-3.1l-1.8-.7v-1.7l7.8 3.1v1.7zm3.2-2.9 2.9-1.1-2.9-1.1z" fill="#fff"/><path d="m265 209.7v2.9c0 .7-.1 1.2-.1 1.5-.1.5-.4.9-.7 1.2s-.8.6-1.3.8-1.1.3-1.9.3c-.7 0-1.2-.1-1.7-.2-.6-.2-1-.5-1.4-.9-.3-.3-.5-.6-.6-1.1-.1-.4-.2-.8-.2-1.4v-3zm-1.3 1.6h-5.2v1.2c0 .4 0 .8.1 1 .1.3.2.5.3.6.1.2.4.3.7.4s.8.2 1.4.2 1.1-.1 1.4-.2.6-.3.8-.4c.2-.2.3-.4.4-.7 0-.2.1-.7.1-1.3z" fill="#fff"/><path d="m296.3 195.5c0-1.1-.3-2.2-.9-3.1l2.2-1.9.8.2.7 1.7c.1.2.3.3.5.3s.4-.2.3-.4l-.2-4.2c0-.2-.2-.4-.4-.4s-.4.1-.5.3l-.5 1.9c-.2 0-.4-.1-.5-.1l.1-8.1 1.6.6h.2c.1 0 .2 0 .3-.1.2-.2.4-.3.5-.3s0 0 .1.1v2.2c0 .2.2.4.4.4s.4-.2.4-.4v-2.2-.1c-.2-.5-.5-.7-.8-.8-.1 0-.1 0-.2 0-.4 0-.7.2-.9.4-.2-.1-1.5-.5-2.6-1l-.5-.2c-.4-.1-.8-.3-1-.4.5-.8.8-1.8.8-2.9 0-3.1-2.5-5.6-5.5-5.6-3.1 0-5.5 2.5-5.5 5.6s2.5 5.5 5.5 5.5c1.7 0 3.2-.8 4.2-1.9l.6.2-6.3 6.3v.1l-1 .3c0-.2-.2-.4-.4-.4s-.4.2-.4.4v1.2c0 .2.2.4.4.4s.4-.2.4-.4v-.3l1-.3.3 2.1c-2.5.5-4.4 2.8-4.4 5.4 0 3.1 2.5 5.6 5.5 5.6 3.2-.2 5.7-2.6 5.7-5.7zm-5.6-13.9c-2.6 0-4.7-2.1-4.7-4.7s2.1-4.7 4.7-4.7 4.7 2.1 4.7 4.7c0 .9-.3 1.8-.8 2.6-1.9-.7-3.5-2.8-3.5-2.8-.1-.1-.2-.2-.4-.2-.1 0-.2 0-.3.1-.2.1-.2.4-.1.6.1.1 1.6 2.2 3.7 3.1-.8.7-2 1.3-3.3 1.3zm.5 5.8.4-.1v.1.2c-.1-.1-.3-.2-.4-.2zm1.2-.1v-1.1c0-.2-.2-.4-.4-.4s-.4.2-.4.4v.1l-.6.2 5.5-5.5c.2.1.4.1.6.2 0 .5-.1 6.5-.1 8.1-1-.3-3.1-1.1-4.8-1.7.1.1.2-.1.2-.3zm-2.3.7 6.5 2.3c-.4.3-1.1.9-1.8 1.5-1-1.1-2.5-1.8-4.1-1.8-.1 0-.2 0-.3 0-.1-.9-.2-1.6-.3-2zm .6 2.8c1.3 0 2.6.6 3.4 1.5-1.3 1.1-2.5 2.1-3 2.5-.1-.6-.4-2.4-.6-4zm-4.7 4.7c0-2.2 1.6-4.1 3.6-4.6l.7 4.8c0 .2.1.3.3.4.1.1.3 0 .4-.1l3.6-3c .5.7.7 1.6.7 2.5 0 2.6-2.1 4.7-4.7 4.7-2.5 0-4.6-2.1-4.6-4.7z" fill="#fff"/><path d="m246.8 62.1h2.1v71.7h-2.1z" fill="#d0d1d2"/><path d="m264.6 62.1c.8 0 1.3-.5 1.3-1.1 0-.5-.4-1-.6-1.3s-16-24.2-16-24.2-.6-1-1.6-1c-.7 0-1.4 1-1.4 1s-15.4 23.6-15.6 23.9c-.2.2-.8 1-.8 1.6s.5 1.2 1.3 1.2c.3-.1 33.4-.1 33.4-.1z" fill="url(#G)"/><path d="m231.3 62.6c-1.1 0-1.8-.8-1.8-1.6 0-.6.4-1.2.8-1.7l.1-.1c.1-.2 14.9-22.9 15.6-23.9.1-.1.8-1.2 1.8-1.2 1.2 0 1.9 1.2 1.9 1.3.1.2 15.7 23.8 16 24.1.2.3.6.9.6 1.5 0 .9-.7 1.6-1.7 1.6 0 0-33.1 0-33.3 0zm16.4-27.7c-.4 0-.9.6-1 .8-.2.2-15.4 23.6-15.6 23.9 0 0-.1.1-.1.2-.2.2-.6.8-.6 1.2s.3.7.9.7h33.3c.6 0 .8-.4.8-.7s-.3-.8-.5-1c-.2-.3-15.4-23.2-16-24.2 0-.1-.5-.9-1.2-.9z" fill="#fff"/><path d="m265.3 71.4c0 .8-.6 1.4-1.4 1.4h-32.1c-.8 0-1.4-.6-1.4-1.4v-5.7c0-.8.6-1.4 1.4-1.4h32.1c.8 0 1.4.6 1.4 1.4z" fill="#fff"/><path d="m232.7 70.4v-3.9h1.3c.5 0 .8 0 .9.1.2.1.4.2.6.4s.2.5.2.8c0 .2 0 .5-.1.6-.1.2-.2.3-.3.4s-.3.2-.4.2c-.2 0-.5.1-.8.1h-.5v1.5h-.9zm.8-3.3v1.1h.4c.3 0 .5 0 .6-.1.1 0 .2-.1.2-.2.1-.1.1-.2.1-.3s0-.3-.1-.3c-.1-.1-.2-.2-.3-.2s-.3 0-.6 0z" fill="#231f20"/><path d="m236.4 70.4v-3.9h1.7c.4 0 .7 0 .9.1s.3.2.5.4c.1.2.2.4.2.6 0 .3-.1.5-.3.7s-.4.3-.8.4c.2.1.3.2.4.3s.3.3.4.6l.5.8h-1l-.6-.9c-.2-.3-.3-.5-.4-.6s-.2-.1-.2-.2c-.1 0-.2 0-.4 0h-.2v1.6h-.7zm.8-2.3h.6.7c.1 0 .2-.1.2-.2.1-.1.1-.2.1-.3s0-.2-.1-.3-.2-.1-.3-.1-.3 0-.6 0h-.6z" fill="#231f20"/><path d="m240.4 70.4v-3.9h.8v3.9z" fill="#231f20"/><path d="m241.8 68.4c0-.4.1-.7.2-1 .1-.2.2-.4.4-.5.2-.2.3-.3.5-.4s.5-.2.9-.2c.6 0 1 .2 1.4.5.4.4.5.9.5 1.5s-.2 1.1-.5 1.5-.8.5-1.4.5-1.1-.2-1.4-.5c-.5-.2-.6-.7-.6-1.4zm.8 0c0 .5.1.8.3 1s .5.3.8.3.6-.1.8-.3.3-.6.3-1-.1-.8-.3-1-.5-.3-.8-.3-.6.1-.8.3-.3.5-.3 1z" fill="#231f20"/><path d="m246.2 70.4v-3.9h1.7c.4 0 .7 0 .9.1s.3.2.5.4c.1.2.2.4.2.6 0 .3-.1.5-.3.7s-.4.3-.8.4c.2.1.3.2.4.3s.3.3.4.6l.5.8h-1l-.6-.9c-.2-.3-.3-.5-.4-.6s-.2-.1-.2-.2c-.1 0-.2 0-.4 0h-.1v1.6h-.8zm.8-2.3h.6.7c.1 0 .2-.1.2-.2s.1-.2.1-.3 0-.2-.1-.3-.2-.1-.3-.1-.3 0-.6 0h-.6z" fill="#231f20"/><path d="m250.2 70.4v-3.9h.8v3.9z" fill="#231f20"/><path d="m251.7 66.4h1.5c.3 0 .6 0 .8.1s.4.2.6.4.3.4.4.6c.1.3.1.6.1.9s0 .6-.1.8c-.1.3-.2.5-.4.7-.1.1-.3.2-.6.3-.2.1-.4.1-.7.1h-1.5v-3.9zm.8.7v2.6h.6.5c.1 0 .2-.1.3-.2s.2-.2.2-.4c.1-.2.1-.4.1-.7s0-.5-.1-.7-.1-.3-.2-.4-.2-.1-.4-.2c-.1 0-.3 0-.7 0z" fill="#231f20"/><path d="m259.3 70.4h-.9l-.3-.9h-1.6l-.3.9h-.9l1.5-3.9h.8zm-1.5-1.6-.5-1.5-.5 1.5z" fill="#231f20"/><path d="m259.7 66.4h1.5c.3 0 .6 0 .8.1s.4.2.6.4.3.4.4.6c.1.3.1.6.1.9s0 .6-.1.8c-.1.3-.2.5-.4.7-.1.1-.3.2-.6.3-.2.1-.4.1-.7.1h-1.5v-3.9zm.8.7v2.6h.6.5c.1 0 .2-.1.3-.2s.2-.2.2-.4c.1-.2.1-.4.1-.7s0-.5-.1-.7-.1-.3-.2-.4-.2-.1-.4-.2c-.1 0-.3 0-.7 0z" fill="#231f20"/><path d="m253.4 49.4c-.7 0-1.3.2-1.9.6l-1.2-1.4.1-.5 1-.4c.1 0 .2-.2.2-.3s-.1-.2-.3-.2l-2.6.1c-.1 0-.2.1-.3.2 0 .1.1.3.2.3l1.2.3c0 .1 0 .2-.1.3h-5l .4-1v-.1c0-.1 0-.1-.1-.2s-.2-.2-.2-.3 0 0 .1-.1h1.3c.1 0 .3-.1.3-.3 0-.1-.1-.3-.3-.3h-1.2-.1c-.3.1-.4.3-.5.5v.1c0 .2.1.4.2.5 0 .1-.3.9-.6 1.6l-.1.3c-.1.2-.2.5-.2.6-.5-.3-1.1-.5-1.8-.5-1.9 0-3.4 1.5-3.4 3.4s1.5 3.4 3.4 3.4 3.4-1.5 3.4-3.4c0-1-.5-2-1.2-2.6l.1-.4 3.9 3.9.2.6c-.1 0-.2.1-.2.3s.1.3.3.3h.7c.1 0 .3-.1.3-.3 0-.1-.1-.3-.3-.3h-.2l-.2-.6 1.3-.2c.3 1.5 1.7 2.7 3.3 2.7 1.9 0 3.4-1.5 3.4-3.4.1-1.6-1.4-3.2-3.3-3.2zm-8.6 3.4c0 1.6-1.3 2.9-2.9 2.9s-2.9-1.3-2.9-2.9 1.3-2.9 2.9-2.9c.6 0 1.1.2 1.6.5-.4 1.2-1.7 2.2-1.8 2.2-.1.1-.1.1-.1.2s0 .1.1.2.3.1.4.1 1.4-1 1.9-2.3c.4.5.8 1.2.8 2zm3.6-.3-.1-.2h.1zm-.1-.7h-.7c-.1 0-.3.1-.3.3s.1.3.3.3h.1l.1.4-3.4-3.4c.1-.1.1-.2.2-.4h5c-.2.6-.7 1.9-1.1 3 0-.1 0-.2-.2-.2zm.4 1.4 1.4-4c .2.3.6.7.9 1.1-.7.6-1.1 1.5-1.1 2.5v.2c-.5.1-.9.2-1.2.2zm1.8-.4c0-.8.4-1.6.9-2.1.7.8 1.3 1.6 1.6 1.8-.4.1-1.5.3-2.5.3 0 .1 0 .1 0 0zm2.9 2.9c-1.4 0-2.5-1-2.8-2.2l3-.4c.1 0 .2-.1.2-.2s0-.2 0-.3l-1.9-2.2c.4-.3 1-.4 1.5-.4 1.6 0 2.9 1.3 2.9 2.9 0 1.5-1.3 2.8-2.9 2.8z" fill="#fff"/><defs><linearGradient id="a" gradientUnits="userSpaceOnUse" x1="280.0909" x2="280.0909" y1="142.4393" y2="0"><stop offset="0" stop-color="#507e24"/><stop offset="1" stop-color="#8cc65b"/></linearGradient><linearGradient id="b" gradientUnits="userSpaceOnUse" x1="280.2957" x2="280.2957" y1="256.9982" y2="138.4496"><stop offset="0" stop-color="#3e444e"/><stop offset="1" stop-color="#1a2226"/></linearGradient><linearGradient id="c" gradientUnits="userSpaceOnUse" x1="1.2943" x2="559.2971" y1="135.8326" y2="135.8326"><stop offset="0" stop-color="#e5e5e4"/><stop offset="1" stop-color="#d8d8d7"/></linearGradient><linearGradient id="d"><stop offset="0" stop-color="#3bb44a"/><stop offset="1" stop-color="#3b834a"/></linearGradient><linearGradient id="e" gradientTransform="matrix(-1 0 0 1 3929.1545 0)" gradientUnits="userSpaceOnUse" x1="3363.4099" x2="3377.9858" xlink:href="#d" y1="246.1724" y2="246.1724"/><linearGradient id="f" gradientTransform="matrix(-1 0 0 1 3929.1545 0)" gradientUnits="userSpaceOnUse" x1="3385.3586" x2="3399.9358" xlink:href="#d" y1="246.1724" y2="246.1724"/><linearGradient id="g" gradientTransform="matrix(-1 0 0 1 3929.1545 0)" gradientUnits="userSpaceOnUse" x1="3626.0659" x2="3640.6428" xlink:href="#d" y1="246.1724" y2="246.1724"/><linearGradient id="h" gradientTransform="matrix(-1 0 0 1 3929.1545 0)" gradientUnits="userSpaceOnUse" x1="3648.0151" x2="3662.594" xlink:href="#d" y1="246.1724" y2="246.1724"/><linearGradient id="i" gradientTransform="matrix(-1 0 0 1 3929.1545 0)" gradientUnits="userSpaceOnUse" x1="3669.9666" x2="3684.5422" xlink:href="#d" y1="246.1724" y2="246.1724"/><linearGradient id="j" gradientTransform="matrix(-1 0 0 1 3929.1545 0)" gradientUnits="userSpaceOnUse" x1="3691.915" x2="3706.4924" xlink:href="#d" y1="246.1724" y2="246.1724"/><linearGradient id="k" gradientTransform="matrix(-1 0 0 1 3929.1545 0)" gradientUnits="userSpaceOnUse" x1="3714.0249" x2="3728.6038" xlink:href="#d" y1="246.1724" y2="246.1724"/><linearGradient id="l" gradientTransform="matrix(-1 0 0 1 3929.1545 0)" gradientUnits="userSpaceOnUse" x1="3735.9761" x2="3750.552" xlink:href="#d" y1="246.1724" y2="246.1724"/><linearGradient id="m" gradientTransform="matrix(-1 0 0 1 3929.1545 0)" gradientUnits="userSpaceOnUse" x1="3757.9248" x2="3772.502" xlink:href="#d" y1="246.1724" y2="246.1724"/><linearGradient id="n" gradientTransform="matrix(-1 0 0 1 3929.1545 0)" gradientUnits="userSpaceOnUse" x1="3494.4802" x2="3509.0566" xlink:href="#d" y1="246.1724" y2="246.1724"/><linearGradient id="o" gradientTransform="matrix(-1 0 0 1 3929.1545 0)" gradientUnits="userSpaceOnUse" x1="3516.429" x2="3531.0059" xlink:href="#d" y1="246.1724" y2="246.1724"/><linearGradient id="p" gradientTransform="matrix(-1 0 0 1 3929.1545 0)" gradientUnits="userSpaceOnUse" x1="3538.3782" x2="3552.957" xlink:href="#d" y1="246.1724" y2="246.1724"/><linearGradient id="q" gradientTransform="matrix(-1 0 0 1 3929.1545 0)" gradientUnits="userSpaceOnUse" x1="3560.3296" x2="3574.9053" xlink:href="#d" y1="246.1724" y2="246.1724"/><linearGradient id="r" gradientTransform="matrix(-1 0 0 1 3929.1545 0)" gradientUnits="userSpaceOnUse" x1="3582.2781" x2="3596.8552" xlink:href="#d" y1="246.1724" y2="246.1724"/><linearGradient id="s" gradientTransform="matrix(-1 0 0 1 3929.1545 0)" gradientUnits="userSpaceOnUse" x1="3604.2273" x2="3618.8049" xlink:href="#d" y1="246.1724" y2="246.1724"/><linearGradient id="t" gradientTransform="matrix(-1 0 0 1 3929.1545 0)" gradientUnits="userSpaceOnUse" x1="3406.8955" x2="3421.4722" xlink:href="#d" y1="246.1724" y2="246.1724"/><linearGradient id="u" gradientTransform="matrix(-1 0 0 1 3929.1545 0)" gradientUnits="userSpaceOnUse" x1="3428.8445" x2="3443.4233" xlink:href="#d" y1="246.1724" y2="246.1724"/><linearGradient id="v" gradientTransform="matrix(-1 0 0 1 3929.1545 0)" gradientUnits="userSpaceOnUse" x1="3450.7959" x2="3465.3716" xlink:href="#d" y1="246.1724" y2="246.1724"/><linearGradient id="w" gradientTransform="matrix(-1 0 0 1 3929.1545 0)" gradientUnits="userSpaceOnUse" x1="3472.7446" x2="3487.3218" xlink:href="#d" y1="246.1724" y2="246.1724"/><linearGradient id="x" gradientTransform="matrix(-1 0 0 1 3929.1545 0)" gradientUnits="userSpaceOnUse" x1="3780.4585" x2="3795.0356" xlink:href="#d" y1="246.1724" y2="246.1724"/><linearGradient id="y" gradientTransform="matrix(-1 0 0 1 3929.1545 0)" gradientUnits="userSpaceOnUse" x1="3889.5803" x2="3904.1565" xlink:href="#d" y1="246.1724" y2="246.1724"/><linearGradient id="z" gradientTransform="matrix(-1 0 0 1 3929.1545 0)" gradientUnits="userSpaceOnUse" x1="3911.5291" x2="3926.1057" xlink:href="#d" y1="246.1724" y2="246.1724"/><linearGradient id="A" gradientTransform="matrix(-1 0 0 1 3929.1545 0)" gradientUnits="userSpaceOnUse" x1="3801.9954" x2="3816.572" xlink:href="#d" y1="246.1724" y2="246.1724"/><linearGradient id="B" gradientTransform="matrix(-1 0 0 1 3929.1545 0)" gradientUnits="userSpaceOnUse" x1="3823.9443" x2="3838.5234" xlink:href="#d" y1="246.1724" y2="246.1724"/><linearGradient id="C" gradientTransform="matrix(-1 0 0 1 3929.1545 0)" gradientUnits="userSpaceOnUse" x1="3845.8958" x2="3860.4717" xlink:href="#d" y1="246.1724" y2="246.1724"/><linearGradient id="D" gradientTransform="matrix(-1 0 0 1 3929.1545 0)" gradientUnits="userSpaceOnUse" x1="3867.8445" x2="3882.4216" xlink:href="#d" y1="246.1724" y2="246.1724"/><linearGradient id="E" gradientTransform="matrix(-1 0 0 1 3929.1545 0)" gradientUnits="userSpaceOnUse" x1="3370.6978" x2="3929.1545" xlink:href="#d" y1="234.9471" y2="234.9471"/><linearGradient id="F" gradientTransform="matrix(-1 0 0 -1 -5707.2222 360.6827)" gradientUnits="userSpaceOnUse" x1="-6037.7354" x2="-5981.2446" xlink:href="#d" y1="174.7404" y2="174.7404"/><linearGradient id="G" gradientUnits="userSpaceOnUse" x1="229.9508" x2="265.8311" xlink:href="#d" y1="48.3059" y2="48.3059"/><clipPath id="H"><path d="m448.9 58.9c10.5-1.8 8.6 21.2 12 25.2 2.7 3.1 10.9 8.6 16.5 11.8 2.9 1.7 4.5 2 5.8 2.8s-2.2 4.7-2.8 4.7-1.6-.7-1.6-.7-.4.6-.8.6c-.7 0-1.4-1.8-1.4-1.8s-16.9-7.1-22.1-10.9c-5-3.9-16.1-29.9-5.6-31.7z"/></clipPath><linearGradient id="I"><stop offset="0" stop-color="#f9a125"/><stop offset="1" stop-color="#fcb959"/></linearGradient><linearGradient id="J" gradientTransform="matrix(-.9979 -.06468469 -.06468469 .9979 1470.5854 33.4072)" gradientUnits="userSpaceOnUse" x1="976.6782" x2="1022.7859" xlink:href="#I" y1="113.8154" y2="113.8154"/><linearGradient id="K"><stop offset="0" stop-color="#d8d8d7"/><stop offset="1" stop-color="#e5e5e4"/></linearGradient><linearGradient id="L" gradientTransform="matrix(.999 .04383114 -.04383114 .999 25.2549 -25.9059)" gradientUnits="userSpaceOnUse" x1="416.6533" x2="441.9316" xlink:href="#K" y1="78.5421" y2="78.5421"/><linearGradient id="M"><stop offset="0" stop-color="#737373" stop-opacity="0"/><stop offset="1" stop-color="#414141"/></linearGradient><linearGradient id="N" gradientTransform="matrix(-.8136 .06353188 .1093 .9196 1314.3451 104.5043)" gradientUnits="userSpaceOnUse" x1="1051.3085" x2="1025.6932" xlink:href="#M" y1="-94.7133" y2="-92.9436"/><linearGradient id="O"><stop offset="0" stop-color="#d9d9d8"/><stop offset="1" stop-color="#e5e5e4"/></linearGradient><linearGradient id="P" gradientTransform="matrix(.5414 .2667 -.2749 .558 4244.241200000001 1086.9838)" gradientUnits="userSpaceOnUse" x1="-6327.1436" x2="-6318.6904" xlink:href="#O" y1="1390.2659" y2="1389.1735"/><linearGradient id="Q"><stop offset="0" stop-color="#414141"/><stop offset="1" stop-color="#646464"/></linearGradient><linearGradient id="R" gradientTransform="matrix(.00052361 -.6035 .3404 .00029536 3677.7712 2766.5645)" gradientUnits="userSpaceOnUse" x1="4271.0142" x2="4282.0454" xlink:href="#Q" y1="-9528.1631" y2="-9532.8213"/><linearGradient id="S"><stop offset="0" stop-color="#8e2c36"/><stop offset="1" stop-color="#781a25"/></linearGradient><linearGradient id="T" gradientTransform="matrix(-.9998 -.02088318 -.02088318 .9998 1446.5413 -4.0944)" gradientUnits="userSpaceOnUse" x1="1002.5515" x2="1013.6819" xlink:href="#S" y1="201.4697" y2="201.4697"/><clipPath id="U"><path d="m421.3 84.5 16.6 4.8s2 13.4 8.5 31.1c5.4 14.8-13.4 55.6-13.4 55.6-9-6.7-10.2-21.4-6-31.8 3.7-9.2 3.7-11.4 4.8-15.6s-33.3-19.4-10.5-44.1z"/></clipPath><linearGradient id="V" gradientTransform="matrix(-.9529 -.1497 -.2959 .6488 1574.4672 349.4726)" gradientUnits="userSpaceOnUse" x1="1182.8878" x2="1247.0864" xlink:href="#I" y1="-31.1072" y2="-31.1072"/><linearGradient id="W"><stop offset="0" stop-color="#35415c"/><stop offset="1" stop-color="#50658c"/></linearGradient><linearGradient id="X" gradientUnits="userSpaceOnUse" x1="408.9524" x2="456.4801" xlink:href="#W" y1="113.6504" y2="113.6504"/><linearGradient id="Y"><stop offset="0" stop-color="#737373"/><stop offset=".8917" stop-color="#2b2b2b" stop-opacity="0"/></linearGradient><linearGradient id="Z" gradientTransform="matrix(.9676 -.2526 .2526 .9676 -132.7574 172.6625)" gradientUnits="userSpaceOnUse" x1="541.7179" x2="582.0616" xlink:href="#Y" y1="87.1853" y2="87.1853"/><linearGradient id="aa"><stop offset="0" stop-color="#414141"/><stop offset="1" stop-color="#737373" stop-opacity="0"/></linearGradient><linearGradient id="ab" gradientTransform="matrix(-.9488 -.5513 -.5689 .8398 1740.9247 475.2785)" gradientUnits="userSpaceOnUse" x1="1154.7616" x2="1192.7646" xlink:href="#aa" y1="361.7438" y2="361.7438"/><linearGradient id="ac" gradientUnits="userSpaceOnUse" x1="478.0425" x2="505.8206" xlink:href="#I" y1="90.7307" y2="90.7307"/><clipPath id="ad"><use xlink:href="#cu"/></clipPath><linearGradient id="ae" gradientUnits="userSpaceOnUse" x1="474.383" x2="506.9377" xlink:href="#I" y1="89.023" y2="89.023"/><linearGradient id="af" gradientUnits="userSpaceOnUse" x1="468.1478" x2="502.5421" y1="96.6564" y2="96.6564"><stop offset="0" stop-color="#414141"/><stop offset=".2614" stop-color="#474747" stop-opacity=".7386"/><stop offset=".6032" stop-color="#575757" stop-opacity=".3968"/><stop offset=".988" stop-color="#727272" stop-opacity=".011963"/><stop offset="1" stop-color="#737373" stop-opacity="0"/></linearGradient><linearGradient id="ag"><stop offset="0" stop-color="#151b26"/><stop offset="1" stop-color="#151b26"/></linearGradient><linearGradient id="ah" gradientUnits="userSpaceOnUse" x1="492.6737" x2="492.6737" xlink:href="#ag" y1="123.5207" y2="98.8896"/><clipPath id="ai"><use xlink:href="#cv"/></clipPath><linearGradient id="aj" gradientTransform="matrix(1 -.00146512 .00146512 1 -1624.407 -858.0669)" gradientUnits="userSpaceOnUse" x1="2106.9084" x2="2125.2544" xlink:href="#ag" y1="973.1729" y2="973.1729"/><linearGradient id="ak" gradientTransform="matrix(1 -.00146512 .00146512 1 -1624.407 -858.0669)" gradientUnits="userSpaceOnUse" x1="2115.644" x2="2115.644" xlink:href="#ag" y1="988.3429" y2="967.7626"/><linearGradient id="al" gradientUnits="userSpaceOnUse" x1="403.5486" x2="403.5486" xlink:href="#ag" y1="196.8774" y2="137.8506"/><clipPath id="am"><use xlink:href="#cw"/></clipPath><linearGradient id="an" gradientTransform="matrix(-1 .00146512 -.00146512 -1 -1912.9722 6630.3384)" gradientUnits="userSpaceOnUse" x1="-2325.9846" x2="-2325.9846" xlink:href="#ag" y1="6492.7197" y2="6426.5386"/><linearGradient id="ao" gradientTransform="matrix(1 -.00146512 .00146512 1 -1624.407 -858.0669)" gradientUnits="userSpaceOnUse" x1="2040.8824" x2="2040.8824" xlink:href="#ag" y1="1046.4932" y2="967.0359"/><linearGradient id="ap" gradientUnits="userSpaceOnUse" x1="502.3541" x2="502.3541" xlink:href="#ag" y1="196.7326" y2="137.7059"/><clipPath id="aq"><use xlink:href="#cx"/></clipPath><linearGradient id="ar" gradientTransform="matrix(1 -.00146512 .00146512 1 -1624.407 -858.0669)" gradientUnits="userSpaceOnUse" x1="2124.5811" x2="2124.5811" xlink:href="#ag" y1="1057.9132" y2="998.7612"/><linearGradient id="as" gradientTransform="matrix(1 -.00146512 .00146512 1 -1624.407 -858.0669)" gradientUnits="userSpaceOnUse" x1="2104.04" x2="2104.04" xlink:href="#ag" y1="1088.2517" y2="1008.7944"/><clipPath id="at"><path d="m378.2 145.7 7.7 5.9h20.1c4.7 0 9 2.3 11.5 6.2h17.1s-4.5-24.3-28.1-24.3c-18.9.1-28.3 12.2-28.3 12.2z"/></clipPath><linearGradient id="au"><stop offset="0" stop-color="#ee3f50"/><stop offset="1" stop-color="#d82538"/></linearGradient><linearGradient id="av" gradientTransform="matrix(1 -.00146512 .00146512 1 -1624.407 -858.0669)" gradientUnits="userSpaceOnUse" x1="2000.0157" x2="2057.6113" xlink:href="#au" y1="1007.5778" y2="1007.5778"/><linearGradient id="aw"><stop offset="0" stop-color="#737373"/><stop offset="1" stop-color="#414141" stop-opacity="0"/></linearGradient><linearGradient id="ax" gradientTransform="matrix(1 -.00146512 .00146512 1 -1624.407 -858.0669)" gradientUnits="userSpaceOnUse" x1="1992.9052" x2="2044.4305" xlink:href="#aw" y1="1016.7476" y2="1016.7476"/><linearGradient id="ay" gradientUnits="userSpaceOnUse" x1="471.1842" x2="484.6724" xlink:href="#ag" y1="108.9998" y2="108.9998"/><clipPath id="az"><use xlink:href="#cy"/></clipPath><linearGradient id="aA" gradientTransform="matrix(1 -.00146512 .00146512 1 -1624.407 -858.0669)" gradientUnits="userSpaceOnUse" x1="2092.47" x2="2108.9626" xlink:href="#ag" y1="976.0807" y2="959.588"/><linearGradient id="aB" gradientTransform="matrix(1 -.00146512 .00146512 1 -1624.407 -858.0669)" gradientUnits="userSpaceOnUse" x1="2087.0574" x2="2106.1152" xlink:href="#ag" y1="972.6913" y2="972.6913"/><clipPath id="aC"><path d="m477.7 116.6c.2.7 1 1.1 1.7.9l1.9-.6 4.4 13.1-2.4.9.1.2c.4 1.3 1.7 2.2 3 2.2l13.6 34.6c.7 1.8 2.8 2.6 4.5 1.8l-12.9-39.2c-.4-1.2-1.7-1.8-2.9-1.3l-4.4-13.1 1.5-.5c.7-.2 1.1-1 .9-1.7v-.1c-.2-.7-1-1.1-1.7-.9l-6.4 2c-.7.2-1.1.9-.9 1.7z"/></clipPath><linearGradient id="aD" gradientTransform="matrix(1 -.00146512 .00146512 1 -1624.407 -858.0669)" gradientUnits="userSpaceOnUse" x1="2099.303" x2="2127.5425" xlink:href="#au" y1="1002.2106" y2="1002.2106"/><linearGradient id="aE" gradientTransform="matrix(.2365 -.07642021 .3075 .9515 -2359.1882 -635.3522)" gradientUnits="userSpaceOnUse" x1="9928.1455" x2="9961.6992" xlink:href="#aw" y1="1614.7972" y2="1614.7972"/><clipPath id="aF"><path d="m433 113.6h2.9v48.8h-2.9z" transform="matrix(.9393 -.3431 .3431 .9393 -20.9843 157.4325)"/></clipPath><linearGradient id="aG"><stop offset=".08571827" stop-color="#737373" stop-opacity="0"/><stop offset="1" stop-color="#424343"/></linearGradient><linearGradient id="aH" gradientTransform="matrix(.2709 .3017 .2758 .945 -2549.6138 -691.9305)" gradientUnits="userSpaceOnUse" x1="14956.5439" x2="14995.4785" xlink:href="#aG" y1="-3914.8997" y2="-3914.8997"/><clipPath id="aI"><path d="m405 162.7-3.2-4.8 21.3-23.2 10.3-3.6 11.4 30.3h-3.4l-9.2-25.2-5.1.2z"/></clipPath><linearGradient id="aJ" gradientTransform="matrix(1.006 .03875841 -.00499012 1.0454 -1601.2736 -1031.1691)" gradientUnits="userSpaceOnUse" x1="1997.9937" x2="2036.9282" xlink:href="#aG" y1="1055.592" y2="1055.592"/><linearGradient id="aK" gradientUnits="userSpaceOnUse" x1="426.2735" x2="426.2735" xlink:href="#ag" y1="117.5834" y2="108.133"/><clipPath id="aL"><use xlink:href="#cz"/></clipPath><linearGradient id="aM" gradientTransform="matrix(1 -.00146512 .00146512 1 -1624.407 -858.0669)" gradientUnits="userSpaceOnUse" x1="2032.739" x2="2061.9009" xlink:href="#ag" y1="973.9924" y2="973.9924"/><linearGradient id="aN" gradientTransform="matrix(1 -.00146512 .00146512 1 -1624.407 -858.0669)" gradientUnits="userSpaceOnUse" x1="2040.1813" x2="2040.1813" xlink:href="#ag" y1="989.1693" y2="971.3407"/><clipPath id="aO"><path d="m483.4 130.9-15.5 29.1c-2.9 5.6-8.7 9.1-15 9.1 0 3.8-2.7 9.2-9.3 9.2-6 0-10.5-3.5-10.5-11h-25.1l-6.1-9.5h2.7l2.3 3.2s27.8 0 37.4-.1c9.8 0 14.2-2.8 17.8-8.8s17.6-30.4 17.6-30.4v-5.3l2-.6 5.2 14.6z"/></clipPath><linearGradient id="aP" gradientTransform="matrix(1 -.00146512 .00146512 1 -1624.407 -858.0669)" gradientUnits="userSpaceOnUse" x1="2024.6011" x2="2112.4446" xlink:href="#O" y1="1007.6026" y2="1007.6026"/><linearGradient id="aQ" gradientTransform="matrix(1 -.00146512 .00146512 1 -1624.407 -858.0669)" gradientUnits="userSpaceOnUse" x1="2062.0417" x2="2070.1868" xlink:href="#ag" y1="1030.8821" y2="1030.8821"/><linearGradient id="aR" gradientTransform="matrix(1 -.00146512 .00146512 1 -1624.407 -858.0669)" gradientUnits="userSpaceOnUse" x1="2023.3298" x2="2111.9038" xlink:href="#aw" y1="1010.5244" y2="1010.5244"/><linearGradient id="aS" gradientTransform="matrix(-.5414 -.2667 .2749 -.558 -3053.2793 239.2834)" gradientUnits="userSpaceOnUse" x1="-5150.5483" x2="-5142.8975" xlink:href="#O" y1="2593.6389" y2="2592.6501"/><linearGradient id="aT" gradientTransform="matrix(-.00052361 .6035 -.3404 -.00029536 -2486.8093 -1440.2974)" gradientUnits="userSpaceOnUse" x1="2641.3164" x2="2652.3477" xlink:href="#Q" y1="-8626.0801" y2="-8630.7383"/><linearGradient id="aU" gradientTransform="matrix(-.9998 -.02088318 -.02088318 .9998 1446.5413 -4.0944)" gradientUnits="userSpaceOnUse" x1="989.6893" x2="1001.3966" xlink:href="#S" y1="178.1278" y2="178.1278"/><clipPath id="aV"><path d="m438 89.4s28.8 12.5 28.8 23.1-20.6 39.6-20.6 39.6c-12.1-22.8.2-30.2.2-30.2s-2.4-3.8-11.4-4.5c-8.9-.8-37.4-9.2-13.8-32.9z"/></clipPath><linearGradient id="aW" gradientTransform="matrix(-1.0045 -.01470774 -.02733286 1.0082 1455.0814 -15.1793)" gradientUnits="userSpaceOnUse" x1="977.5867" x2="1043.4423" xlink:href="#I" y1="153.8456" y2="153.8456"/><linearGradient id="aX" gradientUnits="userSpaceOnUse" x1="407.0836" x2="464.014" xlink:href="#W" y1="106.1028" y2="106.1028"/><linearGradient id="aY" gradientUnits="userSpaceOnUse" x1="402.9135" x2="438.9315" xlink:href="#Y" y1="106.0262" y2="106.0262"/><linearGradient id="aZ" gradientTransform="matrix(-.9998 -.02088318 -.02088318 .9998 1446.5413 -4.0944)" gradientUnits="userSpaceOnUse" x1="988.9247" x2="1041.2432" xlink:href="#aa" y1="150.791" y2="150.791"/><clipPath id="a0"><path d="m421.3 84.5c7.8-20.6 9.7-28.6 18.5-30.1 14.2-2.5 15.4 11.3 14.5 27.3-13.9.8-16.5 7.6-16.5 7.6z"/></clipPath><linearGradient id="a1" gradientTransform="matrix(1.0041 -.00094843 -.00094843 1.0002 -1.7982 .4137)" gradientUnits="userSpaceOnUse" x1="420.079" x2="457.9982" xlink:href="#K" y1="69.4363" y2="69.4363"/><linearGradient id="a2" gradientTransform="matrix(-.9998 -.02088318 -.02088318 .9998 1446.5413 -4.0944)" gradientUnits="userSpaceOnUse" x1="990.7961" x2="1035.1603" y1="97.7197" y2="97.7197"><stop offset="0" stop-color="#414141" stop-opacity="0"/><stop offset="1" stop-color="#737373"/></linearGradient><clipPath id="a3"><path d="m437.3 56.3c11.6-2.5 10.7 23.2 14.7 27.5 3.1 3.3 12.6 9.1 18.9 12.4 3.3 1.7 5.1 2 6.6 2.9s-2.3 5.4-2.9 5.4-1.8-.7-1.8-.7-.4.7-.9.7c-.8 0-1.6-2-1.6-2s-19.2-7.1-25.2-11c-5.8-4.1-19.5-32.6-7.8-35.2z"/></clipPath><linearGradient id="a4" gradientTransform="matrix(-.9998 -.02088318 -.02088318 .9998 1446.5413 -4.0944)" gradientUnits="userSpaceOnUse" x1="961.739" x2="1014.1144" xlink:href="#I" y1="104.3251" y2="104.3251"/><linearGradient id="a5" gradientUnits="userSpaceOnUse" x1="426.6206" x2="451.5534" xlink:href="#K" y1="71.0576" y2="71.0576"/><linearGradient id="a6" gradientTransform="matrix(-.9998 -.02088318 -.02088318 .9998 1446.5413 -4.0944)" gradientUnits="userSpaceOnUse" x1="1008.2557" x2="979.0865" xlink:href="#M" y1="106.5087" y2="105.8994"/><clipPath id="a7"><path d="m443 55.4s5.6 9.8 8.9 9.9c0 0 4.1-13.2 5.3-12.3 1.3.8 6.2 2.7 7.1 1.9 1-.9 3.7-9.8 4-16.4.2-4.2-14.7-7.1-15.8 1.1-1.1 8.6-9.5 15.8-9.5 15.8z"/></clipPath><linearGradient id="a8" gradientTransform="matrix(-1.1051 -.02221379 -.02388324 1.1018 1534.0619 -59.4337)" gradientUnits="userSpaceOnUse" x1="959.88" x2="985.784" xlink:href="#I" y1="118.6926" y2="118.6926"/><linearGradient id="a9" gradientTransform="matrix(-.9998 -.02088318 -.02088318 .9998 1446.5413 -4.0944)" gradientUnits="userSpaceOnUse" x1="975.7685" x2="1002.744" xlink:href="#aa" y1="75.9976" y2="75.9976"/><linearGradient id="ba" gradientTransform="matrix(-.9998 -.02088318 -.02088318 .9998 1446.5413 -4.0944)" gradientUnits="userSpaceOnUse" x1="980.29" x2="999.9044" xlink:href="#aa" y1="83.1358" y2="83.1358"/><linearGradient id="bb" gradientTransform="matrix(-.9998 -.02088318 -.02088318 .9998 1446.5413 -4.0944)" gradientUnits="userSpaceOnUse" x1="968.2748" x2="968.2748" xlink:href="#ag" y1="130.1446" y2="125.6448"/><clipPath id="bc"><path d="m444.6 19.4c-11.2 0-10 12.3-9.7 15.6.4 3.3 2.9 7.5 5.6 9.6 2.1 1.7 7.3 4.9 10 3.7 1.7-.8 1.3-4.1 1.7-5.7.5-2.3 1.5-5 3.8-6.2 6.3-3.2 7.3 5.2 13.6 2.3 1.3-.6-.3-7.2-.6-8.1-.8-2.1-2.3-3.7-4.4-4.5-3.1-1.2-11 1.3-11 1.3s2.2-8-9-8z"/></clipPath><linearGradient id="bd" gradientUnits="userSpaceOnUse" x1="433.7828" x2="471.7204" y1="32.5665" y2="32.5665"><stop offset="0" stop-color="#472263"/><stop offset="1" stop-color="#5f2977"/></linearGradient><linearGradient id="be" gradientTransform="matrix(.9616 -.2745 .2745 .9616 -123.2206 190.6474)" gradientUnits="userSpaceOnUse" x1="577.4709" x2="613.5623" xlink:href="#M" y1="7.7019" y2="7.7019"/><linearGradient id="bf" gradientUnits="userSpaceOnUse" x1="497.9409" x2="500.4387" xlink:href="#I" y1="52.5062" y2="52.5062"/><linearGradient id="bg" gradientUnits="userSpaceOnUse" x1="480.4566" x2="486.701" xlink:href="#I" y1="66.8683" y2="66.8683"/><linearGradient id="bh" gradientUnits="userSpaceOnUse" x1="511.6786" x2="517.923" xlink:href="#I" y1="66.8683" y2="66.8683"/><linearGradient id="bi" gradientUnits="userSpaceOnUse" x1="507.2631" x2="512.4102" xlink:href="#I" y1="56.2215" y2="56.2215"/><linearGradient id="bj" gradientUnits="userSpaceOnUse" x1="485.9694" x2="491.1165" xlink:href="#I" y1="56.2215" y2="56.2215"/><clipPath id="bk"><path d="m154.6 107.8c3.5.7 3 6.3 1.8 7.1s-9.3.1-8.5-3.5c.7-3.6-19.3-16.3-21.1-19.1-1.8-2.9-9.8-22.3-10.1-25.6-.6-6.7 7.1-9.7 10.9-6.3 3.1 2.9 7.1 23.8 9.8 27.9 2.6 4.1 13.7 18.7 17.2 19.5z"/></clipPath><linearGradient id="bl"><stop offset="0" stop-color="#fbb324"/><stop offset="1" stop-color="#ffc75b"/></linearGradient><linearGradient id="bm" gradientTransform="matrix(-.9804 -.1971 -.1971 .9804 -2531.8096 -1212.288)" gradientUnits="userSpaceOnUse" x1="-2901.1394" x2="-2855.8218" xlink:href="#bl" y1="746.7847" y2="746.7847"/><linearGradient id="bn" gradientTransform="matrix(-.9766 -.2153 -.2153 .9766 -2528.8643 -1152.0375)" gradientUnits="userSpaceOnUse" x1="-2889.7217" x2="-2858.2588" xlink:href="#M" y1="639.1434" y2="646.0796"/><clipPath id="bo"><path d="m122.7 135.8c-1.3-7-25-42.4-25-42.4l-22.2 4c4.2 29.7 28.3 39.8 29.2 45 1 5.2-5.8 17.8-4.2 29.5s11.7 18.1 11.7 18.1 11.7-47.2 10.5-54.2z"/></clipPath><linearGradient id="bp"><stop offset="0" stop-color="#24324c"/><stop offset="1" stop-color="#3e537d"/></linearGradient><linearGradient id="bq" gradientTransform="matrix(-.9875 .1574 .1608 1.0088 -2687.7759 -1168.6013)" gradientUnits="userSpaceOnUse" x1="-2575.6531" x2="-2526.8535" xlink:href="#bp" y1="1698.3173" y2="1698.3173"/><linearGradient id="br" gradientTransform="matrix(-.9875 .1574 .1574 .9875 -2680.7175 -1124.3082)" gradientUnits="userSpaceOnUse" x1="-2575.7856" x2="-2530.1709" xlink:href="#aw" y1="1685.5366" y2="1685.5366"/><linearGradient id="bs" gradientUnits="userSpaceOnUse" x1="166.2715" x2="166.2715" xlink:href="#ag" y1="132.7278" y2="108.1574"/><clipPath id="bt"><use xlink:href="#cA"/></clipPath><linearGradient id="bu" gradientTransform="matrix(1 .00523926 -.00523926 1 86.5423 -752.5111)" gradientUnits="userSpaceOnUse" x1="75.5699" x2="93.9076" xlink:href="#ag" y1="873.296" y2="873.296"/><linearGradient id="bv" gradientTransform="matrix(1 .00523926 -.00523926 1 86.5423 -752.5111)" gradientUnits="userSpaceOnUse" x1="84.3015" x2="84.3015" xlink:href="#ag" y1="888.4594" y2="867.8882"/><linearGradient id="bw" gradientUnits="userSpaceOnUse" x1="76.8237" x2="76.8237" xlink:href="#ag" y1="205.4495" y2="146.449"/><clipPath id="bx"><use xlink:href="#cB"/></clipPath><linearGradient id="by" gradientTransform="matrix(-1 -.00523926 .00523926 -1 -252.2044 6733.8086)" gradientUnits="userSpaceOnUse" x1="-294.6652" x2="-294.6652" xlink:href="#ag" y1="6592.6318" y2="6526.48"/><linearGradient id="bz" gradientTransform="matrix(1 .00523926 -.00523926 1 86.5423 -752.5111)" gradientUnits="userSpaceOnUse" x1="9.5732" x2="9.5732" xlink:href="#ag" y1="946.5838" y2="867.1618"/><linearGradient id="bA" gradientUnits="userSpaceOnUse" x1="175.584" x2="175.584" xlink:href="#ag" y1="205.9669" y2="146.9664"/><clipPath id="bB"><use xlink:href="#cC"/></clipPath><linearGradient id="bC" gradientTransform="matrix(1 .00523926 -.00523926 1 86.5423 -752.5111)" gradientUnits="userSpaceOnUse" x1="93.2347" x2="93.2347" xlink:href="#ag" y1="957.9988" y2="898.873"/><linearGradient id="bD" gradientTransform="matrix(1 .00523926 -.00523926 1 86.5423 -752.5111)" gradientUnits="userSpaceOnUse" x1="72.7027" x2="72.7027" xlink:href="#ag" y1="988.3239" y2="908.9018"/><clipPath id="bE"><path d="m51.7 154.2 7.7 6 20.1.1c4.7 0 9 2.4 11.5 6.3l17.1.1s-4.4-24.3-27.9-24.5c-19.1-.1-28.5 12-28.5 12z"/></clipPath><linearGradient id="bF" gradientTransform="matrix(1 .00523926 -.00523926 1 86.5423 -752.5111)" gradientUnits="userSpaceOnUse" x1="-31.2755" x2="26.2946" xlink:href="#au" y1="907.6857" y2="907.6857"/><linearGradient id="bG" gradientTransform="matrix(1 .00523926 -.00523926 1 86.5423 -752.5111)" gradientUnits="userSpaceOnUse" x1="-38.3828" x2="13.1196" xlink:href="#aw" y1="916.8514" y2="916.8514"/><linearGradient id="bH" gradientUnits="userSpaceOnUse" x1="144.8716" x2="158.2862" xlink:href="#ag" y1="118.1069" y2="118.1069"/><clipPath id="bI"><use xlink:href="#cD"/></clipPath><linearGradient id="bJ" gradientTransform="matrix(1 .00523926 -.00523926 1 86.5423 -752.5111)" gradientUnits="userSpaceOnUse" x1="61.1379" x2="77.6232" xlink:href="#ag" y1="876.2025" y2="859.7172"/><linearGradient id="bK" gradientTransform="matrix(1 .00523926 -.00523926 1 86.5423 -752.5111)" gradientUnits="userSpaceOnUse" x1="55.7277" x2="74.7769" xlink:href="#ag" y1="872.8146" y2="872.8146"/><clipPath id="bL"><path d="m151.3 125.7c.2.7 1 1.2 1.7.9l2-.6 4.3 13.2-2.4.9.1.2c.4 1.3 1.6 2.2 3 2.2l13.3 34.6c.7 1.8 2.8 2.7 4.5 1.9l-12.6-39.3c-.4-1.2-1.7-1.8-2.9-1.4l-4.3-13.1 1.5-.5c.7-.2 1.1-1 .9-1.7v-.1c-.2-.7-1-1.2-1.7-.9l-6.4 2c-.8.2-1.2.9-1 1.7z"/></clipPath><linearGradient id="bM" gradientTransform="matrix(1 .00523926 -.00523926 1 86.5423 -752.5111)" gradientUnits="userSpaceOnUse" x1="67.9679" x2="96.1948" xlink:href="#au" y1="902.3209" y2="902.3209"/><linearGradient id="bN" gradientTransform="matrix(.237 -.07483314 .3011 .9536 -649.707 -534.719)" gradientUnits="userSpaceOnUse" x1="2269.4648" x2="2303.0044" xlink:href="#aw" y1="897.8547" y2="897.8547"/><clipPath id="bO"><path d="m106.4 122.4h2.9v48.8h-2.9z" transform="matrix(.9416 -.3368 .3368 .9416 -43.1498 44.9089)"/></clipPath><linearGradient id="bP" gradientTransform="matrix(.2689 .3035 .2694 .9468 -839.749 -592.5727)" gradientUnits="userSpaceOnUse" x1="4001.8972" x2="4040.8145" xlink:href="#aG" y1="-519.8533" y2="-519.8533"/><clipPath id="bQ"><path d="m78.3 171.3-3.1-4.8 21.4-23.1 10.3-3.4 11.2 30.3h-3.4l-9-25.3-5.2.1z"/></clipPath><linearGradient id="bR" gradientTransform="matrix(1.0057 .04550218 -.0119989 1.0454 110.8441 -925.4456)" gradientUnits="userSpaceOnUse" x1="-21.4157" x2="17.5015" xlink:href="#aG" y1="1037.7449" y2="1037.7449"/><linearGradient id="bS" gradientUnits="userSpaceOnUse" x1="99.9055" x2="99.9055" xlink:href="#ag" y1="126.3228" y2="116.848"/><clipPath id="bT"><use xlink:href="#cE"/></clipPath><linearGradient id="bU" gradientTransform="matrix(1 .00523926 -.00523926 1 86.5423 -752.5111)" gradientUnits="userSpaceOnUse" x1="1.4333" x2="30.5823" xlink:href="#ag" y1="874.1152" y2="874.1152"/><linearGradient id="bV" gradientTransform="matrix(1 .00523926 -.00523926 1 86.5423 -752.5111)" gradientUnits="userSpaceOnUse" x1="8.8723" x2="8.8723" xlink:href="#ag" y1="889.2854" y2="871.4646"/><clipPath id="bW"><path d="m156.9 140.1-15.7 29c-2.9 5.6-8.7 9.1-15.1 9 0 3.8-2.8 9.2-9.4 9.1-6 0-10.5-3.5-10.4-11.1l-25-.1-6.1-9.5h2.7l2.3 3.2s27.8.1 37.4.2c9.8.1 14.2-2.7 17.9-8.7s17.8-30.3 17.8-30.3v-5.3l2-.6 5.1 14.6z"/></clipPath><linearGradient id="bX" gradientTransform="matrix(1 .00523926 -.00523926 1 86.5423 -752.5111)" gradientUnits="userSpaceOnUse" x1="-6.701" x2="81.1036" xlink:href="#O" y1="907.7105" y2="907.7105"/><linearGradient id="bY" gradientTransform="matrix(1 .00523926 -.00523926 1 86.5423 -752.5111)" gradientUnits="userSpaceOnUse" x1="30.723" x2="38.8646" xlink:href="#ag" y1="930.9797" y2="930.9797"/><linearGradient id="bZ" gradientTransform="matrix(1 .00523926 -.00523926 1 86.5423 -752.5111)" gradientUnits="userSpaceOnUse" x1="-7.9717" x2="80.5629" xlink:href="#aw" y1="910.631" y2="910.631"/><linearGradient id="b0" gradientTransform="matrix(-1 0 0 1 3130.5537 0)" gradientUnits="userSpaceOnUse" x1="3012.4138" x2="3015.1753" xlink:href="#O" y1="173.92" y2="173.5631"/><linearGradient id="b1" gradientTransform="matrix(.05000182 .6014 -.3393 .0282052 -4677.9722 -1541.3313)" gradientUnits="userSpaceOnUse" x1="3475.3274" x2="3486.0754" y1="-13618.1377" y2="-13622.6758"><stop offset="0" stop-color="#4d4d4c"/><stop offset="1" stop-color="#262626"/></linearGradient><linearGradient id="b2" gradientTransform="matrix(-.9923 .1237 .1237 .9923 -2595.5557 -1289.8143)" gradientUnits="userSpaceOnUse" x1="-2518.9702" x2="-2504.7358" xlink:href="#S" y1="1772.5978" y2="1772.5978"/><clipPath id="b3"><path d="m135.8 112c-1.1-4.9-25.5-12.4-38.1-18.6l-22.2 4c2.4 30.7 38.8 21.8 39 24.9.2 3.2-9.8 7.6-8.8 19.7.9 12.1 9.5 15.3 9.5 15.3s22.1-38.7 20.6-45.3z"/></clipPath><linearGradient id="b4" gradientTransform="matrix(-1.0982 .1061 .09620079 .9954 -2667.4719 -1194.9114)" gradientUnits="userSpaceOnUse" x1="-2422.9272" x2="-2353.449" xlink:href="#bp" y1="1575.2853" y2="1587.194"/><linearGradient id="b5" gradientTransform="matrix(-1 0 0 1 3130.5537 0)" gradientUnits="userSpaceOnUse" x1="3029.6489" x2="3063.0366" xlink:href="#aw" y1="98.7971" y2="98.7971"/><linearGradient id="b6" gradientTransform="matrix(-.9954 .09620072 .09620072 .9954 -2561.7188 -1205.1322)" gradientUnits="userSpaceOnUse" x1="-2552.4446" x2="-2497.1506" xlink:href="#aw" y1="1582.3683" y2="1582.3683"/><linearGradient id="b7"><stop offset="0" stop-color="#25334d"/><stop offset="1" stop-color="#3e537d"/></linearGradient><linearGradient id="b8" gradientUnits="userSpaceOnUse" x1="128.909" x2="72.5" xlink:href="#b7" y1="76.9715" y2="76.9715"/><clipPath id="b9"><use xlink:href="#cF"/></clipPath><linearGradient id="ca" gradientTransform="matrix(1.1015 -.0169541 .06634846 1.0051 -5818.0713 -788.3004)" gradientUnits="userSpaceOnUse" x1="5283.8579" x2="5350.0742" xlink:href="#b7" y1="946.9007" y2="946.9007"/><linearGradient id="cb" gradientTransform="matrix(-.9766 -.2153 -.2153 .9766 -2528.8643 -1152.0375)" gradientUnits="userSpaceOnUse" x1="-2822.4082" x2="-2861.4976" xlink:href="#b7" y1="630.5527" y2="630.5527"/><clipPath id="cc"><path d="m131.1 66.5c-.6-4.2-2.7-8.2-6-10.9-.7-.6-7.3-4.3-7.2-4.7 4.6-3.4-2.7-13.3-17.4-9.3-10.1 2.7-15.2 10.8-19.9 18.2-1.8 2.8-3.6 6.2-2.6 9.3 1.1 3.2 4.8 4.7 8.1 5.7 1.3-1.7 2.2-4.3 4.3-2.9 1.2.8 2.4 1.9 3.6 2.8 2.3 1.6 4.8 3.7 7.6 4.5 5.3 1.5 11 1.9 16.5.9 2.9-.5 5.7-1.3 8.2-2.8 1.8-1.1 3.8-2.5 4.5-4.5.6-1.7.6-3.7.5-5.5-.1-.2-.2-.5-.2-.8zm-11.1 7.9c-3.1.9-6.3 1.4-9.5 1.5-3 0-6.1-.4-8.8-1.6-2.2-1-5.6-4.5-5.6-4.5-.8-2.5 20.1-16.2 20.6-15.5 4.5.7 8.7 4.2 9.9 8.8.6 2.1.5 4.4 0 6.5-.6 2.2-1 2.7-3.2 3.6-1.2.4-2.3.8-3.4 1.2z"/></clipPath><linearGradient id="cd" gradientTransform="matrix(.8991 .2395 -.2094 .7859 -4693.9297 -1527.4667)" gradientUnits="userSpaceOnUse" x1="5389.9575" x2="5457.6299" xlink:href="#K" y1="366.8961" y2="366.8961"/><linearGradient id="ce" gradientTransform="matrix(.9992 -.03951131 .03951131 .9992 -5512.7109 -720.9819)" gradientUnits="userSpaceOnUse" x1="5613.6685" x2="5549.771" y1="1011.9998" y2="1009.4731"><stop offset="0" stop-color="#424343"/><stop offset=".9143" stop-color="#737373" stop-opacity="0"/></linearGradient><clipPath id="cf"><path d="m122.4 58.5c2.4-.1 5.5-3.5 5.2-5.1-.6-2.8-.4-10.8 5.8-11.9 4.5-.8 13.1.8 13.2 9.9.1 6.2-4.1 9.9-6.3 11-2.1 1.1-6.5-2.3-6.5-2.3s-4.4 5.5-9.5 5.5c.1 0-4.3-7-1.9-7.1z"/></clipPath><linearGradient id="cg" gradientTransform="matrix(-1.1172 -.2099 -.1846 .9828 -2605.0537 -170.1892)" gradientUnits="userSpaceOnUse" x1="-2418.606" x2="-2390.9617" xlink:href="#bl" y1="-284.0189" y2="-287.4348"/><linearGradient id="ch" gradientTransform="matrix(-.9828 -.1846 -.1846 .9828 -2383.877 -128.639)" gradientUnits="userSpaceOnUse" x1="-2499.9324" x2="-2520.1011" xlink:href="#aa" y1="-286.1292" y2="-283.7278"/><linearGradient id="ci" gradientTransform="matrix(-1.242 .3127 .3363 1.3357 -2590.8582 -216.3152)" gradientUnits="userSpaceOnUse" x1="-2022.3315" x2="-2010.4379" xlink:href="#aa" y1="672.668" y2="672.668"/><clipPath id="cj"><path d="m149.6 107c3.8.8 3.3 6.4 2 7.2s-9.9-.1-9.2-3.7-20.9-16.7-22.9-19.5-10.8-22.5-11.2-25.8c-.8-6.7 7.5-9.7 11.6-6.1 3.4 2.9 8 24 10.9 28.2 2.9 4.1 15 18.9 18.8 19.7z"/></clipPath><linearGradient id="ck" gradientTransform="matrix(-1.2196 -.2452 -.1971 .9804 -2556.1165 -1217.1757)" gradientUnits="userSpaceOnUse" x1="-2348.3132" x2="-2299.5601" xlink:href="#bl" y1="746.9749" y2="746.9749"/><linearGradient id="cl" gradientTransform="matrix(-.9766 -.2153 -.2153 .9766 -2528.8643 -1152.0375)" gradientUnits="userSpaceOnUse" x1="-2883.0774" x2="-2843.5251" xlink:href="#M" y1="641.3476" y2="650.0671"/><linearGradient id="cm" gradientTransform="matrix(-.6567 -.7541 -.7541 .6567 -2305.4392 -1062.8214)" gradientUnits="userSpaceOnUse" x1="-2437.1975" x2="-2451.489" xlink:href="#aa" y1="-1073.9586" y2="-1091.7429"/><linearGradient id="cn" gradientUnits="userSpaceOnUse" x1="135.1814" x2="137.6046" xlink:href="#I" y1="36.1806" y2="36.1806"/><linearGradient id="co" gradientUnits="userSpaceOnUse" x1="118.219" x2="124.277" xlink:href="#I" y1="50.114" y2="50.114"/><linearGradient id="cp" gradientUnits="userSpaceOnUse" x1="148.509" x2="154.567" xlink:href="#I" y1="50.114" y2="50.114"/><linearGradient id="cq" gradientUnits="userSpaceOnUse" x1="144.2253" x2="149.2187" xlink:href="#I" y1="39.7849" y2="39.7849"/><linearGradient id="cr" gradientUnits="userSpaceOnUse" x1="123.5672" x2="128.5606" xlink:href="#I" y1="39.7849" y2="39.7849"/><linearGradient id="cs" gradientUnits="userSpaceOnUse" x1="130.8051" x2="139.0663" xlink:href="#ag" y1="51.5441" y2="51.5441"/><linearGradient id="ct" gradientUnits="userSpaceOnUse" x1="134.1254" x2="138.6606" y1="46.5327" y2="46.5327"><stop offset="0" stop-color="#646464"/><stop offset="1" stop-color="#414141"/></linearGradient><path id="cu" d="m503.2 63.4-3.3 3.9 2.2-8.8-2.7.5-1.9 7.3-1.5-4.6-3.2 2 3.5 7c-9.3 0-19.7 10.8-18 28.9 1.5 16.9 6.2 16.4 7 19.9 1 4.5 11.1 4.7 13.6.1 4.5-8-1.8-25.7.4-29.4s4-4.4 4-10-4.4-8.9-4.4-8.9l7.1-4.1z"/><path id="cv" d="m497.5 102v15.5c0 1.6-1.3 2.8-2.8 2.8h-10v3.2h11c2.8 0 5-2.2 5-5v-19.6c-1.8 0-3.2 1.4-3.2 3.1z"/><path id="cw" d="m433.1 167.3c0-16.3-13.3-29.5-29.6-29.5s-29.5 13.3-29.5 29.6 13.3 29.5 29.6 29.5 29.5-13.3 29.5-29.6zm-49.7.1c0-11.1 9-20.1 20.1-20.2 11.1 0 20.1 9 20.2 20.1 0 11.1-9 20.1-20.1 20.2-11.1 0-20.2-9-20.2-20.1z"/><path id="cx" d="m472.8 167.3c0 16.3 13.3 29.5 29.6 29.5s29.5-13.3 29.5-29.6-13.3-29.5-29.6-29.5-29.5 13.3-29.5 29.6zm49.7-.1c0 11.1-9 20.1-20.1 20.2-11.1 0-20.1-9-20.2-20.1 0-11.1 9-20.1 20.1-20.2 11.1 0 20.2 9 20.2 20.1z"/><path id="cy" d="m484.5 116.1-3.1.8c0-9.4-10.2-9.2-10.2-15.8h9.8c4.9 0 3.5 15 3.5 15z"/><path id="cz" d="m415.5 109.8c-3.1 3.5 4.8 7.8 4.8 7.8s18.5.8 17.5-4.4c-1-5.3-7.1-2.7-11.1-2.8-4-.2-7.7-4.5-11.2-.6z"/><path id="cA" d="m171.2 111.3-.1 15.5c0 1.6-1.3 2.8-2.9 2.8l-10-.1v3.2l11 .1c2.8 0 5-2.2 5-5l .1-19.6c-1.7-.1-3.1 1.3-3.1 3.1z"/><path id="cB" d="m106.3 176.1c.1-16.3-13.1-29.6-29.3-29.7-16.3-.1-29.6 13.1-29.7 29.3s13.1 29.6 29.3 29.7 29.6-13 29.7-29.3zm-49.6-.3c.1-11.1 9.1-20.1 20.2-20s20.1 9.1 20 20.2-9.1 20.1-20.2 20c-11.1 0-20-9-20-20.2z"/><path id="cC" d="m146.1 176.3c-.1 16.3 13.1 29.6 29.3 29.7s29.6-13.1 29.7-29.3-13.1-29.6-29.4-29.7-29.5 13-29.6 29.3zm49.6.3c-.1 11.1-9.1 20.1-20.2 20s-20.1-9.1-20-20.2 9.1-20.1 20.2-20c11.1 0 20.1 9.1 20 20.2z"/><path id="cD" d="m158 125.2-3 .8c0-9.4-10.1-9.2-10.1-15.9 0 0 4.9 0 9.8.1s3.3 15 3.3 15z"/><path id="cE" d="m89.1 118.5c-3.1 3.4 4.7 7.8 4.7 7.8s18.5.9 17.5-4.3c-1-5.3-7.1-2.7-11-2.9s-7.7-4.5-11.2-.6z"/><path id="cF" d="m128.8 69.4c.9-4-4.1-13.1-6.3-14.6-29.9-7.6-54.5 31.7-49.3 44.9 13.7 2.4 24.5-6.2 24.5-6.2-.7-16.1 30.2-20.1 31.1-24.1z"/></defs><path clip-path="url(#H)" d="m484.1 105-42.9-2.8 5.8-42.6 43 2.8z" fill="url(#J)"/><path clip-path="url(#H)" d="m449.8 87.7-11.2-29.3 18.8-3.1 5.6 24.1z" fill="url(#L)"/><path clip-path="url(#H)" d="m449.1 79.5c-.1-.4-.3-.8-.4-1.2-1-3.2-1.3-9.7 4-8.7 2 .4 3.6 2.1 4.4 4s .9 4 1 6.1.2 4.2 1 6.1c1.4 3.5 4 4.3 7 5.8 2.5 1.3 4.4 4.4 4.5 7.2 0 .2-5.7-1.6-6.2-1.8-1.7-.8-3.2-1.5-5-2.1-3.2-1.2-8.5-3.6-9.4-7.3-.6-2.3-.2-5.9-.9-8.1z" fill="url(#N)" opacity=".3"/><path d="m436.3 183.2-2-1 7.6-12.8c.2-.4.7-.6 1.1-.4l.5.2c.4.2.6.7.4 1.1z" fill="url(#P)"/><path d="m440 182.7v.4c0 .5-.4.9-.9.9h-7c-.5 0-.9-.4-.9-.9v-.4c0-.5.4-.9.9-.9h7c .5 0 .9.4.9.9z" fill="url(#R)"/><path d="m439.9 181.1c-.1.5-.5.8-.9.8-1.4 0-2.8 0-5.5-.1-2.7 0-6.4-8.7-3.5-10.7s3.1 3.6 3.1 3.6l6.2 5.3c.4.2.7.6.6 1.1z" fill="url(#T)"/><path clip-path="url(#U)" d="m442.5 182.8-43.5-6.9 10.2-64 48.7 9.7z" fill="url(#V)"/><g clip-path="url(#U)"><path d="m409 100.6c.5.8 10.7 25.6 10.7 25.6l33.8 2.2 3-29.5z" fill="url(#X)"/></g><path clip-path="url(#U)" d="m418.7 108.9c-1.8.6-3.5 1.5-4.8 3-2 2.4-2 7.5 1.1 8.9 2.4 1.2 5.6 1.3 8.2 1.5 7.1.6 14.5.6 21.6-.4 5.9-.8 9-7.3 7.3-12.9-1-3.2-10.7-2.8-13.7-2.9-5.5-.1-11.1.5-16.5 1.8-.3.1-.6.2-1 .2-.6.3-1.4.5-2.2.8z" fill="url(#Z)" opacity=".75"/><path clip-path="url(#U)" d="m419.3 102.4c19.3-7 19.9 24.4 19.2 33.2s-15.5 31.1-15.5 31.1-7.2-7.2-3.9-18c3.4-10.8 10-10.6 10.6-15.2.5-4.5-29.7-24.1-10.4-31.1z" fill="url(#ab)" opacity=".3"/><use fill="url(#ac)" xlink:href="#cu"/><path clip-path="url(#ad)" d="m474.4 56.7h32.6v64.6h-32.6z" fill="url(#ae)"/><path clip-path="url(#ad)" d="m488.1 66.4c2.1.7 7.4 1.8 8.2 4.3.8 2.7-7 9.8-8.8 11.6-1 1-1.9 2.2-2.2 3.7-.4 1.5-.1 3.4.9 4.3 1 1 2.3.9 3.6.9 1.2.1 2.7.5 3.1 2 .4 1.3-.2 2.8-.8 3.9-.7 1.1-1.5 2.2-1.6 3.7-.2 2 1.1 3.6 2.3 5 1.6 1.8 3.3 3.7 5.3 4.6 1 .4 2.2.7 3.1 1.5 1.6 1.4 1.8 4.3 1.3 6.7-.8 3.9-3.1 7-6 8.8s-6.1 2.1-9.2 1.6c-6.8-1.1-13.1-6.6-16.4-14.2s-3.5-17.4-.5-25.3c1.1-2.8 2.8-6 2.1-9.3-.6-3-1.9-5.2-1.6-8.4.4-5.4 6.6-6.9 10-7.5 3-.7 4.1 1.1 7.2 2.1z" fill="url(#af)" opacity=".3"/><use fill="url(#ah)" xlink:href="#cv"/><g clip-path="url(#ai)"><path d="m502.3 125.4h-18.4v-26.8h18.4z" fill="url(#aj)"/></g><path clip-path="url(#ai)" d="m501.6 111.6c4.9 9.6-4.6 19.2-14.2 14.3-1.6-.8-2.8-2.1-3.6-3.6-4.9-9.6 4.6-19.2 14.2-14.3 1.5.7 2.8 2 3.6 3.6z" fill="url(#ak)" opacity=".75"/><use fill="url(#al)" xlink:href="#cw"/><path clip-path="url(#am)" d="m373.3 134.3 60.4-.1.1 66.1-60.4.1z" fill="url(#an)"/><path clip-path="url(#am)" d="m452.1 124.5c20 37.6-17.7 75.4-55.3 55.5-5.5-2.9-10.1-7.5-13-13-20-37.6 17.7-75.4 55.3-55.5 5.5 2.9 10.1 7.4 13 13z" fill="url(#ao)" opacity=".75"/><use fill="url(#ap)" xlink:href="#cx"/><path clip-path="url(#aq)" d="m531.9 196.7-60.4.1v-59.2l60.3-.1z" fill="url(#ar)"/><path clip-path="url(#aq)" d="m515.3 166.1c20 37.6-17.7 75.4-55.3 55.5-5.5-2.9-10.1-7.5-13-13-20-37.6 17.7-75.4 55.3-55.5 5.5 3 10.1 7.5 13 13z" fill="url(#as)" opacity=".75"/><path clip-path="url(#at)" d="m434.7 159.5-57.6.1v-26l57.6-.1z" fill="url(#av)"/><path clip-path="url(#at)" d="m417.9 141.9c13 24.4-11.5 49-35.9 36-3.6-1.9-6.5-4.8-8.4-8.4-13-24.4 11.5-49 35.9-36 3.6 1.9 6.5 4.9 8.4 8.4z" fill="url(#ax)" opacity=".75"/><use fill="url(#ay)" xlink:href="#cy"/><path clip-path="url(#az)" d="m485.6 115.3h-15.7v-17.2l15.7-.1z" fill="url(#aA)"/><path clip-path="url(#az)" d="m481.9 106.6c4.6 8.9-4.3 17.7-13.2 13.2-1.5-.7-2.7-1.9-3.4-3.4-4.6-8.9 4.3-17.7 13.2-13.2 1.4.8 2.6 2 3.4 3.4z" fill="url(#aB)"/><path clip-path="url(#aC)" d="m504.6 170.9h-28.2l-.1-59.7h28.3z" fill="url(#aD)"/><path clip-path="url(#aC)" d="m502.4 168.9-8 2.5-18.7-57.9 7.9-2.5z" fill="url(#aE)" opacity=".75"/><path clip-path="url(#aF)" d="m426 115.1 16.8 45.8" fill="#e32f44"/><path clip-path="url(#aF)" d="m423.6 114.6h10.8v19.6h-10.8z" fill="#e4e4e2" transform="matrix(1 -.00146512 .00146512 1 -.1818 .6287)"/><path clip-path="url(#aF)" d="m431.2 143.3 4.6-1.6-11.1-31-4.6 1.7z" fill="url(#aH)" opacity=".4"/><path clip-path="url(#aI)" d="m401.8 128.7h42.3v34h-42.3z" fill="#e32f44" transform="matrix(1 -.00146512 .00146512 1 -.213 .6198)"/><path clip-path="url(#aI)" d="m414.6 171.1 28-10.1-11.1-30.9-28 10z" fill="url(#aJ)" opacity=".4"/><use fill="url(#aK)" xlink:href="#cz"/><path clip-path="url(#aL)" d="m438.9 118.1h-29.1v-10.4h29.1z" fill="url(#aM)"/><path clip-path="url(#aL)" d="m425 114.6c4.3 8.3-4 16.6-12.3 12.4-1.4-.7-2.5-1.8-3.2-3.2-4.3-8.3 4-16.6 12.3-12.4 1.3.7 2.5 1.8 3.2 3.2z" fill="url(#aN)" opacity=".75"/><path clip-path="url(#aO)" d="m489.6 180-87.9.2-.1-67.2 87.9-.1z" fill="url(#aP)"/><g clip-path="url(#aO)"><path d="m446.7 167.6c2 3.8-1.8 7.7-5.7 5.7-.6-.3-1.1-.8-1.4-1.4-2-3.8 1.8-7.7 5.7-5.7.6.4 1.1.9 1.4 1.4z" fill="url(#aQ)"/></g><path clip-path="url(#aO)" d="m488.9 127.4-4.3-10-20.6 37.6c-3.3 5.2-9.1 8.3-15.3 8.4l-48.3.5v17.6l57.1-.5z" fill="url(#aR)" opacity=".4"/><path d="m448.1 158.9 2 1-6.3 10.7c-.2.4-.7.6-1.1.4l-.5-.2c-.4-.2-.6-.7-.4-1.1z" fill="url(#aS)"/><path d="m444.8 159.8v-.4c0-.5.4-.9.9-.9h7c .5 0 .9.4.9.9v.4c0 .5-.4.9-.9.9h-7c-.5 0-.9-.4-.9-.9z" fill="url(#aT)"/><path d="m453.2 157.7c-.1.5-.5.8-.9.8-1.4 0-3.4 0-6 0s-6.3-7.6-3.7-10 3.3 3.5 3.3 3.5l6.8 4.7c.4.1.6.5.5 1z" fill="url(#aU)"/><path clip-path="url(#aV)" d="m469.8 89.9-4.8 77.2-63.4-.7 3.9-83.6z" fill="url(#aW)"/><path clip-path="url(#aV)" d="m453.4 74.1c3.7.1 6.5-2.5 6.3-3.4-.9-4.8-2.5-16.7-4.3-16-.9.3-11.6-2.7-11.6-2.7s5.9 22.1 9.6 22.1z" fill="#d0d2d3"/><g clip-path="url(#aV)"><path d="m407.1 101.6 16.7 31.1 22.6-10.8s17.6-11.9 17.6-19.4-45.1-23-45.1-23z" fill="url(#aX)"/></g><path clip-path="url(#aV)" d="m425.1 82.1c1.3 1 2.3 2.5 2.8 4.1 1.1 3.7-.3 7.6-1.5 11.2s-2.1 7.9 0 11.1c1.3 2 3.6 3.2 5.6 4.5 2.3 1.5 4.6 3.4 5.8 5.9 1.3 2.5 1.5 5.7-.1 8-1.2 1.8-3.3 2.9-5.3 3.6-7.8 2.6-16.9.6-22.8-5.1-4.6-4.4-7.1-11-6.8-17.3.1-1.5.5-3.1.5-4.6-.1-1.5-.2-2.8.1-4.4.7-3.8 2.1-7.4 4-10.7 1.7-3 4.2-5.7 7.3-7.2 3.2-1.4 7.1-1.5 9.9.5.3.2.4.3.5.4z" fill="url(#aY)" opacity=".75"/><path clip-path="url(#aV)" d="m434.3 126.4c-.5-.1-.9-.2-1.4-.2-11.5-1.5-33.8-7.6-29.6-23.6.8-3.1 3-6 6.1-6.9s6.4.3 9.1 2c4.7 2.9 8.5 7.1 12.8 10.6s9.7 6.4 15.2 5.7c1.3-.2 2.6-.5 4-.6 1.3 0 2.8.3 3.7 1.3 2.1 2.3-1.3 4.9-2.2 6.9-1.1 2.4-1.7 5-2 7.6-.7 5.6-.3 11.4.5 17 .4 3.1.9 6.3 1.7 9.4 0 0-15.6-6.2-15.6-13.4 0-3.6-.7-7.9.9-11.2 1.2-2.7-.8-4-3.2-4.6z" fill="url(#aZ)" opacity=".3"/><path clip-path="url(#a0)" d="m457.7 91.3-37.8-1.7.9-42 37.2 1.1z" fill="url(#a1)"/><path clip-path="url(#a0)" d="m430.7 54.2c-5.7 5.5-6.7 13-13.1 17.8-2.7 2-5.1 2.8-7.2 5.7-2 2.7-.6 5.7 1 8.3 2 3.3 5.5 5.4 9.1 6.9s6.9 2 10.5.4c3.8-1.6 7.7-3 11.5-4.5 2.9-1.1 6-2.4 7.3-5.2 1.2-2.6.5-5.6-.1-8.4-.6-3-.9-5.9 1.2-8.3 1.8-2.1 3.4-4.7 3.4-7.6-.1-8.3-16.8-11.7-23.6-5.1z" fill="url(#a2)" opacity=".3"/><path clip-path="url(#a3)" d="m478.9 106.1-48.1-1 .2-52.1 52.3 5.3z" fill="url(#a4)"/><path clip-path="url(#a3)" d="m439.2 89-12.6-31.8 19.7-4.1 5.3 27.1z" fill="url(#a5)"/><path clip-path="url(#a3)" d="m438.4 76.4c-.2-.6-.4-1.1-.6-1.7-1.3-3.7-2.2-7.9-.7-11.5s5.3-5.7 8.8-4.9c7.3 1.7 6.3 10.6 5.5 16.7-.5 4.2-1 8.8.9 12.5 2.3 4.4 7 5.3 9.9 8.8 1.4 1.7 2.7 3.4 3.2 5.7 0 .1.2 2.5.1 2.5 0 0-16.8-8-20.5-10.6-2.5-1.7-4.7-4.8-4.5-8.1 0-3.4-1.1-6.4-2.1-9.4z" fill="url(#a6)" opacity=".3"/><path clip-path="url(#a7)" d="m444.2 63.3 22.6.5.2-30.6-19.1 3.1z" fill="none" stroke="#6d6e70" stroke-miterlimit="10"/><path clip-path="url(#a7)" d="m441.5 66.6 28.6-.1-.1-33.7-24.4 4z" fill="url(#a8)"/><path clip-path="url(#a7)" d="m464.5 48.7-2-.5s.7-3.5.5-5.5-3.1-1.8-4.8-.7-2.7 7.3-.8 9.3 6.9 3.5 6.9 3.5l-13 12.9-9-8c5.2-6.3 8.6-22.1 17.3-24.5 8.3-2.2 12.5 7.5 8.5 7.5-1.1-1.2-2.6-1.1-2.9.2s-.3 4.1-.7 5.8z" fill="url(#a9)" opacity=".3"/><path clip-path="url(#a7)" d="m454.2 50.3c-.8 7.1-5.4 12.6-9.1 12.5 2.1 4.4 7.5 3.4 7.5 3.4l12.3-10.5c-.1 0-6.4-.2-10.7-5.4z" fill="url(#ba)" opacity=".3"/><path d="m474 102.2c-1.3 2.2.9 4.5 3.1 3.2.2-.1.4-.3.6-.6 1.3-2.2-.9-4.5-3.1-3.2-.3.2-.5.4-.6.6z" fill="url(#bb)"/><path clip-path="url(#bc)" d="m433.8 12.6h37.9v40h-37.9z" fill="url(#bd)"/><path clip-path="url(#bc)" d="m445.3 18.1c1.6-.1 3.4 0 4.7 1 1.4 1.1 2 3 1.9 4.8s-.8 3.5-1.5 5.1-1.5 3.3-1.7 5c-.1 1 0 2.1.8 2.6 2.1 1.2 3.7-1.8 4.9-3 1.4-1.4 3.8-2 5.6-1.1 1.4.7 2.5 2 4 1.9.9-.1 1.7-.7 2.6-.9 1.8-.4 3.7 1.1 4.3 2.9 1.6 4.5-1 9.6-4.8 11.9-1.4.9-3 1.6-4.6 2.1-1.2.3-2.4.3-3.7.6-3.6.9-7.1 1.1-10.7.3-3.7-.8-7.4-2.6-9.9-5.5s-3.6-7.1-2.2-10.7c.4-1 .9-1.9 1.3-2.9.6-1.7.7-3.5.7-5.2 0-1.2.5-3.3 0-4.5-.3-.8-1.3-.8-.8-1.6.7-1 3.3-1.6 4.4-2 1.5-.4 3.1-.7 4.7-.8z" fill="url(#be)" opacity=".5"/><path d="m497.9 54.4v-3.7c0-.7.6-1.2 1.2-1.2.7 0 1.2.6 1.2 1.2v3.7c0 .7-.6 1.2-1.2 1.2-.6 0-1.2-.5-1.2-1.2z" fill="url(#bf)"/><path d="m485.5 68.1h-3.7c-.7 0-1.2-.6-1.2-1.2 0-.7.6-1.2 1.2-1.2h3.7c.7 0 1.2.6 1.2 1.2 0 .7-.6 1.2-1.2 1.2z" fill="url(#bg)"/><path d="m516.7 68.1h-3.7c-.7 0-1.2-.6-1.2-1.2 0-.7.6-1.2 1.2-1.2h3.7c.7 0 1.2.6 1.2 1.2 0 .7-.5 1.2-1.2 1.2z" fill="url(#bh)"/><path d="m507.6 56.7 2.6-2.6c.5-.5 1.3-.5 1.8 0 .5.5.5 1.3 0 1.8l-2.6 2.6c-.5.5-1.3.5-1.8 0-.5-.6-.5-1.3 0-1.8z" fill="url(#bi)"/><path d="m489 58.4-2.6-2.6c-.5-.5-.5-1.3 0-1.8.5-.5 1.3-.5 1.8 0l2.6 2.6c.5.5.5 1.3 0 1.8-.5.5-1.3.5-1.8 0z" fill="url(#bj)"/><path clip-path="url(#bk)" d="m115.6 108.4 44.4 8.9 10.3-51.1-44.4-8.9z" fill="url(#bm)"/><path clip-path="url(#bk)" d="m155.4 113.8c-.7 1.2-4.6 3.3-5.9 3.2s-26.2-40.7-26.2-40.7l4.8-4.8s6.4 18.2 11.2 23.5c4.7 5.3 17.3 16.9 16.1 18.8z" fill="url(#bn)" opacity=".3"/><path clip-path="url(#bo)" d="m134.5 186.7-46.2 8.4-13.4-95.4 46.2-8.5z" fill="url(#bq)"/><path clip-path="url(#bo)" d="m124.6 125.3c3.4 4.5 4.1 11 4.2 17 .2 9-.8 18-2.8 26.7-.9 4.1-2.2 8.3-4.9 11.1-2.6 2.8-7 3.8-9.8 1.1-3.2-3.1-2.9-8.9-2.2-13.7.9-6.6 1.8-13.3 2.7-19.9.6-4.8 1.4-16.9-10.3-14.7-11.8 2.1-30.4-34.8-23.5-36 6.9-1.3 43 23.6 46.6 28.4z" fill="url(#br)" opacity=".75"/><use fill="url(#bs)" xlink:href="#cA"/><g clip-path="url(#bt)"><path d="m175.8 134.6-18.3-.1.1-26.7 18.3.1z" fill="url(#bu)"/></g><path clip-path="url(#bt)" d="m174.9 120.2c5.7 10-4.6 20.3-14.6 14.5-1.1-.7-2.1-1.6-2.7-2.7-5.7-10 4.6-20.3 14.6-14.5 1.1.7 2.1 1.6 2.7 2.7z" fill="url(#bv)" opacity=".75"/><use fill="url(#bw)" xlink:href="#cB"/><path clip-path="url(#bx)" d="m46.8 142.7 60.4.3-.4 66.1-60.3-.3z" fill="url(#by)"/><path clip-path="url(#bx)" d="m125.4 132.9c20.4 38-18.1 76.1-55.9 55.3-5.2-2.8-9.4-7.1-12.2-12.3-20.4-38 18.1-76.1 55.9-55.3 5.2 2.8 9.4 7.1 12.2 12.3z" fill="url(#bz)" opacity=".75"/><use fill="url(#bA)" xlink:href="#cC"/><path clip-path="url(#bB)" d="m204.9 206.1-60.3-.3.3-59.1 60.3.3z" fill="url(#bC)"/><path clip-path="url(#bB)" d="m188.3 175c20.4 38-18.1 76.1-55.9 55.3-5.2-2.8-9.4-7.1-12.2-12.3-20.4-38 18.1-76.1 55.9-55.3 5.2 2.8 9.4 7.1 12.2 12.3z" fill="url(#bD)" opacity=".75"/><path clip-path="url(#bE)" d="m108 168.3-57.6-.3.2-26 57.5.3z" fill="url(#bF)"/><path clip-path="url(#bE)" d="m91.2 150.3c13.3 24.7-11.7 49.4-36.2 35.9-3.3-1.8-6.1-4.6-7.9-8-13.3-24.7 11.7-49.4 36.2-35.9 3.3 1.9 6.1 4.7 7.9 8z" fill="url(#bG)" opacity=".75"/><use fill="url(#bH)" xlink:href="#cD"/><path clip-path="url(#bI)" d="m159.2 124.5-15.7-.1.1-17.3 15.7.1z" fill="url(#bJ)"/><path clip-path="url(#bI)" d="m155.2 115.2c5.3 9.3-4.3 18.8-13.5 13.4-1-.6-1.9-1.5-2.5-2.5-5.3-9.3 4.3-18.8 13.5-13.4 1.1.6 1.9 1.5 2.5 2.5z" fill="url(#bK)"/><path clip-path="url(#bL)" d="m177.9 180.1-28.3-.1.3-59.7 28.3.2z" fill="url(#bM)"/><path clip-path="url(#bL)" d="m175.6 178.1-8 2.5-18.3-58 8-2.5z" fill="url(#bN)" opacity=".75"/><path clip-path="url(#bO)" d="m99.7 123.9 16.4 45.9" fill="#e32f44"/><path clip-path="url(#bO)" d="m97.2 123.4h10.8v19.6h-10.8z" fill="#e4e4e2" transform="matrix(1 .00523926 -.00523926 1 .6992 -.5355)"/><path clip-path="url(#bO)" d="m104.6 152.1 4.6-1.6-10.9-31-4.6 1.6z" fill="url(#bP)" opacity=".4"/><path clip-path="url(#bQ)" d="m75.2 137.4h42.3v34h-42.3z" fill="#e32f44" transform="matrix(1 .00523926 -.00523926 1 .8104 -.5028)"/><path clip-path="url(#bQ)" d="m87.8 179.7 28.1-9.8-10.9-31-28 9.8z" fill="url(#bR)" opacity=".4"/><use fill="url(#bS)" xlink:href="#cE"/><path clip-path="url(#bT)" d="m112.5 127-29.1-.2v-10.4l29.2.2z" fill="url(#bU)"/><path clip-path="url(#bT)" d="m98.3 122.8c4.9 8.7-4 17.6-12.6 12.5-1-.6-1.8-1.4-2.3-2.4-4.9-8.7 4-17.6 12.6-12.5.9.6 1.7 1.4 2.3 2.4z" fill="url(#bV)" opacity=".75"/><path clip-path="url(#bW)" d="m162.7 189.2-87.8-.5.4-67.1 87.8.4z" fill="url(#bX)"/><g clip-path="url(#bW)"><path d="m120 176.5c2 3.9-1.9 7.7-5.7 5.6-.6-.3-1-.8-1.3-1.3-2-3.9 1.9-7.7 5.7-5.6.5.2 1 .7 1.3 1.3z" fill="url(#bY)"/></g><path clip-path="url(#bW)" d="m162.4 136.6-4.2-10-21 37.4c-3.4 5.2-9.1 8.3-15.3 8.2l-48.3.2v17.6l57.1-.1z" fill="url(#bZ)" opacity=".4"/><path d="m116 178.8h1.5v-10.1h-1.5z" fill="url(#b0)"/><path d="m112.7 168.5v-.5c0-.4.3-.8.7-.9l6.8-.6c.4 0 .8.3.9.7v.5c0 .4-.3.8-.7.9l-6.8.6c-.5.1-.9-.3-.9-.7z" fill="url(#b1)"/><path d="m114.2 150.6.9 11.4 7.5 1.3c.8.1 1.5.8 1.6 1.7.1.7-.4 1.3-1.1 1.4l-11 .7c-1.3.1-2.3-1-2.2-2.2l1.5-14.4z" fill="url(#b2)"/><path clip-path="url(#b3)" d="m141.7 156-63.8 7.5-5.2-68.4 63.9-7.5z" fill="url(#b4)"/><path clip-path="url(#b3)" d="m100.6 92.6c.6 1.7.1 3.6-.8 5.1s-2.3 2.7-3.8 3.7c-5.3 3.8-11.6 6.2-18.1 6.8-2.4.2-4.9.2-7-.8-2.1-1.1-3.8-3.4-3.4-5.7.4-2.1 2.3-3.6 4.1-4.8 4.9-3.1 10.4-5.4 16.2-6.6 3.8-.8 11.1-2.8 12.8 2.3z" fill="url(#b5)" opacity=".75"/><path clip-path="url(#b3)" d="m80.2 120.8c-2.7-3.4-4.8-7.6-5.9-12.2-1.1-4.4-1.2-9.5 1.1-13.3 2.2-3.7 6.2-5.4 9.9-4.7s6.9 3.5 9.1 7.2c1.6 2.8 2.7 6.1 4.4 8.8 3.7 5.6 7 2.8 11.8 2.9s9.7 1.4 13.5 5c3.5 3.3 5.8 8.2 7 13.3 2.7 11 .7 23.9-6.3 31.8-1.6 1.9-3.5 3.5-5.7 4.2s-4.6.4-6.4-1.3c-2.6-2.5-2.9-7.1-2.6-11.1.4-5.4 1.6-10.6 3.4-15.6.8-2.1 1.7-4.3 2-6.6s-.2-4.9-1.8-6.3c-1.8-1.6-4.5-1-6.4.5-4.2 3-5.8 6.6-11.1 6.2-4.3-.3-8.5-2-12-4.8-1.4-1.1-2.8-2.5-4-4z" fill="url(#b6)" opacity=".75"/><use fill="url(#b8)" xlink:href="#cF"/><g clip-path="url(#b9)"><path d="m123.3 108.8-56.4-8.8 18.5-62.3 51.1 11.3z" fill="url(#ca)"/></g><path clip-path="url(#b9)" d="m128.5 61.1c-1.6-2.6-3.8-4.8-6.1-6-4-2.1-8.9-1.7-13-.1-4.2 1.7-7.7 4.5-11.2 7.3-2.2 1.8-4.6 3.7-5.4 6.5-.8 2.7.2 5.7-.3 8.5-.8 4.4-5.1 8-4.5 12.5.5 3.5 4.2 5.8 7.7 5.9 6.1.3 14.5-3.4 17.4-8.9 1.4-2.6 1.8-5 5-5.2 2.6-.2 5.2-.7 7.6-1.7 7.6-3.4 6.8-12.4 2.8-18.8z" fill="url(#cb)" opacity=".5"/><path clip-path="url(#cc)" d="m130.1 91.5-60.8-16.2 12.4-46.8 60.9 16.2z" fill="url(#cd)"/><path clip-path="url(#cc)" d="m111.4 62.4c-2 1-6.1 1.9-6.2 4.5-.1 2.3 1.7 4.9 3.4 6.3 2.7 2.3 6.8 4.4 10.4 2.9 5.2-2.2 1.5-8.8 3.1-13.2 1.2-3.3 4.9-6 8.2-4.8 1.8.6 3.1 2.3 4 3.9 2.4 4.4 2.9 9.7 1.4 14.5-3.2 10-10.8 10.8-19.8 12.2-12.5 2-25.6-.6-36.3-7.4-2.9-1.8-5.8-4.2-6.7-7.5-1-3.7.6-7.6 2.3-11 1.1-2.3 2.2-4.6 3.5-6.7 1-1.5 2-3 3.3-4.3 1.7-1.7 4-3.8 6.4-4.2 3-.6 3.5 2.1 3.2 4.8-.2 2-1.5 6.8.3 8.3 1.3 1.1 3.2.3 4.6-.5 3-1.7 6-3.4 9-5.1 3.2-1.8 12.3-4.2 12.3-4.2s5 1 8 2.9c.7.4 1.3.9 1.7 1.5s.5 1.5.1 2.2c-.5.8-1.6 1-2.5 1-1.2 0-2.4-.2-3.5-.6-1-.3-1.8-1.1-2.8-1.2-2-.2-2.6 2.3-3.8 3.4-1 1-2.3 1.7-3.6 2.3z" fill="url(#ce)" opacity=".4"/><path clip-path="url(#cf)" d="m117.9 66.1 27.2 5.1 5.6-29.9-27.1-5.1z" fill="url(#cg)"/><path clip-path="url(#cf)" d="m128 53.7c.2.5.3 1.1.4 1.7.2 1.5.1 3-.3 4.4-1 2.9-3.4 5.3-6.4 6.1 2.1 2 5.3 2.7 8 1.7 2.1-.7 4.4-2.7 5-4.9.5-2.3-2.2-3.8-3.3-5.5-.6-1-1.1-2.1-1.1-3.3 0-2.1 1.6-4 3.4-5.1 3.7-2.2 8.1-1.5 11.8.2.7.3 1.5.7 2.2.3.5-.3.4-5 .4-5.6-1-.4-2-.7-3-1.2-1.7-1-3.6-1.4-5.2-2.5-1.8-1.3-4-1.7-6.2-1.1-2.1.5-3.9 1.9-5 3.8-.7 1.3-1.1 2.8-1.4 4.2-.2 1.1-.9 3-.7 4.1.1.6.8 1.3 1 1.8.3.5.4.7.4.9z" fill="url(#ch)" opacity=".5"/><path clip-path="url(#cf)" d="m131.1 44 1.1 8.8c-.1-.7 3.1-1.6 3.6-1.8 1.7-.5 3.3-1.1 5-.2 1.3.7 2.1 2.2 2.3 3.6.2 1.5 0 3-.2 4.4 1.3.2 2.5.5 3.8.7 2.2-3.3 1.6-6.6.3-10-.8-2.1-1.2-4.4-1.8-6.6z" fill="url(#ci)" opacity=".5"/><path clip-path="url(#cj)" d="m96.1 104.6 59.4 12 10.3-51.1-59.4-12z" fill="url(#ck)"/><path clip-path="url(#cj)" d="m146.8 108.2c1.5 2 2.4 4.4 1.2 6.3-.7 1.2-2.3 1.7-3.7 1.6s-2.8-.6-4.1-1.2c-7.2-3.3-13.9-7.7-19.8-12.9-2.8-2.5-4.8-4.6-5.6-8.2-.9-4.1-6.7-19.7-6.7-19.7 4.1-1.1 8.4.8 10.5 4.6 3.2 6 8.2 14.4 11.8 16.8 4.2 2.8 8.5 5.4 12.5 8.6 1 .9 2.6 2.4 3.9 4.1z" fill="url(#cl)" opacity=".3"/><path clip-path="url(#cj)" d="m118.8 52.6c-1.3-1.3-3-1.8-5.1-.5-1.5.9-2.4 2.4-3.1 4-3.6 7.2-8.2 17.9-3.2 25.8 1.9 3.1 5.3 5.3 8.8 5.6 4.7.3 9-3 10.7-7.3s1.3-9.3-.3-13.8c-1.5-4.2-4-7.6-6.1-11.5-.5-.8-1-1.6-1.7-2.3z" fill="url(#cm)" opacity=".3"/><path d="m135.2 38v-3.6c0-.7.5-1.2 1.2-1.2.7 0 1.2.5 1.2 1.2v3.6c0 .7-.5 1.2-1.2 1.2-.7 0-1.2-.5-1.2-1.2z" fill="url(#cn)"/><path d="m123.1 51.3h-3.6c-.7 0-1.2-.5-1.2-1.2 0-.7.5-1.2 1.2-1.2h3.6c.7 0 1.2.5 1.2 1.2 0 .7-.6 1.2-1.2 1.2z" fill="url(#co)"/><path d="m153.4 51.3h-3.6c-.7 0-1.2-.5-1.2-1.2 0-.7.5-1.2 1.2-1.2h3.6c.7 0 1.2.5 1.2 1.2 0 .7-.6 1.2-1.2 1.2z" fill="url(#cp)"/><path d="m144.6 40.2 2.6-2.6c.5-.5 1.2-.5 1.7 0 .5.5.5 1.2 0 1.7l-2.6 2.6c-.5.5-1.2.5-1.7 0-.5-.4-.5-1.2 0-1.7z" fill="url(#cq)"/><path d="m126.5 41.9-2.6-2.6c-.5-.5-.5-1.2 0-1.7.5-.5 1.2-.5 1.7 0l2.6 2.6c.5.5.5 1.2 0 1.7-.5.5-1.2.5-1.7 0z" fill="url(#cr)"/><ellipse cx="134.9" cy="51.5" fill="url(#cs)" rx="4.1" ry="4.1"/><path d="m134.1 50.1c0-2.7.1-3.8 1.5-6.8.2-.5.8-1.9 1.1-2.2.9-1.1 2.1.2 1.9.5-.3.5-1 1.3-1.7 3-1.5 3.4-1.1 6.1-1.1 6.9 0 .9-1.7 1.9-1.7-1.4z" fill="url(#ct)"/></svg>