<svg enable-background="new 0 0 302.3 301.5" viewBox="0 0 302.3 301.5" xmlns="http://www.w3.org/2000/svg" xmlns:xlink="http://www.w3.org/1999/xlink"><path d="m0 .2h302.3v301.3h-302.3z" fill="url(#a)"/><path d="m0 127.9h207.5v7.4h-207.5z" fill="#fff"/><path d="m2 85.7h9.3v36.5h-9.3z" fill="#fff"/><path d="m16.8 85.7h9.3v36.5h-9.3z" fill="#fff"/><path d="m16.8 85.7h9.3v36.5h-9.3z" fill="#fff"/><path d="m31.6 85.7h9.3v36.5h-9.3z" fill="#fff"/><path d="m46.4 85.7h9.3v36.5h-9.3z" fill="#fff"/><path d="m61.1 85.7h9.3v36.5h-9.3z" fill="#fff"/><path d="m75.9 85.7h9.3v36.5h-9.3z" fill="#fff"/><path d="m90.7 85.7h9.3v36.5h-9.3z" fill="#fff"/><path d="m105.4 85.7h9.3v36.5h-9.3z" fill="#fff"/><path d="m120.2 85.7h9.3v36.5h-9.3z" fill="#fff"/><path d="m135 85.7h9.3v36.5h-9.3z" fill="#fff"/><path d="m149.8 85.7h9.3v36.5h-9.3z" fill="#fff"/><path d="m164.5 85.7h9.3v36.5h-9.3z" fill="#fff"/><path d="m179.3 85.7h9.3v36.5h-9.3z" fill="#fff"/><path d="m194 85.7h9.3v36.5h-9.3z" fill="#fff"/><path d="m236.1 44.6h9.3v36.5h-9.3z" fill="#fff" transform="matrix(0 -1 1 0 177.8996 303.6773)"/><path d="m236.1 29.9h9.3v36.5h-9.3z" fill="#fff" transform="matrix(0 -1 1 0 192.6631 288.9139)"/><path d="m236.1 15.1h9.3v36.5h-9.3z" fill="#fff" transform="matrix(0 -1 1 0 207.4266 274.1504)"/><path d="m236.1.3h9.3v36.5h-9.3z" fill="#fff" transform="matrix(0 -1 1 0 222.19 259.387)"/><path d="m236.6-14h8.5v36.5h-8.5z" fill="#fff" transform="matrix(0 -1 1 0 236.551 245.026)"/><path d="m232.7 32.3h71.6v7.4h-71.6z" fill="#fff" transform="matrix(0 1 -1 0 304.5047 -232.3819)"/><path d="m302.3 72.1h-68.2c-6.8.7-25.2 14.5-25.7 23.6l-.1 205.9h93.9v-197.3h.1z" fill="#bbbdbf"/><path d="m209.1 178.9h93.2v1.7h-93.2z" fill="#d6d6d5"/><path d="m209.1 259.6h93.2v1.7h-93.2z" fill="#d6d6d5"/><path d="m209.8 301.5h-2.8v-205c0-.7 25.5-26.5 30.4-26.5h65v2.8l-66.8.1c-4.1 0-25.7 17.8-25.7 17.9v5.7 205z" fill="#fad03b"/><path d="m235.5 201.2h28.8v27.5h-28.8z" fill="url(#c)"/><path d="m259.8 216.2c0-.6-.1-1.1-.2-1.6 0-.2 0-.4 0-.6 0-1.7-.4-3.3-1.1-4.7.1-.4.2-.9.2-1.3 0-2.9-2.4-5.3-5.3-5.3-1.1 0-2.2.4-3.1 1-.3 0-.7-.1-1-.1-2.1 0-4.1.6-5.8 1.7-.2 0-.5-.1-.8-.1-2.9 0-5.3 2.4-5.3 5.3 0 1.4.6 2.7 1.5 3.7v.6c-.9 1-1.5 2.3-1.5 3.7 0 2.9 2.4 5.3 5.3 5.3.8 0 1.6-.2 2.2-.5.8 2 2.7 3.4 5 3.4 2.6 0 4.8-1.9 5.2-4.3.6-.4 1.2-.9 1.7-1.5 1.8-.8 3-2.6 3-4.7z" fill="url(#e)"/><path d="m235.5 114h28.8v27.5h-28.8z" fill="url(#f)"/><path d="m259.8 129.1c0-.6-.1-1.1-.2-1.6 0-.2 0-.4 0-.6 0-1.7-.4-3.3-1.1-4.7.1-.4.2-.9.2-1.3 0-2.9-2.4-5.3-5.3-5.3-1.1 0-2.2.4-3.1 1-.3 0-.7-.1-1-.1-2.1 0-4.1.6-5.8 1.7-.2 0-.5-.1-.8-.1-2.9 0-5.3 2.4-5.3 5.3 0 1.4.6 2.7 1.5 3.7v.6c-.9 1-1.5 2.3-1.5 3.7 0 2.9 2.4 5.3 5.3 5.3.8 0 1.6-.2 2.2-.5.8 2 2.7 3.4 5 3.4 2.6 0 4.8-1.9 5.2-4.3.6-.4 1.2-.9 1.7-1.5 1.8-.9 3-2.7 3-4.7z" fill="url(#g)"/><linearGradient id="a" gradientUnits="userSpaceOnUse" x1="151.1294" x2="151.1294" y1="301.5401" y2=".2311"><stop offset=".03517618" stop-color="#4f4d4d"/><stop offset="1" stop-color="#4f4d4d"/></linearGradient><linearGradient id="b"><stop offset="0" stop-color="#781a26"/><stop offset=".2055" stop-color="#741e24"/><stop offset=".4189" stop-color="#682b1f"/><stop offset=".636" stop-color="#543f16"/><stop offset=".8542" stop-color="#395c0a"/><stop offset="1" stop-color="#227400"/></linearGradient><radialGradient id="c" cx="249.8573" cy="214.9537" gradientUnits="userSpaceOnUse" r="14.0791" xlink:href="#b"/><linearGradient id="d"><stop offset="0" stop-color="#8cc65b"/><stop offset="1" stop-color="#507e24"/></linearGradient><linearGradient id="e" gradientUnits="userSpaceOnUse" x1="237.362" x2="259.7614" xlink:href="#d" y1="214.7911" y2="214.7911"/><radialGradient id="f" cx="249.8573" cy="127.7596" gradientUnits="userSpaceOnUse" r="14.0791" xlink:href="#b"/><linearGradient id="g" gradientUnits="userSpaceOnUse" x1="237.362" x2="259.7614" xlink:href="#d" y1="127.597" y2="127.597"/><clipPath id="h"><path d="m233.2 286.2h33.2v15.3h-33.2z"/></clipPath><radialGradient id="i" cx="249.8573" cy="302.1477" gradientUnits="userSpaceOnUse" r="14.0791" xlink:href="#b"/><linearGradient id="j" gradientUnits="userSpaceOnUse" x1="237.362" x2="259.7614" xlink:href="#d" y1="301.9852" y2="301.9852"/><linearGradient id="k"><stop offset="0" stop-color="#151b26"/><stop offset="1" stop-color="#151b26"/></linearGradient><linearGradient id="l" gradientUnits="userSpaceOnUse" x1="157.3412" x2="157.3412" xlink:href="#k" y1="63.3348" y2="86.5724"/><linearGradient id="m"><stop offset="0" stop-color="#ed3f50"/><stop offset=".2472" stop-color="#e23244"/><stop offset=".5761" stop-color="#da283b"/><stop offset="1" stop-color="#d72538"/></linearGradient><linearGradient id="n" gradientUnits="userSpaceOnUse" x1="157.3412" x2="157.3412" xlink:href="#m" y1="55.308" y2="73.5291"/><linearGradient id="o"><stop offset="0" stop-color="#d6d6d5"/><stop offset="1" stop-color="#e3e3e2"/></linearGradient><linearGradient id="p" gradientTransform="matrix(0 -1 1 0 1404.7181 648.0092)" gradientUnits="userSpaceOnUse" x1="587.3238" x2="587.3238" xlink:href="#o" y1="-1249.6899" y2="-1248.5914"/><linearGradient id="q" gradientTransform="matrix(0 -1 1 0 1404.7181 648.0092)" gradientUnits="userSpaceOnUse" x1="587.3238" x2="587.3238" xlink:href="#o" y1="-1246.1626" y2="-1245.0641"/><linearGradient id="r" gradientUnits="userSpaceOnUse" x1="157.3412" x2="157.3412" xlink:href="#k" y1="9.8404" y2="33.0779"/><linearGradient id="s" gradientUnits="userSpaceOnUse" x1="155.8622" x2="155.8622" xlink:href="#m" y1="26.4666" y2="31.7079"/><linearGradient id="t" gradientTransform="matrix(-1 0 0 1 1771.8876 311.6851)" gradientUnits="userSpaceOnUse" x1="1613.1115" x2="1613.1115" xlink:href="#m" y1="-285.2185" y2="-279.9772"/><linearGradient id="u" gradientUnits="userSpaceOnUse" x1="157.3579" x2="157.3579" xlink:href="#o" y1="33.5402" y2="53.5279"/><linearGradient id="v"><stop offset="0" stop-color="#282e5d"/><stop offset="1" stop-color="#2b52a1"/></linearGradient><linearGradient id="w" gradientUnits="userSpaceOnUse" x1="157.6447" x2="163.9822" xlink:href="#v" y1="48.861" y2="48.861"/><linearGradient id="x" gradientUnits="userSpaceOnUse" x1="150.4732" x2="156.8107" xlink:href="#v" y1="47.9601" y2="47.9601"/><linearGradient id="y" gradientUnits="userSpaceOnUse" x1="156.6255" x2="156.6255" xlink:href="#v" y1="51.9248" y2="58.953"/><linearGradient id="z"><stop offset="0" stop-color="#ffc65b"/><stop offset="1" stop-color="#fab224"/></linearGradient><linearGradient id="A" gradientUnits="userSpaceOnUse" x1="150.124" x2="163.3062" xlink:href="#z" y1="53.28" y2="53.28"/><linearGradient id="B" gradientUnits="userSpaceOnUse" x1="169.9061" x2="169.9061" xlink:href="#z" y1="30.5649" y2="36.5888"/><linearGradient id="C" gradientUnits="userSpaceOnUse" x1="144.0553" x2="144.0553" xlink:href="#z" y1="30.5649" y2="36.5888"/><linearGradient id="D" gradientTransform="matrix(.9993 .03671309 -.03433254 .9345 1247.2321 307.1245)" gradientUnits="userSpaceOnUse" x1="-1087.0591" x2="-1087.0591" xlink:href="#v" y1="-247.8278" y2="-222.7468"/><linearGradient id="E" gradientTransform="matrix(-.9993 .03671309 .03433254 .9345 1743.6516 307.1245)" gradientUnits="userSpaceOnUse" x1="1587.8363" x2="1587.8363" xlink:href="#v" y1="-352.9116" y2="-327.8306"/><linearGradient id="F"><stop offset="0" stop-color="#3f444e"/><stop offset="1" stop-color="#1b2226"/></linearGradient><linearGradient id="G" gradientUnits="userSpaceOnUse" x1="157.3184" x2="157.2041" xlink:href="#F" y1="30.7361" y2="33.8442"/><linearGradient id="H" gradientUnits="userSpaceOnUse" x1="151.4537" x2="151.4537" xlink:href="#F" y1="31.1464" y2="34.7423"/><linearGradient id="I" gradientTransform="matrix(-1 0 0 1 1780.9764 311.6851)" gradientUnits="userSpaceOnUse" x1="1617.5846" x2="1617.5846" xlink:href="#F" y1="-280.5387" y2="-276.9428"/><linearGradient id="J" gradientUnits="userSpaceOnUse" x1="157.3579" x2="157.3579" xlink:href="#F" y1="29.4565" y2="35.4804"/><linearGradient id="K" gradientUnits="userSpaceOnUse" x1="157.3412" x2="157.3412" xlink:href="#F" y1="27.2271" y2="28.3256"/><linearGradient id="L" gradientUnits="userSpaceOnUse" x1="150.1345" x2="163.2876" y1="55.666" y2="55.666"><stop offset="0" stop-color="#802900"/><stop offset=".0238508" stop-color="#812a00"/><stop offset=".6211" stop-color="#924100"/><stop offset="1" stop-color="#984900"/></linearGradient><linearGradient id="M" gradientUnits="userSpaceOnUse" x1="123.4911" x2="144.269" y1="49.7652" y2="49.7652"><stop offset="0" stop-color="#10a290"/><stop offset="1" stop-color="#49b1a6"/></linearGradient><linearGradient id="N" gradientUnits="userSpaceOnUse" x1="55.7315" x2="55.7315" xlink:href="#k" y1="200.7263" y2="222.3248"/><linearGradient id="O" gradientUnits="userSpaceOnUse" x1="55.7315" x2="55.7315" xlink:href="#m" y1="193.2656" y2="210.2015"/><linearGradient id="P" gradientTransform="matrix(0 -1 1 0 1218.527 780.9324)" gradientUnits="userSpaceOnUse" x1="582.6686" x2="582.6686" xlink:href="#o" y1="-1164.9453" y2="-1163.9242"/><linearGradient id="Q" gradientTransform="matrix(0 -1 1 0 1218.527 780.9324)" gradientUnits="userSpaceOnUse" x1="582.6686" x2="582.6686" xlink:href="#o" y1="-1161.6666" y2="-1160.6456"/><linearGradient id="R" gradientUnits="userSpaceOnUse" x1="55.7315" x2="55.7315" xlink:href="#k" y1="151.0051" y2="172.6036"/><linearGradient id="S" gradientUnits="userSpaceOnUse" x1="54.3568" x2="54.3568" xlink:href="#m" y1="166.4586" y2="171.3302"/><linearGradient id="T" gradientTransform="matrix(-1 0 0 1 1585.6963 444.6083)" gradientUnits="userSpaceOnUse" x1="1528.6311" x2="1528.6311" xlink:href="#m" y1="-278.1497" y2="-273.2781"/><linearGradient id="U" gradientUnits="userSpaceOnUse" x1="55.7469" x2="55.7469" xlink:href="#o" y1="173.0333" y2="191.6111"/><linearGradient id="V"><stop offset="0" stop-color="#3b2e61"/><stop offset="1" stop-color="#6052a1"/></linearGradient><linearGradient id="W" gradientUnits="userSpaceOnUse" x1="56.0135" x2="61.904" xlink:href="#V" y1="187.2734" y2="187.2734"/><linearGradient id="X" gradientUnits="userSpaceOnUse" x1="49.3478" x2="55.2383" xlink:href="#V" y1="186.436" y2="186.436"/><linearGradient id="Y" gradientUnits="userSpaceOnUse" x1="55.0662" x2="55.0662" xlink:href="#V" y1="190.1211" y2="196.6536"/><linearGradient id="Z" gradientUnits="userSpaceOnUse" x1="49.0234" x2="61.2757" xlink:href="#z" y1="191.3807" y2="191.3807"/><linearGradient id="aa" gradientUnits="userSpaceOnUse" x1="67.4102" x2="67.4102" xlink:href="#z" y1="170.2678" y2="175.8668"/><linearGradient id="ab" gradientUnits="userSpaceOnUse" x1="43.3827" x2="43.3827" xlink:href="#z" y1="170.2678" y2="175.8668"/><linearGradient id="ac" gradientTransform="matrix(.9993 .03671309 -.03433254 .9345 1061.0408 440.0477)" gradientUnits="userSpaceOnUse" x1="-1003.1498" x2="-1003.1498" xlink:href="#V" y1="-244.2506" y2="-220.9387"/><linearGradient id="ad" gradientTransform="matrix(-.9993 .03671309 .03433254 .9345 1557.4604 440.0477)" gradientUnits="userSpaceOnUse" x1="1502.6615" x2="1502.6615" xlink:href="#V" y1="-342.6919" y2="-319.38"/><linearGradient id="ae" gradientUnits="userSpaceOnUse" x1="55.7102" x2="55.6041" xlink:href="#F" y1="170.4269" y2="173.3159"/><linearGradient id="af" gradientUnits="userSpaceOnUse" x1="50.2593" x2="50.2593" xlink:href="#F" y1="170.8083" y2="174.1506"/><linearGradient id="ag" gradientTransform="matrix(-1 0 0 1 1594.7853 444.6083)" gradientUnits="userSpaceOnUse" x1="1533.4298" x2="1533.4298" xlink:href="#F" y1="-273.8" y2="-270.4577"/><linearGradient id="ah" gradientUnits="userSpaceOnUse" x1="55.7469" x2="55.7469" xlink:href="#F" y1="169.2375" y2="174.8366"/><linearGradient id="ai" gradientUnits="userSpaceOnUse" x1="55.7315" x2="55.7315" xlink:href="#F" y1="167.1655" y2="168.1865"/><linearGradient id="aj" gradientUnits="userSpaceOnUse" x1="49.0234" x2="61.2757" xlink:href="#o" y1="194.6533" y2="194.6533"/><linearGradient id="ak" gradientUnits="userSpaceOnUse" x1="284.0428" x2="284.0428" xlink:href="#k" y1="197.7263" y2="219.3248"/><linearGradient id="al" gradientUnits="userSpaceOnUse" x1="284.0428" x2="284.0428" xlink:href="#m" y1="190.2656" y2="207.2015"/><linearGradient id="am" gradientTransform="matrix(0 -1 1 0 1218.527 780.9324)" gradientUnits="userSpaceOnUse" x1="585.6686" x2="585.6686" xlink:href="#o" y1="-936.6339" y2="-935.6129"/><linearGradient id="an" gradientTransform="matrix(0 -1 1 0 1218.527 780.9324)" gradientUnits="userSpaceOnUse" x1="585.6686" x2="585.6686" xlink:href="#o" y1="-933.3553" y2="-932.3343"/><linearGradient id="ao" gradientUnits="userSpaceOnUse" x1="284.0428" x2="284.0428" xlink:href="#k" y1="148.0051" y2="169.6036"/><linearGradient id="ap" gradientUnits="userSpaceOnUse" x1="282.6681" x2="282.6681" xlink:href="#m" y1="163.4586" y2="168.3302"/><linearGradient id="aq" gradientTransform="matrix(-1 0 0 1 1585.6963 444.6083)" gradientUnits="userSpaceOnUse" x1="1300.3198" x2="1300.3198" xlink:href="#m" y1="-281.1497" y2="-276.2781"/><linearGradient id="ar" gradientUnits="userSpaceOnUse" x1="284.0583" x2="284.0583" xlink:href="#o" y1="170.0333" y2="188.6111"/><linearGradient id="as"><stop offset="0" stop-color="#25334d"/><stop offset="1" stop-color="#3e537d"/></linearGradient><linearGradient id="at" gradientUnits="userSpaceOnUse" x1="284.3249" x2="290.2154" xlink:href="#as" y1="184.2734" y2="184.2734"/><linearGradient id="au" gradientUnits="userSpaceOnUse" x1="277.6592" x2="283.5497" xlink:href="#as" y1="183.436" y2="183.436"/><linearGradient id="av"><stop offset="0" stop-color="#5e3c00"/><stop offset="1" stop-color="#9a5200"/></linearGradient><linearGradient id="aw" gradientUnits="userSpaceOnUse" x1="283.3776" x2="283.3776" xlink:href="#av" y1="187.1211" y2="193.6536"/><linearGradient id="ax" gradientUnits="userSpaceOnUse" x1="277.3348" x2="289.5871" xlink:href="#z" y1="188.3807" y2="188.3807"/><linearGradient id="ay" gradientUnits="userSpaceOnUse" x1="295.7215" x2="295.7215" xlink:href="#z" y1="167.2678" y2="172.8668"/><linearGradient id="az" gradientUnits="userSpaceOnUse" x1="271.6941" x2="271.6941" xlink:href="#z" y1="167.2678" y2="172.8668"/><linearGradient id="aA" gradientTransform="matrix(.9993 .03671309 -.03433254 .9345 1061.0408 440.0477)" gradientUnits="userSpaceOnUse" x1="-775.1025" x2="-775.1025" xlink:href="#av" y1="-256.4196" y2="-233.1078"/><linearGradient id="aB" gradientTransform="matrix(-.9993 .03671309 .03433254 .9345 1557.4604 440.0477)" gradientUnits="userSpaceOnUse" x1="1274.3939" x2="1274.3939" xlink:href="#av" y1="-336.9345" y2="-313.6226"/><linearGradient id="aC" gradientUnits="userSpaceOnUse" x1="284.0216" x2="283.9155" xlink:href="#F" y1="167.4269" y2="170.3159"/><linearGradient id="aD" gradientUnits="userSpaceOnUse" x1="278.5706" x2="278.5706" xlink:href="#F" y1="167.8083" y2="171.1506"/><linearGradient id="aE" gradientTransform="matrix(-1 0 0 1 1594.7853 444.6083)" gradientUnits="userSpaceOnUse" x1="1305.1185" x2="1305.1185" xlink:href="#F" y1="-276.8" y2="-273.4577"/><linearGradient id="aF" gradientUnits="userSpaceOnUse" x1="284.0583" x2="284.0583" xlink:href="#F" y1="166.2375" y2="171.8366"/><linearGradient id="aG" gradientUnits="userSpaceOnUse" x1="284.0428" x2="284.0428" xlink:href="#F" y1="164.1655" y2="165.1865"/><linearGradient id="aH" gradientUnits="userSpaceOnUse" x1="277.3348" x2="289.5805" xlink:href="#o" y1="190.8631" y2="190.8631"/><linearGradient id="aI" gradientTransform="matrix(-.9208 .39 -.39 -.9208 5898.5723 -3051.6084)" gradientUnits="userSpaceOnUse" x1="6626.5288" x2="6626.5288" xlink:href="#k" y1="-565.5063" y2="-543.1317"/><linearGradient id="aJ" gradientTransform="matrix(.9208 -.39 -.39 -.9208 5672.0562 -2955.6611)" gradientUnits="userSpaceOnUse" x1="-6332.1899" x2="-6332.1899" xlink:href="#k" y1="-565.376" y2="-543.0013"/><linearGradient id="aK" gradientTransform="matrix(-.9208 .39 -.39 -.9208 5898.5723 -3051.6084)" gradientUnits="userSpaceOnUse" x1="6628.7021" x2="6628.7021" xlink:href="#k" y1="-618.0356" y2="-595.6609"/><linearGradient id="aL" gradientTransform="matrix(.9208 -.39 -.39 -.9208 5672.0562 -2955.6611)" gradientUnits="userSpaceOnUse" x1="-6331.2637" x2="-6331.2637" xlink:href="#k" y1="-617.9951" y2="-595.6204"/><linearGradient id="aM"><stop offset="0" stop-color="#d72538"/><stop offset="1" stop-color="#d72538"/></linearGradient><linearGradient id="aN" gradientTransform="matrix(-.9208 .39 -.39 -.9208 5898.5723 -3051.6084)" gradientUnits="userSpaceOnUse" x1="6573.3799" x2="6586.1328" xlink:href="#aM" y1="-560.564" y2="-547.8107"/><linearGradient id="aO" gradientTransform="matrix(-.9208 .39 -.39 -.9208 5898.5723 -3051.6084)" gradientUnits="userSpaceOnUse" x1="6618.585" x2="6631.3384" xlink:href="#aM" y1="-560.6943" y2="-547.9411"/><linearGradient id="aP" gradientTransform="matrix(-.9208 .39 -.39 -.9208 5898.5723 -3051.6084)" gradientUnits="userSpaceOnUse" x1="6572.0127" x2="6584.7661" xlink:href="#m" y1="-613.1843" y2="-600.4311"/><linearGradient id="aQ" gradientTransform="matrix(-.9208 .39 -.39 -.9208 5898.5723 -3051.6084)" gradientUnits="userSpaceOnUse" x1="6621.0366" x2="6633.79" xlink:href="#m" y1="-613.2249" y2="-600.4716"/><linearGradient id="aR" gradientTransform="matrix(-.39 -.9208 .9208 -.39 5904.4863 -3358.6697)" gradientUnits="userSpaceOnUse" x1="-921.2444" x2="-898.4747" xlink:href="#m" y1="-6727.7373" y2="-6727.7373"/><linearGradient id="aS" gradientTransform="matrix(.9872 .1596 -.1596 .9872 146.2715 -385.0771)" gradientUnits="userSpaceOnUse" x1="-70.3288" x2="17.1073" xlink:href="#m" y1="454.6338" y2="454.6338"/><linearGradient id="aT"><stop offset="0" stop-color="#fab11f"/><stop offset="1" stop-color="#ffff5d"/></linearGradient><linearGradient id="aU" gradientTransform="matrix(-.9272 .3746 -.3746 -.9272 6034.8438 -3086.3977)" gradientUnits="userSpaceOnUse" x1="6736.0566" x2="6744.4458" xlink:href="#aT" y1="-730.0509" y2="-730.0509"/><linearGradient id="aV" gradientTransform="matrix(-.3746 -.9272 .9272 -.3746 5981.8877 -3307.0942)" gradientUnits="userSpaceOnUse" x1="-955.293" x2="-951.5755" xlink:href="#m" y1="-6774.0308" y2="-6774.0308"/><linearGradient id="aW"><stop offset="0" stop-color="#d6d6d5"/><stop offset="1" stop-color="#d6d6d5" stop-opacity="0"/></linearGradient><linearGradient id="aX" gradientTransform="matrix(-.6977 -.7164 .7164 -.6977 5846.1807 -3308.7686)" gradientUnits="userSpaceOnUse" x1="1599.2108" x2="1625.594" xlink:href="#aW" y1="-6512.0493" y2="-6512.0493"/><linearGradient id="aY" gradientTransform="matrix(-.39 -.9208 -.9208 .39 6083.6348 -3458.0642)" gradientUnits="userSpaceOnUse" x1="-894.1038" x2="-863.4131" xlink:href="#aW" y1="6912.9863" y2="6912.9863"/><linearGradient id="aZ" gradientTransform="matrix(-.39 -.9208 .9208 -.39 5135.7314 -3056.5525)" gradientUnits="userSpaceOnUse" x1="-894.3242" x2="-863.3681" xlink:href="#aW" y1="-5919.7695" y2="-5919.7695"/><linearGradient id="a0"><stop offset="0" stop-color="#fab11f"/><stop offset="1" stop-color="#ffc55d"/></linearGradient><linearGradient id="a1" gradientTransform="matrix(-.39 -.9208 .9208 -.39 5904.4863 -3358.6697)" gradientUnits="userSpaceOnUse" x1="-820.2378" x2="-818.8953" xlink:href="#a0" y1="-6743.5664" y2="-6743.5664"/><linearGradient id="a2" gradientTransform="matrix(-.39 -.9208 .9208 -.39 5904.4863 -3358.6697)" gradientUnits="userSpaceOnUse" x1="-820.2378" x2="-818.8953" xlink:href="#a0" y1="-6713.1953" y2="-6713.1953"/><linearGradient id="a3" gradientTransform="matrix(.6977 .7164 -.7164 .6977 5579.4082 -2864.7148)" gradientUnits="userSpaceOnUse" x1="-1788.9932" x2="-1775.5579" xlink:href="#aW" y1="5997.9243" y2="5997.9243"/><clipPath id="a4"><path d="m82.4 83.2s9.6 22.7-14.3 30.7c-20.6 6.9-28.3-6.6-29.2-8.7s-1-3.2-1-3.2z"/></clipPath><linearGradient id="a5"><stop offset="0" stop-color="#414141" stop-opacity="0"/><stop offset="1" stop-color="#737373"/></linearGradient><linearGradient id="a6" gradientTransform="matrix(-.9208 .39 -.39 -.9208 5898.5723 -3051.6084)" gradientUnits="userSpaceOnUse" x1="6557.3687" x2="6603.7295" xlink:href="#a5" y1="-629.1245" y2="-629.1245"/><linearGradient id="a7" gradientTransform="matrix(-.9177 .3972 -.3972 -.9177 5973.5566 -3148.489)" gradientUnits="userSpaceOnUse" x1="6699.4648" x2="6707.854" xlink:href="#aT" y1="-645.7956" y2="-645.7956"/><linearGradient id="a8" gradientTransform="matrix(-.3972 -.9177 .9177 -.3972 5915.1963 -3367.8184)" gradientUnits="userSpaceOnUse" x1="-871.0377" x2="-867.3202" xlink:href="#m" y1="-6737.4385" y2="-6737.4385"/><linearGradient id="a9" gradientTransform="matrix(.9872 .1596 -.1596 .9872 146.2715 -385.0771)" gradientUnits="userSpaceOnUse" x1="-64.9387" x2="11.6623" xlink:href="#a5" y1="442.9378" y2="442.9378"/><linearGradient id="ba"><stop offset="0" stop-color="#8d2d37"/><stop offset="1" stop-color="#781a26"/></linearGradient><linearGradient id="bb" gradientUnits="userSpaceOnUse" x1="243.6543" x2="247.1095" xlink:href="#ba" y1="86.6982" y2="86.6982"/><linearGradient id="bc" gradientUnits="userSpaceOnUse" x1="250.4196" x2="253.8748" xlink:href="#ba" y1="86.6982" y2="86.6982"/><linearGradient id="bd" gradientUnits="userSpaceOnUse" x1="248.9247" x2="255.3088" xlink:href="#as" y1="93.1047" y2="93.1047"/><linearGradient id="be" gradientUnits="userSpaceOnUse" x1="242.3693" x2="248.7534" xlink:href="#as" y1="93.0891" y2="93.0891"/><linearGradient id="bf" gradientUnits="userSpaceOnUse" x1="236.6109" x2="242.0177" xlink:href="#z" y1="95.6645" y2="95.6645"/><linearGradient id="bg" gradientTransform="matrix(-1 0 0 1 5894.1333 0)" gradientUnits="userSpaceOnUse" x1="5633.6206" x2="5639.0273" xlink:href="#z" y1="95.6645" y2="95.6645"/><linearGradient id="bh" gradientUnits="userSpaceOnUse" x1="248.5617" x2="248.5617" y1="92.7907" y2="99.5863"><stop offset=".02740354" stop-color="#109488"/><stop offset="1" stop-color="#10ad9b"/></linearGradient><linearGradient id="bi" gradientUnits="userSpaceOnUse" x1="242.0177" x2="255.2966" xlink:href="#z" y1="93.8716" y2="93.8716"/><linearGradient id="bj" gradientUnits="userSpaceOnUse" x1="242.0177" x2="255.2966" xlink:href="#k" y1="96.5332" y2="96.5332"/><g clip-path="url(#h)"><path d="m235.5 288.4h28.8v27.5h-28.8z" fill="url(#i)"/><path d="m259.8 303.4c0-.6-.1-1.1-.2-1.6 0-.2 0-.4 0-.6 0-1.7-.4-3.3-1.1-4.7.1-.4.2-.9.2-1.3 0-2.9-2.4-5.3-5.3-5.3-1.1 0-2.2.4-3.1 1-.3 0-.7-.1-1-.1-2.1 0-4.1.6-5.8 1.7-.2 0-.5-.1-.8-.1-2.9 0-5.3 2.4-5.3 5.3 0 1.4.6 2.7 1.5 3.7v.6c-.9 1-1.5 2.3-1.5 3.7 0 2.9 2.4 5.3 5.3 5.3.8 0 1.6-.2 2.2-.5.8 2 2.7 3.4 5 3.4 2.6 0 4.8-1.9 5.2-4.3.6-.4 1.2-.9 1.7-1.5 1.8-.8 3-2.6 3-4.7z" fill="url(#j)"/></g><path d="m106.8 131.1h7.1v170.2h-7.1z" fill="#fff"/><path d="m157.9 86.6h-1c-.5 0-.9-.4-.9-.9v-21.4c0-.5.4-.9.9-.9h1c .5 0 .9.4.9.9v21.4c0 .5-.4.9-.9.9z" fill="url(#l)"/><path d="m158 73.5h-1.3c-.6 0-1.1-.5-1.1-1.1v-16c0-.6.5-1.1 1.1-1.1h1.3c.6 0 1.1.5 1.1 1.1v16c0 .6-.5 1.1-1.1 1.1z" fill="url(#n)"/><path d="m156.1 56.5v8.4c0 .2-.2.4-.4.4h-.4c-.2 0-.4-.2-.4-.4v-8.4c0-.2.2-.4.4-.4h.4c.3.1.4.2.4.4z" fill="url(#p)"/><path d="m159.7 56.5v8.4c0 .2-.2.4-.4.4h-.4c-.2 0-.4-.2-.4-.4v-8.4c0-.2.2-.4.4-.4h.4c.2.1.4.2.4.4z" fill="url(#q)"/><path d="m157.9 33.1h-1c-.5 0-.9-.4-.9-.9v-21.4c0-.5.4-.9.9-.9h1c .5 0 .9.4.9.9v21.4c0 .5-.4.9-.9.9z" fill="url(#r)"/><path d="m155.9 31.7h-.4c-.1 0-.2-.1-.2-.2v-4.9c0-.1.1-.2.2-.2h.4c.3 0 .5.2.5.5v4.3c0 .3-.2.5-.5.5z" fill="url(#s)"/><path d="m158.7 31.7h.4c.1 0 .2-.1.2-.2v-4.9c0-.1-.1-.2-.2-.2h-.4c-.3 0-.5.2-.5.5v4.3c.1.3.3.5.5.5z" fill="url(#t)"/><path d="m155.9 33.5h2.9v20h-2.9z" fill="url(#u)"/><path d="m162 58.9h-2.3c-1.1 0-2-.9-2-2v-16.1c0-1.1.9-2 2-2h2.3c1.1 0 2 .9 2 2v16.1c0 1.1-.9 2-2 2z" fill="url(#w)"/><path d="m154.8 58.9h-2.3c-1.1 0-2-.9-2-2v-17.9c0-1.1.9-2 2-2h2.3c1.1 0 2 .9 2 2v17.9c0 1.1-.9 2-2 2z" fill="url(#x)"/><path d="m144.8 51.9h23.7v7h-23.7z" fill="url(#y)"/><path d="m163.3 53.3c0 5.1-1.4 9.2-6.5 9.2s-6.7-4.1-6.7-9.2c0-2.4.8-3.8 2.2-4.9 1.1-.9 1.6-1.7 3.3-2.2.6-.2.5-2.1 1.2-2.1s.6 1.7 1.2 1.9c1.4.4 2.3 1.3 3.3 2 1.5 1.2 2 2.6 2 5.3z" fill="url(#A)"/><circle cx="169.9" cy="33.6" fill="url(#B)" r="3"/><circle cx="144.1" cy="33.6" fill="url(#C)" r="3"/><path d="m169.1 58.9c-1.3-.1-3.4.9-3.4-2.4 0-5.3 2.1-5.6 2-9.3 0-2.2-.3-10.5-.3-10.5 0-1.3 1.2-1.2 2.5-1.1 1.3.1 2.3 0 2.3 1.3l-.6 19.8c0 1.3-1.2 2.3-2.5 2.2z" fill="url(#D)"/><path d="m145.1 58.9c1.3-.1 3.4.9 3.4-2.4 0-5.3-2.1-5.6-2-9.3 0-2.2.3-10.5.3-10.5 0-1.3-1.2-1.2-2.5-1.1-1.3.1-2.3 0-2.3 1.3l.6 19.8c0 1.3 1.1 2.3 2.5 2.2z" fill="url(#E)"/><path d="m169.3 32.3c0-.6-.4-1.1-.8-1.1h-22.4c-.5 0-.8.5-.8 1.1s.4 1.1.8 1.1h22.4c.4 0 .8-.5.8-1.1z" fill="url(#G)"/><path d="m149.2 34.7s4.8.9 4.5-3.5h-4.6z" fill="url(#H)"/><path d="m165.6 34.7s-4.8.9-4.5-3.5h4.6z" fill="url(#I)"/><ellipse cx="157.4" cy="32.5" fill="url(#J)" rx="2.6" ry="3"/><path d="m162.8 28.3h-10.8c-.2 0-.4-.2-.4-.4v-.4c0-.2.2-.4.4-.4h10.8c.2 0 .4.2.4.4v.5c-.1.2-.2.3-.4.3z" fill="url(#K)"/><path d="m150.1 52.6s1.2.8 1.1 2c-.1 1.1-1 1-.9 1.2s.2 6.8 6.8 6.7c6.4-.1 6.2-7.5 6.2-7.5s-1.4 0-1.2-1.3c.2-1.2 1.3-1.4 1.3-1.4l-.1-.9-.2-.7s-1.4.9-1.7 1.5c-.3.5-.6.4-.6.4s.1-3.9-3.8-3.7c-4.3.2-3.9 3.7-3.9 3.7s-.5.5-.8-.2c-.3-.6-1.7-1.7-1.7-1.7s-.2.4-.3.9-.2 1-.2 1z" fill="url(#L)"/><path d="m133.9 60.2c-5.7 0-10.4-4.7-10.4-10.4s4.7-10.4 10.4-10.4 10.4 4.7 10.4 10.4-4.7 10.4-10.4 10.4z" fill="url(#M)"/><path d="m133.9 60.6c-6 0-10.9-4.9-10.9-10.9s4.9-10.9 10.9-10.9 10.9 4.9 10.9 10.9-4.9 10.9-10.9 10.9zm0-20.8c-5.5 0-9.9 4.4-9.9 9.9s4.4 9.9 9.9 9.9 9.9-4.4 9.9-9.9-4.5-9.9-9.9-9.9z" fill="#fff"/><path d="m132.3 54.5-4.6-4.6 1.8-1.8 2.8 2.9 6-6.1 1.8 1.8z" fill="#fff"/><path d="m126.5 42.5 14.7 14.7c-4.1 4.1-10.6 4.1-14.6 0s-4.1-10.7-.1-14.7z" fill="#d8d8d8"/><path clip-rule="evenodd" d="m42.4 227.9 6.7 11.5 6.7 11.6 6.7-11.6 6.6-11.5h-8.8v-27.9h-9v27.9z" fill="#fff" fill-rule="evenodd" opacity=".5"/><path clip-rule="evenodd" d="m173.1 223.1-6.7-11.5-6.7-11.6-6.6 11.6-6.7 11.5h8.8v27.9h9v-27.9z" fill="#fff" fill-rule="evenodd" opacity=".5"/><path d="m56.2 222.3h-.8c-.5 0-.9-.4-.9-.9v-19.8c0-.5.4-.9.9-.9h.8c.5 0 .9.4.9.9v19.8c0 .5-.4.9-.9.9z" fill="url(#N)"/><path d="m56.2 210.2h-1c-.6 0-1.1-.5-1.1-1.1v-14.7c0-.6.5-1.1 1.1-1.1h1c .6 0 1.1.5 1.1 1.1v14.7c.1.6-.4 1.1-1.1 1.1z" fill="url(#O)"/><path d="m54.6 194.4v7.7c0 .2-.2.4-.4.4h-.3c-.2 0-.4-.2-.4-.4v-7.7c0-.2.2-.4.4-.4h.3c.2.1.4.2.4.4z" fill="url(#P)"/><path d="m57.9 194.4v7.7c0 .2-.2.4-.4.4h-.3c-.2 0-.4-.2-.4-.4v-7.7c0-.2.2-.4.4-.4h.3c.2.1.4.2.4.4z" fill="url(#Q)"/><path d="m56.2 172.6h-.8c-.5 0-.9-.4-.9-.9v-19.8c0-.5.4-.9.9-.9h.8c.5 0 .9.4.9.9v19.8c0 .5-.4.9-.9.9z" fill="url(#R)"/><path d="m54.4 171.3h-.3c-.1 0-.2-.1-.2-.2v-4.5c0-.1.1-.2.2-.2h.3c.3 0 .5.2.5.5v3.9c-.1.3-.3.5-.5.5z" fill="url(#S)"/><path d="m57.1 171.3h.3c.1 0 .2-.1.2-.2v-4.5c0-.1-.1-.2-.2-.2h-.3c-.3 0-.5.2-.5.5v3.9c0 .3.2.5.5.5z" fill="url(#T)"/><path d="m54.4 173h2.7v18.6h-2.7z" fill="url(#U)"/><path d="m59.9 196.7h-1.9c-1.1 0-2-.9-2-2v-14.7c0-1.1.9-2 2-2h1.9c1.1 0 2 .9 2 2v14.7c0 1-.9 2-2 2z" fill="url(#W)"/><path d="m53.2 196.7h-1.9c-1.1 0-2-.9-2-2v-16.4c0-1.1.9-2 2-2h1.9c1.1 0 2 .9 2 2v16.4c0 1-.9 2-2 2z" fill="url(#X)"/><path d="m44 190.1h22v6.5h-22z" fill="url(#Y)"/><path d="m61.3 191.4c0 4.7-1.3 8.5-6 8.5s-6.2-3.8-6.2-8.5c0-2.2.8-3.5 2-4.6 1-.9 1.5-1.6 3-2 .6-.2.5-2 1.2-2s .6 1.6 1.1 1.7c1.3.3 2.2 1.2 3 1.9 1.4 1.2 1.9 2.5 1.9 5z" fill="url(#Z)"/><circle cx="67.4" cy="173.1" fill="url(#aa)" r="2.8"/><circle cx="43.4" cy="173.1" fill="url(#ab)" r="2.8"/><path d="m66.7 196.6c-1.2-.1-3.2.8-3.2-2.2 0-5 1.9-5.2 1.9-8.6 0-2-.3-9.8-.3-9.8 0-1.2 1.1-1.1 2.3-1.1 1.2.1 2.2 0 2.1 1.2l-.5 18.5c0 1.2-1.1 2.1-2.3 2z" fill="url(#ac)"/><path d="m44.3 196.6c1.2-.1 3.2.8 3.2-2.2 0-5-1.9-5.2-1.9-8.6 0-2 .3-9.8.3-9.8 0-1.2-1.1-1.1-2.3-1.1-1.2.1-2.2 0-2.1 1.2l.6 18.4c-.1 1.3 1 2.2 2.2 2.1z" fill="url(#ad)"/><path d="m66.9 171.9c0-.6-.3-1-.8-1.1h-20.8c-.4 0-.8.5-.8 1.1s.4 1.1.8 1.1h20.8c.4-.1.8-.6.8-1.1z" fill="url(#ae)"/><path d="m48.2 174.1s4.5.9 4.2-3.3h-4.3z" fill="url(#af)"/><path d="m63.5 174.1s-4.5.9-4.2-3.3h4.3z" fill="url(#ag)"/><ellipse cx="55.7" cy="172" fill="url(#ah)" rx="2.4" ry="2.8"/><path d="m60.7 168.2h-10c-.2 0-.4-.2-.4-.4v-.3c0-.2.2-.4.4-.4h10c .2 0 .4.2.4.4v.3c0 .2-.2.4-.4.4z" fill="url(#ai)"/><path d="m49 191.1s1.1.7 1 1.7-.9.8-.8 1 .2 6.2 6.3 6.1c5.8-.1 5.7-6.7 5.7-6.7s-1.3 0-1.1-1.1c.1-1.1 1.2-1.3 1.2-1.3l-.1-1.4s-1.3.8-1.6 1.4c-.2.4-1.3 1.8-.5 3.1.7 1.3-.2 2.3-.6 2.9-.5.7-4.3.8-5.5.3-1.2-.6-2-1.7-1.8-2.6s.6-3.1 0-3.5-1.7-1.5-1.7-1.5l-.2.8z" fill="url(#aj)"/><path d="m33.5 195.5c-5.3 0-9.7-4.3-9.7-9.7 0-5.3 4.3-9.7 9.7-9.7 5.3 0 9.7 4.3 9.7 9.7-.1 5.4-4.4 9.7-9.7 9.7z" fill="#d82638"/><path d="m33.5 175.7c5.6 0 10.1 4.5 10.1 10.1s-4.5 10.1-10.1 10.1-10.1-4.5-10.1-10.1c-.1-5.5 4.5-10.1 10.1-10.1zm0 19.3c5.1 0 9.2-4.1 9.2-9.2s-4.1-9.2-9.2-9.2-9.2 4.1-9.2 9.2 4.1 9.2 9.2 9.2z" fill="#fff"/><path d="m26.6 179.1 13.6 13.6c-3.8 3.8-9.8 3.8-13.6 0s-3.8-9.9 0-13.6z" fill="#d8d8d8"/><path d="m38 189.7-.5.5c-.3.3-.8.3-1.2 0l-7.1-7.1c-.3-.3-.3-.8 0-1.2l.5-.5c.3-.3.8-.3 1.2 0l7.1 7.1c.3.4.3.9 0 1.2z" fill="#fff"/><path d="m29.2 190c-.5-.5-.5-1.2 0-1.7l6.6-6.6c.5-.5 1.2-.5 1.7 0 .5.5.5 1.2 0 1.7l-6.6 6.6c-.5.5-1.2.5-1.7 0z" fill="#fff"/><path d="m284.5 219.3h-.8c-.5 0-.9-.4-.9-.9v-19.8c0-.5.4-.9.9-.9h.8c.5 0 .9.4.9.9v19.8c0 .5-.4.9-.9.9z" fill="url(#ak)"/><path d="m284.6 207.2h-1c-.6 0-1.1-.5-1.1-1.1v-14.7c0-.6.5-1.1 1.1-1.1h1c .6 0 1.1.5 1.1 1.1v14.7c0 .6-.5 1.1-1.1 1.1z" fill="url(#al)"/><path d="m282.9 191.4v7.7c0 .2-.2.4-.4.4h-.3c-.2 0-.4-.2-.4-.4v-7.7c0-.2.2-.4.4-.4h.3c.3.1.4.2.4.4z" fill="url(#am)"/><path d="m286.2 191.4v7.7c0 .2-.2.4-.4.4h-.3c-.2 0-.4-.2-.4-.4v-7.7c0-.2.2-.4.4-.4h.3c.2.1.4.2.4.4z" fill="url(#an)"/><path d="m284.5 169.6h-.8c-.5 0-.9-.4-.9-.9v-19.8c0-.5.4-.9.9-.9h.8c.5 0 .9.4.9.9v19.8c0 .5-.4.9-.9.9z" fill="url(#ao)"/><path d="m282.7 168.3h-.3c-.1 0-.2-.1-.2-.2v-4.5c0-.1.1-.2.2-.2h.3c.3 0 .5.2.5.5v3.9c-.1.3-.3.5-.5.5z" fill="url(#ap)"/><path d="m285.4 168.3h.3c.1 0 .2-.1.2-.2v-4.5c0-.1-.1-.2-.2-.2h-.3c-.3 0-.5.2-.5.5v3.9c0 .3.2.5.5.5z" fill="url(#aq)"/><path d="m282.7 170h2.7v18.6h-2.7z" fill="url(#ar)"/><path d="m288.2 193.7h-1.9c-1.1 0-2-.9-2-2v-14.7c0-1.1.9-2 2-2h1.9c1.1 0 2 .9 2 2v14.7c0 1-.9 2-2 2z" fill="url(#at)"/><path d="m281.5 193.7h-1.9c-1.1 0-2-.9-2-2v-16.4c0-1.1.9-2 2-2h1.9c1.1 0 2 .9 2 2v16.4c0 1-.9 2-2 2z" fill="url(#au)"/><path d="m272.4 187.1h22v6.5h-22z" fill="url(#aw)"/><path d="m289.6 188.4c0 4.7-1.3 8.5-6 8.5s-6.2-3.8-6.2-8.5c0-2.2.8-3.5 2-4.6 1-.9 1.5-1.6 3-2 .6-.2.5-2 1.2-2s .6 1.6 1.1 1.7c1.3.3 2.2 1.2 3 1.9 1.4 1.2 1.9 2.5 1.9 5z" fill="url(#ax)"/><circle cx="295.7" cy="170.1" fill="url(#ay)" r="2.8"/><circle cx="271.7" cy="170.1" fill="url(#az)" r="2.8"/><path d="m295 193.6c-1.2-.1-3.2.8-3.2-2.2 0-5 1.9-5.2 1.9-8.6 0-2-.3-9.8-.3-9.8 0-1.2 1.1-1.1 2.3-1.1 1.2.1 2.2 0 2.1 1.2l-.6 18.4c.1 1.3-1 2.2-2.2 2.1z" fill="url(#aA)"/><path d="m272.6 193.6c1.2-.1 3.2.8 3.2-2.2 0-5-1.9-5.2-1.9-8.6 0-2 .3-9.8.3-9.8 0-1.2-1.1-1.1-2.3-1.1-1.2.1-2.2 0-2.1 1.2l.6 18.4c0 1.3 1 2.2 2.2 2.1z" fill="url(#aB)"/><path d="m295.2 168.9c0-.6-.3-1-.8-1.1h-20.8c-.4 0-.8.5-.8 1.1s.4 1.1.8 1.1h20.8c.4-.1.8-.6.8-1.1z" fill="url(#aC)"/><path d="m276.5 171.1s4.5.9 4.2-3.3h-4.3z" fill="url(#aD)"/><path d="m291.8 171.1s-4.5.9-4.2-3.3h4.3z" fill="url(#aE)"/><ellipse cx="284.1" cy="169" fill="url(#aF)" rx="2.4" ry="2.8"/><path d="m289.1 165.2h-10c-.2 0-.4-.2-.4-.4v-.3c0-.2.2-.4.4-.4h10c .2 0 .4.2.4.4v.3c-.1.2-.3.4-.4.4z" fill="url(#aG)"/><path d="m277.3 188.1s1.1.7 1 1.7-.9.8-.8 1 .2 6.2 6.3 6.1c5.8-.1 5.7-6.7 5.7-6.7s-1.3 0-1.1-1.1c.1-1.1 1.2-1.3 1.2-1.3l-.1-.8-.1-.6s-1.3.8-1.6 1.4c-.2.4-.6.3-.6.3s.1-3.5-3.5-3.3c-4 .2-3.6 3.3-3.6 3.3s-.5.4-.8-.2c-.3-.5-1.7-1.5-1.7-1.5s-.1.4-.2.8c0 .5-.1.9-.1.9z" fill="url(#aH)"/><path d="m261.8 192.5c-5.3 0-9.7-4.3-9.7-9.7 0-5.3 4.3-9.7 9.7-9.7 5.3 0 9.7 4.3 9.7 9.7-.1 5.4-4.4 9.7-9.7 9.7z" fill="#d82638"/><path d="m261.8 172.7c5.6 0 10.1 4.5 10.1 10.1s-4.5 10.1-10.1 10.1-10.1-4.5-10.1-10.1c-.1-5.5 4.5-10.1 10.1-10.1zm0 19.3c5.1 0 9.2-4.1 9.2-9.2s-4.1-9.2-9.2-9.2-9.2 4.1-9.2 9.2 4.1 9.2 9.2 9.2z" fill="#fff"/><path d="m254.9 176.1 13.6 13.6c-3.8 3.8-9.8 3.8-13.6 0s-3.8-9.9 0-13.6z" fill="#d8d8d8"/><path d="m266.3 186.7-.5.5c-.3.3-.8.3-1.2 0l-7.1-7.1c-.3-.3-.3-.8 0-1.2l.5-.5c.3-.3.8-.3 1.2 0l7.1 7.1c.3.4.3.9 0 1.2z" fill="#fff"/><path d="m257.5 187c-.5-.5-.5-1.2 0-1.7l6.6-6.6c.5-.5 1.2-.5 1.7 0 .5.5.5 1.2 0 1.7l-6.6 6.6c-.4.5-1.2.5-1.7 0z" fill="#fff"/><path d="m39.1 102.9s26.7 11.7 30.3 10.4c3.6-1.4 11.5-13.4 11.5-13.4l1.5-16.9 1.1 2.3c.3.6 3.1 9.4 1.5 15.8-1.6 6.2-8 11.7-14 14.3-11 4.7-21.2 2-21.2 2-9.5-4.4-11.4-12.7-11.6-13.3l-.7-2.1z" fill="#b2b2b2"/><path d="m9.6 29.1 38.7-16.4 1.1-.5-.6-1.3c-.3-.6-1-.9-1.6-.6l-38.7 16.3c-.6.3-.9 1-.6 1.6l.6 1.3z" fill="#b2b2b2"/><path d="m10.3 44.5c-2.4-5.7-4.4-10.3-2.9-10.9.2-.1 1.6-.7 2-.8 1.8-.8 4.3 4.5 6.4 9.4 2.1 5 3.5 9.4 2.4 11-.2.2-1.8.9-2 1-1.6.6-3.5-4-5.9-9.7z" fill="url(#aI)"/><path d="m60.3 23.2c-2.4-5.7-4.3-10.3-5.9-9.7-.2.1-1.6.7-2 .8-1.8.8.2 6.2 2.3 11.2s4.3 9 6.2 9.4c.3 0 1.9-.7 2.1-.8 1.7-.6-.3-5.2-2.7-10.9z" fill="url(#aJ)"/><path d="m28.8 93.7c-2.4-5.7-4.4-10.3-2.9-10.9.2-.1 1.6-.7 2-.8 1.8-.8 4.3 4.5 6.4 9.4 2.1 5 3.5 9.4 2.4 11-.2.2-1.8.9-2 1-1.6.7-3.5-4-5.9-9.7z" fill="url(#aK)"/><path d="m81.6 71.3c-2.4-5.7-4.3-10.3-5.9-9.7-.2.1-1.6.7-2 .8-1.8.8.2 6.2 2.3 11.2s4.3 9 6.2 9.4c.3 0 1.9-.7 2.1-.8 1.7-.6-.3-5.2-2.7-10.9z" fill="url(#aL)"/><path d="m50.3 15.3 2.9-1.2 8.7 20.6-2.9 1.2z" fill="url(#aN)"/><path d="m8.7 33.1 2.9-1.3 8.7 20.6-2.9 1.3z" fill="url(#aO)"/><path d="m72.1 63.2 2.8-1.2 8.8 20.6-2.9 1.2z" fill="url(#aP)"/><path d="m26.9 82.4 2.9-1.2 8.7 20.6-2.8 1.2z" fill="url(#aQ)"/><path d="m82.4 83.2s9 20.9-11.9 29.8c-27 11.5-32.6-10.9-32.6-10.9z" fill="url(#aR)"/><path d="m82.4 83.2 5.9-2.5-2.1-4.9-6.6.9-26.4-62.5s-1.6-2.9-3.8-2c-2.3.9-39.5 16.7-41 17.3s.2 3.5.2 3.5l26.4 62.4-5.7 4.5 2.1 4.9 8.6-3.6z" fill="url(#aS)"/><path d="m54 114.6 7.8-3.1 1.8 4.4-7.8 3.1z" fill="url(#aU)"/><path d="m40 101.2-1.3-23.5 24.4-10.3 16.6 16.9z" fill="#d6d6d5"/><path d="m62.3 110.7 1.4 3.4-9.6 3.9-1.4-3.4z" fill="url(#aV)"/><path d="m77.2 76.2-13.2-13.8-8.8-21.7 2.2-8.5z" fill="#d6d6d5"/><path d="m58.9 93.2c13-5 5.6-20.8 4.2-25.9l-24.4 10.4c3.1 5.1 10.2 19.4 20.2 15.5z" fill="url(#aX)" opacity=".5"/><path d="m66.9 61.5c-1.7.7-9.3-15-11.7-20.8l2.2-8.5c2.4 5.7 11.2 28.6 9.5 29.3z" fill="url(#aY)" opacity=".5"/><path d="m36.7 93.3-.7-19-8.8-22.4-9.9-3.8z" fill="#d6d6d5"/><path d="m33.1 76c1.7-.7-4-18.7-6.4-24.4l-8.1-3.1c2.5 5.8 12.8 28.3 14.5 27.5z" fill="url(#aZ)" opacity=".5"/><path d="m17.5 24.3.5 1.2-6.2 2.6-.5-1.2z" fill="url(#a1)"/><path d="m45.5 12.4.5 1.2-6.2 2.7-.6-1.2z" fill="url(#a2)"/><path d="m54.2 32.8c-1.4 4.5-3 7.6-3 7.6l-21.8 9s-1-.3-7.3-2.7c-5.4-2.1-.3-3.9-.3-3.9l30.4-13.1c.1 0 3.4-1.3 2 3.1z" fill="#d6d6d5"/><path d="m38.4 38.7c-13 5-10.4 5.7-8.9 10.8l21.8-9c-3.2-5.1-2.9-5.7-12.9-1.8z" fill="url(#a3)" opacity=".5"/><circle clip-path="url(#a4)" cx="84.6" cy="94.3" fill="url(#a6)" opacity=".25" r="23.2"/><path d="m73.3 106.6 7.7-3.3 1.8 4.3-7.7 3.4z" fill="url(#a7)"/><path d="m81.4 102.5 1.5 3.4-9.5 4.1-1.5-3.4z" fill="url(#a8)"/><path d="m13.3 34.6c.2.6.5 6.6 2.3 9.3 3.4 5.4 13.2 8.5 13.2 8.5 3.4-1.3 23.5-9.4 23.5-9.4s.9 5.3 1.7 6.5c3.1 5 3.6 10.5 2.4 12.4-.6.9-1.3 1.7-2.1 2.4-1.6 1.5-3.1 3.1-4.7 4.6-1.2 1.2-2.4 2.4-3.8 3.5-2.3 1.9-4.5 4-7.2 5.2 6.3-2.8 9.5-4 15.7-6.7 1.2-.5 8.7-3.7 8.7-3.7l16.6 17 2.7-1.3-5.2-6.8-13.1-13.7-8.8-21.7s2.8-14.4-.1-19c-4.5-7.2-10-5.4-10-5.4l-29.8 12.4s-3.3 1.6-2 5.9z" fill="url(#a9)" opacity=".25"/><path d="m238.3 70v29.3s-20.2 0-31.3 0v-3.6s.4-9.3 8.5-17.5c7.7-7.8 21-8.2 21-8.2z" fill="#b2b4b6"/><path d="m227.5 88.8c-.5.4-.6 1.1-.2 1.6s1.1.6 1.6.2.6-1.1.2-1.6-1.1-.6-1.6-.2zm0 0" fill="#fff"/><path d="m222.3 84.9c-.4-1-.1-2.2.7-2.8 1.1-.8 2.6-.7 3.4.4.6.8.7 1.8.3 2.7l.6.8c.8-1.2.8-2.9-.1-4.1-1.2-1.5-3.3-1.7-4.8-.5-1.1.9-1.5 2.2-1.2 3.5l.8.4c.1-.2.2-.3.3-.4zm0 0" fill="#fff"/><path d="m218.9 85.9 3 1.4c.2.1.5.1.7-.1l1.5-1.2.3.3-1.3 1c-.1.1-.2.3-.2.4s0 .2.1.3c.2.2.5.2.7.1l1.3-1 .9 1.1c.3.3.8.6 1.4.2.4-.3.5-.9.2-1.4l-2-2.5c-.3-.4-1-.5-1.4-.2l-1.9 1.5-2.6-1.2c-.2-.1-.5-.1-.7.1-.1.1-.1.1-.2.2-.2.5-.1.9.2 1zm0 0" fill="#fff"/><path d="m245.8 89.8h-.8c-.7 0-1.3-.6-1.3-1.3v-3.7c0-.7.6-1.3 1.3-1.3h.9c.7 0 1.3.6 1.3 1.3v3.7c-.1.7-.7 1.3-1.4 1.3z" fill="url(#bb)"/><path d="m252.6 89.8h-.9c-.7 0-1.3-.6-1.3-1.3v-3.7c0-.7.6-1.3 1.3-1.3h.9c.7 0 1.3.6 1.3 1.3v3.7c0 .7-.6 1.3-1.3 1.3z" fill="url(#bc)"/><path d="m252.9 99.5h-1.6c-1.3 0-2.4-1.1-2.4-2.4v-8c0-1.3 1.1-2.4 2.4-2.4h1.6c1.3 0 2.4 1.1 2.4 2.4v8c0 1.3-1.1 2.4-2.4 2.4z" fill="url(#bd)"/><path d="m246.4 99.5h-1.6c-1.3 0-2.4-1.1-2.4-2.4v-8.1c0-1.3 1.1-2.4 2.4-2.4h1.6c1.3 0 2.4 1.1 2.4 2.4v8.1c0 1.3-1.1 2.4-2.4 2.4z" fill="url(#be)"/><path d="m239.7 99.6-.5-.3c-1.3 0-2.6-2.8-2.6-2.8v-2.4c0-1.3 1.4-2.4 2.7-2.4 1.3 0 2.7 1.1 2.7 2.4v5.4s-1 .1-2.3.1z" fill="url(#bf)"/><path d="m257.5 99.6.5-.3c1.3 0 2.6-2.8 2.6-2.8v-2.4c0-1.3-1.4-2.4-2.7-2.4-1.3 0-2.7 1.1-2.7 2.4v5.4c-.1 0 1 .1 2.3.1z" fill="url(#bg)"/><path d="m258 99.6h-18.8c-1.4 0-2.6-1.1-2.6-2.6v-1.7c0-1.4 1.1-2.6 2.6-2.6h18.8c1.4 0 2.6 1.1 2.6 2.6v1.7c-.1 1.4-1.2 2.6-2.6 2.6z" fill="url(#bh)"/><path d="m255.3 93.9c0 5.1-1.4 9.3-6.5 9.3s-6.7-4.1-6.7-9.3c0-2.4.8-3.8 2.2-5 1.1-.9 1.6-1.7 3.3-2.2.6-.2.5-2.1 1.3-2.1.7 0 .6 1.7 1.2 1.9 1.4.4 2.3 1.3 3.3 2 1.4 1.2 1.9 2.7 1.9 5.4z" fill="url(#bi)"/><path d="m242 93.5s1.2.8 1.1 1.9-1 .9-.9 1.1.2 6.7 6.8 6.6c6.3-.1 6.2-7.3 6.2-7.3s-1.4 0-1.2-1.2 1.3-1.4 1.3-1.4l-.1-.9-.1-.7s-1.4.9-1.8 1.5c-.3.5-.7.4-.7.4s.1-3.8-3.8-3.6c-4.3.2-3.9 3.6-3.9 3.6s-.5.5-.8-.2c-.3-.6-1.9-1.7-1.9-1.7s-.1.5-.2.9z" fill="url(#bj)"/><path d="m72.8 138.2c0 5.6-4.5 10.1-10 10.1s-10.1-4.5-10.1-10.1 4.6-10.1 10.1-10.1 10 4.6 10 10.1z" fill="#ffb524" stroke="#fff" stroke-miterlimit="10"/><path d="m55.6 131.1 14.2 14.2c-3.9 3.9-10.3 3.9-14.2 0s-3.9-10.2 0-14.2z" fill="#d9d9d9"/><path d="m70.6 140.9c-.1-.2-6.6-10-6.7-10.1 0-.1-.4-.6-1-.6-.5 0-.9.6-1 .6-.3.4-6.4 9.9-6.5 9.9v.1c-.2.2-.4.5-.4.8 0 .5.4.9 1 .9h13.9c.5 0 1-.4 1-.9 0-.2-.2-.5-.3-.7zm-7.9-9.5c.1-.1.2-.2.2-.2.1 0 .2.1.3.2s6.6 10 6.7 10.1c.1.2.1.3.1.3s0 0-.1 0h-13.9c-.1 0-.1 0-.1 0s0-.1.2-.4v-.1c.1-.1 6.5-9.8 6.6-9.9z" fill="#fff"/><path d="m62.7 141.1c-.3 0-.5-.2-.5-.5v-4.7c0-.3.2-.5.5-.5.3 0 .5.2.5.5v4.7c.1.3-.2.5-.5.5z" fill="#fff"/><circle cx="62.8" cy="134.3" fill="#fff" r=".5"/><g fill="#ffb524"><path d="m61.1 124.9v-4c0-.7.6-1.3 1.3-1.3.7 0 1.3.6 1.3 1.3v4c0 .7-.6 1.3-1.3 1.3-.7 0-1.3-.6-1.3-1.3z"/><path d="m61.1 155.4v-4c0-.7.6-1.3 1.3-1.3.7 0 1.3.6 1.3 1.3v4c0 .7-.6 1.3-1.3 1.3-.7.1-1.3-.5-1.3-1.3z"/><path d="m47.9 139.4h-4c-.7 0-1.3-.6-1.3-1.3 0-.7.6-1.3 1.3-1.3h4c .7 0 1.3.6 1.3 1.3 0 .7-.6 1.3-1.3 1.3z"/><path d="m81 139.4h-4c-.7 0-1.3-.6-1.3-1.3 0-.7.6-1.3 1.3-1.3h4c .7 0 1.3.6 1.3 1.3 0 .7-.6 1.3-1.3 1.3z"/><path d="m71.4 127.3 2.8-2.8c.5-.5 1.4-.5 1.9 0 .5.5.5 1.4 0 1.9l-2.8 2.8c-.5.5-1.4.5-1.9 0-.5-.6-.5-1.4 0-1.9z"/><path d="m51.7 129.2-2.8-2.8c-.5-.5-.5-1.4 0-1.9.5-.5 1.4-.5 1.9 0l2.8 2.8c.5.5.5 1.4 0 1.9-.6.5-1.4.5-1.9 0z"/><path d="m74.2 151.7-2.8-2.8c-.5-.5-.5-1.4 0-1.9.5-.5 1.4-.5 1.9 0l2.8 2.8c.5.5.5 1.4 0 1.9-.5.5-1.4.5-1.9 0z"/><path d="m48.9 149.8 2.8-2.8c.5-.5 1.4-.5 1.9 0 .5.5.5 1.4 0 1.9l-2.8 2.8c-.5.5-1.4.5-1.9 0-.5-.5-.5-1.4 0-1.9z"/></g></svg>