<svg enable-background="new 0 0 303.7 272.7" viewBox="0 0 303.7 272.7" xmlns="http://www.w3.org/2000/svg" xmlns:xlink="http://www.w3.org/1999/xlink"><clipPath id="a"><path d="m0 0h303.7v272.7h-303.7z"/></clipPath><linearGradient id="b" gradientUnits="userSpaceOnUse" x1="150.5575" x2="150.5575" y1="272.6742" y2="-15.072"><stop offset=".03517618" stop-color="#4f4d4d"/><stop offset="1" stop-color="#4f4d4d"/></linearGradient><radialGradient id="c" cx="6637.1152" cy="194.3453" gradientTransform="matrix(-1 0 0 1 6911.3335 0)" gradientUnits="userSpaceOnUse" r="16.9316"><stop offset="0" stop-color="#781a26"/><stop offset=".2055" stop-color="#741e24"/><stop offset=".4189" stop-color="#682b1f"/><stop offset=".636" stop-color="#543f16"/><stop offset=".8542" stop-color="#395c0a"/><stop offset="1" stop-color="#227400"/></radialGradient><linearGradient id="d" gradientTransform="matrix(-1 0 0 1 6911.3335 0)" gradientUnits="userSpaceOnUse" x1="6622.0879" x2="6649.0259" y1="194.1498" y2="194.1498"><stop offset="0" stop-color="#8cc65b"/><stop offset="1" stop-color="#507e24"/></linearGradient><linearGradient id="e"><stop offset="0" stop-color="#62b946"/><stop offset="1" stop-color="#629050"/></linearGradient><linearGradient id="f" gradientUnits="userSpaceOnUse" x1="80.2517" x2="79.6579" xlink:href="#e" y1="189.799" y2="366.6843"/><linearGradient id="g"><stop offset="0" stop-color="#151b26"/><stop offset="1" stop-color="#151b26"/></linearGradient><linearGradient id="h" gradientTransform="matrix(1 .00335716 -.00335716 1 89.1941 272.1402)" gradientUnits="userSpaceOnUse" x1="27.4151" x2="27.4151" xlink:href="#g" y1="39.9911" y2="74.8321"/><linearGradient id="i" gradientTransform="matrix(-1 -.00335716 -.00335716 1 327.9789 272.9418)" gradientUnits="userSpaceOnUse" x1="285.7182" x2="285.7182" xlink:href="#g" y1="39.9911" y2="74.8321"/><linearGradient id="j" gradientTransform="matrix(1 .00335716 -.00335716 1 89.1941 272.1402)" gradientUnits="userSpaceOnUse" x1="30.3861" x2="30.3861" xlink:href="#g" y1="-89.7492" y2="-54.9082"/><linearGradient id="k" gradientTransform="matrix(-1 -.00335716 -.00335716 1 327.9789 272.9418)" gradientUnits="userSpaceOnUse" x1="287.8694" x2="287.8694" xlink:href="#g" y1="-89.7492" y2="-54.9082"/><linearGradient id="l" gradientTransform="matrix(1 .00335716 -.00337667 1.0058 89.1787 276.7141)" gradientUnits="userSpaceOnUse" x1="-54.4214" x2="-34.5626" xlink:href="#e" y1="42.555" y2="62.4138"/><linearGradient id="m" gradientTransform="matrix(1 .00335716 -.00337667 1.0058 89.1787 276.7141)" gradientUnits="userSpaceOnUse" x1="15.0451" x2="34.9039" xlink:href="#e" y1="42.555" y2="62.4138"/><linearGradient id="n" gradientTransform="matrix(1.1999 .00402833 -.00335716 1 -554.3568 269.9786)" gradientUnits="userSpaceOnUse" x1="487.3642" x2="507.223" xlink:href="#e" y1="-82.2558" y2="-62.397"/><linearGradient id="o" gradientTransform="matrix(1.0904 .00366064 -.00335716 1 -206.2727 271.1478)" gradientUnits="userSpaceOnUse" x1="286.4305" x2="306.5737" xlink:href="#e" y1="-82.3982" y2="-62.2549"/><linearGradient id="p" gradientTransform="matrix(-.00335716 1 -1 -.00335716 -18.2884 578.1846)" gradientUnits="userSpaceOnUse" x1="-414.3665" x2="-380.8258" xlink:href="#e" y1="-97.2051" y2="-97.2051"/><linearGradient id="q"><stop offset="0" stop-color="#fab11f"/><stop offset="1" stop-color="#ffc55d"/></linearGradient><linearGradient id="r" gradientTransform="matrix(1 .00335716 -.00335716 1 -2.6345 327.8031)" gradientUnits="userSpaceOnUse" x1="101.5609" x2="114.6241" xlink:href="#q" y1="-162.744" y2="-162.744"/><linearGradient id="s" gradientTransform="matrix(1 .00335716 -.00335716 1 -2.6345 327.8031)" gradientUnits="userSpaceOnUse" x1="49.5836" x2="62.6468" xlink:href="#q" y1="-162.5695" y2="-162.5695"/><linearGradient id="t" gradientTransform="matrix(-.00335716 1 -1 -.00335716 -18.2884 578.1846)" gradientUnits="userSpaceOnUse" x1="-414.3869" x2="-408.5982" xlink:href="#e" y1="-123.2344" y2="-123.2344"/><linearGradient id="u"><stop offset="0" stop-color="#d6d6d5"/><stop offset="1" stop-color="#d6d6d5" stop-opacity="0"/></linearGradient><linearGradient id="v" gradientTransform="matrix(-.00335716 1 -1 -.00335716 807.3405 602.6055)" gradientUnits="userSpaceOnUse" x1="-366.5992" x2="-340.7494" xlink:href="#u" y1="699.9586" y2="699.9586"/><linearGradient id="w" gradientTransform="matrix(-.00335716 1 -1 -.00335716 807.3405 602.6055)" gradientUnits="userSpaceOnUse" x1="-325.5621" x2="-299.7122" xlink:href="#u" y1="699.8208" y2="699.8208"/><linearGradient id="x" gradientTransform="matrix(-.00335716 1 -1 -.00335716 807.3405 602.6055)" gradientUnits="userSpaceOnUse" x1="-283.9103" x2="-258.0601" xlink:href="#u" y1="699.7346" y2="699.7346"/><linearGradient id="y" gradientTransform="matrix(-.00335716 1 -1 -.00335716 -18.2884 578.1846)" gradientUnits="userSpaceOnUse" x1="-211.8943" x2="-209.8039" xlink:href="#q" y1="-120.5484" y2="-120.5484"/><linearGradient id="z" gradientTransform="matrix(-.00335716 1 -1 -.00335716 -18.2884 578.1846)" gradientUnits="userSpaceOnUse" x1="-211.8943" x2="-209.8039" xlink:href="#q" y1="-73.256" y2="-73.256"/><linearGradient id="A" gradientTransform="matrix(-.3599 -.933 .933 -.3599 430.2905 252.7954)" gradientUnits="userSpaceOnUse" x1="24.1613" x2="45.4975" xlink:href="#u" y1="-360.1802" y2="-360.1802"/><linearGradient id="B" gradientTransform="matrix(-.00335716 1 -1 -.00335716 -18.2884 578.1846)" gradientUnits="userSpaceOnUse" x1="-414.2124" x2="-408.4237" xlink:href="#e" y1="-71.2571" y2="-71.2571"/><clipPath id="C"><path d="m42.5 189.7s-.2-4.8.1-14.5c.1-3.7 2.9-6.5 3.7-7.3v-3.6h10 60.9l.6 25.7z"/></clipPath><linearGradient id="D"><stop offset="0" stop-color="#414141" stop-opacity="0"/><stop offset="1" stop-color="#737373"/></linearGradient><linearGradient id="E" gradientTransform="matrix(1 .00335716 -.00335716 1 89.1941 272.1402)" gradientUnits="userSpaceOnUse" x1="-79.5134" x2="-7.3217" xlink:href="#D" y1="-100.6988" y2="-100.6988"/><clipPath id="F"><path d="m113.9 366.6h-72l .3-94.8 71.9.3z"/></clipPath><linearGradient id="G" gradientTransform="matrix(1 .00335716 -.00335716 1 89.1941 272.1402)" gradientUnits="userSpaceOnUse" x1="-46.334" x2="-46.334" xlink:href="#D" y1="104.7579" y2="-1.3947"/><linearGradient id="H" gradientTransform="matrix(1 .00336062 -.01332339 3.9697 80.6003 2832.863)" gradientUnits="userSpaceOnUse" x1="-34.8625" x2="-6.5047" xlink:href="#D" y1="-657.7726" y2="-629.4149"/><linearGradient id="I" gradientTransform="matrix(.00335716 1 1 -.00335716 5828.832 602.6055)" gradientUnits="userSpaceOnUse" x1="-388.3422" x2="-362.4923" xlink:href="#u" y1="-5776.582" y2="-5776.582"/><linearGradient id="J" gradientTransform="matrix(.00335716 1 1 -.00335716 5828.832 602.6055)" gradientUnits="userSpaceOnUse" x1="-347.305" x2="-321.4551" xlink:href="#u" y1="-5776.7197" y2="-5776.7197"/><linearGradient id="K" gradientTransform="matrix(.00335716 1 1 -.00335716 5828.832 602.6055)" gradientUnits="userSpaceOnUse" x1="-305.6532" x2="-279.803" xlink:href="#u" y1="-5776.8057" y2="-5776.8057"/><linearGradient id="L" gradientTransform="matrix(.00335716 1 1 -.00335716 5828.832 602.6055)" gradientUnits="userSpaceOnUse" x1="-279.7891" x2="-269.6627" xlink:href="#u" y1="-5776.5928" y2="-5776.5928"/><linearGradient id="M" gradientTransform="matrix(-.00335716 1 -1 -.00335716 872.3542 602.6055)" gradientUnits="userSpaceOnUse" x1="-257.828" x2="-247.7016" xlink:href="#u" y1="764.9427" y2="764.9427"/><linearGradient id="N" gradientTransform="matrix(1 .00335716 -.00335716 1 40.9322 398.0821)" gradientUnits="userSpaceOnUse" x1="45.7099" x2="87.1245" xlink:href="#e" y1="-202.3036" y2="-202.3036"/><linearGradient id="O" gradientTransform="matrix(-1 -.00335716 -.00335716 1 -277.844 397.0119)" gradientUnits="userSpaceOnUse" x1="-354.7736" x2="-307.1445" xlink:href="#e" y1="-202.3603" y2="-202.3603"/><linearGradient id="P" gradientTransform="matrix(.3599 .933 -.933 .3599 54.7521 546.8586)" gradientUnits="userSpaceOnUse" x1="-326.9029" x2="-284.7991" xlink:href="#u" y1="-142.9194" y2="-142.9194"/><linearGradient id="Q"><stop offset="0" stop-color="#8d2d37"/><stop offset="1" stop-color="#781a26"/></linearGradient><linearGradient id="R" gradientTransform="matrix(0 -1 1 0 -1532.5779 3036.5063)" gradientUnits="userSpaceOnUse" x1="2842.9619" x2="2846.6438" xlink:href="#Q" y1="1755.4972" y2="1755.4972"/><linearGradient id="S" gradientTransform="matrix(0 -1 1 0 -1532.5779 3036.5063)" gradientUnits="userSpaceOnUse" x1="2850.1714" x2="2853.8533" xlink:href="#Q" y1="1755.4972" y2="1755.4972"/><linearGradient id="T"><stop offset="0" stop-color="#25334d"/><stop offset="1" stop-color="#3e537d"/></linearGradient><linearGradient id="U" gradientTransform="matrix(0 -1 1 0 -1532.5779 3036.5063)" gradientUnits="userSpaceOnUse" x1="2848.5784" x2="2855.3816" xlink:href="#T" y1="1762.3243" y2="1762.3243"/><linearGradient id="V" gradientTransform="matrix(0 -1 1 0 -1532.5779 3036.5063)" gradientUnits="userSpaceOnUse" x1="2841.5925" x2="2848.3958" xlink:href="#T" y1="1762.3077" y2="1762.3077"/><linearGradient id="W"><stop offset="0" stop-color="#ffc65b"/><stop offset="1" stop-color="#fab224"/></linearGradient><linearGradient id="X" gradientTransform="matrix(-.1813 -.9834 .9834 -.1813 -855.8602 3326.2249)" gradientUnits="userSpaceOnUse" x1="2875.1733" x2="2880.9351" xlink:href="#W" y1="1642.2316" y2="1642.2316"/><linearGradient id="Y" gradientTransform="matrix(-.2436 .9699 .9699 .2436 -910.21 -3249.1689)" gradientUnits="userSpaceOnUse" x1="3041.6943" x2="3047.4561" xlink:href="#W" y1="1947.7656" y2="1947.7656"/><linearGradient id="Z" gradientTransform="matrix(0 -1 1 0 -1532.5779 3036.5063)" gradientUnits="userSpaceOnUse" x1="2848.2234" x2="2848.2234" y1="1766.9938" y2="1774.2356"><stop offset=".02740354" stop-color="#109488"/><stop offset="1" stop-color="#10ad9b"/></linearGradient><linearGradient id="aa" gradientTransform="matrix(0 -1 1 0 -1532.5779 3036.5063)" gradientUnits="userSpaceOnUse" x1="2841.2178" x2="2855.3687" xlink:href="#W" y1="1768.1456" y2="1768.1456"/><linearGradient id="ab" gradientTransform="matrix(0 -1 1 0 -1532.5779 3036.5063)" gradientUnits="userSpaceOnUse" x1="2841.2178" x2="2855.3687" xlink:href="#g" y1="1770.9821" y2="1770.9821"/><linearGradient id="ac" gradientUnits="userSpaceOnUse" x1="187.1723" x2="187.1723" xlink:href="#g" y1="202.2818" y2="226.3982"/><linearGradient id="ad"><stop offset="0" stop-color="#ed3f50"/><stop offset=".2472" stop-color="#e23244"/><stop offset=".5761" stop-color="#da283b"/><stop offset="1" stop-color="#d72538"/></linearGradient><linearGradient id="ae" gradientUnits="userSpaceOnUse" x1="187.1723" x2="187.1723" xlink:href="#ad" y1="193.9514" y2="212.8617"/><linearGradient id="af"><stop offset="0" stop-color="#d6d6d5"/><stop offset="1" stop-color="#e3e3e2"/></linearGradient><linearGradient id="ag" gradientTransform="matrix(0 -1 1 0 511.6754 1115.8594)" gradientUnits="userSpaceOnUse" x1="916.3271" x2="916.3271" xlink:href="#af" y1="-326.9035" y2="-325.7635"/><linearGradient id="ah" gradientTransform="matrix(0 -1 1 0 511.6754 1115.8594)" gradientUnits="userSpaceOnUse" x1="916.3271" x2="916.3271" xlink:href="#af" y1="-323.2427" y2="-322.1027"/><linearGradient id="ai" gradientUnits="userSpaceOnUse" x1="187.1723" x2="187.1723" xlink:href="#g" y1="146.7641" y2="170.8805"/><linearGradient id="aj" gradientUnits="userSpaceOnUse" x1="185.6374" x2="185.6374" xlink:href="#ad" y1="164.0192" y2="169.4587"/><linearGradient id="ak" gradientTransform="matrix(-1 0 0 1 897.5997 760.7803)" gradientUnits="userSpaceOnUse" x1="708.9382" x2="708.9382" xlink:href="#ad" y1="-596.7611" y2="-591.3216"/><linearGradient id="al" gradientUnits="userSpaceOnUse" x1="187.1896" x2="187.1896" xlink:href="#af" y1="171.3603" y2="192.104"/><linearGradient id="am"><stop offset="0" stop-color="#3b2e61"/><stop offset="1" stop-color="#6052a1"/></linearGradient><linearGradient id="an" gradientUnits="userSpaceOnUse" x1="187.4872" x2="194.0644" xlink:href="#am" y1="187.2605" y2="187.2605"/><linearGradient id="ao" gradientUnits="userSpaceOnUse" x1="180.0444" x2="186.6217" xlink:href="#am" y1="186.3256" y2="186.3256"/><linearGradient id="ap" gradientUnits="userSpaceOnUse" x1="186.4295" x2="186.4295" xlink:href="#am" y1="190.4402" y2="197.7342"/><linearGradient id="aq" gradientUnits="userSpaceOnUse" x1="179.6822" x2="193.3629" xlink:href="#W" y1="191.8466" y2="191.8466"/><linearGradient id="ar" gradientUnits="userSpaceOnUse" x1="200.2125" x2="200.2125" xlink:href="#W" y1="168.2725" y2="174.5242"/><linearGradient id="as" gradientUnits="userSpaceOnUse" x1="173.384" x2="173.384" xlink:href="#W" y1="168.2725" y2="174.5242"/><linearGradient id="at" gradientTransform="matrix(.9993 .03671309 -.03433254 .9345 380.9222 757.8162)" gradientUnits="userSpaceOnUse" x1="-202.5497" x2="-202.5497" xlink:href="#am" y1="-617.2833" y2="-591.2537"/><linearGradient id="au" gradientTransform="matrix(-.9993 .03671309 .03433254 .9345 868.5984 757.8162)" gradientUnits="userSpaceOnUse" x1="672.5536" x2="672.5536" xlink:href="#am" y1="-651.6619" y2="-625.6323"/><linearGradient id="av"><stop offset="0" stop-color="#3f444e"/><stop offset="1" stop-color="#1b2226"/></linearGradient><linearGradient id="aw" gradientUnits="userSpaceOnUse" x1="187.1486" x2="187.0301" xlink:href="#av" y1="168.4502" y2="171.6758"/><linearGradient id="ax" gradientUnits="userSpaceOnUse" x1="181.0621" x2="181.0621" xlink:href="#av" y1="168.876" y2="172.6079"/><linearGradient id="ay" gradientTransform="matrix(-1 0 0 1 906.6886 760.7803)" gradientUnits="userSpaceOnUse" x1="713.2368" x2="713.2368" xlink:href="#av" y1="-591.9043" y2="-588.1724"/><linearGradient id="az" gradientUnits="userSpaceOnUse" x1="187.1896" x2="187.1896" xlink:href="#av" y1="167.1221" y2="173.3739"/><linearGradient id="aA" gradientUnits="userSpaceOnUse" x1="187.1723" x2="187.1723" xlink:href="#av" y1="164.8084" y2="165.9485"/><linearGradient id="aB" gradientUnits="userSpaceOnUse" x1="179.6822" x2="193.3629" xlink:href="#af" y1="195.5008" y2="195.5008"/><linearGradient id="aC" gradientUnits="userSpaceOnUse" x1="152.0421" x2="173.6058" y1="188.1989" y2="188.1989"><stop offset="0" stop-color="#10a290"/><stop offset="1" stop-color="#49b1a6"/></linearGradient><linearGradient id="aD" gradientTransform="matrix(0 -1 1 0 611.3529 1338.9813)" gradientUnits="userSpaceOnUse" x1="1220.403" x2="1223.8582" xlink:href="#Q" y1="-433.171" y2="-433.171"/><linearGradient id="aE" gradientTransform="matrix(0 -1 1 0 611.3529 1338.9813)" gradientUnits="userSpaceOnUse" x1="1227.1682" x2="1230.6234" xlink:href="#Q" y1="-437.5435" y2="-437.5435"/><linearGradient id="aF" gradientTransform="matrix(0 -1 1 0 611.3529 1338.9813)" gradientUnits="userSpaceOnUse" x1="1225.6733" x2="1232.0574" xlink:href="#T" y1="-431.1371" y2="-431.1371"/><linearGradient id="aG" gradientTransform="matrix(0 -1 1 0 611.3529 1338.9813)" gradientUnits="userSpaceOnUse" x1="1219.1179" x2="1225.502" xlink:href="#T" y1="-426.7801" y2="-426.7801"/><linearGradient id="aH" gradientTransform="matrix(0 -1 1 0 611.3529 1338.9813)" gradientUnits="userSpaceOnUse" x1="1213.3595" x2="1218.7664" xlink:href="#W" y1="-424.2047" y2="-424.2047"/><linearGradient id="aI" gradientTransform="matrix(0 1 1 0 611.3529 -4547.939)" gradientUnits="userSpaceOnUse" x1="4649.6592" x2="4655.0659" xlink:href="#W" y1="-425.6308" y2="-425.6308"/><linearGradient id="aJ" gradientTransform="matrix(0 -1 1 0 611.3529 1338.9813)" gradientUnits="userSpaceOnUse" x1="1225.3103" x2="1225.3103" xlink:href="#ad" y1="-427.0786" y2="-420.283"/><linearGradient id="aK" gradientTransform="matrix(0 -1 1 0 611.3529 1338.9813)" gradientUnits="userSpaceOnUse" x1="1218.7664" x2="1232.0452" xlink:href="#W" y1="-425.9977" y2="-425.9977"/><linearGradient id="aL" gradientTransform="matrix(0 -1 1 0 611.3529 1338.9813)" gradientUnits="userSpaceOnUse" x1="1218.7664" x2="1232.0452" xlink:href="#g" y1="-423.336" y2="-423.336"/><g clip-path="url(#a)"><path clip-rule="evenodd" d="m301.5 41.6.6-.3h-.6z" fill="#fff" fill-rule="evenodd"/><g><path d="m-2.5-15 306.2-.1v287.8h-306.2z" fill="url(#b)"/></g><path d="m165.3 138.6h43.2v134.1h-43.2z" fill="#bbbdbf"/><g><path d="m165.8 145.5h42.6v31.5h-42.6z" fill="#b2b4b6"/><path d="m168.2 177h-1.3l20-31.5 21.6 31.5h-1.2l-20.4-29.6z" fill="#d6d6d5"/></g><g><path d="m165.8 241.4h42.6v31.3h-42.6z" fill="#b2b4b6" transform="matrix(-1 0 0 -1 374.3096 514.0472)"/><path d="m207 241.4h1.3l-20.9 31.4-20.7-31.4h1.2l19.5 29.5z" fill="#d6d6d5"/></g><path d="m17.9 141.8h3v131.1h-3z" fill="#fff"/><g><g><path d="m182.5 61h9.3v45.3h-9.3z" fill="#3b824a" transform="matrix(0 -1 1 0 103.4883 270.8692)"/><path d="m182.5 46.3h9.3v45.3h-9.3z" fill="#3b824a" transform="matrix(0 -1 1 0 118.2518 256.1057)"/></g><g fill="#3b824a"><path d="m182.5 31.5h9.3v45.3h-9.3z" transform="matrix(0 -1 1 0 133.0152 241.3423)"/><path d="m182.5 16.7h9.3v45.3h-9.3z" transform="matrix(0 -1 1 0 147.7787 226.5788)"/><path d="m182.5 2h9.3v45.3h-9.3z" transform="matrix(0 -1 1 0 162.5421 211.8154)"/><path d="m182.5-12.8h9.3v45.3h-9.3z" transform="matrix(0 -1 1 0 177.3056 197.0519)"/></g></g><g><g><g><path d="m237.3 47.4h9.3v36.5h-9.3z" fill="#fff" transform="matrix(0 -1 1 0 176.3235 307.6183)"/></g><g fill="#fff"><path d="m237.3 32.6h9.3v36.5h-9.3z" transform="matrix(0 -1 1 0 191.087 292.8548)"/><path d="m237.3 17.9h9.3v36.5h-9.3z" transform="matrix(0 -1 1 0 205.8504 278.0913)"/><path d="m237.3 3.1h9.3v36.5h-9.3z" transform="matrix(0 -1 1 0 220.6139 263.3279)"/><path d="m237.3-11.7h9.3v36.5h-9.3z" transform="matrix(0 -1 1 0 235.3773 248.5644)"/></g></g><path d="m231.6 32.9h76v7.4h-76z" fill="#fff" transform="matrix(0 1 -1 0 306.1996 -233.0518)"/></g><g><path d="m-2.5 138.1h211.5v7.4h-211.5z" fill="#fff"/><g><g><g><path d="m3.4 95.9h9.3v36.5h-9.3z" fill="#fff"/><path d="m18.2 95.9h9.3v36.5h-9.3z" fill="#fff"/></g></g></g><g><g><path d="m18.3 95.9h9.3v36.5h-9.3z" fill="#fff"/></g><g fill="#fff"><path d="m33 95.9h9.3v36.5h-9.3z"/><path d="m47.8 95.9h9.3v36.5h-9.3z"/><path d="m62.5 95.9h9.3v36.5h-9.3z"/><path d="m77.3 95.9h9.3v36.5h-9.3z"/><path d="m92.1 95.9h9.3v36.5h-9.3z"/><path d="m106.8 95.9h9.3v36.5h-9.3z"/></g></g><g><g><path d="m121.6 95.9h9.3v36.5h-9.3z" fill="#fff"/></g><g fill="#fff"><path d="m136.4 95.9h9.3v36.5h-9.3z"/><path d="m151.2 95.9h9.3v36.5h-9.3z"/><path d="m165.9 95.9h9.3v36.5h-9.3z"/><path d="m180.7 95.9h9.3v36.5h-9.3z"/><path d="m195.5 95.9h9.3v36.5h-9.3z"/></g></g></g><g><path d="m233.2 74.6c-9.5.1-22.6 14.4-23.2 23.8v174.3h93.7v-164.3-16.8-17z" fill="#bbbdbf"/><g><path d="m210.1 156.5h93.6v2.2h-93.6z" fill="#d6d6d5"/></g><g><path d="m210.1 230h93.6v2.2h-93.6z" fill="#d6d6d5"/></g><path d="m208.5 272.7v-173.7c0-.4 26.1-25.9 31.6-25.9h63.5v3h-63.5c-4.7 0-28.6 22.7-28.6 22.8v173.7h-3z" fill="#fad03b"/></g><g><path d="m256.9 210.9h34.6v-33.1h-34.6z" fill="url(#c)"/><path d="m262.3 195.9c0-.7.1-1.3.3-1.9 0-.3 0-.5 0-.8 0-2 .5-3.9 1.3-5.6-.1-.5-.2-1-.2-1.6 0-3.5 2.9-6.4 6.4-6.4 1.4 0 2.6.4 3.7 1.2.4 0 .8-.1 1.3-.1 2.6 0 4.9.8 6.9 2.1.3 0 .6-.1.9-.1 3.5 0 6.4 2.9 6.4 6.4 0 1.7-.7 3.3-1.8 4.4v.7c1.1 1.2 1.8 2.7 1.8 4.5 0 3.5-2.9 6.4-6.4 6.4-1 0-1.9-.2-2.7-.6-.9 2.4-3.2 4.1-6 4.1-3.1 0-5.7-2.3-6.3-5.2-.8-.5-1.5-1.1-2.1-1.8-2-1-3.5-3.2-3.5-5.7z" fill="url(#d)"/></g><g><path d="m112.5 164.3-64.4-.1h-1.9v-2.3c0-1 .9-1.9 1.9-1.9l64.4.1c1 0 1.9.9 1.9 1.9v2.2z" fill="#b2b2b2"/><g><path d="m117.8 189.9-75.3-.2-.6 176.9 75.5.2z" fill="url(#f)"/><path d="m115.5 366.8-71.8-.2h-1.9v2.3c0 1 .8 1.9 1.9 1.9l71.8.2c1 0 1.9-.8 1.9-1.9v-2.2z" fill="#b2b2b2"/><path d="m121.1 329.7c0 9.6 0 17.4-2.6 17.4-.3 0-2.8 0-3.3 0-3 0-3.4-9-3.4-17.4s.8-15.6 3.3-17.2c.4-.2 3.2-.2 3.5-.2 2.6-.1 2.5 7.7 2.5 17.4z" fill="url(#h)"/><path d="m37.4 329.4c0 9.6-.1 17.4 2.5 17.4h3.3c3 0 3.5-9 3.5-17.4s-.7-15.6-3.2-17.2c-.4-.2-3.2-.2-3.5-.2-2.6 0-2.5 7.8-2.6 17.4z" fill="url(#i)"/><path d="m124.5 199.9c0 9.6 0 17.4-2.6 17.4-.3 0-2.8 0-3.3 0-3 0-3.4-9-3.4-17.4s.8-15.6 3.3-17.2c.4-.2 3.2-.2 3.5-.2 2.6 0 2.5 7.8 2.5 17.4z" fill="url(#j)"/><path d="m35.7 199.6c0 9.6-.1 17.4 2.5 17.4h3.3c3 0 3.5-9 3.5-17.4s-.7-15.6-3.2-17.2c-.4-.2-3.2-.2-3.5-.2-2.6 0-2.6 7.8-2.6 17.4z" fill="url(#k)"/><path d="m46.9 346.9h-4.9l.1-35.1h4.9z" fill="url(#l)"/><path d="m116.4 347.1h-4.9l.1-35h4.9z" fill="url(#m)"/><path d="m45.5 217.1h-5.9l.1-34.9h5.9z" fill="url(#n)"/><path d="m120.2 217.3h-6l .2-34.8h5.9z" fill="url(#o)"/><path d="m42.6 197.6s0-10.7 0-21c0-13.5 16.6-12.3 16.6-12.3h41.6s17.1-1.1 17.1 11.2c0 6.9-.1 21.6-.1 21.6z" fill="url(#p)"/><path d="m112.5 169.1h-13v-7.4h13z" fill="url(#r)"/><path d="m60.5 169.1h-13v-7.4h13.1z" fill="url(#s)"/><path d="m98.2 170 .1-5.8h16.1v5.8z" fill="url(#t)"/><path d="m114 221.7-10.7-3.5v32.5l10.5 8.8z" fill="#d6d6d5"/><path d="m113.9 263.5-10.7-8.9v37.3l10.5 8.7z" fill="#d6d6d5"/><path d="m113.9 305.1-10.7-8.9v35.4l10.5 10.6z" fill="#d6d6d5"/><path d="m108.6 233.7c-2.9 0-5.3 7.4-5.3 17.1l10.5 8.8c.1-9.7-2.3-25.9-5.2-25.9z" fill="url(#v)" opacity=".5"/><path d="m108.6 274.7c-2.9 0-5.3 7.4-5.3 17.1l10.5 8.8c.1-9.7-2.3-25.9-5.2-25.9z" fill="url(#w)" opacity=".5"/><path d="m108.6 316.3c-2.9 0-5.3 5.6-5.3 15.3l10.4 10.6c.1-9.6-2.2-25.8-5.1-25.9z" fill="url(#x)" opacity=".5"/><path d="m97.7 368.8v-2.1h10.6v2.1z" fill="url(#y)"/><path d="m50.4 368.6v-2.1l10.6.1v2z" fill="url(#z)"/><path d="m53.3 353.9 7-7.1 41.3.1 7.2 8.1s2.3 2-.1 2-52.2-.5-55.4-.4c-3.3 0 0-2.7 0-2.7z" fill="#d6d6d5"/><path d="m80.3 356.7c20.3.3 20.2-1.6 21.2-9.8l-41.3-.1c1.4 9.1 3.3 9.7 20.1 9.9z" fill="url(#A)" opacity=".5"/><path d="m46.3 170v-5.8h16.1v5.8z" fill="url(#B)"/><g><ellipse clip-path="url(#C)" cx="46.1" cy="171.3" fill="url(#E)" opacity=".25" rx="36.1" ry="33.9"/></g><g><path clip-path="url(#F)" d="m92.8 323.9c-.1 29.3-22.6 53-50.2 52.9-27.7-.1-50.1-24-50-53.3s22.6-53 50.2-52.9c27.7.1 50.1 24 50 53.3z" fill="url(#G)" opacity=".25"/></g><path d="m79.7 208.8-.4 138s-15.9-.1-19-.1-3.8-3.1-3.8-3.1l-.2-128.8s6.2-2.8 10.8-4.1c7.3-1.9 12.6-1.9 12.6-1.9z" fill="url(#H)" opacity=".25"/><g fill="#d6d6d5"><path d="m103.2 336v7.7s3.6 3.6 7.1 7.3 3.5-1.1 3.5-1.1v-3.7z"/><path d="m45.6 221.7 10.7-3.5v32.5l-10.5 8.8z"/><path d="m45.7 263.5 10.7-8.9v37.3l-10.5 8.7z"/><path d="m45.7 305.1 10.7-8.9v35.4l-10.5 10.6z"/></g><path d="m51 233.7c2.9 0 5.3 7.4 5.3 17.1l-10.5 8.8c-.1-9.7 2.3-25.9 5.2-25.9z" fill="url(#I)" opacity=".5"/><path d="m51 274.7c2.9 0 5.3 7.4 5.3 17.1l-10.5 8.8c-.1-9.7 2.3-25.9 5.2-25.9z" fill="url(#J)" opacity=".5"/><path d="m51 316.3c2.9 0 5.3 5.6 5.3 15.3l-10.4 10.6c-.1-9.6 2.2-25.8 5.1-25.9z" fill="url(#K)" opacity=".5"/><path d="m56.4 336v7.7s-3.6 3.6-7.1 7.3-3.5-1.1-3.5-1.1v-3.7z" fill="#d6d6d5"/><path d="m51.1 344.2c4-3.5 5.3-1.5 5.3-.4 0 0-6.2 6.4-7.5 7.7-1.3 1.2-2.5 1.1-2.5 0 .1-3.1 3-5.9 4.7-7.3z" fill="url(#L)" opacity=".5"/><path d="m108.6 344.2c-4-3.5-5.3-1.5-5.3-.4 0 0 6.2 6.4 7.5 7.7 1.3 1.2 2.5 1.1 2.5 0-.2-3.1-3.1-5.9-4.7-7.3z" fill="url(#M)" opacity=".5"/><path d="m87.3 189.9 41.5.1-.1 8.3-14.5 3.8z" fill="url(#N)"/><path d="m77.6 189.7-47.6-.1v8.4l15.5 3.9z" fill="url(#O)"/><path d="m114.2 197c0 1.9.1 21.6.1 21.6l-10.8-3.6s-11.2-6.9-23.2-6.3c-11.9-.2-24.1 6.1-24.1 6.1l-10.6 3.8v-7.1s-.2-10.6 0-14.6 17.3-7.3 34.8-7.3c19.6 0 33.8 5.5 33.8 7.4z" fill="#d6d6d5"/><path d="m82.2 189.8c-21.7-.9-35.6 13.6-36.6 21.7v7.1l10.6-3.8s10.6-5.6 23.5-6.1c8.7-.4 16.6 2.8 16.6 2.8l7.3 3.5 10.8 3.6v-7.2c-4-9.1-17.7-21-32.2-21.6z" fill="url(#P)" opacity=".5"/></g></g><path clip-rule="evenodd" d="m299.6 8.7-10.9 6.3-10.8 6.3 10.8 6.2 10.9 6.3v-8.3h4.1v-8.4h-4.1z" fill="#fff" fill-rule="evenodd" opacity=".5"/><g><path d="m245.9 148h4.3v108.2h-4.3z" fill="#b2b4b6"/><g fill="#b2b4b6"><path d="m228.8 147.9h20.1v108.3h-20.1z"/><path d="m245.9 148.1h4.3v108h-4.3z"/><path d="m228.8 173.6h17.2v1.8h-17.2z"/><path d="m228.8 201.2h17.2v1.8h-17.2z"/><path d="m228.8 228.7h17.2v1.8h-17.2z"/><g><g><g><circle cx="233.5" cy="154.9" r="1.4"/><circle cx="237.4" cy="154.9" r="1.4"/><circle cx="237.4" cy="151" r="1.4"/><circle cx="241.3" cy="154.9" r="1.4"/><circle cx="233.5" cy="158.9" r="1.4"/><circle cx="241.3" cy="158.9" r="1.4"/><circle cx="233.5" cy="162.8" r="1.4"/><circle cx="237.4" cy="162.8" r="1.4"/><circle cx="237.4" cy="158.9" r="1.4"/><circle cx="241.3" cy="162.7" r="1.4"/></g><circle cx="233.5" cy="166.6" r="1.4"/><circle cx="237.4" cy="170.5" r="1.4"/><circle cx="237.4" cy="166.6" r="1.4"/><circle cx="241.3" cy="166.6" r="1.4"/></g><g><g><circle cx="233.5" cy="182.4" r="1.4"/><circle cx="237.4" cy="182.4" r="1.4"/><circle cx="237.4" cy="178.5" r="1.4"/><circle cx="241.3" cy="182.3" r="1.4"/><circle cx="233.5" cy="186.3" r="1.4"/><circle cx="241.3" cy="186.3" r="1.4"/><circle cx="233.5" cy="190.2" r="1.4"/><circle cx="237.4" cy="190.2" r="1.4"/><circle cx="237.4" cy="186.3" r="1.4"/><circle cx="241.3" cy="190.1" r="1.4"/></g><circle cx="233.5" cy="194" r="1.4"/><circle cx="237.4" cy="197.9" r="1.4"/><circle cx="237.4" cy="194" r="1.4"/><circle cx="241.3" cy="194" r="1.4"/></g><g><g><circle cx="233.5" cy="210" r="1.4"/><circle cx="237.4" cy="210" r="1.4"/><circle cx="237.4" cy="206.1" r="1.4"/><circle cx="241.3" cy="209.9" r="1.4"/><circle cx="233.5" cy="213.9" r="1.4"/><circle cx="241.3" cy="213.9" r="1.4"/><circle cx="233.5" cy="217.8" r="1.4"/><circle cx="237.4" cy="217.8" r="1.4"/><circle cx="237.4" cy="213.9" r="1.4"/><circle cx="241.3" cy="217.7" r="1.4"/></g><circle cx="233.5" cy="221.7" r="1.4"/><circle cx="237.4" cy="225.6" r="1.4"/><circle cx="237.4" cy="221.7" r="1.4"/><circle cx="241.3" cy="221.7" r="1.4"/></g><g><g><circle cx="233.5" cy="237.4" r="1.4"/><circle cx="237.4" cy="237.4" r="1.4"/><circle cx="237.4" cy="233.5" r="1.4"/><circle cx="241.3" cy="237.4" r="1.4"/><circle cx="233.5" cy="241.4" r="1.4"/><circle cx="241.3" cy="241.4" r="1.4"/><circle cx="233.5" cy="245.3" r="1.4"/><circle cx="237.4" cy="245.3" r="1.4"/><circle cx="237.4" cy="241.4" r="1.4"/><circle cx="241.3" cy="245.2" r="1.4"/></g><circle cx="233.5" cy="249.1" r="1.4"/><circle cx="237.4" cy="253" r="1.4"/><circle cx="237.4" cy="249.1" r="1.4"/><circle cx="241.3" cy="249.1" r="1.4"/></g></g></g><g><path d="m226.3 190.9v1.7c0 .6-.5 1-1 1h-4.7c-.6 0-1-.5-1-1v-1.7c0-.6.5-1 1-1h4.7c.5 0 1 .4 1 1z" fill="url(#R)"/><path d="m226.3 183.7v1.7c0 .6-.5 1-1 1h-4.7c-.6 0-1-.5-1-1v-1.7c0-.6.5-1 1-1h4.7c.5 0 1 .4 1 1z" fill="url(#S)"/><path d="m236.6 183v3.1c0 1-.8 1.8-1.8 1.8h-10c-1 0-1.8-.8-1.8-1.8v-3.1c0-1 .8-1.8 1.8-1.8h10c .9-.1 1.8.8 1.8 1.8z" fill="url(#U)"/><path d="m236.6 190v3.1c0 1-.8 1.8-1.8 1.8h-10c-1 0-1.8-.8-1.8-1.8v-3.1c0-1 .8-1.8 1.8-1.8h10c .9-.1 1.8.7 1.8 1.8z" fill="url(#V)"/><path d="m241.5 197.1-.2.5c.3 1.4-2.4 3.3-2.4 3.3l-2.5.5c-1.4.3-2.7-1-3-2.4-.3-1.4.6-3 2-3.3l5.7-1c-.1-.1.2 1 .4 2.4z" fill="url(#X)"/><path d="m241.1 179.6-.1-.5c.3-1.3-2.2-3.4-2.2-3.4l-2.5-.6c-1.3-.3-2.8.8-3.1 2.2-.3 1.3.4 3.1 1.7 3.4l5.6 1.4c-.1-.1.2-1.2.6-2.5z" fill="url(#Y)"/><path d="m241.7 177v22.6c0 1.1-.9 2-2 2h-3.3c-1.1 0-2-.9-2-2v-22.6c0-1.1.9-2 2-2h3.3c1.1 0 2 .9 2 2z" fill="url(#Z)"/><path d="m235.6 181.1c5.4 0 9.9 1.5 9.9 7 0 5.4-4.4 7.2-9.9 7.2-2.5 0-4.1-.9-5.3-2.3-1-1.2-1.8-1.7-2.3-3.5-.2-.7-2.3-.5-2.3-1.3s1.8-.7 2-1.3c.4-1.5 1.3-2.5 2.2-3.5 1.3-1.7 2.8-2.3 5.7-2.3z" fill="url(#aa)"/><path d="m235.2 195.3s.9-1.3 2-1.1c1.2.1.9 1 1.1 1 .2-.1 7.2-.2 7.1-7.2-.1-6.7-7.8-6.6-7.8-6.6s0 1.5-1.3 1.3-1.5-1.4-1.5-1.4l-.9.1-.7.1s.9 1.5 1.6 1.9c.5.3.4.7.4.7s-4-.1-3.9 4c .2 4.6 3.9 4.2 3.9 4.2s.5.5-.2.9c-.6.3-1.8 2-1.8 2s .5.2 1 .2c.5-.1 1-.1 1-.1z" fill="url(#ab)"/></g></g><g><path d="m250 265.5h-30.8c-1.3 0-2.3-1-2.3-2.3v-122.2c0-1.3 1-2.3 2.3-2.3h30.8c1.3 0 2.3 1 2.3 2.3v122.2c0 1.2-1 2.3-2.3 2.3z" fill="#c0ffff" opacity=".3"/><path d="m250.7 136.3h-32.2c-2.1 0-3.8 1.7-3.8 3.8v124c0 2.1 1.7 3.8 3.8 3.8h32.2c2.1 0 3.8-1.7 3.8-3.8v-124c0-2.1-1.7-3.8-3.8-3.8zm1.6 125.4c0 2.1-1.7 3.8-3.8 3.8h-27.9c-2.1 0-3.8-1.7-3.8-3.8v-119.3c0-2.1 1.7-3.8 3.8-3.8h27.9c2.1 0 3.8 1.7 3.8 3.8z" fill="#42210b"/></g><path d="m165.9 145.5h1v127.2h-1z" fill="#989898"/><path d="m162.9 138.7v23.1l-20.5-20.5v-2.5h-3v134h3v-22l20.5 20.5v1.5h3v-134h-3zm0 27.3v16.9l-20.5-20.5v-16.9zm-20.6 42.8 20.5 20.5v16.9l-20.5-20.5zm0-4.3v-16.9l20.5 20.5v16.9zm0-21.1v-16.9l20.5 20.5v17zm0 63v-16.5l20.5 20.5v16.5z" fill="#fff"/><g><g><path d="m187.8 226.4h-1.2c-.5 0-.9-.4-.9-.9v-22.3c0-.5.4-.9.9-.9h1.2c.5 0 .9.4.9.9v22.3c0 .5-.4.9-.9.9z" fill="url(#ac)"/><path d="m187.9 212.9h-1.4c-.6 0-1.1-.5-1.1-1.1v-16.7c0-.6.5-1.1 1.1-1.1h1.4c.6 0 1.1.5 1.1 1.1v16.7c0 .6-.5 1.1-1.1 1.1z" fill="url(#ae)"/><path d="m185.9 195.2v8.7c0 .2-.2.4-.4.4h-.4c-.2 0-.4-.2-.4-.4v-8.7c0-.2.2-.4.4-.4h.4c.3 0 .4.2.4.4z" fill="url(#ag)"/><path d="m189.6 195.2v8.7c0 .2-.2.4-.4.4h-.4c-.2 0-.4-.2-.4-.4v-8.7c0-.2.2-.4.4-.4h.4c.2 0 .4.2.4.4z" fill="url(#ah)"/><path d="m187.8 170.9h-1.2c-.5 0-.9-.4-.9-.9v-22.3c0-.5.4-.9.9-.9h1.2c.5 0 .9.4.9.9v22.3c0 .5-.4.9-.9.9z" fill="url(#ai)"/><path d="m185.7 169.5h-.4c-.1 0-.2-.1-.2-.2v-5.1c0-.1.1-.2.2-.2h.4c.3 0 .5.2.5.5v4.5c0 .2-.2.5-.5.5z" fill="url(#aj)"/><path d="m188.6 169.5h.4c.1 0 .2-.1.2-.2v-5.1c0-.1-.1-.2-.2-.2h-.4c-.3 0-.5.2-.5.5v4.5c0 .2.2.5.5.5z" fill="url(#ak)"/><path d="m185.7 171.4h3v20.7h-3z" fill="url(#al)"/><path d="m192 197.7h-2.5c-1.1 0-2-.9-2-2v-16.9c0-1.1.9-2 2-2h2.5c1.1 0 2 .9 2 2v16.9c.1 1.1-.8 2-2 2z" fill="url(#an)"/><path d="m184.6 197.7h-2.5c-1.1 0-2-.9-2-2v-18.8c0-1.1.9-2 2-2h2.5c1.1 0 2 .9 2 2v18.8c0 1.1-.9 2-2 2z" fill="url(#ao)"/><path d="m174.1 190.4h24.6v7.3h-24.6z" fill="url(#ap)"/><path d="m193.4 191.8c0 5.3-1.5 9.5-6.7 9.5s-7-4.3-7-9.5c0-2.5.9-3.9 2.3-5.1 1.2-1 1.7-1.8 3.4-2.2.7-.2.5-2.2 1.3-2.2.7 0 .6 1.8 1.2 1.9 1.5.4 2.4 1.3 3.4 2.1 1.5 1.3 2.1 2.8 2.1 5.5z" fill="url(#aq)"/><circle cx="200.2" cy="171.4" fill="url(#ar)" r="3.1"/><circle cx="173.4" cy="171.4" fill="url(#as)" r="3.1"/><path d="m199.4 197.7c-1.4-.1-3.5.9-3.5-2.5 0-5.5 2.2-5.8 2.1-9.6 0-2.3-.3-10.9-.3-10.9 0-1.3 1.2-1.2 2.6-1.2 1.3.1 2.4 0 2.4 1.3l-.7 20.5c-.1 1.4-1.2 2.5-2.6 2.4z" fill="url(#at)"/><path d="m174.4 197.7c1.4-.1 3.5.9 3.5-2.5 0-5.5-2.2-5.8-2.1-9.6 0-2.3.3-10.9.3-10.9 0-1.3-1.2-1.2-2.6-1.2-1.3.1-2.4 0-2.4 1.3l.7 20.5c.1 1.4 1.3 2.5 2.6 2.4z" fill="url(#au)"/><path d="m199.6 170.1c0-.6-.4-1.2-.8-1.2s-23.2 0-23.3 0c-.5 0-.9.5-.9 1.2s.4 1.2.9 1.2h23.3c.4-.1.8-.6.8-1.2z" fill="url(#aw)"/><path d="m178.7 172.5s5 1 4.7-3.6h-4.8z" fill="url(#ax)"/><path d="m195.8 172.5s-5 1-4.7-3.6h4.8z" fill="url(#ay)"/><ellipse cx="187.2" cy="170.2" fill="url(#az)" rx="2.7" ry="3.1"/><path d="m192.8 165.9h-11.3c-.2 0-.4-.2-.4-.4v-.4c0-.2.2-.4.4-.4h11.3c.2 0 .4.2.4.4v.4c0 .3-.2.4-.4.4z" fill="url(#aA)"/><path d="m179.7 191.5s1.2.8 1.1 2c-.1 1.1-1 .9-.9 1.1s.2 6.9 7 6.8c6.5-.1 6.4-7.5 6.4-7.5s-1.4 0-1.2-1.3c.2-1.2 1.3-1.4 1.3-1.4l-.2-1.6s-1.5.9-1.8 1.5c-.3.5-1.4 2-.6 3.5s-.2 2.6-.7 3.2c-.6.7-4.8.9-6.2.3s-2.2-1.9-2-2.9.7-3.5 0-3.9-1.9-1.7-1.9-1.7l-.2.9z" fill="url(#aB)"/></g><g><g><g><path d="m162.8 199c-5.9 0-10.8-4.8-10.8-10.8 0-5.9 4.8-10.8 10.8-10.8 5.9 0 10.8 4.8 10.8 10.8 0 5.9-4.8 10.8-10.8 10.8z" fill="url(#aC)"/><path d="m162.8 199.4c-6.2 0-11.2-5-11.2-11.2s5-11.2 11.2-11.2 11.2 5 11.2 11.2-5 11.2-11.2 11.2zm0-21.6c-5.7 0-10.4 4.7-10.4 10.4s4.7 10.4 10.4 10.4 10.4-4.7 10.4-10.4-4.7-10.4-10.4-10.4z" fill="#fff"/></g><path d="m161.2 193.1-4.8-4.8 1.9-1.8 2.9 2.9 6.2-6.2 1.9 1.8z" fill="#fff"/></g><path d="m155.2 180.6 15.2 15.2c-4.2 4.2-11 4.2-15.2 0-4.2-4.1-4.2-11 0-15.2z" fill="#d8d8d8"/></g></g><g><path d="m239.8 73.1v29.3s-20.2 0-31.3 0v-3.6s.4-9.3 8.5-17.5c7.7-7.8 21-8.2 21-8.2z" fill="#b2b4b6"/><g fill="#fff"><path d="m229 91.9c-.5.4-.6 1.1-.2 1.6s1.1.6 1.6.2.6-1.1.2-1.6-1.1-.6-1.6-.2zm0 0"/><path d="m223.8 88c-.4-1-.1-2.2.7-2.8 1.1-.8 2.6-.7 3.4.4.6.8.7 1.8.3 2.7l.6.8c.8-1.2.8-2.9-.1-4.1-1.2-1.5-3.3-1.7-4.8-.5-1.1.9-1.5 2.2-1.2 3.5l.8.4c.1-.2.2-.3.3-.4zm0 0"/><path d="m220.5 89 3 1.4c.2.1.5.1.7-.1l1.5-1.2.3.3-1.3 1c-.1.1-.2.3-.2.4s0 .2.1.3c.2.2.5.2.7.1l1.3-1 .9 1.1c.3.3.8.6 1.4.2.4-.3.5-.9.2-1.4l-2-2.5c-.3-.4-1-.5-1.4-.2l-1.9 1.5-2.6-1.2c-.2-.1-.5-.1-.7.1-.1.1-.1.1-.2.2-.3.5-.2.9.2 1zm0 0"/></g></g></g><g clip-path="url(#a)"><path d="m181.3 116.4v.9c0 .7-.6 1.3-1.3 1.3h-3.7c-.7 0-1.3-.6-1.3-1.3v-.9c0-.7.6-1.3 1.3-1.3h3.7c.7 0 1.3.6 1.3 1.3z" fill="url(#aD)"/><path d="m176.9 109.7v.9c0 .7-.6 1.3-1.3 1.3h-3.6c-.7 0-1.3-.6-1.3-1.3v-.9c0-.7.6-1.3 1.3-1.3h3.7c.7 0 1.2.5 1.2 1.3z" fill="url(#aE)"/><path d="m186.6 109.3v1.6c0 1.3-1.1 2.4-2.4 2.4h-8c-1.3 0-2.4-1.1-2.4-2.4v-1.6c0-1.3 1.1-2.4 2.4-2.4h8c1.3 0 2.4 1.1 2.4 2.4z" fill="url(#aF)"/><path d="m191 115.9v1.6c0 1.3-1.1 2.4-2.4 2.4h-8.1c-1.3 0-2.4-1.1-2.4-2.4v-1.6c0-1.3 1.1-2.4 2.4-2.4h8.1c1.3 0 2.4 1.1 2.4 2.4z" fill="url(#aG)"/><path d="m191.1 122.6-.3.5c0 1.3-2.8 2.6-2.8 2.6h-2.4c-1.3 0-2.4-1.4-2.4-2.7 0-1.3 1.1-2.7 2.4-2.7h5.4c0-.1.1 1 .1 2.3z" fill="url(#aH)"/><path d="m189.6 104.8-.3-.5c0-1.3-2.8-2.6-2.8-2.6h-2.4c-1.3 0-2.4 1.4-2.4 2.7 0 1.3 1.1 2.7 2.4 2.7h5.4c.1 0 .1-1 .1-2.3z" fill="url(#aI)"/><path d="m191.1 104.3v18.8c0 1.4-1.1 2.6-2.6 2.6h-1.7c-1.4 0-2.6-1.1-2.6-2.6v-18.8c0-1.4 1.1-2.6 2.6-2.6h1.7c1.4 0 2.6 1.2 2.6 2.6z" fill="url(#aJ)"/><path d="m185.4 106.9c5.1 0 9.3 1.4 9.3 6.5s-4.1 6.7-9.3 6.7c-2.4 0-3.8-.8-5-2.2-.9-1.1-1.7-1.6-2.2-3.3-.2-.6-2.1-.5-2.1-1.3 0-.7 1.7-.6 1.9-1.2.4-1.4 1.3-2.3 2-3.3 1.2-1.4 2.7-1.9 5.4-1.9z" fill="url(#aK)"/><path d="m185 120.2s.8-1.2 1.9-1.1.9 1 1.1.9 6.7-.2 6.6-6.8c-.1-6.3-7.3-6.2-7.3-6.2s0 1.4-1.2 1.2-1.4-1.3-1.4-1.3l-.9.1-.7.1s.9 1.4 1.5 1.8c.5.3.4.7.4.7s-3.8-.1-3.6 3.8c.2 4.3 3.6 3.9 3.6 3.9s.5.5-.2.8c-.6.3-1.7 1.9-1.7 1.9s.5.1.9.2z" fill="url(#aL)"/></g></svg>