<?xml version="1.0" encoding="utf-8"?>
<!-- Generator: Adobe Illustrator 20.0.0, SVG Export Plug-In . SVG Version: 6.00 Build 0)  -->
<svg version="1.1" id="Layer_1" xmlns="http://www.w3.org/2000/svg" xmlns:xlink="http://www.w3.org/1999/xlink" x="0px" y="0px"
	 viewBox="0 0 180 180" style="enable-background:new 0 0 180 180;" xml:space="preserve">
<g>
	<g>
		<path style="fill:#10AE9D;" d="M144,108c-19.9,0-36,16.1-36,36s16.1,36,36,36s36-16.1,36-36S163.9,108,144,108z M144,168.9
			c-13.8,0-24.9-11.2-24.9-24.9s11.2-24.9,24.9-24.9s24.9,11.2,24.9,24.9S157.8,168.9,144,168.9z"/>
		<path style="fill:#1A9E8C;" d="M118.5,118.5c-14.1,14.1-14.1,36.9,0,50.9c14.1,14.1,36.9,14.1,50.9,0l-7.8-7.8
			c-9.7,9.7-25.5,9.7-35.2,0s-9.7-25.5,0-35.2L118.5,118.5z"/>
	</g>
	<g>
		<g>
			<path style="fill:#10AE9C;" d="M36,108c-19.9,0-36,16.1-36,36s16.1,36,36,36s36-16.1,36-36S55.9,108,36,108z M36,168.9
				c-13.8,0-24.9-11.2-24.9-24.9s11.2-24.9,24.9-24.9s24.9,11.2,24.9,24.9S49.8,168.9,36,168.9z"/>
			<path style="fill:#1A9E8C;" d="M10.5,118.5c-14.1,14.1-14.1,36.9,0,50.9s36.9,14.1,50.9,0l-7.8-7.8c-9.7,9.7-25.5,9.7-35.2,0
				s-9.7-25.5,0-35.2L10.5,118.5z"/>
		</g>
		<path style="fill:#D72538;" d="M36,108c-15.7,0-29,10-33.9,24H36c6.6,0,12,5.4,12,12v0h24C72,124.1,55.9,108,36,108z"/>
		<path style="fill:#CD091D;" d="M36,119.7c-8.9,0-16.5,6-20.7,12H36c6.6,0,12,6,12,12h12C60,131.7,49.3,119.7,36,119.7z"/>
		<path style="fill:#D7D7D6;" d="M90,156H42c-6.6,0-12-5.4-12-12v-6h48l36-54h24L90,156z"/>
		<path style="fill:#CFCFCF;" d="M90,156H42c-6.6,0-12-5.4-12-12v0h54l42-60h12L90,156z"/>
		<g>
			<polygon style="fill:#414141;" points="162,72 162,96 150,96 150,90 138,84 138,78 126,66 114,72 132,90 132,102 168,102 168,66 
							"/>
			<path style="fill:#F7B11D;" d="M126,66L91,31c-3.9-3.9-10.1-3.9-14,0C66.3,41.7,46,62,35.9,72.1c-3.3,3.3-3.3,8.6,0,11.9L66,114
				v42h24v-54L66,78l24-24l24,24L126,66z"/>
			<circle style="fill:#F7B11D;" cx="111" cy="15" r="15"/>
			<path style="fill:#F3A127;" d="M35.9,83.9L66,114v42h12v-42L36,72l-0.1,0.1C32.7,75.3,32.7,80.7,35.9,83.9z"/>
			
				<rect x="100.8" y="46" transform="matrix(0.7071 -0.7071 0.7071 0.7071 -13.7939 92.6985)" style="fill:#F3A127;" width="8.5" height="33.9"/>
		</g>
	</g>
	<path style="fill:#D72538;" d="M144,150c-2.8,0-5.3-2-5.9-4.8l-12-60c-0.7-3.2,1.5-6.4,4.7-7.1c3.3-0.7,6.4,1.5,7.1,4.7l12,60
		c0.7,3.3-1.5,6.4-4.7,7.1C144.8,150,144.4,150,144,150z"/>
</g>
</svg>
