<svg enable-background="new 0 0 364.7 202.8" viewBox="0 0 364.7 202.8" xmlns="http://www.w3.org/2000/svg" xmlns:xlink="http://www.w3.org/1999/xlink"><defs><clipPath id="a"><path d="m0 0h364.7v202.8h-364.7z"/></clipPath><linearGradient id="b" gradientUnits="userSpaceOnUse" x1="182.2264" x2="182.2264" y1="127.6972" y2="38.1356"><stop offset="0" stop-color="#507e24"/><stop offset="1" stop-color="#8cc65b"/></linearGradient><linearGradient id="c" gradientUnits="userSpaceOnUse" x1="182.3603" x2="182.3603" y1="202.575" y2="118.9881"><stop offset="0" stop-color="#3e444e"/><stop offset="1" stop-color="#1a2226"/></linearGradient><linearGradient id="d" gradientUnits="userSpaceOnUse" x1="0" x2="364.7206" y1="117.6939" y2="117.6939"><stop offset="0" stop-color="#e5e5e4"/><stop offset="1" stop-color="#d8d8d7"/></linearGradient><linearGradient id="e"><stop offset="0" stop-color="#3bb44a"/><stop offset="1" stop-color="#3b834a"/></linearGradient><linearGradient id="f" gradientTransform="matrix(-1 0 0 1 3687.76 0)" gradientUnits="userSpaceOnUse" x1="3318.8252" x2="3328.3521" xlink:href="#e" y1="195.499" y2="195.499"/><linearGradient id="g" gradientTransform="matrix(-1 0 0 1 3687.76 0)" gradientUnits="userSpaceOnUse" x1="3333.1711" x2="3342.699" xlink:href="#e" y1="195.499" y2="195.499"/><linearGradient id="h" gradientTransform="matrix(-1 0 0 1 3687.76 0)" gradientUnits="userSpaceOnUse" x1="3490.502" x2="3500.0295" xlink:href="#e" y1="195.499" y2="195.499"/><linearGradient id="i" gradientTransform="matrix(-1 0 0 1 3687.76 0)" gradientUnits="userSpaceOnUse" x1="3504.8484" x2="3514.3772" xlink:href="#e" y1="195.499" y2="195.499"/><linearGradient id="j" gradientTransform="matrix(-1 0 0 1 3687.76 0)" gradientUnits="userSpaceOnUse" x1="3519.196" x2="3528.7231" xlink:href="#e" y1="195.499" y2="195.499"/><linearGradient id="k" gradientTransform="matrix(-1 0 0 1 3687.76 0)" gradientUnits="userSpaceOnUse" x1="3533.542" x2="3543.0701" xlink:href="#e" y1="195.499" y2="195.499"/><linearGradient id="l" gradientTransform="matrix(-1 0 0 1 3687.76 0)" gradientUnits="userSpaceOnUse" x1="3547.9934" x2="3557.5225" xlink:href="#e" y1="195.499" y2="195.499"/><linearGradient id="m" gradientTransform="matrix(-1 0 0 1 3687.76 0)" gradientUnits="userSpaceOnUse" x1="3562.3411" x2="3571.8682" xlink:href="#e" y1="195.499" y2="195.499"/><linearGradient id="n" gradientTransform="matrix(-1 0 0 1 3687.76 0)" gradientUnits="userSpaceOnUse" x1="3576.6873" x2="3586.2151" xlink:href="#e" y1="195.499" y2="195.499"/><linearGradient id="o" gradientTransform="matrix(-1 0 0 1 3687.76 0)" gradientUnits="userSpaceOnUse" x1="3404.4951" x2="3414.0225" xlink:href="#e" y1="195.499" y2="195.499"/><linearGradient id="p" gradientTransform="matrix(-1 0 0 1 3687.76 0)" gradientUnits="userSpaceOnUse" x1="3418.8413" x2="3428.3689" xlink:href="#e" y1="195.499" y2="195.499"/><linearGradient id="q" gradientTransform="matrix(-1 0 0 1 3687.76 0)" gradientUnits="userSpaceOnUse" x1="3433.1875" x2="3442.7166" xlink:href="#e" y1="195.499" y2="195.499"/><linearGradient id="r" gradientTransform="matrix(-1 0 0 1 3687.76 0)" gradientUnits="userSpaceOnUse" x1="3447.5354" x2="3457.0625" xlink:href="#e" y1="195.499" y2="195.499"/><linearGradient id="s" gradientTransform="matrix(-1 0 0 1 3687.76 0)" gradientUnits="userSpaceOnUse" x1="3461.8813" x2="3471.4092" xlink:href="#e" y1="195.499" y2="195.499"/><linearGradient id="t" gradientTransform="matrix(-1 0 0 1 3687.76 0)" gradientUnits="userSpaceOnUse" x1="3476.2278" x2="3485.7559" xlink:href="#e" y1="195.499" y2="195.499"/><linearGradient id="u" gradientTransform="matrix(-1 0 0 1 3687.76 0)" gradientUnits="userSpaceOnUse" x1="3347.248" x2="3356.7756" xlink:href="#e" y1="195.499" y2="195.499"/><linearGradient id="v" gradientTransform="matrix(-1 0 0 1 3687.76 0)" gradientUnits="userSpaceOnUse" x1="3361.5945" x2="3371.1235" xlink:href="#e" y1="195.499" y2="195.499"/><linearGradient id="w" gradientTransform="matrix(-1 0 0 1 3687.76 0)" gradientUnits="userSpaceOnUse" x1="3375.9421" x2="3385.4692" xlink:href="#e" y1="195.499" y2="195.499"/><linearGradient id="x" gradientTransform="matrix(-1 0 0 1 3687.76 0)" gradientUnits="userSpaceOnUse" x1="3390.2883" x2="3399.8162" xlink:href="#e" y1="195.499" y2="195.499"/><linearGradient id="y" gradientTransform="matrix(-1 0 0 1 3687.76 0)" gradientUnits="userSpaceOnUse" x1="3591.4155" x2="3600.9434" xlink:href="#e" y1="195.499" y2="195.499"/><linearGradient id="z" gradientTransform="matrix(-1 0 0 1 3687.76 0)" gradientUnits="userSpaceOnUse" x1="3662.7395" x2="3672.2668" xlink:href="#e" y1="195.499" y2="195.499"/><linearGradient id="A" gradientTransform="matrix(-1 0 0 1 3687.76 0)" gradientUnits="userSpaceOnUse" x1="3677.0857" x2="3686.6133" xlink:href="#e" y1="195.499" y2="195.499"/><linearGradient id="B" gradientTransform="matrix(-1 0 0 1 3687.76 0)" gradientUnits="userSpaceOnUse" x1="3605.4924" x2="3615.02" xlink:href="#e" y1="195.499" y2="195.499"/><linearGradient id="C" gradientTransform="matrix(-1 0 0 1 3687.76 0)" gradientUnits="userSpaceOnUse" x1="3619.8389" x2="3629.3679" xlink:href="#e" y1="195.499" y2="195.499"/><linearGradient id="D" gradientTransform="matrix(-1 0 0 1 3687.76 0)" gradientUnits="userSpaceOnUse" x1="3634.1865" x2="3643.7136" xlink:href="#e" y1="195.499" y2="195.499"/><linearGradient id="E" gradientTransform="matrix(-1 0 0 1 3687.76 0)" gradientUnits="userSpaceOnUse" x1="3648.5327" x2="3658.0605" xlink:href="#e" y1="195.499" y2="195.499"/><linearGradient id="F" gradientTransform="matrix(-1 0 0 1 3687.76 0)" gradientUnits="userSpaceOnUse" x1="3323.5886" x2="3688.606" xlink:href="#e" y1="188.162" y2="188.162"/><linearGradient id="G" gradientUnits="userSpaceOnUse" x1="231.7873" x2="255.2393" xlink:href="#e" y1="61.8322" y2="61.8322"/><clipPath id="H"><path d="m317.4 82.8c-.2-3-2.1-6.5-4.7-8-2.5-1.4-5.9-.9-8 1-2.3 2.1-2.8 5.3-4.9 7.5-2.2 2.3-4.3 4.9-6.7 7.1-5.3 4.7-11.4 4-14.4 5.4-2 .9-3.5 2.9-4.3 5s-.7 4.6.5 6.5c1.5 2.4 4.8 3 7.5 3.3 3.4.3 7.3.2 10.4-1.3 7.6-3.5 8.2-7.7 9.9-8.5 2.1-1 5.4-.7 7.1-2.2 1.9-1.8 3.7-4.2 5.1-6.3 1.4-2.3 2.5-4.8 2.7-7.5-.2-.9-.2-1.4-.2-2z"/></clipPath><linearGradient id="I" gradientTransform="matrix(-.995 .2058 .2181 1.054 647.8855 -60.2932)" gradientUnits="userSpaceOnUse" x1="396.3308" x2="343.7928" y1="60.3457" y2="81.2837"><stop offset="0" stop-color="#472263"/><stop offset="1" stop-color="#5f2977"/></linearGradient><linearGradient id="J" gradientTransform="matrix(1.2758 .1141 -.2904 1.0087 695.7854 -33.0337)" gradientUnits="userSpaceOnUse" x1="-289.1205" x2="-262.7492" y1="155.7124" y2="155.7124"><stop offset="0" stop-color="#2b2b2b" stop-opacity="0"/><stop offset="1" stop-color="#737373"/></linearGradient><linearGradient id="K" gradientTransform="matrix(-.8812 -.4728 -.4728 .8812 1209.9073 -737.4677)" gradientUnits="userSpaceOnUse" x1="377.9554" x2="384.7255" y1="1227.3376" y2="1227.3376"><stop offset="0" stop-color="#414141"/><stop offset="1" stop-color="#737373"/></linearGradient><clipPath id="L"><path d="m307.9 93.2c6.1-1.3 4.9 9.2 6.3 11.5 1 1.8 4.6 5.1 7.1 7.1 1.3 1 2.1 1.2 2.7 1.7s-1.6 2.6-1.9 2.5c-.3 0-.7-.4-.7-.4s-.3.3-.5.3c-.4 0-.5-1.1-.5-1.1s-7.9-4.5-10.1-6.7c-2.3-2.2-7.9-13.7-2.4-14.9z"/></clipPath><linearGradient id="M" gradientTransform="matrix(-.9818 -.1898 -.1898 .9818 922.6258 -456.5906)" gradientUnits="userSpaceOnUse" x1="477.7023" x2="500.8451" y1="664.8445" y2="664.8445"><stop offset="0" stop-color="#fcb959"/><stop offset="1" stop-color="#f9a125"/></linearGradient><linearGradient id="N"><stop offset="0" stop-color="#737373" stop-opacity="0"/><stop offset="1" stop-color="#414141"/></linearGradient><linearGradient id="O" gradientTransform="matrix(.8672 .498 -.498 .8672 906.5374 -479.4477)" gradientUnits="userSpaceOnUse" x1="-233.2924" x2="-214.342" xlink:href="#N" y1="800.7998" y2="800.7998"/><clipPath id="P"><path d="m289.1 148.1c1.8-5.2 5.8-9.5 5.6-13.1-.1-3.7-9-24.5 0-29.9 3.6-2.2 4.5.1 5.5-7 .6-4.8 2.4-8.2 4.9-8.5 3.6-.3 7.9 3.5 8.1 5.8.4 5.8-2.6 8.6-4.1 10.3s-2.5 5.4-2.5 5.4-.1 14.2-1.6 23.7c-1.6 10.3-11.9 28.2-11.9 28.2-5.1-3.5-6-9-4-14.9z"/></clipPath><linearGradient id="Q" gradientTransform="matrix(.811 .585 -.585 .811 937.9614 -468.7901)" gradientUnits="userSpaceOnUse" x1="-195.6349" x2="-141.5759" y1="867.0852" y2="867.0852"><stop offset="0" stop-color="#151b26"/><stop offset="1" stop-color="#323e57"/></linearGradient><linearGradient id="R"><stop offset="0" stop-color="#ee3f50"/><stop offset="1" stop-color="#d82538"/></linearGradient><linearGradient id="S" gradientTransform="matrix(-.97 -.2432 -.2432 .97 934.3473 -452.4437)" gradientUnits="userSpaceOnUse" x1="462.1422" x2="485.5367" xlink:href="#R" y1="687.9563" y2="687.9563"/><linearGradient id="T"><stop offset="0" stop-color="#737373"/><stop offset="1" stop-color="#414141" stop-opacity="0"/></linearGradient><linearGradient id="U" gradientTransform="matrix(.8387 .5447 -.5447 .8387 919.5316 -476.1456)" gradientUnits="userSpaceOnUse" x1="-209.7643" x2="-194.9421" xlink:href="#T" y1="817.5189" y2="817.5189"/><linearGradient id="V" gradientTransform="matrix(.8387 .5447 -.5447 .8387 919.5316 -476.1456)" gradientUnits="userSpaceOnUse" x1="-209.44" x2="-199.0967" xlink:href="#T" y1="812.2643" y2="812.2643"/><linearGradient id="W" gradientTransform="matrix(.9115 -.4113 .4113 .9115 619.3746 1008.9312)" gradientUnits="userSpaceOnUse" x1="58.6461" x2="58.6461" xlink:href="#N" y1="-900.4708" y2="-956.4108"/><linearGradient id="X"><stop offset="0" stop-color="#d9d9d8"/><stop offset="1" stop-color="#e5e5e4"/></linearGradient><linearGradient id="Y" gradientTransform="matrix(.5177 .3102 -.3197 .5336 4092.6794 976.3579)" gradientUnits="userSpaceOnUse" x1="-6093.0645" x2="-6089.9512" xlink:href="#X" y1="2017.1171" y2="2016.7147"/><linearGradient id="Z"><stop offset="0" stop-color="#414141"/><stop offset="1" stop-color="#646464"/></linearGradient><linearGradient id="aa" gradientTransform="matrix(.3087 -.5186 .2925 .1741 2288.843 2431.7698)" gradientUnits="userSpaceOnUse" x1="1531.3055" x2="1536.5112" xlink:href="#Z" y1="-8441.6787" y2="-8443.877"/><linearGradient id="ab"><stop offset="0" stop-color="#151b26"/><stop offset="1" stop-color="#151b26"/></linearGradient><linearGradient id="ac" gradientUnits="userSpaceOnUse" x1="324.6517" x2="335.022" xlink:href="#ab" y1="119.9404" y2="119.9404"/><clipPath id="ad"><use xlink:href="#bk"/></clipPath><linearGradient id="ae" gradientTransform="matrix(1 -.00027336 .00027336 1 190.3857 -576.5286)" gradientUnits="userSpaceOnUse" x1="133.5897" x2="145.4967" xlink:href="#ab" y1="697.0271" y2="697.0271"/><linearGradient id="af" gradientTransform="matrix(1 -.00027336 .00027336 1 190.3857 -576.5286)" gradientUnits="userSpaceOnUse" x1="139.2593" x2="139.2593" xlink:href="#ab" y1="706.8729" y2="693.5157"/><linearGradient id="ag" gradientUnits="userSpaceOnUse" x1="252.7997" x2="291.1099" xlink:href="#ab" y1="156.3203" y2="156.3203"/><clipPath id="ah"><use xlink:href="#bl"/></clipPath><linearGradient id="ai" gradientTransform="matrix(-1 .00027336 -.00027336 -1 -348.4355 6862.8691)" gradientUnits="userSpaceOnUse" x1="-622.2236" x2="-622.2236" xlink:href="#ab" y1="6727.896" y2="6684.9424"/><linearGradient id="aj" gradientTransform="matrix(1 -.00027336 .00027336 1 190.3857 -576.5286)" gradientUnits="userSpaceOnUse" x1="90.7367" x2="90.7367" xlink:href="#ab" y1="744.6143" y2="693.044"/><linearGradient id="ak" gradientUnits="userSpaceOnUse" x1="316.9276" x2="355.2379" xlink:href="#ab" y1="156.3028" y2="156.3028"/><clipPath id="al"><use xlink:href="#bm"/></clipPath><linearGradient id="am" gradientTransform="matrix(1 -.00027336 .00027336 1 190.3857 -576.5286)" gradientUnits="userSpaceOnUse" x1="145.0598" x2="145.0598" xlink:href="#ab" y1="752.0262" y2="713.6347"/><linearGradient id="an" gradientTransform="matrix(1 -.00027336 .00027336 1 190.3857 -576.5286)" gradientUnits="userSpaceOnUse" x1="131.728" x2="131.728" xlink:href="#ab" y1="771.717" y2="720.1466"/><clipPath id="ao"><path d="m255.5 142.3 5 3.8h13.1c3 0 5.8 1.5 7.5 4.1h11.1s-2.9-15.8-18.2-15.8c-12.4 0-18.5 7.9-18.5 7.9z"/></clipPath><linearGradient id="ap" gradientTransform="matrix(1 -.00027336 .00027336 1 190.3857 -576.5286)" gradientUnits="userSpaceOnUse" x1="64.2128" x2="101.5942" xlink:href="#R" y1="719.357" y2="719.357"/><linearGradient id="aq" gradientTransform="matrix(1 -.00027336 .00027336 1 190.3857 -576.5286)" gradientUnits="userSpaceOnUse" x1="59.5979" x2="93.0394" xlink:href="#T" y1="725.3085" y2="725.3085"/><linearGradient id="ar" gradientUnits="userSpaceOnUse" x1="315.9037" x2="324.6501" xlink:href="#ab" y1="118.5002" y2="118.5002"/><clipPath id="as"><use xlink:href="#bn"/></clipPath><linearGradient id="at" gradientTransform="matrix(1 -.00027336 .00027336 1 190.3857 -576.5286)" gradientUnits="userSpaceOnUse" x1="124.2187" x2="134.9229" xlink:href="#ab" y1="698.9143" y2="688.2101"/><linearGradient id="au" gradientTransform="matrix(1 -.00027336 .00027336 1 190.3857 -576.5286)" gradientUnits="userSpaceOnUse" x1="120.7057" x2="133.0748" xlink:href="#ab" y1="696.7145" y2="696.7145"/><clipPath id="av"><path d="m320.1 123.4c.1.5.6.7 1.1.6l1.3-.4 2.9 8.5-1.6.6.1.2c.3.8 1.1 1.4 2 1.4l8.8 22.4c.5 1.2 1.8 1.7 2.9 1.2l-8.3-25.5c-.3-.8-1.1-1.2-1.9-.9l-2.9-8.5 1-.3c.5-.1.7-.6.6-1.1v-.1c-.1-.5-.6-.7-1.1-.6l-4.2 1.3c-.5.3-.8.7-.7 1.2z"/></clipPath><linearGradient id="aw" gradientTransform="matrix(1 -.00027336 .00027336 1 190.3857 -576.5286)" gradientUnits="userSpaceOnUse" x1="128.6535" x2="146.9819" xlink:href="#R" y1="715.8735" y2="715.8735"/><linearGradient id="ax" gradientTransform="matrix(.2366 -.07613864 .3064 .9519 -629.296 -364.9805)" gradientUnits="userSpaceOnUse" x1="3032.0715" x2="3053.8494" xlink:href="#T" y1="773.2592" y2="773.2592"/><clipPath id="ay"><path d="m291.1 121.5h1.9v31.7h-1.9z" transform="matrix(.9397 -.342 .342 .9397 -29.3477 108.1451)"/></clipPath><linearGradient id="az"><stop offset=".08571827" stop-color="#737373" stop-opacity="0"/><stop offset="1" stop-color="#424343"/></linearGradient><linearGradient id="aA" gradientTransform="matrix(.2706 .302 .2747 .9453 -816.3259 -376.3018)" gradientUnits="userSpaceOnUse" x1="5222.5381" x2="5247.8076" xlink:href="#az" y1="-1136.9298" y2="-1136.9298"/><clipPath id="aB"><path d="m272.9 153.3-2-3.1 13.8-15.1 6.7-2.3 7.3 19.7h-2.1l-6-16.4-3.4.1z"/></clipPath><linearGradient id="aC" gradientTransform="matrix(1.006 .03995746 -.00623603 1.0454 214.3253 -743.5997)" gradientUnits="userSpaceOnUse" x1="62.4987" x2="87.7683" xlink:href="#az" y1="847.534" y2="847.534"/><linearGradient id="aD" gradientUnits="userSpaceOnUse" x1="279.2786" x2="294.2142" xlink:href="#ab" y1="120.9577" y2="120.9577"/><clipPath id="aE"><use xlink:href="#bo"/></clipPath><linearGradient id="aF" gradientTransform="matrix(1 -.00027336 .00027336 1 190.3857 -576.5286)" gradientUnits="userSpaceOnUse" x1="85.4513" x2="104.3783" xlink:href="#ab" y1="697.559" y2="697.559"/><linearGradient id="aG" gradientTransform="matrix(1 -.00027336 .00027336 1 190.3857 -576.5286)" gradientUnits="userSpaceOnUse" x1="90.2816" x2="90.2816" xlink:href="#ab" y1="707.4093" y2="695.838"/><clipPath id="aH"><path d="m323.8 132.7-10.1 18.9c-1.9 3.6-5.6 5.9-9.7 5.9 0 2.5-1.8 6-6.1 6-3.9 0-6.8-2.3-6.8-7.2h-16.3l-4-6.1h1.8l1.5 2.1h24.3c6.4 0 9.2-1.8 11.6-5.7s11.5-19.7 11.5-19.7v-3.5l1.3-.4 3.3 9.5z"/></clipPath><linearGradient id="aI" gradientTransform="matrix(1 -.00027336 .00027336 1 190.3857 -576.5286)" gradientUnits="userSpaceOnUse" x1="80.1696" x2="137.1829" xlink:href="#X" y1="719.3731" y2="719.3731"/><linearGradient id="aJ" gradientTransform="matrix(1 -.00027336 .00027336 1 190.3857 -576.5286)" gradientUnits="userSpaceOnUse" x1="104.4697" x2="109.7562" xlink:href="#ab" y1="734.4822" y2="734.4822"/><linearGradient id="aK" gradientTransform="matrix(1 -.00027336 .00027336 1 190.3857 -576.5286)" gradientUnits="userSpaceOnUse" x1="79.3445" x2="136.8317" xlink:href="#T" y1="721.2694" y2="721.2694"/><linearGradient id="aL" gradientTransform="matrix(-.5077 -.3263 .3363 -.5233 379.2095 -17.4885)" gradientUnits="userSpaceOnUse" x1="-45.1374" x2="-42.0242" xlink:href="#X" y1="-302.4461" y2="-302.8484"/><linearGradient id="aM" gradientTransform="matrix(-.3248 .5086 -.2869 -.1832 2227.9143 -1415.4656)" gradientUnits="userSpaceOnUse" x1="3904.9272" x2="3910.1328" xlink:href="#Z" y1="2291.8762" y2="2289.6777"/><linearGradient id="aN" gradientTransform="matrix(-.8528 -.5223 -.5223 .8528 1022.9536 -407.8934)" gradientUnits="userSpaceOnUse" x1="319.4091" x2="325.5085" y1="851.5677" y2="851.5677"><stop offset="0" stop-color="#333"/><stop offset="1" stop-color="#656666"/></linearGradient><clipPath id="aO"><path d="m294.8 105.1 8.8 4.3s15.9 7.1 15.1 17.6c-.7 8.7-16 22.2-16 22.2-4.3-4.5-3.6-10.4-.3-15.7 2.9-4.7 5.9-5.6 5.3-7-.6-1.3-30.6-9.9-12.9-21.4z"/></clipPath><linearGradient id="aP" gradientTransform="matrix(.811 .585 -.585 .811 937.9614 -468.7901)" gradientUnits="userSpaceOnUse" x1="-194.3591" x2="-139.7653" y1="856.2118" y2="856.2118"><stop offset="0" stop-color="#243049"/><stop offset="1" stop-color="#0f131b"/></linearGradient><linearGradient id="aQ" gradientTransform="matrix(.8387 .5447 -.5447 .8387 919.5316 -476.1456)" gradientUnits="userSpaceOnUse" x1="-172.1409" x2="-203.4755" xlink:href="#N" y1="848.8422" y2="828.7142"/><clipPath id="aR"><path d="m305 91.7c5.8-2.4 1 9.4 2.8 11.9 1.4 1.9 6 5.4 9.1 7.5 1.6 1.1 2.5 1.3 3.3 1.9.7.5-1.5 2.7-1.8 2.6-.3 0-.9-.5-.9-.5s-.3.3-.5.3c-.4-.1-.7-1.1-.7-1.1s-9.6-4.8-12.5-7.2c-2.7-2.4-4.5-13 1.2-15.4z"/></clipPath><linearGradient id="aS"><stop offset="0" stop-color="#f9a125"/><stop offset="1" stop-color="#fcb959"/></linearGradient><linearGradient id="aT" gradientTransform="matrix(-.9914 -.131 -.131 .9914 910.1027 -461.3512)" gradientUnits="userSpaceOnUse" x1="500.8311" x2="533.2803" xlink:href="#aS" y1="639.0845" y2="639.0845"/><linearGradient id="aU" gradientTransform="matrix(.8953 .4455 -.4455 .8953 892.6813 -483.2095)" gradientUnits="userSpaceOnUse" x1="-266.8847" x2="-251.9164" xlink:href="#N" y1="784.4908" y2="784.4908"/><clipPath id="aV"><path d="m305.5 90.3 1.5-4.4s-1.7.4-2.4 0c-1.4-.6-.9-6.2.2-7.8.4-.6 1.4-.8 2.1-.8 1-.1 1.7 0 2.1 1 .2.5.2 1.1.4 1.7.3.9 1 1.7 1.9 2 .2.1.5.1.6.2s0 .4 0 .6v1.2c0 1.7.4 12.2-.9 11.7-1.2-.4-2.3-4.3-5.5-5.4z"/></clipPath><linearGradient id="aW" gradientTransform="matrix(-.9793 .2026 .2026 .9793 690.1837 -14.7858)" gradientUnits="userSpaceOnUse" x1="388.2428" x2="401.2249" xlink:href="#aS" y1="22.4676" y2="22.4676"/><linearGradient id="aX"><stop offset="0" stop-color="#414141"/><stop offset="1" stop-color="#737373" stop-opacity="0"/></linearGradient><linearGradient id="aY" gradientTransform="matrix(.992 .126 -.126 .992 666.5383 -29.6915)" gradientUnits="userSpaceOnUse" x1="-344.8389" x2="-335.6219" xlink:href="#aX" y1="159.3641" y2="159.3641"/><linearGradient id="aZ" gradientTransform="matrix(.992 .126 -.126 .992 666.5383 -29.6915)" gradientUnits="userSpaceOnUse" x1="-342.0709" x2="-334.8738" xlink:href="#aX" y1="160.5153" y2="160.5153"/><clipPath id="a0"><path d="m-28.5 115.4s18.1-26 23.2-31.9c5.1-5.9 10.9-5.9 10.9-5.9h32.8 32.5c5 0 9.7 2.4 12.6 6.4l22.8 31.4h17.6c6.3 0 11.4 5.1 11.4 11.3v23.9h-178.3v-26.6c0-4.7 9.7-8.6 14.5-8.6z"/></clipPath><linearGradient id="a1" gradientTransform="matrix(-1 0 0 1 5751.5483 0)" gradientUnits="userSpaceOnUse" x1="5616.3213" x2="5794.5308" y1="113.5058" y2="113.5058"><stop offset="0" stop-color="#794c9c"/><stop offset="1" stop-color="#673e84"/></linearGradient><linearGradient id="a2"><stop offset="0" stop-color="#424242" stop-opacity="0"/><stop offset="1" stop-color="#747474"/></linearGradient><linearGradient id="a3" gradientTransform="matrix(-1 0 0 1 5751.5483 0)" gradientUnits="userSpaceOnUse" x1="5616.3213" x2="5794.5308" xlink:href="#a2" y1="142.6582" y2="142.6582"/><linearGradient id="a4" gradientTransform="matrix(-1 0 0 1 5751.5483 0)" gradientUnits="userSpaceOnUse" x1="5611.3623" x2="5725.1787" xlink:href="#a2" y1="121.9835" y2="121.9835"/><clipPath id="a5"><path d="m47.2 88.7v20.7c0 3.1 2.5 5.7 5.7 5.7h35.4c3.9 0 6.2-4.4 4-7.6l-13.1-18.5c-2.7-3.7-7-5.9-11.6-5.9h-14.7c-3.1-.1-5.7 2.5-5.7 5.6z"/></clipPath><linearGradient id="a6"><stop offset="0" stop-color="#d6d6d5"/><stop offset="1" stop-color="#d6d6d5" stop-opacity="0"/></linearGradient><linearGradient id="a7" gradientTransform="matrix(.7071 .7071 .7071 -.7071 2061.106 -84.6574)" gradientUnits="userSpaceOnUse" x1="-1280.3398" x2="-1359.0966" xlink:href="#a6" y1="-1523.988" y2="-1602.7448"/><clipPath id="a8"><path d="m31.6 88.7v20.7c0 3.1-2.5 5.7-5.7 5.7h-35.5c-3.9 0-6.2-4.4-4-7.6l13.2-18.5c2.7-3.7 7-5.9 11.6-5.9h14.7c3.1-.1 5.7 2.5 5.7 5.6z"/></clipPath><linearGradient id="a9" gradientTransform="matrix(-.7071 .7071 -.7071 -.7071 4466.4829 -84.6574)" gradientUnits="userSpaceOnUse" x1="3279.6885" x2="3200.9316" xlink:href="#a6" y1="3036.0405" y2="2957.2837"/><linearGradient id="ba" gradientTransform="matrix(-1 0 0 1 5751.5483 0)" gradientUnits="userSpaceOnUse" x1="5624.4272" x2="5673.8813" xlink:href="#a2" y1="138.3366" y2="138.3366"/><linearGradient id="bb" gradientTransform="matrix(-1 0 0 1 5751.5483 0)" gradientUnits="userSpaceOnUse" x1="5731.064" x2="5780.5176" xlink:href="#a2" y1="138.3366" y2="138.3366"/><clipPath id="bc"><path d="m87 136.5c-15.4 21.3 8.2 44.8 29.6 29.5.5-.3.9-.7 1.2-1.2 15.4-21.3-8.2-44.8-29.6-29.5-.5.3-.9.8-1.2 1.2z"/></clipPath><linearGradient id="bd"><stop offset="0" stop-color="#151b26"/><stop offset="1" stop-color="#333e57"/></linearGradient><linearGradient id="be" gradientTransform="matrix(-1 0 0 1 5751.5483 0)" gradientUnits="userSpaceOnUse" x1="5628.8311" x2="5669.4775" xlink:href="#bd" y1="150.6571" y2="150.6571"/><linearGradient id="bf" gradientTransform="matrix(-1 0 0 1 5751.5483 0)" gradientUnits="userSpaceOnUse" x1="5617.6855" x2="5663.6392" xlink:href="#a2" y1="159.1196" y2="159.1196"/><clipPath id="bg"><path d="m-19.6 136.5c-15.4 21.3 8.2 44.8 29.6 29.5.5-.3.9-.7 1.2-1.2 15.4-21.3-8.2-44.8-29.6-29.5-.5.3-.9.8-1.2 1.2z"/></clipPath><linearGradient id="bh" gradientTransform="matrix(-1 0 0 1 5751.5483 0)" gradientUnits="userSpaceOnUse" x1="5732.6992" x2="5778.8823" xlink:href="#bd" y1="150.6572" y2="150.6572"/><linearGradient id="bi" gradientTransform="matrix(-1 0 0 1 5751.5483 0)" gradientUnits="userSpaceOnUse" x1="5724.3218" x2="5770.2759" xlink:href="#a2" y1="159.1196" y2="159.1196"/><linearGradient id="bj" gradientTransform="matrix(-1 0 0 1 5751.5483 0)" gradientUnits="userSpaceOnUse" x1="5622.2246" x2="5635.437" y1="125.9063" y2="125.9063"><stop offset="0" stop-color="#ffc55d"/><stop offset="1" stop-color="#fab11f"/></linearGradient><path id="bk" d="m333 114v10c0 1-.8 1.8-1.8 1.8h-6.5v2.1h7.1c1.8 0 3.2-1.5 3.2-3.2v-12.7c-1.1 0-2 .9-2 2z"/><path id="bl" d="m291.1 156.3c0-10.6-8.6-19.2-19.2-19.1-10.6 0-19.2 8.6-19.1 19.2s8.6 19.2 19.2 19.1c10.5 0 19.1-8.6 19.1-19.2zm-32.2 0c0-7.2 5.8-13.1 13.1-13.1 7.2 0 13.1 5.8 13.1 13.1 0 7.2-5.8 13.1-13.1 13.1s-13.1-5.9-13.1-13.1z"/><path id="bm" d="m316.9 156.3c0 10.6 8.6 19.2 19.2 19.1 10.6 0 19.2-8.6 19.1-19.2 0-10.6-8.6-19.2-19.2-19.1-10.5.1-19.1 8.6-19.1 19.2zm32.2 0c0 7.2-5.8 13.1-13.1 13.1-7.2 0-13.1-5.8-13.1-13.1 0-7.2 5.8-13.1 13.1-13.1s13.1 5.9 13.1 13.1z"/><path id="bn" d="m324.5 123.1-2 .5c0-6.1-6.6-6-6.6-10.3h6.4s2.2 9.8 2.2 9.8z"/><path id="bo" d="m279.7 118.9c-2 2.2 3.1 5.1 3.1 5.1s12 .5 11.3-2.9c-.6-3.4-4.6-1.8-7.2-1.8-2.5-.1-4.9-2.9-7.2-.4z"/></defs><g clip-path="url(#a)"><g><g><path d="m166 97.3c-38-.9-61.2-39.2-88.5-36.7-41.7 3.8-77.3 49.8-77.5 61v6h364.5v-6-5.6s-17.1-77.3-68.9-77.8c-76.7-.9-93.6 60-129.6 59.1z" fill="url(#b)"/></g><g><path d="m0 119h364.7v83.6h-364.7z" fill="url(#c)"/></g><path d="m0 116h364.7v3.4h-364.7z" fill="url(#d)"/><g><g><path d="m368.9 187.9-9.5 15.2" fill="url(#f)"/><path d="m355.2 194.6h18v1.8h-18z" fill="#fff" transform="matrix(.5292 -.8485 .8485 .5292 5.5801 401.0547)"/></g><g><path d="m354.6 187.9-9.5 15.2" fill="url(#g)"/><path d="m340.8 194.6h18v1.8h-18z" fill="#fff" transform="matrix(.5292 -.8485 .8485 .5292 -1.1748 388.8815)"/></g><g><path d="m197.3 187.9-9.6 15.2" fill="url(#h)"/><path d="m183.5 194.6h18v1.8h-18z" fill="#fff" transform="matrix(.5292 -.8485 .8485 .5292 -75.2517 255.3833)"/></g><g><path d="m182.9 187.9-9.5 15.2" fill="url(#i)"/><path d="m169.1 194.6h18v1.8h-18z" fill="#fff" transform="matrix(.5292 -.8485 .8485 .5292 -82.0069 243.2095)"/></g><g><path d="m168.6 187.9-9.6 15.2" fill="url(#j)"/><path d="m154.8 194.6h18v1.8h-18z" fill="#fff" transform="matrix(.5292 -.8485 .8485 .5292 -88.7618 231.036)"/></g><g><path d="m154.2 187.9-9.5 15.2" fill="url(#k)"/><path d="m140.4 194.6h18v1.8h-18z" fill="#fff" transform="matrix(.5292 -.8485 .8485 .5292 -95.5167 218.8627)"/></g><g><path d="m139.8 187.9-9.6 15.2" fill="url(#l)"/><path d="m126 194.6h18v1.8h-18z" fill="#fff" transform="matrix(.5292 -.8485 .8485 .5292 -102.3211 206.6)"/></g><g><path d="m125.4 187.9-9.5 15.2" fill="url(#m)"/><path d="m111.7 194.6h18v1.8h-18z" fill="#fff" transform="matrix(.5292 -.8485 .8485 .5292 -109.0761 194.4265)"/></g><g><path d="m111.1 187.9-9.6 15.2" fill="url(#n)"/><path d="m97.3 194.6h18v1.8h-18z" fill="#fff" transform="matrix(.5292 -.8485 .8485 .5292 -115.831 182.2533)"/></g><g><path d="m283.3 187.9-9.6 15.2" fill="url(#o)"/><path d="m269.5 194.6h18v1.8h-18z" fill="#fff" transform="matrix(.5292 -.8485 .8485 .5292 -34.7566 328.3618)"/></g><g><path d="m268.9 187.9-9.5 15.2" fill="url(#p)"/><path d="m255.1 194.6h18v1.8h-18z" fill="#fff" transform="matrix(.5292 -.8485 .8485 .5292 -41.5113 316.1888)"/></g><g><path d="m254.6 187.9-9.6 15.2" fill="url(#q)"/><path d="m240.8 194.6h18v1.8h-18z" fill="#fff" transform="matrix(.5292 -.8485 .8485 .5292 -48.2664 304.015)"/></g><g><path d="m240.2 187.9-9.5 15.2" fill="url(#r)"/><path d="m226.5 194.6h18v1.8h-18z" fill="#fff" transform="matrix(.5292 -.8485 .8485 .5292 -55.0214 291.8415)"/></g><g><path d="m225.9 187.9-9.5 15.2" fill="url(#s)"/><path d="m212.1 194.6h18v1.8h-18z" fill="#fff" transform="matrix(.5292 -.8485 .8485 .5292 -61.7762 279.6682)"/></g><g><path d="m211.5 187.9-9.5 15.2" fill="url(#t)"/><path d="m197.8 194.6h18v1.8h-18z" fill="#fff" transform="matrix(.5292 -.8485 .8485 .5292 -68.5311 267.495)"/></g><g><path d="m340.5 187.9-9.5 15.2" fill="url(#u)"/><path d="m326.7 194.6h18v1.8h-18z" fill="#fff" transform="matrix(.5292 -.8485 .8485 .5292 -7.8026 376.937)"/></g><g><path d="m326.2 187.9-9.6 15.2" fill="url(#v)"/><path d="m312.4 194.6h18v1.8h-18z" fill="#fff" transform="matrix(.5292 -.8485 .8485 .5292 -14.5577 364.7632)"/></g><g><path d="m311.8 187.9-9.5 15.2" fill="url(#w)"/><path d="m298 194.6h18v1.8h-18z" fill="#fff" transform="matrix(.5292 -.8485 .8485 .5292 -21.3127 352.5897)"/></g><g><path d="m297.5 187.9-9.6 15.2" fill="url(#x)"/><path d="m283.7 194.6h18v1.8h-18z" fill="#fff" transform="matrix(.5292 -.8485 .8485 .5292 -28.0676 340.4164)"/></g><g><path d="m96.3 187.9-9.5 15.2" fill="url(#y)"/><path d="m82.6 194.6h18v1.8h-18z" fill="#fff" transform="matrix(.5292 -.8485 .8485 .5292 -122.7655 169.7561)"/></g><g><path d="m25 187.9-9.5 15.2" fill="url(#z)"/><path d="m11.3 194.6h18v1.8h-18z" fill="#fff" transform="matrix(.5292 -.8485 .8485 .5292 -156.3473 109.2365)"/></g><g><path d="m10.7 187.9-9.6 15.2" fill="url(#A)"/><path d="m-3.1 194.6h18v1.8h-18z" fill="#fff" transform="matrix(.5292 -.8485 .8485 .5292 -163.1021 97.0635)"/></g><g><path d="m82.3 187.9-9.6 15.2" fill="url(#B)"/><path d="m68.5 194.6h18v1.8h-18z" fill="#fff" transform="matrix(.5292 -.8485 .8485 .5292 -129.3934 157.8117)"/></g><g><path d="m67.9 187.9-9.5 15.2" fill="url(#C)"/><path d="m54.2 194.6h18v1.8h-18z" fill="#fff" transform="matrix(.5292 -.8485 .8485 .5292 -136.1485 145.6379)"/></g><g><path d="m53.6 187.9-9.6 15.2" fill="url(#D)"/><path d="m39.8 194.6h18v1.8h-18z" fill="#fff" transform="matrix(.5292 -.8485 .8485 .5292 -142.9035 133.4644)"/></g><g><path d="m39.2 187.9-9.5 15.2" fill="url(#E)"/><path d="m25.5 194.6h18v1.8h-18z" fill="#fff" transform="matrix(.5292 -.8485 .8485 .5292 -149.6583 121.2911)"/></g><g><path d="m364.2 188.2h-365" fill="url(#F)"/><path d="m-.8 187.3h365v1.8h-365z" fill="#fff"/></g></g><path d="m42.4 57h140.5v97.3h-140.5z" fill="none"/><g><g><path d="m242.8 70.8h1.4v46.9h-1.4z" fill="#d0d1d2"/><g><path d="m254.4 70.9c.5 0 .8-.4.8-.8 0-.3-.2-.7-.4-.8-.1-.2-10.4-15.8-10.4-15.8s-.4-.7-1-.7c-.5 0-.9.7-.9.7s-10.1 15.4-10.2 15.6-.5.7-.5 1c0 .4.3.8.9.8z" fill="url(#G)"/><path d="m232.6 71.2c-.7 0-1.2-.5-1.2-1.1 0-.4.3-.8.5-1.1l.1-.1c.1-.1 9.8-15 10.2-15.6.1-.1.5-.8 1.2-.8.8 0 1.3.8 1.3.8.1.1 10.3 15.6 10.4 15.8.2.2.4.6.4 1 0 .6-.5 1-1.1 1 0 0-21.6.1-21.8.1zm10.8-18.1c-.2 0-.6.4-.7.5-.1.2-10.1 15.4-10.2 15.6 0 0 0 .1-.1.1-.1.1-.4.5-.4.8 0 .2.2.5.6.5h21.8c.4 0 .5-.2.5-.5 0-.2-.2-.5-.3-.6-.1-.2-10-15.2-10.5-15.8.1-.1-.3-.6-.7-.6z" fill="#fff"/></g><g><g><path d="m254.9 76.9c0 .5-.4.9-.9.9h-21c-.5 0-.9-.4-.9-.9v-3.7c0-.5.4-.9.9-.9h21c .5 0 .9.4.9.9z" fill="#fff"/></g><g fill="#231f20"><path d="m233.6 76.3v-2.6h.8.6c.1 0 .3.1.4.2s.2.3.2.5 0 .3-.1.4-.1.2-.2.3-.2.1-.3.1-.3 0-.5 0h-.3v1h-.6zm.5-2.2v.7h.3.4c.1 0 .1-.1.2-.1 0-.1.1-.1.1-.2s0-.2-.1-.2c-.1-.1-.1-.1-.2-.1s-.2 0-.4 0h-.3z"/><path d="m236 76.3v-2.6h1.1c.3 0 .5 0 .6.1s.2.1.3.2.1.3.1.4c0 .2-.1.4-.2.5s-.3.2-.5.2c.1.1.2.1.3.2s.2.2.3.4l.3.5h-.6l-.4-.6c-.1-.2-.2-.3-.3-.4s-.1-.1-.2-.1-.1 0-.3 0h-.1v1.1h-.4zm.5-1.5h.4.5c.1 0 .1-.1.1-.1s.1-.1.1-.2 0-.2-.1-.2c0-.1-.1-.1-.2-.1 0 0-.2 0-.4 0h-.4z"/><path d="m238.6 76.3v-2.6h.5v2.6z"/><path d="m239.5 75c0-.3 0-.5.1-.7.1-.1.1-.2.2-.4.1-.1.2-.2.3-.2.2-.1.3-.1.6-.1.4 0 .7.1.9.4.2.2.3.6.3 1s-.1.7-.3 1c-.2.2-.5.3-.9.3s-.7-.1-.9-.3c-.2-.3-.3-.6-.3-1zm .5 0c0 .3.1.5.2.7.1.1.3.2.5.2s.4-.1.5-.2.2-.4.2-.7-.1-.5-.2-.7c-.1-.1-.3-.2-.5-.2s-.4.1-.5.2-.2.4-.2.7z"/><path d="m242.4 76.3v-2.6h1.1c.3 0 .5 0 .6.1s.2.1.3.2.1.3.1.4c0 .2-.1.4-.2.5s-.3.2-.5.2c.1.1.2.1.3.2s.2.2.3.4l.3.5h-.6l-.4-.6c-.1-.2-.2-.3-.3-.4 0-.1-.1-.1-.2-.1s-.1 0-.3 0h-.1v1.1h-.4zm.5-1.5h.4.5c.1 0 .1-.1.1-.1s.1-.1.1-.2 0-.2-.1-.2c0-.1-.1-.1-.2-.1 0 0-.2 0-.4 0h-.4z"/><path d="m245 76.3v-2.6h.5v2.6z"/><path d="m246 73.7h1 .5c.2 0 .3.1.4.2s.2.3.2.4c.1.2.1.4.1.6s0 .4-.1.6-.2.3-.3.5c-.1.1-.2.2-.4.2-.1 0-.3.1-.5.1h-1v-2.6zm.5.4v1.7h.4.3c.1 0 .2-.1.2-.1.1 0 .1-.1.1-.2s.1-.3.1-.5 0-.4-.1-.5c0-.1-.1-.2-.1-.2-.1-.1-.1-.1-.2-.1s-.2 0-.4 0h-.3z"/><path d="m250.9 76.3h-.6l-.2-.6h-1l-.2.6h-.6l1-2.6h.5zm-.9-1.1-.4-1-.3 1z"/><path d="m251.2 73.7h.9.5c.1 0 .3.1.4.2s.2.3.2.4c.1.2.1.4.1.6s0 .4-.1.6-.2.3-.3.5c-.1.1-.2.2-.4.2-.1 0-.3.1-.5.1h-1v-2.6zm.5.4v1.7h.4.3c.1 0 .2-.1.2-.1.1 0 .1-.1.1-.2s.1-.3.1-.5 0-.4-.1-.5c0-.1-.1-.2-.1-.2-.1-.1-.1-.1-.2-.1s-.2 0-.4 0h-.3z"/></g></g></g><path d="m247.1 62.6c-.5 0-.9.1-1.2.4l-.8-.9.1-.3.7-.3c.1 0 .1-.1.1-.2s-.1-.1-.2-.1l-1.7.1c-.1 0-.2.1-.2.2s0 .2.1.2l.8.2v.2h-3.3l.2-.6s0 0 0-.1c0 0 0-.1-.1-.1-.1-.1-.1-.2-.1-.2h.1.9c.1 0 .2-.1.2-.2s-.1-.2-.2-.2h-.9s0 0-.1 0c-.2.1-.3.2-.3.3v.1c0 .1.1.3.2.4 0 .1-.2.6-.4 1.1l-.1.2c-.1.2-.1.3-.2.4-.3-.2-.7-.3-1.2-.3-1.2 0-2.2 1-2.2 2.2s1 2.2 2.2 2.2 2.2-1 2.2-2.2c0-.7-.3-1.3-.8-1.7l.1-.3 2.5 2.5.1.4c-.1 0-.2.1-.2.2s.1.2.2.2h.5c.1 0 .2-.1.2-.2s-.1-.2-.2-.2h-.1l-.1-.4.8-.1c.2 1 1.1 1.8 2.2 1.8 1.2 0 2.2-1 2.2-2.2.2-1.5-.8-2.5-2-2.5zm-5.6 2.2c0 1-.8 1.9-1.9 1.9-1 0-1.9-.8-1.9-1.9 0-1 .8-1.9 1.9-1.9.4 0 .7.1 1 .3-.3.8-1.1 1.4-1.1 1.4s-.1.1-.1.1v.1c.1.1.2.1.2 0 0 0 .9-.6 1.2-1.5.5.5.7 1 .7 1.5zm2.3-.2v-.1h.1s-.1.1-.1.1zm0-.5h-.4c-.1 0-.2.1-.2.2s.1.2.2.2l.1.2-2.2-2.2c0-.1.1-.2.1-.3h3.3c-.1.4-.4 1.3-.7 2-.1-.1-.1-.1-.2-.1zm.3.9.9-2.6c.1.2.4.4.6.7-.4.4-.7 1-.7 1.7v.1c-.4.1-.7.1-.8.1zm1.1-.2c0-.5.2-1 .6-1.4.4.5.9 1 1 1.2-.2.1-.9.2-1.6.2zm1.9 1.9c-.9 0-1.7-.6-1.8-1.5l1.9-.3c.1 0 .1-.1.1-.1 0-.1 0-.1 0-.2l-1.2-1.4c.3-.2.6-.3 1-.3 1 0 1.9.8 1.9 1.9 0 1-.9 1.9-1.9 1.9z" fill="#fff"/></g><g><g><g><path clip-path="url(#H)" d="m275.7 113.9 46.6-9.6-7.7-37.2-46.6 9.6z" fill="url(#I)"/><path clip-path="url(#H)" d="m312.9 78.1c-.8-.6-1.7-1.2-2.7-1.6-1.2-.5-2.2-.9-3.4-.3-1.1.5-2.1 1.4-2.8 2.4-1.3 2-1.3 4.4-2.2 6.6-.8 2-2.7 4-4.5 5.1-1.4.8-3 1.5-4.1 2.7-1.4 1.5-1.9 3.5-3.3 5-1.8 1.9-4.3 1.4-6.6 1.5-1.2 0-2.6.3-3.6.9-1.3.7-1.5 2.7-1.1 4 .5 1.4 1.7 2.5 3 3.3 2.3 1.3 5.2 1.5 7.8 1.1s5.1-1.5 7.5-2.8c5.5-2.8 10.6-6.5 15.1-10.8 1.8-1.8 4.4-3.7 4.8-6.3s.2-5.2-1.1-7.5c-.7-1.3-1.7-2.4-2.8-3.3z" fill="url(#J)" opacity=".75"/></g><g><path d="m295.8 166.9c-.2.2-.4.3-.7.2-.7-.3-1.4-.7-2.7-1.4s-2.4-3.7-.9-4.9c1.6-1.2 1.6 2.1 1.6 2.1l2.6 3.4c.2.2.2.4.1.6z" fill="url(#K)"/></g><g><path clip-path="url(#L)" d="m323.7 117.1-21.6-2.8 6.3-24.8 21.6 2.7z" fill="url(#M)"/><path clip-path="url(#L)" d="m307.4 101.1c-.1-.2-.1-.5-.2-.7-.4-1.6-.7-3.3.1-4.9s2.6-2.6 4.1-2.4c3.2.5 2.4 4.4 1.8 7.1-.4 1.8-.6 3.5-.2 5.1.2.7.9 1.2 1.5 1.7.7.5 1.4 1 2 1.6 1.2 1 2.3 2.4 2.3 4.1 0 .6-.1 1.3-.6 1.7s-1.2.3-1.8.1c-1.1-.5-2.1-1.4-3-2.3-1.2-1.1-2.4-2.3-3.5-3.4-1-1-2.2-1.9-2-3.7.2-1.5-.1-2.7-.5-4z" fill="url(#O)" opacity=".3"/></g><g><g clip-path="url(#P)"><path d="m304.8 167-33.1-8.3 11.4-54.1 33.1 8.3z" fill="url(#Q)"/></g><path clip-path="url(#P)" d="m315.9 113.9-22.7-5.6 5.8-23 22.6 5.7z" fill="url(#S)"/><path clip-path="url(#P)" d="m297.4 107.7c2.2.8 3.9 2 6.4 2.1.8 0 1.6 0 2.2-.5s.9-1.2 1.1-2c .8-2 1.5-7.1 6.3-9.3s.2-7.8-6.4-9.3-13.7 16.3-13.7 16.3 3.1 2.3 4.1 2.7z" fill="url(#U)" opacity=".75"/><path clip-path="url(#P)" d="m311.3 94.9s-.9-4.2-3.2-5.7c-5.9-3.9-8.7 6.4-8.7 6.4z" fill="url(#V)" opacity=".75"/><path clip-path="url(#P)" d="m301.4 139.5c-1.1-3.7-3-7.2-3.1-11-.1-3.6-.8-4-.2-7.3.4-2.6.4-5.7-.6-8.3-.8-2-2.4-4-4.5-4.9-3.8-1.7-5.1 4-5.8 6.6-.8 2.8 3.1 10.5 3.9 11.8 1.1 1.9 2.1 3.7 3.2 5.6.8 1.3 1.6 2.7 1.9 4.3.5 2.6-.6 5.3-2.1 7.4-1.6 2.2-3.6 4-5.4 6.1-1.7 2-3.3 4.2-4.1 6.8-.9 2.6-1 5.6.1 8 1.1 2.5 3.6 4.3 6.2 4.1 3.1-.2 5.6-2.9 7.3-5.7 4.3-7 5.5-15.9 3.2-23.5z" fill="url(#W)" opacity=".3"/></g><path d="m292.9 166.7-.9-.5 3.6-6.1c.1-.2.3-.2.5-.1l.2.1c.2.1.2.3.1.5z" fill="url(#Y)"/><path d="m294.5 167.1-.1.2c-.1.2-.3.2-.5.1l-2.9-1.7c-.2-.1-.2-.3-.1-.5l.1-.2c.1-.2.3-.2.5-.1l2.9 1.7c.1.1.2.3.1.5z" fill="url(#aa)"/><g><g><use fill="url(#ac)" xlink:href="#bk"/><g clip-path="url(#ad)"><path d="m324.2 111.8h11.9v17.4h-11.9z" fill="url(#ae)"/></g><path clip-path="url(#ad)" d="m335.5 119.8c3.7 6.5-2.9 13.1-9.4 9.4-.8-.4-1.4-1.1-1.8-1.8-3.7-6.5 2.9-13.1 9.4-9.4.7.4 1.3 1.1 1.8 1.8z" fill="url(#af)" opacity=".75"/></g><g><use fill="url(#ag)" xlink:href="#bl"/><path clip-path="url(#ah)" d="m252.4 134.8h39.1l.1 43h-39.2z" fill="url(#ai)"/><path clip-path="url(#ah)" d="m302.8 127.3c14.8 25.2-11.3 51.2-36.5 36.5-2.7-1.6-4.9-3.8-6.5-6.5-14.8-25.2 11.3-51.2 36.5-36.5 2.7 1.5 4.9 3.8 6.5 6.5z" fill="url(#aj)" opacity=".75"/></g><g><use fill="url(#ak)" xlink:href="#bm"/><path clip-path="url(#al)" d="m316.1 137.1h39.2v38.4h-39.2z" fill="url(#am)"/><path clip-path="url(#al)" d="m343.8 154.4c14.8 25.2-11.3 51.2-36.5 36.5-2.7-1.6-4.9-3.8-6.5-6.5-14.8-25.2 11.3-51.2 36.5-36.5 2.7 1.5 4.9 3.8 6.5 6.5z" fill="url(#an)" opacity=".75"/></g><g><path clip-path="url(#ao)" d="m254.8 134.4h37.4v16.8h-37.4z" fill="url(#ap)"/><path clip-path="url(#ao)" d="m281 139.2c9.3 16.2-7.4 32.9-23.6 23.6-1.9-1.1-3.5-2.6-4.5-4.5-9.3-16.2 7.4-32.9 23.6-23.6 1.8 1.1 3.4 2.6 4.5 4.5z" fill="url(#aq)" opacity=".75"/></g><g><use fill="url(#ar)" xlink:href="#bn"/><path clip-path="url(#as)" d="m315 111.4h10.2v11.2h-10.2z" fill="url(#at)"/><path clip-path="url(#as)" d="m322.7 116.7c3.3 6-2.7 12-8.7 8.7-.7-.4-1.4-1-1.8-1.8-3.3-6 2.7-12 8.7-8.7.8.4 1.4 1.1 1.8 1.8z" fill="url(#au)"/></g><g><path clip-path="url(#av)" d="m319.2 119.9h18.3v38.7h-18.3z" fill="url(#aw)"/><path clip-path="url(#av)" d="m336.1 157.4-5.2 1.6-12.1-37.6 5.2-1.6z" fill="url(#ax)" opacity=".75"/></g><g><path clip-path="url(#ay)" d="m286.6 122.4 10.8 29.8" fill="#e32f44"/><path clip-path="url(#ay)" d="m285 122.1h7v12.7h-7z" fill="#e4e4e2"/><path clip-path="url(#ay)" d="m289.9 140.8 3-1.1-7.2-20.1-3 1z" fill="url(#aA)" opacity=".4"/></g><g><path clip-path="url(#aB)" d="m270.9 131.2h27.4v22.1h-27.4z" fill="#e32f44"/><path clip-path="url(#aB)" d="m279.1 158.7 18.2-6.4-7.2-20.2-18.2 6.5z" fill="url(#aC)" opacity=".4"/></g><g><use fill="url(#aD)" xlink:href="#bo"/><path clip-path="url(#aE)" d="m276 117.6h18.9v6.8h-18.9z" fill="url(#aF)"/><path clip-path="url(#aE)" d="m285.8 121.8c3.1 5.6-2.6 11.2-8.1 8.1-.7-.4-1.3-1-1.7-1.7-3.1-5.6 2.6-11.2 8.1-8.1.7.5 1.3 1 1.7 1.7z" fill="url(#aG)" opacity=".75"/></g><g><path clip-path="url(#aH)" d="m270.8 121h57v43.6h-57z" fill="url(#aI)"/><g clip-path="url(#aH)"><path d="m299.9 156.3c1.6 2.6-1.1 5.3-3.8 3.8-.2-.1-.4-.4-.6-.6-1.6-2.6 1.1-5.3 3.8-3.8.2.2.4.4.6.6z" fill="url(#aJ)"/></g><path clip-path="url(#aH)" d="m327.4 130.4-2.8-6.5-13.5 24.4c-2.2 3.4-5.9 5.4-9.9 5.4l-31.3.3v11.4l37.1-.3z" fill="url(#aK)" opacity=".4"/></g><path d="m301.1 151.7.9.6-3.8 6c-.1.2-.3.2-.5.1l-.2-.1c-.2-.1-.2-.3-.1-.5z" fill="url(#aL)"/><path d="m299.5 151.2.1-.2c.1-.2.3-.2.5-.1l2.8 1.8c.2.1.2.3.1.5l-.1.2c-.1.2-.3.2-.5.1l-2.8-1.8c-.1-.1-.2-.3-.1-.5z" fill="url(#aM)"/></g><g><path d="m304.7 153.3c-.2.2-.5.2-.7.1-.7-.4-1.3-.8-2.5-1.7-1.2-.8-1.2-5 .8-5.1s.5 2.6.5 2.6l2 3.4c.1.2 0 .5-.1.7z" fill="url(#aN)"/></g><g><g clip-path="url(#aO)"><path d="m318.3 151.3-41.5-7.2 10.9-43.7 35.3 8.9z" fill="url(#aP)"/></g><path clip-path="url(#aO)" d="m293 115.3c3.4 2.3 7.5 3.3 11.6 3.8 2.6.3 6.3-.5 8.9 0 3.3.6 6.8 3 6.5 6.7-.4 5.8-3 11.5-7.2 15.5-.9.8-1.8 1.6-3 1.9-1.1.3-2.5.2-3.3-.7-.9-.9-.9-2.3-.8-3.6.3-2.4 1-4.7 2.2-6.8.4-.7.9-1.4 1.1-2.2.3-.8.3-1.7-.2-2.4-.5-.8-1.6-1.2-2.6-1.1s-1.9.4-2.9.7c-2.8.8-8.2-.8-10.7-2.3-1.9-1.1-3.5-2.8-4.7-4.7-1.1-1.9-.4-4.1-.2-6.2 0-.2.2-2 .6-1.9 1.1.4 3.7 2.7 4.7 3.3z" fill="url(#aQ)" opacity=".3"/></g><g><path clip-path="url(#aR)" d="m320.6 116.7-20.5-1.3-.8-25.6 32.2 4.3z" fill="url(#aT)"/><path clip-path="url(#aR)" d="m310.8 93.1c1 .2 1.9.8 2 2 .2 1.7-1.6 2.9-2.4 4.3-.8 1.3-2 2.4-2.1 4-.1 1.4.4 2.8 1.5 3.9.7.7 1.7 1.3 2.5 1.9.9.6 1.7 1.3 2.1 2.2s.3 2-.6 2.5c-1.1.7-2.8.2-4.1-.4-1.9-.9-3.7-2-5.3-3.3-1.1-.9-2.1-2-1.8-3.2.3-1.1 1.7-1.6 2.5-2.4.9-.9 1.2-2.1 1.3-3.3 0-1.2-.2-2.4-.2-3.6s.2-2.4.9-3.4c.9-.9 2.5-1.4 3.7-1.2z" fill="url(#aU)" opacity=".3"/></g><g><path clip-path="url(#aV)" d="m308.6 95.8-9.2-5.8v-.1l6.7-15.2h.1l11.8 5.3zm-9-5.9 8.9 5.7 9.3-15.5-11.6-5.2z" fill="#6d6e70"/><path clip-path="url(#aV)" d="m312.2 97.2-9.1-2.6.7-16.9 8.6-2.3z" fill="url(#aW)"/><path clip-path="url(#aV)" d="m304.8 83.4h.9l.7-3.1s2.2-.4 2.7.7-.2 2.7-1.6 3.8c-1.4 1-3.1.9-3.1.9s4.4 2.9 5.4 7.8c.5 2.3 2.6 1.4 2.6 1.4v-16.2s-.5-3.4-4.7-2.5c-1.8.6-3 2.2-2.9 7.2z" fill="url(#aY)" opacity=".3"/><path clip-path="url(#aV)" d="m310.4 81.7s-2.5-2.4.4-4.3c2.6-1.8.9 9.8 2.9 12-.3 7.3-1.2 10.5-2.6 4.2-1.3-6.3-4-7.7-4-7.7s2.7-.5 3.3-4.2z" fill="url(#aZ)" opacity=".3"/></g></g></g><g><g><g><path clip-path="url(#a0)" d="m1.2 77.4h48.1v73.1h-48.1z" fill="#d6d6d5" transform="matrix(-1 0 0 -1 50.594 227.8643)"/><path clip-path="url(#a0)" d="m135.2 76.4h-178.2v74.3h178.2z" fill="url(#a1)"/><path clip-path="url(#a0)" d="m-43 150.7h178.2v-16h-178.2z" fill="url(#a3)" opacity=".25"/><path clip-path="url(#a0)" d="m26.4 150.7c0-31.1 26.5-57.5 75-57.5 44.6 0 38.5 57.5 38.5 57.5z" fill="url(#a4)" opacity=".25"/><g clip-path="url(#a0)"><path clip-path="url(#a5)" d="m47.2 79.4h55.1v39.4h-55.1z" fill="#d6d6d5" transform="matrix(-1 0 0 -1 149.6016 198.0715)"/><path clip-path="url(#a5)" d="m59.1 110.1c-25.5 15.6-66.8 15.6-92.3 0l92.3-56.6c25.4 15.6 25.4 40.9 0 56.6z" fill="url(#a7)" opacity=".5"/></g><g clip-path="url(#a0)"><path clip-path="url(#a8)" d="m-23.6 79.4h55.1v39.4h-55.1z" fill="#d6d6d5"/><path clip-path="url(#a8)" d="m19.7 110.1c25.5 15.6 66.8 15.6 92.3 0l-92.3-56.6c-25.4 15.6-25.4 40.9 0 56.6z" fill="url(#a9)" opacity=".5"/></g><path clip-path="url(#a0)" d="m77.7 150.7h49.5c0-13.6-11.1-24.6-24.7-24.6s-24.8 10.9-24.8 24.6z" fill="url(#ba)" opacity=".25"/><path clip-path="url(#a0)" d="m-29 150.7h49.5c0-13.7-11.1-24.7-24.7-24.7s-24.8 11-24.8 24.7z" fill="url(#bb)" opacity=".25"/></g><g><g><path clip-path="url(#bc)" d="m82.1 170.9h40.6v-40.5h-40.6z" fill="url(#be)"/><ellipse clip-path="url(#bc)" cx="110.9" cy="159.1" fill="url(#bf)" opacity=".5" rx="23" ry="22.9"/></g><path d="m92.7 141.8c-9.6 13.4 5.2 28.2 18.6 18.6.3-.2.6-.5.8-.8 9.6-13.4-5.2-28.2-18.6-18.6-.3.2-.6.5-.8.8z" fill="#d6d6d5"/></g><g><g><path clip-path="url(#bg)" d="m-27.3 173.7h46.1v-46.1h-46.1z" fill="url(#bh)"/><ellipse clip-path="url(#bg)" cx="4.2" cy="159.1" fill="url(#bi)" opacity=".5" rx="23" ry="22.9"/></g><path d="m-14 141.8c-9.6 13.4 5.2 28.2 18.6 18.6.3-.2.6-.5.8-.8 9.6-13.4-5.2-28.2-18.6-18.6-.3.2-.5.5-.8.8z" fill="#d6d6d5"/></g><path d="m116.1 130.5h8.6c2.5 0 4.6-2.1 4.6-4.6 0-2.5-2.1-4.6-4.6-4.6h-8.6z" fill="url(#bj)"/></g></g><g><g fill="#fff"><path d="m149.8 130.1h-3.9v2.7h4.5v1.4h-6.4v-9.3h6.4v1.4h-4.5v2.3h3.9z"/><path d="m153.1 127.3.1 1c .2-.4.5-.6.9-.8s.7-.3 1.1-.3c.7 0 1.2.2 1.6.7.4.4.6 1.1.6 2.1v4.3h-1.9v-4.3c0-.5-.1-.8-.3-1s-.5-.3-.9-.3c-.2 0-.5.1-.7.2s-.4.2-.5.4v5h-1.9v-6.9h1.9z"/><path d="m161 125.6v1.7h1.2v1.3h-1.2v3.5c0 .3.1.5.2.6s.3.2.4.2h.3s.2 0 .2-.1l.2 1.3c-.2.1-.4.1-.5.1-.2 0-.4 0-.6 0-.6 0-1.1-.2-1.5-.5-.3-.4-.5-.9-.5-1.7v-3.5h-1v-1.3h1v-1.7h1.8z"/><path d="m167 128.9h-.7c-.3 0-.5.1-.7.2s-.3.3-.4.5v4.7h-1.9v-6.9h1.7l.1 1c .2-.4.4-.6.6-.8.3-.2.6-.3.9-.3h.3c.1 0 .2 0 .2.1z"/><path d="m171 134.3c-1 0-1.8-.3-2.4-1-.6-.6-.9-1.5-.9-2.4v-.3c0-1 .3-1.9.8-2.5.6-.7 1.3-1 2.3-1 .9 0 1.7.3 2.2.8.5.6.8 1.3.8 2.3v1h-4.1c0 .5.2.8.5 1.1s.6.4 1.1.4c.4 0 .8 0 1-.1s.6-.2.9-.4l.5 1.2c-.3.2-.7.4-1.1.6-.5.3-1 .3-1.6.3zm-.1-5.7c-.3 0-.6.1-.8.4s-.3.6-.4 1h2.3v-.2c0-.4-.1-.7-.3-.9s-.5-.3-.8-.3z"/><path d="m178.3 130.1.5-5.2h5.2v1.5h-3.7l-.3 2.1.6-.3s.5-.1.8-.1c.9 0 1.6.3 2.1.8.5.6.7 1.3.7 2.3 0 .9-.3 1.6-.8 2.2s-1.3.9-2.3.9c-.9 0-1.6-.2-2.2-.7s-.9-1.1-.9-1.9l1.8-.1c0 .4.1.7.4 1 .2.2.5.3.9.3s.8-.2 1-.5.3-.7.3-1.2-.1-1-.3-1.3-.6-.5-1-.5-.6.1-.8.2-.3.3-.4.5z"/><path d="m191.4 131.3.1.4 1.3-4.4h2l-2.8 8c-.2.5-.5.9-.8 1.3s-.8.5-1.5.5c-.2 0-.3 0-.4 0s-.3-.1-.5-.1l.2-1.4h.2.2c.3 0 .5-.1.7-.2.2-.2.3-.3.4-.6l.2-.5-2.5-6.9h2z"/><path d="m205.1 126.3c-1 1.2-1.7 2.3-2 3.3-.4 1-.6 2.2-.8 3.7l-.1.9h-1.9l.1-.9c.1-1.4.5-2.6.9-3.8s1.1-2.2 2-3.2h-4.8v-1.4h6.6z"/><path d="m211.4 127.3.1.9c.2-.3.5-.6.8-.8s.7-.3 1.2-.3c.4 0 .8.1 1.1.3s.6.5.7.9c.2-.4.5-.7.8-.9s.7-.3 1.2-.3c.7 0 1.2.2 1.6.7s.6 1.2.6 2.2v4.2h-1.9v-4.2c0-.5-.1-.9-.3-1.1s-.4-.3-.8-.3c-.3 0-.5.1-.7.2s-.3.3-.5.5v.2.2 4.6h-1.9v-4.3c0-.5-.1-.9-.3-1.1s-.4-.3-.8-.3c-.3 0-.5 0-.7.1s-.3.2-.5.4v5.1h-1.9v-6.9z"/><path d="m223.2 125.6v1.7h1.2v1.3h-1.2v3.5c0 .3.1.5.2.6s.3.2.4.2h.3s.2 0 .2-.1l.2 1.3c-.2.1-.4.1-.5.1-.2 0-.4 0-.6 0-.6 0-1.1-.2-1.5-.5-.3-.4-.5-.9-.5-1.7v-3.5h-1v-1.3h1v-1.7h1.8z"/><path d="m229.3 132.3c0-.2-.1-.4-.3-.5s-.6-.3-1.1-.4c-.8-.2-1.4-.4-1.9-.7-.4-.3-.6-.8-.6-1.3 0-.6.3-1.1.8-1.5s1.2-.6 2-.6c.9 0 1.6.2 2.1.6s.8.9.8 1.6h-1.8c0-.3-.1-.5-.3-.7s-.4-.3-.8-.3c-.3 0-.5.1-.7.2s-.3.3-.3.6c0 .2.1.4.3.5s.5.3 1.1.4c.9.2 1.5.4 1.9.8.4.3.6.8.6 1.4s-.3 1.1-.8 1.5-1.2.6-2.1.6-1.6-.2-2.2-.7-.8-1-.8-1.6h1.7c0 .4.1.6.4.8s.5.2.9.2c.3 0 .6-.1.8-.2.2-.3.3-.5.3-.7z"/><path d="m235.3 130.8c0-1.1.2-2 .7-2.6.5-.7 1.1-1 2-1 .3 0 .7.1.9.2.3.1.5.4.7.6v-3.8h1.9v10h-1.6l-.2-.8c-.2.3-.5.6-.8.7-.3.2-.6.2-1 .2-.8 0-1.5-.3-2-.9s-.7-1.4-.7-2.5v-.1zm1.9.1c0 .6.1 1.1.3 1.4s.5.5 1 .5c.3 0 .5-.1.7-.2s.4-.3.5-.5v-3c-.1-.2-.3-.4-.5-.5s-.4-.2-.7-.2c-.5 0-.8.2-1 .6s-.3.9-.3 1.6z"/><path d="m246.1 134.3c-1 0-1.8-.3-2.4-1-.6-.6-.9-1.5-.9-2.4v-.3c0-1 .3-1.9.8-2.5.6-.7 1.3-1 2.3-1 .9 0 1.7.3 2.2.8.5.6.8 1.3.8 2.3v1h-4.1c0 .5.2.8.5 1.1s.6.4 1.1.4c.4 0 .8 0 1-.1s.6-.2.9-.4l.5 1.2c-.3.2-.7.4-1.1.6-.6.3-1.1.3-1.6.3zm-.2-5.7c-.3 0-.6.1-.8.4s-.3.6-.4 1h2.3v-.2c0-.4-.1-.7-.3-.9s-.4-.3-.8-.3z"/><path d="m148.4 146.5c0-1.1.2-2 .7-2.6.5-.7 1.1-1 2-1 .3 0 .7.1.9.2.3.1.5.4.7.6v-3.8h1.9v10h-1.6l-.2-.8c-.2.3-.5.6-.8.7-.3.2-.6.2-1 .2-.8 0-1.5-.3-2-.9s-.7-1.4-.7-2.5v-.1zm1.9.2c0 .6.1 1.1.3 1.4s.5.5 1 .5c.3 0 .5-.1.7-.2s.4-.3.5-.5v-3c-.1-.2-.3-.4-.5-.5s-.4-.2-.7-.2c-.5 0-.8.2-1 .6s-.3.9-.3 1.6z"/><path d="m158.1 141.3h-1.9v-1.4h1.9zm0 8.6h-1.9v-6.9h1.9z"/><path d="m163.3 148c0-.2-.1-.4-.3-.5s-.6-.3-1.1-.4c-.8-.2-1.4-.4-1.9-.7-.4-.3-.6-.8-.6-1.3 0-.6.3-1.1.8-1.5s1.2-.6 2-.6c.9 0 1.6.2 2.1.6s.8.9.8 1.6h-1.8c0-.3-.1-.5-.3-.7s-.4-.3-.8-.3c-.3 0-.5.1-.7.2s-.3.3-.3.6c0 .2.1.4.3.5s.5.3 1.1.4c.9.2 1.5.4 1.9.8.4.3.6.8.6 1.4s-.3 1.1-.8 1.5-1.2.6-2.1.6-1.6-.2-2.2-.7-.8-1-.8-1.6h1.7c0 .4.1.6.4.8s.5.2.9.2c.3 0 .6-.1.8-.2.2-.3.3-.5.3-.7z"/><path d="m168.6 141.3v1.7h1.2v1.3h-1.2v3.5c0 .3.1.5.2.6s.3.2.4.2h.3s.2 0 .2-.1l.2 1.3c-.2.1-.4.1-.5.1-.2 0-.4 0-.6 0-.6 0-1.1-.2-1.5-.5-.3-.4-.5-.9-.5-1.7v-3.5h-1v-1.2h1v-1.7z"/><path d="m175 149.9c-.1-.2-.1-.3-.2-.5s-.1-.4-.1-.5c-.2.3-.4.6-.8.8s-.7.3-1.1.3c-.7 0-1.3-.2-1.7-.6s-.6-.9-.6-1.5c0-.7.3-1.2.8-1.6s1.3-.6 2.3-.6h1v-.5c0-.3-.1-.6-.3-.8s-.4-.3-.8-.3c-.3 0-.5.1-.7.2s-.2.4-.2.6h-1.8c0-.6.2-1.1.8-1.5.5-.4 1.2-.6 2.1-.6.8 0 1.5.2 2 .6s.8 1 .8 1.8v2.9c0 .3 0 .6.1.9 0 .3.1.6.2.9zm-1.7-1.2c.3 0 .6-.1.9-.2s.4-.3.5-.6v-1h-1c-.4 0-.7.1-.9.3s-.3.4-.3.7c0 .2.1.4.2.6.1.1.3.2.6.2z"/><path d="m179.7 143 .1 1c .2-.4.5-.6.9-.8s.7-.3 1.1-.3c.7 0 1.2.2 1.6.7.4.4.6 1.1.6 2.1v4.3h-1.9v-4.3c0-.5-.1-.8-.3-1s-.5-.3-.9-.3c-.2 0-.5.1-.7.2s-.4.2-.5.4v5h-1.9v-7z"/><path d="m188.3 148.6c.3 0 .6-.1.8-.3s.3-.5.3-.8h1.7c0 .7-.2 1.3-.8 1.8-.5.5-1.2.7-2 .7-1 0-1.8-.3-2.4-1s-.8-1.5-.8-2.5v-.2c0-1 .3-1.9.8-2.5.6-.7 1.4-1 2.4-1 .9 0 1.5.2 2.1.7.5.5.8 1.1.8 1.9h-1.7c0-.4-.1-.7-.3-.9s-.5-.4-.8-.4c-.5 0-.8.2-1 .6s-.3.9-.3 1.5v.2c0 .6.1 1.1.3 1.5s.4.7.9.7z"/><path d="m194.1 141.3h-1.9v-1.4h1.9zm0 8.6h-1.9v-6.9h1.9z"/><path d="m199.7 149.9c-.1-.2-.1-.3-.2-.5s-.1-.4-.1-.5c-.2.3-.4.6-.8.8s-.7.3-1.1.3c-.7 0-1.3-.2-1.7-.6s-.6-.9-.6-1.5c0-.7.3-1.2.8-1.6s1.3-.6 2.3-.6h1v-.5c0-.3-.1-.6-.3-.8s-.4-.3-.8-.3c-.3 0-.5.1-.7.2s-.2.4-.2.6h-1.8c0-.6.2-1.1.8-1.5.5-.4 1.2-.6 2.1-.6.8 0 1.5.2 2 .6s.8 1 .8 1.8v2.9c0 .3 0 .6.1.9 0 .3.1.6.2.9zm-1.7-1.2c.3 0 .6-.1.9-.2s.4-.3.5-.6v-1h-1c-.4 0-.7.1-.9.3s-.3.4-.3.7c0 .2.1.4.2.6.1.1.3.2.6.2z"/><path d="m206.4 149.9v-5.6h-1v-1.3h1v-.8c0-.8.2-1.4.7-1.8.4-.4 1.1-.6 1.9-.6h.5s.3.1.5.1l-.2 1.4c-.1 0-.2 0-.3 0s-.2 0-.3 0c-.3 0-.5.1-.7.2-.2.2-.2.4-.2.7v.8h1.4v1.3h-1.4v5.6z"/><path d="m214.3 144.6h-.7c-.3 0-.5.1-.7.2s-.3.3-.4.5v4.7h-1.9v-7h1.7l.1 1c .2-.4.4-.6.6-.8.3-.2.6-.3.9-.3h.3c.1 0 .2 0 .2.1z"/><path d="m214.9 146.4c0-1 .3-1.9.9-2.5.6-.7 1.4-1 2.4-1s1.8.3 2.4 1 .9 1.5.9 2.5v.1c0 1-.3 1.9-.9 2.5-.6.7-1.4 1-2.4 1s-1.8-.3-2.4-1-.9-1.5-.9-2.5zm1.9.1c0 .6.1 1.1.3 1.5s.6.6 1.1.6.8-.2 1.1-.6c.2-.4.3-.9.3-1.5v-.1c0-.6-.1-1.1-.3-1.5s-.6-.6-1.1-.6-.8.2-1.1.6-.3.9-.3 1.5z"/><path d="m224.3 143 .1 1c .2-.4.5-.6.9-.8s.7-.3 1.1-.3c.7 0 1.2.2 1.6.7.4.4.6 1.1.6 2.1v4.3h-1.9v-4.3c0-.5-.1-.8-.3-1s-.5-.3-.9-.3c-.2 0-.5.1-.7.2s-.4.2-.5.4v5h-1.9v-7z"/><path d="m232.2 141.3v1.7h1.2v1.3h-1.2v3.5c0 .3.1.5.2.6s.3.2.4.2h.3s.2 0 .2-.1l.2 1.3c-.2.1-.4.1-.5.1-.2 0-.4 0-.6 0-.6 0-1.1-.2-1.5-.5-.3-.4-.5-.9-.5-1.7v-3.5h-1v-1.2h1v-1.7z"/><path d="m238.6 149.9c-.1-.2-.1-.3-.2-.5s-.1-.4-.1-.5c-.2.3-.4.6-.8.8s-.7.3-1.1.3c-.7 0-1.3-.2-1.7-.6s-.6-.9-.6-1.5c0-.7.3-1.2.8-1.6s1.3-.6 2.3-.6h1v-.5c0-.3-.1-.6-.3-.8s-.4-.3-.8-.3c-.3 0-.5.1-.7.2s-.2.4-.2.6h-1.8c0-.6.2-1.1.8-1.5.5-.4 1.2-.6 2.1-.6.8 0 1.5.2 2 .6s.8 1 .8 1.8v2.9c0 .3 0 .6.1.9 0 .3.1.6.2.9zm-1.7-1.2c.3 0 .6-.1.9-.2s.4-.3.5-.6v-1h-1c-.4 0-.7.1-.9.3s-.3.4-.3.7c0 .2.1.4.2.6.1.1.4.2.6.2z"/><path d="m243.6 149.9h-1.9v-10h1.9z"/></g></g><path d="m252.8 156.8h-5.6v-2.2h5.6zm-11.2 0h-5.6v-2.2h5.6zm-11.2 0h-5.6v-2.2h5.6zm-11.2 0h-5.6v-2.2h5.6zm-11.2 0h-5.6v-2.2h5.6zm-11.2 0h-5.6v-2.2h5.6zm-11.2 0h-5.6v-2.2h5.6zm-11.2 0h-5.6v-2.2h5.6zm-11.2 0h-5.6v-2.2h5.6zm-11.2 0h-5.6v-2.2h5.6zm-11.2 0h-5.6v-2.2h5.6z" fill="#fff"/></g></g></svg>