<svg enable-background="new 0 0 391 216.4" viewBox="0 0 391 216.4" xmlns="http://www.w3.org/2000/svg" xmlns:xlink="http://www.w3.org/1999/xlink"><path d="m59.2 0h275v92.8h-275z" fill="url(#b)"/><path d="m137.5 87.3h-59.7c-6.1 0-11-4.9-11-11v-60c0-6 4.9-11 11-11h59.7c6 0 11 4.9 11 11v60c0 6-5 11-11 11z" fill="url(#d)"/><path d="m227.1 87.3h-59.7c-6 0-11-4.9-11-11v-60c0-6.1 5-11 11-11h59.7c6 0 11 4.9 11 11v60c0 6-4.9 11-11 11z" fill="url(#e)"/><path d="m315.5 87.3h-59.7c-6.1 0-11-4.9-11-11v-60c0-6.1 4.9-11 11-11h59.7c6.1 0 11 4.9 11 11v60c0 6-4.9 11-11 11z" fill="url(#f)"/><path d="m0 200.8h364.7v11.4h-364.7z" fill="url(#g)"/><path d="m0 195.9h49.4v16.6h-49.4z" fill="url(#h)"/><path d="m150.1 200.8h3.6v11.4h-3.6z" fill="#fff"/><path d="m44.9 195.9h4.5v16.6h-4.5z" fill="url(#j)"/><path d="m341.6 212.5h49.4v-16.6h-49.4z" fill="url(#k)"/><path d="m341.6 212.5h4.5v-16.6h-4.5z" fill="url(#l)"/><path d="m49.2 200.8h3.6v11.7h-3.6z" fill="#fff"/><path d="m61.3 200.8h3.6v11.7h-3.6z" fill="#fff"/><path d="m49.4 216.4 15.1-15.6h-4l-7.8 7.8v-7.8h-3.3z" fill="#fff"/><path d="m338 200.8h3.6v11.7h-3.6z" fill="#fff"/><path d="m326.1 216.4 15.1-15.6h-4l-7.8 7.8v-7.8h-3.3z" fill="#fff"/><path d="m115.3 189.6.9.4-3.3 10.1c-.1.2-.3.3-.5.2l-.2-.1c-.2-.1-.3-.3-.2-.5z" fill="url(#m)"/><path d="m117.2 166.4c-1 0-1.8.8-1.8 1.8-.2 5.6-.7 21.9-.1 23.4.5 1.4 3 1.4 4.2.9.2-.1 1-.9 1-1.5.1-4.1-.1-17.7-.2-22.8 0-1-.8-1.8-1.8-1.8z" fill="url(#o)"/><defs><linearGradient id="a"><stop offset="0" stop-color="#d9d9d8"/><stop offset="1" stop-color="#e5e5e4"/></linearGradient><linearGradient id="b" gradientUnits="userSpaceOnUse" x1="59.2435" x2="334.2509" xlink:href="#a" y1="46.3797" y2="46.3797"/><linearGradient id="c"><stop offset="0" stop-color="#3bb44a"/><stop offset="1" stop-color="#3b834a"/></linearGradient><linearGradient id="d" gradientUnits="userSpaceOnUse" x1="66.7534" x2="148.463" xlink:href="#c" y1="46.2603" y2="46.2603"/><linearGradient id="e" gradientUnits="userSpaceOnUse" x1="156.406" x2="238.1155" xlink:href="#c" y1="46.2603" y2="46.2603"/><linearGradient id="f" gradientUnits="userSpaceOnUse" x1="244.793" x2="326.5025" xlink:href="#c" y1="46.2603" y2="46.2603"/><linearGradient id="g" gradientUnits="userSpaceOnUse" x1="182.3603" x2="182.3603" y1="212.2601" y2="200.8104"><stop offset="0" stop-color="#3e444e"/><stop offset="1" stop-color="#1a2226"/></linearGradient><linearGradient id="h" gradientUnits="userSpaceOnUse" x1="0" x2="49.3947" xlink:href="#a" y1="204.2003" y2="204.2003"/><linearGradient id="i"><stop offset="0" stop-color="#ffc55d"/><stop offset="1" stop-color="#fab11f"/></linearGradient><linearGradient id="j" gradientUnits="userSpaceOnUse" x1="47.1509" x2="47.1509" xlink:href="#i" y1="212.5162" y2="195.9017"/><linearGradient id="k" gradientTransform="matrix(-1 0 0 1 7518.3354 0)" gradientUnits="userSpaceOnUse" x1="7127.3721" x2="7176.7666" xlink:href="#a" y1="204.2003" y2="204.2003"/><linearGradient id="l" gradientTransform="matrix(-1 0 0 1 7518.3354 0)" gradientUnits="userSpaceOnUse" x1="7174.5229" x2="7174.5229" xlink:href="#i" y1="212.5162" y2="195.9017"/><linearGradient id="m" gradientTransform="matrix(-.5595 -.2262 .2331 -.5767 752.2862 412.7895)" gradientUnits="userSpaceOnUse" x1="1114.3522" x2="1116.9253" xlink:href="#a" y1="-59.793" y2="-60.1255"/><linearGradient id="n"><stop offset="0" stop-color="#ee4050"/><stop offset="1" stop-color="#d72538"/></linearGradient><linearGradient id="o" gradientUnits="userSpaceOnUse" x1="111.3478" x2="124.0954" xlink:href="#n" y1="182.3034" y2="176.9203"/><clipPath id="p"><path d="m109.9 194.9c.7 0 3.3 1 2.1 2.3-.5.6-.3 1-1 1.2-.8.3-1.9 0-2.7.1-.5.1-1.1-.1-1.6-.3s-.9-.6-1-1.1c0-.4.2-.8.5-1.1s.7-.5 1.1-.6c.7-.4 1.7-.5 2.6-.5z"/></clipPath><linearGradient id="q"><stop offset="0" stop-color="#737374" stop-opacity="0"/><stop offset="1" stop-color="#414242"/></linearGradient><linearGradient id="r" gradientUnits="userSpaceOnUse" x1="108.938" x2="126.1138" xlink:href="#q" y1="184.571" y2="184.571"/><linearGradient id="s"><stop offset="0" stop-color="#8e2d37"/><stop offset="1" stop-color="#781a26"/></linearGradient><linearGradient id="t" gradientUnits="userSpaceOnUse" x1="128.4983" x2="104.6597" xlink:href="#s" y1="199.3578" y2="175.5191"/><linearGradient id="u"><stop offset="0" stop-color="#fab23e"/><stop offset="1" stop-color="#fab220"/></linearGradient><linearGradient id="v" gradientUnits="userSpaceOnUse" x1="112.6986" x2="122.0169" xlink:href="#u" y1="118.5318" y2="118.5318"/><clipPath id="w"><use xlink:href="#br"/></clipPath><linearGradient id="x" gradientUnits="userSpaceOnUse" x1="112.1646" x2="123.292" xlink:href="#u" y1="119.1462" y2="118.8104"/><linearGradient id="y" gradientUnits="userSpaceOnUse" x1="112.9544" x2="120.5416" xlink:href="#u" y1="122.0538" y2="122.0538"/><linearGradient id="z"><stop offset="0" stop-color="#151b26"/><stop offset="1" stop-color="#151b26"/></linearGradient><linearGradient id="A" gradientUnits="userSpaceOnUse" x1="124.45" x2="109.761" xlink:href="#z" y1="148.6639" y2="148.6639"/><linearGradient id="B"><stop offset="0" stop-color="#414141"/><stop offset="1" stop-color="#646464"/></linearGradient><linearGradient id="C" gradientTransform="matrix(.01084854 -.6034 .3404 .00611948 3187.0601 -500.2474)" gradientUnits="userSpaceOnUse" x1="-1255.7434" x2="-1245.6741" xlink:href="#B" y1="-9000.8936" y2="-9005.1465"/><linearGradient id="D" gradientUnits="userSpaceOnUse" x1="119.795" x2="115.6705" xlink:href="#z" y1="188.6886" y2="188.6886"/><linearGradient id="E" gradientUnits="userSpaceOnUse" x1="113.0534" x2="115.4972" xlink:href="#a" y1="185.1465" y2="185.1465"/><linearGradient id="F" gradientTransform="matrix(-1 0 0 1 8264.3682 0)" gradientUnits="userSpaceOnUse" x1="8142.1733" x2="8144.6172" xlink:href="#a" y1="185.1465" y2="185.1465"/><linearGradient id="G"><stop offset="0" stop-color="#757575"/><stop offset="1" stop-color="#757575"/></linearGradient><linearGradient id="H" gradientUnits="userSpaceOnUse" x1="114.7398" x2="115.6748" xlink:href="#G" y1="187.3819" y2="187.3819"/><linearGradient id="I" gradientUnits="userSpaceOnUse" x1="119.7515" x2="120.6864" xlink:href="#G" y1="187.3819" y2="187.3819"/><clipPath id="J"><path d="m114.8 115.1c1.6.4 6.5.2 7-1.8s1.6-9-4.7-9.1c-3.7-.1-4.4 2.6-4.8 4.7-.3 2.2-.3 5.4 2.5 6.2z"/></clipPath><linearGradient id="K"><stop offset="0" stop-color="#414242"/><stop offset="1" stop-color="#737374"/></linearGradient><linearGradient id="L" gradientTransform="matrix(.9973 -.07369055 .07369055 .9973 2419.9209 -203.3707)" gradientUnits="userSpaceOnUse" x1="-2328.1877" x2="-2313.416" xlink:href="#K" y1="150.4802" y2="136.7257"/><linearGradient id="M"><stop offset="0" stop-color="#414242" stop-opacity="0"/><stop offset="1" stop-color="#737374"/></linearGradient><linearGradient id="N" gradientTransform="matrix(.9973 -.07369055 .07369055 .9973 2419.9209 -203.3707)" gradientUnits="userSpaceOnUse" x1="-2329.6714" x2="-2315.0698" xlink:href="#M" y1="143.6061" y2="143.6061"/><linearGradient id="O" gradientUnits="userSpaceOnUse" x1="135.2958" x2="123.183" xlink:href="#z" y1="146.6121" y2="146.6121"/><linearGradient id="P" gradientUnits="userSpaceOnUse" x1="117.1009" x2="118.5636" xlink:href="#a" y1="164.1087" y2="164.1087"/><linearGradient id="Q" gradientUnits="userSpaceOnUse" x1="115.3549" x2="120.0765" xlink:href="#n" y1="178.9712" y2="178.9712"/><linearGradient id="R" gradientUnits="userSpaceOnUse" x1="112.1102" x2="123.8738" xlink:href="#z" y1="160.6184" y2="160.6184"/><linearGradient id="S"><stop offset="0" stop-color="#ffc75b"/><stop offset="1" stop-color="#fbb324"/></linearGradient><linearGradient id="T" gradientTransform="matrix(-1 0 0 1 8325.9424 0)" gradientUnits="userSpaceOnUse" x1="8183.0171" x2="8198.1953" xlink:href="#S" y1="137.4518" y2="137.4518"/><linearGradient id="U"><stop offset="0" stop-color="#414141"/><stop offset=".2258" stop-color="#414141"/><stop offset="1" stop-color="#737373" stop-opacity="0"/></linearGradient><linearGradient id="V" gradientTransform="matrix(-1 0 0 1 8325.9424 0)" gradientUnits="userSpaceOnUse" x1="8185.3428" x2="8198.2217" xlink:href="#U" y1="139.023" y2="139.023"/><linearGradient id="W" gradientTransform="matrix(.01084854 -.6034 .3404 .00611948 3187.0601 -500.2474)" gradientUnits="userSpaceOnUse" x1="-1243.2194" x2="-1233.15" xlink:href="#B" y1="-8952.5068" y2="-8956.7588"/><linearGradient id="X" gradientUnits="userSpaceOnUse" x1="121.6531" x2="128.8442" xlink:href="#s" y1="189.4594" y2="189.4594"/><clipPath id="Y"><path d="m105.2 168.8c1.8 14.7-3.2 27 3.9 28.8 3.2.8 1.7-3.2 1.7-3.2s1.5-10.7 2.1-14.6c.8-6 1-15.9 1-16.9 0 0-1-.2-1.4-.7-.6-.7-.5-1.6.1-2.2.5-.4 2 .1 2.8-.1 2.7-.5 1.9-1.5 3.3-.8.4.2 1.2.9 1.7.9 1.5.2 3.4-.5 3.4.1 0 1.4-1.7 2.5-1.7 2.5 1.8 3.1 4.6 8.1 3.2 10.6-5.3 9.4-3.7 16.4-3.7 16.4s3.1 5.6 5.8-4.4c2.1-7.6 5.2-5.5 7.1-14.9.6-3-4.4-13.7-7.4-19.3-1.6-3-3.4 0-7.9 0-7.7 0-11.4-1.3-11.4-1.3s-3.1 15.1-2.6 19.1z"/></clipPath><linearGradient id="Z"><stop offset="0" stop-color="#24324c"/><stop offset="1" stop-color="#3e537d"/></linearGradient><linearGradient id="aa" gradientUnits="userSpaceOnUse" x1="85.221" x2="147.8245" xlink:href="#Z" y1="181.6207" y2="181.6207"/><linearGradient id="ab"><stop offset="0" stop-color="#414242"/><stop offset=".4135" stop-color="#434444" stop-opacity=".5865"/><stop offset=".633" stop-color="#4b4c4c" stop-opacity=".367"/><stop offset=".807" stop-color="#59595a" stop-opacity=".193"/><stop offset=".9561" stop-color="#6c6c6d" stop-opacity=".043912"/><stop offset="1" stop-color="#737374" stop-opacity="0"/></linearGradient><linearGradient id="ac" gradientUnits="userSpaceOnUse" x1="108.3797" x2="131.3729" xlink:href="#ab" y1="180.3191" y2="180.3191"/><linearGradient id="ad" gradientUnits="userSpaceOnUse" x1="68.9497" x2="102.0906" xlink:href="#S" y1="130.6523" y2="130.6523"/><linearGradient id="ae" gradientUnits="userSpaceOnUse" x1="69.7614" x2="102.4602" xlink:href="#U" y1="132.2612" y2="132.2612"/><linearGradient id="af" gradientUnits="userSpaceOnUse" x1="113.588" x2="101.4752" xlink:href="#z" y1="146.6121" y2="146.6121"/><linearGradient id="ag" gradientUnits="userSpaceOnUse" x1="100.9642" x2="134.1558" xlink:href="#n" y1="137.4519" y2="137.4519"/><linearGradient id="ah" gradientTransform="matrix(-.5595 -.2262 .2331 -.5767 752.2862 412.7895)" gradientUnits="userSpaceOnUse" x1="993.4297" x2="996.0029" xlink:href="#a" y1="-12.3628" y2="-12.6954"/><linearGradient id="ai" gradientUnits="userSpaceOnUse" x1="190.0625" x2="202.81" xlink:href="#n" y1="182.3034" y2="176.9203"/><clipPath id="aj"><path d="m188.6 194.9c.7 0 3.3 1 2.1 2.3-.5.6-.3 1-1 1.2-.8.3-1.9 0-2.7.1-.5.1-1.1-.1-1.6-.3s-.9-.6-1-1.1c0-.4.2-.8.5-1.1s.7-.5 1.1-.6c.8-.4 1.7-.5 2.6-.5z"/></clipPath><linearGradient id="ak" gradientUnits="userSpaceOnUse" x1="187.6529" x2="204.8284" xlink:href="#q" y1="184.571" y2="184.571"/><linearGradient id="al" gradientUnits="userSpaceOnUse" x1="207.2132" x2="183.3746" xlink:href="#s" y1="199.3578" y2="175.5191"/><linearGradient id="am" gradientUnits="userSpaceOnUse" x1="191.4132" x2="200.7315" xlink:href="#u" y1="118.5318" y2="118.5318"/><clipPath id="an"><use xlink:href="#bs"/></clipPath><linearGradient id="ao" gradientUnits="userSpaceOnUse" x1="190.8792" x2="202.0066" xlink:href="#u" y1="119.1462" y2="118.8104"/><linearGradient id="ap" gradientUnits="userSpaceOnUse" x1="191.669" x2="199.2562" xlink:href="#u" y1="122.0538" y2="122.0538"/><linearGradient id="aq" gradientUnits="userSpaceOnUse" x1="203.1646" x2="188.4757" xlink:href="#z" y1="148.6639" y2="148.6639"/><linearGradient id="ar" gradientTransform="matrix(.01084854 -.6034 .3404 .00611948 3187.0601 -500.2474)" gradientUnits="userSpaceOnUse" x1="-1253.3988" x2="-1243.3295" xlink:href="#B" y1="-8769.708" y2="-8773.96"/><linearGradient id="as" gradientUnits="userSpaceOnUse" x1="198.5097" x2="194.3851" xlink:href="#z" y1="188.6886" y2="188.6886"/><linearGradient id="at" gradientUnits="userSpaceOnUse" x1="191.7681" x2="194.2119" xlink:href="#a" y1="185.1465" y2="185.1465"/><linearGradient id="au" gradientTransform="matrix(-1 0 0 1 8264.3682 0)" gradientUnits="userSpaceOnUse" x1="8063.4585" x2="8065.9023" xlink:href="#a" y1="185.1465" y2="185.1465"/><linearGradient id="av" gradientUnits="userSpaceOnUse" x1="193.4545" x2="194.3894" xlink:href="#G" y1="187.3819" y2="187.3819"/><linearGradient id="aw" gradientUnits="userSpaceOnUse" x1="198.4661" x2="199.401" xlink:href="#G" y1="187.3819" y2="187.3819"/><clipPath id="ax"><path d="m193.5 115.1c1.6.4 6.5.2 7-1.8s1.6-9-4.7-9.1c-3.7-.1-4.4 2.6-4.8 4.7-.3 2.2-.3 5.4 2.5 6.2z"/></clipPath><linearGradient id="ay" gradientTransform="matrix(.9973 -.07369055 .07369055 .9973 2419.9209 -203.3707)" gradientUnits="userSpaceOnUse" x1="-2249.687" x2="-2234.9153" xlink:href="#K" y1="156.2807" y2="142.5263"/><linearGradient id="az" gradientTransform="matrix(.9973 -.07369055 .07369055 .9973 2419.9209 -203.3707)" gradientUnits="userSpaceOnUse" x1="-2251.1709" x2="-2236.5693" xlink:href="#M" y1="149.4066" y2="149.4066"/><linearGradient id="aA" gradientUnits="userSpaceOnUse" x1="214.0104" x2="201.8977" xlink:href="#z" y1="146.6121" y2="146.6121"/><linearGradient id="aB" gradientUnits="userSpaceOnUse" x1="189.6723" x2="177.5595" xlink:href="#z" y1="146.6121" y2="146.6121"/><linearGradient id="aC" gradientUnits="userSpaceOnUse" x1="195.8155" x2="197.2783" xlink:href="#a" y1="164.1087" y2="164.1087"/><linearGradient id="aD" gradientUnits="userSpaceOnUse" x1="194.0695" x2="198.7912" xlink:href="#n" y1="178.9712" y2="178.9712"/><linearGradient id="aE" gradientUnits="userSpaceOnUse" x1="190.8249" x2="202.5884" xlink:href="#z" y1="160.6184" y2="160.6184"/><linearGradient id="aF" gradientTransform="matrix(-1 0 0 1 8325.9424 0)" gradientUnits="userSpaceOnUse" x1="8104.3022" x2="8119.481" xlink:href="#S" y1="137.4518" y2="137.4518"/><linearGradient id="aG" gradientTransform="matrix(-1 0 0 1 8325.9424 0)" gradientUnits="userSpaceOnUse" x1="8106.6279" x2="8119.5073" xlink:href="#U" y1="139.023" y2="139.023"/><linearGradient id="aH" gradientTransform="matrix(.01084854 -.6034 .3404 .00611948 3187.0601 -500.2474)" gradientUnits="userSpaceOnUse" x1="-1240.8748" x2="-1230.8054" xlink:href="#B" y1="-8721.3213" y2="-8725.5732"/><linearGradient id="aI" gradientUnits="userSpaceOnUse" x1="200.3677" x2="207.5589" xlink:href="#s" y1="189.4594" y2="189.4594"/><clipPath id="aJ"><path d="m183.9 168.8c1.8 14.7-3.2 27 3.9 28.8 3.2.8 1.7-3.2 1.7-3.2s1.5-10.7 2.1-14.6c.8-6 1-15.9 1-16.9 0 0-1-.2-1.4-.7-.6-.7-.5-1.6.1-2.2.5-.4 2 .1 2.8-.1 2.7-.5 1.9-1.5 3.3-.8.4.2 1.2.9 1.7.9 1.5.2 3.4-.5 3.4.1 0 1.4-1.7 2.5-1.7 2.5 1.8 3.1 4.6 8.1 3.2 10.6-5.3 9.4-3.7 16.4-3.7 16.4s3.1 5.6 5.8-4.4c2.1-7.6 5.2-5.5 7.1-14.9.6-3-4.4-13.7-7.4-19.3-1.6-3-3.4 0-7.9 0-7.7 0-11.4-1.3-11.4-1.3s-3.1 15.1-2.6 19.1z"/></clipPath><linearGradient id="aK" gradientUnits="userSpaceOnUse" x1="163.9356" x2="226.5391" xlink:href="#Z" y1="181.6207" y2="181.6207"/><linearGradient id="aL" gradientUnits="userSpaceOnUse" x1="187.0943" x2="210.0875" xlink:href="#ab" y1="180.3191" y2="180.3191"/><linearGradient id="aM" gradientTransform="matrix(-.7615 .6482 -.6482 -.7615 6626.0596 -4786.1792)" gradientUnits="userSpaceOnUse" x1="8062.3955" x2="8094.145" xlink:href="#S" y1="444.2851" y2="444.2851"/><linearGradient id="aN" gradientTransform="matrix(-.7615 .6482 -.6482 -.7615 6626.0596 -4786.1792)" gradientUnits="userSpaceOnUse" x1="8063.207" x2="8094.1392" y1="443.7298" y2="443.7298"><stop offset="0" stop-color="#737373" stop-opacity="0"/><stop offset="1" stop-color="#414141"/></linearGradient><linearGradient id="aO" gradientUnits="userSpaceOnUse" x1="177.5921" x2="212.8704" xlink:href="#n" y1="137.0668" y2="137.0668"/><linearGradient id="aP" gradientTransform="matrix(-.5595 -.2262 .2331 -.5767 752.2862 412.7895)" gradientUnits="userSpaceOnUse" x1="859.2069" x2="861.7801" xlink:href="#a" y1="40.2842" y2="39.9517"/><linearGradient id="aQ" gradientUnits="userSpaceOnUse" x1="277.435" x2="290.1825" xlink:href="#n" y1="182.3034" y2="176.9203"/><clipPath id="aR"><path d="m275.9 194.9c.7 0 3.3 1 2.1 2.3-.5.6-.3 1-1 1.2-.8.3-1.9 0-2.7.1-.5.1-1.1-.1-1.6-.3s-.9-.6-1-1.1c0-.4.2-.8.5-1.1s.7-.5 1.1-.6c.8-.4 1.7-.5 2.6-.5z"/></clipPath><linearGradient id="aS" gradientUnits="userSpaceOnUse" x1="275.0252" x2="292.201" xlink:href="#q" y1="184.571" y2="184.571"/><linearGradient id="aT" gradientUnits="userSpaceOnUse" x1="294.5855" x2="270.7469" xlink:href="#s" y1="199.3578" y2="175.5191"/><linearGradient id="aU" gradientUnits="userSpaceOnUse" x1="278.7857" x2="288.104" xlink:href="#u" y1="118.5318" y2="118.5318"/><clipPath id="aV"><use xlink:href="#bt"/></clipPath><linearGradient id="aW" gradientUnits="userSpaceOnUse" x1="278.2518" x2="289.3792" xlink:href="#u" y1="119.1462" y2="118.8104"/><linearGradient id="aX" gradientUnits="userSpaceOnUse" x1="279.0416" x2="286.6287" xlink:href="#u" y1="122.0538" y2="122.0538"/><linearGradient id="aY" gradientUnits="userSpaceOnUse" x1="290.5371" x2="275.8482" xlink:href="#z" y1="148.6639" y2="148.6639"/><linearGradient id="aZ" gradientTransform="matrix(.01084854 -.6034 .3404 .00611948 3187.0601 -500.2474)" gradientUnits="userSpaceOnUse" x1="-1250.7964" x2="-1240.7271" xlink:href="#B" y1="-8513.0938" y2="-8517.3457"/><linearGradient id="a0" gradientUnits="userSpaceOnUse" x1="285.8822" x2="281.7577" xlink:href="#z" y1="188.6886" y2="188.6886"/><linearGradient id="a1" gradientUnits="userSpaceOnUse" x1="279.1406" x2="281.5844" xlink:href="#a" y1="185.1465" y2="185.1465"/><linearGradient id="a2" gradientTransform="matrix(-1 0 0 1 8264.3682 0)" gradientUnits="userSpaceOnUse" x1="7976.0859" x2="7978.5298" xlink:href="#a" y1="185.1465" y2="185.1465"/><linearGradient id="a3" gradientUnits="userSpaceOnUse" x1="280.827" x2="281.7619" xlink:href="#G" y1="187.3819" y2="187.3819"/><linearGradient id="a4" gradientUnits="userSpaceOnUse" x1="285.8387" x2="286.7736" xlink:href="#G" y1="187.3819" y2="187.3819"/><clipPath id="a5"><path d="m280.9 115.1c1.6.4 6.5.2 7-1.8s1.6-9-4.7-9.1c-3.7-.1-4.4 2.6-4.8 4.7-.4 2.2-.4 5.4 2.5 6.2z"/></clipPath><linearGradient id="a6" gradientTransform="matrix(.9973 -.07369055 .07369055 .9973 2419.9209 -203.3707)" gradientUnits="userSpaceOnUse" x1="-2162.552" x2="-2147.7803" xlink:href="#K" y1="162.7193" y2="148.9648"/><linearGradient id="a7" gradientTransform="matrix(.9973 -.07369055 .07369055 .9973 2419.9209 -203.3707)" gradientUnits="userSpaceOnUse" x1="-2164.0359" x2="-2149.4343" xlink:href="#M" y1="155.8452" y2="155.8452"/><linearGradient id="a8" gradientUnits="userSpaceOnUse" x1="301.3829" x2="289.2702" xlink:href="#z" y1="146.6121" y2="146.6121"/><linearGradient id="a9" gradientUnits="userSpaceOnUse" x1="277.0448" x2="264.932" xlink:href="#z" y1="146.6121" y2="146.6121"/><linearGradient id="ba" gradientUnits="userSpaceOnUse" x1="283.188" x2="284.6508" xlink:href="#a" y1="164.1087" y2="164.1087"/><linearGradient id="bb" gradientUnits="userSpaceOnUse" x1="281.442" x2="286.1637" xlink:href="#n" y1="178.9712" y2="178.9712"/><linearGradient id="bc" gradientUnits="userSpaceOnUse" x1="278.1974" x2="289.9609" xlink:href="#z" y1="160.6184" y2="160.6184"/><linearGradient id="bd" gradientTransform="matrix(-1 0 0 1 8325.9424 0)" gradientUnits="userSpaceOnUse" x1="8018.0928" x2="8033.271" xlink:href="#S" y1="137.4518" y2="137.4518"/><linearGradient id="be" gradientTransform="matrix(-1 0 0 1 8325.9424 0)" gradientUnits="userSpaceOnUse" x1="8020.418" x2="8033.2979" xlink:href="#U" y1="139.023" y2="139.023"/><linearGradient id="bf" gradientTransform="matrix(.01084854 -.6034 .3404 .00611948 3187.0601 -500.2474)" gradientUnits="userSpaceOnUse" x1="-1238.2723" x2="-1228.203" xlink:href="#B" y1="-8464.707" y2="-8468.959"/><linearGradient id="bg" gradientUnits="userSpaceOnUse" x1="287.7402" x2="294.9314" xlink:href="#s" y1="189.4594" y2="189.4594"/><clipPath id="bh"><path d="m271.3 168.8c1.8 14.7-3.2 27 3.9 28.8 3.2.8 1.7-3.2 1.7-3.2s1.5-10.7 2.1-14.6c.8-6 1-15.9 1-16.9 0 0-1-.2-1.4-.7-.6-.7-.5-1.6.1-2.2.5-.4 2 .1 2.8-.1 2.7-.5 1.9-1.5 3.3-.8.4.2 1.2.9 1.7.9 1.5.2 3.4-.5 3.4.1 0 1.4-1.7 2.5-1.7 2.5 1.8 3.1 4.6 8.1 3.2 10.6-5.3 9.4-3.7 16.4-3.7 16.4s3.1 5.6 5.8-4.4c2.1-7.6 5.2-5.5 7.1-14.9.6-3-4.4-13.7-7.4-19.3-1.6-3-3.4 0-7.9 0-7.7 0-11.4-1.3-11.4-1.3s-3.1 15.1-2.6 19.1z"/></clipPath><linearGradient id="bi" gradientUnits="userSpaceOnUse" x1="251.3082" x2="313.9117" xlink:href="#Z" y1="181.6207" y2="181.6207"/><linearGradient id="bj" gradientUnits="userSpaceOnUse" x1="274.4668" x2="297.46" xlink:href="#ab" y1="180.3191" y2="180.3191"/><linearGradient id="bk" gradientTransform="matrix(.1963 -.9805 -.9805 -.1963 2292.3037 2590.1128)" gradientUnits="userSpaceOnUse" x1="1991.0024" x2="2020.6411" xlink:href="#S" y1="2466.8164" y2="2466.8164"/><linearGradient id="bl" gradientUnits="userSpaceOnUse" x1="266.9449" x2="300.3677" xlink:href="#n" y1="137.4435" y2="137.4435"/><linearGradient id="bm" gradientUnits="userSpaceOnUse" x1="259.3584" x2="269.4517" y1="140.2208" y2="140.2208"><stop offset="0" stop-color="#414141"/><stop offset="1" stop-color="#737373" stop-opacity="0"/></linearGradient><linearGradient id="bn" gradientUnits="userSpaceOnUse" x1="36.1663" x2="59.2435" xlink:href="#a" y1="44.3653" y2="44.3653"/><linearGradient id="bo" gradientUnits="userSpaceOnUse" x1="33.3949" x2="42.0112" xlink:href="#a" y1="115.7789" y2="115.7789"/><linearGradient id="bp" gradientTransform="matrix(-1 0 0 1 7470.2295 0)" gradientUnits="userSpaceOnUse" x1="7112.9009" x2="7135.9785" xlink:href="#a" y1="44.3653" y2="44.3653"/><linearGradient id="bq" gradientTransform="matrix(-1 0 0 1 7470.2295 0)" gradientUnits="userSpaceOnUse" x1="7110.1299" x2="7118.7461" xlink:href="#a" y1="115.7789" y2="115.7789"/><path id="br" d="m121.4 113.4c-.6-1.5 0-3.5-.9-4.8-.7-1-1.8-1.3-3-1.5-.9-.1-3.5.2-4 1.5-.2.6 0 2.2 0 3-.1 2.1-1.4 2.3-.7 4.6.2.8 1.3 1.3 1.9 1.7s-1.1 5.6-1.1 5.6 1.6 6.5 3.2 6.5 4.2-6 4.2-6-1.4-5.8-1-6c .8-.3 1.5-.9 1.8-1.7.4-.9.1-2-.4-2.9z"/><path id="bs" d="m200.2 113.4c-.6-1.5 0-3.5-.9-4.8-.7-1-1.8-1.3-3-1.5-.9-.1-3.5.2-4 1.5-.2.6 0 2.2 0 3-.1 2.1-1.4 2.3-.7 4.6.2.8 1.3 1.3 1.9 1.7s-1.1 5.6-1.1 5.6 1.6 6.5 3.2 6.5 4.2-6 4.2-6-1.4-5.8-1-6c .8-.3 1.5-.9 1.8-1.7.3-.9 0-2-.4-2.9z"/><path id="bt" d="m287.5 113.4c-.6-1.5 0-3.5-.9-4.8-.7-1-1.8-1.3-3-1.5-.9-.1-3.5.2-4 1.5-.2.6 0 2.2 0 3-.1 2.1-1.4 2.3-.7 4.6.2.8 1.3 1.3 1.9 1.7s-1.1 5.6-1.1 5.6 1.6 6.5 3.2 6.5 4.2-6 4.2-6-1.4-5.8-1-6c .8-.3 1.5-.9 1.8-1.7.4-.9.1-2-.4-2.9z"/></defs><path clip-path="url(#p)" d="m118.3 176.1c-.5 1.1-.7 2.3-.8 3.5-.2 4 .5 8.2 3.9 10.4.6.4 1.6 1.1 2.3 1.3 1 .3 2.5.8 2.4 1.5-.2 1.1-2.9 2.3-4.1 2.5-2.4.5-10.2-2.2-11.5-4.3s-1.9-4.4-1.6-6.9c.3-2.3 4.9-4.6 6.2-6.6.9-1.4 2.2-2.6 3.7-3.3.5-.2 2-.9 1 0-.6.6-1.1 1.1-1.5 1.9z" fill="url(#r)" opacity=".3"/><path clip-path="url(#p)" d="m103 200.7 27.2-3v-23.5l-27.2 3z" fill="url(#t)"/><use fill="url(#v)" xlink:href="#br"/><path clip-path="url(#w)" d="m112.5 106.8h10.4v24.5h-10.4z" fill="url(#x)"/><path clip-path="url(#w)" d="m114.8 117.9c1.8.7 3.6.2 5.7.2v3.2s-5 6-6.1 6.1c-.9.1-1.5-10.6-1.5-10.6s.5.6 1.9 1.1z" fill="url(#y)" opacity=".3"/><path d="m109.8 148.3c1.3 0 1.6-.3 1.7 1.1.1.6.3 1.3.8 1.7 1.5 1.3 3.1 1.3 5 1.3 1.6 0 3.4-.1 4.8-.8.5-.3 1-1 1.1-1.5.3-1.2-.6-1.8 1.2-1.8 2.1 0 2.1-3.3 0-3.3-1.5 0-2.7.2-3.8 1.3-1.5 1.6.7 2.5-2.2 2.7-.6.1-3.6.3-3.7-.7-.1-.7-.1-1.4-.5-2-.9-1.5-2.9-1.4-4.4-1.4-2.1.1-2.1 3.4 0 3.4z" fill="url(#A)"/><path d="m112.9 198.8v1.1c0 .2-.2.4-.4.4l-6.8-.1c-.2 0-.4-.2-.4-.4v-1.1c0-.2.2-.4.4-.4l6.8.1c.2.1.4.2.4.4z" fill="url(#C)"/><path d="m118.1 207.9h-.7c-1 0-1.7-.8-1.7-1.7v-34.9c0-1 .8-1.7 1.7-1.7h.7c1 0 1.7.8 1.7 1.7v34.9c0 .9-.8 1.7-1.7 1.7z" fill="url(#D)"/><path d="m114.7 180.7c0 1.7-1.6 3.4-1.7 5.1 0 1.4-.1 2.8.2 4.1.1.3.2.7.5.8s.7-.1.9-.4.2-.7.2-1c .1-1.3.1-2.6.2-3.9 0-.4-.1-1.5-.1-1.6-.1-.1.5-2.6.5-2.7 0-2.4-.6-1.5-.7-.4z" fill="url(#E)"/><path d="m120.5 180.7c0 1.7 1.6 3.4 1.7 5.1 0 1.4.1 2.8-.2 4.1-.1.3-.2.7-.5.8s-.7-.1-.9-.4-.2-.7-.2-1c-.1-1.3-.1-2.6-.2-3.9 0-.4.1-1.5.1-1.6.1-.1-.5-2.6-.5-2.7 0-2.4.7-1.5.7-.4z" fill="url(#F)"/><path d="m115.7 187.1c0 1.6-.1 2.5-.5 2.5-.5 0-.5-.8-.5-2.5s.2-2 .5-2 .5.4.5 2z" fill="url(#H)"/><path d="m120.7 187.1c0 1.6-.1 2.5-.5 2.5-.5 0-.5-.8-.5-2.5s.2-2 .5-2 .5.4.5 2z" fill="url(#I)"/><g clip-path="url(#J)"><path d="m109.1 118.2 14.2-.3-.4-14.4-14.8 1z" fill="url(#L)"/></g><path clip-path="url(#J)" d="m112.7 104.1s1.2 3 3 2.4c2.9-1 4.9 1 5.5 2.6.4 1.1.8 3.1.4 4.3-.5 1.2-1.3 2.2-2.4 2.8-1.3.7-7.2 1.9-7.2 1.9l-5-8.3z" fill="url(#N)" opacity=".75"/><path d="m134.1 148h-9.7c-.7 0-1.2-.5-1.2-1.2v-.5c0-.7.5-1.2 1.2-1.2h9.7c.7 0 1.2.5 1.2 1.2v.5c0 .7-.5 1.2-1.2 1.2z" fill="url(#O)"/><path d="m117.9 167.9h-.2c-.3 0-.6-.3-.6-.6v-6.3c0-.3.3-.6.6-.6h.2c.3 0 .6.3.6.6v6.3c.1.3-.2.6-.6.6z" fill="url(#P)"/><path d="m118.1 189h-.8c-1.1 0-2-.9-2-2v-16.1c0-1.1.9-2 2-2h .8c1.1 0 2 .9 2 2v16.1c0 1.1-.9 2-2 2z" fill="url(#Q)"/><path d="m119.2 158.6c-.9.1-1.8.1-2.7 0-.6-.1-1.1-.2-1.7-.1-1.3.1-2.3 1-2.6 2.1-.1.3-.1.6 0 .9.2.8 1.2 1.3 2.1 1.4s1.8-.2 2.7-.4 1.9-.4 2.7-.2c.6.1 1.1.4 1.7.5 1.1 0 2.2-1.3 2.4-2.3.1-.7-.1-1.5-.7-2-.9-.6-2.7 0-3.9.1z" fill="url(#R)"/><path d="m128.1 145.5c0-.2-.3-.4-.3-.6s0-.4.2-.5.4-.1.6 0c .1 0 .2.1.2.1.1 0 .1.1.1.2.1-.4.3-.9.6-1.2 1-1.1 2.9-1 3.4-.9 1 .1 1 .6 1.1 1.1.1.4.1.1.8 0 2-.2 1.7-2.8 1.7-2.8-.1-.5-3.2-5.6-3.8-7.1-.6-1.4.8-6.1 1.5-6.6 0 0 8.8 12.2 8.8 14.4 0 1.7-2.4 5.1-6.9 6-1.5.3-1 .1-1.9.2-.7 0-2.5-1.2-2.6-1.2-1.6 0-2.4-.3-2.9-.3 0 0-.1 0-.2 0-.2 0-.3-.1-.4-.3 0-.2 0-.4 0-.5z" fill="url(#T)"/><path d="m132.4 142.5c.3 0 .8.1 1.1.2s.5.8.5 1.1c.8-.3 1.5-.2 1.9-.8.6-.8.7-2 .4-2.6-.5-1-3.1-5.2-3.2-5.5s-.6-1.2-.6-1.5c-.1-1.3.1-1.8.3-3.1 1.2 1.2 2.5 2.4 3.4 3.9.4.6.7 1.3 1.1 1.9s1 1 1.3 1.6c.2.3.3.6.5 1 .9 2.4 2.4 5.1.8 7.2-1.8 1.1-3.5 2-6.1 1.8-1.7-.2-2.1-1.1-2.5-1.2-.8-.1-1.4-.1-2.2-.3-.2-.1-.8 0-.9-.2-.1-.1-.1-.3-.2-.4-.1-.5-.4-.5-.2-1 .1 0 .1-.3.2-.3 0 .1.6 0 .6.1.2.1.3.3.3.3.1-.8.8-1.6 1.5-1.8.6-.3 1.3-.4 2-.4z" fill="url(#V)" opacity=".3"/><path d="m129.5 191.6v1.1c0 .2-.2.4-.4.4l-6.8-.1c-.2 0-.4-.2-.4-.4v-1.1c0-.2.2-.4.4-.4l6.8.1c.2 0 .4.2.4.4z" fill="url(#W)"/><path d="m127.3 190.9c.4-.1.8-.3 1.1-.6s.5-.7.5-1.1c0-.5-.4-1-.9-1.2s-1-.2-1.5-.2c-.9.1-1.7.2-2.5.4-.7.2-1.4-1.2-1.9-.6-1.2 1.2 2 3.5 2.6 3.5.8.2 1.7.1 2.6-.2z" fill="url(#X)"/><path clip-path="url(#Y)" d="m85.3 212.3h62.5l-.1-61.3h-62.5z" fill="url(#aa)"/><path clip-path="url(#Y)" d="m110.8 170.5c0-1.2.7-10.7 1.7-11.3 6.1-3.8 11.9-1.7 17.3 9.2 3.2 6.5.5 1.2-2 7.9-1.4 3.6-2.4 8.2-4 11.7-1.5 3.5 2.3 5.8 4.2 9.2.5.8 1.1 1.6 1.5 2.5s.3 2.1-.4 2.7c-.6.6-1.5.6-2.3.7-3.2.2-6.4.4-9.5-.3s-6.1-2.3-7.7-5c-1.4-2.4-1.6-5.5-1-8.2s2.3-12.6 2.2-19.1z" fill="url(#ac)" opacity=".3"/><path d="m89.4 129.7c-4.6.7-6-.1-9.6-.1-1.7-.6-1.2-1-2.4-1.8-.7-.4-1.3-.8-2.1-1.1-.3-.1-1.7-.6-1.9-.4-.7.6 1 1 .8 1.1-.4.1.4.1-.2.1-1.6 0-3.2-1.5-4.6-.7-.7.8-.5 2.1 0 3 .6.9 1.5 1.6 2.4 2.2 1.1.8 2.6.9 3.9 1.1 4.2.8 1.9-1 9.9 0 .3 0 3 .9 5.5 1.4 2.9.5 3.4.5 6.4-.1 1.2-.2 3-.3 4-.9.2-.1.4-.3.5-.5.4-.5-.3-1.5-.3-2.1 0-1-.7-2.7-.7-3.7-3.1 0-11.2 2.4-11.6 2.5z" fill="url(#ad)"/><path d="m69.8 130.4c.3.4.7.7 1.1 1 .6.5 1.1.9 2 1.2.6.2 1.4.3 2.2.5 1.8.4 2.4.4 3.4.2 1.7-.3 2.2-.5 3.8-.4.8 0 3.1.2 3.5.3 1.3.3 4.2 1.1 4.7 1.3 1.3.3 2.6.6 3.9.5 1.2 0 2.3-.3 3.2-.4 1.7-.3 3.3-.2 5-1.3-.6-1.1-1.4-2.4-1.3-3.7-1.3.2-2.6.4-3.9.6-.6.1-1.3.2-1.9.3-5.9.8-10.5.2-16.5.4-.6 0-2.5 1.1-3.1 1.1-.8 0-1.5 0-2.3-.1-.7-.1-1.3-.4-1.9-.6-1.2-.5-2.2-1.4-1.9-.9z" fill="url(#ae)" opacity=".3"/><path d="m112.4 148h-9.7c-.7 0-1.2-.5-1.2-1.2v-.5c0-.7.5-1.2 1.2-1.2h9.7c.7 0 1.2.5 1.2 1.2v.5c0 .7-.6 1.2-1.2 1.2z" fill="url(#af)"/><path d="m101 127.4c4.8-4 11-5.6 17.2-5.2s11.6.6 16 5c0 0-.5 5.3-1.5 6s-6.1.2-6.1.2 1.3 15.6.6 17.9c-.6 2.4-14.5 1.4-19.5-.4 0 0 .3-13.4.3-18.3 0 0-5.7 2.1-6.5.8-1-1.7-.2-6.4-.5-6z" fill="url(#ag)"/><path d="m194 189.6.9.4-3.3 10.1c-.1.2-.3.3-.5.2l-.2-.1c-.2-.1-.3-.3-.2-.5z" fill="url(#ah)"/><path d="m195.9 166.4c-1 0-1.8.8-1.8 1.8-.2 5.6-.7 21.9-.1 23.4.5 1.4 3 1.4 4.2.9.2-.1 1-.9 1-1.5.1-4.1-.1-17.7-.2-22.8 0-1-.8-1.8-1.8-1.8z" fill="url(#ai)"/><path clip-path="url(#aj)" d="m197 176.1c-.5 1.1-.7 2.3-.8 3.5-.2 4 .5 8.2 3.9 10.4.6.4 1.6 1.1 2.3 1.3 1 .3 2.5.8 2.4 1.5-.2 1.1-2.9 2.3-4.1 2.5-2.4.5-10.2-2.2-11.5-4.3s-1.9-4.4-1.6-6.9c.3-2.3 4.9-4.6 6.2-6.6.9-1.4 2.2-2.6 3.7-3.3.5-.2 2-.9 1 0-.5.6-1.1 1.1-1.5 1.9z" fill="url(#ak)" opacity=".3"/><path clip-path="url(#aj)" d="m181.7 200.7 27.2-3v-23.5l-27.2 3z" fill="url(#al)"/><use fill="url(#am)" xlink:href="#bs"/><path clip-path="url(#an)" d="m191.2 106.8h10.4v24.5h-10.4z" fill="url(#ao)"/><path clip-path="url(#an)" d="m193.5 117.9c1.8.7 3.6.2 5.7.2v3.2s-5 6-6.1 6.1c-.9.1-1.5-10.6-1.5-10.6s.5.6 1.9 1.1z" fill="url(#ap)" opacity=".3"/><path d="m188.5 148.3c1.3 0 1.6-.3 1.7 1.1.1.6.3 1.3.8 1.7 1.5 1.3 3.1 1.3 5 1.3 1.6 0 3.4-.1 4.8-.8.5-.3 1-1 1.1-1.5.3-1.2-.6-1.8 1.2-1.8 2.1 0 2.1-3.3 0-3.3-1.5 0-2.7.2-3.8 1.3-1.5 1.6.7 2.5-2.2 2.7-.6.1-3.6.3-3.7-.7-.1-.7-.1-1.4-.5-2-.9-1.5-2.9-1.4-4.4-1.4-2.1.1-2.1 3.4 0 3.4z" fill="url(#aq)"/><path d="m191.6 198.8v1.1c0 .2-.2.4-.4.4l-6.8-.1c-.2 0-.4-.2-.4-.4v-1.1c0-.2.2-.4.4-.4l6.8.1c.3.1.4.2.4.4z" fill="url(#ar)"/><path d="m196.8 207.9h-.7c-1 0-1.7-.8-1.7-1.7v-34.9c0-1 .8-1.7 1.7-1.7h.7c1 0 1.7.8 1.7 1.7v34.9c0 .9-.8 1.7-1.7 1.7z" fill="url(#as)"/><path d="m193.5 180.7c0 1.7-1.6 3.4-1.7 5.1 0 1.4-.1 2.8.2 4.1.1.3.2.7.5.8s.7-.1.9-.4.2-.7.2-1c .1-1.3.1-2.6.2-3.9 0-.4-.1-1.5-.1-1.6-.1-.1.5-2.6.5-2.7-.1-2.4-.7-1.5-.7-.4z" fill="url(#at)"/><path d="m199.2 180.7c0 1.7 1.6 3.4 1.7 5.1 0 1.4.1 2.8-.2 4.1-.1.3-.2.7-.5.8s-.7-.1-.9-.4-.2-.7-.2-1c-.1-1.3-.1-2.6-.2-3.9 0-.4.1-1.5.1-1.6.1-.1-.5-2.6-.5-2.7 0-2.4.7-1.5.7-.4z" fill="url(#au)"/><path d="m194.4 187.1c0 1.6-.1 2.5-.5 2.5-.5 0-.5-.8-.5-2.5s.2-2 .5-2 .5.4.5 2z" fill="url(#av)"/><path d="m199.4 187.1c0 1.6-.1 2.5-.5 2.5-.5 0-.5-.8-.5-2.5s.2-2 .5-2c .3.1.5.4.5 2z" fill="url(#aw)"/><g clip-path="url(#ax)"><path d="m187.8 118.2 14.2-.3-.4-14.4-14.8 1z" fill="url(#ay)"/></g><path clip-path="url(#ax)" d="m191.4 104.1s1.2 3 3 2.4c2.9-1 4.9 1 5.5 2.6.4 1.1.8 3.1.4 4.3-.5 1.2-1.3 2.2-2.4 2.8-1.3.7-7.2 1.9-7.2 1.9l-5-8.3z" fill="url(#az)" opacity=".75"/><path d="m212.8 148h-9.7c-.7 0-1.2-.5-1.2-1.2v-.5c0-.7.5-1.2 1.2-1.2h9.7c.7 0 1.2.5 1.2 1.2v.5c0 .7-.5 1.2-1.2 1.2z" fill="url(#aA)"/><path d="m188.5 148h-9.7c-.7 0-1.2-.5-1.2-1.2v-.5c0-.7.5-1.2 1.2-1.2h9.7c.7 0 1.2.5 1.2 1.2v.5c0 .7-.6 1.2-1.2 1.2z" fill="url(#aB)"/><path d="m196.7 167.9h-.2c-.3 0-.6-.3-.6-.6v-6.3c0-.3.3-.6.6-.6h.2c.3 0 .6.3.6.6v6.3c0 .3-.3.6-.6.6z" fill="url(#aC)"/><path d="m196.8 189h-.8c-1.1 0-2-.9-2-2v-16.1c0-1.1.9-2 2-2h .8c1.1 0 2 .9 2 2v16.1c0 1.1-.9 2-2 2z" fill="url(#aD)"/><path d="m197.9 158.6c-.9.1-1.8.1-2.7 0-.6-.1-1.1-.2-1.7-.1-1.3.1-2.3 1-2.6 2.1-.1.3-.1.6 0 .9.2.8 1.2 1.3 2.1 1.4s1.8-.2 2.7-.4 1.9-.4 2.7-.2c.6.1 1.1.4 1.7.5 1.1 0 2.2-1.3 2.4-2.3.1-.7-.1-1.5-.7-2-.9-.6-2.6 0-3.9.1z" fill="url(#aE)"/><path d="m206.8 145.5c0-.2-.3-.4-.3-.6s0-.4.2-.5.4-.1.6 0c .1 0 .2.1.2.1.1 0 .1.1.1.2.1-.4.3-.9.6-1.2 1-1.1 2.9-1 3.4-.9 1 .1 1 .6 1.1 1.1.1.4.1.1.8 0 2-.2 1.7-2.8 1.7-2.8-.1-.5-3.2-5.6-3.8-7.1-.6-1.4.8-6.1 1.5-6.6 0 0 8.8 12.2 8.8 14.4 0 1.7-2.4 5.1-6.9 6-1.5.3-1 .1-1.9.2-.7 0-2.5-1.2-2.6-1.2-1.6 0-2.4-.3-2.9-.3 0 0-.1 0-.2 0-.2 0-.3-.1-.4-.3 0-.2 0-.4 0-.5z" fill="url(#aF)"/><path d="m211.1 142.5c.3 0 .8.1 1.1.2s.5.8.5 1.1c.8-.3 1.5-.2 1.9-.8.6-.8.7-2 .4-2.6-.5-1-3.1-5.2-3.2-5.5s-.6-1.2-.6-1.5c-.1-1.3.1-1.8.3-3.1 1.2 1.2 2.5 2.4 3.4 3.9.4.6.7 1.3 1.1 1.9s1 1 1.3 1.6c.2.3.3.6.5 1 .9 2.4 2.4 5.1.8 7.2-1.8 1.1-3.5 2-6.1 1.8-1.7-.2-2.1-1.1-2.5-1.2-.8-.1-1.4-.1-2.2-.3-.2-.1-.8 0-.9-.2-.1-.1-.1-.3-.2-.4-.1-.5-.4-.5-.2-1 .1 0 .1-.3.2-.3 0 .1.6 0 .6.1.2.1.3.3.3.3.1-.8.8-1.6 1.5-1.8.6-.3 1.3-.4 2-.4z" fill="url(#aG)" opacity=".3"/><path d="m208.2 191.6v1.1c0 .2-.2.4-.4.4l-6.8-.1c-.2 0-.4-.2-.4-.4v-1.1c0-.2.2-.4.4-.4l6.8.1c.3 0 .4.2.4.4z" fill="url(#aH)"/><path d="m206 190.9c.4-.1.8-.3 1.1-.6s.5-.7.5-1.1c0-.5-.4-1-.9-1.2s-1-.2-1.5-.2c-.9.1-1.7.2-2.5.4-.7.2-1.4-1.2-1.9-.6-1.2 1.2 2 3.5 2.6 3.5.8.2 1.7.1 2.6-.2z" fill="url(#aI)"/><path clip-path="url(#aJ)" d="m164 212.3h62.5v-61.3h-62.6z" fill="url(#aK)"/><path clip-path="url(#aJ)" d="m189.6 170.5c0-1.2.7-10.7 1.7-11.3 6.1-3.8 11.9-1.7 17.3 9.2 3.2 6.5.5 1.2-2 7.9-1.4 3.6-2.4 8.2-4 11.7-1.5 3.5 2.3 5.8 4.2 9.2.5.8 1.1 1.6 1.5 2.5s.3 2.1-.4 2.7c-.6.6-1.5.6-2.3.7-3.2.2-6.4.4-9.5-.3s-6.1-2.3-7.7-5c-1.4-2.4-1.6-5.5-1-8.2.6-2.9 2.2-12.6 2.2-19.1z" fill="url(#aL)" opacity=".3"/><path d="m179.7 110.6c3.1-3.5 4.6-3.8 7.4-6.2 1.7-.7 1.6 0 3-.2.8-.1 1.5-.3 2.3-.5.3-.1 1.7-.7 1.7-.9.1-.9-1.4-.1-1.3-.3.2-.4-.3.2.1-.1 1.2-1 3.5-.9 3.9-2.4 0-1.1-1-2-2-2.3s-2.1-.2-3.2-.1c-1.3.1-2.5 1-3.7 1.6-3.7 2.1-.8 2-7.5 6.4-.2.2-6.3 4.1-8.2 6.4-.8.9-.3 3.9-.1 5 .1.2 1 3.2 1.4 3.7.6.8 6.3 7.6 7 8.4 1.4-1.1 2.5-2 1.8-6.7-.3-1.9-2.6-3.5-3.2-6s .5-5.8.6-5.8z" fill="url(#aM)"/><path d="m194.1 97.4c-.5-.1-1-.1-1.5-.1-.8 0-1.4 0-2.2.4-.6.2-1.3.7-2 1.1-1.6.8-2.1 1.2-2.7 2-1.1 1.3-1.4 1.8-2.6 2.7-.6.5-2.5 1.9-2.8 2-1.7.7-5.1 3.4-7 5.2-.7.7-1.5.9-1.6 2.7s.3 3.9 1.8 7.1c2.7 3.5 6.8 8.3 7.8 9.2.4-.5 1-2.4-.7-5.4-1.6-2.9-5.6-7-5.6-7.6-.1-1-.2-3.8.6-5.2 3.1-5.1 7-4.5 11.4-8.6.4-.4 1.2-2.5 1.6-2.9.6-.5 1.2-1 1.8-1.4.6-.3 1.2-.6 1.8-.8 1.2-.3 2.5-.3 1.9-.4z" fill="url(#aN)" opacity=".3"/><path d="m181.7 121.5c.8-.7 3.4 3.3 4.3 2.8 4.3-2.6 5.7-2.3 10.9-2 6.2.3 11.6.6 16 5 0 0-.5 5.3-1.5 6s-6.1.2-6.1.2 1.3 15.6.6 17.9c-.6 2.4-14.5 1.4-19.5-.4 0 0 .3-13.4.3-18.3 0 0-1.7.5-3.9-.4-.6-.3-4.9-5.7-5.1-6.1-1-1.7 4.3-5.2 4-4.7z" fill="url(#aO)"/><path d="m281.4 189.6.9.4-3.3 10.1c-.1.2-.3.3-.5.2l-.2-.1c-.2-.1-.3-.3-.2-.5z" fill="url(#aP)"/><path d="m283.3 166.4c-1 0-1.8.8-1.8 1.8-.2 5.6-.7 21.9-.1 23.4.5 1.4 3 1.4 4.2.9.2-.1 1-.9 1-1.5.1-4.1-.1-17.7-.2-22.8 0-1-.8-1.8-1.8-1.8z" fill="url(#aQ)"/><path clip-path="url(#aR)" d="m284.3 176.1c-.5 1.1-.7 2.3-.8 3.5-.2 4 .5 8.2 3.9 10.4.6.4 1.6 1.1 2.3 1.3 1 .3 2.5.8 2.4 1.5-.2 1.1-2.9 2.3-4.1 2.5-2.4.5-10.2-2.2-11.5-4.3s-1.9-4.4-1.6-6.9c.3-2.3 4.9-4.6 6.2-6.6.9-1.4 2.2-2.6 3.7-3.3.5-.2 2-.9 1 0-.5.6-1 1.1-1.5 1.9z" fill="url(#aS)" opacity=".3"/><path clip-path="url(#aR)" d="m269.1 200.7 27.1-3v-23.5l-27.1 3z" fill="url(#aT)"/><use fill="url(#aU)" xlink:href="#bt"/><path clip-path="url(#aV)" d="m278.6 106.8h10.4v24.5h-10.4z" fill="url(#aW)"/><path clip-path="url(#aV)" d="m280.9 117.9c1.8.7 3.6.2 5.7.2v3.2s-5 6-6.1 6.1c-.9.1-1.5-10.6-1.5-10.6s.5.6 1.9 1.1z" fill="url(#aX)" opacity=".3"/><path d="m275.9 148.3c1.3 0 1.6-.3 1.7 1.1.1.6.3 1.3.8 1.7 1.5 1.3 3.1 1.3 5 1.3 1.6 0 3.4-.1 4.8-.8.5-.3 1-1 1.1-1.5.3-1.2-.6-1.8 1.2-1.8 2.1 0 2.1-3.3 0-3.3-1.5 0-2.7.2-3.8 1.3-1.5 1.6.7 2.5-2.2 2.7-.6.1-3.6.3-3.7-.7-.1-.7-.1-1.4-.5-2-.9-1.5-2.9-1.4-4.4-1.4-2.2.1-2.2 3.4 0 3.4z" fill="url(#aY)"/><path d="m279 198.8v1.1c0 .2-.2.4-.4.4l-6.8-.1c-.2 0-.4-.2-.4-.4v-1.1c0-.2.2-.4.4-.4l6.8.1c.2.1.4.2.4.4z" fill="url(#aZ)"/><path d="m284.1 207.9h-.7c-1 0-1.7-.8-1.7-1.7v-34.9c0-1 .8-1.7 1.7-1.7h.7c1 0 1.7.8 1.7 1.7v34.9c.1.9-.7 1.7-1.7 1.7z" fill="url(#a0)"/><path d="m280.8 180.7c0 1.7-1.6 3.4-1.7 5.1 0 1.4-.1 2.8.2 4.1.1.3.2.7.5.8s.7-.1.9-.4.2-.7.2-1c .1-1.3.1-2.6.2-3.9 0-.4-.1-1.5-.1-1.6-.1-.1.5-2.6.5-2.7 0-2.4-.6-1.5-.7-.4z" fill="url(#a1)"/><path d="m286.6 180.7c0 1.7 1.6 3.4 1.7 5.1 0 1.4.1 2.8-.2 4.1-.1.3-.2.7-.5.8s-.7-.1-.9-.4-.2-.7-.2-1c-.1-1.3-.1-2.6-.2-3.9 0-.4.1-1.5.1-1.6.1-.1-.5-2.6-.5-2.7 0-2.4.7-1.5.7-.4z" fill="url(#a2)"/><path d="m281.8 187.1c0 1.6-.1 2.5-.5 2.5-.5 0-.5-.8-.5-2.5s.2-2 .5-2 .5.4.5 2z" fill="url(#a3)"/><path d="m286.8 187.1c0 1.6-.1 2.5-.5 2.5-.5 0-.5-.8-.5-2.5s.2-2 .5-2c .3.1.5.4.5 2z" fill="url(#a4)"/><g clip-path="url(#a5)"><path d="m275.2 118.2 14.2-.3-.4-14.4-14.8 1z" fill="url(#a6)"/></g><path clip-path="url(#a5)" d="m278.8 104.1s1.2 3 3 2.4c2.9-1 4.9 1 5.5 2.6.4 1.1.8 3.1.4 4.3-.5 1.2-1.3 2.2-2.4 2.8-1.3.7-7.2 1.9-7.2 1.9l-5-8.3z" fill="url(#a7)" opacity=".75"/><path d="m300.2 148h-9.7c-.7 0-1.2-.5-1.2-1.2v-.5c0-.7.5-1.2 1.2-1.2h9.7c.7 0 1.2.5 1.2 1.2v.5c0 .7-.6 1.2-1.2 1.2z" fill="url(#a8)"/><path d="m275.8 148h-9.7c-.7 0-1.2-.5-1.2-1.2v-.5c0-.7.5-1.2 1.2-1.2h9.7c.7 0 1.2.5 1.2 1.2v.5c0 .7-.5 1.2-1.2 1.2z" fill="url(#a9)"/><path d="m284 167.9h-.2c-.3 0-.6-.3-.6-.6v-6.3c0-.3.3-.6.6-.6h.2c.3 0 .6.3.6.6v6.3c.1.3-.2.6-.6.6z" fill="url(#ba)"/><path d="m284.2 189h-.8c-1.1 0-2-.9-2-2v-16.1c0-1.1.9-2 2-2h .8c1.1 0 2 .9 2 2v16.1c0 1.1-.9 2-2 2z" fill="url(#bb)"/><path d="m285.3 158.6c-.9.1-1.8.1-2.7 0-.6-.1-1.1-.2-1.7-.1-1.3.1-2.3 1-2.6 2.1-.1.3-.1.6 0 .9.2.8 1.2 1.3 2.1 1.4s1.8-.2 2.7-.4 1.9-.4 2.7-.2c.6.1 1.1.4 1.7.5 1.1 0 2.2-1.3 2.4-2.3.1-.7-.1-1.5-.7-2-.9-.6-2.7 0-3.9.1z" fill="url(#bc)"/><path d="m293 145.5c0-.2-.3-.4-.3-.6s0-.4.2-.5.4-.1.6 0c .1 0 .2.1.2.1.1 0 .1.1.1.2.1-.4.3-.9.6-1.2 1-1.1 2.9-1 3.4-.9 1 .1 1 .6 1.1 1.1.1.4.1.1.8 0 2-.2 1.7-2.8 1.7-2.8-.1-.5-3.2-5.6-3.8-7.1-.6-1.4.8-6.1 1.5-6.6 0 0 8.8 12.2 8.8 14.4 0 1.7-2.4 5.1-6.9 6-1.5.3-1 .1-1.9.2-.7 0-2.5-1.2-2.6-1.2-1.6 0-2.4-.3-2.9-.3 0 0-.1 0-.2 0-.2 0-.3-.1-.4-.3 0-.2 0-.4 0-.5z" fill="url(#bd)"/><path d="m297.3 142.5c.3 0 .8.1 1.1.2s.5.8.5 1.1c.8-.3 1.5-.2 1.9-.8.6-.8.7-2 .4-2.6-.5-1-3.1-5.2-3.2-5.5s-.6-1.2-.6-1.5c-.1-1.3.1-1.8.3-3.1 1.2 1.2 2.5 2.4 3.4 3.9.4.6.7 1.3 1.1 1.9s1 1 1.3 1.6c.2.3.3.6.5 1 .9 2.4 2.4 5.1.8 7.2-1.8 1.1-3.5 2-6.1 1.8-1.7-.2-2.1-1.1-2.5-1.2-.8-.1-1.4-.1-2.2-.3-.2-.1-.8 0-.9-.2-.1-.1-.1-.3-.2-.4-.1-.5-.4-.5-.2-1 .1 0 .1-.3.2-.3 0 .1.6 0 .6.1.2.1.3.3.3.3.1-.8.8-1.6 1.5-1.8.6-.3 1.3-.4 2-.4z" fill="url(#be)" opacity=".3"/><path d="m295.6 191.6v1.1c0 .2-.2.4-.4.4l-6.8-.1c-.2 0-.4-.2-.4-.4v-1.1c0-.2.2-.4.4-.4l6.8.1c.2 0 .4.2.4.4z" fill="url(#bf)"/><path d="m293.3 190.9c.4-.1.8-.3 1.1-.6s.5-.7.5-1.1c0-.5-.4-1-.9-1.2s-1-.2-1.5-.2c-.9.1-1.7.2-2.5.4-.7.2-1.4-1.2-1.9-.6-1.2 1.2 2 3.5 2.6 3.5.9.2 1.8.1 2.6-.2z" fill="url(#bg)"/><path clip-path="url(#bh)" d="m251.4 212.3h62.5l-.1-61.3h-62.5z" fill="url(#bi)"/><path clip-path="url(#bh)" d="m276.9 170.5c0-1.2.7-10.7 1.7-11.3 6.1-3.8 11.9-1.7 17.3 9.2 3.2 6.5.5 1.2-2 7.9-1.4 3.6-2.4 8.2-4 11.7-1.5 3.5 2.3 5.8 4.2 9.2.5.8 1.1 1.6 1.5 2.5s.3 2.1-.4 2.7c-.6.6-1.5.6-2.3.7-3.2.2-6.4.4-9.5-.3s-6.1-2.3-7.7-5c-1.4-2.4-1.6-5.5-1-8.2.7-2.9 2.3-12.6 2.2-19.1z" fill="url(#bj)" opacity=".3"/><path d="m263.2 135.9c-1.6 4.4-1 4.6-1.8 8.2.2 1.8.8 1.4 1.3 2.7.3.7.5 1.5.6 2.2 0 .3.1 1.5 0 1.9-.2.9-.8.3-1-.2-.1-.5.2-.9.1-.8-.2.4 0-.4-.1.1-.3 1.5.3 1.2-.8 2.3-1 .5-2.2.1-3-.6s-.9-1.1-1.3-2.1c-.4-.8.3-2.4 1-5.9.1-.8-.2-2.3-.1-3.2.1-1.1.3-2.8.4-4.2 0-.3-.3-4.6 2.1-9.1.6-1.1 3.2-2.2 4.3-2.5.2-.1 3.3-.6 3.9-.5 1 .2 9.7 1.8 10.7 2-.2 1.7-5 5.8-5 5.8s-9.2-.2-10 .5-1.3 3.3-1.3 3.4z" fill="url(#bk)"/><path d="m267 125.6c-.4-2.6 11.2-3.7 17.4-3.4s11.6 1.6 15.9 6c0 0-.6 6.1-1.6 6.8s-5.7-2.7-5.7-2.7 1 16.7.4 19c-.6 2.4-14.5 1.4-19.5-.4 0 0 .4-12.8.3-17.8 0 0-6-.3-6.8-1.6-.9-1.6-.1-6.4-.4-5.9z" fill="url(#bl)"/><path d="m262.2 150.6c.2 1 .6 1 .8 1 .6-.6.2-3.3-.3-4.5-.5-1.3-1.2-1.5-1.3-2.4-.1-.5.3-2.8.8-5.4.3-1.5 1.7-5.6 2.1-6.3.4-.8 3.6-.7 5.2-.8.1-1.1-.5-2.3-1.2-3.2-2.2-.5-4.6.8-5.9 2.6-1.4 1.8-1.9 4.1-2.3 6.4-.4 2.5-.6 5-.6 7.5 0 .5 0 1 .3 1.5.2.3.5.5.8.7 1 .8 1.8 1.5 1.6 2.9z" fill="url(#bm)" opacity=".3"/><path d="m238.9 200.8h3.6v11.4h-3.6z" fill="#fff"/><path d="m279.6 73.8h-3.3l-.6 2h-1.9l3.2-9.3h1.9l3.2 9.3h-1.9zm-2.8-1.5h2.3l-1.2-3.7z" fill="#fff"/><path d="m284.8 75.8h-1.9v-10h1.9z" fill="#fff"/><path d="m288.5 67.1v1.7h1.2v1.3h-1.2v3.5c0 .3.1.5.2.6s.3.2.4.2h.3c.1 0 .2 0 .2-.1l.2 1.3c-.2.1-.4.1-.5.1-.2 0-.4 0-.6 0-.6 0-1.1-.2-1.5-.5-.3-.4-.5-.9-.5-1.7v-3.5h-1v-1.3h1v-1.7h1.8z" fill="#fff"/><path d="m290.6 72.2c0-1 .3-1.9.9-2.5.6-.7 1.4-1 2.4-1s1.8.3 2.4 1 .9 1.5.9 2.5v.1c0 1-.3 1.9-.9 2.5-.6.7-1.4 1-2.4 1s-1.8-.3-2.4-1-.9-1.5-.9-2.5zm1.9.2c0 .6.1 1.1.3 1.5s.6.6 1.1.6.8-.2 1.1-.6c.2-.4.3-.9.3-1.5v-.1c0-.6-.1-1.1-.3-1.5s-.6-.6-1.1-.6-.8.2-1.1.6c-.2.4-.3.9-.3 1.5z" fill="#fff"/><path d="m277.9 53.9-10.9-10.9v-15.5l10.9-10.9h15.5l10.9 10.9v15.5l-10.9 10.9z" fill="#e8391c"/><g fill="#fff"><path d="m293.2 53.4h-15l-10.6-10.6v-15l10.6-10.6h15l10.6 10.6v15zm-14.7-.8h14.4l10.1-10.2v-14.3l-10.2-10.2h-14.4l-10.2 10.2v14.4z"/><path d="m278.5 41h-1.9l-.8-2.3h-3.5l-.7 2.3h-1.9l3.4-10.3h1.9zm-3.2-4.1-1.2-3.8-1.2 3.8z"/><path d="m279.5 41v-10.2h1.8v8.5h4.4v1.7z"/><path d="m288.1 41v-8.6h-2.6v-1.7h7v1.7h-2.6v8.6z"/><path d="m293 35.9c0-1.1.1-1.9.4-2.6.2-.5.5-1 .8-1.4s.7-.7 1.1-.9c.5-.3 1.2-.4 1.9-.4 1.3 0 2.3.5 3.1 1.4s1.2 2.3 1.2 3.9c0 1.7-.4 3-1.2 3.9s-1.8 1.4-3.1 1.4-2.4-.5-3.1-1.4-1.1-2.2-1.1-3.9zm1.9 0c0 1.2.2 2.1.7 2.7s1 .9 1.8.9 1.3-.3 1.7-.9c.5-.6.7-1.5.7-2.7s-.2-2.1-.7-2.6c-.4-.6-1-.9-1.8-.9-.7 0-1.3.3-1.8.9s-.6 1.4-.6 2.6z"/><path d="m80.8 60.6.1.5.1-.5 2-6.9h2l-3.2 9.3h-1.8l-3.2-9.3h2z"/><path d="m89.8 62.1c-.2.4-.5.6-.8.8s-.7.3-1.1.3c-.7 0-1.3-.2-1.7-.7s-.6-1.2-.6-2.2v-4.2h1.9v4.2c0 .5.1.9.3 1.1s.4.3.8.3c.3 0 .6 0 .8-.1s.4-.2.5-.4v-5h1.9v6.9h-1.8z"/><path d="m96.1 63.2c-1 0-1.8-.3-2.4-1-.6-.6-.9-1.5-.9-2.4v-.3c0-1 .3-1.9.8-2.5.6-.7 1.3-1 2.3-1 .9 0 1.7.3 2.2.8s.8 1.3.8 2.3v1h-4.1c0 .5.2.8.5 1.1s.6.4 1.1.4c.4 0 .8 0 1-.1s.6-.2.9-.4l.5 1.2c-.3.2-.7.4-1.1.6-.6.3-1.1.3-1.6.3zm-.2-5.7c-.3 0-.6.1-.8.4s-.3.6-.4 1h2.3v-.2c0-.4-.1-.7-.3-.9-.1-.2-.4-.3-.8-.3z"/><path d="m101.9 63.1h-1.9v-10h1.9z"/><path d="m105.7 54.5v1.7h1.2v1.3h-1.2v3.5c0 .3.1.5.2.6s.3.2.4.2h.3c.1 0 .2 0 .2-.1l.2 1.3c-.2.1-.4.1-.5.1-.2 0-.4 0-.6 0-.6 0-1.1-.2-1.5-.5-.3-.4-.5-.9-.5-1.7v-3.5h-1v-1.3h1v-1.7h1.8z"/><path d="m112.1 63.1c-.1-.2-.1-.3-.2-.5 0-.2-.1-.4-.1-.5-.2.3-.4.6-.8.8-.3.2-.7.3-1.1.3-.7 0-1.3-.2-1.7-.6s-.6-.9-.6-1.5c0-.7.3-1.2.8-1.6s1.3-.6 2.3-.6h1v-.5c0-.3-.1-.6-.3-.8s-.4-.3-.8-.3c-.3 0-.5.1-.7.2s-.2.4-.2.6h-1.8c0-.6.2-1.1.8-1.5s1.2-.6 2.1-.6c.8 0 1.5.2 2 .6s.8 1 .8 1.8v2.9c0 .3 0 .6.1.9 0 .3.1.6.2.9zm-1.7-1.2c.3 0 .6-.1.9-.2.3-.2.4-.3.5-.6v-1h-1c-.4 0-.7.1-.9.3s-.3.4-.3.7c0 .2.1.4.2.6.1.1.3.2.6.2z"/><path d="m122.4 63.1c-.1-.2-.1-.3-.2-.5 0-.2-.1-.4-.1-.5-.2.3-.4.6-.8.8-.3.2-.7.3-1.1.3-.7 0-1.3-.2-1.7-.6s-.6-.9-.6-1.5c0-.7.3-1.2.8-1.6s1.3-.6 2.3-.6h1v-.5c0-.3-.1-.6-.3-.8s-.4-.3-.8-.3c-.3 0-.5.1-.7.2s-.2.4-.2.6h-1.8c0-.6.2-1.1.8-1.5s1.2-.6 2.1-.6c.8 0 1.5.2 2 .6s.8 1 .8 1.8v2.9c0 .3 0 .6.1.9 0 .3.1.6.2.9zm-1.7-1.2c.3 0 .6-.1.9-.2.3-.2.4-.3.5-.6v-1h-1c-.4 0-.7.1-.9.3s-.3.4-.3.7c0 .2.1.4.2.6s.3.2.6.2z"/><path d="m130.6 63.1h-1.9v-10h1.9z"/><path d="m136.2 63.1c-.1-.2-.1-.3-.2-.5 0-.2-.1-.4-.1-.5-.2.3-.4.6-.8.8-.3.2-.7.3-1.1.3-.7 0-1.3-.2-1.7-.6s-.6-.9-.6-1.5c0-.7.3-1.2.8-1.6s1.3-.6 2.3-.6h1v-.5c0-.3-.1-.6-.3-.8s-.4-.3-.8-.3c-.3 0-.5.1-.7.2s-.2.4-.2.6h-1.8c0-.6.2-1.1.8-1.5s1.2-.6 2.1-.6c.8 0 1.5.2 2 .6s.8 1 .8 1.8v2.9c0 .3 0 .6.1.9 0 .3.1.6.2.9zm-1.7-1.2c.3 0 .6-.1.9-.2.3-.2.4-.3.5-.6v-1h-1c-.4 0-.7.1-.9.3s-.3.4-.3.7c0 .2.1.4.2.6s.3.2.6.2z"/><path d="m83.1 70.2h-1.9v-1.4h1.9zm0 8.6h-1.9v-6.9h1.9z"/><path d="m86.8 77.4h3.4v1.4h-5.8v-1.1l3.3-4.4h-3.2v-1.4h5.5v1.1z"/><path d="m91 75.4c0-1.1.2-2 .7-2.6.5-.7 1.1-1 2-1 .4 0 .7.1 1 .3s.5.4.7.7l.2-.9h1.6v9.6h-1.9v-3.3c-.2.3-.4.4-.7.6s-.6.2-1 .2c-.8 0-1.5-.3-2-.9s-.7-1.4-.7-2.5v-.2zm1.8.2c0 .6.1 1.1.3 1.4.2.4.5.5 1 .5.3 0 .5-.1.7-.2s.4-.3.5-.4v-3.1c-.1-.2-.3-.4-.5-.5s-.4-.2-.7-.2c-.5 0-.8.2-1 .6s-.3.9-.3 1.6z"/><path d="m102.9 77.8c-.2.4-.5.6-.8.8s-.7.3-1.1.3c-.7 0-1.3-.2-1.7-.7s-.6-1.2-.6-2.2v-4.2h1.9v4.2c0 .5.1.9.3 1.1s.4.3.8.3c.3 0 .6 0 .8-.1s.4-.2.5-.4v-5h1.9v6.9h-1.9z"/><path d="m108 70.2h-1.9v-1.4h1.9zm0 8.6h-1.9v-6.9h1.9z"/><path d="m112.6 79c-1 0-1.8-.3-2.4-1-.6-.6-.9-1.5-.9-2.4v-.3c0-1 .3-1.9.8-2.5.6-.7 1.3-1 2.3-1 .9 0 1.7.3 2.2.8s.8 1.3.8 2.3v1h-4.1c0 .5.2.8.5 1.1s.6.4 1.1.4c.4 0 .8 0 1-.1.3-.1.6-.2.9-.4l.5 1.2c-.3.2-.7.4-1.1.6-.5.2-1 .3-1.6.3zm-.2-5.8c-.3 0-.6.1-.8.4s-.3.6-.4 1h2.3v-.2c0-.4-.1-.7-.3-.9-.1-.2-.4-.3-.8-.3z"/><path d="m120.1 73.5h-.7c-.3 0-.5.1-.7.2s-.3.3-.4.5v4.7h-1.9v-6.9h1.7l.1 1c .2-.4.4-.6.6-.8.3-.2.6-.3.9-.3h.3s.2 0 .2.1z"/><path d="m120.8 75.4c0-1.1.2-2 .7-2.6.5-.7 1.1-1 2-1 .3 0 .7.1.9.2.3.1.5.4.7.6v-3.8h1.9v10h-1.6l-.2-.8c-.2.3-.5.6-.8.7-.3.2-.6.2-1 .2-.8 0-1.5-.3-2-.9s-.7-1.4-.7-2.5v-.1zm1.8.2c0 .6.1 1.1.3 1.4s.5.5 1 .5c.3 0 .5-.1.7-.2s.4-.3.5-.5v-3c-.1-.2-.3-.4-.5-.5s-.4-.2-.7-.2c-.5 0-.8.2-1 .6s-.3.9-.3 1.6z"/><path d="m132.5 78.8c-.1-.2-.1-.3-.2-.5 0-.2-.1-.4-.1-.5-.2.3-.4.6-.8.8-.3.2-.7.3-1.1.3-.7 0-1.3-.2-1.7-.6s-.6-.9-.6-1.5c0-.7.3-1.2.8-1.6s1.3-.6 2.3-.6h1v-.5c0-.3-.1-.6-.3-.8s-.4-.3-.8-.3c-.3 0-.5.1-.7.2s-.2.4-.2.6h-1.8c0-.6.2-1.1.8-1.5.5-.4 1.2-.6 2.1-.6.8 0 1.5.2 2 .6s.8 1 .8 1.8v2.9c0 .3 0 .6.1.9 0 .3.1.6.2.9zm-1.7-1.2c.3 0 .6-.1.9-.2.3-.2.4-.3.5-.6v-1h-1c-.4 0-.7.1-.9.3s-.3.4-.3.7c0 .2.1.4.2.6.1.1.3.2.6.2z"/></g><path d="m109.7 47.9c-1.1 1.1-3 1.1-4.1 0l-16-16c-1.1-1.1-1.1-3 0-4.1l15.9-15.9c1.1-1.1 3-1.1 4.1 0l15.9 15.9c1.1 1.1 1.1 3 0 4.1z" fill="#1b75bb"/><path d="m106.1 47.3-15.9-15.9c-.8-.8-.8-2.2 0-3l15.9-15.9c.8-.8 2.2-.8 3 0l15.9 15.9c.8.8.8 2.2 0 3l-15.9 15.9c-.8.9-2.2.9-3 0zm2.6-34.2c-.6-.6-1.6-.6-2.2 0l-15.6 15.6c-.6.6-.6 1.6 0 2.2l15.6 15.6c.6.6 1.6.6 2.2 0l15.6-15.6c.6-.6.6-1.6 0-2.2z" fill="#fff"/><path d="m102.7 24.3h9.2c2.1 0 3.7 1.7 3.7 3.7v9.2h-3.6v-7.7c0-.8-.7-1.5-1.5-1.5h-7.7v-3.7z" fill="#f6f6f6"/><path d="m104.1 29.6-.4-3.4.4-3.4c0-.2-.2-.3-.3-.2l-7.2 3.4c-.2.1-.2.3 0 .4l7.3 3.4c.1.1.3 0 .2-.2z" fill="#f6f6f6"/><path d="m170.5 61.9.1.5.1-.5 2-6.9h2l-3.2 9.3h-1.9l-3.2-9.3h2z" fill="#fff"/><path d="m179.5 63.4c-.2.4-.5.6-.8.8s-.7.3-1.1.3c-.7 0-1.3-.2-1.7-.7s-.6-1.2-.6-2.2v-4.2h1.9v4.2c0 .5.1.9.3 1.1s.4.3.8.3c.3 0 .6 0 .8-.1s.4-.2.5-.4v-5h1.9v6.9h-1.6z" fill="#fff"/><path d="m185.7 64.5c-1 0-1.8-.3-2.4-1-.6-.6-.9-1.5-.9-2.4v-.3c0-1 .3-1.9.8-2.5.6-.7 1.3-1 2.3-1 .9 0 1.7.3 2.2.8.5.6.8 1.3.8 2.3v1h-4.1c0 .5.2.8.5 1.1s.6.4 1.1.4c.4 0 .8 0 1-.1.3-.1.6-.2.9-.4l.5 1.2c-.3.2-.7.4-1.1.6-.5.2-1 .3-1.6.3zm-.1-5.7c-.3 0-.6.1-.8.4s-.3.6-.4 1h2.3v-.2c0-.4-.1-.7-.3-.9s-.5-.3-.8-.3z" fill="#fff"/><path d="m191.6 64.4h-1.9v-10h1.9z" fill="#fff"/><path d="m195.3 55.8v1.7h1.2v1.3h-1.2v3.5c0 .3.1.5.2.6s.3.2.4.2h.3c.1 0 .2 0 .2-.1l.2 1.3c-.2.1-.4.1-.5.1-.2 0-.4 0-.6 0-.6 0-1.1-.2-1.5-.5-.3-.4-.5-.9-.5-1.7v-3.5h-1v-1.3h1v-1.7h1.8z" fill="#fff"/><path d="m201.7 64.4c-.1-.2-.1-.3-.2-.5 0-.2-.1-.4-.1-.5-.2.3-.4.6-.8.8-.3.2-.7.3-1.1.3-.7 0-1.3-.2-1.7-.6s-.6-.9-.6-1.5c0-.7.3-1.2.8-1.6s1.3-.6 2.3-.6h1v-.5c0-.3-.1-.6-.3-.8s-.4-.3-.8-.3c-.3 0-.5.1-.7.2s-.2.4-.2.6h-1.8c0-.6.2-1.1.8-1.5.5-.4 1.2-.6 2.1-.6.8 0 1.5.2 2 .6s.8 1 .8 1.8v2.9c0 .3 0 .6.1.9s.1.6.2.9zm-1.7-1.3c.3 0 .6-.1.9-.2.3-.2.4-.3.5-.6v-1h-1c-.4 0-.7.1-.9.3s-.3.4-.3.7c0 .2.1.4.2.6.2.1.4.2.6.2z" fill="#fff"/><path d="m212 64.4c-.1-.2-.1-.3-.2-.5 0-.2-.1-.4-.1-.5-.2.3-.4.6-.8.8-.3.2-.7.3-1.1.3-.7 0-1.3-.2-1.7-.6s-.6-.9-.6-1.5c0-.7.3-1.2.8-1.6s1.3-.6 2.3-.6h1v-.5c0-.3-.1-.6-.3-.8s-.4-.3-.8-.3c-.3 0-.5.1-.7.2s-.2.4-.2.6h-1.8c0-.6.2-1.1.8-1.5s1.2-.6 2.1-.6c.8 0 1.5.2 2 .6s.8 1 .8 1.8v2.9c0 .3 0 .6.1.9 0 .3.1.6.2.9zm-1.7-1.3c.3 0 .6-.1.9-.2.3-.2.4-.3.5-.6v-1h-1c-.4 0-.7.1-.9.3s-.3.4-.3.7c0 .2.1.4.2.6.2.1.4.2.6.2z" fill="#fff"/><path d="m220.2 64.4h-1.9v-10h1.9z" fill="#fff"/><path d="m225.8 64.4c-.1-.2-.1-.3-.2-.5 0-.2-.1-.4-.1-.5-.2.3-.4.6-.8.8-.3.2-.7.3-1.1.3-.7 0-1.3-.2-1.7-.6s-.6-.9-.6-1.5c0-.7.3-1.2.8-1.6s1.3-.6 2.3-.6h1v-.5c0-.3-.1-.6-.3-.8s-.4-.3-.8-.3c-.3 0-.5.1-.7.2s-.2.4-.2.6h-1.8c0-.6.2-1.1.8-1.5s1.2-.6 2.1-.6c.8 0 1.5.2 2 .6s.8 1 .8 1.8v2.9c0 .3 0 .6.1.9s.1.6.2.9zm-1.7-1.3c.3 0 .6-.1.9-.2.3-.2.4-.3.5-.6v-1h-1c-.4 0-.7.1-.9.3s-.3.4-.3.7c0 .2.1.4.2.6.2.1.4.2.6.2z" fill="#fff"/><path d="m174 80.1v-9.3h3.2c1.1 0 2.1.4 2.8 1.1s1.1 1.7 1.1 2.8v1.5c0 1.1-.4 2.1-1.1 2.8s-1.7 1.1-2.8 1.1zm1.9-7.9v6.4h1.2c.7 0 1.2-.2 1.6-.7s.6-1 .6-1.8v-1.6c0-.7-.2-1.3-.6-1.8s-.9-.7-1.6-.7h-1.2z" fill="#fff"/><path d="m185.5 80.2c-1 0-1.8-.3-2.4-1-.6-.6-.9-1.5-.9-2.4v-.3c0-1 .3-1.9.8-2.5.6-.7 1.3-1 2.3-1 .9 0 1.7.3 2.2.8s.8 1.3.8 2.3v1h-4.1c0 .5.2.8.5 1.1s.6.4 1.1.4c.4 0 .8 0 1-.1s.6-.2.9-.4l.5 1.2c-.3.2-.7.4-1.1.6-.5.2-1 .3-1.6.3zm-.2-5.7c-.3 0-.6.1-.8.4s-.3.6-.4 1h2.3v-.2c0-.4-.1-.7-.3-.9-.1-.2-.4-.3-.8-.3z" fill="#fff"/><path d="m193 74.8h-.7c-.3 0-.5.1-.7.2s-.3.3-.4.5v4.7h-1.9v-6.9h1.7l.1 1c .2-.4.4-.6.6-.8.3-.2.6-.3.9-.3h.3s.2 0 .2.1z" fill="#fff"/><path d="m197 80.2c-1 0-1.8-.3-2.4-1-.6-.6-.9-1.5-.9-2.4v-.3c0-1 .3-1.9.8-2.5.6-.7 1.3-1 2.3-1 .9 0 1.7.3 2.2.8s.8 1.3.8 2.3v1h-4.1c0 .5.2.8.5 1.1s.6.4 1.1.4c.4 0 .8 0 1-.1s.6-.2.9-.4l.5 1.2c-.3.2-.7.4-1.1.6-.5.2-1 .3-1.6.3zm-.1-5.7c-.3 0-.6.1-.8.4s-.3.6-.4 1h2.3v-.2c0-.4-.1-.7-.3-.9s-.5-.3-.8-.3z" fill="#fff"/><path d="m203.8 78.8c.3 0 .6-.1.8-.3s.3-.5.3-.8h1.7c0 .7-.2 1.3-.8 1.8-.5.5-1.2.7-2 .7-1 0-1.8-.3-2.4-1s-.8-1.5-.8-2.5v-.2c0-1 .3-1.9.8-2.5.6-.7 1.4-1 2.4-1 .9 0 1.5.2 2.1.7.5.5.8 1.1.8 1.9h-1.7c0-.4-.1-.7-.3-.9s-.5-.4-.8-.4c-.5 0-.8.2-1 .6s-.3.9-.3 1.5v.2c0 .6.1 1.1.3 1.5 0 .5.4.7.9.7z" fill="#fff"/><path d="m209.5 74c .2-.3.5-.6.8-.7.3-.2.7-.3 1-.3.7 0 1.3.2 1.7.7s.6 1.2.6 2.2v4.1h-1.9v-4c0-.5-.1-.9-.3-1.1s-.5-.3-.8-.3-.5 0-.7.1-.4.2-.5.4v5.1h-1.9v-10h1.9v3.8z" fill="#fff"/><path d="m219.1 80.1c-.1-.2-.1-.3-.2-.5 0-.2-.1-.4-.1-.5-.2.3-.4.6-.8.8-.3.2-.7.3-1.1.3-.7 0-1.3-.2-1.7-.6s-.6-.9-.6-1.5c0-.7.3-1.2.8-1.6s1.3-.6 2.3-.6h1v-.5c0-.3-.1-.6-.3-.8s-.4-.3-.8-.3c-.3 0-.5.1-.7.2s-.2.4-.2.6h-1.8c0-.6.2-1.1.8-1.5.5-.4 1.2-.6 2.1-.6.8 0 1.5.2 2 .6s.8 1 .8 1.8v2.9c0 .3 0 .6.1.9 0 .3.1.6.2.9zm-1.7-1.3c.3 0 .6-.1.9-.2.3-.2.4-.3.5-.6v-1h-1c-.4 0-.7.1-.9.3s-.3.4-.3.7c0 .2.1.4.2.6s.4.2.6.2z" fill="#fff"/><path d="m195.2 49.1c1.1 1.1 3 1.1 4.1 0l15.9-15.9c1.1-1.1 1.1-3 0-4.1l-15.9-15.9c-1.1-1.1-3-1.1-4.1 0l-15.9 15.9c-1.1 1.1-1.1 3 0 4.1z" fill="#1b75bb"/><path d="m195.8 48.6-15.9-15.9c-.8-.8-.8-2.2 0-3l15.9-15.9c.8-.8 2.2-.8 3 0l15.9 15.9c.8.8.8 2.2 0 3l-15.9 15.9c-.9.8-2.2.8-3 0zm-15.2-18.7c-.6.6-.6 1.6 0 2.2l15.6 15.6c.6.6 1.6.6 2.2 0l15.6-15.5c.6-.6.6-1.6 0-2.2l-15.6-15.6c-.6-.6-1.6-.6-2.2 0z" fill="#fff"/><path d="m202.1 25.6h-9.2c-2.1 0-3.7 1.7-3.7 3.7v9.2h3.7v-7.7c0-.8.7-1.5 1.5-1.5h7.7z" fill="#f6f6f6"/><path d="m200.7 30.8.4-3.4-.4-3.4c0-.2.2-.3.3-.2l7.3 3.4c.2.1.2.3 0 .4l-7.3 3.4c-.1.1-.3 0-.3-.2z" fill="#f6f6f6"/><path d="m36.2 35.7h23.1v17.4h-23.1z" fill="url(#bn)"/><path d="m33.4 35.7h8.6v160.2h-8.6z" fill="url(#bo)"/><path d="m357.3 53.1h-23v-17.4h23z" fill="url(#bp)"/><path d="m351.5 195.9h8.6v-160.2h-8.6z" fill="url(#bq)"/></svg>