<svg enable-background="new 0 0 364.7 121.8" viewBox="0 0 364.7 121.8" xmlns="http://www.w3.org/2000/svg" xmlns:xlink="http://www.w3.org/1999/xlink"><path d="m205 69.1c38-.9 43.1-34.1 83.5-35.7 65.5-2.5 75.7 58.5 75.9 69.8v11.7h-364.4v-6-7.6c0-.1 22.9-101.3 90.7-101.3 78.7 0 78.3 69.9 114.3 69.1z" fill="url(#a)"/><path d="m0 106.2h364.7v11.4h-364.7z" fill="url(#b)"/><path d="m0 101.2h49.4v16.6h-49.4z" fill="url(#c)"/><path d="m40.6 54.6h1.4v46.9h-1.4z" fill="#d0d1d2"/><path d="m52.2 54.7c.5 0 .8-.4.8-.8 0-.3-.2-.7-.4-.8-.1-.2-10.4-15.8-10.4-15.8s-.4-.7-1-.7c-.5 0-.9.7-.9.7s-10.1 15.4-10.2 15.6-.5.7-.5 1c0 .4.3.8.9.8z" fill="url(#d)"/><path d="m30.5 55c-.7 0-1.2-.5-1.2-1.1 0-.4.3-.8.5-1.1l.1-.1c.1-.1 9.8-15 10.2-15.6.1-.1.5-.8 1.2-.8.8 0 1.3.8 1.3.8.1.1 10.3 15.6 10.4 15.8.2.2.4.6.4 1 0 .6-.5 1-1.1 1-.1.1-21.7.1-21.8.1zm10.7-18.1c-.2 0-.6.4-.7.5-.1.2-10 15.5-10.1 15.6 0 0 0 .1-.1.1-.1.1-.4.5-.4.8 0 .2.2.5.6.5h21.8c.4 0 .5-.2.5-.5 0-.2-.2-.5-.3-.6-.1-.2-10-15.2-10.5-15.8 0-.1-.3-.6-.8-.6z" fill="#fff"/><path d="m52.7 60.7c0 .5-.4.9-.9.9h-21c-.5 0-.9-.4-.9-.9v-3.7c0-.5.4-.9.9-.9h21c .5 0 .9.4.9.9z" fill="#fff"/><path d="m31.4 60.1v-2.6h.8.6c.1 0 .3.1.4.2s.2.3.2.5 0 .3-.1.4-.1.2-.2.3-.2.1-.3.2c-.1 0-.3 0-.5 0h-.3v1zm .5-2.2v.7h.3.4c.1 0 .1-.1.2-.1 0-.1.1-.1.1-.2s0-.2-.1-.2c-.1-.1-.1-.1-.2-.1s-.2 0-.4 0h-.3z" fill="#231f20"/><path d="m33.8 60.1v-2.6h1.1c.3 0 .5 0 .6.1s.2.1.3.2.1.3.1.4c0 .2-.1.4-.2.5s-.3.2-.5.2c.1.1.2.1.3.2s.2.2.3.4l.3.5h-.6l-.4-.6c-.1-.2-.2-.3-.3-.4s-.1-.1-.2-.1-.1 0-.3 0h-.1v1.1h-.4zm.5-1.5h.4.5c.1 0 .1-.1.1-.1s.1-.1.1-.2 0-.2-.1-.2c0-.1-.1-.1-.2-.1 0 0-.2 0-.4 0h-.4z" fill="#231f20"/><path d="m36.4 60.1v-2.6h.5v2.6z" fill="#231f20"/><path d="m37.3 58.8c0-.3 0-.5.1-.7.1-.1.1-.2.2-.4.1-.1.2-.2.3-.2.2-.1.3-.1.6-.1.4 0 .7.1.9.4.2.2.3.6.3 1s-.1.7-.3 1c-.2.2-.5.3-.9.3s-.7-.1-.9-.3c-.2-.3-.3-.6-.3-1zm .6 0c0 .3.1.5.2.7.1.1.3.2.5.2s.4-.1.5-.2.2-.4.2-.7-.1-.5-.2-.7c-.1-.1-.3-.2-.5-.2s-.4.1-.5.2c-.2.2-.2.4-.2.7z" fill="#231f20"/><path d="m40.2 60.1v-2.6h1.1c.3 0 .5 0 .6.1s.2.1.3.2.1.3.1.4c0 .2-.1.4-.2.5s-.3.2-.5.2c.1.1.2.1.3.2s.2.2.3.4l.3.5h-.6l-.4-.6c-.1-.2-.2-.3-.3-.4 0-.1-.1-.1-.2-.1s-.1 0-.3 0h-.1v1.1h-.4zm.5-1.5h.4.5c.1 0 .1-.1.1-.1s.1-.1.1-.2 0-.2-.1-.2c0-.1-.1-.1-.2-.1 0 0-.2 0-.4 0h-.4z" fill="#231f20"/><path d="m42.8 60.1v-2.6h.5v2.6z" fill="#231f20"/><path d="m43.8 57.5h1 .5c.2 0 .3.1.4.2s.2.3.2.4c.1.2.1.4.1.6s0 .4-.1.6-.2.3-.3.5c-.1.1-.2.2-.4.2-.1 0-.3.1-.5.1h-1v-2.6zm.5.4v1.7h.4.3c.1 0 .2-.1.2-.1.1 0 .1-.1.1-.2s.1-.3.1-.5 0-.4-.1-.5c0-.1-.1-.2-.1-.2 0-.1-.1-.1-.2-.1s-.2 0-.4 0h-.3z" fill="#231f20"/><path d="m48.8 60.1h-.6l-.2-.6h-1l-.2.6h-.6l1-2.6h.5zm-1-1-.4-1-.3 1z" fill="#231f20"/><path d="m49 57.5h1 .5c.1 0 .3.1.4.2s.2.3.2.4c.1.2.1.4.1.6s0 .4-.1.6-.2.3-.3.5c-.1.1-.2.2-.4.2-.1 0-.3.1-.5.1h-1v-2.6zm.6.4v1.7h.4.3c.1 0 .2-.1.2-.1.1 0 .1-.1.1-.2s.1-.3.1-.5 0-.4-.1-.5c0-.1-.1-.2-.1-.2-.1-.1-.2-.1-.3-.1s-.2 0-.4 0h-.2z" fill="#231f20"/><path d="m44.9 46.4c-.5 0-.9.1-1.2.4l-.8-.9.1-.3.7-.3c.1 0 .1-.1.1-.2s-.1-.1-.2-.1h-1.7c-.1 0-.2.1-.2.2s0 .2.1.2l.8.2v.2h-3.3l.2-.6s0 0 0-.1c0 0 0-.1-.1-.1-.1-.1-.1-.2-.1-.2h.1.9c.1 0 .2-.1.2-.2s-.1-.2-.2-.2h-.9s0 0-.1 0c-.2.1-.3.2-.3.3v.1c0 .1.1.3.2.4 0 .1-.2.6-.4 1.1l-.1.2c-.1.2-.1.3-.2.4-.3-.2-.7-.3-1.2-.3-1.2 0-2.2 1-2.2 2.2s1 2.2 2.2 2.2 2.2-1 2.2-2.2c0-.7-.3-1.3-.8-1.7l.1-.3 2.5 2.5.1.4c-.1 0-.2.1-.2.2s.1.2.2.2h.5c.1 0 .2-.1.2-.2s-.1-.2-.2-.2h.1l-.1-.4.8-.1c.2 1 1.1 1.8 2.2 1.8 1.2 0 2.2-1 2.2-2.2 0-1.4-1-2.4-2.2-2.4zm-5.6 2.2c0 1-.8 1.9-1.9 1.9-1 0-1.9-.8-1.9-1.9 0-1 .8-1.9 1.9-1.9.4 0 .7.1 1 .3-.3.8-1.1 1.4-1.1 1.4s-.1.1-.1.1v.1c.1.1.2.1.2 0 0 0 .9-.6 1.2-1.5.5.5.7 1 .7 1.5zm2.3-.2v-.1h.1s0 .1-.1.1zm0-.5h-.4c-.1 0-.2.1-.2.2s.1.2.2.2l.1.2-2.2-2.2c0-.1.1-.2.1-.3h3.3c-.1.4-.4 1.3-.7 2 0 0-.1-.1-.2-.1zm.3.9.9-2.6c.1.2.4.4.6.7-.4.4-.7 1-.7 1.7v.1c-.4.1-.7.1-.8.1zm1.1-.2c0-.5.2-1 .6-1.4.4.5.9 1 1 1.2-.2.1-.9.2-1.6.2zm1.9 1.9c-.9 0-1.7-.6-1.8-1.5l1.9-.3c.1 0 .1-.1.1-.1 0-.1 0-.1 0-.2l-1.2-1.4c.3-.2.6-.3 1-.3 1 0 1.9.8 1.9 1.9 0 1-.9 1.9-1.9 1.9z" fill="#fff"/><path d="m230.8 101.3h-5.6v-2.2h5.6zm-11.2 0h-5.6v-2.2h5.6zm-11.2 0h-5.6v-2.2h5.6zm-11.2 0h-5.6v-2.2h5.6zm-11.2 0h-5.6v-2.2h5.6zm-11.2 0h-5.6v-2.2h5.6zm-11.2 0h-5.6v-2.2h5.6zm-11.2 0h-5.6v-2.2h5.6zm-11.2 0h-5.6v-2.2h5.6zm-11.2 0h-5.6v-2.2h5.6zm-11.2 0h-5.6v-2.2h5.6z" fill="#fff"/><path d="m156.6 78.7h-1.9v-7.7h-1.9v-1.3l3.8-.3z" fill="#fff"/><path d="m162.1 78.7h-1.9v-1.6h1.9z" fill="#fff"/><path d="m164 74.6.5-5.2h5.2v1.5h-3.7l-.3 2.1c.2-.1.4-.2.6-.3s.5-.1.8-.1c.9 0 1.6.3 2.1.8.5.6.7 1.3.7 2.3 0 .9-.3 1.6-.8 2.2s-1.3.9-2.3.9c-.9 0-1.6-.2-2.2-.7s-.9-1.1-.9-1.9l1.8-.1c0 .4.1.7.4 1 .2.2.5.3.9.3s.8-.2 1-.5.3-.7.3-1.2-.1-1-.3-1.3-.6-.5-1-.5-.6.1-.8.2-.3.3-.4.5z" fill="#fff"/><path d="m176.3 71.8.1.9c.2-.3.5-.6.8-.8s.7-.3 1.2-.3c.4 0 .8.1 1.1.3s.6.5.7.9c.2-.4.5-.7.8-.9s.7-.3 1.2-.3c.7 0 1.2.2 1.6.7s.6 1.2.6 2.2v4.2h-1.9v-4.2c0-.5-.1-.9-.3-1.1s-.4-.3-.8-.3c-.3 0-.5.1-.7.2s-.3.3-.5.5v.2.2 4.6h-1.9v-4.2c0-.5-.1-.9-.3-1.1s-.4-.3-.8-.3c-.3 0-.5 0-.7.1s-.3.2-.5.4v5.1h-1.9v-6.9h2.2z" fill="#fff"/><path d="m188.2 70.1v1.7h1.2v1.3h-1.2v3.5c0 .3.1.5.2.6s.3.2.4.2h.3s.2 0 .2-.1l.2 1.3c-.2.1-.4.1-.5.1-.2 0-.4 0-.6 0-.6 0-1.1-.2-1.5-.5-.3-.4-.5-.9-.5-1.7v-3.5h-1v-1.3h1v-1.7h1.8z" fill="#fff"/><path d="m194.3 76.8c0-.2-.1-.4-.3-.5s-.6-.3-1.1-.4c-.8-.2-1.4-.4-1.9-.7-.4-.3-.6-.8-.6-1.3 0-.6.3-1.1.8-1.5s1.2-.6 2-.6c.9 0 1.6.2 2.1.6s.8.9.8 1.6h-1.8c0-.3-.1-.5-.3-.7s-.4-.3-.8-.3c-.3 0-.5.1-.7.2s-.3.3-.3.6c0 .2.1.4.3.5s.5.3 1.1.4c.9.2 1.5.4 1.9.8.4.3.6.8.6 1.4s-.3 1.1-.8 1.5-1.2.6-2.1.6-1.6-.2-2.2-.7-.8-1-.8-1.6h1.7c0 .4.1.6.4.8s.5.2.9.2c.3 0 .6-.1.8-.2.2-.3.3-.5.3-.7z" fill="#fff"/><path d="m127.4 91c0-1.1.2-2 .7-2.6.5-.7 1.1-1 2-1 .3 0 .7.1.9.2.3.1.5.4.7.6v-3.8h1.9v10h-1.6l-.2-.8c-.2.3-.5.6-.8.7-.3.2-.6.2-1 .2-.8 0-1.5-.3-2-.9s-.7-1.4-.7-2.5v-.1zm1.9.2c0 .6.1 1.1.3 1.4s.5.5 1 .5c.3 0 .5-.1.7-.2s.4-.3.5-.5v-3c-.1-.2-.3-.4-.5-.5s-.4-.2-.7-.2c-.5 0-.8.2-1 .6s-.3.9-.3 1.6z" fill="#fff"/><path d="m137 85.9h-1.9v-1.4h1.9zm0 8.5h-1.9v-6.9h1.9z" fill="#fff"/><path d="m142.3 92.5c0-.2-.1-.4-.3-.5s-.6-.3-1.1-.4c-.8-.2-1.4-.4-1.9-.7-.4-.3-.6-.8-.6-1.3 0-.6.3-1.1.8-1.5s1.2-.6 2-.6c.9 0 1.6.2 2.1.6s.8.9.8 1.6h-1.8c0-.3-.1-.5-.3-.7s-.4-.3-.8-.3c-.3 0-.5.1-.7.2s-.3.3-.3.6c0 .2.1.4.3.5s.5.3 1.1.4c.9.2 1.5.4 1.9.8.4.3.6.8.6 1.4s-.3 1.1-.8 1.5-1.2.6-2.1.6-1.6-.2-2.2-.7-.8-1-.8-1.6h1.7c0 .4.1.6.4.8s.5.2.9.2c.3 0 .6-.1.8-.2.2-.3.3-.4.3-.7z" fill="#fff"/><path d="m147.6 85.8v1.7h1.2v1.3h-1.2v3.5c0 .3.1.5.2.6s.3.2.4.2h.3s.2 0 .2-.1l.2 1.3c-.2.1-.4.1-.5.1-.2 0-.4 0-.6 0-.6 0-1.1-.2-1.5-.5-.3-.4-.5-.9-.5-1.7v-3.5h-1v-1.3h1v-1.7h1.8z" fill="#fff"/><path d="m154 94.4c-.1-.2-.1-.3-.2-.5s-.1-.4-.1-.5c-.2.3-.4.6-.8.8s-.7.3-1.1.3c-.7 0-1.3-.2-1.7-.6s-.6-.9-.6-1.5c0-.7.3-1.2.8-1.6s1.3-.6 2.3-.6h1v-.5c0-.3-.1-.6-.3-.8s-.4-.3-.8-.3c-.3 0-.5.1-.7.2s-.2.4-.2.6h-1.8c0-.6.2-1.1.8-1.5.5-.4 1.2-.6 2.1-.6.8 0 1.5.2 2 .6s.8 1 .8 1.8v2.9c0 .3 0 .6.1.9 0 .3.1.6.2.9zm-1.7-1.2c.3 0 .6-.1.9-.2s.4-.3.5-.6v-1h-1c-.4 0-.7.1-.9.3s-.3.4-.3.7c0 .2.1.4.2.6.1.1.3.2.6.2z" fill="#fff"/><path d="m158.7 87.5.1 1c .2-.4.5-.6.9-.8s.7-.3 1.1-.3c.7 0 1.2.2 1.6.7.4.4.6 1.1.6 2.1v4.3h-1.9v-4.3c0-.5-.1-.8-.3-1s-.5-.3-.9-.3c-.2 0-.5.1-.7.2s-.4.2-.5.4v5h-1.9v-6.9h1.9z" fill="#fff"/><path d="m167.2 93.1c.3 0 .6-.1.8-.3s.3-.5.3-.8h1.7c0 .7-.2 1.3-.8 1.8-.5.5-1.2.7-2 .7-1 0-1.8-.3-2.4-1s-.8-1.5-.8-2.5v-.2c0-1 .3-1.9.8-2.5.6-.7 1.4-1 2.4-1 .9 0 1.5.2 2.1.7.5.5.8 1.1.8 1.9h-1.7c0-.4-.1-.7-.3-.9s-.5-.4-.8-.4c-.5 0-.8.2-1 .6s-.3.9-.3 1.5v.2c0 .6.1 1.1.3 1.5s.4.7.9.7z" fill="#fff"/><path d="m173.1 85.9h-1.9v-1.4h1.9zm0 8.5h-1.9v-6.9h1.9z" fill="#fff"/><path d="m178.7 94.4c-.1-.2-.1-.3-.2-.5s-.1-.4-.1-.5c-.2.3-.4.6-.8.8s-.7.3-1.1.3c-.7 0-1.3-.2-1.7-.6s-.6-.9-.6-1.5c0-.7.3-1.2.8-1.6s1.3-.6 2.3-.6h1v-.5c0-.3-.1-.6-.3-.8s-.4-.3-.8-.3c-.3 0-.5.1-.7.2s-.2.4-.2.6h-1.8c0-.6.2-1.1.8-1.5.5-.4 1.2-.6 2.1-.6.8 0 1.5.2 2 .6s.8 1 .8 1.8v2.9c0 .3 0 .6.1.9 0 .3.1.6.2.9zm-1.7-1.2c.3 0 .6-.1.9-.2s.4-.3.5-.6v-1h-1c-.4 0-.7.1-.9.3s-.3.4-.3.7c0 .2.1.4.2.6.1.1.3.2.6.2z" fill="#fff"/><path d="m186.9 94.4h-1.9v-10h1.9z" fill="#fff"/><path d="m192.5 94.4c-.1-.2-.1-.3-.2-.5s-.1-.4-.1-.5c-.2.3-.4.6-.8.8s-.7.3-1.1.3c-.7 0-1.3-.2-1.7-.6s-.6-.9-.6-1.5c0-.7.3-1.2.8-1.6s1.3-.6 2.3-.6h1v-.5c0-.3-.1-.6-.3-.8s-.4-.3-.8-.3c-.3 0-.5.1-.7.2s-.2.4-.2.6h-1.8c0-.6.2-1.1.8-1.5.5-.4 1.2-.6 2.1-.6.8 0 1.5.2 2 .6s.8 1 .8 1.8v2.9c0 .3 0 .6.1.9 0 .3.1.6.2.9zm-1.7-1.2c.3 0 .6-.1.9-.2s.4-.3.5-.6v-1h-1c-.4 0-.7.1-.9.3s-.3.4-.3.7c0 .2.1.4.2.6.1.1.3.2.6.2z" fill="#fff"/><path d="m197.7 85.8v1.7h1.2v1.3h-1.2v3.5c0 .3.1.5.2.6s.3.2.4.2h.3s.2 0 .2-.1l.2 1.3c-.2.1-.4.1-.5.1-.2 0-.4 0-.6 0-.6 0-1.1-.2-1.5-.5-.3-.4-.5-.9-.5-1.7v-3.5h-1v-1.3h1v-1.7h1.8z" fill="#fff"/><path d="m203.1 94.6c-1 0-1.8-.3-2.4-1-.6-.6-.9-1.5-.9-2.4v-.3c0-1 .3-1.9.8-2.5.6-.7 1.3-1 2.3-1 .9 0 1.7.3 2.2.8.5.6.8 1.3.8 2.3v1h-4.1c0 .5.2.8.5 1.1s.6.4 1.1.4c.4 0 .8 0 1-.1s.6-.2.9-.4l.5 1.2c-.3.2-.7.4-1.1.6-.5.2-1 .3-1.6.3zm-.2-5.8c-.3 0-.6.1-.8.4s-.3.6-.4 1h2.3v-.2c0-.4-.1-.7-.3-.9-.1-.2-.4-.3-.8-.3z" fill="#fff"/><path d="m210.6 89.1h-.7c-.3 0-.5.1-.7.2s-.3.3-.4.5v4.7h-1.8v-6.9h1.7l.1 1c .2-.4.4-.6.6-.8.3-.2.6-.3.9-.3h.3c.1 0 .2 0 .2.1z" fill="#fff"/><path d="m215.6 94.4c-.1-.2-.1-.3-.2-.5s-.1-.4-.1-.5c-.2.3-.4.6-.8.8s-.7.3-1.1.3c-.7 0-1.3-.2-1.7-.6s-.6-.9-.6-1.5c0-.7.3-1.2.8-1.6s1.3-.6 2.3-.6h1v-.5c0-.3-.1-.6-.3-.8s-.4-.3-.8-.3c-.3 0-.5.1-.7.2s-.2.4-.2.6h-1.8c0-.6.2-1.1.8-1.5.5-.4 1.2-.6 2.1-.6.8 0 1.5.2 2 .6s.8 1 .8 1.8v2.9c0 .3 0 .6.1.9 0 .3.1.6.2.9zm-1.7-1.2c.3 0 .6-.1.9-.2s.4-.3.5-.6v-1h-1c-.4 0-.7.1-.9.3s-.3.4-.3.7c0 .2.1.4.2.6.1.1.3.2.6.2z" fill="#fff"/><path d="m220.6 94.4h-1.9v-10h1.9z" fill="#fff"/><path d="m261.3 76.2v33.6c0 1.9-1.5 3.4-3.4 3.4h-9.5c-1.9 0-3.4-1.5-3.4-3.4v-33.6c0-1.9 1.5-3.4 3.4-3.4h9.5c1.9 0 3.4 1.5 3.4 3.4z" fill="url(#f)"/><path d="m261.3 76.5v33c0 2.1-1.7 3.7-3.7 3.7h-.8c-2.1 0-3.7 0-3.7 0v-36.7c0-2.1 1.7-3.7 3.7-3.7h.8c2.1 0 3.7 1.6 3.7 3.7z" fill="url(#h)" opacity=".5"/><path d="m334.7 76.2v33.6c0 1.9-1.5 3.4-3.4 3.4h-9.5c-1.9 0-3.4-1.5-3.4-3.4v-33.6c0-1.9 1.5-3.4 3.4-3.4h9.5c1.8 0 3.4 1.5 3.4 3.4z" fill="url(#i)"/><path d="m318.3 76.5v33c0 2.1 1.7 3.7 3.7 3.7h.8 3.7v-36.7c0-2.1-1.7-3.7-3.7-3.7h-.8c-2 0-3.7 1.6-3.7 3.7z" fill="url(#j)" opacity=".5"/><path d="m323.5 77.1h-64.2c-6.6 0-17.7-6.5-17.7-14.5l8.1-23.5c3.7-9.6 5.4-14.5 12-14.5h55c6.6 0 9.1 6.6 12 14.5l6.8 23.5c0 8-5.4 14.5-12 14.5z" fill="url(#l)"/><path d="m317.8 56.8h-53.7c-4.7 0-12.5 3.1-12.5-1l5.7-17.6c2.6-4.9 3.8-7.5 8.5-7.5h47.2c4.7 0 6.4 3.4 8.5 7.5l4.8 17.6c0 4.1-3.8 1-8.5 1z" fill="#d6d6d5"/><defs><linearGradient id="a" gradientTransform="matrix(-1 0 0 1 4666.7437 0)" gradientUnits="userSpaceOnUse" x1="4484.5171" x2="4484.5171" y1="114.875" y2=".000001"><stop offset="0" stop-color="#507e24"/><stop offset="1" stop-color="#8cc65b"/></linearGradient><linearGradient id="b" gradientUnits="userSpaceOnUse" x1="182.3603" x2="182.3603" y1="117.6156" y2="106.1659"><stop offset="0" stop-color="#3e444e"/><stop offset="1" stop-color="#1a2226"/></linearGradient><linearGradient id="c" gradientUnits="userSpaceOnUse" x1="0" x2="49.3947" y1="109.5559" y2="109.5559"><stop offset="0" stop-color="#e5e5e4"/><stop offset="1" stop-color="#d8d8d7"/></linearGradient><linearGradient id="d" gradientUnits="userSpaceOnUse" x1="29.5977" x2="53.0497" y1="45.6417" y2="45.6417"><stop offset="0" stop-color="#3bb44a"/><stop offset="1" stop-color="#3b834a"/></linearGradient><linearGradient id="e"><stop offset="0" stop-color="#151b26"/><stop offset="1" stop-color="#151b26"/></linearGradient><linearGradient id="f" gradientTransform="matrix(0 -1 1 0 3014.418 1257.0973)" gradientUnits="userSpaceOnUse" x1="1184.3383" x2="1143.8577" xlink:href="#e" y1="-2761.2629" y2="-2761.2629"/><linearGradient id="g"><stop offset="0" stop-color="#424242" stop-opacity="0"/><stop offset="1" stop-color="#747474"/></linearGradient><linearGradient id="h" gradientTransform="matrix(0 -1 1 0 3014.418 1257.0973)" gradientUnits="userSpaceOnUse" x1="1184.3383" x2="1143.8577" xlink:href="#g" y1="-2757.2449" y2="-2757.2449"/><linearGradient id="i" gradientTransform="matrix(0 -1 1 0 3014.418 1257.0973)" gradientUnits="userSpaceOnUse" x1="1184.3383" x2="1143.8577" xlink:href="#e" y1="-2687.9333" y2="-2687.9333"/><linearGradient id="j" gradientTransform="matrix(0 -1 -1 0 1533.9391 1257.0973)" gradientUnits="userSpaceOnUse" x1="1184.3383" x2="1143.8577" xlink:href="#g" y1="1211.4727" y2="1211.4727"/><linearGradient id="k"><stop offset="0" stop-color="#794c9c"/><stop offset="1" stop-color="#673e84"/></linearGradient><linearGradient id="l" gradientUnits="userSpaceOnUse" x1="241.5353" x2="335.5038" xlink:href="#k" y1="50.8163" y2="50.8163"/><clipPath id="m"><path d="m317.8 56.8h-53.7c-4.7 0-12.5 3.1-12.5-1l5.7-17.6c2.6-4.9 3.8-7.5 8.5-7.5h47.2c4.7 0 6.4 3.4 8.5 7.5l4.8 17.6c0 4.1-3.8 1-8.5 1z"/></clipPath><linearGradient id="n" gradientTransform="matrix(-1 0 0 1 5846.0132 0)" gradientUnits="userSpaceOnUse" x1="5462.4702" x2="5576.2866" xlink:href="#g" y1="50.1803" y2="50.1803"/><clipPath id="o"><path d="m323.5 77.1h-64.2c-6.6 0-17.7-6.5-17.7-14.5l8.1-23.5c3.7-9.6 5.4-14.5 12-14.5h55c6.6 0 9.1 6.6 12 14.5l6.8 23.5c0 8-5.4 14.5-12 14.5z"/></clipPath><linearGradient id="p"><stop offset="0" stop-color="#747474"/><stop offset="1" stop-color="#424242" stop-opacity="0"/></linearGradient><linearGradient id="q" gradientUnits="userSpaceOnUse" x1="239.8382" x2="336.8833" xlink:href="#p" y1="61.3639" y2="61.3639"/><linearGradient id="r" gradientUnits="userSpaceOnUse" x1="231.3771" x2="346.0113" xlink:href="#k" y1="79.6059" y2="79.6059"/><linearGradient id="s" gradientUnits="userSpaceOnUse" x1="231.2321" x2="346.1585" xlink:href="#g" y1="89.7805" y2="89.7805"/><clipPath id="t"><path d="m335 98.4h-92.6c-6.1 0-11-5-11-11v-15.6c0-6 4.9-11 11-11h92.6c6 0 11 5 11 11v15.6c0 6-4.9 11-11 11z"/></clipPath><linearGradient id="u" gradientUnits="userSpaceOnUse" x1="341.5124" x2="419.3765" xlink:href="#p" y1="82.0018" y2="82.0018"/><linearGradient id="v"><stop offset="0" stop-color="#ffc55d"/><stop offset="1" stop-color="#fab11f"/></linearGradient><linearGradient id="w" gradientUnits="userSpaceOnUse" x1="334.2509" x2="321.0388" xlink:href="#v" y1="72.6663" y2="72.6663"/><linearGradient id="x" gradientUnits="userSpaceOnUse" x1="258.1806" x2="244.9685" xlink:href="#v" y1="72.6663" y2="72.6663"/><linearGradient id="y"><stop offset="0" stop-color="#d9d9d8"/><stop offset="1" stop-color="#e5e5e4"/></linearGradient><linearGradient id="z" gradientTransform="matrix(-.5595 -.2262 .2331 -.5767 784.7653 341.45)" gradientUnits="userSpaceOnUse" x1="1205.5359" x2="1208.4426" xlink:href="#y" y1="-54.5021" y2="-54.8778"/><linearGradient id="A" gradientUnits="userSpaceOnUse" x1="93.6732" x2="107.2518" xlink:href="#y" y1="87.0193" y2="81.2852"/><clipPath id="B"><path d="m87.8 74.2c1.8 14.7-3.2 27 3.9 28.8 3.2.8 1.7-3.2 1.7-3.2s1.5-10.7 2.1-14.6c.8-6 1-15 1-16 0-1.6 2.6-7.5 5.2-2.9 1.2 2.1 8.1 9.1 6.3 12.4-5.3 9.4-3.7 16.4-3.7 16.4s3.1 5.6 5.8-4.4c2.1-7.6 5.2-5.5 7.1-14.9.6-3-4.4-13.7-7.4-19.3-1.6-3-3.4 0-7.9 0-7.7 0-11.4-1.3-11.4-1.3s-3.2 14.9-2.7 19z"/></clipPath><linearGradient id="C" gradientUnits="userSpaceOnUse" x1="67.8165" x2="130.42" y1="86.9762" y2="86.9762"><stop offset="0" stop-color="#24324c"/><stop offset="1" stop-color="#3e537d"/></linearGradient><linearGradient id="D" gradientUnits="userSpaceOnUse" x1="90.9751" x2="114.7527" y1="88.3623" y2="88.3623"><stop offset="0" stop-color="#414242"/><stop offset=".4135" stop-color="#434444" stop-opacity=".5865"/><stop offset=".633" stop-color="#4b4c4c" stop-opacity=".367"/><stop offset=".807" stop-color="#59595a" stop-opacity=".193"/><stop offset=".9561" stop-color="#6c6c6d" stop-opacity=".043912"/><stop offset="1" stop-color="#737374" stop-opacity="0"/></linearGradient><clipPath id="E"><path d="m92.5 100.3c.7 0 3.2.6 2 1.9-.5.6-.5.7-1.2 1-.8.3-1.6.5-2.5.6-.5.1-1.1.1-1.5-.1-.5-.2-.9-.6-1-1.1 0-.4.2-.8.5-1.1s.7-.5 1.1-.6c.7-.5 1.7-.7 2.6-.6zm16.7-3.5c.4-.1.8-.3 1.1-.6s.5-.7.5-1.1c0-.5-.4-1-.9-1.2s-1-.2-1.5-.2c-.9.1-1.7.2-2.5.4-.7.2-1.8.5-2.4 1-1.2 1.2 2.4 1.8 3.1 1.9.9.2 1.8.1 2.6-.2z"/></clipPath><linearGradient id="F" gradientUnits="userSpaceOnUse" x1="111.0938" x2="87.2552" y1="104.7132" y2="80.8747"><stop offset="0" stop-color="#8e2d37"/><stop offset="1" stop-color="#781a26"/></linearGradient><linearGradient id="G" gradientUnits="userSpaceOnUse" x1="91.5335" x2="108.7093" y1="89.9265" y2="89.9265"><stop offset="0" stop-color="#737374" stop-opacity="0"/><stop offset="1" stop-color="#414242"/></linearGradient><linearGradient id="H"><stop offset="0" stop-color="#ee4050"/><stop offset="1" stop-color="#d72538"/></linearGradient><linearGradient id="I" gradientUnits="userSpaceOnUse" x1="83.5599" x2="115.7942" xlink:href="#H" y1="42.8074" y2="42.8074"/><clipPath id="J"><path d="m97.4 20.4c1.6.4 6.5.2 7-1.8s1.6-9-4.7-9.1c-3.7-.1-4.4 2.6-4.8 4.7-.4 2.2-.4 5.5 2.5 6.2z"/></clipPath><linearGradient id="K" gradientTransform="matrix(.9973 -.07369055 .07369055 .9973 2423.4382 -202.4845)" gradientUnits="userSpaceOnUse" x1="-2342.0129" x2="-2327.2412" y1="53.6676" y2="39.9131"><stop offset="0" stop-color="#414242"/><stop offset="1" stop-color="#737374"/></linearGradient><linearGradient id="L" gradientTransform="matrix(.9973 -.07369055 .07369055 .9973 2423.4382 -202.4845)" gradientUnits="userSpaceOnUse" x1="-2343.4966" x2="-2328.895" y1="46.7935" y2="46.7935"><stop offset="0" stop-color="#414242" stop-opacity="0"/><stop offset="1" stop-color="#737374"/></linearGradient><linearGradient id="M"><stop offset="0" stop-color="#fab23e"/><stop offset="1" stop-color="#fab220"/></linearGradient><linearGradient id="N" gradientUnits="userSpaceOnUse" x1="95.294" x2="104.6124" xlink:href="#M" y1="23.8873" y2="23.8873"/><clipPath id="O"><use xlink:href="#aA"/></clipPath><linearGradient id="P" gradientUnits="userSpaceOnUse" x1="94.7601" x2="105.8875" xlink:href="#M" y1="24.5017" y2="24.1659"/><linearGradient id="Q" gradientUnits="userSpaceOnUse" x1="95.5499" x2="103.137" xlink:href="#M" y1="27.4093" y2="27.4093"/><linearGradient id="R" gradientTransform="matrix(.8387 .5445 -.5445 .8387 2212.4294 357.7343)" gradientUnits="userSpaceOnUse" x1="-1962.7017" x2="-1955.0803" y1="861.6612" y2="862.6437"><stop offset="0" stop-color="#737373" stop-opacity="0"/><stop offset="1" stop-color="#414141"/></linearGradient><linearGradient id="S"><stop offset="0" stop-color="#ffc75b"/><stop offset="1" stop-color="#fbb324"/></linearGradient><linearGradient id="T" gradientTransform="matrix(-1 0 0 1 5336.96 0)" gradientUnits="userSpaceOnUse" x1="5246.3428" x2="5262.0376" xlink:href="#S" y1="43.0489" y2="43.0489"/><linearGradient id="U"><stop offset="0" stop-color="#414141"/><stop offset="1" stop-color="#737373" stop-opacity="0"/></linearGradient><linearGradient id="V" gradientTransform="matrix(-1 0 0 1 5336.96 0)" gradientUnits="userSpaceOnUse" x1="5246.3057" x2="5259.1104" xlink:href="#U" y1="44.1292" y2="44.1292"/><linearGradient id="W" gradientUnits="userSpaceOnUse" x1="92.161" x2="81.645" xlink:href="#e" y1="51.9676" y2="51.9676"/><linearGradient id="X" gradientUnits="userSpaceOnUse" x1="107.0454" x2="92.3565" xlink:href="#e" y1="54.0195" y2="54.0195"/><linearGradient id="Y" gradientTransform="matrix(-1 0 0 1 5336.96 0)" gradientUnits="userSpaceOnUse" x1="5246.3428" x2="5254.998" xlink:href="#S" y1="50.5305" y2="50.5305"/><linearGradient id="Z" gradientTransform="matrix(-1 0 0 1 5336.96 0)" gradientUnits="userSpaceOnUse" x1="5246.3428" x2="5255.355" xlink:href="#U" y1="50.5347" y2="50.5347"/><linearGradient id="aa" gradientUnits="userSpaceOnUse" x1="109.4519" x2="125.1471" xlink:href="#S" y1="43.3628" y2="43.3628"/><linearGradient id="ab" gradientUnits="userSpaceOnUse" x1="109.415" x2="122.2198" xlink:href="#U" y1="44.1292" y2="44.1292"/><linearGradient id="ac" gradientUnits="userSpaceOnUse" x1="117.8913" x2="105.7785" xlink:href="#e" y1="51.9676" y2="51.9676"/><linearGradient id="ad" gradientUnits="userSpaceOnUse" x1="109.4519" x2="118.1075" xlink:href="#S" y1="50.5305" y2="50.5305"/><linearGradient id="ae" gradientUnits="userSpaceOnUse" x1="109.4519" x2="118.4641" xlink:href="#U" y1="50.5347" y2="50.5347"/><linearGradient id="af"><stop offset="0" stop-color="#414141"/><stop offset="1" stop-color="#646464"/></linearGradient><linearGradient id="ag" gradientTransform="matrix(.01084854 -.6034 .3404 .00611948 3216.7515 -538.8732)" gradientUnits="userSpaceOnUse" x1="-1164.339" x2="-1154.2697" xlink:href="#af" y1="-9142.1729" y2="-9146.4258"/><linearGradient id="ah" gradientTransform="matrix(.01084854 -.6034 .3404 .00611948 3216.7515 -538.8732)" gradientUnits="userSpaceOnUse" x1="-1151.8149" x2="-1141.7456" xlink:href="#af" y1="-9093.7861" y2="-9098.0391"/><linearGradient id="ai" gradientUnits="userSpaceOnUse" x1="102.347" x2="98.2224" xlink:href="#e" y1="94.0441" y2="94.0441"/><linearGradient id="aj" gradientUnits="userSpaceOnUse" x1="95.6489" x2="98.8329" xlink:href="#H" y1="83.2169" y2="83.2169"/><linearGradient id="ak" gradientUnits="userSpaceOnUse" x1="102.112" x2="105.1118" xlink:href="#H" y1="83.306" y2="83.306"/><linearGradient id="al"><stop offset="0" stop-color="#757575"/><stop offset="1" stop-color="#757575"/></linearGradient><linearGradient id="am" gradientUnits="userSpaceOnUse" x1="97.3353" x2="98.2702" xlink:href="#al" y1="92.7374" y2="92.7374"/><linearGradient id="an" gradientUnits="userSpaceOnUse" x1="102.347" x2="103.2819" xlink:href="#al" y1="92.7374" y2="92.7374"/><linearGradient id="ao" gradientUnits="userSpaceOnUse" x1="96.5056" x2="104.885" xlink:href="#e" y1="69.1994" y2="69.1994"/><linearGradient id="ap"><stop offset="0" stop-color="#d8d8d7"/><stop offset="1" stop-color="#e4e4e3"/></linearGradient><linearGradient id="aq" gradientUnits="userSpaceOnUse" x1="99.3165" x2="101.6085" xlink:href="#ap" y1="69.0039" y2="69.0039"/><linearGradient id="ar" gradientUnits="userSpaceOnUse" x1="97.182" x2="103.743" xlink:href="#e" y1="71.6709" y2="71.6709"/><linearGradient id="as" gradientUnits="userSpaceOnUse" x1="108.8351" x2="91.2733" xlink:href="#e" y1="59.8839" y2="59.8839"/><linearGradient id="at" gradientUnits="userSpaceOnUse" x1="106.4689" x2="93.4375" xlink:href="#e" y1="60.1049" y2="60.1049"/><linearGradient id="au" gradientUnits="userSpaceOnUse" x1="95.5467" x2="96.655" xlink:href="#ap" y1="65.7092" y2="65.7092"/><linearGradient id="av" gradientUnits="userSpaceOnUse" x1="97.3091" x2="98.4173" xlink:href="#ap" y1="65.7092" y2="65.7092"/><linearGradient id="aw" gradientUnits="userSpaceOnUse" x1="99.2136" x2="100.3219" xlink:href="#ap" y1="65.7092" y2="65.7092"/><linearGradient id="ax" gradientUnits="userSpaceOnUse" x1="101.1858" x2="102.2941" xlink:href="#ap" y1="65.7092" y2="65.7092"/><linearGradient id="ay" gradientUnits="userSpaceOnUse" x1="103.2514" x2="104.3597" xlink:href="#ap" y1="65.7092" y2="65.7092"/><linearGradient id="az" gradientUnits="userSpaceOnUse" x1="47.1509" x2="47.1509" xlink:href="#v" y1="117.8717" y2="101.2572"/><path id="aA" d="m104 18.7c-.6-1.5 0-3.5-.9-4.8-.7-1-1.8-1.3-3-1.5-.9-.1-3.5.2-4 1.5-.2.6 0 2.2 0 3-.1 2.1-1.4 2.3-.7 4.6.2.8 1.3 1.3 1.9 1.7s-1.1 5.6-1.1 5.6 1.6 6.5 3.2 6.5 4.2-6 4.2-6-1.4-5.8-1-6c .8-.3 1.5-.9 1.8-1.7.4-.8.1-1.9-.4-2.9z"/></defs><path clip-path="url(#m)" d="m269.7 78.9c0-31.1 26.5-57.5 75-57.5 44.6 0 38.5 57.5 38.5 57.5z" fill="url(#n)" opacity=".25"/><ellipse clip-path="url(#o)" cx="288.4" cy="61.4" fill="url(#q)" opacity=".25" rx="48.5" ry="41.3"/><path d="m335 98.4h-92.6c-6.1 0-11-5-11-11v-15.6c0-6 4.9-11 11-11h92.6c6 0 11 5 11 11v15.6c0 6-4.9 11-11 11z" fill="url(#r)"/><path d="m334 98.4c-14.3.2-78.6 0-90.6 0-14.4 0-12-17.3-12-17.3h114.6s2.4 17.1-12 17.3z" fill="url(#s)" opacity=".25"/><circle clip-path="url(#t)" cx="380.4" cy="82" fill="url(#u)" opacity=".25" r="38.9"/><path d="m330.4 77.3h-5.4c-2.1 0-3.9-1.7-3.9-3.9v-1.6c0-2.1 1.7-3.9 3.9-3.9h5.4c2.1 0 3.9 1.7 3.9 3.9v1.6c0 2.2-1.8 3.9-3.9 3.9z" fill="url(#w)"/><path d="m254.3 77.3h-5.4c-2.1 0-3.9-1.7-3.9-3.9v-1.6c0-2.1 1.7-3.9 3.9-3.9h5.4c2.1 0 3.9 1.7 3.9 3.9v1.6c0 2.2-1.8 3.9-3.9 3.9z" fill="url(#x)"/><path d="m319.2 89.9h-60.5c-2.4 0-4.4-2-4.4-4.4v-1.7c0-2.4 2-4.4 4.4-4.4h60.5c2.4 0 4.4 2 4.4 4.4v1.7c0 2.5-2 4.4-4.4 4.4z" fill="#d6d6d5"/><path d="m97.9 95 .9.4-3.3 9.3c-.1.2-.3.3-.5.2l-.2-.1c-.2-.1-.3-.3-.2-.5z" fill="url(#z)"/><path d="m98 70.8s-.8 24.2-.2 26.1c.5 1.4 3 1.4 4.2.9.2-.1 1-.9 1-1.5.1-5-.2-25.5-.2-25.5z" fill="url(#A)"/><path clip-path="url(#B)" d="m67.9 117.6h62.5l-.1-61.3h-62.5z" fill="url(#C)"/><path clip-path="url(#B)" d="m93.4 75.8c0-1.2 2.5-5.2 3.5-5.8 6.1-3.8 10.6-1.6 15.6 3.6s.5 1.2-2.1 7.9c-1.4 3.6-2.4 8.2-4 11.7-1.5 3.5 2.3 5.8 4.2 9.2.5.8 1.1 1.6 1.5 2.5s.3 2.1-.4 2.7c-.6.6-1.5.6-2.3.7-3.2.2-6.4.4-9.5-.3s-6.1-2.3-7.7-5c-1.4-2.4-1.6-5.5-1-8.2.7-2.7 2.3-12.5 2.2-19z" fill="url(#D)" opacity=".3"/><path clip-path="url(#E)" d="m85.6 106.1 27.2-3v-23.6l-27.2 3z" fill="url(#F)"/><path clip-path="url(#E)" d="m100.8 81.5c-.5 1.1-.7 2.3-.8 3.5-.2 4 .5 8.2 3.9 10.4.6.4 1.6 1.1 2.3 1.3 1 .3 2.5.8 2.4 1.5-.2 1.1-2.9 2.3-4.1 2.5-2.4.5-10.2-2.2-11.5-4.3s-1.9-4.4-1.6-6.9c.3-2.3 4.9-4.6 6.2-6.6.9-1.4 2.2-2.6 3.7-3.3.5-.2 2-.9 1 0-.5.5-1 1-1.5 1.9z" fill="url(#G)" opacity=".3"/><path d="m83.6 32.8c4.8-4 11-5.6 17.2-5.2 6.2.3 10.4 1.4 14.8 5.9 0 0 .7 5-.3 5.7s-6.1-.3-6.1-.3 1.3 15.6.6 17.9c-.6 2.4-14.5 1.4-19.5-.4 0 0 .3-13.4.3-18.3 0 0-5.7 2.1-6.5.8-1-1.8-.2-6.6-.5-6.1z" fill="url(#I)"/><g clip-path="url(#J)"><path d="m91.7 23.6 14.2-.3-.4-14.4-14.8.9z" fill="url(#K)"/></g><path clip-path="url(#J)" d="m95.3 9.5s1.2 3 3 2.4c2.9-1 4.9 1 5.5 2.6.4 1.1.8 3.1.4 4.3-.5 1.2-1.3 2.2-2.4 2.8-1.3.7-7.2 1.9-7.2 1.9l-5-8.3z" fill="url(#L)" opacity=".75"/><use fill="url(#N)" xlink:href="#aA"/><path clip-path="url(#O)" d="m95.1 12.1h10.4v24.5h-10.4z" fill="url(#P)"/><path clip-path="url(#O)" d="m97.4 23.3c1.8.7 3.6.2 5.7.2v3.2s-5 6-6.1 6.1c-.9.1-1.5-10.6-1.5-10.6s.5.6 1.9 1.1z" fill="url(#Q)" opacity=".3"/><path clip-path="url(#O)" d="m96 14.3c0-.5 2.4-3 3.4 0 1.1 3.1-.5 4.5-.5 4.5h2.1s-1-3.2-.4-4.9c1-2.6 2.8.8 2.8.8s.9-4.5-3.6-4.9c-2.6-.2-3.8 4.9-3.8 4.5z" fill="url(#R)" opacity=".3"/><path d="m83.7 32.8c.7.5 2.1 5.2 1.5 6.6-.6 1.5-3.7 6.6-3.8 7.1 0 0-.2 2.6 1.7 2.8.7.1.8.4.8 0 .1-.5 1.8-1 2.9-1.1.5 0 2.3-.2 3.4.9.9 1 .3 2.9-.9 3.4-.9.4-2.7.9-4.2-1.1-.3-.5-.7 2.2-1.4 2-1.2-.4 0 .2-1.9-.2-4.4-.9-6.9-4.3-6.9-6 0-2.2 8.8-14.4 8.8-14.4z" fill="url(#T)"/><path d="m85.1 39.6c-.8 1.8-3.6 6.4-3.7 6.8 0 0-.4 1.8 1.2 2.7.4.2.8.1 1.2.3 0 0-.2-.8 2.9-1.2.6-.1 2.5-.2 3.4.9.6.9.5.9.4 1.9-.3 1.7-.5 1.7-2.1 1.8-.4 0-1.6.1-2.2-.3-.6-.5-.8-1.1-1.1-1.2-.4-.2-.7 2-1.3 2-1.4.1-2.1-.2-2.7-.4-4.4-.9-3.1-4.1-3.1-5.7 0-1.5 4.1-9.5 6.7-12.2 0-.1 1 3.3.4 4.6z" fill="url(#V)" opacity=".3"/><path d="m91 53.4h-8.1c-.7 0-1.2-.5-1.2-1.2v-.5c0-.7.5-1.2 1.2-1.2h8.1c.7 0 1.2.5 1.2 1.2v.5c0 .7-.6 1.2-1.2 1.2z" fill="url(#W)"/><path d="m92.4 53.6c1.3 0 1.6-.3 1.7 1.1.1.6.3 1.3.8 1.7 1.5 1.3 3.1 1.3 5 1.3 1.6 0 3.4-.1 4.8-.8.5-.3 1-1 1.1-1.5.3-1.2-.6-1.8 1.2-1.8 2.1 0 2.1-3.3 0-3.3-1.5 0-2.7.2-3.8 1.3-1.5 1.6.7 2.5-2.2 2.7-.6.1-3.6.3-3.7-.7-.1-.7-.1-1.4-.5-2-.9-1.5-2.9-1.4-4.4-1.4-2.1.2-2.1 3.5 0 3.4z" fill="url(#X)"/><path d="m82 48.9c.7.2 2.8 1.3 3.1 2.4.7 2.4 3.2 1.5 4.2 1.1 1.2-.5 1.8-2.3.9-3.4-1-1.1-2.7-1-3.2-1-1 .1-2.9.6-3 1.1-.1.4-.2 0-.9 0z" fill="url(#Y)"/><path d="m83 49.2c.7.1.9.4.9 0 .1-.5 2-1 3-1.1.5 0 2.2-.1 3.2 1 .9 1 .3 2.9-.9 3.4-.9.4-2.5.9-3.6-.1-.5-.5-.3-1.6-1.2-1.8-1.8-.5-3.5-2.9-2.7-2.2.9.7 1.3.8 1.3.8z" fill="url(#Z)" opacity=".3"/><path d="m115.6 33.4c-.7.5-1.3 4.5-.7 6s3.7 6.6 3.8 7.1c0 0 .2 2.6-1.7 2.8-.7.1-.8.4-.8 0-.1-.5-1.8-1-2.9-1.1-.5 0-2.3-.2-3.4.9-.9 1-.3 2.9.9 3.4.9.4 2.7.9 4.2-1.1.3-.5.7 2.2 1.4 2 1.2-.4 0 .2 1.9-.2 4.4-.9 6.9-4.3 6.9-6-.1-2.2-9.6-13.8-9.6-13.8z" fill="url(#aa)"/><path d="m114.9 39.6c.8 1.8 3.6 6.4 3.7 6.8 0 0 .4 1.8-1.2 2.7-.4.2-.8.1-1.2.3 0 0 .2-.8-2.9-1.2-.6-.1-2.5-.2-3.4.9-.6.9-.5.9-.4 1.9.3 1.7.5 1.7 2.1 1.8.4 0 1.6.1 2.2-.3.6-.5.8-1.1 1.1-1.2.4-.2.7 2 1.3 2 1.4.1 2.1-.2 2.7-.4 4.4-.9 3.1-4.1 3.1-5.8 0-1.5-4.5-9.5-7.1-12.2 0 0-.5 3.4 0 4.7z" fill="url(#ab)" opacity=".3"/><path d="m116.7 53.4h-9.7c-.7 0-1.2-.5-1.2-1.2v-.5c0-.7.5-1.2 1.2-1.2h9.7c.7 0 1.2.5 1.2 1.2v.5c0 .7-.5 1.2-1.2 1.2z" fill="url(#ac)"/><path d="m118.1 48.9c-.7.2-2.8 1.3-3.1 2.4-.7 2.4-3.2 1.5-4.2 1.1-1.2-.5-1.8-2.3-.9-3.4 1-1.1 2.7-1 3.2-1 1 .1 2.9.6 3 1.1.1.4.2 0 .9 0z" fill="url(#ad)"/><path d="m117.1 49.2c-.7.1-.9.4-.9 0-.1-.5-2-1-3-1.1-.5 0-2.2-.1-3.2 1-.9 1-.3 2.9.9 3.4.9.4 2.5.9 3.6-.1.5-.5.3-1.6 1.2-1.8 1.8-.5 3.5-2.9 2.7-2.2-.9.7-1.3.8-1.3.8z" fill="url(#ae)" opacity=".3"/><path d="m95.5 104.2v1.1c0 .2-.2.4-.4.4l-6.8-.1c-.2 0-.4-.2-.4-.4v-1.1c0-.2.2-.4.4-.4l6.8.1c.2 0 .4.2.4.4z" fill="url(#ag)"/><path d="m112.1 96.9v1.1c0 .2-.2.4-.4.4l-6.8-.1c-.2 0-.4-.2-.4-.4v-1.1c0-.2.2-.4.4-.4l6.8.1c.2.1.4.2.4.4z" fill="url(#ah)"/><path d="m100.6 113.2h-.6c-1 0-1.7-.8-1.7-1.7v-34.9c0-1 .8-1.7 1.7-1.7h.7c1 0 1.7.8 1.7 1.7v34.9c-.1 1-.8 1.7-1.8 1.7z" fill="url(#ai)"/><path d="m97.4 70.5c0 .9-.2 3.4-.4 4.7-.2.8-.4 1.6-.6 2.4-.4 1.7-.4 3.4-.5 5.1 0 1.1-.1 2.2-.1 3.3 0 1.7-.1 3.4-.1 5.1 0 1.4-.1 2.8.2 4.1.1.3.2.7.5.8s.7-.1.9-.4.2-.7.2-1c .1-1.3.1-2.6.2-3.9 0-.4 0-1-.3-1.3-.1-.1-.3-.2-.4-.3 0-.1 0-.2 0-.3-.1-2.3 0-4.6 0-7 0-1.5.1-3 .5-4.5.4-1.4 1.4-3 1.2-4.5l.1-1.9s-.4 0-.8-.1-.6-.7-.6-.3z" fill="url(#aj)"/><path d="m103.7 70.6c0 .9 0 3.1.3 4.4.2.8.2 1.7.4 2.5.4 1.7.4 3.4.5 5.2 0 1.1.1 2.2.1 3.3 0 1.7.1 3.4.1 5.1 0 1.4.1 2.8-.2 4.1-.1.3-.2.7-.5.8s-.7-.1-.9-.4-.2-.7-.2-1c-.1-1.3-.1-2.6-.2-3.9 0-.4 0-1 .3-1.3.1-.1.3-.2.4-.3s.1-.2.1-.4c.1-2.3 0-4.6 0-7 0-1.5-.4-3-.5-4.5-.1-1.8-1.1-2.5-1-4.5l-.1-1.6s.4 0 .8-.1c.2 0 .6-.7.6-.4z" fill="url(#ak)"/><path d="m98.3 92.5c0 1.6-.1 2.5-.5 2.5-.5 0-.5-.8-.5-2.5s.2-2 .5-2 .5.4.5 2z" fill="url(#am)"/><path d="m103.3 92.5c0 1.6-.1 2.5-.5 2.5-.5 0-.5-.8-.5-2.5s.2-2 .5-2 .5.4.5 2z" fill="url(#an)"/><path d="m96.5 66.8c.5.4.6 1.2.6 1.7v1.6c0 .3 0 .7.2.9.1.1.2.2.4.2.5.2 1.1.2 1.6.2 1.3.1 3 0 4.1-.3.3-.1.4-.6.4-.7.1-.6.1-1 .1-1.6 0-.4-.1-.8 0-1.2s.4-.8.9-.9z" fill="url(#ao)"/><circle cx="100.5" cy="69" fill="url(#aq)" r="1.1"/><path d="m103 72.5h-5.1c-.4 0-.7-.3-.7-.7v-.3c0-.4.3-.7.7-.7h5.4c.3 0 .5.2.5.5v.5c-.1.4-.4.7-.8.7z" fill="url(#ar)"/><path d="m106.7 67.9h-13.2c-1.2 0-2.2-1-2.2-2.2l.9-11.6c0-1.2 1-2.2 2.2-2.2h11.2c1.2 0 2.2 1 2.2 2.2l1.1 11.6c-.1 1.2-1 2.2-2.2 2.2z" fill="url(#as)"/><path d="m104.5 66.8h-9c-1.1 0-2-.9-2-2v-9.4c0-1.1.9-2 2-2h9c1.1 0 2 .9 2 2v9.4c0 1.1-.9 2-2 2z" fill="url(#at)" opacity=".75"/><circle cx="96.1" cy="65.7" fill="url(#au)" r=".6"/><circle cx="97.9" cy="65.7" fill="url(#av)" r=".6"/><circle cx="99.8" cy="65.7" fill="url(#aw)" r=".6"/><circle cx="101.7" cy="65.7" fill="url(#ax)" r=".6"/><circle cx="103.8" cy="65.7" fill="url(#ay)" r=".6"/><g fill="#fff"><path d="m100.1 54.8c2.3 0 4.2 2 4.2 4.3s-2 4.2-4.3 4.2-4.2-2-4.2-4.3c0-2.4 1.9-4.2 4.3-4.2m0-.3c-1.2 0-2.3.4-3.2 1.3-.9.8-1.3 2-1.4 3.2 0 1.2.4 2.3 1.3 3.2.8.9 2 1.3 3.2 1.4 1.2 0 2.3-.4 3.2-1.3.9-.8 1.3-2 1.4-3.2 0-1.2-.4-2.3-1.3-3.2s-2-1.4-3.2-1.4z"/><path d="m101.8 57.3v-.1h-.3l-.1-.3.1.1h.3c.1 0 .1 0 .1-.1v-.1-.3-.1.1.3.1s0 0-.1 0h-.3l-.2-.1v-.1-.3s0-.1-.1-.1-.1 0-.1 0 0-.1-.1-.1-.1 0-.1 0 0 0-.1 0c0 0-.1 0-.1.1 0 0 0 .1.1.1h.1s0 0 0 0h .1l.1.3h-.1v.1l.1.2-.6 1c-.2.3-.3.3-.7.3 0 0-.1-.2-.1-.4l-.1-.2c0-.1-.1-.2-.1-.3v-.1s0 0 0-.1h.1v-.1h.1.1s0-.1-.1-.1c0 0-.2 0-.3 0h-.1s-.1 0-.2.1h.1.1v.1h.1v.1.1s-.2.1-.3.1c-.2-.1-.4-.2-.6-.2-.6 0-1 .5-1.1 1 0 .6.5 1 1 1.1.5 0 .9-.4 1-.9 0 .1.1.2.3.2h.2l.1.1h-.1s0 .1.1.1h.2.1s0-.1-.1-.1h-.1l-.1-.2c0-.1.1-.1.1-.2.3 0 .4-.3.6-.4.1-.1.5-.8.5-.8v.1h.1.1v.1c-.4.2-.6.5-.6.9 0 .6.5 1 1 1.1.6 0 1-.5 1.1-1-.1-.6-.5-1.1-1.1-1.1zm-2.7-.5c-.1 0-.1 0 0 0h-.1.1c-.1-.1-.1-.1 0 0h .1s0 0-.1 0zm .1 1.3h-.6s.2-.3.4-.4c0 .1.1.2.2.4zm0 .2c0 .5-.4.8-.8.8-.5 0-.8-.4-.8-.8 0-.5.4-.8.8-.8.2 0 .3.1.5.1-.2.2-.5.5-.5.6-.1 0-.1.1-.1.1 0 .1.1.1.1.1.1 0 .1 0 .1-.1zm.2-.2c-.1-.3-.2-.5-.3-.6.1 0 .2-.1.2-.1l.2.7zm.3.3c-.1 0-.1.1 0 0v .2s0 0-.1 0-.2-.1-.2-.2.1-.2.2-.2.2.1.2.2v.1zm2.1.8c-.5 0-.8-.4-.8-.8 0-.3.2-.6.5-.7l.2.7v.1c0 .1.1.1.1.1.1 0 .1-.1.1-.1 0-.1-.1-.1-.1-.1l-.2-.7h.2c.5 0 .8.4.8.8 0 .3-.4.7-.8.7z"/><path d="m102.9 60c0-.1-.1-.1-.1-.1h-.5c-.1 0-.1.1-.1.1 0 .1.1.1.1.1h.2c-.4.6-1.4 1.1-2.4 1-1 0-2-.5-2.4-1.1h.2c.1 0 .1 0 .1-.1s-.1-.1-.1-.1h-.5c-.1 0-.1.1-.1.1v.5c0 .1.1.1.1.1h.1v-.1-.2c.1.2.3.4.5.5.5.4 1.3.6 2 .6.8 0 1.5-.2 2-.6.2-.2.4-.3.6-.5v.2.1h.1c.1 0 .1-.1.1-.1z"/><path d="m175.7 106.2h3.3v11.4h-3.3z"/></g><path d="m44.9 101.3h4.5v16.6h-4.5z" fill="url(#az)"/><path d="m49.4 106.2h3.3v11.7h-3.3z" fill="#fff"/><path d="m64.5 121.8-15.1-15.6h3.9l7.9 7.7v-7.7h3.3z" fill="#fff"/></svg>