<svg enable-background="new 0 0 471.7 464.4" viewBox="0 0 471.7 464.4" xmlns="http://www.w3.org/2000/svg" xmlns:xlink="http://www.w3.org/1999/xlink"><clipPath id="a"><path d="m0 0h471.7v464.4h-471.7z"/></clipPath><linearGradient id="b" gradientTransform="matrix(-1 0 0 -1 487.1132 568.4617)" gradientUnits="userSpaceOnUse" x1="250.9855" x2="250.9855" y1="30.5608" y2="568.7144"><stop offset=".03517618" stop-color="#4f4d4d"/><stop offset="1" stop-color="#4f4d4d"/></linearGradient><linearGradient id="c"><stop offset="0" stop-color="#d6d6d5" stop-opacity="0"/><stop offset=".07992548" stop-color="#bbbfc8" stop-opacity=".079925"/><stop offset=".2597" stop-color="#828fac" stop-opacity=".2597"/><stop offset=".4343" stop-color="#546796" stop-opacity=".4343"/><stop offset=".5997" stop-color="#2f4784" stop-opacity=".5997"/><stop offset=".7536" stop-color="#153177" stop-opacity=".7536"/><stop offset=".8915" stop-color="#062470" stop-opacity=".8915"/><stop offset="1" stop-color="#001f6d"/></linearGradient><linearGradient id="d" gradientUnits="userSpaceOnUse" x1="90.9285" x2="90.9285" xlink:href="#c" y1="537.9009" y2="182.8462"/><linearGradient id="e" gradientUnits="userSpaceOnUse" x1="124.1288" x2="346.4031" y1="471.766" y2="249.4917"><stop offset="0" stop-color="#d6d6d5" stop-opacity="0"/><stop offset=".06562716" stop-color="#b3d9d0" stop-opacity=".065627"/><stop offset=".1472" stop-color="#8fddcc" stop-opacity=".1472"/><stop offset=".2363" stop-color="#70e0c8" stop-opacity=".2363"/><stop offset=".3329" stop-color="#57e2c5" stop-opacity=".3329"/><stop offset=".4402" stop-color="#43e4c2" stop-opacity=".4402"/><stop offset=".5638" stop-color="#35e5c0" stop-opacity=".5638"/><stop offset=".7182" stop-color="#2de6bf" stop-opacity=".7182"/><stop offset="1" stop-color="#2be6bf"/></linearGradient><linearGradient id="f" gradientTransform="matrix(-1 0 0 1 530.2701 0)" gradientUnits="userSpaceOnUse" x1="148.9432" x2="148.9432" xlink:href="#c" y1="537.9009" y2="183.7709"/><linearGradient id="g"><stop offset="0" stop-color="#d6d6d5" stop-opacity="0"/><stop offset="1" stop-color="#ffc938"/></linearGradient><linearGradient id="h" gradientUnits="userSpaceOnUse" x1="66.0457" x2="278.9973" xlink:href="#g" y1="484.6482" y2="271.6965"/><linearGradient id="i" gradientTransform="matrix(-1 0 0 1 469.7251 0)" gradientUnits="userSpaceOnUse" x1="259.0144" x2="81.8907" xlink:href="#g" y1="467.9976" y2="290.8739"/><linearGradient id="j" gradientUnits="userSpaceOnUse" x1="17.1802" x2="448.1508" y1="407.1897" y2="-23.7808"><stop offset="0" stop-color="#d6d6d5" stop-opacity="0"/><stop offset=".06562716" stop-color="#b3d9b5" stop-opacity=".065627"/><stop offset=".1472" stop-color="#8fdd94" stop-opacity=".1472"/><stop offset=".2363" stop-color="#70e077" stop-opacity=".2363"/><stop offset=".3329" stop-color="#57e260" stop-opacity=".3329"/><stop offset=".4402" stop-color="#43e44e" stop-opacity=".4402"/><stop offset=".5638" stop-color="#35e542" stop-opacity=".5638"/><stop offset=".7182" stop-color="#2de63a" stop-opacity=".7182"/><stop offset="1" stop-color="#2be638"/></linearGradient><linearGradient id="k"><stop offset="0" stop-color="#151b26"/><stop offset="1" stop-color="#151b26"/></linearGradient><linearGradient id="l" gradientUnits="userSpaceOnUse" x1="74.9502" x2="74.9502" xlink:href="#k" y1="80.6827" y2="111.2574"/><linearGradient id="m"><stop offset="0" stop-color="#ed3f50"/><stop offset=".2472" stop-color="#e23244"/><stop offset=".5761" stop-color="#da283b"/><stop offset="1" stop-color="#d72538"/></linearGradient><linearGradient id="n" gradientUnits="userSpaceOnUse" x1="74.9502" x2="74.9502" xlink:href="#m" y1="70.1214" y2="94.0957"/><linearGradient id="o"><stop offset="0" stop-color="#d6d6d5"/><stop offset="1" stop-color="#e3e3e2"/></linearGradient><linearGradient id="p" gradientTransform="matrix(0 -1 1 0 134.0708 531.9889)" gradientUnits="userSpaceOnUse" x1="454.7922" x2="454.7922" xlink:href="#o" y1="-62.1638" y2="-60.7185"/><linearGradient id="q" gradientTransform="matrix(0 -1 1 0 134.0708 531.9889)" gradientUnits="userSpaceOnUse" x1="454.7922" x2="454.7922" xlink:href="#o" y1="-57.5227" y2="-56.0773"/><linearGradient id="r" gradientUnits="userSpaceOnUse" x1="74.9502" x2="74.9502" xlink:href="#k" y1="10.2976" y2="40.8722"/><linearGradient id="s" gradientUnits="userSpaceOnUse" x1="73.0042" x2="73.0042" xlink:href="#m" y1="32.1735" y2="39.0697"/><linearGradient id="t" gradientTransform="matrix(-1 0 0 1 696.905 0)" gradientUnits="userSpaceOnUse" x1="620.0668" x2="620.0668" xlink:href="#m" y1="32.1735" y2="39.0697"/><linearGradient id="u" gradientUnits="userSpaceOnUse" x1="74.9721" x2="74.9721" xlink:href="#o" y1="41.4806" y2="67.7793"/><linearGradient id="v"><stop offset="0" stop-color="#3b2e61"/><stop offset="1" stop-color="#6052a1"/></linearGradient><linearGradient id="w" gradientUnits="userSpaceOnUse" x1="75.3494" x2="83.688" xlink:href="#v" y1="61.6387" y2="61.6387"/><linearGradient id="x" gradientUnits="userSpaceOnUse" x1="65.9135" x2="74.2521" xlink:href="#v" y1="60.4534" y2="60.4534"/><linearGradient id="y" gradientUnits="userSpaceOnUse" x1="74.0084" x2="74.0084" xlink:href="#v" y1="65.67" y2="74.9173"/><linearGradient id="z"><stop offset="0" stop-color="#ffc65b"/><stop offset="1" stop-color="#fab224"/></linearGradient><linearGradient id="A" gradientUnits="userSpaceOnUse" x1="65.4543" x2="82.7985" xlink:href="#z" y1="67.453" y2="67.453"/><linearGradient id="B" gradientUnits="userSpaceOnUse" x1="91.4824" x2="91.4824" xlink:href="#z" y1="37.5658" y2="45.4917"/><linearGradient id="C" gradientUnits="userSpaceOnUse" x1="57.4693" x2="57.4693" xlink:href="#z" y1="37.5658" y2="45.4917"/><linearGradient id="D" gradientTransform="matrix(.9993 .03671309 -.03433254 .9345 6.5604 -.4128)" gradientUnits="userSpaceOnUse" x1="85.8563" x2="85.8563" xlink:href="#v" y1="44.3743" y2="77.3745"/><linearGradient id="E" gradientTransform="matrix(-.9993 .03671309 .03433254 .9345 664.8048 -.4128)" gradientUnits="userSpaceOnUse" x1="607.6252" x2="607.6252" xlink:href="#v" y1="23.8765" y2="56.8767"/><linearGradient id="F"><stop offset="0" stop-color="#3f444e"/><stop offset="1" stop-color="#1b2226"/></linearGradient><linearGradient id="G" gradientUnits="userSpaceOnUse" x1="74.92" x2="74.7698" xlink:href="#F" y1="37.791" y2="41.8805"/><linearGradient id="H" gradientUnits="userSpaceOnUse" x1="67.2037" x2="67.2037" xlink:href="#F" y1="38.3309" y2="43.0622"/><linearGradient id="I" gradientTransform="matrix(-1 0 0 1 705.9939 0)" gradientUnits="userSpaceOnUse" x1="623.0826" x2="623.0826" xlink:href="#F" y1="38.3309" y2="43.0622"/><linearGradient id="J" gradientUnits="userSpaceOnUse" x1="74.9721" x2="74.9721" xlink:href="#F" y1="36.1073" y2="44.0333"/><linearGradient id="K" gradientUnits="userSpaceOnUse" x1="74.9502" x2="74.9502" xlink:href="#F" y1="33.1741" y2="34.6195"/><linearGradient id="L" gradientUnits="userSpaceOnUse" x1="65.4543" x2="82.7985" xlink:href="#o" y1="72.0858" y2="72.0858"/><linearGradient id="M"><stop offset="0" stop-color="#10a290"/><stop offset="1" stop-color="#49b1a6"/></linearGradient><linearGradient id="N" gradientUnits="userSpaceOnUse" x1="91.5749" x2="113.3253" xlink:href="#M" y1="61.2658" y2="61.2658"/><linearGradient id="O" gradientUnits="userSpaceOnUse" x1="372.7334" x2="372.7334" xlink:href="#k" y1="80.6827" y2="111.2574"/><linearGradient id="P" gradientUnits="userSpaceOnUse" x1="372.7334" x2="372.7334" xlink:href="#m" y1="70.1214" y2="94.0957"/><linearGradient id="Q" gradientTransform="matrix(0 -1 1 0 134.0708 531.9889)" gradientUnits="userSpaceOnUse" x1="454.7922" x2="454.7922" xlink:href="#o" y1="235.6194" y2="237.0648"/><linearGradient id="R" gradientTransform="matrix(0 -1 1 0 134.0708 531.9889)" gradientUnits="userSpaceOnUse" x1="454.7922" x2="454.7922" xlink:href="#o" y1="240.2606" y2="241.7059"/><linearGradient id="S" gradientUnits="userSpaceOnUse" x1="372.7334" x2="372.7334" xlink:href="#k" y1="10.2976" y2="40.8722"/><linearGradient id="T" gradientUnits="userSpaceOnUse" x1="370.7874" x2="370.7874" xlink:href="#m" y1="32.1735" y2="39.0697"/><linearGradient id="U" gradientTransform="matrix(-1 0 0 1 696.905 0)" gradientUnits="userSpaceOnUse" x1="322.2836" x2="322.2836" xlink:href="#m" y1="32.1735" y2="39.0697"/><linearGradient id="V" gradientUnits="userSpaceOnUse" x1="372.7553" x2="372.7553" xlink:href="#o" y1="41.4806" y2="67.7793"/><linearGradient id="W" gradientUnits="userSpaceOnUse" x1="373.1326" x2="381.4712" xlink:href="#v" y1="61.6387" y2="61.6387"/><linearGradient id="X" gradientUnits="userSpaceOnUse" x1="363.6967" x2="372.0353" xlink:href="#v" y1="60.4534" y2="60.4534"/><linearGradient id="Y" gradientUnits="userSpaceOnUse" x1="371.7917" x2="371.7917" xlink:href="#v" y1="65.67" y2="74.9173"/><linearGradient id="Z" gradientUnits="userSpaceOnUse" x1="363.2375" x2="380.5818" xlink:href="#z" y1="67.453" y2="67.453"/><linearGradient id="aa" gradientUnits="userSpaceOnUse" x1="389.2657" x2="389.2657" xlink:href="#z" y1="37.5658" y2="45.4917"/><linearGradient id="ab" gradientUnits="userSpaceOnUse" x1="355.2526" x2="355.2526" xlink:href="#z" y1="37.5658" y2="45.4917"/><linearGradient id="ac" gradientTransform="matrix(.9993 .03671309 -.03433254 .9345 6.5604 -.4128)" gradientUnits="userSpaceOnUse" x1="383.4388" x2="383.4388" xlink:href="#v" y1="32.6838" y2="65.6839"/><linearGradient id="ad" gradientTransform="matrix(-.9993 .03671309 .03433254 .9345 664.8048 -.4128)" gradientUnits="userSpaceOnUse" x1="310.0428" x2="310.0428" xlink:href="#v" y1="35.5671" y2="68.5673"/><linearGradient id="ae" gradientUnits="userSpaceOnUse" x1="372.7033" x2="372.5531" xlink:href="#F" y1="37.791" y2="41.8805"/><linearGradient id="af" gradientUnits="userSpaceOnUse" x1="364.987" x2="364.987" xlink:href="#F" y1="38.3309" y2="43.0622"/><linearGradient id="ag" gradientTransform="matrix(-1 0 0 1 705.9939 0)" gradientUnits="userSpaceOnUse" x1="325.2993" x2="325.2993" xlink:href="#F" y1="38.3309" y2="43.0622"/><linearGradient id="ah" gradientUnits="userSpaceOnUse" x1="372.7553" x2="372.7553" xlink:href="#F" y1="36.1073" y2="44.0333"/><linearGradient id="ai" gradientUnits="userSpaceOnUse" x1="372.7334" x2="372.7334" xlink:href="#F" y1="33.1741" y2="34.6195"/><linearGradient id="aj" gradientUnits="userSpaceOnUse" x1="363.2375" x2="380.5818" xlink:href="#o" y1="72.0858" y2="72.0858"/><linearGradient id="ak" gradientUnits="userSpaceOnUse" x1="389.3582" x2="411.1086" xlink:href="#M" y1="61.2658" y2="61.2658"/><linearGradient id="al" gradientUnits="userSpaceOnUse" x1="226.5695" x2="226.5695" xlink:href="#k" y1="426.5797" y2="457.1543"/><linearGradient id="am" gradientUnits="userSpaceOnUse" x1="226.5695" x2="226.5695" xlink:href="#m" y1="416.0183" y2="439.9927"/><linearGradient id="an" gradientTransform="matrix(0 -1 1 0 134.0708 531.9889)" gradientUnits="userSpaceOnUse" x1="108.8953" x2="108.8953" xlink:href="#o" y1="89.4554" y2="90.9008"/><linearGradient id="ao" gradientTransform="matrix(0 -1 1 0 134.0708 531.9889)" gradientUnits="userSpaceOnUse" x1="108.8953" x2="108.8953" xlink:href="#o" y1="94.0966" y2="95.542"/><linearGradient id="ap" gradientUnits="userSpaceOnUse" x1="226.5695" x2="226.5695" xlink:href="#k" y1="356.1945" y2="386.7692"/><linearGradient id="aq" gradientUnits="userSpaceOnUse" x1="224.6234" x2="224.6234" xlink:href="#m" y1="378.0704" y2="384.9666"/><linearGradient id="ar" gradientTransform="matrix(-1 0 0 1 696.905 0)" gradientUnits="userSpaceOnUse" x1="468.4476" x2="468.4476" xlink:href="#m" y1="378.0704" y2="384.9666"/><linearGradient id="as" gradientUnits="userSpaceOnUse" x1="226.5914" x2="226.5914" xlink:href="#o" y1="387.3775" y2="413.6762"/><linearGradient id="at" gradientUnits="userSpaceOnUse" x1="226.9687" x2="235.3073" xlink:href="#v" y1="407.5357" y2="407.5357"/><linearGradient id="au" gradientUnits="userSpaceOnUse" x1="217.5328" x2="225.8714" xlink:href="#v" y1="406.3504" y2="406.3504"/><linearGradient id="av" gradientUnits="userSpaceOnUse" x1="225.6277" x2="225.6277" xlink:href="#v" y1="411.567" y2="420.8142"/><linearGradient id="aw" gradientUnits="userSpaceOnUse" x1="217.0735" x2="234.4178" xlink:href="#z" y1="413.35" y2="413.35"/><linearGradient id="ax" gradientUnits="userSpaceOnUse" x1="243.1017" x2="243.1017" xlink:href="#z" y1="383.4627" y2="391.3887"/><linearGradient id="ay" gradientUnits="userSpaceOnUse" x1="209.0886" x2="209.0886" xlink:href="#z" y1="383.4627" y2="391.3887"/><linearGradient id="az" gradientTransform="matrix(.9993 .03671309 -.03433254 .9345 6.5604 -.4128)" gradientUnits="userSpaceOnUse" x1="250.0723" x2="250.0723" xlink:href="#v" y1="408.0535" y2="441.0536"/><linearGradient id="aA" gradientTransform="matrix(-.9993 .03671309 .03433254 .9345 664.8048 -.4128)" gradientUnits="userSpaceOnUse" x1="468.8071" x2="468.8071" xlink:href="#v" y1="399.4604" y2="432.4606"/><linearGradient id="aB" gradientUnits="userSpaceOnUse" x1="226.5393" x2="226.3891" xlink:href="#F" y1="383.688" y2="387.7775"/><linearGradient id="aC" gradientUnits="userSpaceOnUse" x1="218.823" x2="218.823" xlink:href="#F" y1="384.2279" y2="388.9591"/><linearGradient id="aD" gradientTransform="matrix(-1 0 0 1 705.9939 0)" gradientUnits="userSpaceOnUse" x1="471.4633" x2="471.4633" xlink:href="#F" y1="384.2279" y2="388.9591"/><linearGradient id="aE" gradientUnits="userSpaceOnUse" x1="226.5914" x2="226.5914" xlink:href="#F" y1="382.0043" y2="389.9302"/><linearGradient id="aF" gradientUnits="userSpaceOnUse" x1="226.5695" x2="226.5695" xlink:href="#F" y1="379.0711" y2="380.5164"/><linearGradient id="aG" gradientUnits="userSpaceOnUse" x1="217.0735" x2="234.4178" xlink:href="#o" y1="417.9827" y2="417.9827"/><linearGradient id="aH" gradientUnits="userSpaceOnUse" x1="243.1942" x2="264.9446" xlink:href="#M" y1="407.1627" y2="407.1627"/><linearGradient id="aI" gradientUnits="userSpaceOnUse" x1="142.5074" x2="142.5074" xlink:href="#k" y1="171.4194" y2="201.9941"/><linearGradient id="aJ" gradientUnits="userSpaceOnUse" x1="142.5074" x2="142.5074" xlink:href="#m" y1="160.8581" y2="184.8324"/><linearGradient id="aK" gradientTransform="matrix(0 -1 1 0 134.0708 531.9889)" gradientUnits="userSpaceOnUse" x1="364.0555" x2="364.0555" xlink:href="#o" y1="5.3934" y2="6.8387"/><linearGradient id="aL" gradientTransform="matrix(0 -1 1 0 134.0708 531.9889)" gradientUnits="userSpaceOnUse" x1="364.0555" x2="364.0555" xlink:href="#o" y1="10.0345" y2="11.4799"/><linearGradient id="aM" gradientUnits="userSpaceOnUse" x1="142.5074" x2="142.5074" xlink:href="#k" y1="101.0343" y2="131.6089"/><linearGradient id="aN" gradientUnits="userSpaceOnUse" x1="140.5613" x2="140.5613" xlink:href="#m" y1="122.9102" y2="129.8064"/><linearGradient id="aO" gradientTransform="matrix(-1 0 0 1 696.905 0)" gradientUnits="userSpaceOnUse" x1="552.5096" x2="552.5096" xlink:href="#m" y1="122.9102" y2="129.8064"/><linearGradient id="aP" gradientUnits="userSpaceOnUse" x1="142.5293" x2="142.5293" xlink:href="#o" y1="132.2173" y2="158.5159"/><linearGradient id="aQ" gradientUnits="userSpaceOnUse" x1="142.9066" x2="151.2452" xlink:href="#v" y1="152.3754" y2="152.3754"/><linearGradient id="aR" gradientUnits="userSpaceOnUse" x1="133.4707" x2="141.8093" xlink:href="#v" y1="151.1901" y2="151.1901"/><linearGradient id="aS" gradientUnits="userSpaceOnUse" x1="141.5656" x2="141.5656" xlink:href="#v" y1="156.4067" y2="165.654"/><linearGradient id="aT" gradientUnits="userSpaceOnUse" x1="133.0114" x2="150.3557" xlink:href="#z" y1="158.1897" y2="158.1897"/><linearGradient id="aU" gradientUnits="userSpaceOnUse" x1="159.0396" x2="159.0396" xlink:href="#z" y1="128.3025" y2="136.2284"/><linearGradient id="aV" gradientUnits="userSpaceOnUse" x1="125.0265" x2="125.0265" xlink:href="#z" y1="128.3025" y2="136.2284"/><linearGradient id="aW" gradientTransform="matrix(.9993 .03671309 -.03433254 .9345 6.5604 -.4128)" gradientUnits="userSpaceOnUse" x1="156.6992" x2="156.6992" xlink:href="#v" y1="138.6849" y2="171.6851"/><linearGradient id="aX" gradientTransform="matrix(-.9993 .03671309 .03433254 .9345 664.8048 -.4128)" gradientUnits="userSpaceOnUse" x1="543.4448" x2="543.4448" xlink:href="#v" y1="123.4916" y2="156.4917"/><linearGradient id="aY" gradientUnits="userSpaceOnUse" x1="142.4772" x2="142.327" xlink:href="#F" y1="128.5277" y2="132.6172"/><linearGradient id="aZ" gradientUnits="userSpaceOnUse" x1="134.7609" x2="134.7609" xlink:href="#F" y1="129.0676" y2="133.7989"/><linearGradient id="a0" gradientTransform="matrix(-1 0 0 1 705.9939 0)" gradientUnits="userSpaceOnUse" x1="555.5254" x2="555.5254" xlink:href="#F" y1="129.0676" y2="133.7989"/><linearGradient id="a1" gradientUnits="userSpaceOnUse" x1="142.5293" x2="142.5293" xlink:href="#F" y1="126.844" y2="134.77"/><linearGradient id="a2" gradientUnits="userSpaceOnUse" x1="142.5074" x2="142.5074" xlink:href="#F" y1="123.9108" y2="125.3562"/><linearGradient id="a3" gradientUnits="userSpaceOnUse" x1="133.0114" x2="150.3557" xlink:href="#o" y1="162.8224" y2="162.8224"/><linearGradient id="a4" gradientUnits="userSpaceOnUse" x1="318.3329" x2="318.3329" xlink:href="#k" y1="376.9319" y2="407.5066"/><linearGradient id="a5" gradientUnits="userSpaceOnUse" x1="318.3329" x2="318.3329" xlink:href="#m" y1="366.3706" y2="390.3449"/><linearGradient id="a6" gradientTransform="matrix(0 -1 1 0 134.0708 531.9889)" gradientUnits="userSpaceOnUse" x1="158.543" x2="158.543" xlink:href="#o" y1="181.2189" y2="182.6642"/><linearGradient id="a7" gradientTransform="matrix(0 -1 1 0 134.0708 531.9889)" gradientUnits="userSpaceOnUse" x1="158.543" x2="158.543" xlink:href="#o" y1="185.86" y2="187.3054"/><linearGradient id="a8" gradientUnits="userSpaceOnUse" x1="318.3329" x2="318.3329" xlink:href="#k" y1="306.5468" y2="337.1215"/><linearGradient id="a9" gradientUnits="userSpaceOnUse" x1="316.3869" x2="316.3869" xlink:href="#m" y1="328.4227" y2="335.3189"/><linearGradient id="ba" gradientTransform="matrix(-1 0 0 1 696.905 0)" gradientUnits="userSpaceOnUse" x1="376.6841" x2="376.6841" xlink:href="#m" y1="328.4227" y2="335.3189"/><linearGradient id="bb" gradientUnits="userSpaceOnUse" x1="318.3548" x2="318.3548" xlink:href="#o" y1="337.7298" y2="364.0284"/><linearGradient id="bc" gradientUnits="userSpaceOnUse" x1="318.7321" x2="327.0707" xlink:href="#v" y1="357.8879" y2="357.8879"/><linearGradient id="bd" gradientUnits="userSpaceOnUse" x1="309.2962" x2="317.6348" xlink:href="#v" y1="356.7026" y2="356.7026"/><linearGradient id="be" gradientUnits="userSpaceOnUse" x1="317.3911" x2="317.3911" xlink:href="#v" y1="361.9192" y2="371.1665"/><linearGradient id="bf" gradientUnits="userSpaceOnUse" x1="308.837" x2="326.1812" xlink:href="#z" y1="363.7022" y2="363.7022"/><linearGradient id="bg" gradientUnits="userSpaceOnUse" x1="334.8651" x2="334.8651" xlink:href="#z" y1="333.815" y2="341.7409"/><linearGradient id="bh" gradientUnits="userSpaceOnUse" x1="300.8521" x2="300.8521" xlink:href="#z" y1="333.815" y2="341.7409"/><linearGradient id="bi" gradientTransform="matrix(.9993 .03671309 -.03433254 .9345 6.5604 -.4128)" gradientUnits="userSpaceOnUse" x1="339.9512" x2="339.9512" xlink:href="#v" y1="351.3965" y2="384.3967"/><linearGradient id="bj" gradientTransform="matrix(-.9993 .03671309 .03433254 .9345 664.8048 -.4128)" gradientUnits="userSpaceOnUse" x1="375.2828" x2="375.2828" xlink:href="#v" y1="350.0085" y2="383.0087"/><linearGradient id="bk" gradientUnits="userSpaceOnUse" x1="318.3028" x2="318.1525" xlink:href="#F" y1="334.0402" y2="338.1298"/><linearGradient id="bl" gradientUnits="userSpaceOnUse" x1="310.5865" x2="310.5865" xlink:href="#F" y1="334.5801" y2="339.3114"/><linearGradient id="bm" gradientTransform="matrix(-1 0 0 1 705.9939 0)" gradientUnits="userSpaceOnUse" x1="379.6998" x2="379.6998" xlink:href="#F" y1="334.5801" y2="339.3114"/><linearGradient id="bn" gradientUnits="userSpaceOnUse" x1="318.3548" x2="318.3548" xlink:href="#F" y1="332.3565" y2="340.2825"/><linearGradient id="bo" gradientUnits="userSpaceOnUse" x1="318.3329" x2="318.3329" xlink:href="#F" y1="329.4233" y2="330.8687"/><linearGradient id="bp" gradientUnits="userSpaceOnUse" x1="308.837" x2="326.1812" xlink:href="#o" y1="368.335" y2="368.335"/><linearGradient id="bq" gradientUnits="userSpaceOnUse" x1="79.5728" x2="79.5728" xlink:href="#k" y1="380.7499" y2="411.3246"/><linearGradient id="br" gradientUnits="userSpaceOnUse" x1="79.5728" x2="79.5728" xlink:href="#m" y1="370.1886" y2="394.1629"/><linearGradient id="bs" gradientTransform="matrix(0 -1 1 0 134.0708 531.9889)" gradientUnits="userSpaceOnUse" x1="154.7251" x2="154.7251" xlink:href="#o" y1="-57.5412" y2="-56.0958"/><linearGradient id="bt" gradientTransform="matrix(0 -1 1 0 134.0708 531.9889)" gradientUnits="userSpaceOnUse" x1="154.7251" x2="154.7251" xlink:href="#o" y1="-52.9001" y2="-51.4547"/><linearGradient id="bu" gradientUnits="userSpaceOnUse" x1="79.5728" x2="79.5728" xlink:href="#k" y1="310.3647" y2="340.9394"/><linearGradient id="bv" gradientUnits="userSpaceOnUse" x1="77.6268" x2="77.6268" xlink:href="#m" y1="332.2407" y2="339.1369"/><linearGradient id="bw" gradientTransform="matrix(-1 0 0 1 696.905 0)" gradientUnits="userSpaceOnUse" x1="615.4442" x2="615.4442" xlink:href="#m" y1="332.2407" y2="339.1369"/><linearGradient id="bx" gradientUnits="userSpaceOnUse" x1="79.5947" x2="79.5947" xlink:href="#o" y1="341.5477" y2="367.8464"/><linearGradient id="by" gradientUnits="userSpaceOnUse" x1="79.972" x2="88.3106" xlink:href="#v" y1="361.7059" y2="361.7059"/><linearGradient id="bz" gradientUnits="userSpaceOnUse" x1="70.5361" x2="78.8747" xlink:href="#v" y1="360.5206" y2="360.5206"/><linearGradient id="bA" gradientUnits="userSpaceOnUse" x1="78.6311" x2="78.6311" xlink:href="#v" y1="365.7372" y2="374.9845"/><linearGradient id="bB" gradientUnits="userSpaceOnUse" x1="70.0769" x2="87.4212" xlink:href="#z" y1="367.5202" y2="367.5202"/><linearGradient id="bC" gradientUnits="userSpaceOnUse" x1="96.105" x2="96.105" xlink:href="#z" y1="337.6329" y2="345.5589"/><linearGradient id="bD" gradientUnits="userSpaceOnUse" x1="62.092" x2="62.092" xlink:href="#z" y1="337.6329" y2="345.5589"/><linearGradient id="bE" gradientTransform="matrix(.9993 .03671309 -.03433254 .9345 6.5604 -.4128)" gradientUnits="userSpaceOnUse" x1="101.4922" x2="101.4922" xlink:href="#v" y1="364.8499" y2="397.8501"/><linearGradient id="bF" gradientTransform="matrix(-.9993 .03671309 .03433254 .9345 664.8048 -.4128)" gradientUnits="userSpaceOnUse" x1="614.0222" x2="614.0222" xlink:href="#v" y1="344.715" y2="377.7152"/><linearGradient id="bG" gradientUnits="userSpaceOnUse" x1="79.5427" x2="79.3924" xlink:href="#F" y1="337.8582" y2="341.9477"/><linearGradient id="bH" gradientUnits="userSpaceOnUse" x1="71.8263" x2="71.8263" xlink:href="#F" y1="338.3981" y2="343.1294"/><linearGradient id="bI" gradientTransform="matrix(-1 0 0 1 705.9939 0)" gradientUnits="userSpaceOnUse" x1="618.4599" x2="618.4599" xlink:href="#F" y1="338.3981" y2="343.1294"/><linearGradient id="bJ" gradientUnits="userSpaceOnUse" x1="79.5947" x2="79.5947" xlink:href="#F" y1="336.1745" y2="344.1005"/><linearGradient id="bK" gradientUnits="userSpaceOnUse" x1="79.5728" x2="79.5728" xlink:href="#F" y1="333.2413" y2="334.6866"/><linearGradient id="bL" gradientUnits="userSpaceOnUse" x1="70.0769" x2="87.4212" xlink:href="#o" y1="372.1529" y2="372.1529"/><linearGradient id="bM" gradientUnits="userSpaceOnUse" x1="380.0345" x2="380.0345" xlink:href="#k" y1="380.7499" y2="411.3246"/><linearGradient id="bN" gradientUnits="userSpaceOnUse" x1="380.0345" x2="380.0345" xlink:href="#m" y1="370.1886" y2="394.1629"/><linearGradient id="bO" gradientTransform="matrix(0 -1 1 0 134.0708 531.9889)" gradientUnits="userSpaceOnUse" x1="154.7251" x2="154.7251" xlink:href="#o" y1="242.9205" y2="244.3659"/><linearGradient id="bP" gradientTransform="matrix(0 -1 1 0 134.0708 531.9889)" gradientUnits="userSpaceOnUse" x1="154.7251" x2="154.7251" xlink:href="#o" y1="247.5617" y2="249.007"/><linearGradient id="bQ" gradientUnits="userSpaceOnUse" x1="380.0345" x2="380.0345" xlink:href="#k" y1="310.3647" y2="340.9394"/><linearGradient id="bR" gradientUnits="userSpaceOnUse" x1="378.0885" x2="378.0885" xlink:href="#m" y1="332.2407" y2="339.1369"/><linearGradient id="bS" gradientTransform="matrix(-1 0 0 1 696.905 0)" gradientUnits="userSpaceOnUse" x1="314.9825" x2="314.9825" xlink:href="#m" y1="332.2407" y2="339.1369"/><linearGradient id="bT" gradientUnits="userSpaceOnUse" x1="380.0564" x2="380.0564" xlink:href="#o" y1="341.5477" y2="367.8464"/><linearGradient id="bU" gradientUnits="userSpaceOnUse" x1="380.4337" x2="388.7723" xlink:href="#v" y1="361.7059" y2="361.7059"/><linearGradient id="bV" gradientUnits="userSpaceOnUse" x1="370.9979" x2="379.3365" xlink:href="#v" y1="360.5206" y2="360.5206"/><linearGradient id="bW" gradientUnits="userSpaceOnUse" x1="379.0928" x2="379.0928" xlink:href="#v" y1="365.7372" y2="374.9845"/><linearGradient id="bX" gradientUnits="userSpaceOnUse" x1="370.5386" x2="387.8829" xlink:href="#z" y1="367.5202" y2="367.5202"/><linearGradient id="bY" gradientUnits="userSpaceOnUse" x1="396.5668" x2="396.5668" xlink:href="#z" y1="337.6329" y2="345.5589"/><linearGradient id="bZ" gradientUnits="userSpaceOnUse" x1="362.5537" x2="362.5537" xlink:href="#z" y1="337.6329" y2="345.5589"/><linearGradient id="b0" gradientTransform="matrix(.9993 .03671309 -.03433254 .9345 6.5604 -.4128)" gradientUnits="userSpaceOnUse" x1="401.7514" x2="401.7514" xlink:href="#v" y1="353.0541" y2="386.0543"/><linearGradient id="b1" gradientTransform="matrix(-.9993 .03671309 .03433254 .9345 664.8048 -.4128)" gradientUnits="userSpaceOnUse" x1="313.763" x2="313.763" xlink:href="#v" y1="356.5108" y2="389.511"/><linearGradient id="b2" gradientUnits="userSpaceOnUse" x1="380.0044" x2="379.8542" xlink:href="#F" y1="337.8582" y2="341.9477"/><linearGradient id="b3" gradientUnits="userSpaceOnUse" x1="372.2881" x2="372.2881" xlink:href="#F" y1="338.3981" y2="343.1294"/><linearGradient id="b4" gradientTransform="matrix(-1 0 0 1 705.9939 0)" gradientUnits="userSpaceOnUse" x1="317.9982" x2="317.9982" xlink:href="#F" y1="338.3981" y2="343.1294"/><linearGradient id="b5" gradientUnits="userSpaceOnUse" x1="380.0564" x2="380.0564" xlink:href="#F" y1="336.1745" y2="344.1005"/><linearGradient id="b6" gradientUnits="userSpaceOnUse" x1="380.0345" x2="380.0345" xlink:href="#F" y1="333.2413" y2="334.6866"/><linearGradient id="b7" gradientUnits="userSpaceOnUse" x1="370.5386" x2="387.8829" xlink:href="#o" y1="372.1529" y2="372.1529"/><linearGradient id="b8" gradientTransform="matrix(1 .00847628 -.00847628 1 1772.9747 2635.0796)" gradientUnits="userSpaceOnUse" x1="-1516.067" x2="-1516.067" xlink:href="#k" y1="-2347.0369" y2="-2308.0166"/><linearGradient id="b9" gradientTransform="matrix(-1 -.00847628 -.00847628 1 2188.512 2638.6021)" gradientUnits="userSpaceOnUse" x1="2015.9213" x2="2015.9213" xlink:href="#k" y1="-2346.8096" y2="-2307.7891"/><linearGradient id="ca" gradientTransform="matrix(1 .00847628 -.00847628 1 1772.9747 2635.0796)" gradientUnits="userSpaceOnUse" x1="-1512.2767" x2="-1512.2767" xlink:href="#k" y1="-2438.6455" y2="-2399.625"/><linearGradient id="cb" gradientTransform="matrix(-1 -.00847628 -.00847628 1 2188.512 2638.6021)" gradientUnits="userSpaceOnUse" x1="2017.5374" x2="2017.5374" xlink:href="#k" y1="-2438.5747" y2="-2399.5544"/><linearGradient id="cc"><stop offset="0" stop-color="#d72538"/><stop offset="1" stop-color="#d72538"/></linearGradient><linearGradient id="cd" gradientTransform="matrix(1 .00847628 -.00847628 1 1772.9747 2635.0796)" gradientUnits="userSpaceOnUse" x1="-1608.7566" x2="-1586.5155" xlink:href="#cc" y1="-2338.4177" y2="-2316.1765"/><linearGradient id="ce" gradientTransform="matrix(1 .00847628 -.00847628 1 1772.9747 2635.0796)" gradientUnits="userSpaceOnUse" x1="-1529.9207" x2="-1507.6797" xlink:href="#cc" y1="-2338.645" y2="-2316.4038"/><linearGradient id="cf" gradientTransform="matrix(1 .00847628 -.00847628 1 1772.9747 2635.0796)" gradientUnits="userSpaceOnUse" x1="-1611.1401" x2="-1588.899" xlink:href="#m" y1="-2430.1851" y2="-2407.9441"/><linearGradient id="cg" gradientTransform="matrix(1 .00847628 -.00847628 1 1772.9747 2635.0796)" gradientUnits="userSpaceOnUse" x1="-1525.6448" x2="-1503.4038" xlink:href="#m" y1="-2430.2559" y2="-2408.0146"/><linearGradient id="ch" gradientTransform="matrix(-.00847628 1 -1 -.00847628 1840.8292 2942.2131)" gradientUnits="userSpaceOnUse" x1="-2784.908" x2="-2745.1987" xlink:href="#m" y1="1628.3784" y2="1628.3784"/><linearGradient id="ci" gradientTransform="matrix(-.8422 -.5392 .5392 -.8422 8206.7451 2727.7361)" gradientUnits="userSpaceOnUse" x1="7977.8574" x2="8130.3418" xlink:href="#m" y1="-2208.4668" y2="-2208.4668"/><linearGradient id="cj"><stop offset="0" stop-color="#fab11f"/><stop offset="1" stop-color="#ffc55d"/></linearGradient><linearGradient id="ck" gradientTransform="matrix(1 .0027858 -.0027858 1 1569.5264 2744.2468)" gradientUnits="userSpaceOnUse" x1="-1326.7056" x2="-1312.0754" xlink:href="#cj" y1="-2592.5566" y2="-2592.5566"/><linearGradient id="cl" gradientTransform="matrix(-.0027858 1 -1 -.0027858 1730.8936 2995.2432)" gradientUnits="userSpaceOnUse" x1="-2844.467" x2="-2837.9841" xlink:href="#m" y1="1481.4562" y2="1481.4562"/><linearGradient id="cm"><stop offset="0" stop-color="#d6d6d5"/><stop offset="1" stop-color="#d6d6d5" stop-opacity="0"/></linearGradient><linearGradient id="cn" gradientTransform="matrix(.3551 .9348 -.9348 .3551 1876.1311 2884.8333)" gradientUnits="userSpaceOnUse" x1="-3109.312" x2="-3063.301" xlink:href="#cm" y1="585.285" y2="585.285"/><linearGradient id="co" gradientTransform="matrix(-.00847628 1 1 .00847628 1415.1577 2960.2546)" gradientUnits="userSpaceOnUse" x1="-2721.4702" x2="-2667.947" xlink:href="#cm" y1="-1235.0996" y2="-1235.0996"/><linearGradient id="cp" gradientTransform="matrix(-.00847628 1 -1 -.00847628 2666.3223 2970.8604)" gradientUnits="userSpaceOnUse" x1="-2721.8545" x2="-2667.8687" xlink:href="#cm" y1="2423.1499" y2="2423.1499"/><linearGradient id="cq" gradientTransform="matrix(-.00847628 1 -1 -.00847628 1840.8292 2942.2131)" gradientUnits="userSpaceOnUse" x1="-2608.7571" x2="-2606.416" xlink:href="#cj" y1="1600.7737" y2="1600.7737"/><linearGradient id="cr" gradientTransform="matrix(-.00847628 1 -1 -.00847628 1840.8292 2942.2131)" gradientUnits="userSpaceOnUse" x1="-2608.7571" x2="-2606.416" xlink:href="#cj" y1="1653.7393" y2="1653.7393"/><linearGradient id="cs" gradientTransform="matrix(-.3551 -.9348 .9348 -.3551 2150.4202 2820.812)" gradientUnits="userSpaceOnUse" x1="3046.1013" x2="3069.532" xlink:href="#cm" y1="-887.4547" y2="-887.4547"/><clipPath id="ct"><path d="m193.5 183s .4-43 44.3-39.2c37.8 3.2 40.7 30.1 40.7 34.2s-.5 5.8-.5 5.8z"/></clipPath><linearGradient id="cu"><stop offset="0" stop-color="#414141" stop-opacity="0"/><stop offset="1" stop-color="#737373"/></linearGradient><linearGradient id="cv" gradientTransform="matrix(1 .00847628 -.00847628 1 1772.9747 2635.0796)" gradientUnits="userSpaceOnUse" x1="-1636.6793" x2="-1555.8275" xlink:href="#cu" y1="-2457.9839" y2="-2457.9839"/><linearGradient id="cw" gradientTransform="matrix(-.8422 -.5392 .5392 -.8422 8206.7451 2727.7361)" gradientUnits="userSpaceOnUse" x1="7987.2578" x2="8120.9771" xlink:href="#cu" y1="-2228.8643" y2="-2228.8643"/><linearGradient id="cx" gradientTransform="matrix(1 .0027858 -.0027858 1 1569.5264 2744.2468)" gradientUnits="userSpaceOnUse" x1="-1369.0912" x2="-1354.4609" xlink:href="#cj" y1="-2592.4387" y2="-2592.4387"/><linearGradient id="cy" gradientTransform="matrix(-.0027858 1 -1 -.0027858 1730.8936 2995.2432)" gradientUnits="userSpaceOnUse" x1="-2844.3491" x2="-2837.866" xlink:href="#m" y1="1523.8418" y2="1523.8418"/><g clip-path="url(#a)"><path d="m-.3-.3h472.8v538.2h-472.8z" fill="url(#b)"/></g><path clip-path="url(#a)" d="m182.1 182.8-182.4 207.4v147.7h119.6l62.8-345.7z" fill="url(#d)" opacity=".5"/><path clip-path="url(#a)" d="m280.6 537.9h-90.3v-354.9l90.3.7z" fill="url(#e)" opacity=".5"/><path clip-path="url(#a)" d="m290.1 183.8 182.4 194.7v159.4h-117.3l-65.1-344.8z" fill="url(#f)" opacity=".5"/><path clip-path="url(#a)" d="m190.3 537.9h-71l62.8-345.7 8.2-9.2z" fill="url(#h)" opacity=".5"/><path clip-path="url(#a)" d="m280.6 537.9h74.6l-65.1-344.8-9.5-9.4z" fill="url(#i)" opacity=".5"/><path clip-path="url(#a)" d="m-.3-.3.2 390.2 182.3-207 107.9.9 181.6 193.8v-377.9z" fill="url(#j)" opacity=".2"/><g clip-path="url(#a)"><g fill="#fff"><path d="m144.2 0h6.8v20.3h-6.8z"/><path d="m151 405.6h-6.8v-38.6h6.8zm0-77.1h-6.8v-38.5h6.8zm0-77h-6.8v-38.5h6.8zm0-77.1h-6.8v-38.5h6.8zm0-77h-6.8v-38.5h6.8z"/><path d="m144.2 444.1h6.8v20.3h-6.8z"/></g><g fill="#fff"><path d="m322.8 0h6.8v20.3h-6.8z"/><path d="m329.6 405.6h-6.8v-38.6h6.8zm0-77.1h-6.8v-38.5h6.8zm0-77h-6.8v-38.5h6.8zm0-77.1h-6.8v-38.5h6.8zm0-77h-6.8v-38.5h6.8z"/><path d="m322.8 444.1h6.8v20.3h-6.8z"/></g></g><g clip-path="url(#a)"><g><path d="m75.4 111.3h-1c-.8 0-1.4-.6-1.4-1.4v-27.8c0-.8.6-1.4 1.4-1.4h1c .8 0 1.4.6 1.4 1.4v27.8c0 .7-.6 1.4-1.4 1.4z" fill="url(#l)"/><path d="m75.8 94.1h-1.8c-.8 0-1.4-.6-1.4-1.4v-21.2c0-.8.6-1.4 1.4-1.4h1.8c.8 0 1.4.6 1.4 1.4v21.1c.1.9-.6 1.5-1.4 1.5z" fill="url(#n)"/><path d="m73.4 71.8v10.9c0 .3-.2.5-.5.5h-.4c-.3 0-.5-.2-.5-.5v-10.9c0-.3.2-.5.5-.5h.4c.2-.1.5.2.5.5z" fill="url(#p)"/><path d="m78 71.8v10.9c0 .3-.2.5-.5.5h-.4c-.3 0-.5-.2-.5-.5v-10.9c0-.3.2-.5.5-.5h.4c.3-.1.5.2.5.5z" fill="url(#q)"/><path d="m75.4 40.9h-1c-.8 0-1.4-.6-1.4-1.4v-27.8c0-.8.6-1.4 1.4-1.4h1c .8 0 1.4.6 1.4 1.4v27.8c0 .7-.6 1.4-1.4 1.4z" fill="url(#r)"/><path d="m73 39.1h-.4c-.2 0-.3-.1-.3-.3v-6.3c0-.2.1-.3.3-.3h.4c.4 0 .7.3.7.7v5.5c0 .3-.3.7-.7.7z" fill="url(#s)"/><path d="m76.9 39.1h.4c.2 0 .3-.1.3-.3v-6.3c0-.2-.1-.3-.3-.3h-.4c-.4 0-.7.3-.7.7v5.5c0 .3.3.7.7.7z" fill="url(#t)"/><path d="m73.1 41.5h3.8v26.3h-3.8z" fill="url(#u)"/><path d="m80.6 74.9h-2.2c-1.7 0-3.1-1.4-3.1-3.1v-20.4c0-1.7 1.4-3.1 3.1-3.1h2.2c1.7 0 3.1 1.4 3.1 3.1v20.4c0 1.7-1.4 3.1-3.1 3.1z" fill="url(#w)"/><path d="m71.2 74.9h-2.2c-1.7 0-3.1-1.4-3.1-3.1v-22.7c0-1.7 1.4-3.1 3.1-3.1h2.2c1.7 0 3.1 1.4 3.1 3.1v22.8c0 1.6-1.4 3-3.1 3z" fill="url(#x)"/><path d="m58.4 65.7h31.2v9.2h-31.2z" fill="url(#y)"/><path d="m82.8 67.5c0 6.7-1.9 12.1-8.5 12.1s-8.8-5.4-8.8-12.1c0-3.1 1.1-5 2.9-6.5 1.5-1.2 2.1-2.3 4.3-2.8.8-.2.7-2.8 1.6-2.8s.8 2.2 1.6 2.4c1.9.5 3.1 1.7 4.3 2.7 1.9 1.5 2.6 3.4 2.6 7z" fill="url(#A)"/><circle cx="91.5" cy="41.5" fill="url(#B)" r="4"/><circle cx="57.5" cy="41.5" fill="url(#C)" r="4"/><path d="m90.4 74.9c-1.7-.1-4.5 1.2-4.5-3.1 0-7 2.8-7.4 2.7-12.2 0-2.9-.4-13.9-.4-13.9.1-1.7 1.5-1.6 3.3-1.5 1.7.1 3.1 0 3 1.7l-.8 26c0 1.7-1.5 3.1-3.3 3z" fill="url(#D)"/><path d="m58.8 74.9c1.7-.1 4.5 1.2 4.5-3.1 0-7-2.8-7.4-2.7-12.2 0-2.9.4-13.9.4-13.9-.1-1.7-1.5-1.6-3.3-1.5-1.7.1-3.1 0-3 1.7l.8 26c .1 1.7 1.6 3.1 3.3 3z" fill="url(#E)"/><path d="m90.7 39.8c0-.8-.5-1.5-1.1-1.5h-29.5c-.6 0-1.1.7-1.1 1.5s.5 1.5 1.1 1.5h29.5c.6 0 1.1-.6 1.1-1.5z" fill="url(#G)"/><path d="m64.2 43s6.3 1.2 6-4.6h-6z" fill="url(#H)"/><path d="m85.9 43s-6.3 1.2-6-4.6h6z" fill="url(#I)"/><ellipse cx="75" cy="40.1" fill="url(#J)" rx="3.4" ry="4"/><path d="m82 34.6h-14.1c-.3 0-.5-.2-.5-.5v-.4c0-.3.2-.5.5-.5h14.1c.3 0 .5.2.5.5v.4c0 .3-.2.5-.5.5z" fill="url(#K)"/><path d="m65.5 67s1.6 1.1 1.4 2.5-1.3 1.1-1.2 1.4.2 8.8 8.9 8.6c8.2-.1 8.1-9.5 8.1-9.5s-1.8 0-1.6-1.6c.2-1.5 1.7-1.8 1.7-1.8l-.2-2s-1.9 1.1-2.3 1.9c-.3.6-1.8 2.5-.8 4.4s-.3 3.3-.9 4.1c-.7.9-6.1 1.1-7.8.4-1.8-.8-2.8-2.4-2.5-3.6s.8-4.4 0-4.9-2.4-2.2-2.4-2.2l-.3 1.2z" fill="url(#L)"/></g><g><g><g><path d="m102.5 72.1c-6 0-10.9-4.9-10.9-10.9s4.9-10.9 10.9-10.9 10.9 4.9 10.9 10.9c-.1 6.1-5 10.9-10.9 10.9z" fill="url(#N)"/><path d="m102.5 49.9c-6.3 0-11.4 5.1-11.4 11.4s5.1 11.4 11.4 11.4 11.4-5.1 11.4-11.4c-.1-6.3-5.2-11.4-11.4-11.4zm0 21.7c-5.7 0-10.4-4.7-10.4-10.4s4.7-10.4 10.4-10.4 10.4 4.7 10.4 10.4c-.1 5.8-4.7 10.4-10.4 10.4z" fill="#fff"/></g><path d="m100.8 66.2-4.8-4.8 1.8-1.9 3 3 6.3-6.3 1.9 1.9z" fill="#fff"/></g><path d="m94.8 53.6 15.3 15.4c-4.2 4.2-11.1 4.3-15.3 0-4.2-4.2-4.3-11.1 0-15.4z" fill="#d8d8d8"/></g></g><g clip-path="url(#a)"><g><path d="m373.2 111.3h-1c-.8 0-1.4-.6-1.4-1.4v-27.8c0-.8.6-1.4 1.4-1.4h1c .8 0 1.4.6 1.4 1.4v27.8c0 .7-.6 1.4-1.4 1.4z" fill="url(#O)"/><path d="m373.6 94.1h-1.8c-.8 0-1.4-.6-1.4-1.4v-21.2c0-.8.6-1.4 1.4-1.4h1.8c.8 0 1.4.6 1.4 1.4v21.1c.1.9-.6 1.5-1.4 1.5z" fill="url(#P)"/><path d="m371.1 71.8v10.9c0 .3-.2.5-.5.5h-.4c-.3 0-.5-.2-.5-.5v-10.9c0-.3.2-.5.5-.5h.4c.3-.1.5.2.5.5z" fill="url(#Q)"/><path d="m375.8 71.8v10.9c0 .3-.2.5-.5.5h-.4c-.3 0-.5-.2-.5-.5v-10.9c0-.3.2-.5.5-.5h.4c.2-.1.5.2.5.5z" fill="url(#R)"/><path d="m373.2 40.9h-1c-.8 0-1.4-.6-1.4-1.4v-27.8c0-.8.6-1.4 1.4-1.4h1c .8 0 1.4.6 1.4 1.4v27.8c0 .7-.6 1.4-1.4 1.4z" fill="url(#S)"/><path d="m370.7 39.1h-.4c-.2 0-.3-.1-.3-.3v-6.3c0-.2.1-.3.3-.3h.4c.4 0 .7.3.7.7v5.5c.1.3-.3.7-.7.7z" fill="url(#T)"/><path d="m374.7 39.1h.4c.2 0 .3-.1.3-.3v-6.3c0-.2-.1-.3-.3-.3h-.4c-.4 0-.7.3-.7.7v5.5c-.1.3.3.7.7.7z" fill="url(#U)"/><path d="m370.9 41.5h3.8v26.3h-3.8z" fill="url(#V)"/><path d="m378.4 74.9h-2.2c-1.7 0-3.1-1.4-3.1-3.1v-20.4c0-1.7 1.4-3.1 3.1-3.1h2.2c1.7 0 3.1 1.4 3.1 3.1v20.4c0 1.7-1.4 3.1-3.1 3.1z" fill="url(#W)"/><path d="m369 74.9h-2.2c-1.7 0-3.1-1.4-3.1-3.1v-22.7c0-1.7 1.4-3.1 3.1-3.1h2.2c1.7 0 3.1 1.4 3.1 3.1v22.8c-.1 1.6-1.4 3-3.1 3z" fill="url(#X)"/><path d="m356.2 65.7h31.2v9.2h-31.2z" fill="url(#Y)"/><path d="m380.6 67.5c0 6.7-1.9 12.1-8.5 12.1-6.7 0-8.8-5.4-8.8-12.1 0-3.1 1.1-5 2.9-6.5 1.5-1.2 2.1-2.3 4.3-2.8.8-.2.7-2.8 1.6-2.8s.8 2.2 1.6 2.4c1.9.5 3.1 1.7 4.3 2.7 1.9 1.5 2.6 3.4 2.6 7z" fill="url(#Z)"/><circle cx="389.3" cy="41.5" fill="url(#aa)" r="4"/><circle cx="355.3" cy="41.5" fill="url(#ab)" r="4"/><path d="m388.2 74.9c-1.7-.1-4.5 1.2-4.5-3.1 0-7 2.8-7.4 2.7-12.2 0-2.9-.4-13.9-.4-13.9.1-1.7 1.5-1.6 3.3-1.5 1.7.1 3.1 0 3 1.7l-.8 26c-.1 1.7-1.5 3.1-3.3 3z" fill="url(#ac)"/><path d="m356.6 74.9c1.7-.1 4.5 1.2 4.5-3.1 0-7-2.8-7.4-2.7-12.2 0-2.9.4-13.9.4-13.9-.1-1.7-1.5-1.6-3.3-1.5-1.7.1-3.1 0-3 1.7l.8 26c .1 1.7 1.5 3.1 3.3 3z" fill="url(#ad)"/><path d="m388.5 39.8c0-.8-.5-1.5-1.1-1.5h-29.5c-.6 0-1.1.7-1.1 1.5s.5 1.5 1.1 1.5h29.5c.6 0 1.1-.6 1.1-1.5z" fill="url(#ae)"/><path d="m362 43s6.3 1.2 6-4.6h-6z" fill="url(#af)"/><path d="m383.7 43s-6.3 1.2-6-4.6h6z" fill="url(#ag)"/><ellipse cx="372.8" cy="40.1" fill="url(#ah)" rx="3.4" ry="4"/><path d="m379.8 34.6h-14.1c-.3 0-.5-.2-.5-.5v-.4c0-.3.2-.5.5-.5h14.1c.3 0 .5.2.5.5v.4c0 .3-.2.5-.5.5z" fill="url(#ai)"/><path d="m363.2 67s1.6 1.1 1.4 2.5-1.3 1.1-1.2 1.4.2 8.8 8.9 8.6c8.2-.1 8.1-9.5 8.1-9.5s-1.8 0-1.6-1.6c.2-1.5 1.7-1.8 1.7-1.8l-.2-2s-1.9 1.1-2.3 1.9c-.3.6-1.8 2.5-.8 4.4s-.3 3.3-.9 4.1c-.7.9-6.1 1.1-7.8.4s-2.8-2.4-2.5-3.6.8-4.4 0-4.9-2.4-2.2-2.4-2.2l-.3 1.2z" fill="url(#aj)"/></g><g><g><g><path d="m400.2 72.1c-6 0-10.9-4.9-10.9-10.9s4.9-10.9 10.9-10.9 10.9 4.9 10.9 10.9c0 6.1-4.9 10.9-10.9 10.9z" fill="url(#ak)"/><path d="m400.2 49.9c-6.3 0-11.4 5.1-11.4 11.4s5.1 11.4 11.4 11.4 11.4-5.1 11.4-11.4-5.1-11.4-11.4-11.4zm0 21.7c-5.7 0-10.4-4.7-10.4-10.4s4.7-10.4 10.4-10.4 10.4 4.7 10.4 10.4c0 5.8-4.7 10.4-10.4 10.4z" fill="#fff"/></g><path d="m398.6 66.2-4.8-4.8 1.8-1.9 3 3 6.3-6.3 1.8 1.9z" fill="#fff"/></g><path d="m392.5 53.6 15.4 15.4c-4.2 4.2-11.1 4.3-15.3 0-4.3-4.2-4.3-11.1-.1-15.4z" fill="#d8d8d8"/></g></g><g clip-path="url(#a)"><g><path d="m227.1 457.2h-1c-.8 0-1.4-.6-1.4-1.4v-27.8c0-.8.6-1.4 1.4-1.4h1c .8 0 1.4.6 1.4 1.4v27.8c0 .7-.7 1.4-1.4 1.4z" fill="url(#al)"/><path d="m227.5 440h-1.8c-.8 0-1.4-.6-1.4-1.4v-21.1c0-.8.6-1.4 1.4-1.4h1.8c.8 0 1.4.6 1.4 1.4v21.1c0 .8-.7 1.4-1.4 1.4z" fill="url(#am)"/><path d="m225 417.7v10.9c0 .3-.2.5-.5.5h-.4c-.3 0-.5-.2-.5-.5v-10.9c0-.3.2-.5.5-.5h.4c.2-.1.5.2.5.5z" fill="url(#an)"/><path d="m229.6 417.7v10.9c0 .3-.2.5-.5.5h-.4c-.3 0-.5-.2-.5-.5v-10.9c0-.3.2-.5.5-.5h.4c.3-.1.5.2.5.5z" fill="url(#ao)"/><path d="m227.1 386.8h-1c-.8 0-1.4-.6-1.4-1.4v-27.8c0-.8.6-1.4 1.4-1.4h1c .8 0 1.4.6 1.4 1.4v27.8c0 .7-.7 1.4-1.4 1.4z" fill="url(#ap)"/><path d="m224.6 385h-.4c-.2 0-.3-.1-.3-.3v-6.3c0-.2.1-.3.3-.3h.4c.4 0 .7.3.7.7v5.5c0 .3-.3.7-.7.7z" fill="url(#aq)"/><path d="m228.5 385h .4c.2 0 .3-.1.3-.3v-6.3c0-.2-.1-.3-.3-.3h-.4c-.4 0-.7.3-.7.7v5.5c0 .3.3.7.7.7z" fill="url(#ar)"/><path d="m224.7 387.4h3.8v26.3h-3.8z" fill="url(#as)"/><path d="m232.2 420.8h-2.2c-1.7 0-3.1-1.4-3.1-3.1v-20.4c0-1.7 1.4-3.1 3.1-3.1h2.2c1.7 0 3.1 1.4 3.1 3.1v20.4c0 1.7-1.4 3.1-3.1 3.1z" fill="url(#at)"/><path d="m222.8 420.8h-2.2c-1.7 0-3.1-1.4-3.1-3.1v-22.7c0-1.7 1.4-3.1 3.1-3.1h2.2c1.7 0 3.1 1.4 3.1 3.1v22.8c0 1.6-1.4 3-3.1 3z" fill="url(#au)"/><path d="m210 411.6h31.2v9.2h-31.2z" fill="url(#av)"/><path d="m234.4 413.3c0 6.7-1.9 12.1-8.5 12.1-6.7 0-8.8-5.4-8.8-12.1 0-3.1 1.1-5 2.9-6.5 1.5-1.2 2.1-2.3 4.3-2.8.8-.2.7-2.8 1.6-2.8s.8 2.2 1.6 2.4c1.9.5 3.1 1.7 4.3 2.7 2 1.6 2.6 3.5 2.6 7z" fill="url(#aw)"/><circle cx="243.1" cy="387.4" fill="url(#ax)" r="4"/><circle cx="209.1" cy="387.4" fill="url(#ay)" r="4"/><path d="m242 420.8c-1.7-.1-4.5 1.2-4.5-3.1 0-7 2.8-7.4 2.7-12.2 0-2.9-.4-13.9-.4-13.9.1-1.7 1.5-1.6 3.3-1.5 1.7.1 3.1 0 3 1.7l-.8 26c0 1.7-1.5 3.1-3.3 3z" fill="url(#az)"/><path d="m210.4 420.8c1.7-.1 4.5 1.2 4.5-3.1 0-7-2.8-7.4-2.7-12.2 0-2.9.4-13.9.4-13.9-.1-1.7-1.5-1.6-3.3-1.5-1.7.1-3.1 0-3 1.7l.8 26c .1 1.7 1.6 3.1 3.3 3z" fill="url(#aA)"/><path d="m242.3 385.7c0-.8-.5-1.5-1.1-1.5h-29.5c-.6 0-1.1.7-1.1 1.5s.5 1.5 1.1 1.5h29.5c.6 0 1.1-.7 1.1-1.5z" fill="url(#aB)"/><path d="m215.9 388.9s6.3 1.2 6-4.6h-6z" fill="url(#aC)"/><path d="m237.5 388.9s-6.3 1.2-6-4.6h6z" fill="url(#aD)"/><ellipse cx="226.6" cy="386" fill="url(#aE)" rx="3.4" ry="4"/><path d="m233.6 380.5h-14.1c-.3 0-.5-.2-.5-.5v-.4c0-.3.2-.5.5-.5h14.1c.3 0 .5.2.5.5v.4c.1.3-.2.5-.5.5z" fill="url(#aF)"/><path d="m217.1 412.9s1.6 1.1 1.4 2.5-1.3 1.1-1.2 1.4.2 8.8 8.9 8.6c8.2-.1 8.1-9.5 8.1-9.5s-1.8 0-1.6-1.6 1.7-1.8 1.7-1.8l-.2-2s-1.9 1.1-2.3 1.9c-.3.6-1.8 2.5-.8 4.4s-.3 3.3-.9 4.1c-.7.9-6.1 1.1-7.8.4-1.8-.8-2.8-2.4-2.5-3.6s.8-4.4 0-4.9-2.4-2.2-2.4-2.2l-.3 1.2z" fill="url(#aG)"/></g><g><g><g><path d="m254.1 418c-6 0-10.9-4.9-10.9-10.9s4.9-10.9 10.9-10.9 10.9 4.9 10.9 10.9c-.1 6.1-4.9 10.9-10.9 10.9z" fill="url(#aH)"/><path d="m254.1 395.8c-6.3 0-11.4 5.1-11.4 11.4s5.1 11.4 11.4 11.4 11.4-5.1 11.4-11.4-5.2-11.4-11.4-11.4zm0 21.7c-5.7 0-10.4-4.7-10.4-10.4s4.7-10.4 10.4-10.4 10.4 4.7 10.4 10.4c-.1 5.8-4.7 10.4-10.4 10.4z" fill="#fff"/></g><path d="m252.4 412.1-4.8-4.8 1.9-1.9 2.9 3 6.3-6.3 1.9 1.9z" fill="#fff"/></g><path d="m246.4 399.5 15.4 15.3c-4.2 4.2-11.1 4.3-15.3 0-4.3-4.2-4.4-11-.1-15.3z" fill="#d8d8d8"/></g></g><g clip-path="url(#a)"><g><path d="m143 202h-1c-.8 0-1.4-.6-1.4-1.4v-27.8c0-.8.6-1.4 1.4-1.4h1c .8 0 1.4.6 1.4 1.4v27.8c0 .8-.6 1.4-1.4 1.4z" fill="url(#aI)"/><path d="m143.4 184.8h-1.8c-.8 0-1.4-.6-1.4-1.4v-21.1c0-.8.6-1.4 1.4-1.4h1.8c.8 0 1.4.6 1.4 1.4v21.1c0 .8-.6 1.4-1.4 1.4z" fill="url(#aJ)"/><path d="m140.9 162.5v10.9c0 .3-.2.5-.5.5h-.4c-.3 0-.5-.2-.5-.5v-10.9c0-.3.2-.5.5-.5h.4c.3 0 .5.2.5.5z" fill="url(#aK)"/><path d="m145.6 162.5v10.9c0 .3-.2.5-.5.5h-.4c-.3 0-.5-.2-.5-.5v-10.9c0-.3.2-.5.5-.5h.4c.2 0 .5.2.5.5z" fill="url(#aL)"/><path d="m143 131.6h-1c-.8 0-1.4-.6-1.4-1.4v-27.8c0-.8.6-1.4 1.4-1.4h1c .8 0 1.4.6 1.4 1.4v27.8c0 .8-.6 1.4-1.4 1.4z" fill="url(#aM)"/><path d="m140.5 129.8h-.4c-.2 0-.3-.1-.3-.3v-6.3c0-.2.1-.3.3-.3h.4c.4 0 .7.3.7.7v5.5c0 .4-.3.7-.7.7z" fill="url(#aN)"/><path d="m144.4 129.8h.4c.2 0 .3-.1.3-.3v-6.3c0-.2-.1-.3-.3-.3h-.4c-.4 0-.7.3-.7.7v5.5c0 .4.3.7.7.7z" fill="url(#aO)"/><path d="m140.7 132.2h3.8v26.3h-3.8z" fill="url(#aP)"/><path d="m148.2 165.6h-2.2c-1.7 0-3.1-1.4-3.1-3.1v-20.4c0-1.7 1.4-3.1 3.1-3.1h2.2c1.7 0 3.1 1.4 3.1 3.1v20.4c-.1 1.8-1.4 3.1-3.1 3.1z" fill="url(#aQ)"/><path d="m138.7 165.6h-2.2c-1.7 0-3.1-1.4-3.1-3.1v-22.8c0-1.7 1.4-3.1 3.1-3.1h2.2c1.7 0 3.1 1.4 3.1 3.1v22.8c0 1.8-1.4 3.1-3.1 3.1z" fill="url(#aR)"/><path d="m126 156.4h31.2v9.2h-31.2z" fill="url(#aS)"/><path d="m150.4 158.2c0 6.7-1.9 12.1-8.5 12.1-6.7 0-8.8-5.4-8.8-12.1 0-3.1 1.1-5 2.9-6.5 1.5-1.2 2.1-2.3 4.3-2.8.8-.2.7-2.8 1.6-2.8s.8 2.2 1.6 2.4c1.9.5 3.1 1.7 4.3 2.7 1.9 1.6 2.6 3.5 2.6 7z" fill="url(#aT)"/><circle cx="159" cy="132.3" fill="url(#aU)" r="4"/><circle cx="125" cy="132.3" fill="url(#aV)" r="4"/><path d="m158 165.6c-1.7-.1-4.5 1.2-4.5-3.1 0-7 2.8-7.4 2.7-12.2 0-2.9-.4-13.9-.4-13.9.1-1.7 1.5-1.6 3.3-1.5 1.7.1 3.1 0 3 1.7l-.8 26c-.1 1.8-1.6 3.1-3.3 3z" fill="url(#aW)"/><path d="m126.4 165.6c1.7-.1 4.5 1.2 4.5-3.1 0-7-2.8-7.4-2.7-12.2 0-2.9.4-13.9.4-13.9-.1-1.7-1.5-1.6-3.3-1.5-1.7.1-3.1 0-3 1.7l.8 26c0 1.8 1.5 3.1 3.3 3z" fill="url(#aX)"/><path d="m158.2 130.6c0-.8-.5-1.5-1.1-1.5h-29.5c-.6 0-1.1.7-1.1 1.5s.5 1.5 1.1 1.5h29.5c.7-.1 1.1-.7 1.1-1.5z" fill="url(#aY)"/><path d="m131.8 133.7s6.3 1.2 6-4.6h-6z" fill="url(#aZ)"/><path d="m153.4 133.7s-6.3 1.2-6-4.6h6z" fill="url(#a0)"/><ellipse cx="142.5" cy="130.8" fill="url(#a1)" rx="3.4" ry="4"/><path d="m149.6 125.4h-14.1c-.3 0-.5-.2-.5-.5v-.4c0-.3.2-.5.5-.5h14.1c.3 0 .5.2.5.5v.4c0 .2-.2.5-.5.5z" fill="url(#a2)"/><path d="m133 157.8s1.6 1.1 1.4 2.5-1.3 1.1-1.2 1.4.2 8.8 8.9 8.6c8.2-.1 8.1-9.5 8.1-9.5s-1.8 0-1.6-1.6c.2-1.5 1.7-1.8 1.7-1.8l-.2-2s-1.9 1.1-2.3 1.9c-.3.6-1.8 2.5-.8 4.4s-.3 3.3-.9 4.1c-.7.9-6.1 1.1-7.8.4-1.8-.8-2.8-2.4-2.5-3.6s.8-4.4 0-4.9-2.4-2.2-2.4-2.2l-.3 1.2z" fill="url(#a3)"/></g><g><g><g><path d="m116.2 173.7c-6 0-10.9-4.9-10.9-10.9s4.9-10.9 10.9-10.9 10.9 4.9 10.9 10.9-4.9 10.9-10.9 10.9z" fill="#d82638"/><path d="m116.2 151.4c-6.3 0-11.4 5.1-11.4 11.4s5.1 11.4 11.4 11.4 11.4-5.1 11.4-11.4-5.1-11.4-11.4-11.4zm0 21.8c-5.7 0-10.4-4.7-10.4-10.4s4.7-10.4 10.4-10.4 10.4 4.7 10.4 10.4-4.7 10.4-10.4 10.4z" fill="#fff"/></g></g><path d="m108.5 155.2 15.4 15.3c-4.2 4.2-11.1 4.3-15.3 0-4.3-4.2-4.4-11.1-.1-15.3z" fill="#d8d8d8"/><g><g><path d="m121.2 167.2-.5.5c-.4.4-1 .4-1.4 0l-7.9-7.9c-.4-.4-.4-1 0-1.4l.5-.5c.4-.4 1-.4 1.4 0l7.9 7.9c.4.4.4 1 0 1.4z" fill="#fff"/></g><g><path d="m111.4 167.5c-.5-.5-.5-1.4 0-1.9l7.4-7.4c.5-.5 1.4-.5 1.9 0 .5.5.5 1.4 0 1.9l-7.4 7.4c-.5.5-1.3.5-1.9 0z" fill="#fff"/></g></g></g></g><g clip-path="url(#a)"><g><path d="m318.8 407.5h-1c-.8 0-1.4-.6-1.4-1.4v-27.8c0-.8.6-1.4 1.4-1.4h1c .8 0 1.4.6 1.4 1.4v27.8c0 .8-.6 1.4-1.4 1.4z" fill="url(#a4)"/><path d="m319.2 390.3h-1.8c-.8 0-1.4-.6-1.4-1.4v-21.1c0-.8.6-1.4 1.4-1.4h1.8c.8 0 1.4.6 1.4 1.4v21.1c.1.8-.6 1.4-1.4 1.4z" fill="url(#a5)"/><path d="m316.7 368v10.9c0 .3-.2.5-.5.5h-.4c-.3 0-.5-.2-.5-.5v-10.9c0-.3.2-.5.5-.5h.4c.3 0 .5.2.5.5z" fill="url(#a6)"/><path d="m321.4 368v10.9c0 .3-.2.5-.5.5h-.4c-.3 0-.5-.2-.5-.5v-10.9c0-.3.2-.5.5-.5h.4c.2 0 .5.2.5.5z" fill="url(#a7)"/><path d="m318.8 337.1h-1c-.8 0-1.4-.6-1.4-1.4v-27.8c0-.8.6-1.4 1.4-1.4h1c .8 0 1.4.6 1.4 1.4v27.8c0 .8-.6 1.4-1.4 1.4z" fill="url(#a8)"/><path d="m316.3 335.3h-.3c-.2 0-.3-.1-.3-.3v-6.3c0-.2.1-.3.3-.3h.4c.4 0 .7.3.7.7v5.5c0 .4-.4.7-.8.7z" fill="url(#a9)"/><path d="m320.3 335.3h.4c.2 0 .3-.1.3-.3v-6.3c0-.2-.1-.3-.3-.3h-.4c-.4 0-.7.3-.7.7v5.5c-.1.4.3.7.7.7z" fill="url(#ba)"/><path d="m316.5 337.7h3.8v26.3h-3.8z" fill="url(#bb)"/><path d="m324 371.2h-2.2c-1.7 0-3.1-1.4-3.1-3.1v-20.4c0-1.7 1.4-3.1 3.1-3.1h2.2c1.7 0 3.1 1.4 3.1 3.1v20.4c0 1.7-1.4 3.1-3.1 3.1z" fill="url(#bc)"/><path d="m314.6 371.2h-2.2c-1.7 0-3.1-1.4-3.1-3.1v-22.8c0-1.7 1.4-3.1 3.1-3.1h2.2c1.7 0 3.1 1.4 3.1 3.1v22.8c-.1 1.7-1.4 3.1-3.1 3.1z" fill="url(#bd)"/><path d="m301.8 361.9h31.2v9.2h-31.2z" fill="url(#be)"/><path d="m326.2 363.7c0 6.7-1.9 12.1-8.5 12.1s-8.8-5.4-8.8-12.1c0-3.1 1.1-5 2.9-6.5 1.5-1.2 2.1-2.3 4.3-2.8.8-.2.7-2.8 1.6-2.8s.8 2.2 1.6 2.4c1.9.5 3.1 1.7 4.3 2.7 1.9 1.6 2.6 3.5 2.6 7z" fill="url(#bf)"/><circle cx="334.9" cy="337.8" fill="url(#bg)" r="4"/><circle cx="300.9" cy="337.8" fill="url(#bh)" r="4"/><path d="m333.8 371.1c-1.7-.1-4.5 1.2-4.5-3.1 0-7 2.8-7.4 2.7-12.2 0-2.9-.4-13.9-.4-13.9.1-1.7 1.5-1.6 3.3-1.5 1.7.1 3.1 0 3 1.7l-.8 26c-.1 1.8-1.5 3.1-3.3 3z" fill="url(#bi)"/><path d="m302.2 371.1c1.7-.1 4.5 1.2 4.5-3.1 0-7-2.8-7.4-2.7-12.2 0-2.9.4-13.9.4-13.9-.1-1.7-1.5-1.6-3.3-1.5-1.7.1-3.1 0-3 1.7l.8 26c .1 1.8 1.5 3.1 3.3 3z" fill="url(#bj)"/><path d="m334.1 336.1c0-.8-.5-1.5-1.1-1.5h-29.5c-.6 0-1.1.7-1.1 1.5s.5 1.5 1.1 1.5h29.5c.6 0 1.1-.7 1.1-1.5z" fill="url(#bk)"/><path d="m307.6 339.2s6.3 1.2 6-4.6h-6z" fill="url(#bl)"/><path d="m329.3 339.2s-6.3 1.2-6-4.6h6z" fill="url(#bm)"/><ellipse cx="318.4" cy="336.3" fill="url(#bn)" rx="3.4" ry="4"/><path d="m325.4 330.9h-14.1c-.3 0-.5-.2-.5-.5v-.4c0-.3.2-.5.5-.5h14.1c.3 0 .5.2.5.5v.4c0 .2-.2.5-.5.5z" fill="url(#bo)"/><path d="m308.8 363.3s1.6 1.1 1.4 2.5-1.3 1.1-1.2 1.4.2 8.8 8.9 8.6c8.2-.1 8.1-9.5 8.1-9.5s-1.8 0-1.6-1.6c.2-1.5 1.7-1.8 1.7-1.8l-.2-2s-1.9 1.1-2.3 1.9c-.3.6-1.8 2.5-.8 4.4s-.3 3.3-.9 4.1c-.7.9-6.1 1.1-7.8.4-1.8-.8-2.8-2.4-2.5-3.6s.8-4.4 0-4.9-2.4-2.2-2.4-2.2l-.3 1.2z" fill="url(#bp)"/></g><g><g><g><path d="m292 379.2c-6 0-10.9-4.9-10.9-10.9s4.9-10.9 10.9-10.9 10.9 4.9 10.9 10.9-4.9 10.9-10.9 10.9z" fill="#d82638"/><path d="m292 356.9c-6.3 0-11.4 5.1-11.4 11.4s5.1 11.4 11.4 11.4 11.4-5.1 11.4-11.4-5.1-11.4-11.4-11.4zm0 21.8c-5.7 0-10.4-4.7-10.4-10.4s4.7-10.4 10.4-10.4 10.4 4.7 10.4 10.4-4.7 10.4-10.4 10.4z" fill="#fff"/></g></g><path d="m284.3 360.7 15.4 15.3c-4.2 4.2-11.1 4.3-15.3 0-4.3-4.2-4.3-11.1-.1-15.3z" fill="#d8d8d8"/><g><g><path d="m297.1 372.7-.5.5c-.4.4-1 .4-1.4 0l-7.9-7.9c-.4-.4-.4-1 0-1.4l.5-.5c.4-.4 1-.4 1.4 0l7.9 7.9c.3.4.3 1 0 1.4z" fill="#fff"/></g><g><path d="m287.2 373c-.5-.5-.5-1.4 0-1.9l7.4-7.4c.5-.5 1.4-.5 1.9 0 .5.5.5 1.4 0 1.9l-7.4 7.4c-.5.5-1.3.5-1.9 0z" fill="#fff"/></g></g></g></g><g clip-path="url(#a)"><g><path d="m80.1 411.3h-1c-.8 0-1.4-.6-1.4-1.4v-27.8c0-.8.6-1.4 1.4-1.4h1c .8 0 1.4.6 1.4 1.4v27.8c0 .8-.7 1.4-1.4 1.4z" fill="url(#bq)"/><path d="m80.5 394.2h-1.8c-.8 0-1.4-.6-1.4-1.4v-21.1c0-.8.6-1.4 1.4-1.4h1.8c.8 0 1.4.6 1.4 1.4v21.1c0 .7-.6 1.4-1.4 1.4z" fill="url(#br)"/><path d="m78 371.8v10.9c0 .3-.2.5-.5.5h-.4c-.3 0-.5-.2-.5-.5v-10.9c0-.3.2-.5.5-.5h.4c.2 0 .5.2.5.5z" fill="url(#bs)"/><path d="m82.6 371.8v10.9c0 .3-.2.5-.5.5h-.4c-.3 0-.5-.2-.5-.5v-10.9c0-.3.2-.5.5-.5h.4c.3 0 .5.2.5.5z" fill="url(#bt)"/><path d="m80.1 340.9h-1c-.8 0-1.4-.6-1.4-1.4v-27.8c0-.8.6-1.4 1.4-1.4h1c .8 0 1.4.6 1.4 1.4v27.8c0 .8-.7 1.4-1.4 1.4z" fill="url(#bu)"/><path d="m77.6 339.1h-.4c-.2 0-.3-.1-.3-.3v-6.3c0-.2.1-.3.3-.3h.4c.4 0 .7.3.7.7v5.5c0 .4-.3.7-.7.7z" fill="url(#bv)"/><path d="m81.5 339.1h.4c.2 0 .3-.1.3-.3v-6.3c0-.2-.1-.3-.3-.3h-.4c-.4 0-.7.3-.7.7v5.5c0 .4.3.7.7.7z" fill="url(#bw)"/><path d="m77.7 341.5h3.8v26.3h-3.8z" fill="url(#bx)"/><path d="m85.2 375h-2.2c-1.7 0-3.1-1.4-3.1-3.1v-20.4c0-1.7 1.4-3.1 3.1-3.1h2.2c1.7 0 3.1 1.4 3.1 3.1v20.4c0 1.7-1.4 3.1-3.1 3.1z" fill="url(#by)"/><path d="m75.8 375h-2.2c-1.7 0-3.1-1.4-3.1-3.1v-22.8c0-1.7 1.4-3.1 3.1-3.1h2.2c1.7 0 3.1 1.4 3.1 3.1v22.8c0 1.7-1.4 3.1-3.1 3.1z" fill="url(#bz)"/><path d="m63 365.7h31.2v9.2h-31.2z" fill="url(#bA)"/><path d="m87.4 367.5c0 6.7-1.9 12.1-8.5 12.1s-8.8-5.4-8.8-12.1c0-3.1 1.1-5 2.9-6.5 1.5-1.2 2.1-2.3 4.3-2.8.8-.2.7-2.8 1.6-2.8s.8 2.2 1.6 2.4c1.9.5 3.1 1.7 4.3 2.7 2 1.6 2.6 3.5 2.6 7z" fill="url(#bB)"/><circle cx="96.1" cy="341.6" fill="url(#bC)" r="4"/><circle cx="62.1" cy="341.6" fill="url(#bD)" r="4"/><path d="m95 375c-1.7-.1-4.5 1.2-4.5-3.1 0-7 2.8-7.4 2.7-12.2 0-2.9-.4-13.9-.4-13.9.1-1.7 1.5-1.6 3.3-1.5 1.7.1 3.1 0 3 1.7l-.8 26c0 1.7-1.5 3-3.3 3z" fill="url(#bE)"/><path d="m63.4 375c1.7-.1 4.5 1.2 4.5-3.1 0-7-2.8-7.4-2.7-12.2 0-2.9.4-13.9.4-13.9-.1-1.7-1.5-1.6-3.3-1.5-1.7.1-3.1 0-3 1.7l.8 26c .1 1.7 1.6 3 3.3 3z" fill="url(#bF)"/><path d="m95.3 339.9c0-.8-.5-1.5-1.1-1.5h-29.5c-.6 0-1.1.7-1.1 1.5s.5 1.5 1.1 1.5h29.5c.6 0 1.1-.7 1.1-1.5z" fill="url(#bG)"/><path d="m68.9 343s6.3 1.2 6-4.6h-6z" fill="url(#bH)"/><path d="m90.5 343s-6.3 1.2-6-4.6h6z" fill="url(#bI)"/><ellipse cx="79.6" cy="340.1" fill="url(#bJ)" rx="3.4" ry="4"/><path d="m86.6 334.7h-14.1c-.3 0-.5-.2-.5-.5v-.4c0-.3.2-.5.5-.5h14.1c.3 0 .5.2.5.5v.4c.1.2-.2.5-.5.5z" fill="url(#bK)"/><path d="m70.1 367.1s1.6 1.1 1.4 2.5-1.3 1.1-1.2 1.4.2 8.8 8.9 8.6c8.2-.1 8.1-9.5 8.1-9.5s-1.8 0-1.6-1.6c.2-1.5 1.7-1.8 1.7-1.8l-.2-2s-1.9 1.1-2.3 1.9c-.3.6-1.8 2.5-.8 4.4s-.3 3.3-.9 4.1c-.7.9-6.1 1.1-7.8.4-1.8-.8-2.8-2.4-2.5-3.6s.8-4.4 0-4.9-2.4-2.2-2.4-2.2l-.3 1.2z" fill="url(#bL)"/></g><g><g><g><path d="m107.1 372.2c-6 0-10.9-4.9-10.9-10.9s4.9-10.9 10.9-10.9 10.9 4.9 10.9 10.9c-.1 6-4.9 10.9-10.9 10.9z" fill="#faaf3b"/><path d="m107.1 349.9c-6.3 0-11.4 5.1-11.4 11.4s5.1 11.4 11.4 11.4 11.4-5.1 11.4-11.4-5.2-11.4-11.4-11.4zm0 21.8c-5.7 0-10.4-4.7-10.4-10.4s4.7-10.4 10.4-10.4 10.4 4.7 10.4 10.4c-.1 5.7-4.7 10.4-10.4 10.4z" fill="#fff"/></g><path d="m105.4 366.3-4.8-4.9 1.9-1.8 2.9 3 6.3-6.4 1.9 1.9z" fill="#fff"/></g><path d="m99.4 353.7 15.4 15.3c-4.2 4.2-11.1 4.3-15.3 0-4.3-4.2-4.4-11.1-.1-15.3z" fill="#d8d8d8"/></g></g><g clip-path="url(#a)"><g><path d="m380.5 411.3h-1c-.8 0-1.4-.6-1.4-1.4v-27.8c0-.8.6-1.4 1.4-1.4h1c .8 0 1.4.6 1.4 1.4v27.8c0 .8-.6 1.4-1.4 1.4z" fill="url(#bM)"/><path d="m380.9 394.2h-1.8c-.8 0-1.4-.6-1.4-1.4v-21.1c0-.8.6-1.4 1.4-1.4h1.8c.8 0 1.4.6 1.4 1.4v21.1c.1.7-.6 1.4-1.4 1.4z" fill="url(#bN)"/><path d="m378.4 371.8v10.9c0 .3-.2.5-.5.5h-.4c-.3 0-.5-.2-.5-.5v-10.9c0-.3.2-.5.5-.5h.4c.3 0 .5.2.5.5z" fill="url(#bO)"/><path d="m383.1 371.8v10.9c0 .3-.2.5-.5.5h-.4c-.3 0-.5-.2-.5-.5v-10.9c0-.3.2-.5.5-.5h.4c.2 0 .5.2.5.5z" fill="url(#bP)"/><path d="m380.5 340.9h-1c-.8 0-1.4-.6-1.4-1.4v-27.8c0-.8.6-1.4 1.4-1.4h1c .8 0 1.4.6 1.4 1.4v27.8c0 .8-.6 1.4-1.4 1.4z" fill="url(#bQ)"/><path d="m378 339.1h-.4c-.2 0-.3-.1-.3-.3v-6.3c0-.2.1-.3.3-.3h.4c.4 0 .7.3.7.7v5.5c.1.4-.3.7-.7.7z" fill="url(#bR)"/><path d="m382 339.1h.4c.2 0 .3-.1.3-.3v-6.3c0-.2-.1-.3-.3-.3h-.4c-.4 0-.7.3-.7.7v5.5c-.1.4.3.7.7.7z" fill="url(#bS)"/><path d="m378.2 341.5h3.8v26.3h-3.8z" fill="url(#bT)"/><path d="m385.7 375h-2.2c-1.7 0-3.1-1.4-3.1-3.1v-20.4c0-1.7 1.4-3.1 3.1-3.1h2.2c1.7 0 3.1 1.4 3.1 3.1v20.4c0 1.7-1.4 3.1-3.1 3.1z" fill="url(#bU)"/><path d="m376.3 375h-2.2c-1.7 0-3.1-1.4-3.1-3.1v-22.8c0-1.7 1.4-3.1 3.1-3.1h2.2c1.7 0 3.1 1.4 3.1 3.1v22.8c-.1 1.7-1.4 3.1-3.1 3.1z" fill="url(#bV)"/><path d="m363.5 365.7h31.2v9.2h-31.2z" fill="url(#bW)"/><path d="m387.9 367.5c0 6.7-1.9 12.1-8.5 12.1-6.7 0-8.8-5.4-8.8-12.1 0-3.1 1.1-5 2.9-6.5 1.5-1.2 2.1-2.3 4.3-2.8.8-.2.7-2.8 1.6-2.8s.8 2.2 1.6 2.4c1.9.5 3.1 1.7 4.3 2.7 1.9 1.6 2.6 3.5 2.6 7z" fill="url(#bX)"/><circle cx="396.6" cy="341.6" fill="url(#bY)" r="4"/><circle cx="362.6" cy="341.6" fill="url(#bZ)" r="4"/><path d="m395.5 375c-1.7-.1-4.5 1.2-4.5-3.1 0-7 2.8-7.4 2.7-12.2 0-2.9-.4-13.9-.4-13.9.1-1.7 1.5-1.6 3.3-1.5 1.7.1 3.1 0 3 1.7l-.8 26c-.1 1.7-1.5 3-3.3 3z" fill="url(#b0)"/><path d="m363.9 375c1.7-.1 4.5 1.2 4.5-3.1 0-7-2.8-7.4-2.7-12.2 0-2.9.4-13.9.4-13.9-.1-1.7-1.5-1.6-3.3-1.5-1.7.1-3.1 0-3 1.7l.8 26c .1 1.7 1.5 3 3.3 3z" fill="url(#b1)"/><path d="m395.8 339.9c0-.8-.5-1.5-1.1-1.5h-29.5c-.6 0-1.1.7-1.1 1.5s.5 1.5 1.1 1.5h29.5c.6 0 1.1-.7 1.1-1.5z" fill="url(#b2)"/><path d="m369.3 343s6.3 1.2 6-4.6h-6z" fill="url(#b3)"/><path d="m391 343s-6.3 1.2-6-4.6h6z" fill="url(#b4)"/><ellipse cx="380.1" cy="340.1" fill="url(#b5)" rx="3.4" ry="4"/><path d="m387.1 334.7h-14.1c-.3 0-.5-.2-.5-.5v-.4c0-.3.2-.5.5-.5h14.1c.3 0 .5.2.5.5v.4c0 .2-.2.5-.5.5z" fill="url(#b6)"/><path d="m370.5 367.1s1.6 1.1 1.4 2.5-1.3 1.1-1.2 1.4.2 8.8 8.9 8.6c8.2-.1 8.1-9.5 8.1-9.5s-1.8 0-1.6-1.6 1.7-1.8 1.7-1.8l-.2-2s-1.9 1.1-2.3 1.9c-.3.6-1.8 2.5-.8 4.4s-.3 3.3-.9 4.1c-.7.9-6.1 1.1-7.8.4-1.8-.8-2.8-2.4-2.5-3.6s.8-4.4 0-4.9-2.4-2.2-2.4-2.2l-.3 1.2z" fill="url(#b7)"/></g><g><g><g><path d="m407.5 372.2c-6 0-10.9-4.9-10.9-10.9s4.9-10.9 10.9-10.9 10.9 4.9 10.9 10.9-4.9 10.9-10.9 10.9z" fill="#faaf3b"/><path d="m407.5 349.9c-6.3 0-11.4 5.1-11.4 11.4s5.1 11.4 11.4 11.4 11.4-5.1 11.4-11.4-5.1-11.4-11.4-11.4zm0 21.8c-5.7 0-10.4-4.7-10.4-10.4s4.7-10.4 10.4-10.4 10.4 4.7 10.4 10.4-4.6 10.4-10.4 10.4z" fill="#fff"/></g><path d="m405.9 366.3-4.8-4.9 1.8-1.8 3 3 6.3-6.4 1.8 1.9z" fill="#fff"/></g><path d="m399.8 353.7 15.4 15.3c-4.2 4.2-11.1 4.3-15.3 0-4.3-4.2-4.3-11.1-.1-15.3z" fill="#d8d8d8"/></g></g><g clip-path="url(#a)"><path d="m286 349h-6.8v-1.4h6.8c1.5 0 3.1-.1 4.6-.4l.2 1.3c-1.5.4-3.1.5-4.8.5zm-13.5 0h-6.8v-1.4h6.8zm-13.6 0h-6.8v-1.4h6.8zm-13.6 0h-6.8v-1.4h6.8zm-13.5 0h-6.8v-1.4h6.8zm-13.6 0h-6.8v-1.4h6.8zm-13.6 0h-6.8v-1.4h6.8zm-13.5 0h-4.9c-.6 0-1.3 0-1.9-.1l.1-1.4c.6 0 1.2.1 1.8.1h4.9zm-13.7-1.5c-2.2-.8-4.3-1.8-6.2-3.1l.8-1.1c1.8 1.2 3.8 2.3 5.9 3zm120-1.1-.6-1.2c2-1 3.8-2.2 5.5-3.6l.9 1c-1.7 1.5-3.7 2.8-5.8 3.8zm-131.3-6.6c-1.5-1.8-2.8-3.7-3.8-5.8l1.2-.6c1 2 2.2 3.8 3.6 5.5zm141.8-2.4-1.1-.8c1.2-1.8 2.2-3.8 3-5.9l1.3.4c-.9 2.3-1.9 4.4-3.2 6.3zm-147.8-10c-.3-1.6-.4-3.2-.4-4.8v-2.1h1.4v2.1c0 1.5.1 3.1.4 4.6zm152.3-3-1.4-.1c0-.6.1-1.2.1-1.8v-5h1.4v5c0 .7-.1 1.3-.1 1.9zm-151.4-10.7h-1.4v-6.8h1.4zm151.5-2.9h-1.4v-6.8h1.4zm-151.5-10.7h-1.4v-6.8h1.4zm151.5-2.8h-1.4v-6.8h1.4zm-151.5-10.7h-1.4v-6.8h1.4zm151.5-2.9h-1.4v-6.8h1.4zm-151.5-10.7h-1.4v-6.8h1.4zm151.5-2.9h-1.4v-6.8h1.4zm-151.5-10.7h-1.4v-6.8h1.4zm151.5-2.8h-1.4v-6.8h1.4zm-151.5-10.7h-1.4v-6.8h1.4zm151.5-2.9h-1.4v-6.8h1.4zm-151.5-10.7h-1.4v-6.8h1.4zm151.5-2.9h-1.4v-6.8h1.4zm-151.5-10.6h-1.4v-6.8h1.4zm151.5-2.9h-1.4v-6.8h1.4zm-151.5-10.7h-1.4v-6.8h1.4zm151.5-2.9h-1.4v-6.8h1.4zm-151.5-10.7h-1.4v-6.8h1.4zm151.5-2.9h-1.4v-6.7h1.4zm-151.5-10.6h-1.4v-6.8h1.4zm151.5-2.9h-1.4v-6.8h1.4zm-151.5-10.7h-1.4v-6.8h1.4zm151.5-2.9h-1.4v-6.8h1.4zm-151.5-10.7h-1.4v-6.8h1.4zm151.5-2.8h-1.4v-6.8h1.4zm-151.1-10.6-1.3-.2c.4-2.3 1.1-4.5 2-6.6l1.2.6c-.9 1.9-1.6 4-1.9 6.2zm148.8-2.7c-.6-2.1-1.5-4.1-2.6-6l1.2-.7c1.2 2 2.1 4.1 2.8 6.4zm-143.4-9.2-1-.9c1.5-1.8 3.2-3.4 5.1-4.7l.8 1.1c-1.9 1.3-3.5 2.8-4.9 4.5zm136.7-2c-1.6-1.5-3.4-2.9-5.3-3.9l.7-1.2c2 1.1 3.9 2.5 5.6 4.1zm-126.1-5.6-.5-1.3c2.2-.8 4.4-1.3 6.8-1.5l.1 1.4c-2.2.2-4.3.7-6.4 1.4zm114.7-.8c-2-.5-4-.7-6-.7h-.5v-1.4h.5c2.2 0 4.3.3 6.4.8zm-13.4-.7h-6.8v-1.4h6.8zm-13.5 0h-6.8v-1.4h6.8zm-13.6 0h-6.8v-1.4h6.8zm-13.6 0h-6.8v-1.4h6.8zm-13.5 0h-6.8v-1.4h6.8zm-13.6 0h-6.8v-1.4h6.8zm-13.6 0h-6.8v-1.4h6.8z" fill="#fff"/><g><path d="m276 183.7s-34.3-39.5-40.9-39.8-27.7 13.4-27.7 13.4l-14.1 25.9s-.3-1.7-.2-4.5c0-2 1.6-17.2 8.6-26.3 6.8-8.8 20.9-13.2 32.4-13.2 14.2 0 26.6 1.8 35.2 11.5 12.2 13.7 9.4 28.3 9.4 29.4l-.4 3.7z" fill="#b2b2b2"/><g><path d="m272.4 320.1-73.3-.6h-2.1v2.5c0 1.2.9 2.1 2.1 2.1l73.3.6c1.2 0 2.1-.9 2.1-2.1v-2.5z" fill="#b2b2b2"/><path d="m281.9 294.8c-.1 10.8-.1 19.5-3 19.5-.4 0-3.1 0-3.7 0-3.4 0-3.8-10.1-3.7-19.5s1-17.5 3.8-19.3c.4-.3 3.6-.2 3.9-.2 2.9 0 2.8 8.8 2.7 19.5z" fill="url(#b8)"/><path d="m187.2 294.3c-.1 10.8-.2 19.5 2.7 19.5h3.7c3.4 0 3.9-10 4-19.5.1-9.4-.7-17.5-3.5-19.3-.4-.3-3.5-.2-3.9-.2-2.9-.1-2.9 8.7-3 19.5z" fill="url(#b9)"/><path d="m286.5 203.3c-.1 10.8-.1 19.5-3 19.5-.4 0-3.1 0-3.7 0-3.4 0-3.8-10.1-3.7-19.5s1-17.5 3.8-19.3c.4-.3 3.6-.2 3.9-.2 2.9 0 2.7 8.7 2.7 19.5z" fill="url(#ca)"/><path d="m186.4 202.5c-.1 10.8-.2 19.5 2.7 19.5h3.7c3.4 0 3.9-10 4-19.5.1-9.4-.7-17.5-3.5-19.3-.4-.3-3.5-.2-3.9-.2-3 0-3 8.7-3 19.5z" fill="url(#cb)"/><path d="m197.7 313.9-5.5-.1.4-39h5.4z" fill="url(#cd)"/><path d="m276.5 314.3-5.4-.1.3-39 5.5.1z" fill="url(#ce)"/><path d="m196.1 222.1-5.5-.1.3-39 5.5.1z" fill="url(#cf)"/><path d="m281.6 222.7h-5.5l.3-39h5.5z" fill="url(#cg)"/><path d="m193.5 183s .1-39.7 39.8-39.4c51.2.4 44.6 40.1 44.6 40.1z" fill="url(#ch)"/><path d="m193.5 183-11.2-.1-.1 9.4 11.2 3.1-1.1 118.3s.5 5.7 4.7 5.8 74.7.6 77.5.7c2.8 0 2.2-5.8 2.2-5.8l1.1-118.1 12.3-3.2.1-9.4-16.2-.1z" fill="url(#ci)"/><path d="m264.7 152.2-14.7-.1.1-8.2h14.6z" fill="url(#ck)"/><path d="m273.8 183.6-14.3 38.4-46.3-.4-14.8-38.6z" fill="#d6d6d5"/><path d="m248.3 153.1v-6.5l18.1.1v6.5z" fill="url(#cl)"/><path d="m196.8 197.7 11.6 31.3-.9 40.8-9.5 12.1z" fill="#d6d6d5"/><path d="m237.9 183.1c-24.3-1.1-23.5 29.4-24.6 38.5l46.3.4c-1.6-10.2-3-38-21.7-38.9z" fill="url(#cn)" opacity=".5"/><path d="m203.1 228.4c3.2 0 4.5 30.5 4.4 41.4l-9.5 12.1c.1-10.8 1.9-53.5 5.1-53.5z" fill="url(#co)" opacity=".5"/><path d="m273.5 198.4-12.1 31-1.4 42 13.1 12.8z" fill="#d6d6d5"/><path d="m267.3 228.6c-3.2 0-6.6 32.7-6.7 43.5l10.8 10.5c0-10.8-.9-54-4.1-54z" fill="url(#cp)" opacity=".5"/><path d="m256.3 322.3v-2.4l11.9.1-.1 2.4z" fill="url(#cq)"/><path d="m203.3 321.8v-2.3l11.9.1v2.3z" fill="url(#cr)"/><path d="m203.5 283.1c5.4-6.2 10.1-10.1 10.1-10.1l41.1.7s1.4 1.2 9.7 9.4c7.2 7.1-2.2 6.5-2.2 6.5l-57.7-.1c0-.1-6.3-.2-1-6.4z" fill="#d6d6d5"/><path d="m232.9 284.7c24.3 1.1 20.6-2 21.8-11.1l-41.1-.7c1.5 10.4.6 11 19.3 11.8z" fill="url(#cs)" opacity=".5"/><g><circle clip-path="url(#ct)" cx="197.6" cy="163.7" fill="url(#cv)" opacity=".25" r="40.4"/></g><path d="m270.2 308.7c.1-1.1 3.7-10.9 2.9-16.5-1.6-11-15.3-22.8-15.3-22.8-6.3-.3-44.2-1.2-44.2-1.2s2.2-9.1 1.8-11.6c-1.5-10.2 1.5-19.2 4.7-21.5 1.5-1.1 3.3-1.8 5-2.4 3.6-1.4 7.1-2.8 10.7-4.2 2.8-1.1 5.6-2.2 8.5-3 4.9-1.5 10-3.3 15.2-3.4-12 0-18-.2-29.8-.3-2.2 0-16.5-.1-16.5-.1l-14.8-38.7h-5.2l3.5 14.8 11.6 31.2-.9 40.8s-14.4 21.2-13 30.6c2.2 14.6 12.3 15.7 12.3 15.7l56.1.7c.1-.1 6.5-.3 7.4-8.1z" fill="url(#cw)" opacity=".25"/><path d="m222.3 152.2-14.7-.1.1-8.2h14.6z" fill="url(#cx)"/><path d="m205.9 153.1v-6.5l18.1.1v6.5z" fill="url(#cy)"/></g></g></g></svg>