<?xml version="1.0" encoding="utf-8"?>
<!-- Generator: Adobe Illustrator 22.0.1, SVG Export Plug-In . SVG Version: 6.00 Build 0)  -->
<svg version="1.1" id="Capa_1" xmlns="http://www.w3.org/2000/svg" xmlns:xlink="http://www.w3.org/1999/xlink" x="0px" y="0px"
	 viewBox="0 0 436.6 438.7" style="enable-background:new 0 0 436.6 438.7;" xml:space="preserve">
<style type="text/css">
	.st0{fill:url(#SVGID_1_);}
	.st1{fill:#3B824A;}
	.st2{fill:#FFFFFF;}
	.st3{fill:#B2B2B2;}
	.st4{fill:url(#SVGID_2_);}
	.st5{fill:url(#SVGID_3_);}
	.st6{fill:url(#SVGID_4_);}
	.st7{fill:url(#SVGID_5_);}
	.st8{fill:url(#SVGID_6_);}
	.st9{fill:url(#SVGID_7_);}
	.st10{fill:url(#SVGID_8_);}
	.st11{fill:url(#SVGID_9_);}
	.st12{fill:url(#SVGID_10_);}
	.st13{fill:url(#SVGID_11_);}
	.st14{fill:url(#SVGID_12_);}
	.st15{fill:#D6D5D4;}
	.st16{fill:url(#SVGID_13_);}
	.st17{opacity:0.5;fill:url(#SVGID_14_);}
	.st18{opacity:0.5;fill:url(#SVGID_15_);}
	.st19{opacity:0.5;fill:url(#SVGID_16_);}
	.st20{fill:url(#SVGID_17_);}
	.st21{fill:url(#SVGID_18_);}
	.st22{fill:url(#SVGID_19_);}
	.st23{opacity:0.5;fill:url(#SVGID_20_);}
	.st24{fill:url(#SVGID_21_);}
	.st25{fill:url(#SVGID_22_);}
	.st26{opacity:0.25;clip-path:url(#SVGID_24_);fill:url(#SVGID_25_);}
	.st27{opacity:0.25;clip-path:url(#SVGID_27_);fill:url(#SVGID_28_);}
	.st28{fill:url(#SVGID_29_);}
	.st29{fill:url(#SVGID_30_);}
	.st30{opacity:0.25;fill:url(#SVGID_31_);}
	.st31{fill:url(#SVGID_32_);}
	.st32{fill:url(#SVGID_33_);}
	.st33{fill:#BABCBE;}
	.st34{fill:#F9CF3B;}
	.st35{fill:url(#SVGID_34_);}
	.st36{fill:url(#SVGID_35_);}
	.st37{fill:url(#SVGID_36_);}
	.st38{fill:url(#SVGID_37_);}
	.st39{fill:url(#SVGID_38_);}
	.st40{fill:url(#SVGID_39_);}
	.st41{fill:url(#SVGID_40_);}
	.st42{fill:url(#SVGID_41_);}
	.st43{fill:url(#SVGID_42_);}
	.st44{fill:url(#SVGID_43_);}
	.st45{fill:url(#SVGID_44_);}
	.st46{fill:url(#SVGID_45_);}
	.st47{fill:url(#SVGID_46_);}
	.st48{fill:url(#SVGID_47_);}
	.st49{fill:url(#SVGID_48_);}
	.st50{fill:url(#SVGID_49_);}
	.st51{fill:url(#SVGID_50_);}
	.st52{fill:url(#SVGID_51_);}
	.st53{fill:url(#SVGID_52_);}
	.st54{fill:url(#SVGID_53_);}
	.st55{fill:url(#SVGID_54_);}
	.st56{fill:url(#SVGID_55_);}
	.st57{fill:url(#SVGID_56_);}
	.st58{fill:url(#SVGID_57_);}
	.st59{fill:url(#SVGID_58_);}
	.st60{fill:url(#SVGID_59_);}
	.st61{fill:url(#SVGID_60_);}
	.st62{fill:#0D9A86;}
	.st63{fill:url(#SVGID_61_);}
	.st64{fill:url(#SVGID_62_);}
	.st65{fill:url(#SVGID_63_);}
	.st66{fill:url(#SVGID_64_);}
	.st67{fill:url(#SVGID_65_);}
	.st68{fill:url(#SVGID_66_);}
	.st69{fill:url(#SVGID_67_);}
	.st70{fill:url(#SVGID_68_);}
	.st71{fill:url(#SVGID_69_);}
	.st72{fill:#B1B4B5;}
</style>
<g>
	<g>
		<linearGradient id="SVGID_1_" gradientUnits="userSpaceOnUse" x1="218.318" y1="438.747" x2="218.318" y2="0">
			<stop  offset="3.517618e-02" style="stop-color:#4F4D4D"/>
			<stop  offset="1" style="stop-color:#4F4D4D"/>
		</linearGradient>
		<rect x="0" y="0" class="st0" width="436.6" height="438.7"/>
	</g>
	<g>
		
			<rect x="263" y="-11.3" transform="matrix(3.954685e-11 1 -1 3.954685e-11 284.1792 -256.5357)" class="st1" width="14.7" height="50.2"/>
		
			<rect x="263" y="13" transform="matrix(3.886473e-11 1 -1 3.886473e-11 308.4241 -232.2908)" class="st1" width="14.7" height="50.2"/>
		
			<rect x="263" y="36.3" transform="matrix(3.880255e-11 1 -1 3.880255e-11 331.767 -208.9479)" class="st1" width="14.7" height="50.2"/>
		
			<rect x="263" y="59.6" transform="matrix(3.886473e-11 1 -1 3.886473e-11 355.1099 -185.6051)" class="st1" width="14.7" height="50.2"/>
		
			<rect x="263" y="83" transform="matrix(3.886473e-11 1 -1 3.886473e-11 378.4527 -162.2622)" class="st1" width="14.7" height="50.2"/>
		
			<rect x="263" y="106.3" transform="matrix(3.886473e-11 1 -1 3.886473e-11 401.7956 -138.9193)" class="st1" width="14.7" height="50.2"/>
	</g>
	<g>
		<polygon class="st1" points="153.3,327.2 153.3,234.6 305.9,234.6 305.9,327.2 		"/>
		<path class="st2" d="M306.2,329.7H150.3V232l155.9,0V329.7z M156.2,324.6h144.1v-87.5l-144.1,0V324.6z"/>
	</g>
	<path class="st2" d="M158.8,403.3h-8.4v-50.5h8.4V403.3z"/>
	<rect y="230.6" class="st2" width="312.3" height="6.6"/>
	<g>
		<rect x="96.4" y="157.1" class="st2" width="14.7" height="63.5"/>
		<rect x="119.7" y="157.1" class="st2" width="14.7" height="63.5"/>
		<rect x="143.1" y="157.1" class="st2" width="14.7" height="63.5"/>
		<rect x="166.4" y="157.1" class="st2" width="14.7" height="63.5"/>
		<rect x="189.8" y="157.1" class="st2" width="14.7" height="63.5"/>
		<rect x="213.1" y="157.1" class="st2" width="14.7" height="63.5"/>
		<rect x="236.5" y="157.1" class="st2" width="14.7" height="63.5"/>
		<rect x="259.8" y="157.1" class="st2" width="14.7" height="63.5"/>
		<rect x="283.1" y="157.1" class="st2" width="14.7" height="63.5"/>
	</g>
	<g>
		<rect x="26.4" y="157.1" class="st2" width="14.7" height="63.5"/>
		<rect x="49.7" y="157.1" class="st2" width="14.7" height="63.5"/>
		<rect x="73.1" y="157.1" class="st2" width="14.7" height="63.5"/>
	</g>
	<g>
		<rect x="3" y="157.1" class="st2" width="14.7" height="63.5"/>
	</g>
	<g>
		
			<rect x="354.8" y="70.6" transform="matrix(4.500140e-11 -1 1 4.500140e-11 262.7507 461.601)" class="st2" width="14.7" height="57.7"/>
		
			<rect x="354.8" y="47.2" transform="matrix(4.487794e-11 -1 1 4.487794e-11 286.0936 438.2581)" class="st2" width="14.7" height="57.7"/>
		
			<rect x="354.8" y="93.9" transform="matrix(4.438234e-11 -1 1 4.438234e-11 239.4078 484.9438)" class="st2" width="14.7" height="57.7"/>
		
			<rect x="354.8" y="23.9" transform="matrix(4.574569e-11 -1 1 4.574569e-11 309.4365 414.9152)" class="st2" width="14.7" height="57.7"/>
		
			<rect x="354.8" y="0.5" transform="matrix(4.487794e-11 -1 1 4.487794e-11 332.7794 391.5723)" class="st2" width="14.7" height="57.7"/>
		
			<rect x="355.7" y="-21.5" transform="matrix(5.101170e-11 -1 1 5.101170e-11 354.8082 369.5435)" class="st2" width="12.9" height="57.7"/>
	</g>
	<g id="camioneta_1_">
		<path class="st3" d="M289.6,66.4l-53.9-41.2l-1.4-1.1l1.3-1.7c0.6-0.8,1.7-0.9,2.5-0.3L292,63.3c0.8,0.6,0.9,1.7,0.3,2.5l-1.3,1.7
			L289.6,66.4z"/>
		<g>
			<path class="st3" d="M179,205.7L129.7,168l-1.4-1.1l-1.3,1.7c-0.6,0.8-0.4,1.9,0.3,2.5l49.3,37.7c0.8,0.6,1.9,0.4,2.5-0.3
				l1.3-1.7L179,205.7z"/>
			
				<linearGradient id="SVGID_2_" gradientUnits="userSpaceOnUse" x1="1939.9658" y1="1370.3456" x2="1939.9658" y2="1403.3629" gradientTransform="matrix(0.7942 0.6076 -0.6076 0.7942 -501.9341 -2090.344)">
				<stop  offset="0" style="stop-color:#151B26"/>
				<stop  offset="1" style="stop-color:#151B26"/>
			</linearGradient>
			<path class="st4" d="M199.7,192.6c-5.5,7.2-10,13.1-11.9,11.7c-0.2-0.2-2.1-1.6-2.5-1.9c-2.3-1.7,2.6-8.8,7.4-15.1
				c4.8-6.3,9.5-11.3,12.4-11.1c0.4,0,2.5,1.7,2.7,1.9C209.8,179.5,205.2,185.3,199.7,192.6z"/>
			
				<linearGradient id="SVGID_3_" gradientUnits="userSpaceOnUse" x1="-1412.8319" y1="1370.3456" x2="-1412.8319" y2="1403.3629" gradientTransform="matrix(-0.7942 -0.6076 -0.6076 0.7942 -139.2249 -1812.861)">
				<stop  offset="0" style="stop-color:#151B26"/>
				<stop  offset="1" style="stop-color:#151B26"/>
			</linearGradient>
			<path class="st5" d="M136.7,144.4c-5.5,7.2-10.1,13.1-8.1,14.6c0.2,0.2,2.1,1.6,2.5,1.9c2.3,1.7,7.8-4.8,12.6-11.1
				c4.8-6.3,8.4-12.2,7.5-14.9c-0.1-0.4-2.3-2-2.5-2.2C146.7,131.3,142.3,137.2,136.7,144.4z"/>
			
				<linearGradient id="SVGID_4_" gradientUnits="userSpaceOnUse" x1="1942.819" y1="1258.6351" x2="1942.819" y2="1291.6525" gradientTransform="matrix(0.7942 0.6076 -0.6076 0.7942 -501.9341 -2090.344)">
				<stop  offset="0" style="stop-color:#151B26"/>
				<stop  offset="1" style="stop-color:#151B26"/>
			</linearGradient>
			<path class="st6" d="M269.8,105.6c-5.5,7.2-10,13.1-11.9,11.7c-0.2-0.2-2.1-1.6-2.5-1.9c-2.3-1.7,2.6-8.8,7.4-15.1
				c4.8-6.3,9.5-11.3,12.4-11.1c0.4,0,2.5,1.7,2.7,1.9C279.9,92.5,275.4,98.3,269.8,105.6z"/>
			
				<linearGradient id="SVGID_5_" gradientUnits="userSpaceOnUse" x1="-1410.8312" y1="1258.6351" x2="-1410.8312" y2="1291.6525" gradientTransform="matrix(-0.7942 -0.6076 -0.6076 0.7942 -139.2249 -1812.861)">
				<stop  offset="0" style="stop-color:#151B26"/>
				<stop  offset="1" style="stop-color:#151B26"/>
			</linearGradient>
			<path class="st7" d="M203,54.5c-5.5,7.2-10.1,13.1-8.1,14.6c0.2,0.2,2.1,1.6,2.5,1.9c2.3,1.7,7.8-4.8,12.6-11.1
				c4.8-6.3,8.4-12.2,7.5-14.9c-0.1-0.4-2.3-2-2.5-2.2C213,41.3,208.6,47.2,203,54.5z"/>
			
				<linearGradient id="SVGID_6_" gradientUnits="userSpaceOnUse" x1="1862.4128" y1="1377.4465" x2="1881.2323" y2="1396.2659" gradientTransform="matrix(0.7942 0.6076 -0.6076 0.7942 -501.9341 -2090.344)">
				<stop  offset="0" style="stop-color:#D72538"/>
				<stop  offset="1" style="stop-color:#D72538"/>
			</linearGradient>
			<polygon class="st8" points="133.9,163 130.2,160.2 150.3,134 153.9,136.8 			"/>
			
				<linearGradient id="SVGID_7_" gradientUnits="userSpaceOnUse" x1="1928.2435" y1="1377.4465" x2="1947.0629" y2="1396.2659" gradientTransform="matrix(0.7942 0.6076 -0.6076 0.7942 -501.9341 -2090.344)">
				<stop  offset="0" style="stop-color:#D72538"/>
				<stop  offset="1" style="stop-color:#D72538"/>
			</linearGradient>
			<polygon class="st9" points="186.2,203 182.5,200.2 202.5,174 206.2,176.8 			"/>
			
				<linearGradient id="SVGID_8_" gradientUnits="userSpaceOnUse" x1="1859.7627" y1="1265.7341" x2="1878.582" y2="1284.5535" gradientTransform="matrix(0.7942 0.6076 -0.6076 0.7942 -501.9341 -2090.344)">
				<stop  offset="0" style="stop-color:#D72538"/>
				<stop  offset="1" style="stop-color:#D72538"/>
			</linearGradient>
			<polygon class="st10" points="199.6,72.7 196,69.9 216,43.6 219.7,46.4 			"/>
			
				<linearGradient id="SVGID_9_" gradientUnits="userSpaceOnUse" x1="1931.5076" y1="1265.7341" x2="1950.3269" y2="1284.5535" gradientTransform="matrix(0.7942 0.6076 -0.6076 0.7942 -501.9341 -2090.344)">
				<stop  offset="0" style="stop-color:#D72538"/>
				<stop  offset="1" style="stop-color:#D72538"/>
			</linearGradient>
			<polygon class="st11" points="256.6,116.3 252.9,113.4 273,87.2 276.7,90 			"/>
			
				<linearGradient id="SVGID_10_" gradientUnits="userSpaceOnUse" x1="1842.0283" y1="-2710.2083" x2="1875.7129" y2="-2710.2083" gradientTransform="matrix(-0.6076 0.7942 -0.7942 -0.6076 -770.6276 -3063.9739)">
				<stop  offset="0" style="stop-color:#ED4051"/>
				<stop  offset="0.2586" style="stop-color:#E13244"/>
				<stop  offset="0.5825" style="stop-color:#DA283B"/>
				<stop  offset="1" style="stop-color:#D72538"/>
			</linearGradient>
			<polygon class="st12" points="213.8,50.8 234.3,24.1 291,67.5 270.6,94.2 			"/>
			
				<linearGradient id="SVGID_11_" gradientUnits="userSpaceOnUse" x1="1875.7129" y1="-2710.2083" x2="1953.5333" y2="-2710.2083" gradientTransform="matrix(-0.6076 0.7942 -0.7942 -0.6076 -770.6276 -3063.9739)">
				<stop  offset="0" style="stop-color:#ED4051"/>
				<stop  offset="1" style="stop-color:#D72538"/>
			</linearGradient>
			<polygon class="st13" points="166.6,112.6 213.8,50.8 270.6,94.2 223.3,156 			"/>
			
				<linearGradient id="SVGID_12_" gradientUnits="userSpaceOnUse" x1="2015.0337" y1="1177.1758" x2="2027.4132" y2="1177.1758" gradientTransform="matrix(0.7942 0.6076 -0.6076 0.7942 -608.7273 -2101.5723)">
				<stop  offset="0" style="stop-color:#F8B01C"/>
				<stop  offset="1" style="stop-color:#FDC55F"/>
			</linearGradient>
			<polygon class="st14" points="284.1,68 274.3,60.5 278.5,55 288.4,62.5 			"/>
			<polygon class="st15" points="267.8,92.1 238.7,110.9 207.5,87.1 217.2,53.4 			"/>
			
				<linearGradient id="SVGID_13_" gradientUnits="userSpaceOnUse" x1="1842.0283" y1="-2734.8882" x2="1847.514" y2="-2734.8882" gradientTransform="matrix(-0.6076 0.7942 -0.7942 -0.6076 -770.6276 -3063.9739)">
				<stop  offset="0" style="stop-color:#ED4051"/>
				<stop  offset="1" style="stop-color:#D72538"/>
			</linearGradient>
			<polygon class="st16" points="272.9,60.5 276.2,56.1 288.3,65.4 285,69.8 			"/>
			<polygon class="st15" points="208.6,62.5 200.6,89.6 187.9,106.2 173.8,108 			"/>
			
				<linearGradient id="SVGID_14_" gradientUnits="userSpaceOnUse" x1="2447.696" y1="-1850.3987" x2="2486.6287" y2="-1850.3987" gradientTransform="matrix(-0.2779 0.9606 -0.9606 -0.2779 -863.7957 -2796.595)">
				<stop  offset="0" style="stop-color:#D6D5D4"/>
				<stop  offset="1" style="stop-color:#D6D5D4;stop-opacity:0"/>
			</linearGradient>
			<path class="st17" d="M243.8,73.5c-15.9-13.1-30.8,8-36.2,13.5l31.1,23.8C242.8,103.1,256,83.6,243.8,73.5z"/>
			
				<linearGradient id="SVGID_15_" gradientUnits="userSpaceOnUse" x1="1892.135" y1="1315.9404" x2="1923.7981" y2="1315.9404" gradientTransform="matrix(-0.6076 0.7942 0.7942 0.6076 301.5572 -2216.4639)">
				<stop  offset="0" style="stop-color:#D6D5D4"/>
				<stop  offset="1" style="stop-color:#D6D5D4;stop-opacity:0"/>
			</linearGradient>
			<path class="st18" d="M197.1,85.9c2.2,1.7-3.6,13-9.2,20.2l-14,1.9C179.4,100.7,194.9,84.3,197.1,85.9z"/>
			<polygon class="st15" points="260.1,102 236.2,116.8 223.5,133.4 225.3,147.4 			"/>
			
				<linearGradient id="SVGID_16_" gradientUnits="userSpaceOnUse" x1="1892.135" y1="-1911.605" x2="1923.7981" y2="-1911.605" gradientTransform="matrix(-0.6076 0.7942 -0.7942 -0.6076 -127.9778 -2545.0706)">
				<stop  offset="0" style="stop-color:#D6D5D4"/>
				<stop  offset="1" style="stop-color:#D6D5D4;stop-opacity:0"/>
			</linearGradient>
			<path class="st19" d="M240.6,119.2c-2.2-1.7-11.5,6.9-17.1,14.2l1.9,14C230.9,140.2,242.8,120.9,240.6,119.2z"/>
			
				<linearGradient id="SVGID_17_" gradientUnits="userSpaceOnUse" x1="2019.8668" y1="-2732.2957" x2="2021.8478" y2="-2732.2957" gradientTransform="matrix(-0.6076 0.7942 -0.7942 -0.6076 -770.6276 -3063.9739)">
				<stop  offset="0" style="stop-color:#F8B01C"/>
				<stop  offset="1" style="stop-color:#FDC55F"/>
			</linearGradient>
			<polygon class="st20" points="167,199 168.2,197.4 176.1,203.5 174.9,205.1 			"/>
			
				<linearGradient id="SVGID_18_" gradientUnits="userSpaceOnUse" x1="2019.8668" y1="-2687.4788" x2="2021.8478" y2="-2687.4788" gradientTransform="matrix(-0.6076 0.7942 -0.7942 -0.6076 -770.6276 -3063.9739)">
				<stop  offset="0" style="stop-color:#F8B01C"/>
				<stop  offset="1" style="stop-color:#FDC55F"/>
			</linearGradient>
			<polygon class="st21" points="131.4,171.7 132.6,170.2 140.5,176.3 139.3,177.8 			"/>
			<polygon class="st15" points="177,112.2 189.8,110.3 220.9,134.1 221.9,146.9 			"/>
			
				<linearGradient id="SVGID_19_" gradientUnits="userSpaceOnUse" x1="1871.8815" y1="1343.7057" x2="1937.8542" y2="1409.6785" gradientTransform="matrix(0.7942 0.6076 -0.6076 0.7942 -501.9341 -2090.344)">
				<stop  offset="0" style="stop-color:#D72538"/>
				<stop  offset="1" style="stop-color:#D72538"/>
			</linearGradient>
			<polygon class="st22" points="180.4,206.8 128.3,166.9 168.6,114.2 220.7,154.1 			"/>
			
				<linearGradient id="SVGID_20_" gradientUnits="userSpaceOnUse" x1="-2441.7939" y1="-233.439" x2="-2421.0125" y2="-233.439" gradientTransform="matrix(0.2779 -0.9606 0.9606 0.2779 1103.9543 -2145.511)">
				<stop  offset="0" style="stop-color:#D6D5D4"/>
				<stop  offset="1" style="stop-color:#D6D5D4;stop-opacity:0"/>
			</linearGradient>
			<path class="st23" d="M199.1,129.5c15.9,13.1,16.3,10.2,21.8,4.6l-31.1-23.8C185.6,118,186.9,119.4,199.1,129.5z"/>
			
				<linearGradient id="SVGID_21_" gradientUnits="userSpaceOnUse" x1="1965.7764" y1="1177.1758" x2="1978.1559" y2="1177.1758" gradientTransform="matrix(0.7942 0.6076 -0.6076 0.7942 -608.7273 -2101.5723)">
				<stop  offset="0" style="stop-color:#F8B01C"/>
				<stop  offset="1" style="stop-color:#FDC55F"/>
			</linearGradient>
			<polygon class="st24" points="245,38.1 235.2,30.6 239.4,25 249.3,32.5 			"/>
			
				<linearGradient id="SVGID_22_" gradientUnits="userSpaceOnUse" x1="1842.0283" y1="-2685.6311" x2="1847.514" y2="-2685.6311" gradientTransform="matrix(-0.6076 0.7942 -0.7942 -0.6076 -770.6276 -3063.9739)">
				<stop  offset="0" style="stop-color:#ED4051"/>
				<stop  offset="1" style="stop-color:#D72538"/>
			</linearGradient>
			<polygon class="st25" points="233.7,30.6 237.1,26.2 249.2,35.5 245.9,39.9 			"/>
			<g>
				<defs>
					
						<rect id="SVGID_23_" x="235.6" y="23.5" transform="matrix(0.6076 -0.7942 0.7942 0.6076 52.0682 223.71)" width="33.7" height="71.4"/>
				</defs>
				<clipPath id="SVGID_24_">
					<use xlink:href="#SVGID_23_"  style="overflow:visible;"/>
				</clipPath>
				
					<linearGradient id="SVGID_25_" gradientUnits="userSpaceOnUse" x1="1838.6753" y1="1249.3259" x2="1907.0885" y2="1249.3259" gradientTransform="matrix(0.7942 0.6076 -0.6076 0.7942 -501.9341 -2090.344)">
					<stop  offset="0" style="stop-color:#414242;stop-opacity:0"/>
					<stop  offset="1" style="stop-color:#737374"/>
				</linearGradient>
				<circle class="st26" cx="226.5" cy="39.9" r="34.2"/>
			</g>
			<g>
				<defs>
					
						<rect id="SVGID_26_" x="141.3" y="127.7" transform="matrix(0.6076 -0.7942 0.7942 0.6076 -59.0032 201.5551)" width="66.4" height="65.6"/>
				</defs>
				<clipPath id="SVGID_27_">
					<use xlink:href="#SVGID_26_"  style="overflow:visible;"/>
				</clipPath>
				
					<linearGradient id="SVGID_28_" gradientUnits="userSpaceOnUse" x1="1872.3729" y1="1417.1932" x2="1872.3729" y2="1342.6543" gradientTransform="matrix(0.7942 0.6076 -0.6076 0.7942 -501.9341 -2090.344)">
					<stop  offset="0" style="stop-color:#414242;stop-opacity:0"/>
					<stop  offset="1" style="stop-color:#737374"/>
				</linearGradient>
				<path class="st27" d="M183.1,171.2c-12.5,16.3-39,17.1-59.1,1.7s-26.3-41.1-13.8-57.5s39-17.1,59.1-1.7S195.7,154.8,183.1,171.2
					z"/>
			</g>
			
				<linearGradient id="SVGID_29_" gradientUnits="userSpaceOnUse" x1="1876.121" y1="1350.9236" x2="1933.7032" y2="1408.5059" gradientTransform="matrix(0.7942 0.6076 -0.6076 0.7942 -501.9341 -2090.344)">
				<stop  offset="0" style="stop-color:#151B26"/>
				<stop  offset="1" style="stop-color:#151B26"/>
			</linearGradient>
			<polygon class="st28" points="176.1,203.5 132.6,170.2 169.3,122.3 212.8,155.6 			"/>
			
				<linearGradient id="SVGID_30_" gradientUnits="userSpaceOnUse" x1="1869.3208" y1="1357.7239" x2="1913.2885" y2="1401.6917" gradientTransform="matrix(0.7942 0.6076 -0.6076 0.7942 -501.9341 -2090.344)">
				<stop  offset="0" style="stop-color:#151B17"/>
				<stop  offset="1" style="stop-color:#151B17"/>
			</linearGradient>
			<polygon class="st29" points="154.5,187 132.6,170.2 169.3,122.3 191.2,139.1 			"/>
			
				<linearGradient id="SVGID_31_" gradientUnits="userSpaceOnUse" x1="1880.7629" y1="1300.0067" x2="1906.589" y2="1325.8326" gradientTransform="matrix(0.7942 0.6076 -0.6076 0.7942 -501.9341 -2090.344)">
				<stop  offset="0" style="stop-color:#414242;stop-opacity:0"/>
				<stop  offset="1" style="stop-color:#737374"/>
			</linearGradient>
			<polygon class="st30" points="222.1,98.2 204.3,121.5 186.6,107.9 204.3,84.6 			"/>
		</g>
		
			<linearGradient id="SVGID_32_" gradientUnits="userSpaceOnUse" x1="1985.3773" y1="1145.3716" x2="1999.0916" y2="1145.3716" gradientTransform="matrix(0.7942 0.6076 -0.6076 0.7942 -616.5511 -2019.256)">
			<stop  offset="0" style="stop-color:#D72538"/>
			<stop  offset="1" style="stop-color:#ED4051"/>
		</linearGradient>
		<polygon class="st31" points="267.9,92.2 278.8,100.5 274,106.8 260.8,101.4 		"/>
		
			<linearGradient id="SVGID_33_" gradientUnits="userSpaceOnUse" x1="-2022.4419" y1="1145.3716" x2="-2008.7275" y2="1145.3716" gradientTransform="matrix(-0.7942 -0.6076 -0.6076 0.7942 -696.6783 -2080.5557)">
			<stop  offset="0" style="stop-color:#D72538"/>
			<stop  offset="1" style="stop-color:#ED4051"/>
		</linearGradient>
		<polygon class="st32" points="217.2,53.4 206.3,45.1 201.5,51.4 210.2,62.6 		"/>
	</g>
	<path class="st33" d="M436.6,135.7l-84.2,0c-15.1,0.2-43.7,39.4-43.7,39.4v263.7h127.9V135.7z"/>
	<g>
		<rect x="308.8" y="297.1" class="st15" width="127.9" height="3"/>
	</g>
	<polygon class="st34" points="311.3,438.7 306.2,438.7 306.2,176.4 351.5,133.2 436.6,133.2 436.6,138.2 353.5,138.2 311.3,178.1 	
		"/>
	
		<radialGradient id="SVGID_34_" cx="331.3153" cy="365.7387" r="23.2796" gradientTransform="matrix(1.0069 0 0 1.0069 13.4743 5.2312)" gradientUnits="userSpaceOnUse">
		<stop  offset="0" style="stop-color:#781A27"/>
		<stop  offset="0.2043" style="stop-color:#741E28"/>
		<stop  offset="0.4165" style="stop-color:#692B2A"/>
		<stop  offset="0.6324" style="stop-color:#573F2F"/>
		<stop  offset="0.8494" style="stop-color:#3D5C35"/>
		<stop  offset="1" style="stop-color:#27753A"/>
	</radialGradient>
	<rect x="323.1" y="350.6" class="st35" width="47.9" height="45.8"/>
	<linearGradient id="SVGID_35_" gradientUnits="userSpaceOnUse" x1="326.2633" y1="373.2124" x2="363.5549" y2="373.2124">
		<stop  offset="0" style="stop-color:#8BC45B"/>
		<stop  offset="1" style="stop-color:#507E3A"/>
	</linearGradient>
	<path class="st36" d="M363.6,375.6c0-0.9-0.1-1.8-0.4-2.7c0-0.4,0.1-0.7,0.1-1.1c0-2.8-0.7-5.4-1.9-7.8c0.2-0.7,0.3-1.4,0.3-2.2
		c0-4.9-4-8.8-8.8-8.8c-1.9,0-3.6,0.6-5.1,1.6c-0.6-0.1-1.1-0.1-1.7-0.1c-3.5,0-6.8,1.1-9.6,2.9c-0.4-0.1-0.8-0.1-1.3-0.1
		c-4.9,0-8.8,4-8.8,8.8c0,2.4,0.9,4.5,2.5,6.1c0,0.3,0,0.7,0.1,1c-1.6,1.6-2.5,3.8-2.5,6.2c0,4.9,4,8.8,8.8,8.8
		c1.3,0,2.6-0.3,3.7-0.8c1.3,3.3,4.5,5.7,8.2,5.7c4.3,0,7.9-3.1,8.7-7.2c1.1-0.7,2-1.6,2.9-2.5C361.5,382.1,363.6,379.1,363.6,375.6
		z"/>
	
		<radialGradient id="SVGID_36_" cx="331.3153" cy="221.5644" r="23.2796" gradientTransform="matrix(1.0069 0 0 1.0069 13.4743 5.2312)" gradientUnits="userSpaceOnUse">
		<stop  offset="0" style="stop-color:#781A27"/>
		<stop  offset="0.2043" style="stop-color:#741E28"/>
		<stop  offset="0.4165" style="stop-color:#692B2A"/>
		<stop  offset="0.6324" style="stop-color:#573F2F"/>
		<stop  offset="0.8494" style="stop-color:#3D5C35"/>
		<stop  offset="1" style="stop-color:#27753A"/>
	</radialGradient>
	<rect x="323.1" y="205.4" class="st37" width="47.9" height="45.8"/>
	<linearGradient id="SVGID_37_" gradientUnits="userSpaceOnUse" x1="326.2633" y1="228.0474" x2="363.5549" y2="228.0474">
		<stop  offset="0" style="stop-color:#8BC45B"/>
		<stop  offset="1" style="stop-color:#507E3A"/>
	</linearGradient>
	<path class="st38" d="M363.6,230.5c0-0.9-0.1-1.8-0.4-2.7c0-0.4,0.1-0.7,0.1-1.1c0-2.8-0.7-5.4-1.9-7.8c0.2-0.7,0.3-1.4,0.3-2.2
		c0-4.9-4-8.8-8.8-8.8c-1.9,0-3.6,0.6-5.1,1.6c-0.6-0.1-1.1-0.1-1.7-0.1c-3.5,0-6.8,1.1-9.6,2.9c-0.4-0.1-0.8-0.1-1.3-0.1
		c-4.9,0-8.8,4-8.8,8.8c0,2.4,0.9,4.5,2.5,6.1c0,0.3,0,0.7,0.1,1c-1.6,1.6-2.5,3.8-2.5,6.2c0,4.9,4,8.8,8.8,8.8
		c1.3,0,2.6-0.3,3.7-0.8c1.3,3.3,4.5,5.7,8.2,5.7c4.3,0,7.9-3.1,8.7-7.2c1.1-0.7,2-1.6,2.9-2.5C361.5,236.9,363.6,233.9,363.6,230.5
		z"/>
	<g id="monito_morado_3_">
		<g>
			
				<linearGradient id="SVGID_38_" gradientUnits="userSpaceOnUse" x1="-1001.8409" y1="76.552" x2="-1001.8409" y2="108.2384" gradientTransform="matrix(1 0 0 1 1244.5359 311.6851)">
				<stop  offset="0" style="stop-color:#151B26"/>
				<stop  offset="1" style="stop-color:#151B26"/>
			</linearGradient>
			<path class="st39" d="M243.7,419.9h-2.1c-0.5,0-0.9-0.4-0.9-0.9v-29.8c0-0.5,0.4-0.9,0.9-0.9h2.1c0.5,0,0.9,0.4,0.9,0.9V419
				C244.7,419.5,244.2,419.9,243.7,419.9z"/>
			
				<linearGradient id="SVGID_39_" gradientUnits="userSpaceOnUse" x1="-1001.8409" y1="65.6067" x2="-1001.8409" y2="90.4528" gradientTransform="matrix(1 0 0 1 1244.5359 311.6851)">
				<stop  offset="0" style="stop-color:#ED4051"/>
				<stop  offset="0.2586" style="stop-color:#E13244"/>
				<stop  offset="0.5825" style="stop-color:#DA283B"/>
				<stop  offset="1" style="stop-color:#D72538"/>
			</linearGradient>
			<path class="st40" d="M244,402.1h-2.6c-0.6,0-1.1-0.5-1.1-1.1v-22.6c0-0.6,0.5-1.1,1.1-1.1h2.6c0.6,0,1.1,0.5,1.1,1.1V401
				C245.1,401.6,244.6,402.1,244,402.1z"/>
			
				<linearGradient id="SVGID_40_" gradientUnits="userSpaceOnUse" x1="-416.4005" y1="-2055.6416" x2="-416.4005" y2="-2054.1436" gradientTransform="matrix(4.489700e-11 -1 1 4.489700e-11 2295.1826 -31.7761)">
				<stop  offset="0" style="stop-color:#D6D5D4"/>
				<stop  offset="1" style="stop-color:#E2E2E1"/>
			</linearGradient>
			<path class="st41" d="M241,378.8v11.7c0,0.2-0.2,0.4-0.4,0.4h-0.8c-0.2,0-0.4-0.2-0.4-0.4v-11.7c0-0.2,0.2-0.4,0.4-0.4h0.8
				C240.9,378.4,241,378.6,241,378.8z"/>
			
				<linearGradient id="SVGID_41_" gradientUnits="userSpaceOnUse" x1="-416.4005" y1="-2050.8315" x2="-416.4005" y2="-2049.3337" gradientTransform="matrix(4.489700e-11 -1 1 4.489700e-11 2295.1826 -31.7761)">
				<stop  offset="0" style="stop-color:#D6D5D4"/>
				<stop  offset="1" style="stop-color:#E2E2E1"/>
			</linearGradient>
			<path class="st42" d="M245.8,378.8v11.7c0,0.2-0.2,0.4-0.4,0.4h-0.8c-0.2,0-0.4-0.2-0.4-0.4v-11.7c0-0.2,0.2-0.4,0.4-0.4h0.8
				C245.7,378.4,245.8,378.6,245.8,378.8z"/>
			
				<linearGradient id="SVGID_42_" gradientUnits="userSpaceOnUse" x1="-1001.8409" y1="3.6077" x2="-1001.8409" y2="35.2941" gradientTransform="matrix(1 0 0 1 1244.5359 311.6851)">
				<stop  offset="0" style="stop-color:#151B26"/>
				<stop  offset="1" style="stop-color:#151B26"/>
			</linearGradient>
			<path class="st43" d="M243.7,347h-2.1c-0.5,0-0.9-0.4-0.9-0.9v-29.8c0-0.5,0.4-0.9,0.9-0.9h2.1c0.5,0,0.9,0.4,0.9,0.9v29.8
				C244.7,346.6,244.2,347,243.7,347z"/>
			
				<linearGradient id="SVGID_43_" gradientUnits="userSpaceOnUse" x1="-1003.8577" y1="26.2791" x2="-1003.8577" y2="33.426" gradientTransform="matrix(1 0 0 1 1244.5359 311.6851)">
				<stop  offset="0" style="stop-color:#ED4051"/>
				<stop  offset="0.2586" style="stop-color:#E13244"/>
				<stop  offset="0.5825" style="stop-color:#DA283B"/>
				<stop  offset="1" style="stop-color:#D72538"/>
			</linearGradient>
			<path class="st44" d="M240.9,345.1h-0.7c-0.1,0-0.2-0.1-0.2-0.2v-6.8c0-0.1,0.1-0.2,0.2-0.2h0.7c0.3,0,0.5,0.2,0.5,0.5v6.2
				C241.4,344.9,241.2,345.1,240.9,345.1z"/>
			
				<linearGradient id="SVGID_44_" gradientUnits="userSpaceOnUse" x1="1737.9152" y1="26.2791" x2="1737.9152" y2="33.426" gradientTransform="matrix(-1 0 0 1 1982.5667 311.6851)">
				<stop  offset="0" style="stop-color:#ED4051"/>
				<stop  offset="0.2586" style="stop-color:#E13244"/>
				<stop  offset="0.5825" style="stop-color:#DA283B"/>
				<stop  offset="1" style="stop-color:#D72538"/>
			</linearGradient>
			<path class="st45" d="M244.4,345.1h0.7c0.1,0,0.2-0.1,0.2-0.2v-6.8c0-0.1-0.1-0.2-0.2-0.2h-0.7c-0.3,0-0.5,0.2-0.5,0.5v6.2
				C243.9,344.9,244.2,345.1,244.4,345.1z"/>
			
				<linearGradient id="SVGID_45_" gradientUnits="userSpaceOnUse" x1="-1001.8182" y1="35.9245" x2="-1001.8182" y2="63.1794" gradientTransform="matrix(1 0 0 1 1244.5359 311.6851)">
				<stop  offset="0" style="stop-color:#D6D5D4"/>
				<stop  offset="1" style="stop-color:#E2E2E1"/>
			</linearGradient>
			<rect x="240.8" y="347.6" class="st46" width="3.9" height="27.3"/>
			
				<linearGradient id="SVGID_46_" gradientUnits="userSpaceOnUse" x1="-1001.4272" y1="56.8157" x2="-992.7854" y2="56.8157" gradientTransform="matrix(1 0 0 1 1244.5359 311.6851)">
				<stop  offset="0" style="stop-color:#3B2E61"/>
				<stop  offset="1" style="stop-color:#6053A1"/>
			</linearGradient>
			<path class="st47" d="M249.7,382.3h-4.6c-1.1,0-2-0.9-2-2l0-23.5c0-1.1,0.9-2,2-2h4.6c1.1,0,2,0.9,2,2v23.5
				C251.8,381.3,250.8,382.3,249.7,382.3z"/>
			
				<linearGradient id="SVGID_47_" gradientUnits="userSpaceOnUse" x1="-1011.2062" y1="55.5873" x2="-1002.5644" y2="55.5873" gradientTransform="matrix(1 0 0 1 1244.5359 311.6851)">
				<stop  offset="0" style="stop-color:#3B2E61"/>
				<stop  offset="1" style="stop-color:#6053A1"/>
			</linearGradient>
			<path class="st48" d="M240,382.3h-4.6c-1.1,0-2-0.9-2-2v-25.9c0-1.1,0.9-2,2-2h4.6c1.1,0,2,0.9,2,2v25.9
				C242,381.3,241.1,382.3,240,382.3z"/>
			
				<linearGradient id="SVGID_48_" gradientUnits="userSpaceOnUse" x1="-1002.8169" y1="60.9935" x2="-1002.8169" y2="70.577" gradientTransform="matrix(1 0 0 1 1244.5359 311.6851)">
				<stop  offset="0" style="stop-color:#3B2E61"/>
				<stop  offset="1" style="stop-color:#6053A1"/>
			</linearGradient>
			<rect x="225.5" y="372.7" class="st49" width="32.3" height="9.6"/>
			
				<linearGradient id="SVGID_49_" gradientUnits="userSpaceOnUse" x1="-1011.6821" y1="62.8414" x2="-993.7072" y2="62.8414" gradientTransform="matrix(1 0 0 1 1244.5359 311.6851)">
				<stop  offset="0" style="stop-color:#FDC55D"/>
				<stop  offset="1" style="stop-color:#F8B121"/>
			</linearGradient>
			<path class="st50" d="M250.8,374.5c0,6.9-1.9,12.5-8.8,12.5c-6.9,0-9.1-5.6-9.1-12.5c0-3.2,1.1-5.2,3-6.7
				c1.5-1.3,2.2-2.3,4.5-2.9c0.9-0.2,0.7-2.9,1.7-2.9c1,0,0.8,2.3,1.6,2.5c1.9,0.5,3.2,1.7,4.5,2.7
				C250.2,368.9,250.8,370.9,250.8,374.5z"/>
			
				<linearGradient id="SVGID_50_" gradientUnits="userSpaceOnUse" x1="-984.7076" y1="31.8674" x2="-984.7076" y2="40.0815" gradientTransform="matrix(1 0 0 1 1244.5359 311.6851)">
				<stop  offset="0" style="stop-color:#FDC55D"/>
				<stop  offset="1" style="stop-color:#F8B121"/>
			</linearGradient>
			<circle class="st51" cx="259.8" cy="347.7" r="4.1"/>
			
				<linearGradient id="SVGID_51_" gradientUnits="userSpaceOnUse" x1="-1019.9573" y1="31.8674" x2="-1019.9573" y2="40.0815" gradientTransform="matrix(1 0 0 1 1244.5359 311.6851)">
				<stop  offset="0" style="stop-color:#FDC55D"/>
				<stop  offset="1" style="stop-color:#F8B121"/>
			</linearGradient>
			<circle class="st52" cx="224.6" cy="347.7" r="4.1"/>
			
				<linearGradient id="SVGID_52_" gradientUnits="userSpaceOnUse" x1="-956.9227" y1="143.0832" x2="-956.9227" y2="177.2832" gradientTransform="matrix(0.9993 3.671309e-02 -3.433254e-02 0.9345 1220.3478 251.853)">
				<stop  offset="0" style="stop-color:#3B2E61"/>
				<stop  offset="1" style="stop-color:#6053A1"/>
			</linearGradient>
			<path class="st53" d="M258.7,382.2L258.7,382.2c-1.8-0.1-4.6,1.2-4.6-3.2c0-7.3,2.9-7.6,2.8-12.6c-0.1-3-0.4-14.4-0.4-14.4
				c0.1-1.7,1.6-1.6,3.4-1.5h0c1.8,0.1,3.2,0,3.1,1.7l-0.9,27C262.1,380.9,260.6,382.3,258.7,382.2z"/>
			
				<linearGradient id="SVGID_53_" gradientUnits="userSpaceOnUse" x1="1758.0985" y1="36.423" x2="1758.0985" y2="70.6231" gradientTransform="matrix(-0.9993 3.671309e-02 3.433254e-02 0.9345 1981.2151 251.853)">
				<stop  offset="0" style="stop-color:#3B2E61"/>
				<stop  offset="1" style="stop-color:#6053A1"/>
			</linearGradient>
			<path class="st54" d="M226,382.2L226,382.2c1.8-0.1,4.6,1.2,4.6-3.2c0-7.3-2.9-7.6-2.8-12.6c0.1-3,0.4-14.4,0.4-14.4
				c-0.1-1.7-1.6-1.6-3.4-1.5h0c-1.8,0.1-3.2,0-3.1,1.7l0.9,27C222.6,380.9,224.2,382.3,226,382.2z"/>
			
				<linearGradient id="SVGID_54_" gradientUnits="userSpaceOnUse" x1="-1001.8721" y1="32.1009" x2="-1002.0278" y2="36.3391" gradientTransform="matrix(1 0 0 1 1244.5359 311.6851)">
				<stop  offset="0" style="stop-color:#40444F"/>
				<stop  offset="1" style="stop-color:#1A2226"/>
			</linearGradient>
			<path class="st55" d="M259,345.9c0-0.8-0.5-1.5-1.1-1.6v0h-30.4v0c-0.1,0-0.1,0-0.2,0c-0.6,0-1.1,0.7-1.1,1.6s0.5,1.6,1.1,1.6
				c0.1,0,0.1,0,0.2,0v0h30.4v0C258.5,347.4,259,346.8,259,345.9z"/>
			
				<linearGradient id="SVGID_55_" gradientUnits="userSpaceOnUse" x1="-1009.869" y1="32.6604" x2="-1009.869" y2="37.5637" gradientTransform="matrix(1 0 0 1 1244.5359 311.6851)">
				<stop  offset="0" style="stop-color:#40444F"/>
				<stop  offset="1" style="stop-color:#1A2226"/>
			</linearGradient>
			<path class="st56" d="M231.6,349.1c0,0,6.6,1.3,6.2-4.8h-6.3L231.6,349.1z"/>
			
				<linearGradient id="SVGID_56_" gradientUnits="userSpaceOnUse" x1="1740.71" y1="32.6604" x2="1740.71" y2="37.5637" gradientTransform="matrix(-1 0 0 1 1991.6556 311.6851)">
				<stop  offset="0" style="stop-color:#40444F"/>
				<stop  offset="1" style="stop-color:#1A2226"/>
			</linearGradient>
			<path class="st57" d="M254,349.1c0,0-6.6,1.3-6.2-4.8h6.3L254,349.1z"/>
			
				<linearGradient id="SVGID_57_" gradientUnits="userSpaceOnUse" x1="-1001.8182" y1="30.356" x2="-1001.8182" y2="38.5701" gradientTransform="matrix(1 0 0 1 1244.5359 311.6851)">
				<stop  offset="0" style="stop-color:#40444F"/>
				<stop  offset="1" style="stop-color:#1A2226"/>
			</linearGradient>
			<ellipse class="st58" cx="242.7" cy="346.1" rx="3.5" ry="4.1"/>
			
				<linearGradient id="SVGID_58_" gradientUnits="userSpaceOnUse" x1="-1001.8409" y1="27.3161" x2="-1001.8409" y2="28.814" gradientTransform="matrix(1 0 0 1 1244.5359 311.6851)">
				<stop  offset="0" style="stop-color:#40444F"/>
				<stop  offset="1" style="stop-color:#1A2226"/>
			</linearGradient>
			<path class="st59" d="M250.2,340.5h-15c-0.2,0-0.4-0.2-0.4-0.4v-0.8c0-0.2,0.2-0.4,0.4-0.4h15c0.2,0,0.4,0.2,0.4,0.4v0.8
				C250.6,340.3,250.4,340.5,250.2,340.5z"/>
			
				<linearGradient id="SVGID_59_" gradientUnits="userSpaceOnUse" x1="-1011.6821" y1="67.6425" x2="-993.7072" y2="67.6425" gradientTransform="matrix(1 0 0 1 1244.5359 311.6851)">
				<stop  offset="0" style="stop-color:#D6D5D4"/>
				<stop  offset="1" style="stop-color:#E2E2E1"/>
			</linearGradient>
			<path class="st60" d="M232.9,374.1c0,0,1.6,1.1,1.4,2.6c-0.2,1.5-1.3,1.2-1.2,1.5s0.2,9.1,9.2,9c8.5-0.1,8.4-9.9,8.4-9.9
				s-1.8,0-1.6-1.6s1.7-1.9,1.7-1.9l-0.2-2.1c0,0-2,1.2-2.4,2c-0.4,0.7-1.9,2.6-0.8,4.5c1.1,1.9-0.3,3.4-1,4.2
				c-0.8,1-6.3,1.2-8.1,0.4s-2.9-2.5-2.6-3.8c0.3-1.3,0.9-4.5,0-5.1s-2.5-2.2-2.5-2.2l-0.3,1.2L232.9,374.1z"/>
		</g>
		<g>
			<g>
				<g>
					
						<linearGradient id="SVGID_60_" gradientUnits="userSpaceOnUse" x1="102.0036" y1="874.9145" x2="130.336" y2="874.9145" gradientTransform="matrix(1 0 0 1 94.5339 -505.1808)">
						<stop  offset="0" style="stop-color:#0DA18F"/>
						<stop  offset="1" style="stop-color:#49B0A4"/>
					</linearGradient>
					<path class="st61" d="M210.7,383.9c-7.8,0-14.2-6.4-14.2-14.2c0-7.8,6.4-14.2,14.2-14.2c7.8,0,14.2,6.4,14.2,14.2
						C224.9,377.5,218.5,383.9,210.7,383.9z"/>
					<path class="st2" d="M210.7,384.5c-8.2,0-14.8-6.6-14.8-14.8c0-8.2,6.6-14.8,14.8-14.8c8.2,0,14.8,6.6,14.8,14.8
						C225.5,377.9,218.9,384.5,210.7,384.5z M210.7,356.2c-7.5,0-13.5,6.1-13.5,13.5c0,7.5,6.1,13.5,13.5,13.5
						c7.5,0,13.5-6.1,13.5-13.5C224.2,362.3,218.2,356.2,210.7,356.2z"/>
				</g>
				<path class="st62" d="M201.1,360.1l19.1,19.1c-5.3,5.3-13.8,5.3-19.1,0S195.8,365.4,201.1,360.1z"/>
				<polygon class="st2" points="208.6,376.2 202.3,369.9 204.7,367.5 208.5,371.4 216.7,363.1 219.2,365.6 				"/>
			</g>
		</g>
	</g>
	<g id="peaton_1_">
		<linearGradient id="SVGID_61_" gradientUnits="userSpaceOnUse" x1="376.7188" y1="167.2438" x2="381.4302" y2="167.2438">
			<stop  offset="0" style="stop-color:#8C2D38"/>
			<stop  offset="1" style="stop-color:#781A27"/>
		</linearGradient>
		<path class="st63" d="M380.1,171.5H378c-0.7,0-1.3-0.6-1.3-1.3v-5.9c0-0.7,0.6-1.3,1.3-1.3h2.1c0.7,0,1.3,0.6,1.3,1.3v5.9
			C381.4,170.9,380.8,171.5,380.1,171.5z"/>
		<linearGradient id="SVGID_62_" gradientUnits="userSpaceOnUse" x1="385.9438" y1="167.2438" x2="390.6552" y2="167.2438">
			<stop  offset="0" style="stop-color:#8C2D38"/>
			<stop  offset="1" style="stop-color:#781A27"/>
		</linearGradient>
		<path class="st64" d="M389.4,171.5h-2.1c-0.7,0-1.3-0.6-1.3-1.3v-5.9c0-0.7,0.6-1.3,1.3-1.3h2.1c0.7,0,1.3,0.6,1.3,1.3v5.9
			C390.7,170.9,390.1,171.5,389.4,171.5z"/>
		<linearGradient id="SVGID_63_" gradientUnits="userSpaceOnUse" x1="383.9054" y1="175.9796" x2="392.6106" y2="175.9796">
			<stop  offset="0" style="stop-color:#25334D"/>
			<stop  offset="1" style="stop-color:#3E537D"/>
		</linearGradient>
		<path class="st65" d="M390.2,184.7h-3.9c-1.3,0-2.4-1.1-2.4-2.4v-12.7c0-1.3,1.1-2.4,2.4-2.4h3.9c1.3,0,2.4,1.1,2.4,2.4v12.7
			C392.6,183.6,391.5,184.7,390.2,184.7z"/>
		<linearGradient id="SVGID_64_" gradientUnits="userSpaceOnUse" x1="374.9665" y1="175.9584" x2="383.6718" y2="175.9584">
			<stop  offset="0" style="stop-color:#25334D"/>
			<stop  offset="1" style="stop-color:#3E537D"/>
		</linearGradient>
		<path class="st66" d="M381.3,184.7h-3.9c-1.3,0-2.4-1.1-2.4-2.4v-12.7c0-1.3,1.1-2.4,2.4-2.4h3.9c1.3,0,2.4,1.1,2.4,2.4v12.7
			C383.7,183.6,382.6,184.7,381.3,184.7z"/>
		<linearGradient id="SVGID_65_" gradientUnits="userSpaceOnUse" x1="367.1144" y1="179.4702" x2="374.4871" y2="179.4702">
			<stop  offset="0" style="stop-color:#FDC55D"/>
			<stop  offset="1" style="stop-color:#F8B121"/>
		</linearGradient>
		<path class="st67" d="M371.3,184.8l-0.6-0.4c-1.8,0-3.5-3.8-3.5-3.8l0-3.3c0-1.8,1.9-3.2,3.7-3.2l0,0c1.8,0,3.7,1.5,3.7,3.2v7.4
			C374.5,184.7,373,184.8,371.3,184.8z"/>
		
			<linearGradient id="SVGID_66_" gradientUnits="userSpaceOnUse" x1="5705.106" y1="179.4702" x2="5712.4785" y2="179.4702" gradientTransform="matrix(-1 0 0 1 6104.8125 0)">
			<stop  offset="0" style="stop-color:#FDC55D"/>
			<stop  offset="1" style="stop-color:#F8B121"/>
		</linearGradient>
		<path class="st68" d="M395.6,184.8l0.6-0.4c1.8,0,3.5-3.8,3.5-3.8l0-3.3c0-1.8-1.9-3.2-3.7-3.2l0,0c-1.8,0-3.7,1.5-3.7,3.2v7.4
			C392.3,184.7,393.8,184.8,395.6,184.8z"/>
		<linearGradient id="SVGID_67_" gradientUnits="userSpaceOnUse" x1="383.4103" y1="175.5515" x2="383.4103" y2="184.8178">
			<stop  offset="2.740354e-02" style="stop-color:#109488"/>
			<stop  offset="1" style="stop-color:#0AAC9A"/>
		</linearGradient>
		<path class="st69" d="M397.2,184.8h-27.5c-1.4,0-2.6-1.1-2.6-2.6v-4.2c0-1.4,1.1-2.6,2.6-2.6h27.5c1.4,0,2.6,1.1,2.6,2.6v4.2
			C399.7,183.7,398.6,184.8,397.2,184.8z"/>
		<linearGradient id="SVGID_68_" gradientUnits="userSpaceOnUse" x1="374.4871" y1="177.0254" x2="392.594" y2="177.0254">
			<stop  offset="0" style="stop-color:#FDC55D"/>
			<stop  offset="1" style="stop-color:#F8B121"/>
		</linearGradient>
		<path class="st70" d="M392.6,177c0,7-1.9,12.6-8.9,12.6s-9.2-5.7-9.2-12.6c0-3.3,1.2-5.2,3-6.8c1.5-1.3,2.2-2.4,4.5-3
			c0.9-0.2,0.7-2.9,1.7-2.9c1,0,0.8,2.3,1.7,2.5c1.9,0.5,3.2,1.7,4.5,2.8C391.9,171.4,392.6,173.3,392.6,177z"/>
		<linearGradient id="SVGID_69_" gradientUnits="userSpaceOnUse" x1="374.4871" y1="180.6547" x2="392.594" y2="180.6547">
			<stop  offset="0" style="stop-color:#151B26"/>
			<stop  offset="1" style="stop-color:#151B26"/>
		</linearGradient>
		<path class="st71" d="M374.5,176.6c0,0,1.6,1.1,1.5,2.6c-0.2,1.5-1.3,1.2-1.2,1.5c0.1,0.3,0.2,9.2,9.3,9c8.6-0.1,8.5-10,8.5-10
			s-1.9,0-1.6-1.7c0.2-1.6,1.7-1.9,1.7-1.9l-0.1-1.2l-0.1-0.9c0,0-2,1.2-2.4,2c-0.4,0.7-0.9,0.5-0.9,0.5s0.1-5.1-5.2-4.9
			c-5.9,0.2-5.4,5-5.4,5s-0.7,0.7-1.1-0.3c-0.4-0.8-2.5-2.3-2.5-2.3s-0.2,0.6-0.3,1.2C374.5,175.9,374.5,176.6,374.5,176.6z"/>
	</g>
	<g>
		<path class="st72" d="M359,133.1v49.3c0,0-34,0-52.8,0v-6c0,0,0.8-15.6,14.4-29.5c12.9-13.1,31.5-13.7,31.5-13.7H359z"/>
		<g>
			<path class="st2" d="M340.9,164.7c-0.8,0.6-0.9,1.8-0.3,2.6c0.6,0.8,1.8,0.9,2.6,0.3c0.8-0.6,0.9-1.8,0.3-2.6
				C342.9,164.2,341.7,164.1,340.9,164.7L340.9,164.7z M340.9,164.7"/>
			<path class="st2" d="M332.1,158.3c-0.7-1.6-0.2-3.6,1.2-4.8c1.8-1.4,4.4-1.1,5.8,0.7c1,1.3,1.2,3.1,0.4,4.5l1.1,1.4
				c1.4-2,1.4-4.8-0.2-6.9c-2-2.5-5.6-2.9-8.1-0.9c-1.8,1.4-2.5,3.8-2,5.9l1.3,0.6C331.7,158.5,331.9,158.4,332.1,158.3L332.1,158.3
				z M332.1,158.3"/>
			<path class="st2" d="M326.5,159.9l5,2.3c0.4,0.2,0.8,0.1,1.1-0.1l2.5-2l0.5,0.6l-2.1,1.7c-0.2,0.2-0.3,0.4-0.3,0.7
				c0,0.2,0.1,0.3,0.2,0.5c0.3,0.4,0.8,0.4,1.2,0.1l2.1-1.7l1.5,1.9c0.4,0.5,1.4,1,2.3,0.3c0.7-0.6,0.8-1.6,0.3-2.3l-3.3-4.2
				c-0.6-0.7-1.6-0.8-2.3-0.3l-3.2,2.6l-4.4-2c-0.4-0.2-0.8-0.1-1.1,0.1c-0.1,0.1-0.2,0.2-0.3,0.4
				C325.7,159,325.9,159.7,326.5,159.9L326.5,159.9z M326.5,159.9"/>
		</g>
	</g>
	<g>
		<path class="st2" d="M219.3,291L219.3,291l-0.1-2.2l-0.3-2.2l-0.6-2l-0.8-1.7l-0.2,1.9l-0.4,1.8l-0.6,1.6l-0.7,1.4l-0.8,1.2
			l-0.9,0.9l-0.1,0.1l-0.1,0.1l-0.1,0h-0.1l-0.1,0l-0.1-0.1l-0.1-0.1l-0.1-0.2l-0.1-0.2l0-0.2l0-0.2l0-0.3l0-0.2l0.1-0.2l0.1-0.2
			l0.1-0.2l0.8-1.1l0.7-1.3l0.5-1.5l0.4-1.7l0.3-1.8l0.1-1.8l-1.1-0.8l-1.1-0.4l-1.1,0l-1.1,0.4l-1.1,0.8l-1,1.1l-0.8,1.4l-0.7,1.7
			l-0.5,1.9l-0.3,2l-0.1,2.1l0.1,2.2l0.3,2.2l0.6,2l0.8,1.7l0.9,1.4l1.1,1.1l1.2,0.7l1.2,0.2l1.2-0.2l1.2-0.7l1.1-1.1l0.9-1.4
			l0.8-1.7l0.6-2l0.4-2.2L219.3,291z M233.3,290.6L233.3,290.6l0-0.7l-0.1-0.7l-0.2-0.7l-0.2-0.6l-0.3-0.5l-0.3-0.4l-0.4-0.3
			l-0.4-0.2l-0.4-0.1l-0.4,0.1l-0.4,0.2l-0.4,0.3l-0.3,0.4l-0.3,0.5l-0.2,0.6l-0.2,0.7l-0.1,0.7l0,0.7l0,0.8l0.1,0.8l0.2,0.7
			l0.3,0.7l0.4,0.5l0.4,0.4l0.4,0.2l0.5,0.1l0.4-0.1l0.4-0.2l0.4-0.3l0.3-0.4l0.3-0.5l0.2-0.6l0.2-0.7l0.1-0.7L233.3,290.6z
			 M231.5,284.7L231.5,284.7l3.1-14.4h-15.5l-0.5,3.4l10.4,12.2l0.2-0.3l0.2-0.2l-0.8-3.5h-0.5v-0.7h1.7v0.7h-0.7l0.9,3l0.5-0.2
			l0.5-0.1L231.5,284.7z M239.1,278.4L239.1,278.4l-2.3-7.8h-0.6l-3.2,15.3l0.4,0.7l0.3,0.8l0.3,0.9l0.2,0.9h1.4l0.2-2.1l0.4-2
			l0.5-1.9l0.7-1.7l0.8-1.5L239.1,278.4z M242,289L242,289l-2.3-7.1l-0.8,1.5l-0.7,1.7l-0.5,1.9l-0.3,2H242z M249.7,291L249.7,291
			l-0.1-2.2l-0.3-2.1l-0.6-2l-0.8-1.7l-0.9-1.4l-1.1-1.1l-1.1-0.7l-1.2-0.3l-1.2,0.2l-1.2,0.6l3.1,9.4l0.1,0.3l0,0.3l0,0.3l0,0.3
			l-0.1,0.3l-0.1,0.3l-0.1,0.2l-0.1,0.2l-0.1,0.1l-0.1,0.1l-0.2,0h-6.3l0.2,2.1l0.4,2l0.6,1.8l0.8,1.6l0.9,1.3l1,0.9l1.1,0.6
			l1.1,0.2l1.2-0.2l1.2-0.7l1.1-1.1l0.9-1.4l0.8-1.8l0.6-2l0.3-2.2L249.7,291z M251.5,288.3l0.1,2.7l-0.2,2.9l-0.5,2.8l-0.8,2.6
			l-1,2.3l-1.2,1.9l-1.4,1.4l-1.5,0.9l-1.6,0.3l-1.5-0.3l-1.5-0.8l-1.4-1.3l-1.2-1.7l-1-2.1l-0.8-2.4l-0.5-2.6l-0.2-2.8h-1.3l-0.2,1
			l-0.3,0.9l-0.4,0.8l-0.4,0.7l0.7,3.5h1v0.8h-2.2v-0.8h0.6l-0.7-2.8l-0.5,0.3l-0.5,0.2l-0.5,0l-0.5-0.2l-0.5-0.3l-0.5-0.5l-0.4-0.7
			l-0.4-0.8l-0.3-0.9l-0.2-0.9l-0.1-1l0-1l0.1-1l0.2-1l-9.7-12.5l-0.5,2.9l1.2,1.9l0.9,2.2l0.7,2.5l0.4,2.7l0.1,2.8l-0.2,2.9
			l-0.5,2.8l-0.8,2.6l-1,2.3l-1.2,1.9l-1.4,1.4l-1.5,0.9l-1.6,0.3l-1.4-0.2l-1.4-0.7l-1.3-1.1l-1.2-1.5l-1-1.8l-0.8-2.1l-0.6-2.4
			l-0.4-2.5L205,291l0.1-2.7l0.4-2.6l0.6-2.4l0.9-2.2l1.1-1.9l1.2-1.5l1.3-1.1l1.4-0.6l1.5-0.1l1.4,0.4l1.4,0.8l2.1-13.9l-0.4-0.2
			l-0.3-0.3l-0.3-0.4l-0.3-0.5l-0.2-0.6l-0.1-0.6l-0.1-0.7l0-0.7l0.1-0.7l0.1-0.6l0.2-0.6l0.2-0.5l0.3-0.4l0.3-0.3l0.4-0.2l0.4-0.1
			h3.8v3.7H219l0.4,0.7l0.3,0.9l0.2,1l0.1,1.3l0,1.3l-0.1,1.3l-0.3,1.2h15.7l1.1-5.1h-3.1l-0.1,0l-0.1-0.1l-0.1-0.1l-0.1-0.1
			l-0.1-0.2l-0.1-0.2l0-0.2l0-0.2v-0.2l0-0.2l0-0.2l0.1-0.2l0.1-0.2l0.1-0.1l0.1-0.1l0.1-0.1l0.1,0h6.4l0.1,0.1l0.1,0.1l0.1,0.2
			l0.1,0.2l0.1,0.2l0,0.2l0,0.3l0,0.3l0,0.2l-0.1,0.2l-0.1,0.2l-0.1,0.2l-0.1,0.1l-0.1,0.1l-0.3-0.1l-0.3,0l-0.3,0.1l-0.3,0.2
			l-0.3,0.3l-0.2,0.4l-0.2,0.5l-0.1,0.5l-0.7,3.5l3.4,10l1.4-0.9l1.4-0.4l1.5,0.1l1.4,0.6l1.3,1.1l1.2,1.5l1.1,1.9l0.9,2.2l0.6,2.4
			L251.5,288.3z"/>
	</g>
</g>
</svg>
