<?xml version="1.0" encoding="utf-8"?>
<!-- Generator: Adobe Illustrator 22.0.1, SVG Export Plug-In . SVG Version: 6.00 Build 0)  -->
<svg version="1.1" id="Capa_1" xmlns="http://www.w3.org/2000/svg" xmlns:xlink="http://www.w3.org/1999/xlink" x="0px" y="0px"
	 viewBox="0 0 89.2 243" style="enable-background:new 0 0 89.2 243;" xml:space="preserve">
<style type="text/css">
	.st0{fill:#221F1F;}
	.st1{fill:#D81C5F;}
	.st2{fill:#CD1D55;}
	.st3{fill:#FFFFFF;}
</style>
<g>
	<path class="st0" d="M25.5,1.7c1.1,0,1.7,0.7,1.7,1.7c0,1.1-0.6,1.7-1.7,1.7h-1v2h-1V1.7H25.5z M24.5,2.6v1.7h0.9
		c0.5,0,0.8-0.2,0.8-0.8c0-0.6-0.3-0.8-0.8-0.8H24.5z"/>
	<path class="st0" d="M28.9,5.5c0,0.6,0.2,1,0.8,1h1.4v0.6c-0.5,0.1-1,0.2-1.4,0.2c-1.4,0-1.9-0.8-1.9-2.1s0.6-2.1,2-2.1
		c1.1,0,1.6,0.6,1.6,1.3c0,0.6-0.2,1.1-1.2,1.1H28.9z M28.9,4.9h1c0.4,0,0.5-0.2,0.5-0.5c0-0.3-0.2-0.5-0.6-0.5
		C29.2,3.9,28.9,4.3,28.9,4.9z"/>
	<path class="st0" d="M32.1,7.2v-4H33L33,3.9h0c0.3-0.5,0.8-0.8,1.3-0.8v1h-0.2c-0.7,0-1,0.4-1,0.8v2.3H32.1z"/>
	<path class="st0" d="M36.7,3.1c0.5,0,0.8,0,1.3,0.2v0.6h-1.3c-0.5,0-0.7,0.2-0.7,0.4c0,0.2,0.1,0.4,0.6,0.5
		c0.8,0.1,1.5,0.4,1.5,1.3c0,0.9-0.7,1.3-1.7,1.3c-0.5,0-1,0-1.6-0.2V6.5h1.5c0.5,0,0.7-0.3,0.7-0.4c0-0.2-0.1-0.4-0.6-0.5
		C35.8,5.5,35,5.3,35,4.3C35,3.5,35.7,3.1,36.7,3.1z"/>
	<path class="st0" d="M38.8,5.2c0-1.3,0.5-2.1,1.9-2.1c1.4,0,1.9,0.8,1.9,2.1S42,7.3,40.6,7.3C39.3,7.3,38.8,6.5,38.8,5.2z
		 M39.8,5.2c0,0.8,0.2,1.3,0.8,1.3c0.7,0,0.8-0.5,0.8-1.3c0-0.8-0.2-1.3-0.8-1.3C40,3.9,39.8,4.4,39.8,5.2z"/>
	<path class="st0" d="M43.2,7.2v-4h0.9l0.1,0.5h0c0.3-0.4,0.7-0.5,1.2-0.5c0.8,0,1.2,0.5,1.2,1.3v2.9h-1V4.4c0-0.4-0.3-0.6-0.7-0.6
		c-0.3,0-0.8,0.2-0.8,0.7v2.6H43.2z"/>
	<path class="st0" d="M47.6,3.9V3.3c0.5-0.1,1.1-0.2,1.6-0.2c1,0,1.5,0.3,1.5,1.3v2.8h-0.9l-0.1-0.5h0c-0.3,0.4-0.7,0.5-1.2,0.5
		c-0.8,0-1.2-0.5-1.2-1.2c0-1,0.7-1.2,1.4-1.2h1V4.5c0-0.4-0.1-0.6-0.7-0.6H47.6z M49.7,5.5h-0.8c-0.4,0-0.7,0.2-0.7,0.6
		c0,0.4,0.3,0.5,0.6,0.5c0.3,0,0.8-0.2,0.8-0.7V5.5z"/>
	<path class="st0" d="M54.7,3.1c0.4,0,0.7,0,1.3,0.2v0.6h-1.3c-0.7,0-0.8,0.5-0.8,1.3c0,0.8,0.2,1.3,0.8,1.3h1.3v0.6
		c-0.5,0.1-0.8,0.2-1.3,0.2c-1.4,0-1.9-0.8-1.9-2.1S53.3,3.1,54.7,3.1z"/>
	<path class="st0" d="M56.4,5.2c0-1.3,0.5-2.1,1.9-2.1c1.4,0,1.9,0.8,1.9,2.1s-0.5,2.1-1.9,2.1C56.9,7.3,56.4,6.5,56.4,5.2z
		 M57.4,5.2c0,0.8,0.2,1.3,0.8,1.3c0.7,0,0.8-0.5,0.8-1.3c0-0.8-0.2-1.3-0.8-1.3C57.6,3.9,57.4,4.4,57.4,5.2z"/>
	<path class="st0" d="M60.8,7.2v-4h0.9l0.1,0.5h0c0.3-0.4,0.7-0.5,1.2-0.5c0.8,0,1.2,0.5,1.2,1.3v2.9h-1V4.4c0-0.4-0.3-0.6-0.7-0.6
		c-0.3,0-0.8,0.2-0.8,0.7v2.6H60.8z"/>
	<path class="st0" d="M23.5,16.9v-5.5h1.9c1.8,0,2.2,1.4,2.2,2.7c0,1.4-0.4,2.7-2.2,2.7H23.5z M25.3,16c1.1,0,1.3-1,1.3-1.9
		c0-0.9-0.2-1.9-1.3-1.9h-0.8V16H25.3z"/>
	<path class="st0" d="M29.4,11.3v1.1h-1v-1.1H29.4z M29.4,12.9v4h-1v-4H29.4z"/>
	<path class="st0" d="M31.8,12.8c0.5,0,0.8,0,1.3,0.2v0.6h-1.3c-0.5,0-0.7,0.2-0.7,0.4c0,0.2,0.1,0.4,0.6,0.5
		c0.8,0.1,1.5,0.4,1.5,1.3c0,0.9-0.7,1.3-1.7,1.3c-0.5,0-1,0-1.6-0.2v-0.6h1.5c0.5,0,0.7-0.3,0.7-0.4c0-0.2-0.1-0.4-0.6-0.5
		c-0.8-0.1-1.5-0.3-1.5-1.3C30.1,13.1,30.9,12.8,31.8,12.8z"/>
	<path class="st0" d="M35.7,12.8c0.4,0,0.7,0,1.3,0.2v0.6h-1.3c-0.7,0-0.8,0.5-0.8,1.3c0,0.8,0.2,1.3,0.8,1.3H37v0.6
		C36.4,17,36.1,17,35.7,17c-1.4,0-1.9-0.8-1.9-2.1S34.4,12.8,35.7,12.8z"/>
	<path class="st0" d="M37.7,13.6V13c0.5-0.1,1.1-0.2,1.6-0.2c1,0,1.5,0.3,1.5,1.3v2.8h-0.9l-0.1-0.5h0c-0.3,0.4-0.7,0.5-1.2,0.5
		c-0.8,0-1.2-0.5-1.2-1.2c0-1,0.7-1.2,1.4-1.2h1v-0.4c0-0.4-0.1-0.6-0.7-0.6H37.7z M39.8,15.1H39c-0.4,0-0.7,0.2-0.7,0.6
		c0,0.4,0.3,0.5,0.6,0.5c0.3,0,0.8-0.2,0.8-0.7V15.1z"/>
	<path class="st0" d="M42.5,18.5h-1v-5.7h0.9l0.1,0.5h0c0.3-0.4,0.6-0.5,1-0.5c1.1,0,1.5,0.8,1.5,2.1S44.6,17,43.3,17
		c-0.3,0-0.5,0-0.8-0.1V18.5z M42.5,16.2h0.7c0.7,0,0.9-0.5,0.9-1.3c0-0.8-0.1-1.3-0.8-1.3c-0.3,0-0.7,0.2-0.7,0.7V16.2z"/>
	<path class="st0" d="M46,13.6V13c0.5-0.1,1.1-0.2,1.6-0.2c1,0,1.5,0.3,1.5,1.3v2.8h-0.9l-0.1-0.5h0c-0.3,0.4-0.7,0.5-1.2,0.5
		c-0.8,0-1.2-0.5-1.2-1.2c0-1,0.7-1.2,1.4-1.2h1v-0.4c0-0.4-0.1-0.6-0.7-0.6H46z M48.1,15.1h-0.8c-0.4,0-0.7,0.2-0.7,0.6
		c0,0.4,0.3,0.5,0.6,0.5c0.3,0,0.8-0.2,0.8-0.7V15.1z"/>
	<path class="st0" d="M51.6,12.8c0.4,0,0.7,0,1.3,0.2v0.6h-1.3c-0.7,0-0.8,0.5-0.8,1.3c0,0.8,0.2,1.3,0.8,1.3h1.3v0.6
		C52.3,17,52,17,51.6,17c-1.4,0-1.9-0.8-1.9-2.1S50.3,12.8,51.6,12.8z"/>
	<path class="st0" d="M54.4,11.3v1.1h-1v-1.1H54.4z M54.4,12.9v4h-1v-4H54.4z"/>
	<path class="st0" d="M57.7,11.3h1v5.7h-0.9l-0.1-0.5h0c-0.3,0.4-0.6,0.5-1.1,0.5c-1.1,0-1.5-0.8-1.5-2.1s0.5-2.1,1.8-2.1
		c0.3,0,0.5,0,0.8,0.1V11.3z M57.7,13.6H57c-0.7,0-0.9,0.5-0.9,1.3c0,0.8,0.1,1.3,0.8,1.3c0.3,0,0.8-0.2,0.8-0.7V13.6z"/>
	<path class="st0" d="M59.7,13.6V13c0.5-0.1,1.1-0.2,1.6-0.2c1,0,1.5,0.3,1.5,1.3v2.8h-0.9l-0.1-0.5h0c-0.3,0.4-0.7,0.5-1.2,0.5
		c-0.8,0-1.2-0.5-1.2-1.2c0-1,0.7-1.2,1.4-1.2h1v-0.4c0-0.4-0.1-0.6-0.7-0.6H59.7z M61.8,15.1H61c-0.4,0-0.7,0.2-0.7,0.6
		c0,0.4,0.3,0.5,0.6,0.5c0.3,0,0.8-0.2,0.8-0.7V15.1z"/>
	<path class="st0" d="M66.1,11.3h1v5.7h-0.9l-0.1-0.5h0C65.7,16.8,65.4,17,65,17c-1.1,0-1.5-0.8-1.5-2.1s0.5-2.1,1.8-2.1
		c0.3,0,0.5,0,0.8,0.1V11.3z M66.1,13.6h-0.7c-0.7,0-0.9,0.5-0.9,1.3c0,0.8,0.1,1.3,0.8,1.3c0.3,0,0.8-0.2,0.8-0.7V13.6z"/>
	<path class="st0" d="M70.4,10.2h0.8c-0.7,1.3-1,2.6-1,4c0,1.3,0.3,2.6,1,4h-0.8c-0.8-1.1-1.2-2.6-1.2-4
		C69.2,12.8,69.6,11.3,70.4,10.2z"/>
	<path class="st0" d="M74,11.4c1.1,0,1.7,0.7,1.7,1.7c0,1.1-0.6,1.7-1.7,1.7h-1v2h-1v-5.5H74z M73,12.3V14h0.9
		c0.5,0,0.8-0.2,0.8-0.8c0-0.6-0.3-0.8-0.8-0.8H73z"/>
	<path class="st0" d="M78.6,11.3c0.4,0,1,0,1.5,0.2v0.7h-1.4c-1.1,0-1.3,1-1.3,1.9c0,0.9,0.2,1.9,1.3,1.9h1.4v0.7
		C79.6,17,79,17,78.6,17c-1.8,0-2.2-1.5-2.2-2.8C76.4,12.8,76.8,11.3,78.6,11.3z"/>
	<path class="st0" d="M81,16.9v-5.5h1.9c1.8,0,2.2,1.4,2.2,2.7c0,1.4-0.4,2.7-2.2,2.7H81z M82.8,16c1.1,0,1.3-1,1.3-1.9
		c0-0.9-0.2-1.9-1.3-1.9H82V16H82.8z"/>
	<path class="st0" d="M86.5,18.1h-0.8c0.7-1.4,1-2.7,1-4c0-1.3-0.3-2.6-1-4h0.8c0.8,1.1,1.2,2.6,1.2,4C87.7,15.5,87.3,17,86.5,18.1z
		"/>
	<g>
		<path class="st1" d="M20.1,9.8c0-5.4-4.4-9.8-9.8-9.8v0l0,0c0,0,0,0,0,0l0,0C5,0,0.6,4.4,0.6,9.8c0,5.4,4.4,9.8,9.8,9.8v0
			c0,0,0,0,0,0l0,0v0C15.8,19.5,20.1,15.2,20.1,9.8z"/>
		<path class="st2" d="M10.4,0h-0.1C4.9,0.1,0.6,4.5,0.6,9.7h9.7h9.8C20.1,4.5,15.8,0.1,10.4,0z"/>
	</g>
	<g>
		<g>
			<path class="st3" d="M5.9,9.8c0-2,0.3-4,2.6-4c2.4,0,2.7,2.1,2.7,4c0,2-0.3,4-2.7,4C6.2,13.8,5.9,11.8,5.9,9.8z M10.2,9.8
				c0-1.4-0.1-3.1-1.6-3.1C7,6.7,6.9,8.4,6.9,9.8c0,1.4,0.1,3.1,1.6,3.1C10.1,12.9,10.2,11.2,10.2,9.8z"/>
			<path class="st3" d="M14.8,5.8v7.9h-1V6.9l-1.5,0.8L12,6.9l1.9-1.1H14.8z"/>
		</g>
	</g>
</g>
<g>
	<path class="st0" d="M23.9,82.2h-1.4l-1.6-5.5h1.1l1.2,4.3h0l1.2-4.3h1.1L23.9,82.2z"/>
	<path class="st0" d="M26.6,80.4c0,0.6,0.2,1,0.8,1h1.4V82c-0.5,0.1-1,0.2-1.4,0.2c-1.4,0-1.9-0.8-1.9-2.1c0-1.3,0.6-2.1,2-2.1
		c1.1,0,1.6,0.6,1.6,1.3c0,0.6-0.2,1.1-1.2,1.1H26.6z M26.6,79.8h1c0.4,0,0.5-0.2,0.5-0.5c0-0.3-0.2-0.5-0.6-0.5
		C27,78.8,26.7,79.2,26.6,79.8z"/>
	<path class="st0" d="M29.8,82.1v-5.7h1v2.1h0c0.3-0.4,0.7-0.5,1.2-0.5c0.8,0,1.2,0.5,1.2,1.3v2.9h-1v-2.8c0-0.4-0.3-0.6-0.7-0.6
		c-0.3,0-0.8,0.2-0.8,0.7v2.6H29.8z"/>
	<path class="st0" d="M35,78.1v4h-1v-4H35z M35.6,76.5l-0.7,1.1h-0.7l0.5-1.1H35.6z"/>
	<path class="st0" d="M37.6,78c0.4,0,0.7,0,1.3,0.2v0.6h-1.3c-0.7,0-0.8,0.5-0.8,1.3c0,0.8,0.2,1.3,0.8,1.3h1.3V82
		c-0.5,0.1-0.8,0.2-1.3,0.2c-1.4,0-1.9-0.8-1.9-2.1C35.7,78.9,36.2,78,37.6,78z"/>
	<path class="st0" d="M42.8,78.1v4h-0.9l-0.1-0.5h0c-0.3,0.4-0.7,0.5-1.2,0.5c-0.8,0-1.2-0.5-1.2-1.3v-2.9h1v2.8
		c0,0.4,0.3,0.6,0.7,0.6c0.3,0,0.8-0.2,0.8-0.7v-2.6H42.8z"/>
	<path class="st0" d="M43.6,76.5h1V81c0,0.3,0.1,0.4,0.6,0.4v0.8c-1.3,0.1-1.5-0.2-1.5-1.1V76.5z"/>
	<path class="st0" d="M45.5,80.1c0-1.3,0.5-2.1,1.9-2.1c1.4,0,1.9,0.8,1.9,2.1c0,1.3-0.5,2.1-1.9,2.1C46,82.2,45.5,81.4,45.5,80.1z
		 M46.5,80.1c0,0.8,0.2,1.3,0.8,1.3c0.7,0,0.8-0.5,0.8-1.3c0-0.8-0.2-1.3-0.8-1.3C46.7,78.8,46.5,79.3,46.5,80.1z"/>
	<path class="st0" d="M51.4,82.1v-5.5h1l2,3.7h0v-3.7h1v5.5h-1l-2-3.6h0v3.6H51.4z"/>
	<path class="st0" d="M56.2,80.1c0-1.3,0.5-2.1,1.9-2.1c1.4,0,1.9,0.8,1.9,2.1c0,1.3-0.5,2.1-1.9,2.1C56.7,82.2,56.2,81.4,56.2,80.1
		z M57.3,80.1c0,0.8,0.2,1.3,0.8,1.3c0.7,0,0.8-0.5,0.8-1.3c0-0.8-0.2-1.3-0.8-1.3C57.4,78.8,57.3,79.3,57.3,80.1z"/>
	<path class="st0" d="M22.2,88.2L22.2,88.2L22,91.8h-1l0.3-5.5h1.3l1,3.7h0l1-3.7h1.3l0.4,5.5h-1L25,88.2h0l-0.9,3.7h-1L22.2,88.2z"
		/>
	<path class="st0" d="M26.9,89.8c0-1.3,0.5-2.1,1.9-2.1c1.4,0,1.9,0.8,1.9,2.1c0,1.3-0.5,2.1-1.9,2.1C27.4,91.9,26.9,91.1,26.9,89.8
		z M28,89.8c0,0.8,0.2,1.3,0.8,1.3c0.7,0,0.8-0.5,0.8-1.3c0-0.8-0.2-1.3-0.8-1.3C28.1,88.5,28,89,28,89.8z"/>
	<path class="st0" d="M31.6,90.8v-2.3H31V88l0.6-0.2l0.4-1.1h0.5v1.1h1v0.8h-1v2.2c0,0.3,0.1,0.4,0.4,0.4h0.6v0.6
		c-0.3,0.1-0.5,0.2-0.8,0.2C31.9,91.9,31.6,91.4,31.6,90.8z"/>
	<path class="st0" d="M34,89.8c0-1.3,0.5-2.1,1.9-2.1c1.4,0,1.9,0.8,1.9,2.1c0,1.3-0.5,2.1-1.9,2.1C34.5,91.9,34,91.1,34,89.8z
		 M35,89.8c0,0.8,0.2,1.3,0.8,1.3c0.7,0,0.8-0.5,0.8-1.3c0-0.8-0.2-1.3-0.8-1.3C35.2,88.5,35,89,35,89.8z"/>
	<path class="st0" d="M38.4,91.8v-4h0.9l0.1,0.7h0c0.3-0.5,0.8-0.8,1.3-0.8v1h-0.2c-0.7,0-1,0.4-1,0.8v2.3H38.4z"/>
	<path class="st0" d="M42.2,86.2v1.1h-1v-1.1H42.2z M42.2,87.8v4h-1v-4H42.2z"/>
	<path class="st0" d="M46.1,88.5l-2,2.6h2.1v0.8h-3.3v-0.7l2-2.6H43v-0.8h3.1V88.5z"/>
	<path class="st0" d="M47,88.5v-0.6c0.5-0.1,1.1-0.2,1.6-0.2c1,0,1.5,0.3,1.5,1.3v2.8h-0.9l-0.1-0.5h0c-0.3,0.4-0.7,0.5-1.2,0.5
		c-0.8,0-1.2-0.5-1.2-1.2c0-1,0.7-1.2,1.4-1.2h1v-0.4c0-0.4-0.1-0.6-0.7-0.6H47z M49.1,90.1h-0.8c-0.4,0-0.7,0.2-0.7,0.6
		c0,0.4,0.3,0.5,0.6,0.5c0.3,0,0.8-0.2,0.8-0.7V90.1z"/>
	<path class="st0" d="M53.4,86.2h1v5.7h-0.9l-0.1-0.5h0c-0.3,0.4-0.6,0.5-1.1,0.5c-1.1,0-1.5-0.8-1.5-2.1c0-1.3,0.5-2.1,1.8-2.1
		c0.3,0,0.5,0,0.8,0.1V86.2z M53.4,88.5h-0.7c-0.7,0-0.9,0.5-0.9,1.3c0,0.8,0.1,1.3,0.8,1.3c0.3,0,0.8-0.2,0.8-0.7V88.5z"/>
	<path class="st0" d="M55.1,89.8c0-1.3,0.5-2.1,1.9-2.1c1.4,0,1.9,0.8,1.9,2.1c0,1.3-0.5,2.1-1.9,2.1C55.6,91.9,55.1,91.1,55.1,89.8
		z M56.1,89.8c0,0.8,0.2,1.3,0.8,1.3c0.7,0,0.8-0.5,0.8-1.3c0-0.8-0.2-1.3-0.8-1.3C56.3,88.5,56.1,89,56.1,89.8z"/>
	<g>
		<path class="st1" d="M19.5,84.2c0-5.4-4.4-9.8-9.8-9.8v0l0,0l0,0v0c-5.4,0-9.8,4.4-9.8,9.8C0,89.6,4.4,94,9.8,94v0l0,0l0,0v0
			C15.2,94,19.5,89.6,19.5,84.2z"/>
		<path class="st2" d="M9.8,74.5l-0.1,0C4.3,74.5,0,78.9,0,84.2h9.7h9.8C19.5,78.9,15.3,74.5,9.8,74.5z"/>
	</g>
	<g>
		<g>
			<path class="st3" d="M4.3,84.3c0-2,0.3-4,2.6-4c2.4,0,2.7,2.1,2.7,4c0,2-0.3,4-2.7,4C4.5,88.3,4.3,86.2,4.3,84.3z M8.5,84.3
				c0-1.4-0.1-3.1-1.6-3.1c-1.6,0-1.6,1.8-1.6,3.1c0,1.4,0.1,3.1,1.6,3.1C8.5,87.4,8.5,85.6,8.5,84.3z"/>
			<path class="st3" d="M15.1,81.2l-2.6,2.4c2,0.5,2.7,1.4,2.7,2.6c0,1.4-1,2.2-2.6,2.2c-0.6,0-1.3-0.1-2-0.2v-0.7h2
				c1.1,0,1.6-0.5,1.6-1.2c0-1.1-0.9-1.5-2.9-2v-0.5l2.4-2.4h-3v-0.9h4.3V81.2z"/>
		</g>
	</g>
</g>
<g>
	<path class="st0" d="M24.4,118.8v4.6h-1v-4.6H22V118h3.9v0.9H24.4z"/>
	<path class="st0" d="M26.2,123.4v-4h0.9l0.1,0.7h0c0.3-0.5,0.8-0.8,1.3-0.8v1h-0.2c-0.7,0-1,0.4-1,0.8v2.3H26.2z"/>
	<path class="st0" d="M29,120.1v-0.6c0.5-0.1,1.1-0.2,1.6-0.2c1,0,1.5,0.3,1.5,1.3v2.8h-0.9l-0.1-0.5h0c-0.3,0.4-0.7,0.5-1.2,0.5
		c-0.8,0-1.2-0.5-1.2-1.2c0-1,0.7-1.2,1.4-1.2h1v-0.4c0-0.4-0.1-0.6-0.7-0.6H29z M31.1,121.7h-0.8c-0.4,0-0.7,0.2-0.7,0.6
		c0,0.4,0.3,0.5,0.6,0.5c0.3,0,0.8-0.2,0.8-0.7V121.7z"/>
	<path class="st0" d="M32.9,123.4v-4h0.9l0.1,0.5h0c0.3-0.4,0.7-0.5,1.2-0.5c0.8,0,1.2,0.5,1.2,1.3v2.9h-1v-2.8
		c0-0.4-0.3-0.6-0.7-0.6c-0.3,0-0.8,0.2-0.8,0.7v2.6H32.9z"/>
	<path class="st0" d="M38.7,119.3c0.5,0,0.8,0,1.3,0.2v0.6h-1.3c-0.5,0-0.7,0.2-0.7,0.4c0,0.2,0.1,0.4,0.6,0.5
		c0.8,0.1,1.5,0.4,1.5,1.3c0,0.9-0.7,1.3-1.7,1.3c-0.5,0-1,0-1.6-0.2v-0.6h1.5c0.5,0,0.7-0.3,0.7-0.4c0-0.2-0.1-0.4-0.6-0.5
		c-0.8-0.1-1.5-0.3-1.5-1.3C37,119.7,37.7,119.3,38.7,119.3z"/>
	<path class="st0" d="M41.9,125.1h-1v-5.7h0.9l0.1,0.5h0c0.3-0.4,0.6-0.5,1-0.5c1.1,0,1.5,0.8,1.5,2.1c0,1.3-0.5,2.1-1.8,2.1
		c-0.3,0-0.5,0-0.8-0.1V125.1z M41.9,122.7h0.7c0.7,0,0.9-0.5,0.9-1.3c0-0.8-0.1-1.3-0.8-1.3c-0.3,0-0.7,0.2-0.7,0.7V122.7z"/>
	<path class="st0" d="M45.1,121.4c0-1.3,0.5-2.1,1.9-2.1c1.4,0,1.9,0.8,1.9,2.1c0,1.3-0.5,2.1-1.9,2.1
		C45.6,123.5,45.1,122.7,45.1,121.4z M46.1,121.4c0,0.8,0.2,1.3,0.8,1.3c0.7,0,0.8-0.5,0.8-1.3c0-0.8-0.2-1.3-0.8-1.3
		C46.3,120.1,46.1,120.6,46.1,121.4z"/>
	<path class="st0" d="M49.5,123.4v-4h0.9l0.1,0.7h0c0.3-0.5,0.8-0.8,1.3-0.8v1h-0.2c-0.7,0-1,0.4-1,0.8v2.3H49.5z"/>
	<path class="st0" d="M52.6,122.4v-2.3H52v-0.6l0.6-0.2l0.4-1.1h0.5v1.1h1v0.8h-1v2.2c0,0.3,0.1,0.4,0.4,0.4h0.6v0.6
		c-0.3,0.1-0.5,0.2-0.8,0.2C52.9,123.5,52.6,123.1,52.6,122.4z"/>
	<path class="st0" d="M56,121.7c0,0.6,0.2,1,0.8,1h1.4v0.6c-0.5,0.1-1,0.2-1.4,0.2c-1.4,0-1.9-0.8-1.9-2.1c0-1.3,0.6-2.1,2-2.1
		c1.1,0,1.6,0.6,1.6,1.3c0,0.6-0.2,1.1-1.2,1.1H56z M56.1,121.1h1c0.4,0,0.5-0.2,0.5-0.5c0-0.3-0.2-0.5-0.6-0.5
		C56.4,120.1,56.1,120.5,56.1,121.1z"/>
	<path class="st0" d="M62.9,118c1.1,0,1.7,0.7,1.7,1.7c0,1.1-0.6,1.7-1.7,1.7h-1v2h-1V118H62.9z M61.9,118.8v1.7h0.9
		c0.5,0,0.8-0.2,0.8-0.8c0-0.6-0.3-0.8-0.8-0.8H61.9z"/>
	<path class="st0" d="M68.7,119.4v4h-0.9l-0.1-0.5h0c-0.3,0.4-0.7,0.5-1.2,0.5c-0.8,0-1.2-0.5-1.2-1.3v-2.9h1v2.8
		c0,0.4,0.3,0.6,0.7,0.6c0.3,0,0.8-0.2,0.8-0.7v-2.6H68.7z M68.1,117.8l-0.7,1.1h-0.7l0.5-1.1H68.1z"/>
	<path class="st0" d="M69.6,123.4v-5.7h1v2.1h0c0.3-0.4,0.6-0.5,1-0.5c1.1,0,1.5,0.8,1.5,2.1c0,1.3-0.6,2-1.8,2H69.6z M70.5,122.7
		h0.7c0.7,0,0.9-0.5,0.9-1.3c0-0.8-0.1-1.3-0.8-1.3c-0.3,0-0.7,0.2-0.7,0.7V122.7z"/>
	<path class="st0" d="M73.8,117.8h1v4.6c0,0.3,0.1,0.4,0.6,0.4v0.8c-1.3,0.1-1.5-0.2-1.5-1.1V117.8z"/>
	<path class="st0" d="M76.8,117.8v1.1h-1v-1.1H76.8z M76.8,119.4v4h-1v-4H76.8z"/>
	<path class="st0" d="M79.4,119.3c0.4,0,0.7,0,1.3,0.2v0.6h-1.3c-0.7,0-0.8,0.5-0.8,1.3c0,0.8,0.2,1.3,0.8,1.3h1.3v0.6
		c-0.5,0.1-0.8,0.2-1.3,0.2c-1.4,0-1.9-0.8-1.9-2.1C77.5,120.2,78,119.3,79.4,119.3z"/>
	<path class="st0" d="M81.1,121.4c0-1.3,0.5-2.1,1.9-2.1c1.4,0,1.9,0.8,1.9,2.1c0,1.3-0.5,2.1-1.9,2.1
		C81.6,123.5,81.1,122.7,81.1,121.4z M82.1,121.4c0,0.8,0.2,1.3,0.8,1.3c0.7,0,0.8-0.5,0.8-1.3c0-0.8-0.2-1.3-0.8-1.3
		C82.3,120.1,82.1,120.6,82.1,121.4z"/>
	<g>
		<path class="st1" d="M19.5,121.5c0-5.4-4.4-9.8-9.8-9.8v0c0,0,0,0,0,0s0,0,0,0v0c-5.4,0-9.8,4.4-9.8,9.8c0,5.4,4.4,9.8,9.8,9.8v0
			c0,0,0,0,0,0s0,0,0,0v0C15.2,131.3,19.5,126.9,19.5,121.5z"/>
		<path class="st2" d="M9.8,111.7l-0.1,0c-5.4,0.1-9.7,4.5-9.7,9.7h9.7h9.8C19.5,116.2,15.3,111.8,9.8,111.7z"/>
	</g>
	<g>
		<g>
			<path class="st3" d="M3.9,121.5c0-2,0.3-4,2.7-4c2.4,0,2.7,2.1,2.7,4c0,2-0.3,4-2.7,4C4.2,125.5,3.9,123.5,3.9,121.5z M8.2,121.5
				c0-1.4-0.1-3.1-1.6-3.1c-1.6,0-1.6,1.8-1.6,3.1c0,1.4,0.1,3.1,1.6,3.1C8.2,124.6,8.2,122.9,8.2,121.5z"/>
			<path class="st3" d="M14.7,120.9v1.9h0.9v0.9h-0.9v1.8h-1v-1.8h-3.4v-0.8l2.9-5.3h1l-2.9,5.2h2.4l0.3-1.9H14.7z"/>
		</g>
	</g>
</g>
<g>
	<path class="st0" d="M25.4,160.8H24l-1.6-5.5h1.1l1.2,4.3h0l1.2-4.3h1.1L25.4,160.8z"/>
	<path class="st0" d="M28.2,159c0,0.6,0.2,1,0.8,1h1.4v0.6c-0.5,0.1-1,0.2-1.4,0.2c-1.4,0-1.9-0.8-1.9-2.1c0-1.3,0.6-2.1,2-2.1
		c1.1,0,1.6,0.6,1.6,1.3c0,0.6-0.2,1.1-1.2,1.1H28.2z M28.2,158.4h1c0.4,0,0.5-0.2,0.5-0.5c0-0.3-0.2-0.5-0.6-0.5
		C28.5,157.4,28.2,157.9,28.2,158.4z"/>
	<path class="st0" d="M31.4,160.8v-5.7h1v2.1h0c0.3-0.4,0.7-0.5,1.2-0.5c0.8,0,1.2,0.5,1.2,1.3v2.9h-1V158c0-0.4-0.3-0.6-0.7-0.6
		c-0.3,0-0.8,0.2-0.8,0.7v2.6H31.4z"/>
	<path class="st0" d="M36.5,156.7v4h-1v-4H36.5z M37.1,155.1l-0.7,1.1h-0.7l0.5-1.1H37.1z"/>
	<path class="st0" d="M39.1,156.6c0.4,0,0.7,0,1.3,0.2v0.6h-1.3c-0.7,0-0.8,0.5-0.8,1.3c0,0.8,0.2,1.3,0.8,1.3h1.3v0.6
		c-0.5,0.1-0.8,0.2-1.3,0.2c-1.4,0-1.9-0.8-1.9-2.1C37.3,157.5,37.8,156.6,39.1,156.6z"/>
	<path class="st0" d="M44.3,156.7v4h-0.9l-0.1-0.5h0c-0.3,0.4-0.7,0.5-1.2,0.5c-0.8,0-1.2-0.5-1.2-1.3v-2.9h1v2.8
		c0,0.4,0.3,0.6,0.7,0.6c0.3,0,0.8-0.2,0.8-0.7v-2.6H44.3z"/>
	<path class="st0" d="M45.1,155.1h1v4.6c0,0.3,0.1,0.4,0.6,0.4v0.8c-1.3,0.1-1.5-0.2-1.5-1.1V155.1z"/>
	<path class="st0" d="M47,158.7c0-1.3,0.5-2.1,1.9-2.1c1.4,0,1.9,0.8,1.9,2.1c0,1.3-0.5,2.1-1.9,2.1C47.5,160.8,47,160,47,158.7z
		 M48,158.7c0,0.8,0.2,1.3,0.8,1.3c0.7,0,0.8-0.5,0.8-1.3c0-0.8-0.2-1.3-0.8-1.3C48.2,157.4,48,158,48,158.7z"/>
	<path class="st0" d="M55.4,155.1h1v5.7h-0.9l-0.1-0.5h0c-0.3,0.4-0.6,0.5-1.1,0.5c-1.1,0-1.5-0.8-1.5-2.1c0-1.3,0.5-2.1,1.8-2.1
		c0.3,0,0.5,0,0.8,0.1V155.1z M55.4,157.4h-0.7c-0.7,0-0.9,0.5-0.9,1.3c0,0.8,0.1,1.3,0.8,1.3c0.3,0,0.8-0.2,0.8-0.7V157.4z"/>
	<path class="st0" d="M58.1,159c0,0.6,0.2,1,0.8,1h1.4v0.6c-0.5,0.1-1,0.2-1.4,0.2c-1.4,0-1.9-0.8-1.9-2.1c0-1.3,0.6-2.1,2-2.1
		c1.1,0,1.6,0.6,1.6,1.3c0,0.6-0.2,1.1-1.2,1.1H58.1z M58.1,158.4h1c0.4,0,0.5-0.2,0.5-0.5c0-0.3-0.2-0.5-0.6-0.5
		C58.5,157.4,58.2,157.9,58.1,158.4z"/>
	<path class="st0" d="M65,155.2c0.4,0,1,0,1.5,0.2v0.7h-1.4c-1.1,0-1.3,1-1.3,1.9c0,0.9,0.2,1.9,1.3,1.9h1.4v0.7
		c-0.5,0.1-1.1,0.2-1.5,0.2c-1.8,0-2.2-1.5-2.2-2.8C62.8,156.6,63.2,155.2,65,155.2z"/>
	<path class="st0" d="M67.4,157.4v-0.6c0.5-0.1,1.1-0.2,1.6-0.2c1,0,1.5,0.3,1.5,1.3v2.8h-0.9l-0.1-0.5h0c-0.3,0.4-0.7,0.5-1.2,0.5
		c-0.8,0-1.2-0.5-1.2-1.2c0-1,0.7-1.2,1.4-1.2h1V158c0-0.4-0.1-0.6-0.7-0.6H67.4z M69.5,159h-0.8c-0.4,0-0.7,0.2-0.7,0.6
		c0,0.4,0.3,0.5,0.6,0.5c0.3,0,0.8-0.2,0.8-0.7V159z"/>
	<path class="st0" d="M71.3,160.8v-4h0.9l0.1,0.7h0c0.3-0.5,0.8-0.8,1.3-0.8v1h-0.2c-0.7,0-1,0.4-1,0.8v2.3H71.3z"/>
	<path class="st0" d="M76.6,160.3L76.6,160.3c-0.3,0.4-0.6,0.5-1.1,0.5c-1.1,0-1.5-0.8-1.5-2.1c0-1.3,0.6-2,1.8-2h1.7v3.6
		c0,1.3-0.5,2.1-1.9,2.1c-0.4,0-0.8,0-1.4-0.2v-0.6h1.4c0.7,0,0.8-0.5,0.8-1.2V160.3z M76.6,157.5h-0.7c-0.7,0-0.9,0.5-0.9,1.3
		c0,0.7,0.1,1.3,0.8,1.3c0.3,0,0.8-0.2,0.8-0.7V157.5z"/>
	<path class="st0" d="M78.5,157.4v-0.6c0.5-0.1,1.1-0.2,1.6-0.2c1,0,1.5,0.3,1.5,1.3v2.8h-0.9l-0.1-0.5h0c-0.3,0.4-0.7,0.5-1.2,0.5
		c-0.8,0-1.2-0.5-1.2-1.2c0-1,0.7-1.2,1.4-1.2h1V158c0-0.4-0.1-0.6-0.7-0.6H78.5z M80.6,159h-0.8c-0.4,0-0.7,0.2-0.7,0.6
		c0,0.4,0.3,0.5,0.6,0.5c0.3,0,0.8-0.2,0.8-0.7V159z"/>
	<g>
		<path class="st1" d="M19.5,158.7c0-5.4-4.4-9.8-9.8-9.8v0c0,0,0,0,0,0l0,0v0c-5.4,0-9.8,4.4-9.8,9.8s4.4,9.8,9.8,9.8v0l0,0
			c0,0,0,0,0,0l0,0C15.2,168.5,19.5,164.1,19.5,158.7z"/>
		<path class="st2" d="M9.8,148.9l-0.1,0C4.3,149,0,153.4,0,158.7h9.7h9.8C19.5,153.4,15.3,149,9.8,148.9z"/>
	</g>
	<g>
		<g>
			<path class="st3" d="M4.3,158.7c0-2,0.3-4,2.7-4c2.4,0,2.6,2.1,2.6,4c0,2-0.3,4-2.6,4C4.5,162.8,4.3,160.7,4.3,158.7z M8.5,158.7
				c0-1.4-0.1-3.1-1.6-3.1c-1.6,0-1.6,1.7-1.6,3.1c0,1.4,0.1,3.1,1.6,3.1C8.5,161.9,8.5,160.1,8.5,158.7z"/>
			<path class="st3" d="M11.9,157.8c2.6,0.7,3.4,1.6,3.4,2.8c0,1.4-1,2.2-2.5,2.2c-0.6,0-1.3-0.1-2-0.2v-0.7h2
				c1.1,0,1.6-0.5,1.6-1.2c0-1.1-1-1.6-3.3-2.2l0.2-3.6h3.8v0.9h-3L11.9,157.8z"/>
		</g>
	</g>
</g>
<g>
	<path class="st0" d="M25.8,197.5h-1.4l-1.6-5.5h1.1l1.2,4.3h0l1.2-4.3h1.1L25.8,197.5z"/>
	<path class="st0" d="M28.6,195.8c0,0.6,0.2,1,0.8,1h1.4v0.6c-0.5,0.1-1,0.2-1.4,0.2c-1.4,0-1.9-0.8-1.9-2.1s0.6-2.1,2-2.1
		c1.1,0,1.6,0.6,1.6,1.3c0,0.6-0.2,1.1-1.2,1.1H28.6z M28.6,195.2h1c0.4,0,0.5-0.2,0.5-0.5c0-0.3-0.2-0.5-0.6-0.5
		C28.9,194.2,28.6,194.6,28.6,195.2z"/>
	<path class="st0" d="M31.8,197.5v-5.7h1v2.1h0c0.3-0.4,0.7-0.5,1.2-0.5c0.8,0,1.2,0.5,1.2,1.3v2.9h-1v-2.8c0-0.4-0.3-0.6-0.7-0.6
		c-0.3,0-0.8,0.2-0.8,0.7v2.6H31.8z"/>
	<path class="st0" d="M36.9,193.5v4h-1v-4H36.9z M37.5,191.9l-0.7,1.1h-0.7l0.5-1.1H37.5z"/>
	<path class="st0" d="M39.5,193.4c0.4,0,0.7,0,1.3,0.2v0.6h-1.3c-0.7,0-0.8,0.5-0.8,1.3c0,0.8,0.2,1.3,0.8,1.3h1.3v0.6
		c-0.5,0.1-0.8,0.2-1.3,0.2c-1.4,0-1.9-0.8-1.9-2.1S38.2,193.4,39.5,193.4z"/>
	<path class="st0" d="M44.7,193.5v4h-0.9l-0.1-0.5h0c-0.3,0.4-0.7,0.5-1.2,0.5c-0.8,0-1.2-0.5-1.2-1.3v-2.9h1v2.8
		c0,0.4,0.3,0.6,0.7,0.6c0.3,0,0.8-0.2,0.8-0.7v-2.6H44.7z"/>
	<path class="st0" d="M45.5,191.9h1v4.6c0,0.3,0.1,0.4,0.6,0.4v0.8c-1.3,0.1-1.5-0.2-1.5-1.1V191.9z"/>
	<path class="st0" d="M47.4,195.5c0-1.3,0.5-2.1,1.9-2.1c1.4,0,1.9,0.8,1.9,2.1s-0.5,2.1-1.9,2.1C47.9,197.6,47.4,196.8,47.4,195.5z
		 M48.4,195.5c0,0.8,0.2,1.3,0.8,1.3c0.7,0,0.8-0.5,0.8-1.3c0-0.8-0.2-1.3-0.8-1.3C48.6,194.2,48.4,194.7,48.4,195.5z"/>
	<path class="st0" d="M55.4,192c1.1,0,1.7,0.7,1.7,1.7c0,1.1-0.6,1.7-1.7,1.7h-1v2h-1V192H55.4z M54.4,192.9v1.7h0.9
		c0.5,0,0.8-0.2,0.8-0.8c0-0.6-0.3-0.8-0.8-0.8H54.4z"/>
	<path class="st0" d="M57.9,194.2v-0.6c0.5-0.1,1.1-0.2,1.6-0.2c1,0,1.5,0.3,1.5,1.3v2.8h-0.9L60,197h0c-0.3,0.4-0.7,0.5-1.2,0.5
		c-0.8,0-1.2-0.5-1.2-1.2c0-1,0.7-1.2,1.4-1.2h1v-0.4c0-0.4-0.1-0.6-0.7-0.6H57.9z M60,195.7h-0.8c-0.4,0-0.7,0.2-0.7,0.6
		c0,0.4,0.3,0.5,0.6,0.5c0.3,0,0.8-0.2,0.8-0.7V195.7z"/>
	<path class="st0" d="M61.8,197.5v-4h0.9l0.1,0.7h0c0.3-0.5,0.8-0.8,1.3-0.8v1h-0.2c-0.7,0-1,0.4-1,0.8v2.3H61.8z"/>
	<path class="st0" d="M64.9,196.5v-2.3h-0.6v-0.6l0.6-0.2l0.4-1.1h0.5v1.1h1v0.8h-1v2.2c0,0.3,0.1,0.4,0.4,0.4h0.6v0.6
		c-0.3,0.1-0.5,0.2-0.8,0.2C65.2,197.6,64.9,197.1,64.9,196.5z"/>
	<path class="st0" d="M68.4,191.9v1.1h-1v-1.1H68.4z M68.4,193.5v4h-1v-4H68.4z"/>
	<path class="st0" d="M70.9,193.4c0.4,0,0.7,0,1.3,0.2v0.6h-1.3c-0.7,0-0.8,0.5-0.8,1.3c0,0.8,0.2,1.3,0.8,1.3h1.3v0.6
		c-0.5,0.1-0.8,0.2-1.3,0.2c-1.4,0-1.9-0.8-1.9-2.1S69.6,193.4,70.9,193.4z"/>
	<path class="st0" d="M76.2,193.5v4h-0.9l-0.1-0.5h0c-0.3,0.4-0.7,0.5-1.2,0.5c-0.8,0-1.2-0.5-1.2-1.3v-2.9h1v2.8
		c0,0.4,0.3,0.6,0.7,0.6s0.8-0.2,0.8-0.7v-2.6H76.2z"/>
	<path class="st0" d="M77,191.9h1v4.6c0,0.3,0.1,0.4,0.6,0.4v0.8c-1.3,0.1-1.5-0.2-1.5-1.1V191.9z"/>
	<path class="st0" d="M79.1,194.2v-0.6c0.5-0.1,1.1-0.2,1.6-0.2c1,0,1.5,0.3,1.5,1.3v2.8h-0.9l-0.1-0.5h0c-0.3,0.4-0.7,0.5-1.2,0.5
		c-0.8,0-1.2-0.5-1.2-1.2c0-1,0.7-1.2,1.4-1.2h1v-0.4c0-0.4-0.1-0.6-0.7-0.6H79.1z M81.2,195.7h-0.8c-0.4,0-0.7,0.2-0.7,0.6
		c0,0.4,0.3,0.5,0.6,0.5c0.3,0,0.8-0.2,0.8-0.7V195.7z"/>
	<path class="st0" d="M83,197.5v-4h0.9l0.1,0.7h0c0.3-0.5,0.8-0.8,1.3-0.8v1H85c-0.7,0-1,0.4-1,0.8v2.3H83z"/>
	<g>
		<g>
			<path class="st1" d="M19.5,196c0-5.4-4.4-9.8-9.8-9.8v0c0,0,0,0,0,0l0,0v0c-5.4,0-9.8,4.4-9.8,9.8c0,5.4,4.4,9.8,9.8,9.8v0l0,0
				c0,0,0,0,0,0l0,0C15.2,205.7,19.5,201.4,19.5,196z"/>
			<path class="st2" d="M9.8,186.2l-0.1,0c-5.4,0.1-9.7,4.5-9.7,9.7h9.7h9.8C19.5,190.6,15.3,186.2,9.8,186.2z"/>
		</g>
	</g>
	<g>
		<path class="st3" d="M4.3,195.9c0-2,0.3-4,2.6-4c2.4,0,2.7,2.1,2.7,4c0,2-0.3,4-2.7,4C4.5,200,4.3,197.9,4.3,195.9z M8.5,195.9
			c0-1.4-0.1-3.1-1.6-3.1c-1.6,0-1.6,1.8-1.6,3.1c0,1.4,0.1,3.1,1.6,3.1C8.5,199,8.5,197.3,8.5,195.9z"/>
		<path class="st3" d="M10.9,195.9c0-2,0.7-4,3.1-4c0.6,0,0.9,0.1,1.6,0.2v0.7h-1.6c-1.5,0-2,1.3-2.1,2.5c0.5-0.1,1-0.1,1.4-0.1
			c1.8,0,2.7,0.7,2.7,2.4c0,1.5-0.9,2.4-2.5,2.4C11.3,200,10.9,198.1,10.9,195.9z M15.1,197.5c0-1.1-0.6-1.5-1.7-1.5H12
			c0,1.3-0.1,3,1.7,3C14.6,199,15.1,198.6,15.1,197.5z"/>
	</g>
</g>
<g>
	<path class="st0" d="M29.8,234.2h-1.4l-1.6-5.5h1.1l1.2,4.3h0l1.2-4.3h1.1L29.8,234.2z"/>
	<path class="st0" d="M32.5,232.5c0,0.6,0.2,1,0.8,1h1.4v0.6c-0.5,0.1-1,0.2-1.4,0.2c-1.4,0-1.9-0.8-1.9-2.1c0-1.3,0.6-2.1,2-2.1
		c1.1,0,1.6,0.6,1.6,1.3c0,0.6-0.2,1.1-1.2,1.1H32.5z M32.5,231.8h1c0.4,0,0.5-0.2,0.5-0.5c0-0.3-0.2-0.5-0.6-0.5
		C32.9,230.9,32.6,231.3,32.5,231.8z"/>
	<path class="st0" d="M35.7,234.2v-5.7h1v2.1h0c0.3-0.4,0.7-0.5,1.2-0.5c0.8,0,1.2,0.5,1.2,1.3v2.9h-1v-2.8c0-0.4-0.3-0.6-0.7-0.6
		c-0.3,0-0.8,0.2-0.8,0.7v2.6H35.7z"/>
	<path class="st0" d="M40.9,230.1v4h-1v-4H40.9z M41.5,228.5l-0.7,1.1h-0.7l0.5-1.1H41.5z"/>
	<path class="st0" d="M43.5,230.1c0.4,0,0.7,0,1.3,0.2v0.6h-1.3c-0.7,0-0.8,0.5-0.8,1.3c0,0.8,0.2,1.3,0.8,1.3h1.3v0.6
		c-0.5,0.1-0.8,0.2-1.3,0.2c-1.4,0-1.9-0.8-1.9-2.1C41.6,230.9,42.1,230.1,43.5,230.1z"/>
	<path class="st0" d="M48.7,230.1v4h-0.9l-0.1-0.5h0c-0.3,0.4-0.7,0.5-1.2,0.5c-0.8,0-1.2-0.5-1.2-1.3v-2.9h1v2.8
		c0,0.4,0.3,0.6,0.7,0.6c0.3,0,0.8-0.2,0.8-0.7v-2.6H48.7z"/>
	<path class="st0" d="M49.5,228.5h1v4.6c0,0.3,0.1,0.4,0.6,0.4v0.8c-1.3,0.1-1.5-0.2-1.5-1.1V228.5z"/>
	<path class="st0" d="M51.4,232.2c0-1.3,0.5-2.1,1.9-2.1c1.4,0,1.9,0.8,1.9,2.1c0,1.3-0.5,2.1-1.9,2.1
		C51.9,234.3,51.4,233.4,51.4,232.2z M52.4,232.2c0,0.8,0.2,1.3,0.8,1.3c0.7,0,0.8-0.5,0.8-1.3c0-0.8-0.2-1.3-0.8-1.3
		C52.6,230.9,52.4,231.4,52.4,232.2z"/>
	<path class="st0" d="M59.4,228.7c1.1,0,1.7,0.7,1.7,1.7c0,1.1-0.6,1.7-1.7,1.7h-1v2h-1v-5.5H59.4z M58.4,229.6v1.7h0.9
		c0.5,0,0.8-0.2,0.8-0.8c0-0.6-0.3-0.8-0.8-0.8H58.4z"/>
	<path class="st0" d="M61.9,230.9v-0.6c0.5-0.1,1.1-0.2,1.6-0.2c1,0,1.5,0.3,1.5,1.3v2.8h-0.9l-0.1-0.5h0c-0.3,0.4-0.7,0.5-1.2,0.5
		c-0.8,0-1.2-0.5-1.2-1.2c0-1,0.7-1.2,1.4-1.2h1v-0.4c0-0.4-0.1-0.6-0.7-0.6H61.9z M64,232.4h-0.8c-0.4,0-0.7,0.2-0.7,0.6
		c0,0.4,0.3,0.5,0.6,0.5c0.3,0,0.8-0.2,0.8-0.7V232.4z"/>
	<path class="st0" d="M65.8,234.2v-4h0.9l0.1,0.7h0c0.3-0.5,0.8-0.8,1.3-0.8v1h-0.2c-0.7,0-1,0.4-1,0.8v2.3H65.8z"/>
	<path class="st0" d="M68.9,233.2v-2.3h-0.6v-0.6l0.6-0.2l0.4-1.1h0.5v1.1h1v0.8h-1v2.2c0,0.3,0.1,0.4,0.4,0.4h0.6v0.6
		c-0.3,0.1-0.5,0.2-0.8,0.2C69.1,234.3,68.9,233.8,68.9,233.2z"/>
	<path class="st0" d="M72.3,228.5v1.1h-1v-1.1H72.3z M72.3,230.1v4h-1v-4H72.3z"/>
	<path class="st0" d="M74.9,230.1c0.4,0,0.7,0,1.3,0.2v0.6h-1.3c-0.7,0-0.8,0.5-0.8,1.3c0,0.8,0.2,1.3,0.8,1.3h1.3v0.6
		c-0.5,0.1-0.8,0.2-1.3,0.2c-1.4,0-1.9-0.8-1.9-2.1C73.1,230.9,73.6,230.1,74.9,230.1z"/>
	<path class="st0" d="M80.1,230.1v4h-0.9l-0.1-0.5h0c-0.3,0.4-0.7,0.5-1.2,0.5c-0.8,0-1.2-0.5-1.2-1.3v-2.9h1v2.8
		c0,0.4,0.3,0.6,0.7,0.6s0.8-0.2,0.8-0.7v-2.6H80.1z"/>
	<path class="st0" d="M80.9,228.5h1v4.6c0,0.3,0.1,0.4,0.6,0.4v0.8c-1.3,0.1-1.5-0.2-1.5-1.1V228.5z"/>
	<path class="st0" d="M83.1,230.9v-0.6c0.5-0.1,1.1-0.2,1.6-0.2c1,0,1.5,0.3,1.5,1.3v2.8h-0.9l-0.1-0.5h0c-0.3,0.4-0.7,0.5-1.2,0.5
		c-0.8,0-1.2-0.5-1.2-1.2c0-1,0.7-1.2,1.4-1.2h1v-0.4c0-0.4-0.1-0.6-0.7-0.6H83.1z M85.2,232.4h-0.8c-0.4,0-0.7,0.2-0.7,0.6
		c0,0.4,0.3,0.5,0.6,0.5c0.3,0,0.8-0.2,0.8-0.7V232.4z"/>
	<path class="st0" d="M87,234.2v-4h0.9l0.1,0.7h0c0.3-0.5,0.8-0.8,1.3-0.8v1H89c-0.7,0-1,0.4-1,0.8v2.3H87z"/>
	<g>
		<path class="st1" d="M19.5,233.2c0-5.4-4.4-9.8-9.8-9.8v0l0,0l0,0v0c-5.4,0-9.8,4.4-9.8,9.8c0,5.4,4.4,9.8,9.8,9.8v0l0,0l0,0v0
			C15.2,243,19.5,238.6,19.5,233.2z"/>
		<path class="st2" d="M9.8,223.4H9.7c-5.4,0.1-9.7,4.5-9.7,9.7h9.7h9.8C19.5,227.9,15.3,223.5,9.8,223.4z"/>
	</g>
	<g>
		<path class="st3" d="M3.8,233.2c0-2,0.3-4.1,2.7-4.1c2.4,0,2.7,2.1,2.7,4.1c0,2-0.3,4.1-2.7,4.1C4.1,237.3,3.8,235.2,3.8,233.2z
			 M8.1,233.2c0-1.4-0.1-3.1-1.6-3.1s-1.6,1.8-1.6,3.1c0,1.4,0.1,3.1,1.6,3.1S8.1,234.6,8.1,233.2z"/>
		<path class="st3" d="M12,237.2h-1l2.9-7h-3.7v-0.9h4.7v0.8L12,237.2z"/>
	</g>
</g>
<g>
	<path class="st0" d="M23.6,43.5c1.1,0,1.7,0.7,1.7,1.7c0,1.1-0.6,1.7-1.7,1.7h-1v2h-1v-5.5H23.6z M22.6,44.4V46h0.9
		c0.5,0,0.8-0.2,0.8-0.8c0-0.6-0.3-0.8-0.8-0.8H22.6z"/>
	<path class="st0" d="M26.9,47.2c0,0.6,0.2,1,0.8,1h1.4v0.6c-0.5,0.1-1,0.2-1.4,0.2c-1.4,0-1.9-0.8-1.9-2.1c0-1.3,0.6-2.1,2-2.1
		c1.1,0,1.6,0.6,1.6,1.3c0,0.6-0.2,1.1-1.2,1.1H26.9z M26.9,46.6h1c0.4,0,0.5-0.2,0.5-0.5c0-0.3-0.2-0.5-0.6-0.5
		C27.3,45.6,27,46,26.9,46.6z"/>
	<path class="st0" d="M30.2,45.6V45c0.5-0.1,1.1-0.2,1.6-0.2c1,0,1.5,0.3,1.5,1.3V49h-0.9l-0.1-0.5h0C32,48.9,31.6,49,31.2,49
		c-0.8,0-1.2-0.5-1.2-1.2c0-1,0.7-1.2,1.4-1.2h1v-0.4c0-0.4-0.1-0.6-0.7-0.6H30.2z M32.3,47.2h-0.8c-0.4,0-0.7,0.2-0.7,0.6
		c0,0.4,0.3,0.5,0.6,0.5c0.3,0,0.8-0.2,0.8-0.7V47.2z"/>
	<path class="st0" d="M34.3,47.9v-2.3h-0.6v-0.6l0.6-0.2l0.4-1.1h0.5v1.1h1v0.8h-1v2.2c0,0.3,0.1,0.4,0.4,0.4h0.6v0.6
		C36,49,35.8,49,35.5,49C34.6,49,34.3,48.6,34.3,47.9z"/>
	<path class="st0" d="M36.7,46.9c0-1.3,0.5-2.1,1.9-2.1c1.4,0,1.9,0.8,1.9,2.1c0,1.3-0.5,2.1-1.9,2.1C37.2,49,36.7,48.2,36.7,46.9z
		 M37.7,46.9c0,0.8,0.2,1.3,0.8,1.3c0.7,0,0.8-0.5,0.8-1.3c0-0.8-0.2-1.3-0.8-1.3C37.9,45.6,37.7,46.2,37.7,46.9z"/>
	<path class="st0" d="M41.2,49v-4h0.9l0.1,0.5h0c0.3-0.4,0.7-0.5,1.2-0.5c0.8,0,1.2,0.5,1.2,1.3V49h-1v-2.8c0-0.4-0.3-0.6-0.7-0.6
		c-0.3,0-0.8,0.2-0.8,0.7V49H41.2z"/>
	<path class="st0" d="M46.3,47.2c0,0.6,0.2,1,0.8,1h1.4v0.6C48,49,47.6,49,47.1,49c-1.4,0-1.9-0.8-1.9-2.1c0-1.3,0.6-2.1,2-2.1
		c1.1,0,1.6,0.6,1.6,1.3c0,0.6-0.2,1.1-1.2,1.1H46.3z M46.3,46.6h1c0.4,0,0.5-0.2,0.5-0.5c0-0.3-0.2-0.5-0.6-0.5
		C46.7,45.6,46.4,46,46.3,46.6z"/>
	<path class="st0" d="M51.2,44.8c0.5,0,0.8,0,1.3,0.2v0.6h-1.3c-0.5,0-0.7,0.2-0.7,0.4c0,0.2,0.1,0.4,0.6,0.5
		c0.8,0.1,1.5,0.4,1.5,1.3c0,0.9-0.7,1.3-1.7,1.3c-0.5,0-1,0-1.6-0.2v-0.6H51c0.5,0,0.7-0.3,0.7-0.4c0-0.2-0.1-0.4-0.6-0.5
		c-0.8-0.1-1.5-0.3-1.5-1.3C49.5,45.2,50.2,44.8,51.2,44.8z"/>
	<g>
		<path class="st1" d="M19.5,47c0-5.4-4.4-9.8-9.8-9.8v0c0,0,0,0,0,0s0,0,0,0v0C4.4,37.2,0,41.6,0,47s4.4,9.8,9.8,9.8v0c0,0,0,0,0,0
			s0,0,0,0v0C15.2,56.8,19.5,52.4,19.5,47z"/>
		<path class="st2" d="M9.8,37.2l-0.1,0C4.3,37.3,0,41.7,0,47h9.7h9.8C19.5,41.7,15.3,37.3,9.8,37.2z"/>
	</g>
	<g>
		<g>
			<path class="st3" d="M4.2,47c0-2,0.2-4,2.6-4c2.4,0,2.6,2.1,2.6,4c0,2-0.3,4-2.6,4C4.4,51.1,4.2,49,4.2,47z M8.4,47
				c0-1.4-0.1-3.1-1.6-3.1c-1.6,0-1.6,1.8-1.6,3.1c0,1.4,0.1,3.1,1.6,3.1C8.4,50.2,8.4,48.4,8.4,47z"/>
			<path class="st3" d="M11.8,50.1h3.6V51h-4.8V50c3.3-3.5,3.7-3.9,3.7-5c0-0.7-0.5-1.1-1.6-1.1h-2v-0.7c0.7-0.2,1.4-0.2,2-0.2
				c1.4,0,2.5,0.6,2.5,2C15.3,46.1,14.9,46.9,11.8,50.1L11.8,50.1z"/>
		</g>
	</g>
</g>
</svg>
