<?xml version="1.0" encoding="utf-8"?>
<!-- Generator: Adobe Illustrator 19.2.0, SVG Export Plug-In . SVG Version: 6.00 Build 0)  -->
<svg version="1.1" id="Capa_1" xmlns="http://www.w3.org/2000/svg" xmlns:xlink="http://www.w3.org/1999/xlink" x="0px" y="0px"
	 viewBox="0 0 520 520" style="enable-background:new 0 0 520 520;" xml:space="preserve">
<style type="text/css">
	.st0{fill:url(#SVGID_1_);}
	.st1{fill:#FFFFFF;}
	.st2{fill:none;stroke:#FFFFFF;stroke-width:2;stroke-miterlimit:10;}
	.st3{fill:url(#SVGID_2_);}
	.st4{fill:url(#SVGID_3_);}
	.st5{fill:url(#SVGID_4_);}
	.st6{fill:url(#SVGID_5_);}
	.st7{opacity:0.3;fill:url(#burbuja_1_);}
	.st8{opacity:0.5;}
	.st9{fill:url(#SVGID_6_);}
	.st10{clip-path:url(#SVGID_8_);fill:url(#SVGID_9_);}
	.st11{opacity:0.75;clip-path:url(#SVGID_8_);fill:url(#SVGID_10_);}
	.st12{fill:url(#SVGID_11_);}
	.st13{clip-path:url(#SVGID_13_);fill:url(#SVGID_14_);}
	.st14{opacity:0.3;clip-path:url(#SVGID_13_);fill:url(#SVGID_15_);}
	.st15{clip-path:url(#SVGID_17_);fill:url(#SVGID_18_);}
	.st16{clip-path:url(#SVGID_17_);fill:url(#SVGID_19_);}
	.st17{opacity:0.75;clip-path:url(#SVGID_17_);fill:url(#SVGID_20_);}
	.st18{opacity:0.75;clip-path:url(#SVGID_17_);fill:url(#SVGID_21_);}
	.st19{clip-path:url(#SVGID_17_);fill:url(#SVGID_22_);}
	.st20{opacity:0.3;clip-path:url(#SVGID_17_);fill:url(#SVGID_23_);}
	.st21{fill:url(#SVGID_24_);}
	.st22{clip-path:url(#SVGID_26_);fill:url(#SVGID_27_);}
	.st23{clip-path:url(#SVGID_26_);fill:url(#SVGID_28_);}
	.st24{opacity:0.3;clip-path:url(#SVGID_26_);fill:url(#SVGID_29_);}
	.st25{clip-path:url(#SVGID_31_);fill:#5C5455;}
	.st26{clip-path:url(#SVGID_31_);fill:url(#SVGID_32_);}
	.st27{opacity:0.3;clip-path:url(#SVGID_31_);fill:url(#SVGID_33_);}
	.st28{opacity:0.3;clip-path:url(#SVGID_31_);fill:url(#SVGID_34_);}
	.st29{clip-path:url(#SVGID_37_);}
	.st30{fill:url(#SVGID_38_);}
	.st31{opacity:0.75;clip-path:url(#SVGID_37_);fill:url(#SVGID_39_);}
	.st32{clip-path:url(#SVGID_42_);fill:url(#SVGID_43_);}
	.st33{opacity:0.75;clip-path:url(#SVGID_42_);fill:url(#SVGID_44_);}
	.st34{clip-path:url(#SVGID_47_);fill:url(#SVGID_48_);}
	.st35{opacity:0.75;clip-path:url(#SVGID_47_);fill:url(#SVGID_49_);}
	.st36{clip-path:url(#SVGID_51_);fill:url(#SVGID_52_);}
	.st37{opacity:0.75;clip-path:url(#SVGID_51_);fill:url(#SVGID_53_);}
	.st38{clip-path:url(#SVGID_56_);fill:url(#SVGID_57_);}
	.st39{clip-path:url(#SVGID_56_);fill:url(#SVGID_58_);}
	.st40{clip-path:url(#SVGID_60_);fill:url(#SVGID_61_);}
	.st41{opacity:0.75;clip-path:url(#SVGID_60_);fill:url(#SVGID_62_);}
	.st42{clip-path:url(#SVGID_64_);fill:#EF1224;}
	.st43{clip-path:url(#SVGID_64_);fill:#E7E6DE;}
	.st44{opacity:0.4;clip-path:url(#SVGID_64_);fill:url(#SVGID_65_);}
	.st45{clip-path:url(#SVGID_67_);fill:#EF1224;}
	.st46{opacity:0.4;clip-path:url(#SVGID_67_);fill:url(#SVGID_68_);}
	.st47{clip-path:url(#SVGID_71_);fill:url(#SVGID_72_);}
	.st48{opacity:0.75;clip-path:url(#SVGID_71_);fill:url(#SVGID_73_);}
	.st49{clip-path:url(#SVGID_75_);fill:url(#SVGID_76_);}
	.st50{clip-path:url(#SVGID_75_);}
	.st51{fill:url(#SVGID_77_);}
	.st52{opacity:0.4;clip-path:url(#SVGID_75_);fill:url(#SVGID_78_);}
	.st53{fill:url(#SVGID_79_);}
	.st54{fill:url(#SVGID_80_);}
	.st55{clip-path:url(#SVGID_82_);fill:url(#SVGID_83_);}
	.st56{opacity:0.5;clip-path:url(#SVGID_82_);fill:url(#SVGID_84_);}
	.st57{opacity:0.5;fill:#FFFFFF;}
	.st58{clip-path:url(#SVGID_86_);}
	.st59{fill:url(#SVGID_87_);}
	.st60{clip-path:url(#SVGID_89_);fill:url(#SVGID_90_);}
	.st61{opacity:0.35;clip-path:url(#SVGID_89_);fill:url(#SVGID_91_);}
	.st62{opacity:0.3;clip-path:url(#SVGID_89_);fill:url(#SVGID_92_);}
	.st63{clip-path:url(#SVGID_89_);fill:url(#SVGID_93_);}
	.st64{clip-path:url(#SVGID_89_);}
	.st65{clip-path:url(#SVGID_95_);fill:#DAD8D0;}
	.st66{opacity:0.5;clip-path:url(#SVGID_95_);fill:url(#SVGID_96_);}
	.st67{clip-path:url(#SVGID_98_);fill:#DAD8D0;}
	.st68{opacity:0.5;clip-path:url(#SVGID_98_);fill:url(#SVGID_99_);}
	.st69{opacity:0.5;clip-path:url(#SVGID_98_);fill:url(#SVGID_100_);}
	.st70{opacity:0.5;clip-path:url(#SVGID_98_);fill:url(#SVGID_101_);}
	.st71{opacity:0.5;clip-path:url(#SVGID_98_);fill:url(#SVGID_102_);}
	.st72{opacity:0.35;fill:url(#SVGID_103_);}
	.st73{opacity:0.35;fill:url(#SVGID_104_);}
	.st74{clip-path:url(#SVGID_106_);fill:url(#SVGID_107_);}
	.st75{opacity:0.5;clip-path:url(#SVGID_106_);fill:url(#SVGID_108_);}
	.st76{fill:#DAD8D0;}
	.st77{clip-path:url(#SVGID_110_);fill:url(#SVGID_111_);}
	.st78{opacity:0.5;clip-path:url(#SVGID_110_);fill:url(#SVGID_112_);}
	.st79{fill:#D2D0C9;}
	.st80{fill:url(#SVGID_113_);}
	.st81{fill:#151011;}
</style>
<g>
	<linearGradient id="SVGID_1_" gradientUnits="userSpaceOnUse" x1="260.0029" y1="520" x2="260.0029" y2="-1.167246e-08">
		<stop  offset="0" style="stop-color:#4E8FAF"/>
		<stop  offset="1" style="stop-color:#82CFE2"/>
	</linearGradient>
	<rect x="0" class="st0" width="520" height="520"/>
	<g>
		<polygon class="st1" points="506.4,466.4 503.4,466.4 511.8,452.8 511.8,457.6 		"/>
	</g>
	<g>
		<g>
			<linearGradient id="SVGID_2_" gradientUnits="userSpaceOnUse" x1="260.0018" y1="387.0158" x2="260.0018" y2="122.9954">
				<stop  offset="0" style="stop-color:#3D6518"/>
				<stop  offset="1" style="stop-color:#82C53B"/>
			</linearGradient>
			<path class="st3" d="M68.8,221.7c-26.6,0-49.4,6.4-68.8,16.7L0,387h520V161.3c0,0-207.3-100.7-354.9,24.4
				C143.8,203.8,106.4,221.7,68.8,221.7z"/>
		</g>
		<g>
			<linearGradient id="SVGID_3_" gradientUnits="userSpaceOnUse" x1="260.0018" y1="520.0206" x2="260.0018" y2="382.3838">
				<stop  offset="0" style="stop-color:#2B2834"/>
				<stop  offset="1" style="stop-color:#111114"/>
			</linearGradient>
			<rect x="0" y="382.4" class="st4" width="520" height="137.6"/>
		</g>
		<linearGradient id="SVGID_4_" gradientUnits="userSpaceOnUse" x1="6.775009e-04" y1="379.3454" x2="520.0029" y2="379.3454">
			<stop  offset="0" style="stop-color:#E8E7E0"/>
			<stop  offset="1" style="stop-color:#DAD8D0"/>
		</linearGradient>
		<rect x="0" y="376.3" class="st5" width="520" height="6.1"/>
		<g>
			<polygon class="st1" points="512.1,520 520,507.5 520,501.4 508.3,520 			"/>
			<polygon class="st1" points="0,492.8 520,492.8 520,496 502.1,496 487.1,520 483.3,520 498.3,496 476.6,496 461.6,520 457.8,520 
				472.9,496 451.1,496 436.1,520 432.3,520 447.4,496 425.6,496 410.6,520 406.9,520 421.9,496 400.4,496 385.4,520 381.6,520 
				396.6,496 374.9,496 359.9,520 356.1,520 371.2,496 349.4,496 334.4,520 330.7,520 345.7,496 324,496 308.9,520 305.2,520 
				320.2,496 298.5,496 283.5,520 279.7,520 294.7,496 273,496 258,520 254.2,520 269.2,496 247.6,496 232.6,520 228.9,520 
				243.9,496 222.2,496 207.1,520 203.4,520 218.4,496 196.7,496 181.7,520 177.9,520 192.9,496 171.2,496 156.2,520 152.4,520 
				167.4,496 145.5,496 130.5,520 126.7,520 141.8,496 120,496 105,520 101.2,520 116.3,496 94.5,496 79.5,520 75.8,520 90.8,496 
				68.4,496 53.4,520 49.6,520 64.6,496 43.4,496 28.4,520 24.6,520 39.6,496 17.9,496 2.9,520 0,520 0,518.6 14.1,496 0,496 			"/>
		</g>
		<g id="triangulo_prioridad_1_">
			<g>
				
					<linearGradient id="SVGID_5_" gradientUnits="userSpaceOnUse" x1="-5010.8408" y1="-6894.7334" x2="-4945.2539" y2="-6894.7334" gradientTransform="matrix(-1 0 0 -1 -4710.3779 -6457.2095)">
					<stop  offset="0" style="stop-color:#42A62A"/>
					<stop  offset="1" style="stop-color:#306B2C"/>
				</linearGradient>
				<polygon class="st6" points="234.9,480.5 300.5,437.1 235,394.6 				"/>
				<path class="st1" d="M232.9,484.3l0.2-93.4l70.9,46.5L232.9,484.3z M237,398.3l-0.1,78.3l59.6-39.3L237,398.3z"/>
			</g>
			<g>
				<path class="st1" d="M215.4,402.8l9.1,0l0,3c0,1.1,0,1.8-0.1,2.2c-0.1,0.5-0.4,1-0.9,1.3c-0.5,0.3-1.1,0.5-1.8,0.5
					c-0.6,0-1-0.1-1.4-0.3c-0.4-0.2-0.7-0.5-0.9-0.8c-0.2-0.3-0.4-0.6-0.4-1c-0.1-0.4-0.1-1.1-0.1-1.9v-1.2l-3.4,0L215.4,402.8z
					 M223,404.7h-2.6v1c0,0.7,0,1.2,0.1,1.5c0.1,0.2,0.2,0.4,0.5,0.6c0.2,0.1,0.4,0.2,0.7,0.2c0.3,0,0.6-0.1,0.8-0.3
					c0.2-0.2,0.4-0.4,0.4-0.7c0-0.2,0.1-0.7,0.1-1.3V404.7z"/>
				<path class="st1" d="M215.4,411.3l9.1,0l0,3.9c0,1-0.1,1.7-0.2,2.1c-0.2,0.4-0.5,0.8-0.9,1.1c-0.4,0.3-0.9,0.4-1.4,0.4
					c-0.7,0-1.2-0.2-1.7-0.6c-0.5-0.4-0.7-1-0.8-1.8c-0.2,0.4-0.5,0.7-0.8,1c-0.3,0.3-0.8,0.6-1.5,1l-1.8,1.1l0-2.2l2-1.3
					c0.7-0.5,1.2-0.8,1.3-1c0.2-0.2,0.3-0.4,0.4-0.6c0.1-0.2,0.1-0.5,0.1-0.9v-0.4l-3.8,0L215.4,411.3z M220.6,413.2v1.4
					c0,0.9,0,1.4,0.1,1.7c0.1,0.2,0.2,0.4,0.4,0.5c0.2,0.1,0.4,0.2,0.7,0.2c0.3,0,0.6-0.1,0.7-0.2c0.2-0.2,0.3-0.4,0.4-0.7
					c0-0.2,0-0.6,0-1.3v-1.4H220.6z"/>
				<path class="st1" d="M215.4,420.5l9.1,0v1.8l-9.1,0V420.5z"/>
				<path class="st1" d="M219.9,423.7c0.9,0,1.7,0.2,2.3,0.4c0.5,0.2,0.9,0.5,1.3,0.9c0.4,0.4,0.6,0.8,0.8,1.2
					c0.2,0.6,0.4,1.2,0.4,2c0,1.3-0.4,2.4-1.3,3.2c-0.8,0.8-2,1.2-3.5,1.2c-1.5,0-2.6-0.4-3.5-1.2c-0.8-0.8-1.2-1.9-1.2-3.2
					c0-1.4,0.4-2.4,1.2-3.2C217.3,424.1,218.4,423.7,219.9,423.7z M219.9,425.6c-1,0-1.8,0.2-2.4,0.7c-0.5,0.5-0.8,1.1-0.8,1.8
					c0,0.7,0.3,1.3,0.8,1.8c0.5,0.5,1.3,0.7,2.4,0.7c1.1,0,1.8-0.2,2.3-0.7c0.5-0.5,0.8-1.1,0.8-1.8c0-0.8-0.3-1.4-0.8-1.8
					C221.7,425.8,221,425.6,219.9,425.6z"/>
				<path class="st1" d="M215.3,434l9.1,0l0,3.9c0,1-0.1,1.7-0.2,2.1c-0.2,0.4-0.5,0.8-0.9,1.1c-0.4,0.3-0.9,0.4-1.4,0.4
					c-0.7,0-1.3-0.2-1.7-0.6c-0.5-0.4-0.7-1-0.9-1.8c-0.2,0.4-0.5,0.7-0.8,1c-0.3,0.2-0.8,0.6-1.5,1l-1.8,1.1l0-2.2l2-1.3
					c0.7-0.5,1.2-0.8,1.3-1c0.2-0.2,0.3-0.4,0.4-0.6c0.1-0.2,0.1-0.5,0.1-0.9v-0.4l-3.8,0L215.3,434z M220.6,435.8v1.4
					c0,0.9,0,1.4,0.1,1.7c0.1,0.2,0.2,0.4,0.4,0.5c0.2,0.1,0.4,0.2,0.7,0.2c0.3,0,0.6-0.1,0.7-0.2c0.2-0.2,0.3-0.4,0.4-0.7
					c0-0.1,0-0.6,0-1.3v-1.4H220.6z"/>
				<path class="st1" d="M215.3,443.1l9.1,0l0,1.8l-9.1,0L215.3,443.1z"/>
				<path class="st1" d="M224.4,446.7l0,3.4c0,0.8-0.1,1.3-0.2,1.7c-0.2,0.5-0.4,1-0.8,1.4c-0.4,0.4-0.9,0.7-1.5,0.9
					c-0.6,0.2-1.3,0.3-2.2,0.3c-0.8,0-1.4-0.1-2-0.3c-0.7-0.2-1.2-0.6-1.6-1c-0.3-0.3-0.6-0.8-0.7-1.3c-0.1-0.4-0.2-0.9-0.2-1.6
					l0-3.5L224.4,446.7z M222.9,448.6l-6,0v1.4c0,0.5,0,0.9,0.1,1.1c0.1,0.3,0.2,0.5,0.4,0.7c0.2,0.2,0.5,0.4,0.9,0.5
					c0.4,0.1,1,0.2,1.7,0.2c0.7,0,1.2-0.1,1.6-0.2c0.4-0.1,0.7-0.3,0.9-0.5c0.2-0.2,0.4-0.5,0.4-0.9c0.1-0.3,0.1-0.8,0.1-1.5V448.6z
					"/>
				<path class="st1" d="M215.3,464.2l0-2l2.1-0.8l0-3.6l-2.1-0.8v-2l9.1,3.6v1.9L215.3,464.2z M218.9,460.8l3.4-1.2l-3.4-1.2V460.8
					z"/>
				<path class="st1" d="M224.4,465.1l0,3.4c0,0.8-0.1,1.3-0.2,1.7c-0.2,0.5-0.4,1-0.9,1.4c-0.4,0.4-0.9,0.7-1.5,0.9
					c-0.6,0.2-1.3,0.3-2.1,0.3c-0.8,0-1.4-0.1-2-0.3c-0.7-0.2-1.2-0.6-1.6-1c-0.3-0.3-0.6-0.7-0.7-1.3c-0.1-0.4-0.2-1-0.2-1.6l0-3.5
					L224.4,465.1z M222.9,467l-6,0l0,1.4c0,0.5,0,0.9,0.1,1.1c0.1,0.3,0.2,0.6,0.4,0.8c0.2,0.2,0.5,0.4,0.9,0.5
					c0.4,0.1,1,0.2,1.7,0.2c0.7,0,1.2-0.1,1.6-0.2c0.4-0.1,0.7-0.3,0.9-0.5c0.2-0.2,0.4-0.5,0.4-0.8c0.1-0.3,0.1-0.8,0.1-1.5V467z"
					/>
			</g>
			<path class="st1" d="M260.7,448.6c0-1.3-0.4-2.5-1.1-3.6l2.6-2.2l0.9,0.2l0.8,1.9c0.1,0.2,0.3,0.4,0.6,0.3
				c0.2-0.1,0.4-0.3,0.4-0.5l-0.2-4.8c0-0.2-0.2-0.5-0.4-0.5c-0.2,0-0.5,0.1-0.5,0.4l-0.6,2.2c-0.2,0-0.4-0.1-0.6-0.1l0.1-9.4
				l1.8,0.7c0.1,0,0.1,0,0.2,0c0.1,0,0.3-0.1,0.4-0.2c0.2-0.2,0.4-0.4,0.5-0.4h0c0,0,0.1,0,0.1,0.2c0,0.2,0,2.5,0,2.5
				c0,0.3,0.2,0.5,0.5,0.5c0.3,0,0.5-0.2,0.5-0.5v-2.6c0-0.1,0-0.1,0-0.2c-0.2-0.6-0.6-0.8-0.9-0.9c-0.1,0-0.1,0-0.2,0
				c-0.4,0-0.8,0.2-1,0.4c-0.3-0.1-1.7-0.6-3.1-1.1l-0.5-0.2l0,0c-0.5-0.2-0.9-0.3-1.2-0.5c0.6-1,0.9-2.1,0.9-3.3
				c0-3.6-2.9-6.5-6.4-6.5c-3.5,0-6.4,2.9-6.4,6.5c0,3.5,2.9,6.4,6.4,6.4c2,0,3.7-0.9,4.9-2.2l0.7,0.3l-7.3,7.3c0,0,0,0,0,0
				c0,0,0,0-0.1,0.1c0,0,0,0,0,0c0,0,0,0,0,0l-1.1,0.4c0-0.2-0.2-0.4-0.5-0.4c-0.3,0-0.5,0.2-0.5,0.5v1.4c0,0.3,0.2,0.5,0.5,0.5
				c0.3,0,0.5-0.2,0.5-0.5v-0.4l1.2-0.4l0.3,2.4c-2.9,0.6-5.1,3.2-5.1,6.3c0,3.6,2.9,6.5,6.4,6.5
				C257.8,455.1,260.7,452.2,260.7,448.6z M254.3,432.4c-3,0-5.4-2.4-5.4-5.4c0-3,2.4-5.4,5.4-5.4c3,0,5.4,2.4,5.4,5.4
				c0,1.1-0.3,2.1-0.9,3c-2.2-0.8-4.1-3.3-4.1-3.3c-0.1-0.1-0.3-0.2-0.4-0.2c-0.1,0-0.2,0-0.3,0.1c-0.2,0.2-0.3,0.5-0.1,0.7
				c0.1,0.1,1.9,2.6,4.2,3.5C257.1,431.8,255.8,432.4,254.3,432.4z M254.8,439.2l0.4-0.1v0.1c0,0.1,0,0.2,0,0.2
				C255.1,439.3,255,439.3,254.8,439.2z M256.2,439.2v-1.2c0-0.3-0.2-0.5-0.5-0.5c-0.3,0-0.5,0.2-0.5,0.5v0.1l-0.7,0.2l6.4-6.4
				c0.3,0.1,0.5,0.2,0.7,0.3c0,0.6-0.1,7.5-0.1,9.4c-1.2-0.4-3.6-1.3-5.6-2C256.1,439.5,256.2,439.4,256.2,439.2z M253.6,439.9
				l7.5,2.6c-0.5,0.4-1.2,1-2.1,1.8c-1.2-1.3-2.9-2.1-4.8-2.1c-0.1,0-0.2,0-0.3,0C253.8,441.2,253.7,440.4,253.6,439.9z
				 M254.3,443.2c1.6,0,3,0.7,4,1.7c-1.5,1.2-2.9,2.5-3.5,2.9c-0.1-0.7-0.4-2.8-0.7-4.7C254.1,443.2,254.2,443.2,254.3,443.2z
				 M248.8,448.6c0-2.6,1.8-4.8,4.2-5.3l0.8,5.6c0,0.2,0.1,0.3,0.3,0.4c0.2,0.1,0.4,0,0.5-0.1l4.1-3.5c0.5,0.8,0.8,1.8,0.8,2.9
				c0,3-2.4,5.4-5.4,5.4C251.3,454,248.8,451.6,248.8,448.6z"/>
		</g>
		
			<radialGradient id="burbuja_1_" cx="-30.9884" cy="974.5941" r="120.8368" gradientTransform="matrix(0.8263 0 0 0.8263 415.7805 -463.9123)" gradientUnits="userSpaceOnUse">
			<stop  offset="0" style="stop-color:#DAD8D0;stop-opacity:0"/>
			<stop  offset="1" style="stop-color:#DAD8D0"/>
		</radialGradient>
		<circle id="burbuja" class="st7" cx="390.2" cy="341.4" r="99.9"/>
		<g id="monita_1_">
			<g class="st8">
				
					<linearGradient id="SVGID_6_" gradientUnits="userSpaceOnUse" x1="3216.6631" y1="392.4065" x2="3363.6887" y2="392.4065" gradientTransform="matrix(-1 0 0 1 3584.6267 0)">
					<stop  offset="0" style="stop-color:#2F2829"/>
					<stop  offset="0.9955" style="stop-color:#635A58;stop-opacity:0"/>
				</linearGradient>
				<polygon class="st9" points="220.9,415.8 349.9,415.8 368,397.9 366.9,369 220.9,369 				"/>
			</g>
			<g>
				<defs>
					<path id="SVGID_7_" d="M402.4,287.1c1.5-7.7,0.2-12.9-7.4-15.4c-10.2-3.3-13.5,4.5-13.5,8.7c0,4.2-6.3,8.6-6.3,8.6
						s6.5,8.8,18.7,11.2C393.9,300.2,400.9,294.8,402.4,287.1z"/>
				</defs>
				<clipPath id="SVGID_8_">
					<use xlink:href="#SVGID_7_"  style="overflow:visible;"/>
				</clipPath>
				
					<linearGradient id="SVGID_9_" gradientUnits="userSpaceOnUse" x1="-4497.5991" y1="2077.4521" x2="-4570.083" y2="2106.3391" gradientTransform="matrix(-0.415 -0.1192 -0.1718 0.5981 -1132.6993 -1506.751)">
					<stop  offset="0" style="stop-color:#FA1B32"/>
					<stop  offset="1" style="stop-color:#E30A16"/>
				</linearGradient>
				<polygon class="st10" points="372,295.5 398.8,303.2 407.2,274.1 380.4,266.4 				"/>
				
					<linearGradient id="SVGID_10_" gradientUnits="userSpaceOnUse" x1="4683.502" y1="-781.4899" x2="4704.4546" y2="-781.4899" gradientTransform="matrix(1.0764 0.6943 -0.7261 0.758 -5229.4902 -2378.8049)">
					<stop  offset="0" style="stop-color:#1B1617;stop-opacity:0"/>
					<stop  offset="1" style="stop-color:#635A58"/>
				</linearGradient>
				<path class="st11" d="M397.4,282.3c-0.7,0.8-1.4,1.6-2.3,2.2c-3.1,2.2-7.7,1.4-9.8-1.6c-2.7-3.7-6-2.9-8.5,0.8
					c-2.1,3.1-2.6,7.4-0.7,10.7c1.4,2.4,4.1,4.5,6.3,6.1c2.4,1.7,5.6,2.4,8.5,2c4.1-0.6,7.8-3.2,10.2-6.6c2.4-3.4,3.8-7.4,4.5-11.5
					c0.2-1.3,0.4-2.6,0-3.8c-1-3.9-4.5-2.3-6.5-0.2C398.4,281,397.9,281.7,397.4,282.3z"/>
			</g>
			<g>
				
					<linearGradient id="SVGID_11_" gradientUnits="userSpaceOnUse" x1="-2734.1494" y1="466.8898" x2="-2724.8091" y2="466.8898" gradientTransform="matrix(-0.9962 -8.693837e-02 -8.693837e-02 0.9962 -2300.6099 -310.9059)">
					<stop  offset="0" style="stop-color:#2F2829"/>
					<stop  offset="1" style="stop-color:#635A58"/>
				</linearGradient>
				<path class="st12" d="M382.4,394.4L382.4,394.4c-0.1,0.3-0.4,0.6-0.8,0.6c-1.1-0.1-2.1-0.2-4.2-0.4c-2-0.2-5.1-3.4-3.7-5.7
					c1.4-2.3,3.2,1.8,3.2,1.8l5.1,2.9C382.3,393.7,382.5,394,382.4,394.4z"/>
			</g>
			<g>
				<defs>
					<path id="SVGID_12_" d="M389.4,298.7c9.1,0.9,4.6,15.8,6.9,18.7c1.8,2.3,8.9,7.5,12.7,9.6c2,1.1,5.8,3,6.7,3.5
						c0.9,0.5-1.2,4.1-1.6,4.1s-1.1-0.4-1.1-0.4s-0.3,0.5-0.6,0.5c-0.5,0-0.9-1.3-0.9-1.3s-16.4-7.8-19.9-10.4
						C388.1,320.4,381.7,297.9,389.4,298.7z"/>
				</defs>
				<clipPath id="SVGID_13_">
					<use xlink:href="#SVGID_12_"  style="overflow:visible;"/>
				</clipPath>
				
					<linearGradient id="SVGID_14_" gradientUnits="userSpaceOnUse" x1="-2563.584" y1="568.0856" x2="-2526.9175" y2="568.0856" gradientTransform="matrix(-0.9995 -3.238286e-02 -3.238286e-02 0.9995 -2126.175 -335.8858)">
					<stop  offset="0" style="stop-color:#FDB137"/>
					<stop  offset="1" style="stop-color:#FF940C"/>
				</linearGradient>
				<polygon class="st13" points="417,335.7 380.5,330.1 383.6,294.9 413.6,293.9 				"/>
				
					<linearGradient id="SVGID_15_" gradientUnits="userSpaceOnUse" x1="4903.2104" y1="-656.6524" x2="4929.3555" y2="-656.6524" gradientTransform="matrix(0.9349 0.3548 -0.3548 0.9349 -4434.5635 -814.0576)">
					<stop  offset="0" style="stop-color:#635A58;stop-opacity:0"/>
					<stop  offset="1" style="stop-color:#2F2829"/>
				</linearGradient>
				<path class="st14" d="M385.9,314.4c-0.1-0.3-0.3-0.6-0.4-0.9c-0.9-2-1.6-4.4-0.9-6.7c0.7-2.3,2.9-4.1,5-4.1
					c4.4,0.1,4.2,5.5,4,9.2c-0.1,2.5-0.1,4.9,0.9,7c0.4,1,1.5,1.5,2.4,2c1,0.6,2.1,1.1,3.1,1.7c1.8,1.1,3.6,2.7,4.1,5.1
					c0.2,0.8,0.1,1.8-0.5,2.5c-0.6,0.7-1.6,0.7-2.4,0.5c-1.7-0.4-3.1-1.4-4.5-2.4c-1.9-1.3-3.7-2.6-5.6-3.9
					c-1.6-1.1-3.4-2.2-3.5-4.6C387.4,317.7,386.6,316.1,385.9,314.4z"/>
			</g>
			<g>
				<defs>
					<path id="SVGID_16_" d="M370.1,375.9c1.3-7.5,6.8-10.4,5.8-15.4c-0.9-5-18.8-29.7-9.9-42.2c3.4-4.7,9.8-3.7,11.4-13.5
						c1.5-8.9,5.4-9.2,9.6-9.9c4.1-0.7,9,5.8,8.7,8.9c-0.7,8-5.3,11.1-7.8,13.1s-4.5,6.9-4.5,6.9s2.9,19.4,3,32.6
						c0.1,14.4-9.6,34.2-9.6,34.2C369.1,387.2,368.7,384.3,370.1,375.9z"/>
				</defs>
				<clipPath id="SVGID_17_">
					<use xlink:href="#SVGID_16_"  style="overflow:visible;"/>
				</clipPath>
				
					<linearGradient id="SVGID_18_" gradientUnits="userSpaceOnUse" x1="5110.8633" y1="-1080.3481" x2="5160.6821" y2="-1080.3481" gradientTransform="matrix(0.8932 0.4496 -0.4496 0.8932 -4696.7715 -1008.2883)">
					<stop  offset="0" style="stop-color:#DAD8D0"/>
					<stop  offset="1" style="stop-color:#E8E7E0"/>
				</linearGradient>
				<polygon class="st15" points="398.4,347.2 363.2,355.7 356.3,320.1 388.8,315.1 				"/>
				
					<linearGradient id="SVGID_19_" gradientUnits="userSpaceOnUse" x1="272.7666" y1="346.7729" x2="311.479" y2="346.7729" gradientTransform="matrix(-0.9907 0.1361 0.1361 0.9907 624.3055 -75.11)">
					<stop  offset="0" style="stop-color:#64228C"/>
					<stop  offset="1" style="stop-color:#40057B"/>
				</linearGradient>
				<polygon class="st16" points="396.8,325.9 364.6,323.1 367.4,290.5 399.6,293.3 				"/>
				
					<linearGradient id="SVGID_20_" gradientUnits="userSpaceOnUse" x1="5018.9751" y1="-893.04" x2="5038.9443" y2="-893.04" gradientTransform="matrix(0.9142 0.4054 -0.4054 0.9142 -4579.4272 -914.4766)">
					<stop  offset="0" style="stop-color:#635A58"/>
					<stop  offset="1" style="stop-color:#2F2829;stop-opacity:0"/>
				</linearGradient>
				<path class="st17" d="M370.3,321.3c3.2,0.7,5.8,1.9,9.1,1.5c1-0.1,2.1-0.4,2.8-1.1c0.7-0.8,0.9-1.9,1.1-2.9
					c0.6-3,1.9-5.8,3.6-8.3c1.6-2.4,4.4-4,5.5-6.6c0.8-1.9,1.2-4,0.8-6c-0.3-1.5-1.5-3.1-2.9-3.7c-13.4-5.9-26.3,24.5-26.3,24.5
					S368.8,321,370.3,321.3z"/>
				
					<linearGradient id="SVGID_21_" gradientUnits="userSpaceOnUse" x1="5023.5688" y1="-902.3188" x2="5037.8394" y2="-902.3188" gradientTransform="matrix(0.9142 0.4054 -0.4054 0.9142 -4579.4272 -914.4766)">
					<stop  offset="0" style="stop-color:#635A58"/>
					<stop  offset="1" style="stop-color:#2F2829;stop-opacity:0"/>
				</linearGradient>
				<path class="st18" d="M392.9,300.2c0,0-2.2-5.5-5.6-7c-8.9-4-10.5,10.6-10.5,10.6L392.9,300.2z"/>
				
					<linearGradient id="SVGID_22_" gradientUnits="userSpaceOnUse" x1="-1639.0968" y1="2408.5762" x2="-1612.1787" y2="2408.5762" gradientTransform="matrix(-0.9885 0.1511 0.1361 0.8901 -1556.5175 -1525.9182)">
					<stop  offset="0" style="stop-color:#F17C01"/>
					<stop  offset="1" style="stop-color:#F39B20"/>
				</linearGradient>
				<path class="st19" d="M368.7,398.9c0,0-4.8-45.6-3.5-45.6c13.9,0.2,22.6-7.8,22.6-7.8c0.8,6.1-5.3,51.5-5.3,51.5L368.7,398.9z"
					/>
				
					<linearGradient id="SVGID_23_" gradientUnits="userSpaceOnUse" x1="5107.5747" y1="-1019.6792" x2="5160.6851" y2="-1019.6792" gradientTransform="matrix(0.8968 0.4424 -0.4424 0.8968 -4682.9712 -993.298)">
					<stop  offset="0" style="stop-color:#635A58;stop-opacity:0"/>
					<stop  offset="1" style="stop-color:#2F2829"/>
				</linearGradient>
				<path class="st20" d="M385.8,362.2c-2.3-4.8-5.6-9.2-6.6-14.3c-0.9-4.9-1.9-5.3-1.9-9.9c0-3.7-0.7-7.9-2.6-11.1
					c-1.6-2.6-4.2-4.9-7.3-5.7c-5.5-1.5-6,6.6-6.4,10.2c-0.4,4,6.5,13.6,7.9,15.2c1.9,2.3,3.7,4.6,5.6,6.9c1.4,1.7,2.7,3.4,3.5,5.4
					c1.2,3.4,0.4,7.3-1.3,10.6c-1.6,3.3-4,6.3-6.1,9.5c-1.9,3.1-3.5,6.5-4.1,10.1c-0.6,3.7-0.1,7.8,2,10.9c2.1,3.1,5.8,5.1,9.4,4.3
					c4.2-0.9,7-5.2,8.7-9.4C390.8,384.3,390.5,372.1,385.8,362.2z"/>
			</g>
			<g>
				
					<linearGradient id="SVGID_24_" gradientUnits="userSpaceOnUse" x1="-3637.6313" y1="-718.6615" x2="-3628.231" y2="-718.6615" gradientTransform="matrix(-0.9246 -0.3811 -0.3811 0.9246 -3245.8967 -341.3581)">
					<stop  offset="0" style="stop-color:#221C1D"/>
					<stop  offset="1" style="stop-color:#534C4B"/>
				</linearGradient>
				<path class="st21" d="M390.4,382.2l-2.5,0.4c-1.9-1.4-6.6-7.6-4-8.3s2.6,2.4,2.6,2.4S390.6,381.9,390.4,382.2z"/>
			</g>
			<g>
				<defs>
					<path id="SVGID_25_" d="M366.1,318.3l13,4c0,0,23.3,6.2,24.4,20.6c0.9,12-17,33.7-17,33.7c-6.8-5.2-5.6-11.6-2.3-19.5
						c3-7,7.2-8.7,6.9-10.6C390.8,344.7,352.2,337.6,366.1,318.3z"/>
				</defs>
				<clipPath id="SVGID_26_">
					<use xlink:href="#SVGID_25_"  style="overflow:visible;"/>
				</clipPath>
				
					<linearGradient id="SVGID_27_" gradientUnits="userSpaceOnUse" x1="5986.5308" y1="458.7891" x2="6045.5977" y2="458.7891" gradientTransform="matrix(0.9156 0.2516 -0.4954 0.5686 -4902.5464 -1442.4907)">
					<stop  offset="0" style="stop-color:#DAD8D0"/>
					<stop  offset="1" style="stop-color:#E8E7E0"/>
				</linearGradient>
				<polygon class="st22" points="401,345.1 361.7,349.6 357,318.6 396,315.1 				"/>
				
					<linearGradient id="SVGID_28_" gradientUnits="userSpaceOnUse" x1="-2161.7053" y1="922.4235" x2="-2127.2922" y2="922.4235" gradientTransform="matrix(-0.9973 7.293875e-02 7.293875e-02 0.9973 -1810.8165 -410.2389)">
					<stop  offset="0" style="stop-color:#FDB137"/>
					<stop  offset="1" style="stop-color:#FF940C"/>
				</linearGradient>
				<path class="st23" d="M387.3,380.3l-8.1-11.6l6.5-22.4c0,0,5.7-2.2,8.7-7.5s2.4-11.9,2.4-11.9l15.1,16.2L387.3,380.3z"/>
				
					<linearGradient id="SVGID_29_" gradientUnits="userSpaceOnUse" x1="5018.5312" y1="-859.7188" x2="5069.6187" y2="-859.7188" gradientTransform="matrix(0.9142 0.4054 -0.4054 0.9142 -4579.4272 -914.4766)">
					<stop  offset="0" style="stop-color:#635A58;stop-opacity:0"/>
					<stop  offset="1" style="stop-color:#2F2829"/>
				</linearGradient>
				<path class="st24" d="M365.9,332.8c5.1,2.3,10.9,2.9,16.6,2.6c3.7-0.2,8.4-2,12.1-2c4.7,0.1,9.9,2.7,10.4,7.8
					c0.8,8-1.6,16.3-6.5,22.7c-1,1.3-2.1,2.6-3.6,3.3c-1.5,0.7-3.4,0.8-4.7-0.2c-1.4-1.1-1.8-3-1.9-4.8c-0.2-3.3,0.4-6.6,1.5-9.7
					c0.4-1.1,0.9-2.1,1.1-3.2c0.2-1.1,0-2.3-0.7-3.2c-0.9-1-2.5-1.2-3.8-0.9c-1.3,0.3-2.5,1-3.8,1.6c-3.7,1.7-11.3,0.7-15.1-0.8
					c-2.8-1.1-5.4-3-7.4-5.4c-1.9-2.3-1.5-5.5-1.6-8.4c0-0.3-0.2-2.8,0.4-2.7C360.4,329.6,364.3,332,365.9,332.8z"/>
			</g>
			<g>
				<defs>
					<path id="SVGID_30_" d="M382.6,303.4c3.8,2.7,3.3-1.8,10.2-4.3l1.4-8.3c0,0,2.3,0.5,3.3,0c1.9-0.9,1.1-8.6-0.5-10.8
						c-0.6-0.8-2.5-1.3-4.5-1c0,0,1.2,3.1-0.7,5.8c-1.9,2.7-4.5,3.6-4.5,3.6C387.1,295.7,382.6,303.4,382.6,303.4z"/>
				</defs>
				<clipPath id="SVGID_31_">
					<use xlink:href="#SVGID_30_"  style="overflow:visible;"/>
				</clipPath>
				<path class="st25" d="M392.3,304.3L392.3,304.3l-13.5-21.5l16.3-7.6l0,0.1l9.6,20.8L392.3,304.3z M379.1,282.9l13.2,21.1l12.2-8
					l-9.5-20.5L379.1,282.9z"/>
				
					<linearGradient id="SVGID_32_" gradientUnits="userSpaceOnUse" x1="-561.1966" y1="647.8239" x2="-541.8611" y2="647.8239" gradientTransform="matrix(0.9826 0.1858 -0.1858 0.9826 1054.9 -242.2116)">
					<stop  offset="0" style="stop-color:#FF940C"/>
					<stop  offset="1" style="stop-color:#FDB137"/>
				</linearGradient>
				<polygon class="st26" points="380.6,303.5 386.7,308.6 404.1,283.3 389.3,273.4 				"/>
				
					<linearGradient id="SVGID_33_" gradientUnits="userSpaceOnUse" x1="3054.1726" y1="59.9026" x2="3070.8606" y2="59.9026" gradientTransform="matrix(-0.9897 0.143 0.143 0.9897 3412.0293 -206.882)">
					<stop  offset="0" style="stop-color:#2F2829"/>
					<stop  offset="1" style="stop-color:#635A58;stop-opacity:0"/>
				</linearGradient>
				<path class="st27" d="M397.2,287.3l-1.2,0.1l-1.1-4.2c0,0-3-0.4-3.7,1.1s0.3,3.8,2.3,5.2c1.9,1.4,4.3,1.2,4.3,1.2
					s-7.7,4.1-9,10.8c-0.6,3.2-5.8,1.6-5.8,1.6l3.7-21.9c0,0,0.6-4.7,6.5-3.5C395.5,278.1,397.2,280.3,397.2,287.3z"/>
				
					<linearGradient id="SVGID_34_" gradientUnits="userSpaceOnUse" x1="3056.9358" y1="60.9745" x2="3071.2988" y2="60.9745" gradientTransform="matrix(-0.9897 0.143 0.143 0.9897 3412.0293 -206.882)">
					<stop  offset="0" style="stop-color:#2F2829"/>
					<stop  offset="1" style="stop-color:#635A58;stop-opacity:0"/>
				</linearGradient>
				<path class="st28" d="M389.5,284.9c0,0,3.4-3.4-0.7-5.9c-3.7-2.4-4,19-6.6,22.1c0,0,3.2,8.4,4.9-0.3c1.7-8.7,8.2-9.9,8.2-9.9
					S390.4,290,389.5,284.9z"/>
			</g>
			<g>
				<g>
					<defs>
						<path id="SVGID_35_" d="M432.1,330.1l0.1,13.9c0,1.4-1.1,2.6-2.5,2.6l-9,0.1l0,2.8l9.9-0.1c2.5,0,4.5-2,4.5-4.5l-0.1-17.6l0,0
							C433.3,327.3,432,328.6,432.1,330.1z"/>
					</defs>
					<linearGradient id="SVGID_36_" gradientUnits="userSpaceOnUse" x1="420.5898" y1="338.4417" x2="434.9546" y2="338.4417">
						<stop  offset="0" style="stop-color:#0E0D15"/>
						<stop  offset="1" style="stop-color:#1F1F3C"/>
					</linearGradient>
					<use xlink:href="#SVGID_35_"  style="overflow:visible;fill:url(#SVGID_36_);"/>
					<clipPath id="SVGID_37_">
						<use xlink:href="#SVGID_35_"  style="overflow:visible;"/>
					</clipPath>
					<g class="st29">
						
							<linearGradient id="SVGID_38_" gradientUnits="userSpaceOnUse" x1="4230.0425" y1="1167.4021" x2="4246.5469" y2="1167.4021" gradientTransform="matrix(1 -6.240980e-03 6.240980e-03 1 -3817.3921 -801.7732)">
							<stop  offset="0" style="stop-color:#0E0D15"/>
							<stop  offset="1" style="stop-color:#1F1F3C"/>
						</linearGradient>
						<polygon class="st30" points="436.5,351.1 419.9,351.3 419.8,327.2 436.3,327.1 						"/>
					</g>
					
						<linearGradient id="SVGID_39_" gradientUnits="userSpaceOnUse" x1="4237.9014" y1="1181.0497" x2="4237.9014" y2="1162.5348" gradientTransform="matrix(1 -6.240980e-03 6.240980e-03 1 -3817.3921 -801.7732)">
						<stop  offset="0" style="stop-color:#0E0D15"/>
						<stop  offset="1" style="stop-color:#1F1F3C"/>
					</linearGradient>
					<path class="st31" d="M435.4,338c5.6,9.1-3.9,18.7-13.1,13.2c-0.9-0.5-1.6-1.2-2.1-2.1c-5.6-9.1,3.9-18.7,13.1-13.2
						C434.1,336.4,434.8,337.1,435.4,338z"/>
				</g>
				<g>
					<defs>
						<path id="SVGID_40_" d="M374.3,389.2c-0.1-14.7-12.1-26.5-26.7-26.4c-14.7,0.1-26.5,12.1-26.4,26.7s12.1,26.5,26.7,26.4
							C362.6,415.8,374.4,403.8,374.3,389.2z M329.7,389.5c-0.1-10,8-18.2,18-18.2c10-0.1,18.2,8,18.2,18s-8,18.2-18,18.2
							C337.9,407.5,329.8,399.5,329.7,389.5z"/>
					</defs>
					<linearGradient id="SVGID_41_" gradientUnits="userSpaceOnUse" x1="321.2465" y1="389.3471" x2="374.3496" y2="389.3471">
						<stop  offset="0" style="stop-color:#0E0D15"/>
						<stop  offset="1" style="stop-color:#1F1F3C"/>
					</linearGradient>
					<use xlink:href="#SVGID_40_"  style="overflow:visible;fill:url(#SVGID_41_);"/>
					<clipPath id="SVGID_42_">
						<use xlink:href="#SVGID_40_"  style="overflow:visible;"/>
					</clipPath>
					
						<linearGradient id="SVGID_43_" gradientUnits="userSpaceOnUse" x1="-3460.3984" y1="-517.2626" x2="-3460.3984" y2="-576.8021" gradientTransform="matrix(-1 6.240980e-03 -6.240980e-03 -1 -3115.9624 -136.1371)">
						<stop  offset="0" style="stop-color:#0E0D15"/>
						<stop  offset="1" style="stop-color:#1F1F3C"/>
					</linearGradient>
					<polygon class="st32" points="320.5,359.7 374.8,359.4 375.1,418.9 320.8,419.2 					"/>
					
						<linearGradient id="SVGID_44_" gradientUnits="userSpaceOnUse" x1="4170.6426" y1="1233.3641" x2="4170.6426" y2="1161.881" gradientTransform="matrix(1 -6.240980e-03 6.240980e-03 1 -3817.3921 -801.7732)">
						<stop  offset="0" style="stop-color:#0E0D15"/>
						<stop  offset="1" style="stop-color:#1F1F3C"/>
					</linearGradient>
					<path class="st33" d="M389.7,347.7c22.3,35.5-14.9,73.2-50.7,51.4c-2.9-1.8-5.4-4.3-7.3-7.2c-22.3-35.5,14.9-73.2,50.7-51.4
						C385.3,342.3,387.8,344.8,389.7,347.7z"/>
				</g>
				<g>
					<defs>
						<path id="SVGID_45_" d="M410.1,389c0.1,14.7,12.1,26.5,26.7,26.4c14.7-0.1,26.5-12.1,26.4-26.7s-12.1-26.5-26.7-26.4
							C421.9,362.3,410,374.3,410.1,389z M454.8,388.7c0.1,10-8,18.2-18,18.2c-10,0.1-18.2-8-18.2-18c-0.1-10,8-18.2,18-18.2
							C446.6,370.6,454.7,378.7,454.8,388.7z"/>
					</defs>
					<linearGradient id="SVGID_46_" gradientUnits="userSpaceOnUse" x1="410.1347" y1="388.7923" x2="463.2379" y2="388.7923">
						<stop  offset="0" style="stop-color:#0E0D15"/>
						<stop  offset="1" style="stop-color:#1F1F3C"/>
					</linearGradient>
					<use xlink:href="#SVGID_45_"  style="overflow:visible;fill:url(#SVGID_46_);"/>
					<clipPath id="SVGID_47_">
						<use xlink:href="#SVGID_45_"  style="overflow:visible;"/>
					</clipPath>
					
						<linearGradient id="SVGID_48_" gradientUnits="userSpaceOnUse" x1="4245.9414" y1="1243.6381" x2="4245.9414" y2="1190.4225" gradientTransform="matrix(1 -6.240980e-03 6.240980e-03 1 -3817.3921 -801.7732)">
						<stop  offset="0" style="stop-color:#0E0D15"/>
						<stop  offset="1" style="stop-color:#1F1F3C"/>
					</linearGradient>
					<polygon class="st34" points="463.4,415.2 409.1,415.5 408.8,362.3 463.1,362 					"/>
					
						<linearGradient id="SVGID_49_" gradientUnits="userSpaceOnUse" x1="4227.4619" y1="1270.9319" x2="4227.4619" y2="1199.4487" gradientTransform="matrix(1 -6.240980e-03 6.240980e-03 1 -3817.3921 -801.7732)">
						<stop  offset="0" style="stop-color:#0E0D15"/>
						<stop  offset="1" style="stop-color:#1F1F3C"/>
					</linearGradient>
					<path class="st35" d="M446.7,384.9c22.3,35.5-14.9,73.2-50.7,51.4c-2.9-1.8-5.4-4.3-7.3-7.2c-22.3-35.5,14.9-73.2,50.7-51.4
						C442.4,379.5,444.9,382,446.7,384.9z"/>
				</g>
				<g>
					<defs>
						<path id="SVGID_50_" d="M324.9,370l7,5.3l18.1-0.1c4.2,0,8.1,2.1,10.4,5.6h0l15.4-0.1c0,0-4.2-21.9-25.4-21.7
							C333.3,359,324.9,370,324.9,370z"/>
					</defs>
					<clipPath id="SVGID_51_">
						<use xlink:href="#SVGID_50_"  style="overflow:visible;"/>
					</clipPath>
					
						<linearGradient id="SVGID_52_" gradientUnits="userSpaceOnUse" x1="4133.877" y1="1198.3542" x2="4185.6924" y2="1198.3542" gradientTransform="matrix(1 -6.240980e-03 6.240980e-03 1 -3817.3921 -801.7732)">
						<stop  offset="0" style="stop-color:#FA1B32"/>
						<stop  offset="1" style="stop-color:#E30A16"/>
					</linearGradient>
					<polygon class="st36" points="375.8,382.1 324,382.4 323.8,359.1 375.6,358.8 					"/>
					
						<linearGradient id="SVGID_53_" gradientUnits="userSpaceOnUse" x1="4127.48" y1="1206.6038" x2="4173.8345" y2="1206.6038" gradientTransform="matrix(1 -6.240980e-03 6.240980e-03 1 -3817.3921 -801.7732)">
						<stop  offset="0" style="stop-color:#635A58"/>
						<stop  offset="1" style="stop-color:#2F2829;stop-opacity:0"/>
					</linearGradient>
					<path class="st37" d="M359.7,364.9c14,22.8-9.8,46.9-32.8,33.2c-2.1-1.3-3.9-3-5.2-5.2c-14-22.8,9.8-46.9,32.8-33.2
						C356.6,361,358.4,362.8,359.7,364.9z"/>
				</g>
				<g>
					<defs>
						<path id="SVGID_54_" d="M420.4,342.8l-2.8,0.8c-0.1-8.4-9.2-8.2-9.2-14.2c0,0,4.4,0,8.8-0.1S420.4,342.8,420.4,342.8z"/>
					</defs>
					<linearGradient id="SVGID_55_" gradientUnits="userSpaceOnUse" x1="408.3607" y1="336.5069" x2="420.5396" y2="336.5069">
						<stop  offset="0" style="stop-color:#0E0D15"/>
						<stop  offset="1" style="stop-color:#1F1F3C"/>
					</linearGradient>
					<use xlink:href="#SVGID_54_"  style="overflow:visible;fill:url(#SVGID_55_);"/>
					<clipPath id="SVGID_56_">
						<use xlink:href="#SVGID_54_"  style="overflow:visible;"/>
					</clipPath>
					
						<linearGradient id="SVGID_57_" gradientUnits="userSpaceOnUse" x1="4217.0527" y1="1170.0181" x2="4231.8906" y2="1155.1805" gradientTransform="matrix(1 -6.240980e-03 6.240980e-03 1 -3817.3921 -801.7732)">
						<stop  offset="0" style="stop-color:#0E0D15"/>
						<stop  offset="1" style="stop-color:#1F1F3C"/>
					</linearGradient>
					<polygon class="st38" points="421.4,342.2 407.2,342.3 407.1,326.7 421.3,326.6 					"/>
					
						<linearGradient id="SVGID_58_" gradientUnits="userSpaceOnUse" x1="4212.1836" y1="1166.9689" x2="4229.3286" y2="1166.9689" gradientTransform="matrix(1 -6.240980e-03 6.240980e-03 1 -3817.3921 -801.7732)">
						<stop  offset="0" style="stop-color:#0E0D15"/>
						<stop  offset="1" style="stop-color:#1F1F3C"/>
					</linearGradient>
					<path class="st39" d="M417.6,333.7c5.2,8.4-3.6,17.3-12.1,12.3c-0.8-0.5-1.5-1.1-2-1.9c-5.2-8.4,3.6-17.3,12.1-12.3
						C416.5,332.2,417.1,332.9,417.6,333.7z"/>
				</g>
				<g>
					<defs>
						<path id="SVGID_59_" d="M414.3,343.3L414.3,343.3c0.2,0.7,0.9,1,1.5,0.8l1.7-0.5l4,11.8l-2.2,0.8l0.1,0.2
							c0.4,1.2,1.5,2,2.7,1.9l0,0l12.4,31c0.6,1.6,2.5,2.4,4.1,1.6l0,0L427,355.8c-0.4-1.1-1.5-1.6-2.6-1.2l0,0l-4-11.7l1.3-0.4
							c0.6-0.2,1-0.9,0.8-1.5l0-0.1c-0.2-0.7-0.9-1-1.6-0.8l-5.8,1.9C414.5,342,414.1,342.7,414.3,343.3z"/>
					</defs>
					<clipPath id="SVGID_60_">
						<use xlink:href="#SVGID_59_"  style="overflow:visible;"/>
					</clipPath>
					
						<linearGradient id="SVGID_61_" gradientUnits="userSpaceOnUse" x1="4223.2002" y1="1193.5256" x2="4248.6055" y2="1193.5256" gradientTransform="matrix(1 -6.240980e-03 6.240980e-03 1 -3817.3921 -801.7732)">
						<stop  offset="0" style="stop-color:#FA1B32"/>
						<stop  offset="1" style="stop-color:#E30A16"/>
					</linearGradient>
					<polygon class="st40" points="438.8,392.1 413.4,392.2 413,338.5 438.4,338.4 					"/>
					
						<linearGradient id="SVGID_62_" gradientUnits="userSpaceOnUse" x1="12215.4863" y1="2130.5159" x2="12245.6738" y2="2130.5159" gradientTransform="matrix(0.2361 -7.754868e-02 0.3121 0.9501 -3127.8816 -710.215)">
						<stop  offset="0" style="stop-color:#635A58"/>
						<stop  offset="1" style="stop-color:#2F2829;stop-opacity:0"/>
					</linearGradient>
					<polygon class="st41" points="436.7,390.3 429.6,392.6 412.5,340.6 419.6,338.3 					"/>
				</g>
				<g>
					<defs>
						
							<rect id="SVGID_63_" x="374.8" y="344.6" transform="matrix(0.9378 -0.3471 0.3471 0.9378 -103.1849 153.2371)" width="2.6" height="40"/>
					</defs>
					<clipPath id="SVGID_64_">
						<use xlink:href="#SVGID_63_"  style="overflow:visible;"/>
					</clipPath>
					<line class="st42" x1="367.8" y1="342.2" x2="383.1" y2="383.4"/>
					
						<rect x="365.7" y="345.3" transform="matrix(1 -6.240966e-03 6.240966e-03 1 -2.1918 2.3193)" class="st43" width="9.7" height="14.1"/>
					
						<linearGradient id="SVGID_65_" gradientUnits="userSpaceOnUse" x1="18660.3945" y1="-4533.4482" x2="18692.2793" y2="-4533.4482" gradientTransform="matrix(0.2724 0.3004 0.2803 0.9437 -3444.9148 -976.1035)">
						<stop  offset="8.571827e-02" style="stop-color:#635A58;stop-opacity:0"/>
						<stop  offset="1" style="stop-color:#30292A"/>
					</linearGradient>
					<polygon class="st44" points="372.5,367.6 376.7,366.1 369.3,345.5 365.2,347 					"/>
				</g>
				<g>
					<defs>
						<polygon id="SVGID_66_" points="349.1,385.2 346.2,380.8 365.2,359.9 374.5,356.6 384.9,383.8 381.9,383.8 373.5,361.2 
							368.8,361.3 						"/>
					</defs>
					<clipPath id="SVGID_67_">
						<use xlink:href="#SVGID_66_"  style="overflow:visible;"/>
					</clipPath>
					
						<rect x="346.2" y="354.5" transform="matrix(1 -6.240966e-03 6.240966e-03 1 -2.3006 2.2862)" class="st45" width="38" height="30.6"/>
					
						<linearGradient id="SVGID_68_" gradientUnits="userSpaceOnUse" x1="4141.5312" y1="1026.4" x2="4176.5586" y2="1026.4" gradientTransform="matrix(1.0062 3.395339e-02 0 1.0454 -3819.4985 -840.0981)">
						<stop  offset="8.571827e-02" style="stop-color:#635A58;stop-opacity:0"/>
						<stop  offset="1" style="stop-color:#30292A"/>
					</linearGradient>
					<polygon class="st46" points="357.7,392.6 382.9,383.5 372.8,355.7 347.6,364.8 					"/>
				</g>
				<g>
					<defs>
						<path id="SVGID_69_" d="M359.6,341.5c-2.8,3.1,4.3,7,4.3,7s16.6,0.6,15.7-4.1c-0.9-4.7-6.4-2.4-10-2.5
							C366.1,341.8,362.7,338,359.6,341.5z"/>
					</defs>
					<linearGradient id="SVGID_70_" gradientUnits="userSpaceOnUse" x1="358.9724" y1="344.2393" x2="379.6856" y2="344.2393">
						<stop  offset="0" style="stop-color:#0E0D15"/>
						<stop  offset="1" style="stop-color:#1F1F3C"/>
					</linearGradient>
					<use xlink:href="#SVGID_69_"  style="overflow:visible;fill:url(#SVGID_70_);"/>
					<clipPath id="SVGID_71_">
						<use xlink:href="#SVGID_69_"  style="overflow:visible;"/>
					</clipPath>
					
						<linearGradient id="SVGID_72_" gradientUnits="userSpaceOnUse" x1="4164.6138" y1="1172.1488" x2="4190.8491" y2="1172.1488" gradientTransform="matrix(1 -6.240980e-03 6.240980e-03 1 -3817.3921 -801.7732)">
						<stop  offset="0" style="stop-color:#0E0D15"/>
						<stop  offset="1" style="stop-color:#1F1F3C"/>
					</linearGradient>
					<polygon class="st47" points="380.7,348.9 354.5,349 354.4,339.7 380.7,339.5 					"/>
					
						<linearGradient id="SVGID_73_" gradientUnits="userSpaceOnUse" x1="4171.3091" y1="1185.8026" x2="4171.3091" y2="1169.7632" gradientTransform="matrix(1 -6.240980e-03 6.240980e-03 1 -3817.3921 -801.7732)">
						<stop  offset="0" style="stop-color:#0E0D15"/>
						<stop  offset="1" style="stop-color:#1F1F3C"/>
					</linearGradient>
					<path class="st48" d="M367.8,345.2c4.7,7.9-3.4,16.1-11.3,11.5c-0.8-0.5-1.4-1.1-1.9-1.9c-4.7-7.9,3.4-16.1,11.3-11.5
						C366.7,343.7,367.3,344.4,367.8,345.2z"/>
				</g>
				<g>
					<defs>
						<path id="SVGID_74_" d="M419.5,356.2l-13.8,26.2c-2.6,5-7.8,8.2-13.5,8.3l0,0c0,3.5-2.4,8.3-8.3,8.3c-5.4,0-9.5-3.1-9.5-9.9
							l-22.6,0.1l-5.6-8.5l2.5,0l2.1,2.9c0,0,25-0.2,33.7-0.2c8.8-0.1,12.7-2.6,16-8s15.7-27.4,15.7-27.4l0-4.8l1.8-0.5l4.7,13.1
							L419.5,356.2z"/>
					</defs>
					<clipPath id="SVGID_75_">
						<use xlink:href="#SVGID_74_"  style="overflow:visible;"/>
					</clipPath>
					
						<linearGradient id="SVGID_76_" gradientUnits="userSpaceOnUse" x1="4155.9951" y1="1198.3766" x2="4235.0229" y2="1198.3766" gradientTransform="matrix(1 -6.240980e-03 6.240980e-03 1 -3817.3921 -801.7732)">
						<stop  offset="0" style="stop-color:#DBD9D1"/>
						<stop  offset="1" style="stop-color:#E8E7E0"/>
					</linearGradient>
					<polygon class="st49" points="425.2,400.4 346.2,400.9 345.8,340.4 424.9,339.9 					"/>
					<g class="st50">
						
							<linearGradient id="SVGID_77_" gradientUnits="userSpaceOnUse" x1="4189.6782" y1="1219.3198" x2="4197.0059" y2="1219.3198" gradientTransform="matrix(1 -6.240980e-03 6.240980e-03 1 -3817.3921 -801.7732)">
							<stop  offset="0" style="stop-color:#0E0D15"/>
							<stop  offset="1" style="stop-color:#1F1F3C"/>
						</linearGradient>
						<path class="st51" d="M386.5,389.1c2.3,3.7-1.5,7.5-5.2,5.3c-0.3-0.2-0.5-0.4-0.7-0.7c-2.3-3.7,1.5-7.5,5.2-5.3
							C386,388.5,386.3,388.8,386.5,389.1z"/>
					</g>
					
						<linearGradient id="SVGID_78_" gradientUnits="userSpaceOnUse" x1="4154.8516" y1="1201.0051" x2="4234.5361" y2="1201.0051" gradientTransform="matrix(1 -6.240980e-03 6.240980e-03 1 -3817.3921 -801.7732)">
						<stop  offset="0" style="stop-color:#635A58"/>
						<stop  offset="1" style="stop-color:#2F2829;stop-opacity:0"/>
					</linearGradient>
					<path class="st52" d="M424.5,353l-3.9-9l-18.5,33.9c-3,4.7-8.1,7.5-13.7,7.6l-43.4,0.7l0.1,15.9l51.4-0.7L424.5,353z"/>
				</g>
				
					<linearGradient id="SVGID_79_" gradientUnits="userSpaceOnUse" x1="-7568.1807" y1="-7755.0679" x2="-7563.8535" y2="-7755.6274" gradientTransform="matrix(-0.5661 -0.2091 0.2155 -0.5835 -2226.8286 -5720.082)">
					<stop  offset="0" style="stop-color:#DBD9D1"/>
					<stop  offset="1" style="stop-color:#E8E7E0"/>
				</linearGradient>
				<path class="st53" d="M386.2,381.9l1.3,0.5l-3.4,9.3c-0.1,0.2-0.4,0.4-0.6,0.3l-0.5-0.2c-0.2-0.1-0.4-0.4-0.3-0.6L386.2,381.9z"
					/>
				
					<linearGradient id="SVGID_80_" gradientUnits="userSpaceOnUse" x1="8736.5303" y1="-15504.4336" x2="8743.8311" y2="-15507.5166" gradientTransform="matrix(-0.2075 0.5667 -0.3197 -0.1171 -2756.4929 -6385.5913)">
					<stop  offset="0" style="stop-color:#0E0D15"/>
					<stop  offset="1" style="stop-color:#1F1F3C"/>
				</linearGradient>
				<path class="st54" d="M383.9,381.8l0.2-0.5c0.1-0.2,0.4-0.4,0.6-0.3l4.5,1.6c0.2,0.1,0.4,0.4,0.3,0.6l-0.2,0.5
					c-0.1,0.2-0.4,0.4-0.6,0.3l-4.5-1.6C383.9,382.3,383.8,382,383.9,381.8z"/>
			</g>
			<g>
				<defs>
					<path id="SVGID_81_" d="M394.5,318.7c2.3,1.8,19.5-1.6,21.2-2.8c1.6-1.1,3.1,1.6,6.1,0.6c1.4-0.5,3.6-4.6,1.4-6.7
						c-1.3-1.4-4.1-1.6-5.1-1.2c-0.2,0.1,0.4-3.7-1.3-3.6c-1.1,0.1-0.6,4.3-0.6,4.3s-1.1,2.9-2,3c-1.8,0.3-16.4-0.5-16.4-0.5
						s-9.8-18.1-17.2-14.7C370.8,301.6,391.3,316.1,394.5,318.7z"/>
				</defs>
				<clipPath id="SVGID_82_">
					<use xlink:href="#SVGID_81_"  style="overflow:visible;"/>
				</clipPath>
				
					<linearGradient id="SVGID_83_" gradientUnits="userSpaceOnUse" x1="1946.1986" y1="-917.3674" x2="1983.0643" y2="-917.3674" gradientTransform="matrix(1.3569 0.6568 -0.4357 0.9001 -2666.1401 -155.4218)">
					<stop  offset="0" style="stop-color:#FEC43B"/>
					<stop  offset="1" style="stop-color:#FEAB0C"/>
				</linearGradient>
				<polygon class="st55" points="367.7,311 417.2,332.1 431.1,307.4 379.8,285.9 				"/>
				
					<linearGradient id="SVGID_84_" gradientUnits="userSpaceOnUse" x1="2226.251" y1="-460.0787" x2="2220.8691" y2="-484.6222" gradientTransform="matrix(0.8142 0.3124 -0.2966 0.7729 -1550.3423 -20.5781)">
					<stop  offset="0" style="stop-color:#635A58;stop-opacity:0"/>
					<stop  offset="1" style="stop-color:#2F2829"/>
				</linearGradient>
				<path class="st56" d="M388,297.9c3.9,3,8.4,8.7,11.8,11.1c3.5,2.4,14.4,3.2,14.5,1.1c0.1-3.1,2.3-6.2,3.4-5.9
					c0.6,0.1,0.7,2.7,1.6,3.4c0.7,0.6,2.5-0.2,2.9,0.6c0.4,0.9,1.5,1.6,1.9,2.4c0.3,0.6-0.2,4.9-0.7,5.8c-0.4,0.7-22.6,4-27.2,2.3
					c-3.9-1.4-19.8-14.1-19.1-19.4S384,294.7,388,297.9z"/>
			</g>
		</g>
		<g id="articulo_12_bis">
			<path class="st57" d="M390.2,430.3c-49,0-88.8-39.8-88.8-88.8c0-15.2,3.8-29.8,10.9-42.7l1.8,1c-6.9,12.6-10.6,26.9-10.6,41.7
				c0,47.8,38.9,86.7,86.7,86.7s86.7-38.9,86.7-86.7c0-14.5-3.7-28.6-10.4-41.2l1.6-1.5c7.1,13,10.9,27.7,10.9,42.7
				C479,390.4,439.2,430.3,390.2,430.3z"/>
			<g>
				<path class="st1" d="M328.7,287.9l-3.5,4.2l2,2.9l-2.6,3.1l-9.7-15.5l2.8-3.3l16.9,6.9l-2.6,3.1L328.7,287.9z M323.3,289.4
					l2.4-2.8l-5.9-2.6l0,0.1L323.3,289.4z"/>
				<path class="st1" d="M334.3,274.3l-1.1,1c-0.3,0.3-0.6,0.6-0.7,0.9c-0.1,0.3-0.1,0.6-0.1,0.9l5.6,6.3l-3,2.7l-8.5-9.7l2.8-2.5
					l1.4,1.3c-0.2-0.7-0.3-1.3-0.2-1.9c0.1-0.6,0.4-1.1,0.8-1.5c0.1-0.1,0.3-0.2,0.5-0.4c0.2-0.1,0.3-0.2,0.5-0.3L334.3,274.3z"/>
				<path class="st1" d="M336.4,264.5l1.8,2.6l1.8-1.3l1.6,2.3l-1.8,1.3l3.4,4.8c0.3,0.4,0.5,0.6,0.8,0.7c0.3,0.1,0.5,0,0.8-0.2
					c0.2-0.1,0.4-0.3,0.5-0.4c0.1-0.1,0.2-0.2,0.4-0.4l1.9,2.3c-0.3,0.3-0.6,0.6-0.9,0.9c-0.3,0.2-0.6,0.5-1,0.8
					c-1.1,0.8-2.1,1-3.1,0.9c-1-0.2-1.9-0.9-2.8-2.2l-3.4-4.9l-1.5,1l-1.6-2.3l1.5-1l-1.8-2.6L336.4,264.5z"/>
				<path class="st1" d="M342.4,258.9l3.6-2l0.1,0.1l-1.4,4.3l-2.9,1.6L342.4,258.9z M352.5,273.5l-3.5,2l-6.4-11.2l3.5-2
					L352.5,273.5z"/>
				<path class="st1" d="M358.3,267.7c0.5-0.2,0.8-0.5,0.9-0.9c0.1-0.4,0.1-0.8-0.1-1.4l3.4-1.4l0.1,0.1c0.6,1.3,0.6,2.5,0,3.7
					s-1.6,2.1-3,2.7c-1.8,0.8-3.4,0.8-4.9,0.1s-2.5-2-3.3-3.8l-0.1-0.3c-0.7-1.8-0.9-3.4-0.4-5c0.5-1.5,1.7-2.7,3.4-3.4
					c1.5-0.6,2.9-0.7,4.1-0.2c1.3,0.5,2.2,1.4,2.7,2.9l0,0.1l-3.4,1.4c-0.2-0.6-0.6-1-1-1.2c-0.4-0.3-0.8-0.3-1.4-0.1
					c-0.7,0.3-1.1,0.8-1.1,1.5c0,0.7,0.1,1.5,0.5,2.5l0.1,0.3c0.4,1,0.9,1.7,1.4,2.2C357,267.9,357.6,268,358.3,267.7z"/>
				<path class="st1" d="M372.5,264.7c-0.3,0.7-0.7,1.2-1.2,1.6c-0.5,0.4-1.1,0.7-1.9,0.9c-1.3,0.3-2.4,0.1-3.4-0.5
					c-0.9-0.7-1.6-1.9-2-3.6l-1.8-7.7l3.9-0.9l1.8,7.7c0.2,0.7,0.4,1.2,0.8,1.5c0.4,0.3,0.8,0.4,1.3,0.2c0.4-0.1,0.8-0.2,1.1-0.4
					c0.3-0.2,0.5-0.4,0.7-0.7l-2.2-9.1l3.9-0.9l3,12.5l-3.4,0.8L372.5,264.7z"/>
				<path class="st1" d="M382.4,264.7l-4,0.4l-2-18.5l4-0.4L382.4,264.7z"/>
				<path class="st1" d="M383.9,257.8c0-1.9,0.6-3.5,1.7-4.7c1.1-1.2,2.7-1.8,4.6-1.8c2,0,3.5,0.7,4.6,1.9c1.1,1.2,1.6,2.8,1.6,4.8
					l0,0.3c0,1.9-0.6,3.5-1.7,4.7c-1.1,1.2-2.7,1.8-4.6,1.7c-2,0-3.5-0.7-4.6-1.9c-1.1-1.2-1.6-2.8-1.6-4.8L383.9,257.8z
					 M387.9,258.1c0,1.1,0.1,1.9,0.5,2.6c0.3,0.6,0.9,0.9,1.7,1c0.8,0,1.4-0.3,1.7-0.9c0.4-0.6,0.5-1.5,0.6-2.5l0-0.3
					c0-1-0.1-1.9-0.5-2.5c-0.3-0.6-0.9-1-1.7-1c-0.8,0-1.4,0.3-1.7,0.9c-0.3,0.6-0.5,1.5-0.5,2.5L387.9,258.1z"/>
				<path class="st1" d="M411.3,267.6l-3.9-1l3.4-12.9l-3.7-1l0.7-2.7l7.9,0.8L411.3,267.6z"/>
				<path class="st1" d="M427.1,274.1l-11-5.1l1.1-2.4l7.5-3c1-0.4,1.8-0.9,2.3-1.3c0.6-0.4,1-0.9,1.1-1.3c0.3-0.6,0.3-1.2,0.2-1.7
					c-0.1-0.5-0.5-0.9-1.1-1.2c-0.5-0.3-1.1-0.2-1.6,0.1c-0.5,0.3-1,0.8-1.3,1.6l-3.6-1.6l0-0.1c0.6-1.5,1.7-2.5,3.1-3.1
					s3-0.5,4.6,0.3c1.7,0.8,2.9,1.8,3.5,3.1c0.6,1.3,0.5,2.7-0.1,4.2c-0.5,1-1.1,1.8-2,2.3c-0.9,0.5-2.3,1.2-4.4,2.1l-3.2,1.3l0,0.1
					l6.2,2.8L427.1,274.1z"/>
				<path class="st1" d="M433.3,277.9l11-13.4l4.6,3.8c1.7,1.4,2.7,2.7,3.1,4.1c0.4,1.4,0.1,2.7-0.9,3.9c-0.5,0.6-1.1,1.1-1.8,1.3
					c-0.7,0.3-1.5,0.2-2.3,0c0.6,0.8,0.9,1.7,0.9,2.5c-0.1,0.8-0.4,1.6-1,2.3c-1.1,1.3-2.3,1.9-3.8,1.9c-1.4,0-3-0.7-4.6-2.1
					L433.3,277.9z M441.1,274.7l-2.8,3.4l2.2,1.8c0.7,0.5,1.3,0.8,1.8,0.8c0.5,0,1-0.3,1.5-0.8c0.5-0.6,0.7-1.1,0.7-1.7
					c0-0.5-0.4-1.1-1-1.6L441.1,274.7z M442.8,272.6l1.6,1.3c0.7,0.6,1.4,0.9,1.9,0.9c0.6,0,1.1-0.2,1.5-0.7
					c0.5-0.6,0.6-1.1,0.5-1.7c-0.1-0.6-0.6-1.1-1.3-1.7l-1.5-1.2L442.8,272.6z"/>
				<path class="st1" d="M447.4,290.8l-2.8-3l9.4-8.8l2.8,3L447.4,290.8z M459.1,279.9l-2.8-3l2-1.8l2.8,3L459.1,279.9z"/>
				<path class="st1" d="M455.8,295.5c0.3-0.2,0.4-0.5,0.4-0.9c0-0.4-0.2-1.1-0.6-2c-0.7-1.4-1-2.6-0.9-3.6c0-1,0.5-1.8,1.4-2.4
					c0.9-0.7,2-0.9,3.2-0.6c1.2,0.3,2.3,1.1,3.3,2.4c1,1.4,1.5,2.7,1.5,4c0,1.3-0.5,2.3-1.5,2.9l-0.1,0l-2.3-3.2
					c0.4-0.3,0.6-0.6,0.7-1c0.1-0.4-0.1-0.8-0.4-1.2c-0.2-0.3-0.6-0.6-0.9-0.7c-0.4-0.1-0.7,0-1,0.2c-0.3,0.2-0.4,0.5-0.4,0.9
					c0,0.4,0.2,1.1,0.7,2c0.7,1.5,1,2.7,1,3.6c0,1-0.5,1.8-1.4,2.5c-0.9,0.7-2,0.8-3.2,0.5c-1.2-0.4-2.3-1.3-3.3-2.6
					c-1-1.4-1.5-2.8-1.4-4.2c0.1-1.4,0.6-2.3,1.5-2.9l0.1,0l2.2,2.9c-0.5,0.4-0.7,0.8-0.7,1.2c0,0.4,0.2,0.9,0.6,1.5
					c0.3,0.4,0.6,0.7,1,0.8C455.1,295.8,455.4,295.7,455.8,295.5z"/>
			</g>
		</g>
		<g id="camion_2_">
			<defs>
				<rect id="SVGID_85_" x="0" y="264.5" width="140.3" height="159.2"/>
			</defs>
			<clipPath id="SVGID_86_">
				<use xlink:href="#SVGID_85_"  style="overflow:visible;"/>
			</clipPath>
			<g class="st58">
				<g class="st8">
					
						<linearGradient id="SVGID_87_" gradientUnits="userSpaceOnUse" x1="3524.7832" y1="391.6659" x2="3765.762" y2="391.6659" gradientTransform="matrix(-1 0 0 1 3584.6267 0)">
						<stop  offset="0" style="stop-color:#2F2829"/>
						<stop  offset="0.9955" style="stop-color:#635A58;stop-opacity:0"/>
					</linearGradient>
					<rect x="-181.1" y="362.7" class="st59" width="241" height="57.9"/>
				</g>
				<g>
					<g>
						<defs>
							<path id="SVGID_88_" d="M-143.6,391.7h261.4c8.6,0,15.6-7,15.6-15.6v-14.1L98,280.7c-4.2-9.8-13.9-16.1-24.5-16.1h-230.7
								v113.5C-157.2,385.6-151.1,391.7-143.6,391.7z"/>
						</defs>
						<clipPath id="SVGID_89_">
							<use xlink:href="#SVGID_88_"  style="overflow:visible;"/>
						</clipPath>
						
							<linearGradient id="SVGID_90_" gradientUnits="userSpaceOnUse" x1="3451.2742" y1="328.6865" x2="3767.4216" y2="328.6865" gradientTransform="matrix(-1 0 0 1 3584.6267 0)">
							<stop  offset="0" style="stop-color:#64228C"/>
							<stop  offset="1" style="stop-color:#40057B"/>
						</linearGradient>
						<polygon class="st60" points="133.4,265.2 -182.8,265.2 -182.8,392.2 133.4,392.2 						"/>
						
							<linearGradient id="SVGID_91_" gradientUnits="userSpaceOnUse" x1="3451.2742" y1="366.2733" x2="3743.8494" y2="366.2733" gradientTransform="matrix(-1 0 0 1 3584.6267 0)">
							<stop  offset="0" style="stop-color:#2F2829;stop-opacity:0"/>
							<stop  offset="1" style="stop-color:#635A58"/>
						</linearGradient>
						<polygon class="st61" points="-159.2,377.3 133.4,377.3 133.4,355.3 -159.2,355.3 						"/>
						
							<linearGradient id="SVGID_92_" gradientUnits="userSpaceOnUse" x1="3403.3479" y1="343.2036" x2="3618.7451" y2="343.2036" gradientTransform="matrix(-1 0 0 1 3584.6267 0)">
							<stop  offset="0" style="stop-color:#2F2829;stop-opacity:0"/>
							<stop  offset="1" style="stop-color:#635A58"/>
						</linearGradient>
						<path class="st62" d="M-34.1,397.1c0-59.5,48.2-107.7,107.7-107.7s107.7,48.2,107.7,107.7H-34.1z"/>
						
							<linearGradient id="SVGID_93_" gradientUnits="userSpaceOnUse" x1="3451.2744" y1="370.5178" x2="3465.6597" y2="370.5178" gradientTransform="matrix(-1 0 0 1 3584.6267 0)">
							<stop  offset="0" style="stop-color:#FEAB0C"/>
							<stop  offset="1" style="stop-color:#FEC43B"/>
						</linearGradient>
						<path class="st63" d="M128.4,379.2h5v-17.3H119v7.9C119,374.9,123.2,379.2,128.4,379.2z"/>
						<g class="st64">
							<defs>
								<path id="SVGID_94_" d="M130.5,342.2L130.5,342.2l-28.4-67.4H83.9l21.4,50.7C109.6,335.6,119.5,342.2,130.5,342.2z"/>
							</defs>
							<clipPath id="SVGID_95_">
								<use xlink:href="#SVGID_94_"  style="overflow:visible;"/>
							</clipPath>
							<polygon class="st65" points="102.1,274.8 79.7,274.8 113.2,365.7 135.5,365.7 							"/>
							
								<linearGradient id="SVGID_96_" gradientUnits="userSpaceOnUse" x1="3464.5984" y1="306.338" x2="3502.5911" y2="306.338" gradientTransform="matrix(-1 0 0 1 3584.6267 0)">
								<stop  offset="0" style="stop-color:#DAD8D0"/>
								<stop  offset="1" style="stop-color:#DAD8D0;stop-opacity:0"/>
							</linearGradient>
							<path class="st66" d="M120,306.3c0,21-17,38-38,38v-76C103,268.3,120,285.4,120,306.3z"/>
						</g>
						<g class="st64">
							<defs>
								<path id="SVGID_97_" d="M42.4,284.6c0-3,2.4-5.5,5.5-5.5h19.3c2.2,0,4.2,1.3,5.1,3.4l18.8,46.5H42.4V284.6z M27,329.1v-43.8
									c0-3.4-2.7-6.1-6.1-6.1h-34.6c-3.4,0-6.1,2.7-6.1,6.1v43.8H27z M-35.2,329.1v-43.8c0-3.4-2.7-6.1-6.1-6.1h-34.6
									c-3.4,0-6.1,2.7-6.1,6.1v43.8H-35.2z M-97.8,329.1v-43.8c0-3.4-2.7-6.1-6.1-6.1h-34.6c-3.4,0-6.1,2.7-6.1,6.1v43.8H-97.8z"
									/>
							</defs>
							<clipPath id="SVGID_98_">
								<use xlink:href="#SVGID_97_"  style="overflow:visible;"/>
							</clipPath>
							<polygon class="st67" points="-146.2,332.2 96.1,332.2 72.3,275.8 -146.2,275.8 							"/>
							
								<linearGradient id="SVGID_99_" gradientUnits="userSpaceOnUse" x1="3515.1484" y1="292.6494" x2="3544.1936" y2="292.6494" gradientTransform="matrix(-1 0 0 1 3584.6267 0)">
								<stop  offset="0" style="stop-color:#DAD8D0"/>
								<stop  offset="1" style="stop-color:#DAD8D0;stop-opacity:0"/>
							</linearGradient>
							<path class="st68" d="M69.5,292.6c0,12.2-13,22.1-29,22.1v-44.3C56.5,270.5,69.5,280.4,69.5,292.6z"/>
							
								<linearGradient id="SVGID_100_" gradientUnits="userSpaceOnUse" x1="3576.4209" y1="292.6494" x2="3605.4661" y2="292.6494" gradientTransform="matrix(-1 0 0 1 3584.6267 0)">
								<stop  offset="0" style="stop-color:#DAD8D0"/>
								<stop  offset="1" style="stop-color:#DAD8D0;stop-opacity:0"/>
							</linearGradient>
							<path class="st69" d="M8.2,292.6c0,12.2-13,22.1-29,22.1v-44.3C-4.8,270.5,8.2,280.4,8.2,292.6z"/>
						</g>
					</g>
					
						<linearGradient id="SVGID_101_" gradientUnits="userSpaceOnUse" x1="3485.4854" y1="372.5594" x2="3564.0811" y2="372.5594" gradientTransform="matrix(-1 0 0 1 3584.6267 0)">
						<stop  offset="0" style="stop-color:#2F2829;stop-opacity:0"/>
						<stop  offset="1" style="stop-color:#635A58"/>
					</linearGradient>
					<path style="opacity:0.35;fill:url(#SVGID_101_);" d="M20.5,392.2h78.6c0-21.7-17.6-39.3-39.3-39.3S20.5,370.5,20.5,392.2z"/>
					<g>
						<g>
							<defs>
								<path id="SVGID_105_" d="M36.1,374.1c-17.6,28.8,12.5,58.9,41.3,41.3c2.5-1.5,4.6-3.6,6.1-6.1
									c17.6-28.8-12.5-58.9-41.3-41.3C39.8,369.5,37.7,371.6,36.1,374.1z"/>
							</defs>
							<clipPath id="SVGID_102_">
								<use xlink:href="#SVGID_105_"  style="overflow:visible;"/>
							</clipPath>
							
								<linearGradient id="SVGID_103_" gradientUnits="userSpaceOnUse" x1="3495.8396" y1="391.6659" x2="3553.7271" y2="391.6659" gradientTransform="matrix(-1 0 0 1 3584.6267 0)">
								<stop  offset="0" style="stop-color:#0E0D15"/>
								<stop  offset="1" style="stop-color:#1F1F3C"/>
							</linearGradient>
							<polygon style="clip-path:url(#SVGID_102_);fill:url(#SVGID_103_);" points="30.9,420.6 88.8,420.6 88.8,362.7 30.9,362.7 
															"/>
							
								<linearGradient id="SVGID_104_" gradientUnits="userSpaceOnUse" x1="3479.9663" y1="403.7599" x2="3545.4124" y2="403.7599" gradientTransform="matrix(-1 0 0 1 3584.6267 0)">
								<stop  offset="0" style="stop-color:#2F2829;stop-opacity:0"/>
								<stop  offset="1" style="stop-color:#635A58"/>
							</linearGradient>
							<path style="opacity:0.5;clip-path:url(#SVGID_102_);fill:url(#SVGID_104_);" d="M45.1,423.6C25.2,391.1,59.3,357,91.8,377
								c2.8,1.7,5.2,4.1,6.9,6.9c19.9,32.5-14.1,66.6-46.7,46.7C49.3,428.8,46.9,426.4,45.1,423.6z"/>
						</g>
						<path class="st76" d="M45,380.4c-11.4,18.3,7.8,37.5,26.1,26.1c1.4-0.9,2.6-2.1,3.5-3.5c11.4-18.3-7.8-37.5-26.1-26.1
							C47.1,377.7,45.9,379,45,380.4z"/>
					</g>
				</g>
			</g>
		</g>
		<g id="prioridad">
			<g>
				<rect x="210.8" y="293.7" class="st79" width="2.4" height="83.2"/>
				<g>
					<linearGradient id="SVGID_106_" gradientUnits="userSpaceOnUse" x1="191.222" y1="277.7254" x2="232.8796" y2="277.7254">
						<stop  offset="0" style="stop-color:#42A62A"/>
						<stop  offset="1" style="stop-color:#306B2C"/>
					</linearGradient>
					<path style="fill:url(#SVGID_106_);" d="M231.4,293.8c0.9,0,1.5-0.6,1.5-1.3c0-0.6-0.4-1.2-0.7-1.5c-0.2-0.3-18.6-28-18.6-28
						s-0.7-1.2-1.8-1.2c-0.9,0-1.6,1.2-1.6,1.2s-17.9,27.4-18.1,27.7c-0.2,0.3-0.9,1.2-0.9,1.8c0,0.7,0.6,1.4,1.5,1.4
						C193,293.8,231.4,293.8,231.4,293.8z"/>
					<path class="st1" d="M192.7,294.3c-1.3,0-2.1-1-2.1-1.9c0-0.6,0.5-1.3,0.9-1.9l0.1-0.2c0.2-0.2,17.4-26.6,18.1-27.7
						c0.1-0.1,0.9-1.4,2.1-1.4c1.4,0,2.2,1.4,2.3,1.5c0.2,0.3,18.3,27.6,18.5,28c0.3,0.4,0.8,1.1,0.8,1.8c0,1.1-0.9,1.9-2,1.9
						C231.4,294.3,193,294.3,192.7,294.3z M211.8,262.2c-0.4,0-1,0.7-1.2,1c-0.2,0.3-17.9,27.4-18.1,27.7c0,0.1-0.1,0.1-0.1,0.2
						c-0.2,0.3-0.7,1-0.7,1.3c0,0.4,0.4,0.8,1,0.8c0.2,0,38.7,0,38.7,0c0.6,0,0.9-0.4,0.9-0.8c0-0.4-0.4-0.9-0.5-1.2
						c-0.2-0.4-17.8-27-18.6-28.1C213.2,263.1,212.6,262.2,211.8,262.2z"/>
				</g>
				<g>
					<g>
						<path class="st1" d="M232.3,304.5c0,0.9-0.7,1.6-1.6,1.6h-37.3c-0.9,0-1.6-0.7-1.6-1.6v-6.6c0-0.9,0.7-1.6,1.6-1.6h37.3
							c0.9,0,1.6,0.7,1.6,1.6V304.5z"/>
					</g>
					<g>
						<path class="st81" d="M194.5,303.4v-4.6h1.5c0.6,0,0.9,0,1.1,0.1c0.3,0.1,0.5,0.2,0.7,0.4c0.2,0.2,0.3,0.5,0.3,0.9
							c0,0.3-0.1,0.5-0.2,0.7c-0.1,0.2-0.2,0.3-0.4,0.4c-0.2,0.1-0.3,0.2-0.5,0.2c-0.2,0-0.5,0.1-1,0.1h-0.6v1.7H194.5z
							 M195.4,299.5v1.3h0.5c0.4,0,0.6,0,0.7-0.1c0.1,0,0.2-0.1,0.3-0.2c0.1-0.1,0.1-0.2,0.1-0.4c0-0.2-0.1-0.3-0.1-0.4
							c-0.1-0.1-0.2-0.2-0.4-0.2c-0.1,0-0.3,0-0.7,0H195.4z"/>
						<path class="st81" d="M198.7,303.4v-4.6h1.9c0.5,0,0.8,0,1.1,0.1c0.2,0.1,0.4,0.2,0.5,0.4c0.1,0.2,0.2,0.5,0.2,0.7
							c0,0.3-0.1,0.6-0.3,0.8c-0.2,0.2-0.5,0.4-0.9,0.4c0.2,0.1,0.4,0.2,0.5,0.4c0.1,0.1,0.3,0.4,0.5,0.7l0.6,0.9h-1.1l-0.7-1
							c-0.2-0.4-0.4-0.6-0.5-0.7c-0.1-0.1-0.2-0.2-0.3-0.2c-0.1,0-0.3-0.1-0.5-0.1h-0.2v1.9H198.7z M199.7,300.7h0.7
							c0.4,0,0.7,0,0.8-0.1c0.1,0,0.2-0.1,0.3-0.2c0.1-0.1,0.1-0.2,0.1-0.3c0-0.1,0-0.3-0.1-0.4c-0.1-0.1-0.2-0.1-0.3-0.2
							c-0.1,0-0.3,0-0.7,0h-0.7V300.7z"/>
						<path class="st81" d="M203.3,303.4v-4.6h0.9v4.6H203.3z"/>
						<path class="st81" d="M204.9,301.1c0-0.5,0.1-0.9,0.2-1.2c0.1-0.2,0.2-0.4,0.4-0.6c0.2-0.2,0.4-0.3,0.6-0.4
							c0.3-0.1,0.6-0.2,1-0.2c0.7,0,1.2,0.2,1.6,0.6c0.4,0.4,0.6,1,0.6,1.8c0,0.7-0.2,1.3-0.6,1.7c-0.4,0.4-0.9,0.6-1.6,0.6
							c-0.7,0-1.2-0.2-1.6-0.6C205.1,302.4,204.9,301.8,204.9,301.1z M205.9,301.1c0,0.5,0.1,0.9,0.4,1.2c0.2,0.3,0.5,0.4,0.9,0.4
							c0.4,0,0.7-0.1,0.9-0.4c0.2-0.3,0.4-0.7,0.4-1.2c0-0.5-0.1-0.9-0.3-1.2c-0.2-0.3-0.5-0.4-0.9-0.4c-0.4,0-0.7,0.1-0.9,0.4
							C206,300.1,205.9,300.5,205.9,301.1z"/>
						<path class="st81" d="M210.1,303.4v-4.6h2c0.5,0,0.8,0,1.1,0.1c0.2,0.1,0.4,0.2,0.5,0.4c0.1,0.2,0.2,0.5,0.2,0.7
							c0,0.3-0.1,0.6-0.3,0.8c-0.2,0.2-0.5,0.4-0.9,0.4c0.2,0.1,0.4,0.2,0.5,0.4c0.1,0.1,0.3,0.4,0.5,0.7l0.6,0.9h-1.1l-0.7-1
							c-0.2-0.4-0.4-0.6-0.5-0.7c-0.1-0.1-0.2-0.2-0.3-0.2c-0.1,0-0.3-0.1-0.5-0.1H211v1.9H210.1z M211,300.7h0.7
							c0.4,0,0.7,0,0.8-0.1c0.1,0,0.2-0.1,0.3-0.2c0.1-0.1,0.1-0.2,0.1-0.3c0-0.1,0-0.3-0.1-0.4c-0.1-0.1-0.2-0.1-0.3-0.2
							c-0.1,0-0.3,0-0.7,0H211V300.7z"/>
						<path class="st81" d="M214.7,303.4v-4.6h0.9v4.6H214.7z"/>
						<path class="st81" d="M216.5,298.8h1.7c0.4,0,0.7,0,0.9,0.1c0.3,0.1,0.5,0.2,0.7,0.4c0.2,0.2,0.3,0.5,0.4,0.7
							c0.1,0.3,0.1,0.6,0.1,1.1c0,0.4,0,0.7-0.1,1c-0.1,0.3-0.3,0.6-0.5,0.8c-0.2,0.2-0.4,0.3-0.7,0.4c-0.2,0.1-0.5,0.1-0.8,0.1
							h-1.7V298.8z M217.4,299.5v3h0.7c0.3,0,0.4,0,0.6-0.1c0.2,0,0.3-0.1,0.4-0.2c0.1-0.1,0.2-0.2,0.2-0.4c0.1-0.2,0.1-0.5,0.1-0.8
							c0-0.4,0-0.6-0.1-0.8c-0.1-0.2-0.1-0.3-0.3-0.4c-0.1-0.1-0.3-0.2-0.4-0.2c-0.1,0-0.4,0-0.8,0H217.4z"/>
						<path class="st81" d="M225.3,303.4h-1l-0.4-1H222l-0.4,1h-1l1.8-4.6h1L225.3,303.4z M223.6,301.5l-0.6-1.7l-0.6,1.7H223.6z"/>
						<path class="st81" d="M225.7,298.8h1.7c0.4,0,0.7,0,0.9,0.1c0.3,0.1,0.5,0.2,0.7,0.4c0.2,0.2,0.3,0.5,0.4,0.7
							c0.1,0.3,0.1,0.6,0.1,1.1c0,0.4,0,0.7-0.1,1c-0.1,0.3-0.3,0.6-0.5,0.8c-0.2,0.2-0.4,0.3-0.6,0.4c-0.2,0.1-0.5,0.1-0.8,0.1
							h-1.7V298.8z M226.7,299.5v3h0.7c0.3,0,0.4,0,0.6-0.1c0.2,0,0.3-0.1,0.4-0.2c0.1-0.1,0.2-0.2,0.2-0.4c0.1-0.2,0.1-0.5,0.1-0.8
							c0-0.4,0-0.6-0.1-0.8c-0.1-0.2-0.1-0.3-0.3-0.4c-0.1-0.1-0.3-0.2-0.4-0.2c-0.1,0-0.4,0-0.8,0H226.7z"/>
					</g>
				</g>
			</g>
			<path class="st1" d="M218.4,279c-0.8,0-1.6,0.2-2.2,0.7l-1.4-1.6l0.1-0.6l1.2-0.5c0.1-0.1,0.2-0.2,0.2-0.4c0-0.1-0.2-0.3-0.3-0.2
				l-3,0.1c-0.2,0-0.3,0.1-0.3,0.3c0,0.2,0.1,0.3,0.2,0.3l1.3,0.4c0,0.1-0.1,0.3-0.1,0.4l-5.8,0l0.4-1.1c0,0,0-0.1,0-0.1
				c0-0.1,0-0.2-0.1-0.2c-0.1-0.1-0.2-0.3-0.2-0.3v0c0,0,0,0,0.1-0.1c0.1,0,1.5,0,1.5,0c0.2,0,0.3-0.1,0.3-0.3
				c0-0.2-0.1-0.3-0.3-0.3h-1.6c0,0-0.1,0-0.1,0c-0.4,0.1-0.5,0.4-0.5,0.6c0,0,0,0.1,0,0.1c0,0.3,0.1,0.5,0.3,0.6
				c-0.1,0.2-0.4,1.1-0.7,1.9l-0.1,0.3l0,0c-0.1,0.3-0.2,0.5-0.3,0.7c-0.6-0.4-1.3-0.6-2.1-0.6c-2.2,0-4,1.8-4,4c0,2.2,1.8,4,4,4
				c2.2,0,4-1.8,4-4c0-1.2-0.5-2.3-1.4-3l0.2-0.5l4.5,4.5c0,0,0,0,0,0c0,0,0,0,0,0c0,0,0,0,0,0c0,0,0,0,0,0l0.2,0.7
				c-0.2,0-0.3,0.2-0.3,0.3c0,0.2,0.1,0.3,0.3,0.3h0.9c0.2,0,0.3-0.1,0.3-0.3c0-0.2-0.1-0.3-0.3-0.3h-0.2L213,284l1.5-0.2
				c0.4,1.8,2,3.1,3.9,3.1c2.2,0,4-1.8,4-4C222.4,280.8,220.6,279,218.4,279z M208.4,283c0,1.8-1.5,3.3-3.3,3.3
				c-1.9,0-3.4-1.5-3.4-3.3c0-1.8,1.5-3.4,3.4-3.4c0.7,0,1.3,0.2,1.8,0.6c-0.5,1.4-2,2.5-2,2.5c-0.1,0.1-0.1,0.2-0.1,0.3
				c0,0.1,0,0.1,0.1,0.2c0.1,0.1,0.3,0.2,0.4,0.1c0.1,0,1.6-1.2,2.2-2.6C208,281.2,208.4,282.1,208.4,283z M212.6,282.6l-0.1-0.3h0
				c0,0,0.1,0,0.1,0C212.7,282.5,212.6,282.6,212.6,282.6z M212.6,281.8h-0.8c-0.2,0-0.3,0.1-0.3,0.3c0,0.2,0.1,0.3,0.3,0.3h0.1
				l0.1,0.4l-3.9-3.9c0.1-0.2,0.1-0.3,0.2-0.5c0.4,0,4.6,0,5.8,0c-0.2,0.7-0.8,2.2-1.2,3.5C212.8,281.8,212.7,281.8,212.6,281.8z
				 M213,283.4l1.6-4.6c0.2,0.3,0.6,0.8,1.1,1.3c-0.8,0.7-1.3,1.8-1.3,2.9c0,0.1,0,0.1,0,0.2C213.9,283.3,213.3,283.4,213,283.4z
				 M215.1,283c0-1,0.4-1.8,1.1-2.5c0.8,0.9,1.5,1.8,1.8,2.1c-0.4,0.1-1.7,0.3-2.9,0.4C215.1,283.1,215.1,283,215.1,283z
				 M218.4,286.3c-1.6,0-2.9-1.1-3.3-2.6l3.5-0.5c0.1,0,0.2-0.1,0.3-0.2c0-0.1,0-0.2-0.1-0.3l-2.2-2.6c0.5-0.3,1.1-0.5,1.8-0.5
				c1.9,0,3.4,1.5,3.4,3.4C221.8,284.8,220.3,286.3,218.4,286.3z"/>
		</g>
	</g>
</g>
</svg>
