<?xml version="1.0" encoding="utf-8"?>
<!-- Generator: Adobe Illustrator 22.0.1, SVG Export Plug-In . SVG Version: 6.00 Build 0)  -->
<svg version="1.1" id="Capa_1" xmlns="http://www.w3.org/2000/svg" xmlns:xlink="http://www.w3.org/1999/xlink" x="0px" y="0px"
	 viewBox="0 0 436.7 438.7" style="enable-background:new 0 0 436.7 438.7;" xml:space="preserve">
<style type="text/css">
	.st0{fill:url(#SVGID_1_);}
	.st1{fill:none;stroke:#FFFFFF;stroke-width:1.6805;stroke-miterlimit:10;}
	.st2{fill:url(#SVGID_2_);}
	.st3{fill:url(#SVGID_3_);}
	.st4{fill:url(#SVGID_4_);}
	.st5{fill:#FFFFFF;}
	.st6{fill:url(#SVGID_5_);}
	.st7{opacity:0.5;}
	.st8{fill:url(#SVGID_6_);}
	.st9{clip-path:url(#SVGID_8_);}
	.st10{fill:url(#SVGID_9_);}
	.st11{clip-path:url(#SVGID_11_);fill:url(#SVGID_12_);}
	.st12{opacity:0.35;clip-path:url(#SVGID_11_);fill:url(#SVGID_13_);}
	.st13{opacity:0.3;clip-path:url(#SVGID_11_);fill:url(#SVGID_14_);}
	.st14{clip-path:url(#SVGID_11_);fill:url(#SVGID_15_);}
	.st15{clip-path:url(#SVGID_11_);}
	.st16{clip-path:url(#SVGID_17_);fill:#D7D7D6;}
	.st17{opacity:0.5;clip-path:url(#SVGID_17_);fill:url(#SVGID_18_);}
	.st18{clip-path:url(#SVGID_20_);fill:#D7D7D6;}
	.st19{opacity:0.5;clip-path:url(#SVGID_20_);fill:url(#SVGID_21_);}
	.st20{opacity:0.5;clip-path:url(#SVGID_20_);fill:url(#SVGID_22_);}
	.st21{opacity:0.5;clip-path:url(#SVGID_20_);fill:url(#SVGID_23_);}
	.st22{opacity:0.5;clip-path:url(#SVGID_20_);fill:url(#SVGID_24_);}
	.st23{opacity:0.35;fill:url(#SVGID_25_);}
	.st24{opacity:0.35;fill:url(#SVGID_26_);}
	.st25{clip-path:url(#SVGID_28_);fill:url(#SVGID_29_);}
	.st26{opacity:0.5;clip-path:url(#SVGID_28_);fill:url(#SVGID_30_);}
	.st27{fill:#D7D7D6;}
	.st28{clip-path:url(#SVGID_32_);fill:url(#SVGID_33_);}
	.st29{opacity:0.5;clip-path:url(#SVGID_32_);fill:url(#SVGID_34_);}
	.st30{fill:#D0D1D1;}
	.st31{fill:url(#SVGID_35_);}
	.st32{fill:#221F1F;}
	.st33{opacity:0.3;fill:url(#burbuja_2_);}
	.st34{clip-path:url(#SVGID_37_);fill:url(#SVGID_38_);}
	.st35{opacity:0.75;clip-path:url(#SVGID_37_);fill:url(#SVGID_39_);}
	.st36{fill:url(#SVGID_40_);}
	.st37{clip-path:url(#SVGID_42_);fill:url(#SVGID_43_);}
	.st38{opacity:0.3;clip-path:url(#SVGID_42_);fill:url(#SVGID_44_);}
	.st39{clip-path:url(#SVGID_46_);fill:url(#SVGID_47_);}
	.st40{clip-path:url(#SVGID_46_);fill:url(#SVGID_48_);}
	.st41{opacity:0.75;clip-path:url(#SVGID_46_);fill:url(#SVGID_49_);}
	.st42{opacity:0.75;clip-path:url(#SVGID_46_);fill:url(#SVGID_50_);}
	.st43{clip-path:url(#SVGID_46_);fill:url(#SVGID_51_);}
	.st44{opacity:0.3;clip-path:url(#SVGID_46_);fill:url(#SVGID_52_);}
	.st45{fill:url(#SVGID_53_);}
	.st46{clip-path:url(#SVGID_55_);fill:url(#SVGID_56_);}
	.st47{clip-path:url(#SVGID_55_);fill:url(#SVGID_57_);}
	.st48{opacity:0.3;clip-path:url(#SVGID_55_);fill:url(#SVGID_58_);}
	.st49{clip-path:url(#SVGID_60_);fill:#6D6F70;}
	.st50{clip-path:url(#SVGID_60_);fill:url(#SVGID_61_);}
	.st51{opacity:0.3;clip-path:url(#SVGID_60_);fill:url(#SVGID_62_);}
	.st52{opacity:0.3;clip-path:url(#SVGID_60_);fill:url(#SVGID_63_);}
	.st53{clip-path:url(#SVGID_66_);}
	.st54{fill:url(#SVGID_67_);}
	.st55{opacity:0.75;clip-path:url(#SVGID_66_);fill:url(#SVGID_68_);}
	.st56{clip-path:url(#SVGID_71_);fill:url(#SVGID_72_);}
	.st57{opacity:0.75;clip-path:url(#SVGID_71_);fill:url(#SVGID_73_);}
	.st58{clip-path:url(#SVGID_76_);fill:url(#SVGID_77_);}
	.st59{opacity:0.75;clip-path:url(#SVGID_76_);fill:url(#SVGID_78_);}
	.st60{clip-path:url(#SVGID_80_);fill:url(#SVGID_81_);}
	.st61{opacity:0.75;clip-path:url(#SVGID_80_);fill:url(#SVGID_82_);}
	.st62{clip-path:url(#SVGID_85_);fill:url(#SVGID_86_);}
	.st63{clip-path:url(#SVGID_85_);fill:url(#SVGID_87_);}
	.st64{clip-path:url(#SVGID_89_);fill:url(#SVGID_90_);}
	.st65{opacity:0.75;clip-path:url(#SVGID_89_);fill:url(#SVGID_91_);}
	.st66{clip-path:url(#SVGID_93_);fill:#E13044;}
	.st67{clip-path:url(#SVGID_93_);fill:#E3E3E1;}
	.st68{opacity:0.4;clip-path:url(#SVGID_93_);fill:url(#SVGID_94_);}
	.st69{clip-path:url(#SVGID_96_);fill:#E13044;}
	.st70{opacity:0.4;clip-path:url(#SVGID_96_);fill:url(#SVGID_97_);}
	.st71{clip-path:url(#SVGID_100_);fill:url(#SVGID_101_);}
	.st72{opacity:0.75;clip-path:url(#SVGID_100_);fill:url(#SVGID_102_);}
	.st73{clip-path:url(#SVGID_104_);fill:url(#SVGID_105_);}
	.st74{clip-path:url(#SVGID_104_);}
	.st75{fill:url(#SVGID_106_);}
	.st76{opacity:0.4;clip-path:url(#SVGID_104_);fill:url(#SVGID_107_);}
	.st77{fill:url(#SVGID_108_);}
	.st78{fill:url(#SVGID_109_);}
	.st79{clip-path:url(#SVGID_111_);fill:url(#SVGID_112_);}
	.st80{opacity:0.5;clip-path:url(#SVGID_111_);fill:url(#SVGID_113_);}
	.st81{opacity:0.5;fill:#FFFFFF;}
</style>
<g>
	<linearGradient id="SVGID_1_" gradientUnits="userSpaceOnUse" x1="218.33" y1="438.7192" x2="218.33" y2="0">
		<stop  offset="0" style="stop-color:#3A99C7"/>
		<stop  offset="1" style="stop-color:#71CDF4"/>
	</linearGradient>
	<rect x="0" class="st0" width="436.7" height="438.7"/>
	<path class="st1" d="M357.6,231.7"/>
	<g>
		<g>
			<linearGradient id="SVGID_2_" gradientUnits="userSpaceOnUse" x1="218.3291" y1="326.5216" x2="218.3291" y2="103.7701">
				<stop  offset="0" style="stop-color:#507E3A"/>
				<stop  offset="1" style="stop-color:#8BC45B"/>
			</linearGradient>
			<path class="st2" d="M57.8,187.1c-22.4,0-41.5,5.4-57.8,14.1l0,125.3h436.7V136.1c0,0-174.1-85-298,20.6
				C120.8,171.9,89.3,187.1,57.8,187.1z"/>
		</g>
		<g>
			<linearGradient id="SVGID_3_" gradientUnits="userSpaceOnUse" x1="218.3291" y1="438.7366" x2="218.3291" y2="322.6136">
				<stop  offset="0" style="stop-color:#3E444E"/>
				<stop  offset="1" style="stop-color:#1A2226"/>
			</linearGradient>
			<rect x="0" y="322.6" class="st3" width="436.7" height="116.1"/>
		</g>
		<linearGradient id="SVGID_4_" gradientUnits="userSpaceOnUse" x1="5.689121e-04" y1="320.0502" x2="436.6577" y2="320.0502">
			<stop  offset="0" style="stop-color:#E4E4E3"/>
			<stop  offset="1" style="stop-color:#D7D7D6"/>
		</linearGradient>
		<rect x="0" y="317.5" class="st4" width="436.7" height="5.1"/>
		<g>
			<polygon class="st5" points="6.6,438.7 0,428.1 0,423 9.8,438.7 			"/>
			<polygon class="st5" points="436.7,415.8 0,415.8 0,418.5 15,418.5 27.6,438.7 30.8,438.7 18.2,418.5 36.4,418.5 49,438.7 
				52.2,438.7 39.6,418.5 57.8,418.5 70.4,438.7 73.6,438.7 61,418.5 79.2,418.5 91.8,438.7 95,438.7 82.4,418.5 100.4,418.5 
				113,438.7 116.2,438.7 103.6,418.5 121.8,418.5 134.4,438.7 137.6,438.7 125,418.5 143.2,418.5 155.8,438.7 159,438.7 
				146.4,418.5 164.6,418.5 177.2,438.7 180.4,438.7 167.8,418.5 186,418.5 198.6,438.7 201.8,438.7 189.2,418.5 207.4,418.5 
				220,438.7 223.2,438.7 210.6,418.5 228.7,418.5 241.3,438.7 244.5,438.7 231.9,418.5 250.1,418.5 262.7,438.7 265.9,438.7 
				253.3,418.5 271.5,418.5 284.1,438.7 287.3,438.7 274.7,418.5 292.9,418.5 305.5,438.7 308.7,438.7 296.1,418.5 314.5,418.5 
				327.1,438.7 330.2,438.7 317.6,418.5 335.9,418.5 348.5,438.7 351.6,438.7 339,418.5 357.3,418.5 369.9,438.7 373,438.7 
				360.4,418.5 379.2,418.5 391.8,438.7 395,438.7 382.4,418.5 400.2,418.5 412.8,438.7 416,438.7 403.4,418.5 421.6,418.5 
				434.2,438.7 436.7,438.7 436.7,437.5 424.8,418.5 436.7,418.5 			"/>
		</g>
		<g>
			<g>
				<path class="st5" d="M181.2,338.9l7.8,0l0,2.5c0,1,0,1.6-0.1,1.9c-0.1,0.5-0.4,0.8-0.8,1.1c-0.4,0.3-0.9,0.4-1.5,0.4
					c-0.5,0-0.9-0.1-1.2-0.3c-0.3-0.2-0.6-0.4-0.8-0.7c-0.2-0.3-0.3-0.5-0.4-0.8c-0.1-0.4-0.1-0.9-0.1-1.6v-1l-2.9,0L181.2,338.9z
					 M187.7,340.5h-2.2v0.9c0,0.6,0,1,0.1,1.3c0.1,0.2,0.2,0.4,0.4,0.5c0.2,0.1,0.4,0.2,0.6,0.2c0.3,0,0.5-0.1,0.7-0.2
					c0.2-0.2,0.3-0.4,0.4-0.6c0-0.2,0.1-0.6,0.1-1.1V340.5z"/>
				<path class="st5" d="M181.2,346.2l7.8,0l0,3.3c0,0.8-0.1,1.4-0.2,1.8c-0.1,0.4-0.4,0.7-0.7,0.9c-0.4,0.2-0.8,0.3-1.2,0.3
					c-0.6,0-1.1-0.2-1.4-0.5c-0.4-0.4-0.6-0.9-0.7-1.6c-0.2,0.3-0.4,0.6-0.7,0.8c-0.2,0.2-0.7,0.5-1.3,0.9l-1.5,1l0-1.9l1.7-1.1
					c0.6-0.4,1-0.7,1.1-0.8c0.2-0.1,0.3-0.3,0.3-0.5c0.1-0.2,0.1-0.4,0.1-0.8v-0.3l-3.2,0L181.2,346.2z M185.7,347.8v1.2
					c0,0.8,0,1.2,0.1,1.4c0.1,0.2,0.2,0.3,0.3,0.4c0.1,0.1,0.4,0.2,0.6,0.2c0.3,0,0.5-0.1,0.6-0.2c0.2-0.1,0.3-0.3,0.3-0.6
					c0-0.1,0-0.5,0-1.2v-1.2H185.7z"/>
				<path class="st5" d="M181.2,354l7.8,0v1.6l-7.8,0V354z"/>
				<path class="st5" d="M185,356.8c0.8,0,1.5,0.1,2,0.4c0.4,0.2,0.8,0.4,1.1,0.7c0.3,0.3,0.5,0.7,0.7,1c0.2,0.5,0.3,1.1,0.3,1.7
					c0,1.1-0.4,2.1-1.1,2.8c-0.7,0.7-1.7,1-3,1c-1.3,0-2.2-0.3-3-1c-0.7-0.7-1.1-1.6-1-2.7c0-1.2,0.4-2.1,1-2.8
					C182.8,357.1,183.8,356.8,185,356.8z M185.1,358.4c-0.9,0-1.6,0.2-2,0.6c-0.5,0.4-0.7,0.9-0.7,1.6c0,0.6,0.2,1.1,0.7,1.5
					c0.4,0.4,1.1,0.6,2,0.6c0.9,0,1.6-0.2,2-0.6c0.4-0.4,0.7-0.9,0.7-1.6c0-0.7-0.2-1.2-0.7-1.6C186.6,358.6,186,358.4,185.1,358.4z
					"/>
				<path class="st5" d="M181.2,365.6l7.8,0l0,3.3c0,0.8-0.1,1.4-0.2,1.8c-0.1,0.4-0.4,0.7-0.8,0.9c-0.3,0.2-0.8,0.3-1.2,0.3
					c-0.6,0-1.1-0.2-1.4-0.5c-0.4-0.3-0.6-0.9-0.7-1.5c-0.2,0.3-0.4,0.6-0.6,0.9c-0.2,0.2-0.7,0.5-1.3,0.9l-1.5,1l0-1.9l1.7-1.1
					c0.6-0.4,1-0.7,1.1-0.8c0.2-0.2,0.3-0.3,0.3-0.5c0.1-0.2,0.1-0.4,0.1-0.8v-0.3l-3.2,0L181.2,365.6z M185.6,367.2v1.2
					c0,0.8,0,1.2,0.1,1.4c0.1,0.2,0.2,0.3,0.3,0.4c0.2,0.1,0.3,0.2,0.6,0.2c0.3,0,0.5-0.1,0.6-0.2c0.2-0.1,0.3-0.3,0.3-0.6
					c0-0.1,0-0.5,0-1.1v-1.2H185.6z"/>
				<path class="st5" d="M181.1,373.4l7.8,0l0,1.6l-7.8,0L181.1,373.4z"/>
				<path class="st5" d="M188.9,376.5l0,2.9c0,0.7-0.1,1.1-0.1,1.5c-0.1,0.5-0.4,0.9-0.7,1.2c-0.4,0.3-0.8,0.6-1.3,0.7
					c-0.5,0.2-1.1,0.3-1.8,0.2c-0.6,0-1.2-0.1-1.7-0.2c-0.6-0.2-1-0.5-1.4-0.8c-0.3-0.3-0.5-0.6-0.6-1.1c-0.1-0.3-0.2-0.8-0.2-1.4
					l0-3L188.9,376.5z M187.6,378.1l-5.2,0v1.2c0,0.4,0,0.8,0.1,1c0.1,0.3,0.2,0.5,0.3,0.6c0.2,0.2,0.4,0.3,0.7,0.4
					c0.3,0.1,0.8,0.2,1.4,0.2c0.6,0,1.1-0.1,1.4-0.2c0.3-0.1,0.6-0.3,0.7-0.4c0.2-0.2,0.3-0.4,0.4-0.7c0-0.2,0.1-0.7,0.1-1.3V378.1z
					"/>
				<path class="st5" d="M181.1,391.5l0-1.7l1.8-0.7l0-3.1l-1.8-0.7v-1.7l7.8,3.1v1.7L181.1,391.5z M184.2,388.6l2.9-1.1l-2.9-1.1
					V388.6z"/>
				<path class="st5" d="M188.9,392.3l0,2.9c0,0.6-0.1,1.1-0.1,1.5c-0.1,0.5-0.4,0.9-0.7,1.2c-0.3,0.3-0.8,0.6-1.3,0.7
					c-0.5,0.2-1.1,0.3-1.8,0.3c-0.6,0-1.2-0.1-1.7-0.2c-0.6-0.2-1-0.5-1.4-0.8c-0.3-0.3-0.5-0.6-0.6-1.1c-0.1-0.3-0.2-0.8-0.2-1.4
					l0-3L188.9,392.3z M187.6,393.9l-5.2,0l0,1.2c0,0.4,0,0.8,0.1,1c0.1,0.3,0.2,0.5,0.3,0.6c0.1,0.2,0.4,0.3,0.7,0.4
					c0.3,0.1,0.8,0.2,1.4,0.2c0.6,0,1.1-0.1,1.4-0.2c0.3-0.1,0.6-0.3,0.7-0.4c0.2-0.2,0.3-0.4,0.4-0.7c0-0.2,0.1-0.7,0.1-1.3V393.9z
					"/>
			</g>
			<g>
				<g>
					
						<linearGradient id="SVGID_5_" gradientUnits="userSpaceOnUse" x1="-10475.2861" y1="-240.1291" x2="-10419.3477" y2="-240.1291" gradientTransform="matrix(-1 0 0 -1 -10221.5283 128.4808)">
						<stop  offset="0" style="stop-color:#3BB24A"/>
						<stop  offset="1" style="stop-color:#3A834A"/>
					</linearGradient>
					<polygon class="st6" points="197.8,396.3 253.8,368.3 197.9,341 					"/>
					<path class="st5" d="M196.1,398.8l0.1-60.2l60.4,29.9L196.1,398.8z M199.6,343.3l-0.1,50.4l50.8-25.3L199.6,343.3z"/>
				</g>
				<g>
					<path class="st5" d="M214,365.8L214,365.8l0.7,0l0.7-0.1l0.6-0.2l0.5-0.2l-0.6-0.1l-0.6-0.1l-0.5-0.2l-0.4-0.2l-0.4-0.3
						l-0.3-0.3l0,0l0,0l0,0v0l0,0l0,0l0,0l0.1,0l0.1,0l0.1,0l0.1,0l0.1,0l0.1,0l0.1,0l0.1,0l0.1,0l0.3,0.2l0.4,0.2l0.5,0.2l0.5,0.1
						l0.5,0.1l0.6,0l0.2-0.3l0.1-0.3l0-0.4l-0.1-0.3l-0.2-0.3l-0.3-0.3l-0.4-0.3l-0.5-0.2l-0.6-0.2l-0.6-0.1l-0.7,0l-0.7,0l-0.7,0.1
						l-0.6,0.2l-0.5,0.2l-0.4,0.3l-0.3,0.3l-0.2,0.4l-0.1,0.4l0.1,0.4l0.2,0.4l0.3,0.3l0.4,0.3l0.5,0.2l0.6,0.2l0.7,0.1L214,365.8z
						 M214.1,370.2L214.1,370.2l0.2,0l0.2,0l0.2-0.1l0.2-0.1l0.2-0.1l0.1-0.1l0.1-0.1l0.1-0.1l0-0.1l0-0.1l-0.1-0.1l-0.1-0.1
						l-0.1-0.1l-0.2-0.1l-0.2-0.1l-0.2-0.1l-0.2,0l-0.2,0l-0.3,0l-0.3,0l-0.2,0.1l-0.2,0.1L213,369l-0.1,0.1l-0.1,0.1l0,0.1l0,0.1
						l0.1,0.1l0.1,0.1l0.1,0.1l0.2,0.1l0.2,0.1l0.2,0.1l0.2,0L214.1,370.2z M215.9,369.6L215.9,369.6l4.5,1v-4.8l-1.1-0.2l-3.8,3.2
						l0.1,0.1l0.1,0.1l1.1-0.2v-0.2h0.2v0.5h-0.2v-0.2l-0.9,0.3l0.1,0.2l0,0.2L215.9,369.6z M217.9,372L217.9,372l2.4-0.7v-0.2
						l-4.7-1l-0.2,0.1l-0.2,0.1l-0.3,0.1l-0.3,0.1v0.4l0.7,0.1l0.6,0.1l0.6,0.2l0.5,0.2l0.5,0.3L217.9,372z M214.6,372.9
						L214.6,372.9l2.2-0.7l-0.5-0.3l-0.5-0.2l-0.6-0.2l-0.6-0.1V372.9z M214,375.2L214,375.2l0.7,0l0.7-0.1l0.6-0.2l0.5-0.2l0.4-0.3
						l0.3-0.3l0.2-0.4l0.1-0.4l-0.1-0.4l-0.2-0.4l-2.9,1l-0.1,0l-0.1,0l-0.1,0l-0.1,0l-0.1,0l-0.1,0l-0.1,0l-0.1,0l0,0l0,0l0-0.1v-2
						l-0.6,0.1l-0.6,0.1l-0.6,0.2l-0.5,0.2l-0.4,0.3l-0.3,0.3l-0.2,0.3l-0.1,0.4l0.1,0.4l0.2,0.4l0.3,0.3l0.4,0.3l0.5,0.2l0.6,0.2
						l0.7,0.1L214,375.2z M214.8,375.8l-0.8,0l-0.9,0l-0.9-0.1l-0.8-0.2l-0.7-0.3l-0.6-0.4l-0.4-0.4l-0.3-0.5l-0.1-0.5l0.1-0.5
						l0.2-0.5l0.4-0.4l0.5-0.4l0.7-0.3l0.7-0.2l0.8-0.2l0.9-0.1v-0.4l-0.3-0.1l-0.3-0.1l-0.3-0.1l-0.2-0.1l-1.1,0.2v0.3h-0.2v-0.7
						h0.2v0.2l0.9-0.2l-0.1-0.2l0-0.2l0-0.2l0.1-0.2l0.1-0.2l0.2-0.1l0.2-0.1l0.2-0.1l0.3-0.1l0.3-0.1l0.3,0l0.3,0l0.3,0l0.3,0.1
						l3.9-3l-0.9-0.1l-0.6,0.4l-0.7,0.3l-0.8,0.2l-0.8,0.1l-0.9,0l-0.9,0l-0.9-0.1l-0.8-0.2l-0.7-0.3l-0.6-0.4l-0.4-0.4l-0.3-0.5
						l-0.1-0.5l0.1-0.4l0.2-0.4l0.3-0.4l0.5-0.4l0.6-0.3l0.7-0.3l0.7-0.2l0.8-0.1l0.8,0l0.8,0l0.8,0.1l0.8,0.2l0.7,0.3l0.6,0.3
						l0.5,0.4l0.3,0.4l0.2,0.4l0,0.5l-0.1,0.4l-0.3,0.4l4.3,0.6l0-0.1l0.1-0.1l0.1-0.1l0.2-0.1l0.2-0.1l0.2,0l0.2,0l0.2,0l0.2,0
						l0.2,0l0.2,0.1l0.2,0.1l0.1,0.1l0.1,0.1l0.1,0.1l0,0.1v1.2h-1.1v-1.1l-0.2,0.1l-0.3,0.1l-0.3,0.1l-0.4,0l-0.4,0l-0.4,0
						l-0.4-0.1v4.9l1.6,0.3v-1l0,0l0,0l0,0l0,0l0.1,0l0.1,0l0.1,0l0.1,0h0.1l0.1,0l0.1,0l0.1,0l0.1,0l0,0l0,0l0,0l0,0v2l0,0l0,0
						l-0.1,0l-0.1,0l-0.1,0l-0.1,0l-0.1,0l-0.1,0l-0.1,0l-0.1,0l-0.1,0l-0.1,0l0,0l0,0l0-0.1l0-0.1l0-0.1l-0.1-0.1l-0.1-0.1
						l-0.1-0.1l-0.1-0.1l-0.2,0l-1.1-0.2l-3.1,1l0.3,0.4l0.1,0.4l0,0.5l-0.2,0.4l-0.3,0.4l-0.5,0.4l-0.6,0.3l-0.7,0.3l-0.8,0.2
						L214.8,375.8z"/>
				</g>
			</g>
		</g>
		<g class="st7">
			
				<linearGradient id="SVGID_6_" gradientUnits="userSpaceOnUse" x1="2073.9438" y1="331.2658" x2="2197.4043" y2="331.2658" gradientTransform="matrix(-1 0 0 1 2382.009 0)">
				<stop  offset="0" style="stop-color:#414242"/>
				<stop  offset="0.9955" style="stop-color:#737374;stop-opacity:0"/>
			</linearGradient>
			<polygon class="st8" points="184.6,351 292.9,351 308.1,335.9 307.2,311.5 184.6,311.5 			"/>
		</g>
		<g id="camion_5_">
			<defs>
				<rect id="SVGID_7_" x="0" y="223.1" width="117.8" height="134.3"/>
			</defs>
			<clipPath id="SVGID_8_">
				<use xlink:href="#SVGID_7_"  style="overflow:visible;"/>
			</clipPath>
			<g class="st9">
				<g class="st7">
					
						<linearGradient id="SVGID_9_" gradientUnits="userSpaceOnUse" x1="2331.7573" y1="330.4449" x2="2534.1123" y2="330.4449" gradientTransform="matrix(-1 0 0 1 2382.009 0)">
						<stop  offset="0" style="stop-color:#414242"/>
						<stop  offset="0.9955" style="stop-color:#737374;stop-opacity:0"/>
					</linearGradient>
					<rect x="-152.1" y="306" class="st10" width="202.4" height="48.8"/>
				</g>
				<g>
					<g>
						<defs>
							<path id="SVGID_10_" d="M-120.6,330.4H98.9c7.2,0,13.1-5.9,13.1-13.2v-11.9l-29.6-68.5c-3.6-8.2-11.7-13.6-20.6-13.6H-132
								V319C-132,325.3-126.9,330.4-120.6,330.4z"/>
						</defs>
						<clipPath id="SVGID_11_">
							<use xlink:href="#SVGID_10_"  style="overflow:visible;"/>
						</clipPath>
						
							<linearGradient id="SVGID_12_" gradientUnits="userSpaceOnUse" x1="2270.0303" y1="277.3098" x2="2535.5059" y2="277.3098" gradientTransform="matrix(-1 0 0 1 2382.009 0)">
							<stop  offset="0" style="stop-color:#784A9C"/>
							<stop  offset="1" style="stop-color:#5D2E8D"/>
						</linearGradient>
						<polygon class="st11" points="112,223.7 -153.5,223.7 -153.5,330.9 112,330.9 						"/>
						
							<linearGradient id="SVGID_13_" gradientUnits="userSpaceOnUse" x1="2270.0303" y1="309.0214" x2="2515.7117" y2="309.0214" gradientTransform="matrix(-1 0 0 1 2382.009 0)">
							<stop  offset="0" style="stop-color:#414242;stop-opacity:0"/>
							<stop  offset="1" style="stop-color:#737374"/>
						</linearGradient>
						<polygon class="st12" points="-133.7,318.3 112,318.3 112,299.8 -133.7,299.8 						"/>
						
							<linearGradient id="SVGID_14_" gradientUnits="userSpaceOnUse" x1="2229.7854" y1="289.5577" x2="2410.6592" y2="289.5577" gradientTransform="matrix(-1 0 0 1 2382.009 0)">
							<stop  offset="0" style="stop-color:#414242;stop-opacity:0"/>
							<stop  offset="1" style="stop-color:#737374"/>
						</linearGradient>
						<path class="st13" d="M-28.7,335c0-50.2,40.5-90.9,90.4-90.9s90.4,40.7,90.4,90.9H-28.7z"/>
						
							<linearGradient id="SVGID_15_" gradientUnits="userSpaceOnUse" x1="2270.0303" y1="312.6024" x2="2282.1101" y2="312.6024" gradientTransform="matrix(-1 0 0 1 2382.009 0)">
							<stop  offset="0" style="stop-color:#FAB220"/>
							<stop  offset="1" style="stop-color:#FFC65C"/>
						</linearGradient>
						<path class="st14" d="M107.8,319.9h4.2v-14.6H99.9v6.7C99.9,316.4,103.4,319.9,107.8,319.9z"/>
						<g class="st15">
							<defs>
								<path id="SVGID_16_" d="M109.6,288.7L109.6,288.7l-23.9-56.9H70.4l18,42.8C92,283.1,100.3,288.7,109.6,288.7z"/>
							</defs>
							<clipPath id="SVGID_17_">
								<use xlink:href="#SVGID_16_"  style="overflow:visible;"/>
							</clipPath>
							<polygon class="st16" points="85.7,231.8 67,231.8 95.1,308.5 113.8,308.5 							"/>
							
								<linearGradient id="SVGID_18_" gradientUnits="userSpaceOnUse" x1="2281.2188" y1="258.4546" x2="2313.1221" y2="258.4546" gradientTransform="matrix(-1 0 0 1 2382.009 0)">
								<stop  offset="0" style="stop-color:#D7D7D6"/>
								<stop  offset="1" style="stop-color:#D7D7D6;stop-opacity:0"/>
							</linearGradient>
							<path class="st17" d="M100.8,258.5c0,17.7-14.3,32.1-31.9,32.1v-64.1C86.5,226.4,100.8,240.8,100.8,258.5z"/>
						</g>
						<g class="st15">
							<defs>
								<path id="SVGID_19_" d="M35.6,240.1c0-2.5,2-4.6,4.6-4.6h16.2c1.9,0,3.5,1.1,4.2,2.9l15.8,39.2H35.6V240.1z M22.7,277.6v-37
									c0-2.8-2.3-5.1-5.1-5.1h-29.1c-2.8,0-5.1,2.3-5.1,5.1v37H22.7z M-29.6,277.6v-37c0-2.8-2.3-5.1-5.1-5.1h-29.1
									c-2.8,0-5.1,2.3-5.1,5.1v37H-29.6z M-82.1,277.6v-37c0-2.8-2.3-5.1-5.1-5.1h-29.1c-2.8,0-5.1,2.3-5.1,5.1v37H-82.1z"/>
							</defs>
							<clipPath id="SVGID_20_">
								<use xlink:href="#SVGID_19_"  style="overflow:visible;"/>
							</clipPath>
							<polygon class="st18" points="-122.7,280.3 80.7,280.3 60.7,232.7 -122.7,232.7 							"/>
							
								<linearGradient id="SVGID_21_" gradientUnits="userSpaceOnUse" x1="2323.6667" y1="246.9056" x2="2348.0566" y2="246.9056" gradientTransform="matrix(-1 0 0 1 2382.009 0)">
								<stop  offset="0" style="stop-color:#D7D7D6"/>
								<stop  offset="1" style="stop-color:#D7D7D6;stop-opacity:0"/>
							</linearGradient>
							<path class="st19" d="M58.3,246.9c0,10.3-10.9,18.7-24.4,18.7v-37.4C47.4,228.2,58.3,236.6,58.3,246.9z"/>
							
								<linearGradient id="SVGID_22_" gradientUnits="userSpaceOnUse" x1="2375.1187" y1="246.9056" x2="2399.5083" y2="246.9056" gradientTransform="matrix(-1 0 0 1 2382.009 0)">
								<stop  offset="0" style="stop-color:#D7D7D6"/>
								<stop  offset="1" style="stop-color:#D7D7D6;stop-opacity:0"/>
							</linearGradient>
							<path class="st20" d="M6.9,246.9c0,10.3-10.9,18.7-24.4,18.7v-37.4C-4,228.2,6.9,236.6,6.9,246.9z"/>
							
								<linearGradient id="SVGID_23_" gradientUnits="userSpaceOnUse" x1="2429.3164" y1="246.9056" x2="2452.5662" y2="246.9056" gradientTransform="matrix(-1 0 0 1 2382.009 0)">
								<stop  offset="0" style="stop-color:#D7D7D6"/>
								<stop  offset="1" style="stop-color:#D7D7D6;stop-opacity:0"/>
							</linearGradient>
							<path class="st21" d="M-47.3,246.9c0,10.3-10.4,18.7-23.2,18.7v-37.4C-57.7,228.2-47.3,236.6-47.3,246.9z"/>
							
								<linearGradient id="SVGID_24_" gradientUnits="userSpaceOnUse" x1="2482.5762" y1="246.9056" x2="2505.8259" y2="246.9056" gradientTransform="matrix(-1 0 0 1 2382.009 0)">
								<stop  offset="0" style="stop-color:#D7D7D6"/>
								<stop  offset="1" style="stop-color:#D7D7D6;stop-opacity:0"/>
							</linearGradient>
							<path class="st22" d="M-100.6,246.9c0,10.3-10.4,18.7-23.2,18.7v-37.4C-111,228.2-100.6,236.6-100.6,246.9z"/>
						</g>
					</g>
					
						<linearGradient id="SVGID_25_" gradientUnits="userSpaceOnUse" x1="2298.7581" y1="314.3249" x2="2364.7566" y2="314.3249" gradientTransform="matrix(-1 0 0 1 2382.009 0)">
						<stop  offset="0" style="stop-color:#414242;stop-opacity:0"/>
						<stop  offset="1" style="stop-color:#737374"/>
					</linearGradient>
					<path class="st23" d="M17.3,330.9h66c0-18.3-14.8-33.2-33-33.2S17.3,312.6,17.3,330.9z"/>
					
						<linearGradient id="SVGID_26_" gradientUnits="userSpaceOnUse" x1="2420.4321" y1="314.3249" x2="2486.4307" y2="314.3249" gradientTransform="matrix(-1 0 0 1 2382.009 0)">
						<stop  offset="0" style="stop-color:#414242;stop-opacity:0"/>
						<stop  offset="1" style="stop-color:#737374"/>
					</linearGradient>
					<path class="st24" d="M-104.4,330.9h66c0-18.3-14.8-33.2-33-33.2S-104.4,312.6-104.4,330.9z"/>
					<g>
						<g>
							<defs>
								<path id="SVGID_27_" d="M30.3,315.6c-14.8,24.3,10.5,49.7,34.6,34.8c2.1-1.3,3.9-3.1,5.2-5.2c14.8-24.3-10.5-49.7-34.6-34.8
									C33.4,311.7,31.6,313.5,30.3,315.6z"/>
							</defs>
							<clipPath id="SVGID_28_">
								<use xlink:href="#SVGID_27_"  style="overflow:visible;"/>
							</clipPath>
							
								<linearGradient id="SVGID_29_" gradientUnits="userSpaceOnUse" x1="2307.4526" y1="330.4449" x2="2356.062" y2="330.4449" gradientTransform="matrix(-1 0 0 1 2382.009 0)">
								<stop  offset="0" style="stop-color:#151B26"/>
								<stop  offset="1" style="stop-color:#333E57"/>
							</linearGradient>
							<polygon class="st25" points="25.9,354.9 74.6,354.9 74.6,306 25.9,306 							"/>
							
								<linearGradient id="SVGID_30_" gradientUnits="userSpaceOnUse" x1="2294.1235" y1="340.6485" x2="2349.0798" y2="340.6485" gradientTransform="matrix(-1 0 0 1 2382.009 0)">
								<stop  offset="0" style="stop-color:#414242;stop-opacity:0"/>
								<stop  offset="1" style="stop-color:#737374"/>
							</linearGradient>
							<path class="st26" d="M37.9,357.4C21.2,330,49.8,301.2,77.1,318c2.4,1.5,4.4,3.5,5.8,5.9c16.7,27.4-11.9,56.2-39.2,39.4
								C41.4,361.8,39.4,359.8,37.9,357.4z"/>
						</g>
						<path class="st27" d="M37.8,320.9c-9.6,15.4,6.6,31.7,21.9,22c1.2-0.8,2.2-1.8,3-3c9.6-15.4-6.6-31.7-21.9-22
							C39.6,318.7,38.6,319.7,37.8,320.9z"/>
					</g>
					<g>
						<g>
							<defs>
								<path id="SVGID_31_" d="M-91.3,315.6c-14.8,24.3,10.5,49.7,34.6,34.8c2.1-1.3,3.9-3.1,5.2-5.2
									c14.8-24.3-10.5-49.7-34.6-34.8C-88.3,311.7-90,313.5-91.3,315.6z"/>
							</defs>
							<clipPath id="SVGID_32_">
								<use xlink:href="#SVGID_31_"  style="overflow:visible;"/>
							</clipPath>
							
								<linearGradient id="SVGID_33_" gradientUnits="userSpaceOnUse" x1="2429.1267" y1="330.4449" x2="2477.7361" y2="330.4449" gradientTransform="matrix(-1 0 0 1 2382.009 0)">
								<stop  offset="0" style="stop-color:#151B26"/>
								<stop  offset="1" style="stop-color:#333E57"/>
							</linearGradient>
							<polygon class="st28" points="-95.7,354.9 -47.1,354.9 -47.1,306 -95.7,306 							"/>
							
								<linearGradient id="SVGID_34_" gradientUnits="userSpaceOnUse" x1="2415.7976" y1="340.6485" x2="2470.7542" y2="340.6485" gradientTransform="matrix(-1 0 0 1 2382.009 0)">
								<stop  offset="0" style="stop-color:#414242;stop-opacity:0"/>
								<stop  offset="1" style="stop-color:#737374"/>
							</linearGradient>
							<path class="st29" d="M-83.8,357.4c-16.7-27.4,11.9-56.2,39.2-39.4c2.4,1.5,4.4,3.5,5.8,5.9c16.7,27.4-11.9,56.2-39.2,39.4
								C-80.3,361.8-82.3,359.8-83.8,357.4z"/>
						</g>
						<path class="st27" d="M-83.9,320.9c-9.6,15.4,6.6,31.7,21.9,22c1.2-0.8,2.2-1.8,3-3c9.6-15.4-6.6-31.7-21.9-22
							C-82.1,318.7-83.1,319.7-83.9,320.9z"/>
					</g>
				</g>
			</g>
		</g>
		<g id="prioridad_1_">
			<g>
				<rect x="177" y="247.8" class="st30" width="2" height="70.2"/>
				<g>
					<linearGradient id="SVGID_35_" gradientUnits="userSpaceOnUse" x1="160.5732" y1="234.3143" x2="195.554" y2="234.3143">
						<stop  offset="0" style="stop-color:#3CB34A"/>
						<stop  offset="1" style="stop-color:#3A834A"/>
					</linearGradient>
					<path class="st31" d="M194.3,247.8c0.8,0,1.2-0.5,1.2-1.1c0-0.5-0.4-1-0.6-1.3c-0.2-0.3-15.6-23.7-15.6-23.7s-0.6-1-1.5-1
						c-0.7,0-1.4,1-1.4,1s-15.1,23.2-15.2,23.4c-0.1,0.2-0.8,1-0.8,1.5c0,0.6,0.5,1.1,1.3,1.1C162.1,247.8,194.3,247.8,194.3,247.8z
						"/>
					<path class="st5" d="M161.9,248.3c-1.1,0-1.7-0.8-1.7-1.6c0-0.5,0.4-1.1,0.7-1.6l0.1-0.1c0.1-0.2,14.6-22.4,15.2-23.4
						c0.1-0.1,0.8-1.2,1.7-1.2c1.2,0,1.9,1.2,1.9,1.2c0.1,0.2,15.4,23.3,15.6,23.6c0.2,0.3,0.6,0.9,0.6,1.5c0,0.9-0.7,1.6-1.7,1.6
						C194.3,248.3,162.1,248.3,161.9,248.3z M177.9,221.2c-0.4,0-0.8,0.6-1,0.8c-0.2,0.2-15,23.1-15.2,23.4c0,0-0.1,0.1-0.1,0.2
						c-0.2,0.2-0.6,0.8-0.6,1.1c0,0.3,0.3,0.7,0.8,0.7c0.2,0,32.5,0,32.5,0c0.5,0,0.8-0.3,0.8-0.7c0-0.3-0.3-0.8-0.5-1
						c-0.2-0.3-15-22.7-15.6-23.7C179,222,178.6,221.2,177.9,221.2z"/>
				</g>
				<g>
					<g>
						<path class="st5" d="M195.1,256.9c0,0.8-0.6,1.4-1.4,1.4h-31.3c-0.8,0-1.4-0.6-1.4-1.4v-5.6c0-0.8,0.6-1.4,1.4-1.4h31.3
							c0.8,0,1.4,0.6,1.4,1.4V256.9z"/>
					</g>
					<g>
						<path class="st32" d="M163.3,255.9v-3.9h1.2c0.5,0,0.8,0,0.9,0.1c0.2,0.1,0.4,0.2,0.6,0.4c0.1,0.2,0.2,0.4,0.2,0.8
							c0,0.2,0,0.4-0.1,0.6c-0.1,0.2-0.2,0.3-0.3,0.4c-0.1,0.1-0.3,0.2-0.4,0.2c-0.2,0-0.5,0.1-0.8,0.1h-0.5v1.5H163.3z
							 M164.1,252.7v1.1h0.4c0.3,0,0.5,0,0.6-0.1c0.1,0,0.2-0.1,0.2-0.2c0.1-0.1,0.1-0.2,0.1-0.3c0-0.1,0-0.3-0.1-0.3
							c-0.1-0.1-0.2-0.2-0.3-0.2c-0.1,0-0.3,0-0.6,0H164.1z"/>
						<path class="st32" d="M166.9,255.9v-3.9h1.6c0.4,0,0.7,0,0.9,0.1c0.2,0.1,0.3,0.2,0.4,0.4c0.1,0.2,0.2,0.4,0.2,0.6
							c0,0.3-0.1,0.5-0.3,0.7c-0.2,0.2-0.4,0.3-0.8,0.4c0.2,0.1,0.3,0.2,0.4,0.3c0.1,0.1,0.3,0.3,0.4,0.6l0.5,0.8h-0.9l-0.6-0.8
							c-0.2-0.3-0.3-0.5-0.4-0.6c-0.1-0.1-0.2-0.1-0.2-0.2c-0.1,0-0.2,0-0.4,0h-0.2v1.6H166.9z M167.7,253.7h0.6c0.4,0,0.6,0,0.7,0
							c0.1,0,0.2-0.1,0.2-0.2c0.1-0.1,0.1-0.2,0.1-0.3c0-0.1,0-0.2-0.1-0.3c-0.1-0.1-0.2-0.1-0.3-0.1c-0.1,0-0.2,0-0.6,0h-0.6V253.7
							z"/>
						<path class="st32" d="M170.7,255.9v-3.9h0.8v3.9H170.7z"/>
						<path class="st32" d="M172.1,254c0-0.4,0.1-0.7,0.2-1c0.1-0.2,0.2-0.4,0.4-0.5c0.2-0.2,0.3-0.3,0.5-0.3
							c0.2-0.1,0.5-0.2,0.8-0.2c0.6,0,1,0.2,1.4,0.5c0.3,0.4,0.5,0.9,0.5,1.5c0,0.6-0.2,1.1-0.5,1.5c-0.3,0.3-0.8,0.5-1.4,0.5
							c-0.6,0-1-0.2-1.4-0.5C172.3,255.1,172.1,254.6,172.1,254z M172.9,254c0,0.4,0.1,0.8,0.3,1c0.2,0.2,0.5,0.3,0.8,0.3
							c0.3,0,0.6-0.1,0.8-0.3c0.2-0.2,0.3-0.6,0.3-1c0-0.4-0.1-0.8-0.3-1c-0.2-0.2-0.5-0.3-0.8-0.3c-0.3,0-0.6,0.1-0.8,0.3
							C173,253.2,172.9,253.6,172.9,254z"/>
						<path class="st32" d="M176.4,255.9v-3.9h1.6c0.4,0,0.7,0,0.9,0.1c0.2,0.1,0.3,0.2,0.4,0.4c0.1,0.2,0.2,0.4,0.2,0.6
							c0,0.3-0.1,0.5-0.3,0.7c-0.2,0.2-0.4,0.3-0.8,0.4c0.2,0.1,0.3,0.2,0.4,0.3c0.1,0.1,0.3,0.3,0.4,0.6l0.5,0.8H179l-0.6-0.8
							c-0.2-0.3-0.3-0.5-0.4-0.6c-0.1-0.1-0.1-0.1-0.2-0.2c-0.1,0-0.2,0-0.4,0h-0.2v1.6H176.4z M177.2,253.7h0.6c0.4,0,0.6,0,0.7,0
							c0.1,0,0.2-0.1,0.2-0.2c0-0.1,0.1-0.2,0.1-0.3c0-0.1,0-0.2-0.1-0.3c-0.1-0.1-0.2-0.1-0.3-0.1c-0.1,0-0.3,0-0.6,0h-0.6V253.7z"
							/>
						<path class="st32" d="M180.3,255.9v-3.9h0.8v3.9H180.3z"/>
						<path class="st32" d="M181.8,252.1h1.4c0.3,0,0.6,0,0.7,0.1c0.2,0.1,0.4,0.2,0.6,0.4c0.2,0.2,0.3,0.4,0.4,0.6
							c0.1,0.2,0.1,0.5,0.1,0.9c0,0.3,0,0.6-0.1,0.8c-0.1,0.3-0.2,0.5-0.4,0.7c-0.1,0.1-0.3,0.2-0.5,0.3c-0.2,0.1-0.4,0.1-0.7,0.1
							h-1.5V252.1z M182.6,252.7v2.6h0.6c0.2,0,0.4,0,0.5,0c0.1,0,0.2-0.1,0.3-0.2c0.1-0.1,0.1-0.2,0.2-0.4c0.1-0.2,0.1-0.4,0.1-0.7
							c0-0.3,0-0.5-0.1-0.7c-0.1-0.2-0.1-0.3-0.2-0.4c-0.1-0.1-0.2-0.1-0.4-0.2c-0.1,0-0.3,0-0.6,0H182.6z"/>
						<path class="st32" d="M189.1,255.9h-0.8l-0.3-0.9h-1.5l-0.3,0.9h-0.8l1.5-3.9h0.8L189.1,255.9z M187.7,254.4l-0.5-1.4
							l-0.5,1.4H187.7z"/>
						<path class="st32" d="M189.6,252.1h1.4c0.3,0,0.6,0,0.7,0.1c0.2,0.1,0.4,0.2,0.6,0.4c0.2,0.2,0.3,0.4,0.4,0.6s0.1,0.5,0.1,0.9
							c0,0.3,0,0.6-0.1,0.8c-0.1,0.3-0.2,0.5-0.4,0.7c-0.1,0.1-0.3,0.2-0.5,0.3c-0.2,0.1-0.4,0.1-0.7,0.1h-1.5V252.1z M190.3,252.7
							v2.6h0.6c0.2,0,0.4,0,0.5,0c0.1,0,0.2-0.1,0.3-0.2c0.1-0.1,0.2-0.2,0.2-0.4c0.1-0.2,0.1-0.4,0.1-0.7c0-0.3,0-0.5-0.1-0.7
							c0-0.2-0.1-0.3-0.2-0.4c-0.1-0.1-0.2-0.1-0.4-0.2c-0.1,0-0.3,0-0.6,0H190.3z"/>
					</g>
				</g>
			</g>
			<path class="st5" d="M183.4,235.4c-0.7,0-1.3,0.2-1.8,0.6l-1.1-1.3l0.1-0.5l1-0.4c0.1,0,0.2-0.2,0.2-0.3c0-0.1-0.1-0.2-0.3-0.2
				l-2.5,0.1c-0.1,0-0.2,0.1-0.3,0.2c0,0.1,0.1,0.2,0.2,0.3l1.1,0.3c0,0.1,0,0.2-0.1,0.3l-4.9,0l0.4-1c0,0,0-0.1,0-0.1
				c0-0.1,0-0.1-0.1-0.2c-0.1-0.1-0.2-0.2-0.2-0.3v0c0,0,0,0,0.1-0.1c0.1,0,1.3,0,1.3,0c0.1,0,0.3-0.1,0.3-0.3
				c0-0.1-0.1-0.3-0.3-0.3h-1.3c0,0-0.1,0-0.1,0c-0.3,0.1-0.4,0.3-0.5,0.5c0,0,0,0.1,0,0.1c0,0.2,0.1,0.4,0.2,0.5
				c0,0.1-0.3,0.9-0.6,1.6l-0.1,0.3l0,0c-0.1,0.2-0.2,0.5-0.2,0.6c-0.5-0.3-1.1-0.5-1.7-0.5c-1.8,0-3.3,1.5-3.3,3.4
				c0,1.8,1.5,3.4,3.3,3.4c1.8,0,3.3-1.5,3.3-3.4c0-1-0.5-1.9-1.2-2.5l0.1-0.4l3.8,3.8c0,0,0,0,0,0c0,0,0,0,0,0c0,0,0,0,0,0
				c0,0,0,0,0,0l0.2,0.6c-0.1,0-0.2,0.1-0.2,0.3c0,0.1,0.1,0.3,0.3,0.3h0.7c0.1,0,0.3-0.1,0.3-0.3c0-0.1-0.1-0.3-0.3-0.3h-0.2
				l-0.2-0.6l1.2-0.2c0.3,1.5,1.7,2.7,3.3,2.7c1.8,0,3.3-1.5,3.3-3.4C186.7,236.9,185.2,235.4,183.4,235.4z M175,238.8
				c0,1.6-1.3,2.8-2.8,2.8c-1.6,0-2.8-1.3-2.8-2.8c0-1.6,1.3-2.8,2.8-2.8c0.6,0,1.1,0.2,1.5,0.5c-0.4,1.2-1.7,2.1-1.7,2.1
				c-0.1,0.1-0.1,0.1-0.1,0.2c0,0.1,0,0.1,0.1,0.2c0.1,0.1,0.2,0.1,0.4,0.1c0.1,0,1.3-1,1.8-2.2C174.7,237.3,175,238,175,238.8z
				 M178.5,238.5l-0.1-0.2h0c0,0,0.1,0,0.1,0C178.6,238.3,178.6,238.4,178.5,238.5z M178.5,237.7h-0.6c-0.1,0-0.3,0.1-0.3,0.3
				c0,0.1,0.1,0.3,0.3,0.3h0.1l0.1,0.4l-3.3-3.3c0.1-0.1,0.1-0.2,0.1-0.4c0.3,0,3.9,0,4.9,0c-0.2,0.6-0.7,1.9-1,2.9
				C178.7,237.8,178.6,237.7,178.5,237.7z M178.9,239.1l1.4-3.9c0.2,0.2,0.5,0.6,0.9,1.1c-0.7,0.6-1.1,1.5-1.1,2.5
				c0,0.1,0,0.1,0,0.2C179.6,239,179.1,239.1,178.9,239.1z M180.6,238.8c0-0.8,0.3-1.6,0.9-2.1c0.6,0.8,1.3,1.5,1.5,1.8
				C182.6,238.6,181.6,238.7,180.6,238.8C180.6,238.8,180.6,238.8,180.6,238.8z M183.4,241.6c-1.3,0-2.5-0.9-2.7-2.2l2.9-0.4
				c0.1,0,0.2-0.1,0.2-0.2c0-0.1,0-0.2,0-0.3l-1.8-2.2c0.4-0.3,0.9-0.4,1.5-0.4c1.6,0,2.8,1.3,2.8,2.8
				C186.2,240.3,185,241.6,183.4,241.6z"/>
		</g>
		
			<radialGradient id="burbuja_2_" cx="20.038" cy="346.129" r="101.4693" gradientTransform="matrix(0.8263 0 0 0.8302 311.351 0.6875)" gradientUnits="userSpaceOnUse">
			<stop  offset="0" style="stop-color:#D7D7D6;stop-opacity:0"/>
			<stop  offset="1" style="stop-color:#D7D7D6"/>
		</radialGradient>
		<ellipse id="burbuja_1_" class="st33" cx="327.9" cy="288.1" rx="83.8" ry="84.2"/>
		<g id="monita_3_">
			<g>
				<defs>
					<path id="SVGID_36_" d="M336.5,242.4c1.3-6.5,0.1-10.9-6.2-13c-8.5-2.8-11.3,3.8-11.3,7.4c0,3.5-5.3,7.3-5.3,7.3
						s5.5,7.4,15.7,9.5C329.3,253.5,335.2,248.9,336.5,242.4z"/>
				</defs>
				<clipPath id="SVGID_37_">
					<use xlink:href="#SVGID_36_"  style="overflow:visible;"/>
				</clipPath>
				
					<linearGradient id="SVGID_38_" gradientUnits="userSpaceOnUse" x1="-4575.5557" y1="327.2656" x2="-4636.5806" y2="351.5858" gradientTransform="matrix(-0.415 -0.1192 -0.1718 0.5981 -1527.5981 -511.5251)">
					<stop  offset="0" style="stop-color:#EE4050"/>
					<stop  offset="1" style="stop-color:#D72538"/>
				</linearGradient>
				<polygon class="st34" points="310.9,249.5 333.5,256 340.5,231.4 318,224.9 				"/>
				
					<linearGradient id="SVGID_39_" gradientUnits="userSpaceOnUse" x1="2907.4421" y1="-610.6638" x2="2925.0701" y2="-610.6638" gradientTransform="matrix(1.0764 0.6943 -0.7261 0.758 -3255.9475 -1318.8013)">
					<stop  offset="0" style="stop-color:#2B2B2B;stop-opacity:0"/>
					<stop  offset="1" style="stop-color:#737374"/>
				</linearGradient>
				<path class="st35" d="M332.2,238.4c-0.6,0.7-1.2,1.3-1.9,1.9c-2.6,1.8-6.4,1.2-8.3-1.3c-2.2-3.1-5-2.5-7.2,0.6
					c-1.8,2.6-2.2,6.2-0.6,9c1.2,2.1,3.4,3.8,5.3,5.2c2,1.5,4.7,2.1,7.1,1.7c3.5-0.5,6.5-2.7,8.6-5.6c2-2.8,3.2-6.3,3.8-9.7
					c0.2-1.1,0.3-2.2,0-3.2c-0.9-3.3-3.8-1.9-5.4-0.2C333.1,237.3,332.7,237.8,332.2,238.4z"/>
			</g>
			<g>
				
					<linearGradient id="SVGID_40_" gradientUnits="userSpaceOnUse" x1="-3635.8442" y1="369.2879" x2="-3627.9993" y2="369.2879" gradientTransform="matrix(-0.9962 -8.693837e-02 -8.693837e-02 0.9962 -3270.1621 -353.1315)">
					<stop  offset="0" style="stop-color:#414242"/>
					<stop  offset="1" style="stop-color:#737374"/>
				</linearGradient>
				<path class="st36" d="M319.6,332.9L319.6,332.9c-0.1,0.3-0.3,0.5-0.6,0.5c-0.9,0-1.8-0.2-3.5-0.3s-4.3-2.8-3.1-4.8
					c1.2-2,2.7,1.5,2.7,1.5l4.3,2.4C319.6,332.4,319.7,332.6,319.6,332.9z"/>
			</g>
			<g>
				<defs>
					<path id="SVGID_41_" d="M325.5,252.2c7.6,0.8,3.8,13.4,5.8,15.8c1.5,1.9,7.5,6.3,10.7,8.1c1.7,0.9,4.9,2.5,5.7,3
						c0.8,0.5-1,3.5-1.3,3.5s-0.9-0.4-0.9-0.4s-0.3,0.4-0.5,0.4c-0.4,0-0.8-1.1-0.8-1.1s-13.8-6.6-16.7-8.8
						C324.5,270.5,319,251.6,325.5,252.2z"/>
				</defs>
				<clipPath id="SVGID_42_">
					<use xlink:href="#SVGID_41_"  style="overflow:visible;"/>
				</clipPath>
				
					<linearGradient id="SVGID_43_" gradientUnits="userSpaceOnUse" x1="-3609.9644" y1="503.2179" x2="-3579.1741" y2="503.2179" gradientTransform="matrix(-0.9995 -3.238286e-02 -3.238286e-02 0.9995 -3242.5129 -353.9657)">
					<stop  offset="0" style="stop-color:#FAB858"/>
					<stop  offset="1" style="stop-color:#F9A124"/>
				</linearGradient>
				<polygon class="st37" points="348.7,283.5 318,278.7 320.7,249 345.9,248.2 				"/>
				
					<linearGradient id="SVGID_44_" gradientUnits="userSpaceOnUse" x1="3846.2749" y1="-720.3623" x2="3868.262" y2="-720.3623" gradientTransform="matrix(0.9349 0.3548 -0.3548 0.9349 -3531.8032 -427.9962)">
					<stop  offset="0" style="stop-color:#737374;stop-opacity:0"/>
					<stop  offset="1" style="stop-color:#414242"/>
				</linearGradient>
				<path class="st38" d="M322.6,265.5c-0.1-0.3-0.2-0.5-0.4-0.8c-0.8-1.7-1.4-3.7-0.8-5.7c0.6-2,2.5-3.5,4.2-3.5
					c3.7,0,3.5,4.6,3.3,7.8c-0.1,2.1-0.1,4.1,0.7,5.9c0.4,0.8,1.3,1.3,2,1.7c0.9,0.5,1.7,0.9,2.6,1.5c1.6,0.9,3,2.3,3.4,4.3
					c0.1,0.7,0.1,1.6-0.4,2.1c-0.5,0.6-1.3,0.6-2,0.4c-1.4-0.4-2.6-1.2-3.8-2.1c-1.6-1.1-3.1-2.2-4.7-3.3c-1.3-0.9-2.9-1.8-2.9-3.9
					C323.8,268.2,323.2,266.9,322.6,265.5z"/>
			</g>
			<g>
				<defs>
					<path id="SVGID_45_" d="M309.3,317.3c1.1-6.3,5.7-8.8,4.9-13c-0.8-4.2-15.8-25.1-8.3-35.6c2.8-4,8.2-3.1,9.6-11.4
						c1.3-7.5,4.5-7.8,8-8.4s7.5,4.9,7.3,7.5c-0.6,6.8-4.5,9.4-6.5,11.1s-3.7,5.8-3.7,5.8s2.5,16.4,2.5,27.5
						c0.1,12.2-8.1,28.8-8.1,28.8C308.5,326.9,308.1,324.5,309.3,317.3z"/>
				</defs>
				<clipPath id="SVGID_46_">
					<use xlink:href="#SVGID_45_"  style="overflow:visible;"/>
				</clipPath>
				
					<linearGradient id="SVGID_47_" gradientUnits="userSpaceOnUse" x1="3778.4915" y1="-1086.1831" x2="3820.374" y2="-1086.1831" gradientTransform="matrix(0.8932 0.4496 -0.4496 0.8932 -3567.5173 -454.5577)">
					<stop  offset="0" style="stop-color:#D7D7D6"/>
					<stop  offset="1" style="stop-color:#E4E4E3"/>
				</linearGradient>
				<polygon class="st39" points="333.1,293.2 303.5,300.3 297.8,270.2 325,266.1 				"/>
				
					<linearGradient id="SVGID_48_" gradientUnits="userSpaceOnUse" x1="-1226.9091" y1="397.2623" x2="-1194.3854" y2="397.2623" gradientTransform="matrix(-0.9907 0.1361 0.1361 0.9907 -934.0583 31.4468)">
					<stop  offset="0" style="stop-color:#784A9C"/>
					<stop  offset="1" style="stop-color:#5D2E8D"/>
				</linearGradient>
				<polygon class="st40" points="331.7,275.1 304.7,272.8 307.1,245.3 334.1,247.7 				"/>
				
					<linearGradient id="SVGID_49_" gradientUnits="userSpaceOnUse" x1="3816.4993" y1="-927.4212" x2="3833.2446" y2="-927.4212" gradientTransform="matrix(0.9142 0.4054 -0.4054 0.9142 -3554.9761 -442.8561)">
					<stop  offset="0" style="stop-color:#737374"/>
					<stop  offset="1" style="stop-color:#414242;stop-opacity:0"/>
				</linearGradient>
				<path class="st41" d="M309.5,271.3c2.7,0.6,4.9,1.6,7.7,1.3c0.9-0.1,1.8-0.3,2.4-1c0.6-0.7,0.8-1.6,0.9-2.5c0.5-2.5,1.6-4.9,3-7
					c1.4-2,3.7-3.4,4.6-5.6c0.7-1.6,1-3.4,0.7-5.1c-0.2-1.3-1.3-2.6-2.4-3.1c-11.3-5-22.1,20.7-22.1,20.7S308.2,271,309.5,271.3z"/>
				
					<linearGradient id="SVGID_50_" gradientUnits="userSpaceOnUse" x1="3820.323" y1="-935.2444" x2="3832.3105" y2="-935.2444" gradientTransform="matrix(0.9142 0.4054 -0.4054 0.9142 -3554.9761 -442.8561)">
					<stop  offset="0" style="stop-color:#737374"/>
					<stop  offset="1" style="stop-color:#414242;stop-opacity:0"/>
				</linearGradient>
				<path class="st42" d="M328.4,253.5c0,0-1.9-4.7-4.7-5.9c-7.5-3.3-8.8,9-8.8,9L328.4,253.5z"/>
				
					<linearGradient id="SVGID_51_" gradientUnits="userSpaceOnUse" x1="-3181.2681" y1="2175.7732" x2="-3158.6323" y2="2175.7732" gradientTransform="matrix(-0.9885 0.1511 0.1361 0.8901 -3113.4958 -1143.2944)">
					<stop  offset="0" style="stop-color:#EA9023"/>
					<stop  offset="1" style="stop-color:#EEA540"/>
				</linearGradient>
				<path class="st43" d="M308.1,336.7c0,0-4-38.5-3-38.5c11.7,0.1,19-6.6,19-6.6c0.7,5.2-4.5,43.5-4.5,43.5L308.1,336.7z"/>
				
					<linearGradient id="SVGID_52_" gradientUnits="userSpaceOnUse" x1="3795.4094" y1="-1035.519" x2="3840.1365" y2="-1035.519" gradientTransform="matrix(0.8968 0.4424 -0.4424 0.8968 -3570.6196 -453.3772)">
					<stop  offset="0" style="stop-color:#737374;stop-opacity:0"/>
					<stop  offset="1" style="stop-color:#414242"/>
				</linearGradient>
				<path class="st44" d="M322.5,305.8c-1.9-4.1-4.7-7.8-5.5-12.1c-0.8-4.2-1.6-4.5-1.6-8.4c0-3.1-0.6-6.7-2.2-9.4
					c-1.3-2.2-3.5-4.1-6.1-4.8c-4.6-1.2-5.1,5.5-5.4,8.6c-0.4,3.3,5.5,11.4,6.6,12.9c1.6,1.9,3.1,3.9,4.7,5.9
					c1.1,1.4,2.3,2.9,2.9,4.6c1,2.9,0.3,6.2-1.1,8.9c-1.4,2.8-3.4,5.3-5.1,8c-1.6,2.6-3,5.4-3.5,8.6c-0.5,3.2-0.1,6.6,1.6,9.2
					c1.7,2.6,4.9,4.3,7.9,3.6c3.5-0.8,5.9-4.4,7.3-7.9C326.7,324.5,326.4,314.1,322.5,305.8z"/>
			</g>
			<g>
				
					<linearGradient id="SVGID_53_" gradientUnits="userSpaceOnUse" x1="-3701.4292" y1="-777.8522" x2="-3693.5247" y2="-777.8522" gradientTransform="matrix(-0.9246 -0.3811 -0.3811 0.9246 -3391.5864 -370.2043)">
					<stop  offset="0" style="stop-color:#333333"/>
					<stop  offset="1" style="stop-color:#656767"/>
				</linearGradient>
				<path class="st45" d="M326.3,322.6l-2.1,0.4c-1.6-1.2-5.5-6.5-3.3-7c2.2-0.5,2.2,2,2.2,2S326.5,322.4,326.3,322.6z"/>
			</g>
			<g>
				<defs>
					<path id="SVGID_54_" d="M306,268.8l10.9,3.4c0,0,19.5,5.2,20.5,17.4c0.8,10.1-14.2,28.5-14.2,28.5c-5.7-4.4-4.7-9.8-1.9-16.5
						c2.5-5.9,6.1-7.3,5.8-8.9S294.3,285,306,268.8z"/>
				</defs>
				<clipPath id="SVGID_55_">
					<use xlink:href="#SVGID_54_"  style="overflow:visible;"/>
				</clipPath>
				
					<linearGradient id="SVGID_56_" gradientUnits="userSpaceOnUse" x1="3787.3762" y1="-937.0298" x2="3837.0569" y2="-937.0298" gradientTransform="matrix(0.9156 0.2516 -0.4954 0.5686 -3638.2515 -145.9783)">
					<stop  offset="0" style="stop-color:#D7D7D6"/>
					<stop  offset="1" style="stop-color:#E4E4E3"/>
				</linearGradient>
				<polygon class="st46" points="335.3,291.3 302.3,295.1 298.3,269 331.1,266.1 				"/>
				
					<linearGradient id="SVGID_57_" gradientUnits="userSpaceOnUse" x1="-3492.9626" y1="913.7433" x2="-3464.0576" y2="913.7433" gradientTransform="matrix(-0.9973 7.293875e-02 7.293875e-02 0.9973 -3205.4573 -359.3094)">
					<stop  offset="0" style="stop-color:#FAB858"/>
					<stop  offset="1" style="stop-color:#F9A124"/>
				</linearGradient>
				<path class="st47" d="M323.7,321l-6.8-9.8l5.5-18.9c0,0,4.8-1.9,7.3-6.4c2.5-4.5,2-10.1,2-10.1l12.6,13.6L323.7,321z"/>
				
					<linearGradient id="SVGID_58_" gradientUnits="userSpaceOnUse" x1="3816.1445" y1="-899.2818" x2="3859.0886" y2="-899.2818" gradientTransform="matrix(0.9142 0.4054 -0.4054 0.9142 -3554.9761 -442.8561)">
					<stop  offset="0" style="stop-color:#737374;stop-opacity:0"/>
					<stop  offset="1" style="stop-color:#414242"/>
				</linearGradient>
				<path class="st48" d="M305.8,280.9c4.3,2,9.2,2.4,13.9,2.2c3.1-0.1,7.1-1.7,10.1-1.7c3.9,0.1,8.3,2.3,8.7,6.6
					c0.6,6.8-1.3,13.8-5.4,19.2c-0.8,1.1-1.8,2.2-3,2.8s-2.8,0.7-3.9-0.2c-1.2-0.9-1.5-2.5-1.6-4c-0.1-2.8,0.3-5.6,1.3-8.2
					c0.3-0.9,0.7-1.8,0.9-2.7c0.2-0.9,0-2-0.6-2.7c-0.8-0.9-2.1-1-3.2-0.8c-1.1,0.3-2.1,0.9-3.2,1.3c-3.1,1.4-9.5,0.6-12.7-0.7
					c-2.4-1-4.5-2.5-6.2-4.5c-1.6-1.9-1.3-4.7-1.3-7.1c0-0.2-0.1-2.3,0.3-2.3C301.2,278.3,304.5,280.3,305.8,280.9z"/>
			</g>
			<g>
				<defs>
					<path id="SVGID_59_" d="M319.8,256.1c3.2,2.3,2.8-1.5,8.6-3.6l1.2-7c0,0,1.9,0.4,2.8,0c1.6-0.7,0.9-7.3-0.4-9.1
						c-0.5-0.7-2.1-1.1-3.8-0.9c0,0,1,2.6-0.6,4.9c-1.6,2.3-3.8,3.1-3.8,3.1C323.6,249.6,319.8,256.1,319.8,256.1z"/>
				</defs>
				<clipPath id="SVGID_60_">
					<use xlink:href="#SVGID_59_"  style="overflow:visible;"/>
				</clipPath>
				<path class="st49" d="M328,257L328,257l-11.3-18.2l13.7-6.4l0,0.1l8.1,17.5L328,257z M316.9,238.9l11.1,17.8l10.2-6.8l-8-17.3
					L316.9,238.9z"/>
				
					<linearGradient id="SVGID_61_" gradientUnits="userSpaceOnUse" x1="-1134.9669" y1="549.6498" x2="-1118.7452" y2="549.6498" gradientTransform="matrix(0.9826 0.1858 -0.1858 0.9826 1537.5822 -84.2984)">
					<stop  offset="0" style="stop-color:#F9A124"/>
					<stop  offset="1" style="stop-color:#FAB858"/>
				</linearGradient>
				<polygon class="st50" points="318.1,256.2 323.2,260.6 337.9,239.2 325.4,230.9 				"/>
				
					<linearGradient id="SVGID_62_" gradientUnits="userSpaceOnUse" x1="1536.3099" y1="119.2999" x2="1550.3344" y2="119.2999" gradientTransform="matrix(-0.9897 0.143 0.143 0.9897 1836.0486 -93.6386)">
					<stop  offset="0" style="stop-color:#414242"/>
					<stop  offset="1" style="stop-color:#737374;stop-opacity:0"/>
				</linearGradient>
				<path class="st51" d="M332.1,242.5l-1,0.1l-0.9-3.6c0,0-2.5-0.4-3.1,0.9s0.3,3.2,1.9,4.4c1.6,1.2,3.6,1,3.6,1s-6.5,3.5-7.6,9.2
					c-0.5,2.7-4.9,1.4-4.9,1.4l3.1-18.5c0,0,0.5-3.9,5.5-3C330.6,234.8,332.1,236.7,332.1,242.5z"/>
				
					<linearGradient id="SVGID_63_" gradientUnits="userSpaceOnUse" x1="1538.6346" y1="120.2052" x2="1550.7014" y2="120.2052" gradientTransform="matrix(-0.9897 0.143 0.143 0.9897 1836.0486 -93.6386)">
					<stop  offset="0" style="stop-color:#414242"/>
					<stop  offset="1" style="stop-color:#737374;stop-opacity:0"/>
				</linearGradient>
				<path class="st52" d="M325.6,240.6c0,0,2.8-2.8-0.5-5c-3.1-2-3.3,16-5.6,18.6c0,0,2.7,7.1,4.1-0.2c1.4-7.4,6.9-8.3,6.9-8.3
					S326.3,244.9,325.6,240.6z"/>
			</g>
			<g>
				<g>
					<defs>
						<path id="SVGID_64_" d="M361.3,278.7l0.1,11.7c0,1.2-0.9,2.2-2.1,2.2l-7.6,0l0,2.4l8.3-0.1c2.1,0,3.8-1.7,3.7-3.8l-0.1-14.9
							l0,0C362.4,276.4,361.3,277.4,361.3,278.7z"/>
					</defs>
					<linearGradient id="SVGID_65_" gradientUnits="userSpaceOnUse" x1="351.7132" y1="285.7362" x2="363.7756" y2="285.7362">
						<stop  offset="0" style="stop-color:#151B26"/>
						<stop  offset="1" style="stop-color:#333E57"/>
					</linearGradient>
					<use xlink:href="#SVGID_64_"  style="overflow:visible;fill:url(#SVGID_65_);"/>
					<clipPath id="SVGID_66_">
						<use xlink:href="#SVGID_64_"  style="overflow:visible;"/>
					</clipPath>
					<g class="st53">
						
							<linearGradient id="SVGID_67_" gradientUnits="userSpaceOnUse" x1="4178.165" y1="1117.964" x2="4192.0249" y2="1117.964" gradientTransform="matrix(1 -6.240980e-03 6.240980e-03 1 -3833.9688 -805.4857)">
							<stop  offset="0" style="stop-color:#151B26"/>
							<stop  offset="1" style="stop-color:#333E57"/>
						</linearGradient>
						<polygon class="st54" points="365,296.5 351.2,296.5 351,276.2 364.9,276.1 						"/>
					</g>
					
						<linearGradient id="SVGID_68_" gradientUnits="userSpaceOnUse" x1="4184.7642" y1="1129.4784" x2="4184.7642" y2="1113.8575" gradientTransform="matrix(1 -6.240980e-03 6.240980e-03 1 -3833.9688 -805.4857)">
						<stop  offset="0" style="stop-color:#151B26"/>
						<stop  offset="1" style="stop-color:#333E57"/>
					</linearGradient>
					<path class="st55" d="M364.1,285.4c4.7,7.7-3.3,15.7-11,11.2c-0.7-0.4-1.4-1.1-1.8-1.8c-4.7-7.7,3.3-15.7,11-11.2
						C363.1,284,363.7,284.6,364.1,285.4z"/>
				</g>
				<g>
					<defs>
						<path id="SVGID_69_" d="M312.9,328.5c-0.1-12.4-10.1-22.3-22.4-22.3c-12.3,0.1-22.2,10.2-22.2,22.5
							c0.1,12.4,10.1,22.3,22.4,22.3C303,351,313,340.9,312.9,328.5z M275.4,328.8c-0.1-8.4,6.7-15.3,15.1-15.4
							c8.4-0.1,15.2,6.7,15.3,15.2s-6.7,15.3-15.1,15.4S275.4,337.2,275.4,328.8z"/>
					</defs>
					<linearGradient id="SVGID_70_" gradientUnits="userSpaceOnUse" x1="268.2924" y1="328.6846" x2="312.8843" y2="328.6846">
						<stop  offset="0" style="stop-color:#151B26"/>
						<stop  offset="1" style="stop-color:#333E57"/>
					</linearGradient>
					<use xlink:href="#SVGID_69_"  style="overflow:visible;fill:url(#SVGID_70_);"/>
					<clipPath id="SVGID_71_">
						<use xlink:href="#SVGID_69_"  style="overflow:visible;"/>
					</clipPath>
					
						<linearGradient id="SVGID_72_" gradientUnits="userSpaceOnUse" x1="-4622.7393" y1="4844.5254" x2="-4622.7393" y2="4794.2915" gradientTransform="matrix(-1 6.240980e-03 -6.240980e-03 -1 -4302.0034 5176.8228)">
						<stop  offset="0" style="stop-color:#151B26"/>
						<stop  offset="1" style="stop-color:#333E57"/>
					</linearGradient>
					<polygon class="st56" points="267.6,303.7 313.2,303.4 313.5,353.6 267.9,353.9 					"/>
					
						<linearGradient id="SVGID_73_" gradientUnits="userSpaceOnUse" x1="4128.2852" y1="1173.6172" x2="4128.2852" y2="1113.3076" gradientTransform="matrix(1 -6.240980e-03 6.240980e-03 1 -3833.9688 -805.4857)">
						<stop  offset="0" style="stop-color:#151B26"/>
						<stop  offset="1" style="stop-color:#333E57"/>
					</linearGradient>
					<path class="st57" d="M325.7,293.6c18.7,30-12.5,61.8-42.6,43.3c-2.5-1.5-4.6-3.6-6.1-6.1c-18.7-30,12.5-61.8,42.6-43.3
						C322.1,289,324.2,291.1,325.7,293.6z"/>
				</g>
				<g>
					<defs>
						<path id="SVGID_74_" d="M342.9,328.4c0.1,12.4,10.1,22.3,22.4,22.3c12.3-0.1,22.2-10.2,22.2-22.5
							c-0.1-12.4-10.1-22.3-22.4-22.3C352.8,305.9,342.9,316,342.9,328.4z M380.4,328.1c0.1,8.4-6.7,15.3-15.1,15.4
							c-8.4,0.1-15.2-6.7-15.3-15.2c-0.1-8.4,6.7-15.3,15.1-15.4S380.4,319.7,380.4,328.1z"/>
					</defs>
					<linearGradient id="SVGID_75_" gradientUnits="userSpaceOnUse" x1="342.9338" y1="328.2166" x2="387.5257" y2="328.2166">
						<stop  offset="0" style="stop-color:#151B26"/>
						<stop  offset="1" style="stop-color:#333E57"/>
					</linearGradient>
					<use xlink:href="#SVGID_74_"  style="overflow:visible;fill:url(#SVGID_75_);"/>
					<clipPath id="SVGID_76_">
						<use xlink:href="#SVGID_74_"  style="overflow:visible;"/>
					</clipPath>
					
						<linearGradient id="SVGID_77_" gradientUnits="userSpaceOnUse" x1="4191.5146" y1="1182.2841" x2="4191.5146" y2="1137.3851" gradientTransform="matrix(1 -6.240980e-03 6.240980e-03 1 -3833.9688 -805.4857)">
						<stop  offset="0" style="stop-color:#151B26"/>
						<stop  offset="1" style="stop-color:#333E57"/>
					</linearGradient>
					<polygon class="st58" points="387.7,350.5 342.1,350.8 341.8,305.9 387.4,305.6 					"/>
					
						<linearGradient id="SVGID_78_" gradientUnits="userSpaceOnUse" x1="4175.9966" y1="1205.3114" x2="4175.9966" y2="1145.0017" gradientTransform="matrix(1 -6.240980e-03 6.240980e-03 1 -3833.9688 -805.4857)">
						<stop  offset="0" style="stop-color:#151B26"/>
						<stop  offset="1" style="stop-color:#333E57"/>
					</linearGradient>
					<path class="st59" d="M373.7,325c18.7,30-12.5,61.8-42.6,43.3c-2.5-1.5-4.6-3.6-6.1-6.1c-18.7-30,12.5-61.8,42.6-43.3
						C370,320.4,372.1,322.5,373.7,325z"/>
				</g>
				<g>
					<defs>
						<path id="SVGID_79_" d="M271.4,312.4l5.8,4.5l15.2-0.1c3.5,0,6.8,1.7,8.7,4.7l0,0l12.9-0.1c0,0-3.5-18.4-21.3-18.3
							C278.4,303.1,271.4,312.4,271.4,312.4z"/>
					</defs>
					<clipPath id="SVGID_80_">
						<use xlink:href="#SVGID_79_"  style="overflow:visible;"/>
					</clipPath>
					
						<linearGradient id="SVGID_81_" gradientUnits="userSpaceOnUse" x1="4097.4121" y1="1144.08" x2="4140.9233" y2="1144.08" gradientTransform="matrix(1 -6.240980e-03 6.240980e-03 1 -3833.9688 -805.4857)">
						<stop  offset="0" style="stop-color:#EE4050"/>
						<stop  offset="1" style="stop-color:#D72538"/>
					</linearGradient>
					<polygon class="st60" points="314.1,322.6 270.6,322.9 270.5,303.2 314,302.9 					"/>
					
						<linearGradient id="SVGID_82_" gradientUnits="userSpaceOnUse" x1="4092.0405" y1="1151.0403" x2="4130.9653" y2="1151.0403" gradientTransform="matrix(1 -6.240980e-03 6.240980e-03 1 -3833.9688 -805.4857)">
						<stop  offset="0" style="stop-color:#737374"/>
						<stop  offset="1" style="stop-color:#414242;stop-opacity:0"/>
					</linearGradient>
					<path class="st61" d="M300.3,307.6c12.5,19.6-8.1,40.5-27.7,28.2c-1.4-0.9-2.7-2.1-3.6-3.6c-12.5-19.6,8.1-40.5,27.7-28.2
						C298.2,304.9,299.4,306.1,300.3,307.6z"/>
				</g>
				<g>
					<defs>
						<path id="SVGID_83_" d="M351.5,289.5l-2.3,0.6c0-7.1-7.7-6.9-7.8-11.9c0,0,3.7,0,7.4,0C352.6,278.1,351.5,289.5,351.5,289.5z"
							/>
					</defs>
					<linearGradient id="SVGID_84_" gradientUnits="userSpaceOnUse" x1="341.4442" y1="284.1038" x2="351.671" y2="284.1038">
						<stop  offset="0" style="stop-color:#151B26"/>
						<stop  offset="1" style="stop-color:#333E57"/>
					</linearGradient>
					<use xlink:href="#SVGID_83_"  style="overflow:visible;fill:url(#SVGID_84_);"/>
					<clipPath id="SVGID_85_">
						<use xlink:href="#SVGID_83_"  style="overflow:visible;"/>
					</clipPath>
					
						<linearGradient id="SVGID_86_" gradientUnits="userSpaceOnUse" x1="4167.2422" y1="1120.1576" x2="4179.7329" y2="1107.667" gradientTransform="matrix(1 -6.240980e-03 6.240980e-03 1 -3833.9688 -805.4857)">
						<stop  offset="0" style="stop-color:#151B26"/>
						<stop  offset="1" style="stop-color:#333E57"/>
					</linearGradient>
					<polygon class="st62" points="352.4,288.9 340.5,289 340.4,275.9 352.3,275.8 					"/>
					
						<linearGradient id="SVGID_87_" gradientUnits="userSpaceOnUse" x1="4163.1689" y1="1117.5989" x2="4177.5659" y2="1117.5989" gradientTransform="matrix(1 -6.240980e-03 6.240980e-03 1 -3833.9688 -805.4857)">
						<stop  offset="0" style="stop-color:#151B26"/>
						<stop  offset="1" style="stop-color:#333E57"/>
					</linearGradient>
					<path class="st63" d="M349.2,281.7c4.3,7.1-3,14.6-10.2,10.3c-0.7-0.4-1.3-1-1.7-1.7c-4.3-7.1,3-14.6,10.2-10.3
						C348.2,280.5,348.8,281,349.2,281.7z"/>
				</g>
				<g>
					<defs>
						<path id="SVGID_88_" d="M346.4,289.8L346.4,289.8c0.2,0.6,0.7,0.9,1.3,0.7l1.5-0.4l3.4,10l-1.8,0.7l0.1,0.2
							c0.3,1,1.3,1.6,2.3,1.6l0,0l10.4,26.2c0.5,1.4,2.1,2,3.4,1.4l0,0l-9.9-29.7c-0.3-0.9-1.3-1.4-2.2-1l0,0l-3.4-9.9l1.1-0.4
							c0.5-0.2,0.8-0.7,0.7-1.3l0-0.1c-0.2-0.6-0.8-0.9-1.3-0.7l-4.8,1.6C346.6,288.7,346.3,289.3,346.4,289.8z"/>
					</defs>
					<clipPath id="SVGID_89_">
						<use xlink:href="#SVGID_88_"  style="overflow:visible;"/>
					</clipPath>
					
						<linearGradient id="SVGID_90_" gradientUnits="userSpaceOnUse" x1="4172.4185" y1="1140.0043" x2="4193.7529" y2="1140.0043" gradientTransform="matrix(1 -6.240980e-03 6.240980e-03 1 -3833.9688 -805.4857)">
						<stop  offset="0" style="stop-color:#EE4050"/>
						<stop  offset="1" style="stop-color:#D72538"/>
					</linearGradient>
					<polygon class="st64" points="367,331 345.6,331.1 345.4,285.8 366.7,285.7 					"/>
					
						<linearGradient id="SVGID_91_" gradientUnits="userSpaceOnUse" x1="17054.4668" y1="2374.9431" x2="17080.0859" y2="2374.9431" gradientTransform="matrix(0.2361 -7.754868e-02 0.3121 0.9501 -4415.6138 -624.2835)">
						<stop  offset="0" style="stop-color:#737374"/>
						<stop  offset="1" style="stop-color:#414242;stop-opacity:0"/>
					</linearGradient>
					<polygon class="st65" points="365.2,329.5 359.3,331.5 344.9,287.6 350.9,285.6 					"/>
				</g>
				<g>
					<defs>
						<polygon id="SVGID_92_" points="319.2,324 307.5,292.4 309.5,291.6 321.2,323.3 						"/>
					</defs>
					<clipPath id="SVGID_93_">
						<use xlink:href="#SVGID_92_"  style="overflow:visible;"/>
					</clipPath>
					<line class="st66" x1="307.4" y1="288.9" x2="320.2" y2="323.7"/>
					
						<rect x="305.6" y="291.5" transform="matrix(1 -6.270465e-03 6.270465e-03 1 -1.8592 1.9476)" class="st67" width="8.1" height="11.9"/>
					
						<linearGradient id="SVGID_94_" gradientUnits="userSpaceOnUse" x1="25408.8184" y1="-7089.7886" x2="25435.4688" y2="-7089.7886" gradientTransform="matrix(0.2724 0.3004 0.2803 0.9437 -4626.5352 -645.8951)">
						<stop  offset="8.571827e-02" style="stop-color:#737374;stop-opacity:0"/>
						<stop  offset="1" style="stop-color:#434444"/>
					</linearGradient>
					<polygon class="st68" points="311.4,310.4 314.8,309.1 308.6,291.7 305.2,293 					"/>
				</g>
				<g>
					<defs>
						<polygon id="SVGID_95_" points="291.7,325.2 289.3,321.5 305.2,303.8 313,301.1 321.7,324 319.2,324 312.1,304.9 308.2,305.1 
													"/>
					</defs>
					<clipPath id="SVGID_96_">
						<use xlink:href="#SVGID_95_"  style="overflow:visible;"/>
					</clipPath>
					
						<rect x="289.2" y="299.3" transform="matrix(1 -6.270465e-03 6.270465e-03 1 -1.9514 1.9197)" class="st69" width="31.9" height="25.8"/>
					
						<linearGradient id="SVGID_97_" gradientUnits="userSpaceOnUse" x1="4081.002" y1="1068.5505" x2="4110.415" y2="1068.5505" gradientTransform="matrix(1.0062 3.395339e-02 0 1.0454 -3815.78 -940.3009)">
						<stop  offset="8.571827e-02" style="stop-color:#737374;stop-opacity:0"/>
						<stop  offset="1" style="stop-color:#434444"/>
					</linearGradient>
					<polygon class="st70" points="298.9,331.5 320.1,323.7 311.6,300.3 290.5,308 					"/>
				</g>
				<g>
					<defs>
						<path id="SVGID_98_" d="M300.5,288.3c-2.3,2.6,3.6,5.9,3.6,5.9s14,0.5,13.2-3.4c-0.8-4-5.4-2-8.4-2.1
							C306,288.6,303.1,285.3,300.5,288.3z"/>
					</defs>
					<linearGradient id="SVGID_99_" gradientUnits="userSpaceOnUse" x1="299.9716" y1="290.6276" x2="317.365" y2="290.6276">
						<stop  offset="0" style="stop-color:#151B26"/>
						<stop  offset="1" style="stop-color:#333E57"/>
					</linearGradient>
					<use xlink:href="#SVGID_98_"  style="overflow:visible;fill:url(#SVGID_99_);"/>
					<clipPath id="SVGID_100_">
						<use xlink:href="#SVGID_98_"  style="overflow:visible;"/>
					</clipPath>
					
						<linearGradient id="SVGID_101_" gradientUnits="userSpaceOnUse" x1="4123.2231" y1="1121.9702" x2="4145.2539" y2="1121.9702" gradientTransform="matrix(1 -6.240980e-03 6.240980e-03 1 -3833.9688 -805.4857)">
						<stop  offset="0" style="stop-color:#151B26"/>
						<stop  offset="1" style="stop-color:#333E57"/>
					</linearGradient>
					<polygon class="st71" points="318.2,294.5 296.2,294.7 296.2,286.8 318.2,286.6 					"/>
					
						<linearGradient id="SVGID_102_" gradientUnits="userSpaceOnUse" x1="4128.8452" y1="1133.49" x2="4128.8452" y2="1119.9578" gradientTransform="matrix(1 -6.240980e-03 6.240980e-03 1 -3833.9688 -805.4857)">
						<stop  offset="0" style="stop-color:#151B26"/>
						<stop  offset="1" style="stop-color:#333E57"/>
					</linearGradient>
					<path class="st72" d="M307.4,291.4c4,6.6-2.9,13.6-9.5,9.7c-0.7-0.4-1.2-1-1.6-1.6c-4-6.6,2.9-13.6,9.5-9.7
						C306.4,290.2,307,290.8,307.4,291.4z"/>
				</g>
				<g>
					<defs>
						<path id="SVGID_103_" d="M350.8,300.7l-11.6,22.1c-2.2,4.3-6.5,6.9-11.3,7h0c0,2.9-2,7-7,7c-4.5,0-7.9-2.6-8-8.3l-18.9,0.1
							l-4.7-7.2l2.1,0l1.8,2.4c0,0,21-0.1,28.3-0.2c7.4,0,10.7-2.2,13.4-6.7c2.7-4.6,13.2-23.1,13.2-23.1l0-4.1l1.5-0.4l4,11
							L350.8,300.7z"/>
					</defs>
					<clipPath id="SVGID_104_">
						<use xlink:href="#SVGID_103_"  style="overflow:visible;"/>
					</clipPath>
					
						<linearGradient id="SVGID_105_" gradientUnits="userSpaceOnUse" x1="4115.9849" y1="1144.0979" x2="4182.3477" y2="1144.0979" gradientTransform="matrix(1 -6.240980e-03 6.240980e-03 1 -3833.9688 -805.4857)">
						<stop  offset="0" style="stop-color:#D8D8D7"/>
						<stop  offset="1" style="stop-color:#E4E4E3"/>
					</linearGradient>
					<polygon class="st73" points="355.6,338 289.3,338.4 288.9,287.4 355.3,287 					"/>
					<g class="st74">
						
							<linearGradient id="SVGID_106_" gradientUnits="userSpaceOnUse" x1="4144.2695" y1="1161.7676" x2="4150.4224" y2="1161.7676" gradientTransform="matrix(1 -6.240980e-03 6.240980e-03 1 -3833.9688 -805.4857)">
							<stop  offset="0" style="stop-color:#151B26"/>
							<stop  offset="1" style="stop-color:#333E57"/>
						</linearGradient>
						<path class="st75" d="M323.1,328.5c1.9,3.1-1.3,6.3-4.4,4.4c-0.2-0.2-0.5-0.4-0.6-0.6c-1.9-3.1,1.3-6.3,4.4-4.4
							C322.7,328,322.9,328.2,323.1,328.5z"/>
					</g>
					
						<linearGradient id="SVGID_107_" gradientUnits="userSpaceOnUse" x1="4115.0244" y1="1146.3157" x2="4181.9385" y2="1146.3157" gradientTransform="matrix(1 -6.240980e-03 6.240980e-03 1 -3833.9688 -805.4857)">
						<stop  offset="0" style="stop-color:#737374"/>
						<stop  offset="1" style="stop-color:#414242;stop-opacity:0"/>
					</linearGradient>
					<path class="st76" d="M355,298l-3.3-7.6l-15.5,28.6c-2.5,4-6.8,6.4-11.5,6.4l-36.5,0.6l0.1,13.4l43.2-0.6L355,298z"/>
				</g>
				
					<linearGradient id="SVGID_108_" gradientUnits="userSpaceOnUse" x1="-7446.9077" y1="-706.2497" x2="-7443.2881" y2="-706.7175" gradientTransform="matrix(-0.5661 -0.2091 0.2155 -0.5835 -3740.6372 -1642.3058)">
					<stop  offset="0" style="stop-color:#D8D8D7"/>
					<stop  offset="1" style="stop-color:#E4E4E3"/>
				</linearGradient>
				<path class="st77" d="M322.9,322.4l1.1,0.4l-2.9,7.8c-0.1,0.2-0.3,0.3-0.5,0.2l-0.4-0.1c-0.2-0.1-0.3-0.3-0.2-0.5L322.9,322.4z"
					/>
				
					<linearGradient id="SVGID_109_" gradientUnits="userSpaceOnUse" x1="3606.1162" y1="-11592.2949" x2="3612.2666" y2="-11594.8926" gradientTransform="matrix(-0.2075 0.5667 -0.3197 -0.1171 -2633.9753 -3079.4758)">
					<stop  offset="0" style="stop-color:#151B26"/>
					<stop  offset="1" style="stop-color:#333E57"/>
				</linearGradient>
				<path class="st78" d="M320.9,322.3l0.1-0.4c0.1-0.2,0.3-0.3,0.5-0.2l3.7,1.4c0.2,0.1,0.3,0.3,0.2,0.5l-0.1,0.4
					c-0.1,0.2-0.3,0.3-0.5,0.2l-3.7-1.4C320.9,322.7,320.8,322.5,320.9,322.3z"/>
			</g>
			<g>
				<defs>
					<path id="SVGID_110_" d="M329.8,269.1c1.9,1.5,16.4-1.3,17.8-2.3c1.3-0.9,2.6,1.4,5.1,0.5c1.2-0.4,3-3.8,1.2-5.7
						c-1.1-1.2-3.4-1.4-4.3-1c-0.1,0.1,0.3-3.1-1.1-3c-0.9,0.1-0.5,3.6-0.5,3.6s-0.9,2.4-1.7,2.6c-1.5,0.3-13.7-0.4-13.7-0.4
						s-8.2-15.3-14.5-12.4C309.9,254.6,327.1,266.9,329.8,269.1z"/>
				</defs>
				<clipPath id="SVGID_111_">
					<use xlink:href="#SVGID_110_"  style="overflow:visible;"/>
				</clipPath>
				
					<linearGradient id="SVGID_112_" gradientUnits="userSpaceOnUse" x1="886.6532" y1="-928.9557" x2="917.6349" y2="-928.9557" gradientTransform="matrix(1.3569 0.6568 -0.4357 0.9001 -1294.9655 504.6948)">
					<stop  offset="0" style="stop-color:#FFC65C"/>
					<stop  offset="1" style="stop-color:#FAB220"/>
				</linearGradient>
				<polygon class="st79" points="307.3,262.6 348.9,280.4 360.6,259.6 317.5,241.4 				"/>
				
					<linearGradient id="SVGID_113_" gradientUnits="userSpaceOnUse" x1="1087.8295" y1="-1087.1681" x2="1083.2864" y2="-1107.886" gradientTransform="matrix(0.8142 0.3124 -0.2966 0.7729 -874.7575 770.0646)">
					<stop  offset="0" style="stop-color:#737374;stop-opacity:0"/>
					<stop  offset="1" style="stop-color:#414242"/>
				</linearGradient>
				<path class="st80" d="M324.4,251.6c3.2,2.6,7,7.3,9.9,9.3c2.9,2,12.1,2.7,12.2,0.9c0.1-2.6,1.9-5.2,2.9-5
					c0.5,0.1,0.6,2.3,1.3,2.9c0.6,0.5,2.1-0.2,2.4,0.5c0.3,0.7,1.2,1.3,1.6,2.1c0.2,0.5-0.2,4.2-0.6,4.9c-0.3,0.6-18.9,3.4-22.8,2
					c-3.3-1.2-16.7-11.9-16-16.3S320.9,248.9,324.4,251.6z"/>
			</g>
		</g>
		<g id="articulo_12_bis_1_">
			<path class="st81" d="M327.9,363c-41.1,0-74.6-33.6-74.6-74.9c0-12.8,3.2-25.1,9.1-36l1.5,0.8c-5.8,10.6-8.9,22.7-8.9,35.2
				c0,40.4,32.7,73.2,72.8,73.2s72.8-32.8,72.8-73.2c0-12.2-3.1-24.2-8.8-34.8l1.3-1.2c6,10.9,9.2,23.3,9.2,36
				C402.5,329.4,369,363,327.9,363z"/>
			<g>
				<path class="st5" d="M276.3,242.9l-3,3.5l1.6,2.5l-2.2,2.6l-8.1-13l2.3-2.8l14.2,5.8l-2.2,2.6L276.3,242.9z M271.8,244.2l2-2.4
					l-5-2.2l0,0L271.8,244.2z"/>
				<path class="st5" d="M281,231.5l-0.9,0.8c-0.3,0.3-0.5,0.5-0.6,0.8c-0.1,0.3-0.1,0.5,0,0.8l4.7,5.4l-2.5,2.3l-7.2-8.2l2.4-2.1
					l1.1,1.1c-0.2-0.6-0.3-1.1-0.2-1.6c0.1-0.5,0.3-0.9,0.7-1.2c0.1-0.1,0.3-0.2,0.4-0.3c0.1-0.1,0.3-0.2,0.4-0.2L281,231.5z"/>
				<path class="st5" d="M282.8,223.1l1.5,2.2l1.5-1.1l1.3,1.9l-1.5,1.1l2.8,4.1c0.2,0.3,0.4,0.5,0.7,0.6c0.2,0,0.4,0,0.7-0.2
					c0.2-0.1,0.3-0.2,0.4-0.3c0.1-0.1,0.2-0.2,0.3-0.3l1.6,1.9c-0.3,0.3-0.5,0.5-0.7,0.7c-0.2,0.2-0.5,0.4-0.8,0.7
					c-0.9,0.6-1.8,0.9-2.6,0.7c-0.8-0.2-1.6-0.8-2.3-1.8l-2.9-4.1l-1.2,0.9l-1.3-1.9l1.2-0.9l-1.5-2.2L282.8,223.1z"/>
				<path class="st5" d="M287.8,218.5l3-1.7l0,0l-1.2,3.7l-2.4,1.4L287.8,218.5z M296.3,230.8l-3,1.7L288,223l3-1.7L296.3,230.8z"/>
				<path class="st5" d="M301.2,225.8c0.4-0.2,0.7-0.4,0.8-0.7c0.1-0.3,0.1-0.7-0.1-1.1l2.9-1.2l0,0c0.5,1.1,0.5,2.1,0,3.2
					c-0.5,1-1.3,1.8-2.5,2.3c-1.5,0.6-2.9,0.7-4.1,0.1c-1.2-0.6-2.1-1.7-2.8-3.2l-0.1-0.2c-0.6-1.5-0.7-2.9-0.3-4.2
					c0.4-1.3,1.4-2.3,2.9-2.9c1.3-0.5,2.4-0.6,3.5-0.2c1.1,0.4,1.8,1.2,2.3,2.4l0,0.1l-2.9,1.2c-0.2-0.5-0.5-0.8-0.8-1
					c-0.3-0.2-0.7-0.2-1.1-0.1c-0.6,0.2-0.9,0.7-0.9,1.3c0,0.6,0.1,1.3,0.5,2.1l0.1,0.2c0.3,0.8,0.7,1.5,1.2,1.8
					C300,226,300.6,226.1,301.2,225.8z"/>
				<path class="st5" d="M313,223.3c-0.2,0.6-0.6,1-1,1.4c-0.4,0.4-1,0.6-1.6,0.8c-1.1,0.3-2,0.1-2.8-0.4c-0.8-0.6-1.4-1.6-1.7-3.1
					l-1.5-6.5l3.3-0.8l1.5,6.5c0.1,0.6,0.4,1,0.7,1.2c0.3,0.2,0.6,0.3,1.1,0.2c0.3-0.1,0.6-0.2,0.9-0.4c0.2-0.2,0.4-0.4,0.6-0.6
					l-1.8-7.7l3.3-0.8l2.5,10.6l-2.9,0.7L313,223.3z"/>
				<path class="st5" d="M321.4,223.3l-3.4,0.4l-1.7-15.6l3.4-0.4L321.4,223.3z"/>
				<path class="st5" d="M322.6,217.5c0-1.6,0.5-3,1.4-4c0.9-1,2.2-1.5,3.9-1.5c1.7,0,2.9,0.6,3.8,1.6s1.3,2.4,1.3,4l0,0.2
					c0,1.6-0.5,3-1.4,4c-0.9,1-2.2,1.5-3.9,1.5c-1.7,0-2.9-0.6-3.9-1.6c-0.9-1-1.3-2.4-1.3-4L322.6,217.5z M326,217.8
					c0,0.9,0.1,1.6,0.4,2.2s0.8,0.8,1.4,0.8c0.7,0,1.1-0.2,1.4-0.8c0.3-0.5,0.5-1.2,0.5-2.1l0-0.2c0-0.9-0.1-1.6-0.4-2.1
					c-0.3-0.5-0.8-0.8-1.4-0.8c-0.7,0-1.1,0.2-1.4,0.8c-0.3,0.5-0.4,1.2-0.5,2.1L326,217.8z"/>
				<path class="st5" d="M345.6,225.8l-3.3-0.9l2.8-10.9l-3.1-0.8l0.6-2.3l6.7,0.7L345.6,225.8z"/>
				<path class="st5" d="M358.9,231.2l-9.3-4.3l0.9-2l6.3-2.5c0.8-0.4,1.5-0.7,2-1.1c0.5-0.4,0.8-0.7,1-1.1c0.2-0.5,0.3-1,0.2-1.4
					c-0.1-0.4-0.4-0.8-1-1c-0.5-0.2-0.9-0.2-1.4,0.1c-0.4,0.3-0.8,0.7-1.1,1.3l-3-1.4l0-0.1c0.5-1.2,1.4-2.1,2.6-2.6
					s2.5-0.4,3.9,0.2c1.5,0.7,2.4,1.6,2.9,2.6c0.5,1.1,0.4,2.3-0.1,3.5c-0.4,0.8-0.9,1.5-1.7,1.9c-0.7,0.4-2,1-3.7,1.8l-2.7,1.1
					l0,0.1l5.2,2.4L358.9,231.2z"/>
				<path class="st5" d="M364.1,234.5l9.2-11.3l3.9,3.2c1.4,1.2,2.3,2.3,2.6,3.5c0.4,1.2,0.1,2.3-0.7,3.3c-0.4,0.5-1,0.9-1.6,1.1
					c-0.6,0.2-1.2,0.2-1.9,0c0.5,0.7,0.8,1.4,0.7,2.1c-0.1,0.7-0.3,1.4-0.8,2c-0.9,1.1-1.9,1.6-3.1,1.6c-1.2,0-2.5-0.6-3.9-1.8
					L364.1,234.5z M370.7,231.8l-2.3,2.8l1.8,1.5c0.6,0.5,1.1,0.7,1.5,0.7s0.9-0.2,1.2-0.7c0.4-0.5,0.6-1,0.5-1.4
					c0-0.4-0.3-0.9-0.9-1.3L370.7,231.8z M372.1,230l1.3,1.1c0.6,0.5,1.1,0.7,1.6,0.7c0.5,0,0.9-0.2,1.2-0.6c0.4-0.5,0.5-1,0.4-1.4
					c-0.1-0.5-0.5-1-1.1-1.5l-1.2-1L372.1,230z"/>
				<path class="st5" d="M376,245.3l-2.3-2.5l7.9-7.4l2.3,2.5L376,245.3z M385.8,236.2l-2.3-2.5l1.7-1.6l2.3,2.5L385.8,236.2z"/>
				<path class="st5" d="M383,249.3c0.2-0.2,0.3-0.4,0.3-0.8c0-0.4-0.2-0.9-0.5-1.7c-0.5-1.2-0.8-2.2-0.8-3c0-0.8,0.4-1.5,1.2-2
					c0.8-0.6,1.7-0.7,2.7-0.5c1,0.3,1.9,0.9,2.7,2c0.9,1.2,1.3,2.3,1.3,3.4c0,1.1-0.4,1.9-1.3,2.5l-0.1,0l-1.9-2.7
					c0.3-0.3,0.5-0.5,0.6-0.8c0-0.3-0.1-0.7-0.4-1c-0.2-0.3-0.5-0.5-0.8-0.5c-0.3-0.1-0.6,0-0.8,0.1c-0.2,0.2-0.3,0.4-0.3,0.8
					c0,0.3,0.2,0.9,0.6,1.7c0.6,1.2,0.8,2.3,0.8,3.1c0,0.8-0.4,1.5-1.2,2.1c-0.8,0.6-1.7,0.7-2.7,0.4c-1-0.3-2-1.1-2.8-2.2
					c-0.9-1.2-1.3-2.4-1.2-3.5c0.1-1.1,0.5-2,1.3-2.5l0.1,0l1.8,2.5c-0.4,0.3-0.6,0.7-0.6,1c0,0.4,0.2,0.8,0.5,1.2
					c0.3,0.4,0.5,0.6,0.8,0.7C382.4,249.5,382.7,249.5,383,249.3z"/>
			</g>
		</g>
	</g>
</g>
</svg>
