<?xml version="1.0" encoding="utf-8"?>
<!-- Generator: Adobe Illustrator 22.0.1, SVG Export Plug-In . SVG Version: 6.00 Build 0)  -->
<svg version="1.1" id="Capa_1" xmlns="http://www.w3.org/2000/svg" xmlns:xlink="http://www.w3.org/1999/xlink" x="0px" y="0px"
	 viewBox="0 0 436.1 438.6" style="enable-background:new 0 0 436.1 438.6;" xml:space="preserve">
<style type="text/css">
	.st0{fill:url(#SVGID_1_);}
	.st1{fill:#CFD0D0;}
	.st2{fill:#FFFFFF;}
	.st3{fill:none;stroke:#CFD0D0;stroke-width:3;stroke-miterlimit:10;}
	.st4{fill:#211F1F;}
	.st5{fill:url(#SVGID_2_);}
</style>
<g>
	<g>
		<linearGradient id="SVGID_1_" gradientUnits="userSpaceOnUse" x1="218.0507" y1="438.6427" x2="218.0507" y2="0">
			<stop  offset="3.517618e-02" style="stop-color:#4F4D4D"/>
			<stop  offset="1" style="stop-color:#4F4D4D"/>
		</linearGradient>
		<rect x="0" y="0" class="st0" width="436.1" height="438.6"/>
	</g>
	<g>
		<g>
			<rect x="209.8" y="277.6" class="st1" width="18.3" height="124.3"/>
			<g>
				<path class="st2" d="M75.3,278.9c-9.4,0-14.9-7-14.9-13.7c0-4.7,3.3-9.8,6.5-14.1c0,0,130-194.7,135.4-202.8
					c0.7-1,6.9-10.4,15.1-10.4c10.2,0,16.2,10.2,16.5,10.6C235,50.2,367,249.6,368.9,252.3c2,2.9,5.5,7.9,5.5,13
					c0,7.7-6.2,13.5-14.4,13.5C359.9,278.8,77.1,278.9,75.3,278.9z M217.3,45.4c-3.1,0-7.3,4.8-8.7,6.9
					C207.3,54.4,78.1,252,76.8,254c-0.2,0.4-0.6,0.9-1,1.5c-1.4,1.9-5,7-5,9.7c0,3,2.6,6.1,7.3,6.1c1.7,0,281.9-0.1,281.9-0.1
					c4.7,0,6.8-3,6.8-5.9c0-2.7-2.7-6.5-3.9-8.4C361,254.4,232.7,60.7,227.3,52.4C227.1,52.2,223.1,45.4,217.3,45.4z"/>
			</g>
			<g>
				<g>
					<path class="st2" d="M370.8,357.3c0,6.7-5.5,12.3-12.2,12.3H79.4c-6.8,0-12.3-5.5-12.3-12.3v-49.8c0-6.7,5.5-12.3,12.3-12.3
						h279.2c6.7,0,12.2,5.5,12.2,12.3V357.3z"/>
				</g>
				<g>
					<path class="st3" d="M370.8,355.5c0,6.7-5.5,12.3-12.2,12.3H79.4c-6.8,0-12.3-5.5-12.3-12.3v-47.9c0-6.7,5.5-12.3,12.3-12.3
						h279.2c6.7,0,12.2,5.5,12.2,12.3V355.5z"/>
				</g>
				<g>
					<path class="st4" d="M87.1,348.7v-34.3h11.1c4.2,0,6.9,0.2,8.2,0.6c2,0.5,3.6,1.6,4.9,3.3c1.3,1.7,2,4,2,6.7
						c0,2.1-0.4,3.9-1.1,5.4c-0.8,1.4-1.8,2.6-2.9,3.3c-1.2,0.8-2.4,1.3-3.6,1.6c-1.7,0.3-4.1,0.5-7.2,0.5H94v12.9H87.1z M94,320.1
						v9.8h3.8c2.8,0,4.6-0.2,5.5-0.6c0.9-0.4,1.6-0.9,2.2-1.7c0.5-0.7,0.8-1.7,0.8-2.7c0-1.2-0.4-2.3-1.1-3
						c-0.7-0.9-1.7-1.4-2.8-1.6c-0.8-0.2-2.5-0.3-5-0.3H94z"/>
					<path class="st4" d="M119.1,348.7v-34.3h14.6c3.6,0,6.3,0.3,8,0.9c1.7,0.7,3,1.7,4,3.3c1,1.5,1.5,3.4,1.5,5.4
						c0,2.6-0.8,4.7-2.3,6.4c-1.5,1.7-3.8,2.7-6.8,3.2c1.5,0.8,2.7,1.8,3.7,2.8c1,1.1,2.3,2.9,3.9,5.6l4.2,6.7h-8.3l-5-7.4
						c-1.8-2.7-3-4.4-3.6-5.1c-0.7-0.7-1.4-1.2-2.1-1.4c-0.7-0.3-1.9-0.4-3.5-0.4H126v14.3H119.1z M126,328.9h5.1
						c3.4,0,5.4-0.2,6.3-0.4c0.8-0.3,1.5-0.8,1.9-1.5c0.5-0.6,0.7-1.5,0.7-2.6c0-1.1-0.3-2.1-0.9-2.8c-0.6-0.7-1.5-1.1-2.6-1.3
						c-0.5-0.1-2.2-0.2-5-0.2H126V328.9z"/>
					<path class="st4" d="M153.5,348.7v-34.3h6.9v34.3H153.5z"/>
					<path class="st4" d="M165.6,331.7c0-3.4,0.5-6.4,1.6-8.8c0.8-1.7,1.8-3.3,3.2-4.7c1.4-1.4,2.8-2.4,4.4-3.1
						c2.2-0.9,4.7-1.4,7.5-1.4c5.1,0,9.1,1.6,12.1,4.7c3.1,3.2,4.6,7.6,4.6,13.1c0,5.6-1.5,9.9-4.5,13.1c-3,3.1-7,4.6-12.1,4.6
						c-5.1,0-9.2-1.5-12.2-4.6C167.1,341.5,165.6,337.2,165.6,331.7z M172.8,331.4c0,3.9,0.9,6.9,2.7,8.9c1.8,2,4.1,3,6.8,3
						c2.7,0,5-1,6.8-3c1.8-1.9,2.6-4.9,2.6-8.9c0-3.9-0.9-6.8-2.6-8.8c-1.7-1.9-4-2.9-6.9-2.9c-2.9,0-5.2,1-6.9,2.9
						C173.7,324.6,172.8,327.5,172.8,331.4z"/>
					<path class="st4" d="M204.3,348.7v-34.3h14.6c3.7,0,6.3,0.3,8,0.9c1.7,0.7,3,1.7,4,3.3c1,1.5,1.5,3.4,1.5,5.4
						c0,2.6-0.7,4.7-2.3,6.4c-1.5,1.7-3.8,2.7-6.8,3.2c1.5,0.8,2.7,1.8,3.7,2.8c1,1.1,2.3,2.9,3.9,5.6l4.2,6.7h-8.3l-5-7.4
						c-1.8-2.7-3-4.4-3.7-5.1c-0.6-0.7-1.3-1.2-2.1-1.4c-0.7-0.3-1.9-0.4-3.5-0.4h-1.4v14.3H204.3z M211.3,328.9h5.1
						c3.3,0,5.4-0.2,6.2-0.4c0.8-0.3,1.5-0.8,2-1.5c0.4-0.6,0.7-1.5,0.7-2.6c0-1.1-0.3-2.1-0.9-2.8c-0.6-0.7-1.5-1.1-2.6-1.3
						c-0.6-0.1-2.3-0.2-5.1-0.2h-5.4V328.9z"/>
					<path class="st4" d="M238.8,348.7v-34.3h7v34.3H238.8z"/>
					<path class="st4" d="M252.3,314.3h12.7c2.9,0,5,0.3,6.5,0.6c2,0.7,3.7,1.6,5.2,3.1c1.4,1.6,2.5,3.4,3.3,5.6
						c0.8,2.2,1.1,4.9,1.1,8c0,2.9-0.3,5.3-1,7.3c-0.8,2.5-2.1,4.5-3.7,6.1c-1.2,1.2-2.9,2.1-4.9,2.7c-1.5,0.5-3.5,0.8-6.1,0.8h-13
						V314.3z M259.2,320.1v22.8h5.2c1.9,0,3.3-0.1,4.2-0.4c1.1-0.2,2.1-0.8,2.8-1.4c0.7-0.6,1.3-1.7,1.8-3.3
						c0.5-1.5,0.7-3.6,0.7-6.3c0-2.7-0.3-4.7-0.7-6.1c-0.5-1.4-1.1-2.5-1.9-3.3c-0.9-0.8-1.9-1.3-3.2-1.6c-1-0.2-2.9-0.4-5.7-0.4
						H259.2z"/>
					<path class="st4" d="M317.9,348.7h-7.5l-3-7.7h-13.7l-2.8,7.7h-7.4l13.4-34.3h7.3L317.9,348.7z M305.1,335.1l-4.7-12.8
						l-4.6,12.8H305.1z"/>
					<path class="st4" d="M321.6,314.3h12.6c2.8,0,5,0.3,6.5,0.6c2,0.7,3.7,1.6,5.2,3.1c1.5,1.6,2.5,3.4,3.3,5.6
						c0.8,2.2,1.1,4.9,1.1,8c0,2.9-0.4,5.3-1.1,7.3c-0.8,2.5-2.1,4.5-3.7,6.1c-1.2,1.2-2.8,2.1-4.9,2.7c-1.5,0.5-3.6,0.8-6.1,0.8
						h-13V314.3z M328.5,320.1v22.8h5.2c1.9,0,3.3-0.1,4.2-0.4c1.1-0.2,2-0.8,2.8-1.4c0.7-0.6,1.4-1.7,1.8-3.3
						c0.5-1.5,0.7-3.6,0.7-6.3c0-2.7-0.2-4.7-0.7-6.1c-0.4-1.4-1.1-2.5-1.9-3.3c-0.9-0.8-1.9-1.3-3.2-1.6c-1-0.2-2.9-0.4-5.7-0.4
						H328.5z"/>
				</g>
			</g>
		</g>
		
			<linearGradient id="SVGID_2_" gradientUnits="userSpaceOnUse" x1="5104.2197" y1="-6324.1538" x2="5407.3818" y2="-6324.1538" gradientTransform="matrix(1 0 0 1 -5037.1436 6482.5186)">
			<stop  offset="0" style="stop-color:#3BB24A"/>
			<stop  offset="1" style="stop-color:#3A834A"/>
		</linearGradient>
		<path class="st5" d="M359.6,275c6.7,0,10.6-4.6,10.6-9.7c0-4-3.2-8.5-4.8-10.8c-1.6-2.3-135-204.2-135-204.2s-5.1-8.7-13.2-8.7
			c-6.3,0-11.9,8.7-11.9,8.7S75.3,248.2,73,251.9c-2.3,3.7-5.9,8.7-5.9,13.4c0,5.1,4.2,9.8,11,9.8C79.8,275.1,359.6,275,359.6,275z"
			/>
		<path class="st2" d="M266.6,171.4c-6,0-11.7,1.8-16.4,5l-10.2-12l0.9-4.3l9-3.6c1-0.4,1.7-1.5,1.4-2.6c-0.2-1.1-1.2-1.9-2.4-1.9
			l-22.3,0.8c-1.1,0-2.1,0.9-2.2,2.1c-0.1,1.1,0.6,2.2,1.7,2.5l10,2.7c-0.2,1-0.4,1.9-0.6,2.6l-43.3-0.4l3.2-8.5
			c0.1-0.3,0.1-0.5,0.1-0.8c0-0.6-0.3-1.3-0.8-1.7c-0.9-0.8-1.6-2-1.6-2.5v0c0,0,0.2-0.2,0.7-0.5c0.9,0,11.6,0,11.6,0
			c1.3,0,2.3-1.1,2.3-2.3c0-1.3-1.1-2.4-2.3-2.4h-12c-0.3,0-0.6,0.1-0.8,0.1c-2.9,1.1-3.9,2.8-4.1,4.1c-0.1,0.3-0.1,0.6-0.1,0.9
			c0,1.9,1.1,3.7,2,4.8c-0.4,1.3-2.9,7.9-5.3,14.1l-0.9,2.5l0,0c-0.8,2.1-1.5,4-2.1,5.6c-4.5-2.8-9.8-4.3-15.5-4.3
			c-16.5,0-29.8,13.4-29.8,29.8c0,16.4,13.4,29.7,29.8,29.7c16.4,0,29.8-13.3,29.8-29.7c0-9-4-17.1-10.4-22.6l1.3-3.4l33.6,33.5v0
			c0.1,0.1,0.2,0.2,0.4,0.3c0,0,0,0.1,0.1,0.1c0.1,0,0.1,0,0.2,0.1l1.6,5.2c-1.1,0.2-2.1,1.1-2.1,2.3c0,1.3,1.1,2.3,2.3,2.3h6.4
			c1.3,0,2.4-1,2.4-2.3c0-1.3-1.1-2.3-2.4-2.3h-1.8l-1.7-5.5l11-1.6c2.9,13.4,14.8,23.6,29.1,23.6c16.4,0,29.8-13.3,29.8-29.7
			C296.4,184.8,283,171.4,266.6,171.4z M191.8,201.2c0,13.8-11.3,25.1-25.1,25.1c-13.9,0-25.1-11.2-25.1-25.1
			c0-13.8,11.2-25.1,25.1-25.1c5.1,0,9.9,1.5,13.8,4.2c-3.5,10.3-15.1,18.8-15.2,18.9c-0.6,0.5-1,1.2-1,1.9c0,0.5,0.2,1,0.5,1.4
			c0.7,1.1,2.2,1.3,3.2,0.5c0.5-0.3,11.8-8.6,16.4-19.6C188.9,187.9,191.8,194.2,191.8,201.2z M223.1,198.6l-0.6-1.9h0.3
			c0.4,0,0.7-0.1,1-0.2C223.6,197.2,223.4,197.9,223.1,198.6z M222.9,192.1h-5.8c-1.3,0-2.3,1-2.3,2.3c0,1.3,1,2.3,2.3,2.3h0.6
			l0.9,3.1l-29.4-29.4c0.5-1.2,0.8-2.2,1.3-3.4c2.6,0,34.7,0.3,43.7,0.4c-1.8,5.3-6,16.8-9.1,26
			C224.6,192.6,223.8,192.1,222.9,192.1z M226.1,204.3l12.2-34.6c1.8,2.2,4.8,5.7,8.1,9.6c-5.9,5.5-9.7,13.3-9.7,21.9
			c0,0.5,0,1,0,1.5C232.5,203.3,228.6,203.9,226.1,204.3z M241.5,201.2c0-7.2,3.1-13.8,8.1-18.4c5.7,6.7,11.5,13.6,13.6,16.1
			c-3.3,0.5-12.8,1.9-21.6,3.1C241.5,201.7,241.5,201.5,241.5,201.2z M266.6,226.3c-12,0-22-8.4-24.5-19.6l25.9-3.8
			c0.8-0.1,1.6-0.7,1.9-1.5c0.3-0.8,0.2-1.7-0.4-2.4L253.2,180c3.9-2.4,8.5-3.9,13.4-3.9c13.9,0,25.1,11.3,25.1,25.1
			C291.7,215,280.4,226.3,266.6,226.3z"/>
		<g>
			<path class="st3" d="M201.6,46.8c0.7-1.1,7.1-10,15.4-10c10.4,0,16.6,9.8,16.9,10.2c3.4,5.2,138.4,207.8,138.4,207.8
				s3.4,5.2,3.4,11.9c0,7.8-7.5,13.8-16,13.8H76.3c-8.4,0-16-5.9-16-13.8c0-6.7,3.4-11.9,3.4-11.9L201.6,46.8z"/>
		</g>
	</g>
</g>
</svg>
