<?xml version="1.0" encoding="utf-8"?>
<!-- Generator: Adobe Illustrator 22.0.1, SVG Export Plug-In . SVG Version: 6.00 Build 0)  -->
<svg version="1.1" id="Capa_1" xmlns="http://www.w3.org/2000/svg" xmlns:xlink="http://www.w3.org/1999/xlink" x="0px" y="0px"
	 viewBox="0 0 436.8 438.7" style="enable-background:new 0 0 436.8 438.7;" xml:space="preserve">
<style type="text/css">
	.st0{fill:url(#SVGID_1_);}
	.st1{fill:#3B824A;}
	.st2{fill:#FFFFFF;}
	.st3{clip-path:url(#SVGID_3_);}
	.st4{fill:#B2B2B2;}
	.st5{fill:url(#SVGID_4_);}
	.st6{fill:url(#SVGID_5_);}
	.st7{fill:url(#SVGID_6_);}
	.st8{fill:url(#SVGID_7_);}
	.st9{fill:url(#SVGID_8_);}
	.st10{fill:url(#SVGID_9_);}
	.st11{fill:url(#SVGID_10_);}
	.st12{fill:url(#SVGID_11_);}
	.st13{fill:url(#SVGID_12_);}
	.st14{fill:url(#SVGID_13_);}
	.st15{fill:url(#SVGID_14_);}
	.st16{fill:#D6D5D4;}
	.st17{fill:url(#SVGID_15_);}
	.st18{opacity:0.5;fill:url(#SVGID_16_);}
	.st19{opacity:0.5;fill:url(#SVGID_17_);}
	.st20{opacity:0.5;fill:url(#SVGID_18_);}
	.st21{fill:url(#SVGID_19_);}
	.st22{fill:url(#SVGID_20_);}
	.st23{opacity:0.5;fill:url(#SVGID_21_);}
	.st24{opacity:0.25;clip-path:url(#SVGID_23_);fill:url(#SVGID_24_);}
	.st25{fill:url(#SVGID_25_);}
	.st26{fill:url(#SVGID_26_);}
	.st27{opacity:0.25;fill:url(#SVGID_27_);}
</style>
<g>
	<g>
		<linearGradient id="SVGID_1_" gradientUnits="userSpaceOnUse" x1="218.4164" y1="438.731" x2="218.4164" y2="0">
			<stop  offset="3.517618e-02" style="stop-color:#4F4D4D"/>
			<stop  offset="1" style="stop-color:#4F4D4D"/>
		</linearGradient>
		<rect x="0" y="0" class="st0" width="436.8" height="438.7"/>
	</g>
	<g>
		<g>
			<polygon class="st1" points="12.1,188.3 12.1,61.3 424.8,61.3 424.8,188.3 			"/>
			<path class="st2" d="M430.1,191.8H8.1V57.8l422,0V191.8z M16.1,184.9H422V64.8l-405.9,0V184.9z"/>
		</g>
		<g>
			<g>
				<rect x="112.9" y="7.4" class="st2" width="15.5" height="39.9"/>
				<rect x="137.5" y="7.4" class="st2" width="15.5" height="39.9"/>
				<rect x="162.1" y="7.4" class="st2" width="15.5" height="39.9"/>
				<rect x="186.7" y="7.4" class="st2" width="15.5" height="39.9"/>
				<rect x="211.3" y="7.4" class="st2" width="15.5" height="39.9"/>
				<rect x="236" y="7.4" class="st2" width="15.5" height="39.9"/>
				<rect x="260.6" y="7.4" class="st2" width="15.5" height="39.9"/>
				<rect x="285.2" y="7.4" class="st2" width="15.5" height="39.9"/>
				<rect x="309.8" y="7.4" class="st2" width="15.5" height="39.9"/>
			</g>
			<g>
				<rect x="334.4" y="7.4" class="st2" width="15.5" height="39.9"/>
				<rect x="359.1" y="7.4" class="st2" width="15.5" height="39.9"/>
				<rect x="383.7" y="7.4" class="st2" width="15.5" height="39.9"/>
				<rect x="408.3" y="7.4" class="st2" width="15.5" height="39.9"/>
			</g>
			<g>
				<rect x="39" y="7.4" class="st2" width="15.5" height="39.9"/>
				<rect x="63.6" y="7.4" class="st2" width="15.5" height="39.9"/>
				<rect x="88.3" y="7.4" class="st2" width="15.5" height="39.9"/>
			</g>
			<g>
				<rect x="14.4" y="7.4" class="st2" width="15.5" height="39.9"/>
			</g>
		</g>
		<g>
			<defs>
				<rect id="SVGID_2_" x="89.6" y="201.9" width="259" height="236.9"/>
			</defs>
			<clipPath id="SVGID_3_">
				<use xlink:href="#SVGID_2_"  style="overflow:visible;"/>
			</clipPath>
			<g id="carro_amarillo_9_" class="st3">
				<path class="st4" d="M303.7,308.1c0,0-77.8-81.4-92.5-81.8s-60.6,30.9-60.6,30.9l-30.2,58l-0.6-10c0-2.6,2.8-38.3,18.1-58.6
					c14.7-19.7,45.7-30.2,71-30.4c46.2-0.5,78.2,24.2,78.2,24.2c27.5,29.8,21.8,62.3,21.8,64.9l-0.7,8.3L303.7,308.1z"/>
				<g>
					<path class="st4" d="M300.2,615.8l-161.9,1.4l-4.7,0l0.1,5.6c0,2.6,2.1,4.7,4.7,4.6l161.9-1.4c2.6,0,4.6-2.1,4.6-4.7l-0.1-5.6
						L300.2,615.8z"/>
					
						<linearGradient id="SVGID_4_" gradientUnits="userSpaceOnUse" x1="6249.3936" y1="-3186.1897" x2="6249.3936" y2="-3099.6279" gradientTransform="matrix(1 -8.454138e-03 8.454138e-03 1 -5913.7578 3755.1196)">
						<stop  offset="0" style="stop-color:#151B26"/>
						<stop  offset="1" style="stop-color:#151B26"/>
					</linearGradient>
					<path class="st5" d="M320.3,559.4c0.2,23.9,0.5,43.3-5.9,43.3c-0.8,0-6.8,0.1-8.2,0.1c-7.4,0.1-8.7-22.3-8.9-43.2
						c-0.2-20.9,1.5-38.8,7.7-42.9c0.9-0.6,7.8-0.5,8.6-0.5C320.1,516.1,320.1,535.5,320.3,559.4z"/>
					
						<linearGradient id="SVGID_5_" gradientUnits="userSpaceOnUse" x1="-6554.2637" y1="-3185.6785" x2="-6554.2637" y2="-3099.1169" gradientTransform="matrix(-1 8.454138e-03 8.454138e-03 1 -6404.8296 3759.2712)">
						<stop  offset="0" style="stop-color:#151B26"/>
						<stop  offset="1" style="stop-color:#151B26"/>
					</linearGradient>
					<path class="st6" d="M111.1,561.7c0.2,23.9,0.2,43.3,6.6,43.2c0.8,0,6.8-0.1,8.2-0.1c7.4-0.1,8.3-22.4,8.1-43.3
						c-0.2-20.9-2.1-38.7-8.4-42.7c-0.9-0.6-7.8-0.4-8.7-0.4C110.6,518.4,110.9,537.8,111.1,561.7z"/>
					
						<linearGradient id="SVGID_6_" gradientUnits="userSpaceOnUse" x1="6257.7739" y1="-3389.4114" x2="6257.7739" y2="-3302.8496" gradientTransform="matrix(1 -8.454138e-03 8.454138e-03 1 -5913.7578 3755.1196)">
						<stop  offset="0" style="stop-color:#151B26"/>
						<stop  offset="1" style="stop-color:#151B26"/>
					</linearGradient>
					<path class="st7" d="M327,356.1c0.2,23.9,0.5,43.3-5.9,43.3c-0.8,0-6.8,0.1-8.2,0.1c-7.4,0.1-8.7-22.3-8.9-43.2
						c-0.2-20.9,1.5-38.8,7.7-42.9c0.9-0.6,7.8-0.5,8.6-0.5C326.8,312.8,326.8,332.2,327,356.1z"/>
					
						<linearGradient id="SVGID_7_" gradientUnits="userSpaceOnUse" x1="-6550.7012" y1="-3389.2471" x2="-6550.7012" y2="-3302.6855" gradientTransform="matrix(-1 8.454138e-03 8.454138e-03 1 -6404.8296 3759.2712)">
						<stop  offset="0" style="stop-color:#151B26"/>
						<stop  offset="1" style="stop-color:#151B26"/>
					</linearGradient>
					<path class="st8" d="M105.9,358.1c0.2,23.9,0.2,43.3,6.6,43.2c0.8,0,6.8-0.1,8.2-0.1c7.4-0.1,8.3-22.4,8.1-43.3
						c-0.2-20.9-2.1-38.7-8.4-42.7c-0.9-0.6-7.8-0.4-8.7-0.4C105.3,314.9,105.7,334.2,105.9,358.1z"/>
					
						<linearGradient id="SVGID_8_" gradientUnits="userSpaceOnUse" x1="6044.5562" y1="-3167.0488" x2="6093.8672" y2="-3117.7375" gradientTransform="matrix(1 -8.454138e-03 8.454138e-03 1 -5913.7578 3755.1196)">
						<stop  offset="0" style="stop-color:#D72538"/>
						<stop  offset="1" style="stop-color:#D72538"/>
					</linearGradient>
					<polygon class="st9" points="135.1,604.8 123,604.9 122.3,518.3 134.3,518.2 					"/>
					
						<linearGradient id="SVGID_9_" gradientUnits="userSpaceOnUse" x1="6218.7007" y1="-3167.5593" x2="6268.0122" y2="-3118.248" gradientTransform="matrix(1 -8.454138e-03 8.454138e-03 1 -5913.7578 3755.1196)">
						<stop  offset="0" style="stop-color:#D72538"/>
						<stop  offset="1" style="stop-color:#D72538"/>
					</linearGradient>
					<polygon class="st10" points="309.2,602.8 297.1,602.9 296.4,516.3 308.5,516.2 					"/>
					
						<linearGradient id="SVGID_10_" gradientUnits="userSpaceOnUse" x1="6039.2983" y1="-3370.6223" x2="6088.6094" y2="-3321.311" gradientTransform="matrix(1 -8.454138e-03 8.454138e-03 1 -5913.7578 3755.1196)">
						<stop  offset="0" style="stop-color:#2D53A0"/>
						<stop  offset="1" style="stop-color:#272E5D"/>
					</linearGradient>
					<polygon class="st11" points="128.1,401.2 116,401.3 115.3,314.8 127.4,314.7 					"/>
					
						<linearGradient id="SVGID_11_" gradientUnits="userSpaceOnUse" x1="6228.1533" y1="-3370.7859" x2="6277.4644" y2="-3321.4746" gradientTransform="matrix(1 -8.454138e-03 8.454138e-03 1 -5913.7578 3755.1196)">
						<stop  offset="0" style="stop-color:#2D53A0"/>
						<stop  offset="1" style="stop-color:#272E5D"/>
					</linearGradient>
					<polygon class="st12" points="316.9,399.5 304.9,399.6 304.1,313 316.2,312.9 					"/>
					
						<linearGradient id="SVGID_12_" gradientUnits="userSpaceOnUse" x1="-3364.658" y1="-7412.5308" x2="-3276.5649" y2="-7412.5308" gradientTransform="matrix(8.454138e-03 1 -1 8.454138e-03 -7170.2529 3652.8862)">
						<stop  offset="0" style="stop-color:#272E5D"/>
						<stop  offset="1" style="stop-color:#2D53A0"/>
					</linearGradient>
					<path class="st13" d="M120.8,314.6c0,0-1.2-88,86.4-88.8c113.1-1.1,100,87.2,100,87.2L120.8,314.6z"/>
					
						<linearGradient id="SVGID_13_" gradientUnits="userSpaceOnUse" x1="519.5648" y1="1265.0757" x2="857.0618" y2="1265.0757" gradientTransform="matrix(-0.8512 -0.5248 0.5248 -0.8512 132.1433 1889.2019)">
						<stop  offset="0" style="stop-color:#272E5D"/>
						<stop  offset="1" style="stop-color:#2D53A0"/>
					</linearGradient>
					<path class="st14" d="M120.8,314.6L96,314.8l0.2,20.8l24.9,6.4l2,262.5c0,0,1.4,12.6,10.6,12.8c9.2,0.2,165.1-1.4,171.2-1.4
						c6.1-0.1,4.6-12.9,4.6-12.9l-2-261.9l26.9-7.5l-0.2-20.8l-35.8,0.3l0,0L120.8,314.6L120.8,314.6z"/>
					
						<linearGradient id="SVGID_14_" gradientUnits="userSpaceOnUse" x1="6272.2949" y1="-3558.6396" x2="6304.6133" y2="-3558.6396" gradientTransform="matrix(1 8.266938e-03 -8.266938e-03 1 -6065.7173 3741.3433)">
						<stop  offset="0" style="stop-color:#F8B01C"/>
						<stop  offset="1" style="stop-color:#F7EE63"/>
					</linearGradient>
					<polygon class="st15" points="268,244.1 235.7,243.9 235.9,225.5 268.2,225.8 					"/>
					<polygon class="st16" points="298.2,313.1 268.2,398.8 166,399.7 131.8,314.5 					"/>
					
						<linearGradient id="SVGID_15_" gradientUnits="userSpaceOnUse" x1="-3392.8245" y1="-7453.2119" x2="-3378.4409" y2="-7453.2119" gradientTransform="matrix(-8.266938e-03 1 -1 -8.266938e-03 -7228.2261 3562.9036)">
						<stop  offset="0" style="stop-color:#272E5D"/>
						<stop  offset="1" style="stop-color:#2D53A0"/>
					</linearGradient>
					<polygon class="st17" points="232.7,246 232.8,231.6 272.7,232 272.6,246.4 					"/>
					<polygon class="st16" points="128.8,347.2 155.6,416 155.1,506.6 134.6,533.9 					"/>
					
						<linearGradient id="SVGID_16_" gradientUnits="userSpaceOnUse" x1="-672.0175" y1="-7913.3252" x2="-570.0568" y2="-7913.3252" gradientTransform="matrix(0.3709 0.9287 -0.9287 0.3709 -6909.4399 3878.8831)">
						<stop  offset="0" style="stop-color:#D6D5D4"/>
						<stop  offset="1" style="stop-color:#D6D5D4;stop-opacity:0"/>
					</linearGradient>
					<path class="st18" d="M218.9,313.3c-53.7-1.5-50.7,66.1-53,86.3l102.2-0.9C264.4,376,260.2,314.5,218.9,313.3z"/>
					
						<linearGradient id="SVGID_17_" gradientUnits="userSpaceOnUse" x1="-3197.551" y1="6021.4033" x2="-3078.8167" y2="6021.4033" gradientTransform="matrix(8.454138e-03 1 1 -8.454138e-03 -5850.1797 3663.3755)">
						<stop  offset="0" style="stop-color:#D6D5D4"/>
						<stop  offset="1" style="stop-color:#D6D5D4;stop-opacity:0"/>
					</linearGradient>
					<path class="st19" d="M143.9,415c7.2-0.1,11,67.6,11.2,91.6l-20.5,27.3C134.4,509.8,136.7,415.1,143.9,415z"/>
					<polygon class="st16" points="298.2,345.8 272.6,415 271.1,508.1 300.6,536.1 					"/>
					
						<linearGradient id="SVGID_18_" gradientUnits="userSpaceOnUse" x1="-3198.4087" y1="-6655.1499" x2="-3078.6484" y2="-6655.1499" gradientTransform="matrix(8.454138e-03 1 -1 8.454138e-03 -6344.3931 3667.554)">
						<stop  offset="0" style="stop-color:#D6D5D4"/>
						<stop  offset="1" style="stop-color:#D6D5D4;stop-opacity:0"/>
					</linearGradient>
					<path class="st20" d="M285.5,413c-7.2,0.1-13.5,72.8-13.3,96.8l24.2,22.9C296.3,508.6,292.7,412.9,285.5,413z"/>
					
						<linearGradient id="SVGID_19_" gradientUnits="userSpaceOnUse" x1="-2973.8938" y1="-7473.4971" x2="-2968.6995" y2="-7473.4971" gradientTransform="matrix(8.454138e-03 1 -1 8.454138e-03 -7170.2529 3652.8862)">
						<stop  offset="0" style="stop-color:#F8B01C"/>
						<stop  offset="1" style="stop-color:#FDC55F"/>
					</linearGradient>
					<polygon class="st21" points="264.8,621.2 264.7,616 290.9,615.8 291,621 					"/>
					
						<linearGradient id="SVGID_20_" gradientUnits="userSpaceOnUse" x1="-2973.8896" y1="-7356.4985" x2="-2968.6951" y2="-7356.4985" gradientTransform="matrix(8.454138e-03 1 -1 8.454138e-03 -7170.2529 3652.8862)">
						<stop  offset="0" style="stop-color:#F8B01C"/>
						<stop  offset="1" style="stop-color:#FDC55F"/>
					</linearGradient>
					<polygon class="st22" points="147.8,622.2 147.7,617 173.9,616.8 174,622 					"/>
					<path class="st16" d="M146.8,536.2c11.6-14,21.9-22.7,21.9-22.7l90.8,0c0,0,3.1,2.6,21.9,20.6c16.2,15.5-4.7,14.5-4.7,14.5
						l-127.4,1.9C149.2,550.4,135.2,550.2,146.8,536.2z"/>
					
						<linearGradient id="SVGID_21_" gradientUnits="userSpaceOnUse" x1="-420.5109" y1="5837.6484" x2="-368.6641" y2="5837.6484" gradientTransform="matrix(-0.3709 -0.9287 0.9287 -0.3709 -5351.5356 2320.9294)">
						<stop  offset="0" style="stop-color:#D6D5D4"/>
						<stop  offset="1" style="stop-color:#D6D5D4;stop-opacity:0"/>
					</linearGradient>
					<path class="st23" d="M211.7,538.9c53.7,1.5,45.5-5.2,47.7-25.4l-90.8,0C172.5,536.2,170.4,537.7,211.7,538.9z"/>
					<g>
						<defs>
							<path id="SVGID_22_" d="M120.8,314.6c0,0-0.7-95.4,96.3-88.7c83.5,5.8,90.9,65.3,91.1,74.3s-1,12.8-1,12.8L120.8,314.6z"/>
						</defs>
						<clipPath id="SVGID_23_">
							<use xlink:href="#SVGID_22_"  style="overflow:visible;"/>
						</clipPath>
						
							<linearGradient id="SVGID_24_" gradientUnits="userSpaceOnUse" x1="5982.9775" y1="-3432.3044" x2="6161.5752" y2="-3432.3044" gradientTransform="matrix(1 -8.454138e-03 8.454138e-03 1 -5913.7578 3755.1196)">
							<stop  offset="0" style="stop-color:#414242;stop-opacity:0"/>
							<stop  offset="1" style="stop-color:#737374"/>
						</linearGradient>
						<ellipse class="st24" cx="129.3" cy="271.6" rx="89.3" ry="89.7"/>
					</g>
					
						<linearGradient id="SVGID_25_" gradientUnits="userSpaceOnUse" x1="6226.8452" y1="-3476.3186" x2="6259.1636" y2="-3476.3186" gradientTransform="matrix(0.9999 -1.629517e-02 1.629517e-02 0.9999 -6014.1416 3813.0183)">
						<stop  offset="0" style="stop-color:#F8B01C"/>
						<stop  offset="1" style="stop-color:#F7EE63"/>
					</linearGradient>
					<polygon class="st25" points="187.7,244.4 155.4,244.9 155.1,226.5 187.4,226 					"/>
					
						<linearGradient id="SVGID_26_" gradientUnits="userSpaceOnUse" x1="-3310.5039" y1="-7407.7617" x2="-3296.1194" y2="-7407.7617" gradientTransform="matrix(1.629517e-02 0.9999 -0.9999 1.629517e-02 -7180.6826 3663.1843)">
						<stop  offset="0" style="stop-color:#272E5D"/>
						<stop  offset="1" style="stop-color:#2D53A0"/>
					</linearGradient>
					<polygon class="st26" points="152.4,247.1 152.2,232.7 192.1,232.1 192.3,246.5 					"/>
					
						<linearGradient id="SVGID_27_" gradientUnits="userSpaceOnUse" x1="540.3587" y1="1219.983" x2="836.085" y2="1219.983" gradientTransform="matrix(-0.8512 -0.5248 0.5248 -0.8512 132.1433 1889.2019)">
						<stop  offset="0" style="stop-color:#414242;stop-opacity:0"/>
						<stop  offset="1" style="stop-color:#737374"/>
					</linearGradient>
					<path class="st27" d="M295,590.6c0.2-2.4,7.8-24.3,5.8-36.7c-4-24.3-34.6-50-34.6-50c-13.9-0.5-97.6-1.1-97.6-1.1
						s4.5-20.2,3.6-25.7c-3.6-22.5,2.7-42.7,9.6-47.8c3.3-2.4,7.2-4,11-5.6c7.8-3.2,15.6-6.4,23.4-9.6c6.1-2.5,12.3-5,18.6-7.1
						c10.9-3.5,22-7.8,33.4-8.1c-26.6,0.5-39.7,0.2-65.7,0.6c-4.9,0.1-36.5,0.3-36.5,0.3l-34.1-85.2l-11.4,0.7l8.4,32l26.8,68.8
						l-0.5,90.6c0,0-31.1,47.5-27.6,68.3c5.4,32.3,27.7,34.3,27.7,34.3l123.9-0.6C279.2,608.5,293.3,607.9,295,590.6z"/>
				</g>
			</g>
		</g>
		<g>
			<path class="st2" d="M202.6,144.4L202.6,144.4l-0.2-4.1l-0.6-3.9l-1-3.6l-1.4-3.2l-0.4,3.4l-0.7,3.3l-1,3l-1.3,2.6l-1.5,2.2
				l-1.7,1.7l-0.2,0.3l-0.2,0.2l-0.2,0.1h-0.2l-0.2-0.1l-0.2-0.2l-0.2-0.3l-0.2-0.3l-0.1-0.4l-0.1-0.4l0-0.4l0-0.5l0-0.4l0.1-0.4
				l0.1-0.4l0.2-0.3l1.4-2l1.3-2.4l1-2.8l0.7-3l0.5-3.2l0.2-3.3l-2-1.4l-2.1-0.7l-2.1,0l-2.1,0.7l-1.9,1.4l-1.8,2.1l-1.5,2.6
				l-1.3,3.1l-0.9,3.5l-0.6,3.7l-0.2,3.8l0.2,4.1l0.6,3.9l1.1,3.7l1.4,3.2l1.7,2.6l2,1.9l2.1,1.2l2.2,0.4l2.2-0.4l2.1-1.2l2-1.9
				l1.7-2.6l1.4-3.2l1-3.7l0.6-3.9L202.6,144.4z M228.3,143.7L228.3,143.7l-0.1-1.3l-0.2-1.3l-0.3-1.2l-0.4-1.1l-0.5-1l-0.6-0.8
				l-0.7-0.6l-0.7-0.4l-0.7-0.1l-0.7,0.1l-0.7,0.4l-0.7,0.6l-0.6,0.8l-0.5,1l-0.4,1.1l-0.3,1.2l-0.2,1.3l-0.1,1.3l0.1,1.5l0.2,1.5
				l0.4,1.3l0.5,1.2l0.6,1l0.7,0.7l0.8,0.4l0.8,0.2l0.7-0.1l0.7-0.4l0.7-0.6l0.6-0.8l0.5-1l0.4-1.1l0.3-1.2l0.2-1.3L228.3,143.7z
				 M225,132.9L225,132.9l5.7-26.4h-28.4l-1,6.3l19.1,22.3l0.3-0.5l0.4-0.4l-1.4-6.4h-0.9v-1.4h3.1v1.4h-1.3l1.6,5.5l0.9-0.4l1-0.1
				L225,132.9z M238.9,121.3L238.9,121.3l-4.3-14.4h-1.1l-5.9,28l0.7,1.2l0.6,1.4l0.5,1.6l0.3,1.7h2.5l0.4-3.9l0.7-3.7l1-3.5
				l1.3-3.2l1.5-2.8L238.9,121.3z M244.3,140.8L244.3,140.8l-4.3-13l-1.5,2.7l-1.2,3.1l-0.9,3.5l-0.5,3.7H244.3z M258.3,144.4
				L258.3,144.4l-0.2-4.1l-0.6-3.9l-1-3.6l-1.4-3.2l-1.7-2.6l-1.9-2l-2.1-1.2l-2.2-0.5l-2.2,0.3l-2.1,1.1l5.6,17.3l0.1,0.5l0.1,0.5
				l0,0.5l0,0.5l-0.1,0.5l-0.1,0.5l-0.2,0.4l-0.2,0.3l-0.3,0.3l-0.3,0.2l-0.3,0h-11.6l0.4,3.8l0.8,3.6l1.1,3.3l1.4,2.9l1.7,2.4
				l1.9,1.7l2,1.1l2.1,0.4l2.2-0.4l2.1-1.2l2-1.9l1.7-2.6l1.4-3.2l1.1-3.6l0.6-3.9L258.3,144.4z M261.6,139.6l0.2,4.9l-0.3,5.3
				l-0.9,5.1l-1.4,4.7l-1.8,4.1l-2.2,3.4l-2.6,2.5l-2.8,1.6l-2.9,0.5l-2.8-0.5l-2.7-1.4l-2.5-2.3l-2.2-3.1l-1.8-3.9l-1.4-4.4l-1-4.8
				l-0.5-5.1h-2.3l-0.3,1.8l-0.5,1.7l-0.6,1.5l-0.8,1.3l1.3,6.4h1.8v1.4h-4V159h1l-1.3-5.1l-1,0.6l-1,0.3l-1,0l-1-0.3l-0.9-0.6
				l-0.9-0.9l-0.8-1.2l-0.7-1.4l-0.5-1.6l-0.4-1.7l-0.2-1.8l0-1.9l0.1-1.9l0.3-1.8l-17.8-22.9l-0.8,5.3l2.1,3.4l1.7,4.1l1.3,4.6
				l0.8,5l0.3,5.2l-0.3,5.4l-0.8,5.2l-1.4,4.8l-1.8,4.2l-2.3,3.4l-2.6,2.5l-2.8,1.6l-2.9,0.5l-2.6-0.4l-2.5-1.2l-2.3-2l-2.1-2.7
				l-1.8-3.4l-1.5-3.9l-1.1-4.3l-0.7-4.6l-0.2-4.8l0.2-4.9l0.7-4.8l1.2-4.4l1.6-4l1.9-3.4l2.2-2.7l2.4-1.9l2.6-1.1l2.7-0.2l2.6,0.7
				l2.5,1.5l3.8-25.6l-0.7-0.3l-0.6-0.5L199,92l-0.5-0.9l-0.4-1.1l-0.3-1.2l-0.1-1.3l0-1.3l0.1-1.3l0.2-1.2l0.4-1.1l0.5-1l0.6-0.8
				l0.6-0.6l0.7-0.4l0.7-0.1h7v6.8H202l0.7,1.4l0.6,1.6l0.4,1.8l0.2,2.4l0,2.4l-0.3,2.3l-0.5,2.2H232l2-9.4h-5.8l-0.2,0l-0.2-0.1
				l-0.2-0.2l-0.2-0.3l-0.2-0.3L227,90l-0.1-0.4l0-0.5v-0.5l0-0.4l0.1-0.4l0.1-0.4l0.2-0.3l0.2-0.3l0.2-0.2l0.2-0.1l0.2,0h11.7
				l0.2,0.2l0.2,0.3l0.2,0.3l0.1,0.4l0.1,0.4l0.1,0.5l0,0.5l0,0.5l-0.1,0.4l-0.1,0.4l-0.1,0.4l-0.2,0.3l-0.2,0.3l-0.2,0.2l-0.5-0.3
				l-0.6-0.1l-0.6,0.1l-0.5,0.3l-0.5,0.5l-0.4,0.7l-0.3,0.8l-0.3,0.9l-1.3,6.3l6.2,18.4l2.5-1.6l2.6-0.7l2.7,0.2l2.6,1.1l2.5,1.9
				l2.2,2.7l1.9,3.4l1.6,4l1.2,4.5L261.6,139.6z"/>
		</g>
	</g>
</g>
</svg>
