<?xml version="1.0" encoding="utf-8"?>
<!-- Generator: Adobe Illustrator 22.0.1, SVG Export Plug-In . SVG Version: 6.00 Build 0)  -->
<svg version="1.1" id="Capa_1" xmlns="http://www.w3.org/2000/svg" xmlns:xlink="http://www.w3.org/1999/xlink" x="0px" y="0px"
	 viewBox="0 0 435.9 438.8" style="enable-background:new 0 0 435.9 438.8;" xml:space="preserve">
<style type="text/css">
	.st0{fill:url(#SVGID_1_);}
	.st1{fill:url(#SVGID_2_);}
	.st2{fill:url(#SVGID_3_);}
	.st3{fill:url(#SVGID_4_);}
	.st4{fill:url(#SVGID_5_);}
	.st5{fill:#FFFFFF;}
	.st6{fill:none;}
	.st7{fill:#D0D1D1;}
	.st8{fill:url(#SVGID_6_);}
	.st9{fill:#221F1F;}
	.st10{clip-path:url(#SVGID_8_);fill:url(#SVGID_9_);}
	.st11{clip-path:url(#SVGID_8_);fill:url(#SVGID_10_);}
	.st12{opacity:0.3;clip-path:url(#SVGID_8_);fill:url(#SVGID_11_);}
	.st13{fill:url(#SVGID_12_);}
	.st14{fill:url(#SVGID_13_);}
	.st15{fill:url(#SVGID_14_);}
	.st16{clip-path:url(#SVGID_16_);fill:url(#SVGID_17_);}
	.st17{clip-path:url(#SVGID_16_);}
	.st18{fill:url(#SVGID_18_);}
	.st19{opacity:0.75;clip-path:url(#SVGID_16_);fill:url(#SVGID_19_);}
	.st20{opacity:0.3;clip-path:url(#SVGID_16_);fill:url(#SVGID_20_);}
	.st21{clip-path:url(#SVGID_23_);fill:url(#SVGID_24_);}
	.st22{opacity:0.3;clip-path:url(#SVGID_23_);fill:url(#SVGID_25_);}
	.st23{clip-path:url(#SVGID_28_);}
	.st24{fill:url(#SVGID_29_);}
	.st25{opacity:0.75;clip-path:url(#SVGID_28_);fill:url(#SVGID_30_);}
	.st26{clip-path:url(#SVGID_33_);fill:url(#SVGID_34_);}
	.st27{opacity:0.75;clip-path:url(#SVGID_33_);fill:url(#SVGID_35_);}
	.st28{clip-path:url(#SVGID_38_);fill:url(#SVGID_39_);}
	.st29{opacity:0.75;clip-path:url(#SVGID_38_);fill:url(#SVGID_40_);}
	.st30{clip-path:url(#SVGID_42_);fill:url(#SVGID_43_);}
	.st31{opacity:0.75;clip-path:url(#SVGID_42_);fill:url(#SVGID_44_);}
	.st32{clip-path:url(#SVGID_47_);fill:url(#SVGID_48_);}
	.st33{clip-path:url(#SVGID_47_);fill:url(#SVGID_49_);}
	.st34{clip-path:url(#SVGID_51_);fill:url(#SVGID_52_);}
	.st35{opacity:0.75;clip-path:url(#SVGID_51_);fill:url(#SVGID_53_);}
	.st36{clip-path:url(#SVGID_55_);fill:#E13044;}
	.st37{clip-path:url(#SVGID_55_);fill:#E3E3E1;}
	.st38{opacity:0.4;clip-path:url(#SVGID_55_);fill:url(#SVGID_56_);}
	.st39{clip-path:url(#SVGID_58_);fill:#E13044;}
	.st40{opacity:0.4;clip-path:url(#SVGID_58_);fill:url(#SVGID_59_);}
	.st41{clip-path:url(#SVGID_62_);fill:url(#SVGID_63_);}
	.st42{opacity:0.75;clip-path:url(#SVGID_62_);fill:url(#SVGID_64_);}
	.st43{clip-path:url(#SVGID_66_);fill:url(#SVGID_67_);}
	.st44{clip-path:url(#SVGID_66_);}
	.st45{fill:url(#SVGID_68_);}
	.st46{opacity:0.4;clip-path:url(#SVGID_66_);fill:url(#SVGID_69_);}
	.st47{fill:url(#SVGID_70_);}
	.st48{fill:url(#SVGID_71_);}
	.st49{fill:url(#SVGID_72_);}
	.st50{clip-path:url(#SVGID_74_);fill:url(#SVGID_75_);}
	.st51{clip-path:url(#SVGID_74_);fill:#D0D1D2;}
	.st52{clip-path:url(#SVGID_74_);}
	.st53{fill:url(#SVGID_76_);}
	.st54{opacity:0.75;clip-path:url(#SVGID_74_);fill:url(#SVGID_77_);}
	.st55{opacity:0.3;clip-path:url(#SVGID_74_);fill:url(#SVGID_78_);}
	.st56{clip-path:url(#SVGID_80_);fill:url(#SVGID_81_);}
	.st57{opacity:0.3;clip-path:url(#SVGID_80_);fill:url(#SVGID_82_);}
	.st58{clip-path:url(#SVGID_84_);fill:url(#SVGID_85_);}
	.st59{clip-path:url(#SVGID_84_);fill:url(#SVGID_86_);}
	.st60{opacity:0.3;clip-path:url(#SVGID_84_);fill:url(#SVGID_87_);}
	.st61{clip-path:url(#SVGID_89_);fill:none;stroke:#6D6F70;stroke-miterlimit:10;}
	.st62{clip-path:url(#SVGID_89_);fill:url(#SVGID_90_);}
	.st63{opacity:0.3;clip-path:url(#SVGID_89_);fill:url(#SVGID_91_);}
	.st64{opacity:0.3;clip-path:url(#SVGID_89_);fill:url(#SVGID_92_);}
	.st65{fill:url(#SVGID_93_);}
	.st66{clip-path:url(#SVGID_95_);fill:url(#SVGID_96_);}
	.st67{opacity:0.5;clip-path:url(#SVGID_95_);fill:url(#SVGID_97_);}
	.st68{fill:url(#SVGID_98_);}
	.st69{fill:url(#SVGID_99_);}
	.st70{fill:url(#SVGID_100_);}
	.st71{fill:url(#SVGID_101_);}
	.st72{fill:url(#SVGID_102_);}
	.st73{clip-path:url(#SVGID_104_);fill:url(#SVGID_105_);}
	.st74{opacity:0.3;clip-path:url(#SVGID_104_);fill:url(#SVGID_106_);}
	.st75{clip-path:url(#SVGID_108_);fill:url(#SVGID_109_);}
	.st76{opacity:0.75;clip-path:url(#SVGID_108_);fill:url(#SVGID_110_);}
	.st77{clip-path:url(#SVGID_113_);}
	.st78{fill:url(#SVGID_114_);}
	.st79{opacity:0.75;clip-path:url(#SVGID_113_);fill:url(#SVGID_115_);}
	.st80{clip-path:url(#SVGID_118_);fill:url(#SVGID_119_);}
	.st81{opacity:0.75;clip-path:url(#SVGID_118_);fill:url(#SVGID_120_);}
	.st82{clip-path:url(#SVGID_123_);fill:url(#SVGID_124_);}
	.st83{opacity:0.75;clip-path:url(#SVGID_123_);fill:url(#SVGID_125_);}
	.st84{clip-path:url(#SVGID_127_);fill:url(#SVGID_128_);}
	.st85{opacity:0.75;clip-path:url(#SVGID_127_);fill:url(#SVGID_129_);}
	.st86{clip-path:url(#SVGID_132_);fill:url(#SVGID_133_);}
	.st87{clip-path:url(#SVGID_132_);fill:url(#SVGID_134_);}
	.st88{clip-path:url(#SVGID_136_);fill:url(#SVGID_137_);}
	.st89{opacity:0.75;clip-path:url(#SVGID_136_);fill:url(#SVGID_138_);}
	.st90{clip-path:url(#SVGID_140_);fill:#E13044;}
	.st91{clip-path:url(#SVGID_140_);fill:#E3E3E1;}
	.st92{opacity:0.4;clip-path:url(#SVGID_140_);fill:url(#SVGID_141_);}
	.st93{clip-path:url(#SVGID_143_);fill:#E13044;}
	.st94{opacity:0.4;clip-path:url(#SVGID_143_);fill:url(#SVGID_144_);}
	.st95{clip-path:url(#SVGID_147_);fill:url(#SVGID_148_);}
	.st96{opacity:0.75;clip-path:url(#SVGID_147_);fill:url(#SVGID_149_);}
	.st97{clip-path:url(#SVGID_151_);fill:url(#SVGID_152_);}
	.st98{clip-path:url(#SVGID_151_);}
	.st99{fill:url(#SVGID_153_);}
	.st100{opacity:0.4;clip-path:url(#SVGID_151_);fill:url(#SVGID_154_);}
	.st101{fill:url(#SVGID_155_);}
	.st102{fill:url(#SVGID_156_);}
	.st103{fill:url(#SVGID_157_);}
	.st104{clip-path:url(#SVGID_159_);fill:url(#SVGID_160_);}
	.st105{opacity:0.75;clip-path:url(#SVGID_159_);fill:url(#SVGID_161_);}
	.st106{opacity:0.75;clip-path:url(#SVGID_159_);fill:url(#SVGID_162_);}
	.st107{clip-path:url(#SVGID_165_);}
	.st108{fill:url(#SVGID_166_);}
	.st109{opacity:0.5;clip-path:url(#SVGID_165_);fill:url(#SVGID_167_);}
	.st110{clip-path:url(#SVGID_169_);fill:url(#SVGID_170_);}
	.st111{opacity:0.4;clip-path:url(#SVGID_169_);fill:url(#SVGID_171_);}
	.st112{clip-path:url(#SVGID_173_);fill:url(#SVGID_174_);}
	.st113{opacity:0.5;clip-path:url(#SVGID_173_);fill:url(#SVGID_175_);}
	.st114{opacity:0.5;clip-path:url(#SVGID_173_);fill:url(#SVGID_176_);}
	.st115{clip-path:url(#SVGID_178_);fill:url(#SVGID_179_);}
	.st116{opacity:0.3;clip-path:url(#SVGID_178_);fill:url(#SVGID_180_);}
	.st117{opacity:0.3;clip-path:url(#SVGID_178_);fill:url(#SVGID_181_);}
	.st118{fill:url(#SVGID_182_);}
	.st119{fill:url(#SVGID_183_);}
	.st120{fill:url(#SVGID_184_);}
	.st121{fill:url(#SVGID_185_);}
	.st122{fill:url(#SVGID_186_);}
	.st123{fill:url(#SVGID_187_);}
	.st124{fill:url(#SVGID_188_);}
	.st125{fill:url(#SVGID_189_);}
</style>
<g>
	<linearGradient id="SVGID_1_" gradientUnits="userSpaceOnUse" x1="217.9832" y1="438.747" x2="217.9832" y2="0">
		<stop  offset="0" style="stop-color:#3A99C7"/>
		<stop  offset="1" style="stop-color:#71CDF4"/>
	</linearGradient>
	<rect x="0" class="st0" width="435.9" height="438.7"/>
	<g>
		<linearGradient id="SVGID_2_" gradientUnits="userSpaceOnUse" x1="286.2213" y1="346.9991" x2="286.2213" y2="152.3662">
			<stop  offset="0" style="stop-color:#507E3A"/>
			<stop  offset="1" style="stop-color:#8BC45B"/>
		</linearGradient>
		<path class="st1" d="M316.5,152.4c-113-2.6-179.5,81-180,103V345l299.4,2V204C410.9,178.6,372.7,153.7,316.5,152.4z"/>
	</g>
	<g>
		<linearGradient id="SVGID_3_" gradientUnits="userSpaceOnUse" x1="214.4012" y1="350.0867" x2="214.4012" y2="239.8491">
			<stop  offset="0" style="stop-color:#507E3A"/>
			<stop  offset="1" style="stop-color:#8BC45B"/>
		</linearGradient>
		<path class="st2" d="M180,239.9c-113-2.6-179.5,81-180,103v7.1h428.8v-7.1l-92.2,0.4C336.5,343.4,292.8,242.5,180,239.9z"/>
	</g>
	<g>
		<linearGradient id="SVGID_4_" gradientUnits="userSpaceOnUse" x1="217.9832" y1="438.747" x2="217.9832" y2="346.9991">
			<stop  offset="0" style="stop-color:#3E444E"/>
			<stop  offset="1" style="stop-color:#1A2226"/>
		</linearGradient>
		<rect x="0" y="347" class="st3" width="435.9" height="91.7"/>
	</g>
	<linearGradient id="SVGID_5_" gradientUnits="userSpaceOnUse" x1="2.083342e-02" y1="344.9737" x2="435.9456" y2="344.9737">
		<stop  offset="0" style="stop-color:#E4E4E3"/>
		<stop  offset="1" style="stop-color:#D7D7D6"/>
	</linearGradient>
	<rect x="0" y="342.9" class="st4" width="435.9" height="4.1"/>
	<g>
		<g>
			<polygon class="st5" points="424.5,420.8 422,420.8 433.2,438.7 435,437.6 			"/>
		</g>
		<g>
			<polygon class="st5" points="407.6,420.8 405.1,420.8 416.3,438.7 418.1,437.6 			"/>
		</g>
		<g>
			<polygon class="st5" points="222.6,420.8 220,420.8 231.2,438.7 233,437.6 			"/>
		</g>
		<g>
			<polygon class="st5" points="205.7,420.8 203.2,420.8 214.3,438.7 216.1,437.6 			"/>
		</g>
		<g>
			<polygon class="st5" points="188.8,420.8 186.3,420.8 197.4,438.7 199.2,437.6 			"/>
		</g>
		<g>
			<polygon class="st5" points="171.9,420.8 169.4,420.8 180.6,438.7 182.3,437.6 			"/>
		</g>
		<g>
			<polygon class="st5" points="154.9,420.8 152.4,420.8 163.6,438.7 165.3,437.6 			"/>
		</g>
		<g>
			<polygon class="st5" points="138,420.8 135.5,420.8 146.7,438.7 148.5,437.6 			"/>
		</g>
		<g>
			<polygon class="st5" points="121.2,420.8 118.7,420.8 129.8,438.7 131.6,437.6 			"/>
		</g>
		<g>
			<polygon class="st5" points="323.7,420.8 321.2,420.8 332.4,438.7 334.2,437.6 			"/>
		</g>
		<g>
			<polygon class="st5" points="306.9,420.8 304.4,420.8 315.5,438.7 317.3,437.6 			"/>
		</g>
		<g>
			<polygon class="st5" points="290,420.8 287.5,420.8 298.6,438.7 300.4,437.6 			"/>
		</g>
		<g>
			<polygon class="st5" points="273.1,420.8 270.6,420.8 281.7,438.7 283.5,437.6 			"/>
		</g>
		<g>
			<polygon class="st5" points="256.2,420.8 253.7,420.8 264.9,438.7 266.7,437.6 			"/>
		</g>
		<g>
			<polygon class="st5" points="239.3,420.8 236.8,420.8 248,438.7 249.8,437.6 			"/>
		</g>
		<g>
			<polygon class="st5" points="391.1,420.8 388.6,420.8 399.7,438.7 401.5,437.6 			"/>
		</g>
		<g>
			<polygon class="st5" points="374.2,420.8 371.7,420.8 382.8,438.7 384.6,437.6 			"/>
		</g>
		<g>
			<polygon class="st5" points="357.3,420.8 354.8,420.8 366,438.7 367.8,437.6 			"/>
		</g>
		<g>
			<polygon class="st5" points="340.4,420.8 337.9,420.8 349.1,438.7 350.9,437.6 			"/>
		</g>
		<g>
			<polygon class="st5" points="103.8,420.8 101.3,420.8 112.5,438.7 114.3,437.6 			"/>
		</g>
		<polygon class="st5" points="19.9,420.8 17.4,420.8 28.6,438.7 30.4,437.6 		"/>
		<polygon class="st5" points="3,420.8 0.5,420.8 11.7,438.7 13.5,437.6 		"/>
		<g>
			<polygon class="st5" points="87.3,420.8 84.8,420.8 95.9,438.7 97.7,437.6 			"/>
		</g>
		<g>
			<polygon class="st5" points="70.4,420.8 67.9,420.8 79,438.7 80.8,437.6 			"/>
		</g>
		<g>
			<polygon class="st5" points="0,436.6 0,438.7 435.9,438.8 435.9,436.6 			"/>
		</g>
		<g>
			<polygon class="st5" points="0,418.7 0,420.8 435.9,420.8 435.9,418.7 			"/>
		</g>
		<g>
			<polygon class="st5" points="53.5,420.8 51,420.8 62.2,438.7 63.9,437.6 			"/>
		</g>
		<g>
			<polygon class="st5" points="36.6,420.8 34.1,420.8 45.3,438.7 47.1,437.6 			"/>
		</g>
	</g>
	<rect x="49.9" y="266.4" class="st6" width="165.3" height="115.3"/>
	<g>
		<g>
			<rect x="188.8" y="287.9" class="st7" width="1.6" height="55.5"/>
			<g>
				<linearGradient id="SVGID_6_" gradientUnits="userSpaceOnUse" x1="175.846" y1="277.2344" x2="203.4361" y2="277.2344">
					<stop  offset="0" style="stop-color:#3CB34A"/>
					<stop  offset="1" style="stop-color:#3A834A"/>
				</linearGradient>
				<path class="st8" d="M202.5,287.9c0.6,0,1-0.4,1-0.9c0-0.4-0.3-0.8-0.4-1c-0.1-0.2-12.3-18.7-12.3-18.7s-0.5-0.8-1.2-0.8
					c-0.6,0-1.1,0.8-1.1,0.8s-11.9,18.3-12,18.5c-0.1,0.2-0.6,0.8-0.6,1.2c0,0.5,0.4,0.9,1,0.9C177,287.9,202.5,287.9,202.5,287.9z"
					/>
				<path class="st5" d="M176.9,288.3c-0.9,0-1.4-0.6-1.4-1.3c0-0.4,0.3-0.9,0.6-1.3l0.1-0.1c0.1-0.2,11.5-17.7,12-18.5
					c0.1-0.1,0.6-1,1.4-1c0.9,0,1.5,0.9,1.5,1c0.1,0.2,12.1,18.4,12.3,18.7c0.2,0.3,0.5,0.7,0.5,1.2c0,0.7-0.6,1.2-1.3,1.2
					C202.5,288.3,177,288.3,176.9,288.3z M189.5,266.9c-0.3,0-0.7,0.4-0.8,0.6c-0.1,0.2-11.9,18.3-12,18.5c0,0-0.1,0.1-0.1,0.1
					c-0.1,0.2-0.5,0.6-0.5,0.9c0,0.3,0.2,0.6,0.7,0.6c0.2,0,25.6,0,25.6,0c0.4,0,0.6-0.3,0.6-0.5c0-0.2-0.2-0.6-0.4-0.8
					c-0.2-0.2-11.8-18-12.3-18.7C190.4,267.5,190,266.9,189.5,266.9z"/>
			</g>
			<g>
				<g>
					<path class="st5" d="M203.1,295.1c0,0.6-0.5,1.1-1.1,1.1h-24.7c-0.6,0-1.1-0.5-1.1-1.1v-4.4c0-0.6,0.5-1.1,1.1-1.1H202
						c0.6,0,1.1,0.5,1.1,1.1V295.1z"/>
				</g>
				<g>
					<path class="st9" d="M178,294.3v-3.1h1c0.4,0,0.6,0,0.7,0.1c0.2,0,0.3,0.1,0.4,0.3c0.1,0.2,0.2,0.4,0.2,0.6
						c0,0.2,0,0.4-0.1,0.5c-0.1,0.1-0.2,0.2-0.3,0.3c-0.1,0.1-0.2,0.1-0.3,0.1c-0.1,0-0.4,0-0.6,0h-0.4v1.2H178z M178.6,291.8v0.9
						h0.3c0.2,0,0.4,0,0.5-0.1c0.1,0,0.1-0.1,0.2-0.1c0-0.1,0.1-0.2,0.1-0.2c0-0.1,0-0.2-0.1-0.3c-0.1-0.1-0.1-0.1-0.2-0.1
						c-0.1,0-0.2,0-0.4,0H178.6z"/>
					<path class="st9" d="M180.8,294.3v-3.1h1.3c0.3,0,0.6,0,0.7,0.1c0.1,0.1,0.3,0.2,0.4,0.3c0.1,0.1,0.1,0.3,0.1,0.5
						c0,0.2-0.1,0.4-0.2,0.6c-0.1,0.2-0.3,0.2-0.6,0.3c0.1,0.1,0.2,0.2,0.3,0.3c0.1,0.1,0.2,0.3,0.3,0.5l0.4,0.6h-0.7l-0.4-0.7
						c-0.2-0.2-0.3-0.4-0.3-0.5c-0.1-0.1-0.1-0.1-0.2-0.1c-0.1,0-0.2,0-0.3,0h-0.1v1.3H180.8z M181.4,292.6h0.5c0.3,0,0.5,0,0.6,0
						c0.1,0,0.1-0.1,0.2-0.1c0-0.1,0.1-0.1,0.1-0.2c0-0.1,0-0.2-0.1-0.3c-0.1-0.1-0.1-0.1-0.2-0.1c0,0-0.2,0-0.4,0h-0.5V292.6z"/>
					<path class="st9" d="M183.9,294.3v-3.1h0.6v3.1H183.9z"/>
					<path class="st9" d="M184.9,292.8c0-0.3,0-0.6,0.1-0.8c0.1-0.1,0.2-0.3,0.3-0.4c0.1-0.1,0.2-0.2,0.4-0.3
						c0.2-0.1,0.4-0.1,0.7-0.1c0.4,0,0.8,0.1,1.1,0.4c0.3,0.3,0.4,0.7,0.4,1.2c0,0.5-0.1,0.9-0.4,1.2c-0.3,0.3-0.6,0.4-1.1,0.4
						c-0.5,0-0.8-0.1-1.1-0.4C185.1,293.7,184.9,293.3,184.9,292.8z M185.6,292.8c0,0.4,0.1,0.6,0.2,0.8c0.2,0.2,0.4,0.3,0.6,0.3
						c0.2,0,0.4-0.1,0.6-0.3c0.2-0.2,0.2-0.4,0.2-0.8c0-0.3-0.1-0.6-0.2-0.8c-0.2-0.2-0.4-0.3-0.6-0.3c-0.3,0-0.5,0.1-0.6,0.3
						C185.6,292.2,185.6,292.4,185.6,292.8z"/>
					<path class="st9" d="M188.3,294.3v-3.1h1.3c0.3,0,0.6,0,0.7,0.1c0.1,0.1,0.3,0.2,0.4,0.3c0.1,0.1,0.1,0.3,0.1,0.5
						c0,0.2-0.1,0.4-0.2,0.6c-0.1,0.2-0.3,0.2-0.6,0.3c0.1,0.1,0.2,0.2,0.3,0.3c0.1,0.1,0.2,0.3,0.3,0.5l0.4,0.6h-0.7l-0.4-0.7
						c-0.2-0.2-0.3-0.4-0.3-0.5c-0.1-0.1-0.1-0.1-0.2-0.1c-0.1,0-0.2,0-0.3,0H189v1.3H188.3z M189,292.6h0.5c0.3,0,0.5,0,0.5,0
						c0.1,0,0.1-0.1,0.2-0.1c0-0.1,0.1-0.1,0.1-0.2c0-0.1,0-0.2-0.1-0.3c-0.1-0.1-0.1-0.1-0.2-0.1c-0.1,0-0.2,0-0.4,0H189V292.6z"/>
					<path class="st9" d="M191.4,294.3v-3.1h0.6v3.1H191.4z"/>
					<path class="st9" d="M192.6,291.3h1.1c0.3,0,0.4,0,0.6,0.1c0.2,0.1,0.3,0.1,0.5,0.3c0.1,0.1,0.2,0.3,0.3,0.5
						c0.1,0.2,0.1,0.4,0.1,0.7c0,0.3,0,0.5-0.1,0.7c-0.1,0.2-0.2,0.4-0.3,0.5c-0.1,0.1-0.3,0.2-0.4,0.2c-0.1,0-0.3,0.1-0.5,0.1h-1.2
						V291.3z M193.2,291.8v2h0.5c0.2,0,0.3,0,0.4,0c0.1,0,0.2-0.1,0.2-0.1c0.1-0.1,0.1-0.2,0.2-0.3c0-0.1,0.1-0.3,0.1-0.6
						c0-0.2,0-0.4-0.1-0.5c0-0.1-0.1-0.2-0.2-0.3c-0.1-0.1-0.2-0.1-0.3-0.1c-0.1,0-0.3,0-0.5,0H193.2z"/>
					<path class="st9" d="M198.4,294.3h-0.7l-0.3-0.7h-1.2l-0.2,0.7h-0.7l1.2-3.1h0.6L198.4,294.3z M197.3,293.1l-0.4-1.1l-0.4,1.1
						H197.3z"/>
					<path class="st9" d="M198.7,291.3h1.1c0.3,0,0.4,0,0.6,0.1c0.2,0.1,0.3,0.1,0.5,0.3c0.1,0.1,0.2,0.3,0.3,0.5
						c0.1,0.2,0.1,0.4,0.1,0.7c0,0.3,0,0.5-0.1,0.7c-0.1,0.2-0.2,0.4-0.3,0.5c-0.1,0.1-0.2,0.2-0.4,0.2c-0.1,0-0.3,0.1-0.5,0.1h-1.2
						V291.3z M199.3,291.8v2h0.5c0.2,0,0.3,0,0.4,0c0.1,0,0.2-0.1,0.2-0.1c0.1-0.1,0.1-0.2,0.2-0.3c0-0.1,0.1-0.3,0.1-0.6
						c0-0.2,0-0.4-0.1-0.5c0-0.1-0.1-0.2-0.2-0.3c-0.1-0.1-0.2-0.1-0.3-0.1c-0.1,0-0.3,0-0.5,0H199.3z"/>
				</g>
			</g>
		</g>
		<path class="st5" d="M193.9,278.1c-0.5,0-1,0.2-1.5,0.4l-0.9-1.1l0.1-0.4l0.8-0.3c0.1,0,0.1-0.1,0.1-0.2c0-0.1-0.1-0.2-0.2-0.2
			l-2,0.1c-0.1,0-0.2,0.1-0.2,0.2c0,0.1,0.1,0.2,0.2,0.2l0.9,0.2c0,0.1,0,0.2-0.1,0.2l-3.8,0l0.3-0.8c0,0,0,0,0-0.1
			c0-0.1,0-0.1-0.1-0.2c-0.1-0.1-0.1-0.2-0.1-0.2v0c0,0,0,0,0.1,0c0.1,0,1,0,1,0c0.1,0,0.2-0.1,0.2-0.2c0-0.1-0.1-0.2-0.2-0.2h-1.1
			c0,0,0,0-0.1,0c-0.3,0.1-0.3,0.3-0.4,0.4c0,0,0,0.1,0,0.1c0,0.2,0.1,0.3,0.2,0.4c0,0.1-0.3,0.7-0.5,1.3l-0.1,0.2l0,0
			c-0.1,0.2-0.1,0.4-0.2,0.5c-0.4-0.2-0.9-0.4-1.4-0.4c-1.5,0-2.6,1.2-2.6,2.7c0,1.5,1.2,2.6,2.6,2.6c1.5,0,2.6-1.2,2.6-2.6
			c0-0.8-0.4-1.5-0.9-2l0.1-0.3l3,3c0,0,0,0,0,0c0,0,0,0,0,0l0,0c0,0,0,0,0,0l0.1,0.5c-0.1,0-0.2,0.1-0.2,0.2c0,0.1,0.1,0.2,0.2,0.2
			h0.6c0.1,0,0.2-0.1,0.2-0.2c0-0.1-0.1-0.2-0.2-0.2h-0.2l-0.2-0.5l1-0.1c0.3,1.2,1.3,2.1,2.6,2.1c1.5,0,2.6-1.2,2.6-2.6
			C196.5,279.3,195.3,278.1,193.9,278.1z M187.2,280.7c0,1.2-1,2.2-2.2,2.2c-1.2,0-2.2-1-2.2-2.2c0-1.2,1-2.2,2.2-2.2
			c0.4,0,0.9,0.1,1.2,0.4c-0.3,0.9-1.3,1.7-1.3,1.7c-0.1,0-0.1,0.1-0.1,0.2c0,0,0,0.1,0,0.1c0.1,0.1,0.2,0.1,0.3,0
			c0,0,1-0.8,1.4-1.7C187,279.6,187.2,280.1,187.2,280.7z M190,280.5l0-0.2h0c0,0,0.1,0,0.1,0C190.1,280.4,190,280.5,190,280.5z
			 M190,279.9h-0.5c-0.1,0-0.2,0.1-0.2,0.2c0,0.1,0.1,0.2,0.2,0.2h0l0.1,0.3L187,278c0-0.1,0.1-0.2,0.1-0.3c0.2,0,3.1,0,3.9,0
			c-0.2,0.5-0.5,1.5-0.8,2.3C190.1,280,190.1,279.9,190,279.9z M190.3,281l1.1-3.1c0.2,0.2,0.4,0.5,0.7,0.9c-0.5,0.5-0.9,1.2-0.9,2
			c0,0,0,0.1,0,0.1C190.8,280.9,190.5,281,190.3,281z M191.6,280.7c0-0.6,0.3-1.2,0.7-1.6c0.5,0.6,1,1.2,1.2,1.4
			C193.2,280.6,192.4,280.7,191.6,280.7C191.6,280.8,191.6,280.8,191.6,280.7z M193.9,283c-1.1,0-1.9-0.7-2.2-1.7l2.3-0.3
			c0.1,0,0.1-0.1,0.2-0.1c0-0.1,0-0.2,0-0.2l-1.4-1.7c0.3-0.2,0.7-0.3,1.2-0.3c1.2,0,2.2,1,2.2,2.2C196.1,282,195.1,283,193.9,283z"
			/>
	</g>
	<g id="monita_con_costal">
		<g>
			<g>
				<g>
					<defs>
						<path id="SVGID_7_" d="M344.2,285.4c8.1-1.4,6.6,16.4,9.3,19.5c2.1,2.4,8.4,6.7,12.7,9.1c2.2,1.3,3.5,1.6,4.5,2.2
							s-1.7,3.6-2.1,3.6c-0.4,0-1.2-0.5-1.2-0.5s-0.3,0.5-0.6,0.4c-0.6,0-1.1-1.4-1.1-1.4s-13-5.5-17-8.4
							C344.6,307,336.1,286.8,344.2,285.4z"/>
					</defs>
					<clipPath id="SVGID_8_">
						<use xlink:href="#SVGID_7_"  style="overflow:visible;"/>
					</clipPath>
					
						<linearGradient id="SVGID_9_" gradientUnits="userSpaceOnUse" x1="974.2995" y1="338.3196" x2="1009.7412" y2="338.3196" gradientTransform="matrix(-0.9979 -6.468469e-02 -6.468469e-02 0.9979 1368.8635 30.1138)">
						<stop  offset="0" style="stop-color:#F9A124"/>
						<stop  offset="1" style="stop-color:#FAB858"/>
					</linearGradient>
					<polygon class="st10" points="371.3,321.1 338.3,319 342.8,286 375.8,288.2 					"/>
					
						<linearGradient id="SVGID_10_" gradientUnits="userSpaceOnUse" x1="356.91" y1="304.7561" x2="376.3524" y2="304.7561" gradientTransform="matrix(0.999 4.383114e-02 -4.383114e-02 0.999 -7.3368 -25.4427)">
						<stop  offset="0" style="stop-color:#D7D7D6"/>
						<stop  offset="1" style="stop-color:#E4E4E3"/>
					</linearGradient>
					<polygon class="st11" points="344.9,307.7 336.3,285.1 350.7,282.7 355,301.3 					"/>
					
						<linearGradient id="SVGID_11_" gradientUnits="userSpaceOnUse" x1="1258.6749" y1="194.2187" x2="1238.9863" y2="195.5789" gradientTransform="matrix(-0.8136 6.353188e-02 0.1093 0.9196 1346.8313 46.451)">
						<stop  offset="0" style="stop-color:#737374;stop-opacity:0"/>
						<stop  offset="1" style="stop-color:#414242"/>
					</linearGradient>
					<path class="st12" d="M344.4,301.4c-0.1-0.3-0.2-0.6-0.3-0.9c-0.8-2.5-1-7.5,3.1-6.7c1.6,0.3,2.8,1.6,3.4,3.1
						c0.6,1.5,0.7,3.1,0.8,4.7c0.1,1.6,0.2,3.2,0.7,4.7c1.1,2.7,3.1,3.3,5.4,4.5c2,1,3.4,3.4,3.5,5.6c0,0.2-4.4-1.2-4.8-1.4
						c-1.3-0.6-2.5-1.1-3.8-1.6c-2.5-0.9-6.6-2.8-7.3-5.6C344.6,305.9,344.9,303.1,344.4,301.4z"/>
				</g>
				<g>
					
						<linearGradient id="SVGID_12_" gradientUnits="userSpaceOnUse" x1="-5774.8042" y1="2060.9263" x2="-5768.3364" y2="2060.0903" gradientTransform="matrix(0.5414 0.2667 -0.2749 0.558 4027.6924 765.7181)">
						<stop  offset="0" style="stop-color:#D8D8D7"/>
						<stop  offset="1" style="stop-color:#E4E4E3"/>
					</linearGradient>
					<path class="st13" d="M334.5,381.7l-1.5-0.7l5.8-9.9c0.2-0.3,0.5-0.4,0.8-0.3l0.4,0.2c0.3,0.2,0.4,0.5,0.3,0.8L334.5,381.7z"/>
					
						<linearGradient id="SVGID_13_" gradientUnits="userSpaceOnUse" x1="2685.3743" y1="-10488.9336" x2="2693.6482" y2="-10492.4277" gradientTransform="matrix(5.236131e-04 -0.6035 0.3404 2.953619e-04 3903.8567 2007.59)">
						<stop  offset="0" style="stop-color:#414242"/>
						<stop  offset="1" style="stop-color:#646565"/>
					</linearGradient>
					<path class="st14" d="M337.3,381.4L337.3,381.4c0,0.5-0.4,0.8-0.8,0.8l-5,0c-0.5,0-0.8-0.4-0.8-0.8v0c0-0.5,0.4-0.8,0.8-0.8
						l5,0C337,380.5,337.3,380.9,337.3,381.4z"/>
				</g>
				
					<linearGradient id="SVGID_14_" gradientUnits="userSpaceOnUse" x1="1031.7614" y1="402.8168" x2="1040.3208" y2="402.8168" gradientTransform="matrix(-0.9998 -2.088318e-02 -2.088318e-02 0.9998 1377.3129 -4.8174)">
					<stop  offset="0" style="stop-color:#8E2D37"/>
					<stop  offset="1" style="stop-color:#781A26"/>
				</linearGradient>
				<path class="st15" d="M337.3,380L337.3,380c-0.1,0.4-0.4,0.6-0.7,0.6c-1.1,0-2.2,0-4.2,0c-2,0-5-6.7-2.7-8.3
					c2.2-1.6,2.4,2.8,2.4,2.8l4.8,4.1C337.2,379.3,337.3,379.6,337.3,380z"/>
				<g>
					<defs>
						<path id="SVGID_15_" d="M323,305.2l12.7,3.7c0,0,1.5,10.3,6.5,24.1c4.2,11.4-10.3,43-10.3,43c-7-5.2-7.8-16.5-4.6-24.6
							c2.9-7.1,2.8-8.8,3.7-12.1S305.5,324.4,323,305.2z"/>
					</defs>
					<clipPath id="SVGID_16_">
						<use xlink:href="#SVGID_15_"  style="overflow:visible;"/>
					</clipPath>
					
						<linearGradient id="SVGID_17_" gradientUnits="userSpaceOnUse" x1="810.3925" y1="607.8426" x2="859.9155" y2="607.8426" gradientTransform="matrix(-0.9529 -0.1497 -0.2959 0.6488 1302.1855 84.5524)">
						<stop  offset="0" style="stop-color:#F9A124"/>
						<stop  offset="1" style="stop-color:#FAB858"/>
					</linearGradient>
					<polygon class="st16" points="339.3,381.4 305.8,375.9 313.7,326.5 351.1,333.9 					"/>
					<g class="st17">
						<linearGradient id="SVGID_18_" gradientUnits="userSpaceOnUse" x1="313.4891" y1="327.8062" x2="350.0355" y2="327.8062">
							<stop  offset="0" style="stop-color:#36415C"/>
							<stop  offset="1" style="stop-color:#4F658B"/>
						</linearGradient>
						<path class="st18" d="M313.5,317.7c0.4,0.6,8.3,19.8,8.3,19.8l26,1.7l2.3-22.8L313.5,317.7z"/>
					</g>
					
						<linearGradient id="SVGID_19_" gradientUnits="userSpaceOnUse" x1="206.0931" y1="251.2598" x2="237.126" y2="251.2598" gradientTransform="matrix(0.9676 -0.2526 0.2526 0.9676 54.0423 141.7856)">
						<stop  offset="0" style="stop-color:#737374"/>
						<stop  offset="0.8917" style="stop-color:#2B2B2B;stop-opacity:0"/>
					</linearGradient>
					<path class="st19" d="M321,324.1c-1.4,0.5-2.7,1.2-3.7,2.3c-1.6,1.8-1.5,5.8,0.9,6.9c1.9,0.9,4.3,1,6.3,1.1
						c5.5,0.4,11.2,0.4,16.6-0.3c4.6-0.6,6.9-5.7,5.6-10c-0.7-2.4-8.2-2.2-10.5-2.2c-4.3-0.1-8.5,0.4-12.7,1.4
						c-0.2,0.1-0.5,0.1-0.7,0.2C322.2,323.7,321.6,323.9,321,324.1z"/>
					
						<linearGradient id="SVGID_20_" gradientUnits="userSpaceOnUse" x1="698.0153" y1="468.5557" x2="727.3923" y2="468.5557" gradientTransform="matrix(-0.9488 -0.5513 -0.5689 0.8398 1265.8835 341.4229)">
						<stop  offset="0" style="stop-color:#414242"/>
						<stop  offset="1" style="stop-color:#737374;stop-opacity:0"/>
					</linearGradient>
					<path class="st20" d="M321.4,319.1c14.8-5.4,15.3,18.9,14.7,25.7c-0.6,6.8-11.9,24.1-11.9,24.1s-5.6-5.6-3-13.9
						c2.6-8.3,7.7-8.2,8.1-11.7C329.9,339.7,306.6,324.5,321.4,319.1z"/>
				</g>
				<g>
					<defs>
						<path id="SVGID_21_" d="M386,288.9l-2.6,3l1.7-6.8l-2.1,0.4l-1.5,5.7l-1.1-3.6l-2.5,1.5l2.7,5.4c-7.1,0-15.1,8.3-13.9,22.4
							c1.2,13,4.8,12.7,5.4,15.4c0.7,3.5,8.5,3.6,10.5,0.1c3.5-6.2-1.4-19.9,0.3-22.8c1.7-2.9,3.1-3.4,3.1-7.7s-3.4-6.9-3.4-6.9
							l5.5-3.2L386,288.9z"/>
					</defs>
					<linearGradient id="SVGID_22_" gradientUnits="userSpaceOnUse" x1="366.6158" y1="310.0681" x2="387.9758" y2="310.0681">
						<stop  offset="0" style="stop-color:#F9A124"/>
						<stop  offset="1" style="stop-color:#FAB858"/>
					</linearGradient>
					<use xlink:href="#SVGID_21_"  style="overflow:visible;fill:url(#SVGID_22_);"/>
					<clipPath id="SVGID_23_">
						<use xlink:href="#SVGID_21_"  style="overflow:visible;"/>
					</clipPath>
					<linearGradient id="SVGID_24_" gradientUnits="userSpaceOnUse" x1="363.8019" y1="308.7464" x2="388.8348" y2="308.7464">
						<stop  offset="0" style="stop-color:#F9A124"/>
						<stop  offset="1" style="stop-color:#FAB858"/>
					</linearGradient>
					<rect x="363.8" y="283.8" class="st21" width="25" height="50"/>
					<linearGradient id="SVGID_25_" gradientUnits="userSpaceOnUse" x1="359.0074" y1="314.6541" x2="385.4548" y2="314.6541">
						<stop  offset="0" style="stop-color:#414242"/>
						<stop  offset="0.2614" style="stop-color:#474848;stop-opacity:0.7386"/>
						<stop  offset="0.6032" style="stop-color:#575858;stop-opacity:0.3968"/>
						<stop  offset="0.988" style="stop-color:#727273;stop-opacity:1.196301e-02"/>
						<stop  offset="1" style="stop-color:#737374;stop-opacity:0"/>
					</linearGradient>
					<path class="st22" d="M374.3,291.3c1.6,0.5,5.7,1.4,6.3,3.3c0.6,2.1-5.4,7.6-6.7,9c-0.7,0.8-1.4,1.7-1.7,2.9
						c-0.3,1.2-0.1,2.6,0.7,3.4c0.7,0.8,1.8,0.7,2.7,0.7s2,0.4,2.4,1.5c0.3,1-0.1,2.2-0.7,3c-0.5,0.9-1.2,1.7-1.2,2.8
						c-0.1,1.5,0.9,2.8,1.8,3.8c1.2,1.4,2.5,2.9,4.1,3.5c0.8,0.3,1.7,0.5,2.4,1.1c1.2,1.1,1.4,3.4,1,5.2c-0.6,3-2.4,5.4-4.6,6.8
						c-2.2,1.3-4.7,1.6-7.1,1.3c-5.2-0.8-10.1-5.1-12.6-11c-2.5-5.9-2.7-13.5-0.4-19.5c0.8-2.2,2.1-4.7,1.6-7.2
						c-0.4-2.3-1.5-4-1.3-6.5c0.3-4.2,5.1-5.4,7.7-5.8C371.1,289.1,372,290.5,374.3,291.3z"/>
				</g>
				<g>
					<g>
						<g>
							<defs>
								<path id="SVGID_26_" d="M381.6,318.8l0,12c0,1.2-1,2.2-2.2,2.2l-7.7,0l0,2.5l8.4,0c2.1,0,3.8-1.7,3.8-3.9l0-15.2l0,0
									C382.7,316.4,381.6,317.5,381.6,318.8z"/>
							</defs>
							<linearGradient id="SVGID_27_" gradientUnits="userSpaceOnUse" x1="377.8665" y1="335.4451" x2="377.8665" y2="316.3824">
								<stop  offset="0" style="stop-color:#151B26"/>
								<stop  offset="1" style="stop-color:#151B26"/>
							</linearGradient>
							<use xlink:href="#SVGID_26_"  style="overflow:visible;fill:url(#SVGID_27_);"/>
							<clipPath id="SVGID_28_">
								<use xlink:href="#SVGID_26_"  style="overflow:visible;"/>
							</clipPath>
							<g class="st23">
								
									<linearGradient id="SVGID_29_" gradientUnits="userSpaceOnUse" x1="1992.7194" y1="1187.5695" x2="2006.8265" y2="1187.5695" gradientTransform="matrix(1 -1.465115e-03 1.465115e-03 1 -1623.3184 -858.1062)">
									<stop  offset="0" style="stop-color:#151B26"/>
									<stop  offset="1" style="stop-color:#151B26"/>
								</linearGradient>
								<polygon class="st24" points="385.3,336.9 371.2,336.9 371.1,316.2 385.2,316.2 								"/>
							</g>
							
								<linearGradient id="SVGID_30_" gradientUnits="userSpaceOnUse" x1="1999.4366" y1="1199.3099" x2="1999.4366" y2="1183.3823" gradientTransform="matrix(1 -1.465115e-03 1.465115e-03 1 -1623.3184 -858.1062)">
								<stop  offset="0" style="stop-color:#151B26"/>
								<stop  offset="1" style="stop-color:#151B26"/>
							</linearGradient>
							<path class="st25" d="M385.6,328.7c1.1,5.6-3.7,10.5-9.3,9.4c-3.1-0.6-5.6-3.1-6.2-6.2c-1.1-5.6,3.7-10.5,9.3-9.4
								C382.5,323.1,385,325.6,385.6,328.7z"/>
						</g>
						<g>
							<defs>
								<path id="SVGID_31_" d="M332,369.3c0-12.6-10.2-22.8-22.7-22.8c-12.5,0-22.7,10.3-22.7,22.9c0,12.6,10.2,22.8,22.7,22.8
									S332,382,332,369.3z M293.9,369.4c0-8.6,6.9-15.6,15.5-15.6c8.5,0,15.5,6.9,15.5,15.6c0,8.6-6.9,15.6-15.5,15.6
									C300.8,385,293.9,378,293.9,369.4z"/>
							</defs>
							<linearGradient id="SVGID_32_" gradientUnits="userSpaceOnUse" x1="309.3338" y1="392.2179" x2="309.3338" y2="346.5355">
								<stop  offset="0" style="stop-color:#151B26"/>
								<stop  offset="1" style="stop-color:#151B26"/>
							</linearGradient>
							<use xlink:href="#SVGID_31_"  style="overflow:visible;fill:url(#SVGID_32_);"/>
							<clipPath id="SVGID_33_">
								<use xlink:href="#SVGID_31_"  style="overflow:visible;"/>
							</clipPath>
							
								<linearGradient id="SVGID_34_" gradientUnits="userSpaceOnUse" x1="-2284.104" y1="4797.3442" x2="-2284.104" y2="4746.1245" gradientTransform="matrix(-1 1.465115e-03 -1.465115e-03 -1 -1967.7791 5144.4092)">
								<stop  offset="0" style="stop-color:#151B26"/>
								<stop  offset="1" style="stop-color:#151B26"/>
							</linearGradient>
							<polygon class="st26" points="286.1,343.8 332.5,343.7 332.6,394.9 286.2,395 							"/>
							
								<linearGradient id="SVGID_35_" gradientUnits="userSpaceOnUse" x1="1941.9486" y1="1244.3146" x2="1941.9486" y2="1182.8204" gradientTransform="matrix(1 -1.465115e-03 1.465115e-03 1 -1623.3184 -858.1062)">
								<stop  offset="0" style="stop-color:#151B26"/>
								<stop  offset="1" style="stop-color:#151B26"/>
							</linearGradient>
							<path class="st27" d="M350.8,349.1c2.2,19.7-14.1,36.2-33.6,34.1c-14.2-1.5-25.5-12.9-27.1-27c-2.2-19.7,14.1-36.2,33.6-34.1
								C337.9,323.5,349.2,334.9,350.8,349.1z"/>
						</g>
						<g>
							<defs>
								<path id="SVGID_36_" d="M362.6,369.3c0,12.6,10.2,22.8,22.7,22.8c12.5,0,22.7-10.3,22.7-22.9c0-12.6-10.2-22.8-22.7-22.8
									C372.7,346.4,362.6,356.7,362.6,369.3z M400.8,369.2c0,8.6-6.9,15.6-15.5,15.6c-8.5,0-15.5-6.9-15.5-15.6
									c0-8.6,6.9-15.6,15.5-15.6S400.8,360.6,400.8,369.2z"/>
							</defs>
							<linearGradient id="SVGID_37_" gradientUnits="userSpaceOnUse" x1="385.3102" y1="392.1058" x2="385.3102" y2="346.4234">
								<stop  offset="0" style="stop-color:#151B26"/>
								<stop  offset="1" style="stop-color:#151B26"/>
							</linearGradient>
							<use xlink:href="#SVGID_36_"  style="overflow:visible;fill:url(#SVGID_37_);"/>
							<clipPath id="SVGID_38_">
								<use xlink:href="#SVGID_36_"  style="overflow:visible;"/>
							</clipPath>
							
								<linearGradient id="SVGID_39_" gradientUnits="userSpaceOnUse" x1="2006.3083" y1="1253.1525" x2="2006.3083" y2="1207.3727" gradientTransform="matrix(1 -1.465115e-03 1.465115e-03 1 -1623.3184 -858.1062)">
								<stop  offset="0" style="stop-color:#151B26"/>
								<stop  offset="1" style="stop-color:#151B26"/>
							</linearGradient>
							<polygon class="st28" points="408,392.1 361.6,392.1 361.5,346.4 408,346.3 							"/>
							
								<linearGradient id="SVGID_40_" gradientUnits="userSpaceOnUse" x1="1990.5132" y1="1276.6322" x2="1990.5132" y2="1215.1381" gradientTransform="matrix(1 -1.465115e-03 1.465115e-03 1 -1623.3184 -858.1062)">
								<stop  offset="0" style="stop-color:#151B26"/>
								<stop  offset="1" style="stop-color:#151B26"/>
							</linearGradient>
							<path class="st29" d="M399.4,381.3c2.2,19.7-14.1,36.2-33.6,34.1c-14.2-1.5-25.5-12.9-27.1-27c-2.2-19.7,14.1-36.2,33.6-34.1
								C386.5,355.8,397.8,367.2,399.4,381.3z"/>
						</g>
						<g>
							<defs>
								<path id="SVGID_41_" d="M289.9,352.6l5.9,4.6l15.5,0c3.6,0,6.9,1.8,8.9,4.8l0,0l13.2,0c0,0-3.5-18.8-21.6-18.8
									C297.1,343.2,289.9,352.6,289.9,352.6z"/>
							</defs>
							<clipPath id="SVGID_42_">
								<use xlink:href="#SVGID_41_"  style="overflow:visible;"/>
							</clipPath>
							
								<linearGradient id="SVGID_43_" gradientUnits="userSpaceOnUse" x1="1910.524" y1="1214.197" x2="1954.8123" y2="1214.197" gradientTransform="matrix(1 -1.465115e-03 1.465115e-03 1 -1623.3184 -858.1062)">
								<stop  offset="0" style="stop-color:#EE4050"/>
								<stop  offset="1" style="stop-color:#D72538"/>
							</linearGradient>
							<polygon class="st30" points="333.3,363.3 289,363.3 289,343.3 333.3,343.2 							"/>
							
								<linearGradient id="SVGID_44_" gradientUnits="userSpaceOnUse" x1="1905.0565" y1="1221.2938" x2="1944.6768" y2="1221.2938" gradientTransform="matrix(1 -1.465115e-03 1.465115e-03 1 -1623.3184 -858.1062)">
								<stop  offset="0" style="stop-color:#737374"/>
								<stop  offset="1" style="stop-color:#414242;stop-opacity:0"/>
							</linearGradient>
							<path class="st31" d="M322.9,357.1c2.1,13.5-9.2,25-22.7,23c-8.4-1.3-15.1-8-16.4-16.4c-2.1-13.5,9.2-25,22.7-23
								C314.9,342,321.6,348.7,322.9,357.1z"/>
						</g>
						<g>
							<defs>
								<path id="SVGID_45_" d="M371.6,329.7l-2.4,0.7c0-7.3-7.8-7.1-7.8-12.2c0,0,3.8,0,7.6,0C372.7,318.1,371.6,329.7,371.6,329.7
									z"/>
							</defs>
							<linearGradient id="SVGID_46_" gradientUnits="userSpaceOnUse" x1="361.3422" y1="324.207" x2="371.7139" y2="324.207">
								<stop  offset="0" style="stop-color:#151B26"/>
								<stop  offset="1" style="stop-color:#151B26"/>
							</linearGradient>
							<use xlink:href="#SVGID_45_"  style="overflow:visible;fill:url(#SVGID_46_);"/>
							<clipPath id="SVGID_47_">
								<use xlink:href="#SVGID_45_"  style="overflow:visible;"/>
							</clipPath>
							
								<linearGradient id="SVGID_48_" gradientUnits="userSpaceOnUse" x1="1981.5956" y1="1189.8005" x2="1994.3207" y2="1177.0754" gradientTransform="matrix(1 -1.465115e-03 1.465115e-03 1 -1623.3184 -858.1062)">
								<stop  offset="0" style="stop-color:#151B26"/>
								<stop  offset="1" style="stop-color:#151B26"/>
							</linearGradient>
							<polygon class="st32" points="372.4,329.1 360.3,329.1 360.3,315.7 372.4,315.7 							"/>
							
								<linearGradient id="SVGID_49_" gradientUnits="userSpaceOnUse" x1="1977.4551" y1="1187.1969" x2="1992.1094" y2="1187.1969" gradientTransform="matrix(1 -1.465115e-03 1.465115e-03 1 -1623.3184 -858.1062)">
								<stop  offset="0" style="stop-color:#151B26"/>
								<stop  offset="1" style="stop-color:#151B26"/>
							</linearGradient>
							<path class="st33" d="M370.4,324.7c1,5.2-3.4,9.7-8.6,8.7c-2.9-0.5-5.2-2.9-5.8-5.8c-1-5.2,3.4-9.7,8.6-8.7
								C367.5,319.5,369.8,321.8,370.4,324.7z"/>
						</g>
						<g>
							<defs>
								<path id="SVGID_50_" d="M366.4,330.1L366.4,330.1c0.2,0.6,0.8,0.9,1.3,0.7l1.5-0.5l3.4,10.2l-1.8,0.7l0.1,0.2
									c0.3,1,1.3,1.7,2.3,1.7l0,0l10.4,26.7c0.5,1.4,2.1,2,3.5,1.4h0l-9.9-30.4c-0.3-0.9-1.3-1.4-2.2-1l0,0l-3.4-10.1l1.1-0.4
									c0.5-0.2,0.9-0.8,0.7-1.3l0-0.1c-0.2-0.6-0.8-0.9-1.3-0.7l-4.9,1.6C366.5,328.9,366.2,329.5,366.4,330.1z"/>
							</defs>
							<clipPath id="SVGID_51_">
								<use xlink:href="#SVGID_50_"  style="overflow:visible;"/>
							</clipPath>
							
								<linearGradient id="SVGID_52_" gradientUnits="userSpaceOnUse" x1="1986.8708" y1="1210.0426" x2="2008.5861" y2="1210.0426" gradientTransform="matrix(1 -1.465115e-03 1.465115e-03 1 -1623.3184 -858.1062)">
								<stop  offset="0" style="stop-color:#EE4050"/>
								<stop  offset="1" style="stop-color:#D72538"/>
							</linearGradient>
							<polygon class="st34" points="387.1,372.1 365.4,372.1 365.3,325.9 387,325.9 							"/>
							
								<linearGradient id="SVGID_53_" gradientUnits="userSpaceOnUse" x1="8394.748" y1="1749.8594" x2="8420.9219" y2="1749.8594" gradientTransform="matrix(0.2365 -7.642021e-02 0.3075 0.9515 -2151.217 -673.4075)">
								<stop  offset="0" style="stop-color:#737374"/>
								<stop  offset="1" style="stop-color:#414242;stop-opacity:0"/>
							</linearGradient>
							<polygon class="st35" points="385.3,370.6 379.2,372.5 364.8,327.7 370.9,325.7 							"/>
						</g>
						<g>
							<defs>
								<polygon id="SVGID_54_" points="338.5,364.8 325.6,329.3 327.7,328.6 340.5,364 								"/>
							</defs>
							<clipPath id="SVGID_55_">
								<use xlink:href="#SVGID_54_"  style="overflow:visible;"/>
							</clipPath>
							<line class="st36" x1="326.6" y1="328.9" x2="339.5" y2="364.4"/>
							
								<rect x="324.8" y="328.5" transform="matrix(1 -1.474601e-03 1.474601e-03 1 -0.4953 0.4854)" class="st37" width="8.3" height="15.2"/>
							
								<linearGradient id="SVGID_56_" gradientUnits="userSpaceOnUse" x1="13012.418" y1="-3034.6072" x2="13042.123" y2="-3034.6072" gradientTransform="matrix(0.2709 0.3017 0.2758 0.945 -2364.292 -724.7006)">
								<stop  offset="8.571827e-02" style="stop-color:#737374;stop-opacity:0"/>
								<stop  offset="1" style="stop-color:#434444"/>
							</linearGradient>
							<polygon class="st38" points="330.6,350.8 334.1,349.5 325.6,325.5 322.1,326.8 							"/>
						</g>
						<g>
							<defs>
								<polygon id="SVGID_57_" points="310.4,365.8 308,362 324.4,344.1 332.3,341.3 341.1,364.8 338.5,364.8 331.4,345.2 
									327.4,345.4 								"/>
							</defs>
							<clipPath id="SVGID_58_">
								<use xlink:href="#SVGID_57_"  style="overflow:visible;"/>
							</clipPath>
							
								<rect x="308" y="339.4" transform="matrix(1 -1.474601e-03 1.474601e-03 1 -0.5196 0.4785)" class="st39" width="32.5" height="26.3"/>
							
								<linearGradient id="SVGID_59_" gradientUnits="userSpaceOnUse" x1="1908.7153" y1="1222.6562" x2="1938.6544" y2="1222.6562" gradientTransform="matrix(1.006 3.875841e-02 -4.990116e-03 1.0454 -1604.8197 -996.3776)">
								<stop  offset="8.571827e-02" style="stop-color:#737374;stop-opacity:0"/>
								<stop  offset="1" style="stop-color:#434444"/>
							</linearGradient>
							<polygon class="st40" points="317.8,372.2 339.3,364.5 330.8,340.5 309.3,348.3 							"/>
						</g>
						<g>
							<defs>
								<path id="SVGID_60_" d="M318.5,324.8c-2.4,2.7,3.7,6,3.7,6s14.2,0.6,13.4-3.4c-0.8-4.1-5.5-2.1-8.5-2.2
									C324.1,325.1,321.2,321.8,318.5,324.8z"/>
							</defs>
							<linearGradient id="SVGID_61_" gradientUnits="userSpaceOnUse" x1="326.8081" y1="330.8501" x2="326.8081" y2="323.5362">
								<stop  offset="0" style="stop-color:#151B26"/>
								<stop  offset="1" style="stop-color:#151B26"/>
							</linearGradient>
							<use xlink:href="#SVGID_60_"  style="overflow:visible;fill:url(#SVGID_61_);"/>
							<clipPath id="SVGID_62_">
								<use xlink:href="#SVGID_60_"  style="overflow:visible;"/>
							</clipPath>
							
								<linearGradient id="SVGID_63_" gradientUnits="userSpaceOnUse" x1="1935.6869" y1="1188.2042" x2="1958.111" y2="1188.2042" gradientTransform="matrix(1 -1.465115e-03 1.465115e-03 1 -1623.3184 -858.1062)">
								<stop  offset="0" style="stop-color:#151B26"/>
								<stop  offset="1" style="stop-color:#151B26"/>
							</linearGradient>
							<polygon class="st41" points="336.5,331.3 314.1,331.3 314.1,323.2 336.5,323.2 							"/>
							
								<linearGradient id="SVGID_64_" gradientUnits="userSpaceOnUse" x1="1941.4097" y1="1199.9501" x2="1941.4097" y2="1186.1521" gradientTransform="matrix(1 -1.465115e-03 1.465115e-03 1 -1623.3184 -858.1062)">
								<stop  offset="0" style="stop-color:#151B26"/>
								<stop  offset="1" style="stop-color:#151B26"/>
							</linearGradient>
							<path class="st42" d="M326.6,330.7c0.9,4.9-3.2,9.1-8.1,8.2c-2.7-0.5-4.9-2.7-5.4-5.4c-0.9-4.9,3.2-9.1,8.1-8.2
								C323.9,325.8,326,328,326.6,330.7z"/>
						</g>
						<g>
							<defs>
								<path id="SVGID_65_" d="M370.7,341.2l-11.9,22.5c-2.2,4.3-6.7,7.1-11.5,7.1l0,0c0,3-2.1,7.1-7.2,7.1c-4.6,0-8.1-2.7-8.1-8.5
									l-19.3,0L308,362l2.1,0l1.8,2.5c0,0,21.4,0,28.8,0c7.6,0,10.9-2.2,13.7-6.8s13.6-23.5,13.6-23.5l0-4.1l1.5-0.4l4,11.3
									L370.7,341.2z"/>
							</defs>
							<clipPath id="SVGID_66_">
								<use xlink:href="#SVGID_65_"  style="overflow:visible;"/>
							</clipPath>
							
								<linearGradient id="SVGID_67_" gradientUnits="userSpaceOnUse" x1="1929.4288" y1="1214.2159" x2="1996.9766" y2="1214.2159" gradientTransform="matrix(1 -1.465115e-03 1.465115e-03 1 -1623.3184 -858.1062)">
								<stop  offset="0" style="stop-color:#D8D8D7"/>
								<stop  offset="1" style="stop-color:#E4E4E3"/>
							</linearGradient>
							<polygon class="st43" points="375.5,379.2 307.9,379.3 307.9,327.3 375.4,327.2 							"/>
							<g class="st44">
								
									<linearGradient id="SVGID_68_" gradientUnits="userSpaceOnUse" x1="1958.2189" y1="1232.2327" x2="1964.4821" y2="1232.2327" gradientTransform="matrix(1 -1.465115e-03 1.465115e-03 1 -1623.3184 -858.1062)">
									<stop  offset="0" style="stop-color:#151B26"/>
									<stop  offset="1" style="stop-color:#151B26"/>
								</linearGradient>
								<path class="st45" d="M342.9,370.6c0.4,2.2-1.5,4.1-3.7,3.7c-1.2-0.2-2.2-1.2-2.5-2.5c-0.4-2.2,1.5-4.1,3.7-3.7
									C341.7,368.4,342.7,369.4,342.9,370.6z"/>
							</g>
							
								<linearGradient id="SVGID_69_" gradientUnits="userSpaceOnUse" x1="1928.4513" y1="1216.4773" x2="1996.5604" y2="1216.4773" gradientTransform="matrix(1 -1.465115e-03 1.465115e-03 1 -1623.3184 -858.1062)">
								<stop  offset="0" style="stop-color:#737374"/>
								<stop  offset="1" style="stop-color:#414242;stop-opacity:0"/>
							</linearGradient>
							<path class="st46" d="M375,338.4l-3.3-7.7l-15.9,29.1c-2.6,4-7,6.5-11.7,6.5l-37.1,0.4l0,13.6l43.9-0.4L375,338.4z"/>
						</g>
						<g>
							
								<linearGradient id="SVGID_70_" gradientUnits="userSpaceOnUse" x1="-5754.2583" y1="432.1144" x2="-5748.4019" y2="431.3575" gradientTransform="matrix(-0.5414 -0.2667 0.2749 -0.558 -2890.449 -925.4197)">
								<stop  offset="0" style="stop-color:#D8D8D7"/>
								<stop  offset="1" style="stop-color:#E4E4E3"/>
							</linearGradient>
							<path class="st47" d="M343.6,362.8l1.5,0.7l-4.9,8.3c-0.2,0.3-0.5,0.4-0.8,0.3L339,372c-0.3-0.2-0.4-0.5-0.3-0.8L343.6,362.8
								z"/>
							
								<linearGradient id="SVGID_71_" gradientUnits="userSpaceOnUse" x1="4184.7051" y1="-9143.2637" x2="4192.979" y2="-9146.7578" gradientTransform="matrix(-5.236131e-04 0.6035 -0.3404 -2.953619e-04 -2766.6133 -2167.2915)">
								<stop  offset="0" style="stop-color:#414242"/>
								<stop  offset="1" style="stop-color:#646565"/>
							</linearGradient>
							<path class="st48" d="M341,363.4L341,363.4c0-0.5,0.4-0.8,0.8-0.8l5,0c0.5,0,0.8,0.4,0.8,0.8v0c0,0.5-0.4,0.8-0.8,0.8l-5,0
								C341.4,364.2,341,363.8,341,363.4z"/>
						</g>
					</g>
				</g>
				
					<linearGradient id="SVGID_72_" gradientUnits="userSpaceOnUse" x1="1021.8734" y1="384.7532" x2="1030.8763" y2="384.7532" gradientTransform="matrix(-0.9998 -2.088318e-02 -2.088318e-02 0.9998 1377.3129 -4.8174)">
					<stop  offset="0" style="stop-color:#8E2D37"/>
					<stop  offset="1" style="stop-color:#781A26"/>
				</linearGradient>
				<path class="st49" d="M347.5,361.9L347.5,361.9c-0.1,0.4-0.4,0.6-0.7,0.6c-1.1,0-2.6,0-4.6,0s-4.9-5.9-2.8-7.7s2.5,2.7,2.5,2.7
					l5.2,3.6C347.4,361.2,347.6,361.5,347.5,361.9z"/>
				<g>
					<defs>
						<path id="SVGID_73_" d="M335.8,309c0,0,22.1,9.6,22.1,17.8c0,8.2-15.8,30.7-15.8,30.7c-9.3-17.6,0.2-23.4,0.2-23.4
							s-1.9-2.9-8.7-3.5c-6.9-0.6-28.8-7.1-10.6-25.4L335.8,309"/>
					</defs>
					<clipPath id="SVGID_74_">
						<use xlink:href="#SVGID_73_"  style="overflow:visible;"/>
					</clipPath>
					
						<linearGradient id="SVGID_75_" gradientUnits="userSpaceOnUse" x1="1007.0212" y1="358.4104" x2="1057.6506" y2="358.4104" gradientTransform="matrix(-1.0045 -1.470774e-02 -2.733286e-02 1.0082 1380.9332 -9.5165)">
						<stop  offset="0" style="stop-color:#F9A124"/>
						<stop  offset="1" style="stop-color:#FAB858"/>
					</linearGradient>
					<polygon class="st50" points="360.3,309.4 356.6,369.2 307.8,368.6 310.8,303.9 					"/>
					<path class="st51" d="M347.6,297.2c2.8,0.1,5-2,4.9-2.7c-0.7-3.7-1.9-12.9-3.3-12.4c-0.7,0.3-8.9-2.1-8.9-2.1
						S344.8,297.2,347.6,297.2z"/>
					<g class="st52">
						<linearGradient id="SVGID_76_" gradientUnits="userSpaceOnUse" x1="312.0521" y1="321.9649" x2="355.8287" y2="321.9649">
							<stop  offset="0" style="stop-color:#36415C"/>
							<stop  offset="1" style="stop-color:#4F658B"/>
						</linearGradient>
						<path class="st53" d="M312.1,318.5l12.9,24.1l17.4-8.4c0,0,13.5-9.2,13.5-15s-34.7-17.8-34.7-17.8L312.1,318.5z"/>
					</g>
					<linearGradient id="SVGID_77_" gradientUnits="userSpaceOnUse" x1="308.8455" y1="321.9056" x2="336.5415" y2="321.9056">
						<stop  offset="0" style="stop-color:#737374"/>
						<stop  offset="0.8917" style="stop-color:#2B2B2B;stop-opacity:0"/>
					</linearGradient>
					<path class="st54" d="M325.9,303.4c1,0.8,1.8,1.9,2.2,3.2c0.9,2.8-0.3,5.8-1.2,8.7c-0.9,2.8-1.6,6.1,0,8.6
						c1,1.6,2.7,2.5,4.3,3.5c1.8,1.2,3.5,2.6,4.5,4.6c1,1.9,1.1,4.4,0,6.2c-0.9,1.4-2.5,2.3-4.1,2.8c-6,2-13,0.4-17.5-4
						c-3.5-3.4-5.4-8.5-5.2-13.4c0-1.2,0.4-2.4,0.4-3.6c0-1.2-0.2-2.2,0-3.4c0.5-2.9,1.6-5.7,3.1-8.3c1.3-2.3,3.2-4.4,5.6-5.6
						c2.4-1.1,5.4-1.1,7.6,0.4C325.7,303.3,325.8,303.3,325.9,303.4z"/>
					
						<linearGradient id="SVGID_78_" gradientUnits="userSpaceOnUse" x1="1021.2897" y1="363.5951" x2="1061.521" y2="363.5951" gradientTransform="matrix(-0.9998 -2.088318e-02 -2.088318e-02 0.9998 1377.3129 -4.8174)">
						<stop  offset="0" style="stop-color:#414242"/>
						<stop  offset="1" style="stop-color:#737374;stop-opacity:0"/>
					</linearGradient>
					<path class="st55" d="M333,337.7c-0.4-0.1-0.7-0.1-1.1-0.2c-8.8-1.1-26-5.9-22.8-18.3c0.6-2.4,2.3-4.6,4.7-5.3
						c2.4-0.7,4.9,0.3,7,1.5c3.6,2.2,6.5,5.5,9.9,8.2c3.3,2.7,7.4,4.9,11.7,4.4c1-0.1,2-0.4,3.1-0.4c1,0,2.1,0.2,2.8,1
						c1.6,1.8-1,3.8-1.7,5.4c-0.9,1.8-1.3,3.9-1.5,5.9c-0.5,4.4-0.2,8.8,0.4,13.2c0.3,2.4,0.7,4.9,1.3,7.3c0,0-12-4.8-12-10.4
						c0-2.8-0.5-6.1,0.7-8.7C336.4,339.1,334.8,338.1,333,337.7z"/>
				</g>
				<g>
					<defs>
						<path id="SVGID_79_" d="M323,305.2c6-15.9,7.5-22.1,14.3-23.3c10.9-1.9,11.8,8.7,11.2,21.1c-10.7,0.6-12.7,5.9-12.7,5.9
							L323,305.2z"/>
					</defs>
					<clipPath id="SVGID_80_">
						<use xlink:href="#SVGID_79_"  style="overflow:visible;"/>
					</clipPath>
					
						<linearGradient id="SVGID_81_" gradientUnits="userSpaceOnUse" x1="323.2809" y1="293.3035" x2="352.4386" y2="293.3035" gradientTransform="matrix(1.0041 -9.484323e-04 -9.484323e-04 1.0002 -2.3921 0.5503)">
						<stop  offset="0" style="stop-color:#D7D7D6"/>
						<stop  offset="1" style="stop-color:#E4E4E3"/>
					</linearGradient>
					<polygon class="st56" points="351,310.5 321.9,309.2 322.6,276.7 351.2,277.5 					"/>
					
						<linearGradient id="SVGID_82_" gradientUnits="userSpaceOnUse" x1="1022.7347" y1="322.522" x2="1056.8462" y2="322.522" gradientTransform="matrix(-0.9998 -2.088318e-02 -2.088318e-02 0.9998 1377.3129 -4.8174)">
						<stop  offset="0" style="stop-color:#414242;stop-opacity:0"/>
						<stop  offset="1" style="stop-color:#737374"/>
					</linearGradient>
					<path class="st57" d="M330.2,281.8c-4.4,4.3-5.1,10-10.1,13.8c-2.1,1.6-3.9,2.2-5.5,4.4c-1.5,2.1-0.5,4.4,0.7,6.4
						c1.5,2.6,4.2,4.2,7,5.3c2.8,1.2,5.3,1.5,8,0.3c2.9-1.3,5.9-2.3,8.8-3.4c2.2-0.8,4.6-1.9,5.7-4c1-2,0.4-4.4-0.1-6.5
						c-0.5-2.3-0.7-4.5,0.9-6.4c1.4-1.6,2.6-3.7,2.6-5.9C348.3,279.4,335.4,276.7,330.2,281.8z"/>
				</g>
				<g>
					<defs>
						<path id="SVGID_83_" d="M335.3,283.4c9-2,8.2,18,11.3,21.3c2.4,2.6,9.7,7,14.6,9.6c2.5,1.3,3.9,1.6,5.1,2.2s-1.7,4.2-2.2,4.1
							c-0.5,0-1.4-0.6-1.4-0.6s-0.3,0.5-0.7,0.5c-0.6,0-1.2-1.5-1.2-1.5s-14.8-5.5-19.3-8.5C336.8,307.5,326.3,285.4,335.3,283.4z"
							/>
					</defs>
					<clipPath id="SVGID_84_">
						<use xlink:href="#SVGID_83_"  style="overflow:visible;"/>
					</clipPath>
					
						<linearGradient id="SVGID_85_" gradientUnits="userSpaceOnUse" x1="1000.3913" y1="327.6363" x2="1040.6659" y2="327.6363" gradientTransform="matrix(-0.9998 -2.088318e-02 -2.088318e-02 0.9998 1377.3129 -4.8174)">
						<stop  offset="0" style="stop-color:#F9A124"/>
						<stop  offset="1" style="stop-color:#FAB858"/>
					</linearGradient>
					<polygon class="st58" points="367.2,321.9 330.3,321.2 330.5,280.9 370.7,285 					"/>
					<linearGradient id="SVGID_86_" gradientUnits="userSpaceOnUse" x1="327.0751" y1="294.8425" x2="346.2471" y2="294.8425">
						<stop  offset="0" style="stop-color:#D7D7D6"/>
						<stop  offset="1" style="stop-color:#E4E4E3"/>
					</linearGradient>
					<polygon class="st59" points="336.7,308.7 327.1,284.1 342.2,280.9 346.2,301.9 					"/>
					
						<linearGradient id="SVGID_87_" gradientUnits="userSpaceOnUse" x1="1036.1578" y1="329.3242" x2="1013.7283" y2="328.8557" gradientTransform="matrix(-0.9998 -2.088318e-02 -2.088318e-02 0.9998 1377.3129 -4.8174)">
						<stop  offset="0" style="stop-color:#737374;stop-opacity:0"/>
						<stop  offset="1" style="stop-color:#414242"/>
					</linearGradient>
					<path class="st60" d="M336.1,299c-0.2-0.4-0.3-0.9-0.5-1.3c-1-2.8-1.7-6.1-0.6-8.9c1.1-2.8,4.1-4.4,6.7-3.8
						c5.6,1.3,4.8,8.2,4.2,12.9c-0.4,3.3-0.7,6.8,0.7,9.7c1.7,3.4,5.4,4.1,7.6,6.8c1.1,1.3,2.1,2.6,2.5,4.4c0,0.1,0.1,1.9,0.1,1.9
						c0,0-12.9-6.2-15.8-8.2c-1.9-1.3-3.6-3.7-3.5-6.3C337.7,303.6,336.9,301.3,336.1,299z"/>
				</g>
				<g>
					<defs>
						<path id="SVGID_88_" d="M339.6,282.7c0,0,4.3,7.6,6.8,7.6c0,0,3.1-10.2,4.1-9.6c1,0.7,4.8,2.1,5.5,1.5
							c0.7-0.7,2.9-7.6,3.1-12.7c0.1-3.2-11.3-5.5-12.2,0.9C346.1,277.1,339.6,282.7,339.6,282.7z"/>
					</defs>
					<clipPath id="SVGID_89_">
						<use xlink:href="#SVGID_88_"  style="overflow:visible;"/>
					</clipPath>
					<polygon class="st61" points="340.6,288.9 358,289.2 358.1,265.5 343.5,267.9 					"/>
					
						<linearGradient id="SVGID_90_" gradientUnits="userSpaceOnUse" x1="988.8843" y1="258.5815" x2="1008.8031" y2="258.5815" gradientTransform="matrix(-1.1051 -2.221379e-02 -2.388324e-02 1.1018 1459.7762 15.6179)">
						<stop  offset="0" style="stop-color:#F9A124"/>
						<stop  offset="1" style="stop-color:#FAB858"/>
					</linearGradient>
					<polygon class="st62" points="338.5,291.4 360.5,291.3 360.4,265.3 341.7,268.3 					"/>
					
						<linearGradient id="SVGID_91_" gradientUnits="userSpaceOnUse" x1="1011.1811" y1="305.713" x2="1031.9219" y2="305.713" gradientTransform="matrix(-0.9998 -2.088318e-02 -2.088318e-02 0.9998 1377.3129 -4.8174)">
						<stop  offset="0" style="stop-color:#414242"/>
						<stop  offset="1" style="stop-color:#737374;stop-opacity:0"/>
					</linearGradient>
					<path class="st63" d="M356.2,277.6l-1.5-0.4c0,0,0.5-2.7,0.4-4.3c-0.1-1.6-2.4-1.4-3.7-0.5c-1.3,0.8-2.1,5.6-0.6,7.2
						c1.5,1.6,5.3,2.7,5.3,2.7l-10,10l-6.9-6.2c4-4.9,6.6-17.1,13.3-19c6.4-1.7,9.6,5.8,6.6,5.8c-0.8-0.9-2-0.8-2.2,0.2
						C356.5,274,356.5,276.2,356.2,277.6z"/>
					
						<linearGradient id="SVGID_92_" gradientUnits="userSpaceOnUse" x1="1014.6564" y1="311.2371" x2="1029.738" y2="311.2371" gradientTransform="matrix(-0.9998 -2.088318e-02 -2.088318e-02 0.9998 1377.3129 -4.8174)">
						<stop  offset="0" style="stop-color:#414242"/>
						<stop  offset="1" style="stop-color:#737374;stop-opacity:0"/>
					</linearGradient>
					<path class="st64" d="M348.3,278.8c-0.6,5.5-4.1,9.7-7,9.7c1.6,3.4,5.7,2.6,5.7,2.6l9.5-8.1C356.4,283,351.6,282.8,348.3,278.8
						z"/>
				</g>
				
					<linearGradient id="SVGID_93_" gradientUnits="userSpaceOnUse" x1="1005.4123" y1="347.6208" x2="1005.4123" y2="344.1383" gradientTransform="matrix(-0.9998 -2.088318e-02 -2.088318e-02 0.9998 1377.3129 -4.8174)">
					<stop  offset="0" style="stop-color:#151B26"/>
					<stop  offset="1" style="stop-color:#151B26"/>
				</linearGradient>
				<path class="st65" d="M363.3,319.3c-0.6,1.4,0.8,2.8,2.2,2.3c0.4-0.2,0.8-0.5,1-0.9c0.6-1.4-0.8-2.8-2.2-2.3
					C363.8,318.5,363.5,318.9,363.3,319.3z"/>
				<g>
					<defs>
						<path id="SVGID_94_" d="M340.9,254.9c-8.6,0-7.7,9.5-7.4,12c0.3,2.6,2.2,5.8,4.3,7.4c1.6,1.3,5.6,3.8,7.7,2.9
							c1.3-0.6,1-3.2,1.3-4.4c0.4-1.8,1.2-3.9,2.9-4.8c4.9-2.5,5.6,4.1,10.5,1.8c1-0.5-0.2-5.6-0.5-6.3c-0.6-1.6-1.8-2.8-3.4-3.5
							c-2.4-0.9-8.5,1-8.5,1S349.5,254.9,340.9,254.9z"/>
					</defs>
					<clipPath id="SVGID_95_">
						<use xlink:href="#SVGID_94_"  style="overflow:visible;"/>
					</clipPath>
					<linearGradient id="SVGID_96_" gradientUnits="userSpaceOnUse" x1="332.5825" y1="265.0532" x2="361.7545" y2="265.0532">
						<stop  offset="0" style="stop-color:#472463"/>
						<stop  offset="1" style="stop-color:#602A78"/>
					</linearGradient>
					<rect x="332.6" y="249.6" class="st66" width="29.2" height="31"/>
					
						<linearGradient id="SVGID_97_" gradientUnits="userSpaceOnUse" x1="211.7065" y1="180.7486" x2="239.4649" y2="180.7486" gradientTransform="matrix(0.9616 -0.2745 0.2745 0.9616 79.6925 154.7358)">
						<stop  offset="0" style="stop-color:#737374;stop-opacity:0"/>
						<stop  offset="1" style="stop-color:#414242"/>
					</linearGradient>
					<path class="st67" d="M341.4,253.9c1.3-0.1,2.6,0,3.6,0.8c1.1,0.8,1.5,2.3,1.5,3.7s-0.6,2.7-1.1,3.9s-1.1,2.5-1.3,3.9
						c-0.1,0.7,0,1.7,0.6,2c1.6,1,2.9-1.4,3.8-2.3c1.1-1.1,2.9-1.5,4.3-0.8c1,0.5,1.9,1.6,3.1,1.5c0.7-0.1,1.3-0.5,2-0.7
						c1.4-0.3,2.8,0.8,3.3,2.2c1.2,3.5-0.7,7.4-3.7,9.2c-1.1,0.7-2.3,1.2-3.6,1.6c-0.9,0.3-1.9,0.2-2.8,0.4
						c-2.8,0.7-5.4,0.8-8.3,0.2c-2.9-0.6-5.7-2-7.6-4.2c-1.9-2.3-2.8-5.5-1.7-8.3c0.3-0.8,0.7-1.5,1-2.3c0.5-1.3,0.5-2.7,0.5-4.1
						c0-1,0.4-2.6,0-3.5c-0.3-0.6-1-0.6-0.6-1.2c0.5-0.7,2.5-1.3,3.4-1.5C339,254.2,340.2,254,341.4,253.9z"/>
				</g>
			</g>
		</g>
		<g>
			<g>
				<linearGradient id="SVGID_98_" gradientUnits="userSpaceOnUse" x1="381.9167" y1="280.4851" x2="383.8374" y2="280.4851">
					<stop  offset="0" style="stop-color:#F9A124"/>
					<stop  offset="1" style="stop-color:#FAB858"/>
				</linearGradient>
				<path class="st68" d="M381.9,281.9V279c0-0.5,0.4-1,1-1l0,0c0.5,0,1,0.4,1,1v2.9c0,0.5-0.4,1-1,1l0,0
					C382.3,282.9,381.9,282.5,381.9,281.9z"/>
			</g>
			<g>
				<linearGradient id="SVGID_99_" gradientUnits="userSpaceOnUse" x1="368.4722" y1="291.6003" x2="373.2738" y2="291.6003">
					<stop  offset="0" style="stop-color:#F9A124"/>
					<stop  offset="1" style="stop-color:#FAB858"/>
				</linearGradient>
				<path class="st69" d="M372.3,292.6h-2.9c-0.5,0-1-0.4-1-1l0,0c0-0.5,0.4-1,1-1h2.9c0.5,0,1,0.4,1,1l0,0
					C373.3,292.1,372.8,292.6,372.3,292.6z"/>
			</g>
			<g>
				<linearGradient id="SVGID_100_" gradientUnits="userSpaceOnUse" x1="392.4803" y1="291.6003" x2="397.2819" y2="291.6003">
					<stop  offset="0" style="stop-color:#F9A124"/>
					<stop  offset="1" style="stop-color:#FAB858"/>
				</linearGradient>
				<path class="st70" d="M396.3,292.6h-2.9c-0.5,0-1-0.4-1-1l0,0c0-0.5,0.4-1,1-1h2.9c0.5,0,1,0.4,1,1l0,0
					C397.3,292.1,396.9,292.6,396.3,292.6z"/>
			</g>
			<g>
				<linearGradient id="SVGID_101_" gradientUnits="userSpaceOnUse" x1="389.085" y1="283.3604" x2="393.0428" y2="283.3604">
					<stop  offset="0" style="stop-color:#F9A124"/>
					<stop  offset="1" style="stop-color:#FAB858"/>
				</linearGradient>
				<path class="st71" d="M389.4,283.7l2-2.1c0.4-0.4,1-0.4,1.4,0l0,0c0.4,0.4,0.4,1,0,1.4l-2,2.1c-0.4,0.4-1,0.4-1.4,0l0,0
					C389,284.7,389,284.1,389.4,283.7z"/>
			</g>
			<g>
				<linearGradient id="SVGID_102_" gradientUnits="userSpaceOnUse" x1="372.7113" y1="283.3604" x2="376.6691" y2="283.3604">
					<stop  offset="0" style="stop-color:#F9A124"/>
					<stop  offset="1" style="stop-color:#FAB858"/>
				</linearGradient>
				<path class="st72" d="M375,285.1l-2-2.1c-0.4-0.4-0.4-1,0-1.4l0,0c0.4-0.4,1-0.4,1.4,0l2,2.1c0.4,0.4,0.4,1,0,1.4l0,0
					C376,285.4,375.4,285.4,375,285.1z"/>
			</g>
		</g>
	</g>
	<g id="monito_con_audifonos">
		<g>
			<defs>
				<path id="SVGID_103_" d="M117.9,323.2c2.7,0.5,2.3,4.9,1.4,5.5c-0.9,0.7-7.1,0.1-6.6-2.7c0.6-2.8-14.8-12.6-16.2-14.8
					c-1.4-2.2-7.5-17.2-7.8-19.7c-0.5-5.2,5.5-7.5,8.4-4.9c2.4,2.2,5.5,18.4,7.5,21.6S115.2,322.7,117.9,323.2z"/>
			</defs>
			<clipPath id="SVGID_104_">
				<use xlink:href="#SVGID_103_"  style="overflow:visible;"/>
			</clipPath>
			
				<linearGradient id="SVGID_105_" gradientUnits="userSpaceOnUse" x1="-3105.6233" y1="949.41" x2="-3070.7598" y2="949.41" gradientTransform="matrix(-0.9804 -0.1971 -0.1971 0.9804 -2731.4685 -1232.1628)">
				<stop  offset="0" style="stop-color:#FAB220"/>
				<stop  offset="1" style="stop-color:#FFC65C"/>
			</linearGradient>
			<polygon class="st73" points="87.9,323.7 122.1,330.6 130,291.1 95.8,284.2 			"/>
			
				<linearGradient id="SVGID_106_" gradientUnits="userSpaceOnUse" x1="-3113.7769" y1="837.3038" x2="-3089.5837" y2="842.6373" gradientTransform="matrix(-0.9766 -0.2153 -0.2153 0.9766 -2741.907 -1175.2421)">
				<stop  offset="0" style="stop-color:#737374;stop-opacity:0"/>
				<stop  offset="1" style="stop-color:#414242"/>
			</linearGradient>
			<path class="st74" d="M118.5,327.9c-0.5,0.9-3.5,2.5-4.5,2.5c-1,0-20.2-31.5-20.2-31.5l3.7-3.7c0,0,4.9,14.1,8.6,18.2
				C109.8,317.5,119.4,326.4,118.5,327.9z"/>
		</g>
		<g>
			<defs>
				<path id="SVGID_107_" d="M93.3,344.9c-1-5.4-19.2-32.8-19.2-32.8l-17.1,3.1c3.2,23,21.8,30.8,22.5,34.9c0.7,4-4.5,13.7-3.2,22.8
					c1.3,9.1,9,14,9,14S94.3,350.4,93.3,344.9z"/>
			</defs>
			<clipPath id="SVGID_108_">
				<use xlink:href="#SVGID_107_"  style="overflow:visible;"/>
			</clipPath>
			
				<linearGradient id="SVGID_109_" gradientUnits="userSpaceOnUse" x1="-2449.0107" y1="1874.4164" x2="-2411.4048" y2="1874.4164" gradientTransform="matrix(-0.9875 0.1574 0.1608 1.0088 -2621.7166 -1157.825)">
				<stop  offset="0" style="stop-color:#24324C"/>
				<stop  offset="1" style="stop-color:#3E537D"/>
			</linearGradient>
			<polygon class="st75" points="102.5,384.3 66.9,390.9 56.6,317 92.2,310.5 			"/>
			
				<linearGradient id="SVGID_110_" gradientUnits="userSpaceOnUse" x1="-2449.0786" y1="1882.4635" x2="-2414.0293" y2="1882.4635" gradientTransform="matrix(-0.9875 0.1574 0.1574 0.9875 -2617.1772 -1129.3392)">
				<stop  offset="0" style="stop-color:#737374"/>
				<stop  offset="1" style="stop-color:#414242;stop-opacity:0"/>
			</linearGradient>
			<path class="st76" d="M94.8,336.8c2.6,3.5,3.2,8.5,3.2,13.2c0.1,7-0.6,14-2.2,20.7c-0.7,3.2-1.7,6.4-3.7,8.6
				c-2,2.2-5.4,2.9-7.5,0.8c-2.5-2.4-2.2-6.9-1.7-10.6c0.7-5.1,1.4-10.3,2-15.4c0.5-3.7,1.1-13.1-7.9-11.4c-9,1.7-23.3-26.9-18-27.9
				C64.3,313.8,92.1,333.1,94.8,336.8z"/>
		</g>
		<g>
			<g>
				<defs>
					<path id="SVGID_111_" d="M130.7,326l-0.1,12c0,1.2-1,2.2-2.2,2.2l-7.7,0l0,2.4l8.4,0c2.1,0,3.8-1.7,3.9-3.8l0.1-15.2l0,0
						C131.7,323.5,130.7,324.6,130.7,326z"/>
				</defs>
				<linearGradient id="SVGID_112_" gradientUnits="userSpaceOnUse" x1="126.8799" y1="342.5707" x2="126.8799" y2="323.555">
					<stop  offset="0" style="stop-color:#151B26"/>
					<stop  offset="1" style="stop-color:#151B26"/>
				</linearGradient>
				<use xlink:href="#SVGID_111_"  style="overflow:visible;fill:url(#SVGID_112_);"/>
				<clipPath id="SVGID_113_">
					<use xlink:href="#SVGID_111_"  style="overflow:visible;"/>
				</clipPath>
				<g class="st77">
					
						<linearGradient id="SVGID_114_" gradientUnits="userSpaceOnUse" x1="43.2023" y1="1085.7944" x2="57.3037" y2="1085.7944" gradientTransform="matrix(1 5.239260e-03 -5.239260e-03 1 82.6493 -752.3806)">
						<stop  offset="0" style="stop-color:#151B26"/>
						<stop  offset="1" style="stop-color:#151B26"/>
					</linearGradient>
					<polygon class="st78" points="134.2,344.1 120.1,344 120.2,323.3 134.3,323.3 					"/>
				</g>
				
					<linearGradient id="SVGID_115_" gradientUnits="userSpaceOnUse" x1="49.9169" y1="1097.5297" x2="49.9169" y2="1081.609" gradientTransform="matrix(1 5.239260e-03 -5.239260e-03 1 82.6493 -752.3806)">
					<stop  offset="0" style="stop-color:#151B26"/>
					<stop  offset="1" style="stop-color:#151B26"/>
				</linearGradient>
				<path class="st79" d="M134.6,335.9c1,5.6-3.8,10.4-9.4,9.4c-3.1-0.6-5.6-3.1-6.2-6.3c-1-5.6,3.8-10.4,9.4-9.4
					C131.6,330.2,134,332.8,134.6,335.9z"/>
			</g>
			<g>
				<defs>
					<path id="SVGID_116_" d="M80.8,376.1c0.1-12.6-10-22.9-22.6-23s-22.7,10.1-22.8,22.7c-0.1,12.6,10,22.9,22.6,23
						S80.7,388.7,80.8,376.1z M42.6,375.9c0-8.6,7-15.5,15.5-15.5s15.4,7.1,15.4,15.6c0,8.6-7,15.5-15.5,15.5S42.6,384.5,42.6,375.9
						z"/>
				</defs>
				<linearGradient id="SVGID_117_" gradientUnits="userSpaceOnUse" x1="58.099" y1="398.8521" x2="58.099" y2="353.19">
					<stop  offset="0" style="stop-color:#151B26"/>
					<stop  offset="1" style="stop-color:#151B26"/>
				</linearGradient>
				<use xlink:href="#SVGID_116_"  style="overflow:visible;fill:url(#SVGID_117_);"/>
				<clipPath id="SVGID_118_">
					<use xlink:href="#SVGID_116_"  style="overflow:visible;"/>
				</clipPath>
				
					<linearGradient id="SVGID_119_" gradientUnits="userSpaceOnUse" x1="-334.5998" y1="4899.1562" x2="-334.5998" y2="4847.9575" gradientTransform="matrix(-1 -5.239260e-03 5.239260e-03 -1 -302.0297 5247.7095)">
					<stop  offset="0" style="stop-color:#151B26"/>
					<stop  offset="1" style="stop-color:#151B26"/>
				</linearGradient>
				<polygon class="st80" points="35,350.3 81.4,350.5 81.2,401.7 34.8,401.4 				"/>
				
					<linearGradient id="SVGID_120_" gradientUnits="userSpaceOnUse" x1="-7.5446" y1="1142.5118" x2="-7.5446" y2="1081.0449" gradientTransform="matrix(1 5.239260e-03 -5.239260e-03 1 82.6493 -752.3806)">
					<stop  offset="0" style="stop-color:#151B26"/>
					<stop  offset="1" style="stop-color:#151B26"/>
				</linearGradient>
				<path class="st81" d="M99.8,357.3c1.2,18.6-14.1,33.9-32.6,32.7c-15.2-1-27.4-13.5-28.3-28.6c-1.2-18.6,14.1-33.9,32.6-32.7
					C86.6,329.7,98.8,342.1,99.8,357.3z"/>
			</g>
			<g>
				<defs>
					<path id="SVGID_121_" d="M111.4,376.3c-0.1,12.6,10,22.9,22.6,23c12.5,0.1,22.7-10.1,22.8-22.7c0.1-12.6-10-22.9-22.6-23
						C121.6,353.5,111.4,363.7,111.4,376.3z M149.5,376.5c0,8.6-7,15.5-15.5,15.5c-8.5,0-15.4-7.1-15.4-15.6c0-8.6,7-15.5,15.5-15.5
						S149.6,367.9,149.5,376.5z"/>
				</defs>
				<linearGradient id="SVGID_122_" gradientUnits="userSpaceOnUse" x1="134.0407" y1="399.2525" x2="134.0407" y2="353.5904">
					<stop  offset="0" style="stop-color:#151B26"/>
					<stop  offset="1" style="stop-color:#151B26"/>
				</linearGradient>
				<use xlink:href="#SVGID_121_"  style="overflow:visible;fill:url(#SVGID_122_);"/>
				<clipPath id="SVGID_123_">
					<use xlink:href="#SVGID_121_"  style="overflow:visible;"/>
				</clipPath>
				
					<linearGradient id="SVGID_124_" gradientUnits="userSpaceOnUse" x1="56.7874" y1="1151.3491" x2="56.7874" y2="1105.5885" gradientTransform="matrix(1 5.239260e-03 -5.239260e-03 1 82.6493 -752.3806)">
					<stop  offset="0" style="stop-color:#151B26"/>
					<stop  offset="1" style="stop-color:#151B26"/>
				</linearGradient>
				<polygon class="st82" points="156.6,399.4 110.2,399.1 110.4,353.4 156.8,353.6 				"/>
				
					<linearGradient id="SVGID_125_" gradientUnits="userSpaceOnUse" x1="40.9999" y1="1174.8173" x2="40.9999" y2="1113.3503" gradientTransform="matrix(1 5.239260e-03 -5.239260e-03 1 82.6493 -752.3806)">
					<stop  offset="0" style="stop-color:#151B26"/>
					<stop  offset="1" style="stop-color:#151B26"/>
				</linearGradient>
				<path class="st83" d="M148.1,389.9c1.2,18.6-14.1,33.9-32.6,32.7c-15.2-1-27.4-13.5-28.3-28.6c-1.2-18.6,14.1-33.9,32.6-32.7
					C135,362.3,147.2,374.7,148.1,389.9z"/>
			</g>
			<g>
				<defs>
					<path id="SVGID_126_" d="M38.7,359.2l5.9,4.6l15.5,0.1c3.6,0,6.9,1.9,8.8,4.9l0,0l13.1,0.1c0,0-3.4-18.8-21.5-18.9
						C46,349.8,38.7,359.2,38.7,359.2z"/>
				</defs>
				<clipPath id="SVGID_127_">
					<use xlink:href="#SVGID_126_"  style="overflow:visible;"/>
				</clipPath>
				
					<linearGradient id="SVGID_128_" gradientUnits="userSpaceOnUse" x1="-38.9555" y1="1112.4071" x2="5.3136" y2="1112.4071" gradientTransform="matrix(1 5.239260e-03 -5.239260e-03 1 82.6493 -752.3806)">
					<stop  offset="0" style="stop-color:#EE4050"/>
					<stop  offset="1" style="stop-color:#D72538"/>
				</linearGradient>
				<polygon class="st84" points="82.1,370.1 37.8,369.8 37.9,349.8 82.2,350 				"/>
				
					<linearGradient id="SVGID_129_" gradientUnits="userSpaceOnUse" x1="-44.4201" y1="1119.5005" x2="-4.8174" y2="1119.5005" gradientTransform="matrix(1 5.239260e-03 -5.239260e-03 1 82.6493 -752.3806)">
					<stop  offset="0" style="stop-color:#737374"/>
					<stop  offset="1" style="stop-color:#414242;stop-opacity:0"/>
				</linearGradient>
				<path class="st85" d="M71.9,364.9c1.2,12.7-9.3,23.2-21.8,21.8c-9.3-1-16.7-8.5-17.6-17.8c-1.2-12.7,9.3-23.2,21.8-21.8
					C63.6,348.1,71,355.7,71.9,364.9z"/>
			</g>
			<g>
				<defs>
					<path id="SVGID_130_" d="M120.6,336.8l-2.4,0.6c0-7.3-7.8-7.1-7.8-12.3c0,0,3.8,0,7.6,0C121.8,325.2,120.6,336.8,120.6,336.8z"
						/>
				</defs>
				<linearGradient id="SVGID_131_" gradientUnits="userSpaceOnUse" x1="110.4244" y1="331.2552" x2="120.7396" y2="331.2552">
					<stop  offset="0" style="stop-color:#151B26"/>
					<stop  offset="1" style="stop-color:#151B26"/>
				</linearGradient>
				<use xlink:href="#SVGID_130_"  style="overflow:visible;fill:url(#SVGID_131_);"/>
				<clipPath id="SVGID_132_">
					<use xlink:href="#SVGID_130_"  style="overflow:visible;"/>
				</clipPath>
				
					<linearGradient id="SVGID_133_" gradientUnits="userSpaceOnUse" x1="32.0837" y1="1088.0236" x2="44.8026" y2="1075.3047" gradientTransform="matrix(1 5.239260e-03 -5.239260e-03 1 82.6493 -752.3806)">
					<stop  offset="0" style="stop-color:#151B26"/>
					<stop  offset="1" style="stop-color:#151B26"/>
				</linearGradient>
				<polygon class="st86" points="121.4,336.2 109.3,336.1 109.4,322.8 121.5,322.8 				"/>
				
					<linearGradient id="SVGID_134_" gradientUnits="userSpaceOnUse" x1="27.9449" y1="1085.4213" x2="42.5928" y2="1085.4213" gradientTransform="matrix(1 5.239260e-03 -5.239260e-03 1 82.6493 -752.3806)">
					<stop  offset="0" style="stop-color:#151B26"/>
					<stop  offset="1" style="stop-color:#151B26"/>
				</linearGradient>
				<path class="st87" d="M119.4,331.8c1,5.2-3.5,9.7-8.7,8.7c-2.9-0.6-5.2-2.9-5.7-5.8c-1-5.2,3.5-9.7,8.7-8.7
					C116.6,326.5,118.9,328.9,119.4,331.8z"/>
			</g>
			<g>
				<defs>
					<path id="SVGID_135_" d="M115.4,337.1L115.4,337.1c0.2,0.6,0.7,0.9,1.3,0.7l1.5-0.4l3.3,10.2l-1.8,0.7l0.1,0.2
						c0.3,1,1.3,1.7,2.3,1.7l0,0l10.3,26.8c0.5,1.4,2.1,2.1,3.5,1.4l0,0l-9.7-30.4c-0.3-0.9-1.3-1.4-2.2-1.1l0,0l-3.3-10.1l1.1-0.4
						c0.5-0.2,0.9-0.8,0.7-1.3l0-0.1c-0.2-0.6-0.8-0.9-1.3-0.7l-4.9,1.5C115.5,336,115.2,336.5,115.4,337.1z"/>
				</defs>
				<clipPath id="SVGID_136_">
					<use xlink:href="#SVGID_135_"  style="overflow:visible;"/>
				</clipPath>
				
					<linearGradient id="SVGID_137_" gradientUnits="userSpaceOnUse" x1="37.357" y1="1108.2574" x2="59.0637" y2="1108.2574" gradientTransform="matrix(1 5.239260e-03 -5.239260e-03 1 82.6493 -752.3806)">
					<stop  offset="0" style="stop-color:#EE4050"/>
					<stop  offset="1" style="stop-color:#D72538"/>
				</linearGradient>
				<polygon class="st88" points="135.8,379.3 114.1,379.1 114.3,333 136,333.1 				"/>
				
					<linearGradient id="SVGID_138_" gradientUnits="userSpaceOnUse" x1="1051.8561" y1="1056.1592" x2="1078.0112" y2="1056.1592" gradientTransform="matrix(0.237 -7.483314e-02 0.3011 0.9536 -446.4673 -571.2158)">
					<stop  offset="0" style="stop-color:#737374"/>
					<stop  offset="1" style="stop-color:#414242;stop-opacity:0"/>
				</linearGradient>
				<polygon class="st89" points="134,377.7 127.9,379.7 113.8,334.7 119.9,332.8 				"/>
			</g>
			<g>
				<defs>
					<polygon id="SVGID_139_" points="87.3,371.6 74.6,336.1 76.7,335.3 89.3,370.9 					"/>
				</defs>
				<clipPath id="SVGID_140_">
					<use xlink:href="#SVGID_139_"  style="overflow:visible;"/>
				</clipPath>
				<line class="st90" x1="75.7" y1="335.7" x2="88.3" y2="371.2"/>
				
					<rect x="70.3" y="338.8" transform="matrix(5.273179e-03 -1 1 5.273179e-03 -265.4534 418.9987)" class="st91" width="15.2" height="8.3"/>
				
					<linearGradient id="SVGID_141_" gradientUnits="userSpaceOnUse" x1="2508.3987" y1="214.4239" x2="2538.0955" y2="214.4239" gradientTransform="matrix(0.2689 0.3035 0.2694 0.9468 -659.1936 -623.9362)">
					<stop  offset="8.571827e-02" style="stop-color:#737374;stop-opacity:0"/>
					<stop  offset="1" style="stop-color:#434444"/>
				</linearGradient>
				<polygon class="st92" points="79.5,357.6 83,356.3 74.6,332.3 71.1,333.6 				"/>
			</g>
			<g>
				<defs>
					<polygon id="SVGID_142_" points="59.2,372.4 56.8,368.7 73.3,350.9 81.2,348.2 89.8,371.6 87.3,371.6 80.3,352 76.3,352.2 
											"/>
				</defs>
				<clipPath id="SVGID_143_">
					<use xlink:href="#SVGID_142_"  style="overflow:visible;"/>
				</clipPath>
				
					<rect x="60" y="343.1" transform="matrix(5.273179e-03 -1 1 5.273179e-03 -286.6073 430.5897)" class="st93" width="26.3" height="32.5"/>
				
					<linearGradient id="SVGID_144_" gradientUnits="userSpaceOnUse" x1="-29.3958" y1="1199.8647" x2="0.5308" y2="1199.8647" gradientTransform="matrix(1.0057 4.550218e-02 -1.199890e-02 1.0454 102.083 -890.5153)">
					<stop  offset="8.571827e-02" style="stop-color:#737374;stop-opacity:0"/>
					<stop  offset="1" style="stop-color:#434444"/>
				</linearGradient>
				<polygon class="st94" points="66.6,378.9 88.1,371.3 79.8,347.3 58.2,354.9 				"/>
			</g>
			<g>
				<defs>
					<path id="SVGID_145_" d="M67.6,331.5c-2.4,2.7,3.6,6,3.6,6s14.2,0.7,13.5-3.3c-0.7-4.1-5.4-2.1-8.5-2.2
						C73.1,331.9,70.3,328.5,67.6,331.5z"/>
				</defs>
				<linearGradient id="SVGID_146_" gradientUnits="userSpaceOnUse" x1="75.8478" y1="337.6137" x2="75.8478" y2="330.2809">
					<stop  offset="0" style="stop-color:#151B26"/>
					<stop  offset="1" style="stop-color:#151B26"/>
				</linearGradient>
				<use xlink:href="#SVGID_145_"  style="overflow:visible;fill:url(#SVGID_146_);"/>
				<clipPath id="SVGID_147_">
					<use xlink:href="#SVGID_145_"  style="overflow:visible;"/>
				</clipPath>
				
					<linearGradient id="SVGID_148_" gradientUnits="userSpaceOnUse" x1="-13.8048" y1="1086.4265" x2="8.6096" y2="1086.4265" gradientTransform="matrix(1 5.239260e-03 -5.239260e-03 1 82.6493 -752.3806)">
					<stop  offset="0" style="stop-color:#151B26"/>
					<stop  offset="1" style="stop-color:#151B26"/>
				</linearGradient>
				<polygon class="st95" points="85.5,338.1 63.1,338 63.2,329.9 85.6,330.1 				"/>
				
					<linearGradient id="SVGID_149_" gradientUnits="userSpaceOnUse" x1="-8.0843" y1="1098.167" x2="-8.0843" y2="1084.375" gradientTransform="matrix(1 5.239260e-03 -5.239260e-03 1 82.6493 -752.3806)">
					<stop  offset="0" style="stop-color:#151B26"/>
					<stop  offset="1" style="stop-color:#151B26"/>
				</linearGradient>
				<path class="st96" d="M75.6,337.5c0.9,4.9-3.3,9-8.1,8.1c-2.7-0.5-4.8-2.7-5.3-5.4c-0.9-4.9,3.3-9,8.1-8.1
					C72.9,332.6,75.1,334.8,75.6,337.5z"/>
			</g>
			<g>
				<defs>
					<path id="SVGID_150_" d="M119.7,348.2l-12.1,22.4c-2.3,4.3-6.7,7-11.6,7h0c0,3-2.1,7.1-7.2,7.1c-4.6,0-8-2.7-8-8.6L61.5,376
						l-4.7-7.4l2.1,0l1.8,2.5c0,0,21.4,0.1,28.8,0.2c7.5,0,10.9-2.1,13.7-6.7c2.8-4.6,13.7-23.4,13.7-23.4l0-4.1l1.5-0.4l3.9,11.3
						L119.7,348.2z"/>
				</defs>
				<clipPath id="SVGID_151_">
					<use xlink:href="#SVGID_150_"  style="overflow:visible;"/>
				</clipPath>
				
					<linearGradient id="SVGID_152_" gradientUnits="userSpaceOnUse" x1="-20.0595" y1="1112.4274" x2="47.4596" y2="1112.4274" gradientTransform="matrix(1 5.239260e-03 -5.239260e-03 1 82.6493 -752.3806)">
					<stop  offset="0" style="stop-color:#D8D8D7"/>
					<stop  offset="1" style="stop-color:#E4E4E3"/>
				</linearGradient>
				<polygon class="st97" points="124.1,386.3 56.6,385.9 56.9,333.9 124.4,334.3 				"/>
				<g class="st98">
					
						<linearGradient id="SVGID_153_" gradientUnits="userSpaceOnUse" x1="8.7192" y1="1130.436" x2="14.9796" y2="1130.436" gradientTransform="matrix(1 5.239260e-03 -5.239260e-03 1 82.6493 -752.3806)">
						<stop  offset="0" style="stop-color:#151B26"/>
						<stop  offset="1" style="stop-color:#151B26"/>
					</linearGradient>
					<path class="st99" d="M91.6,377.5c0.4,2.2-1.5,4.1-3.7,3.7c-1.2-0.2-2.2-1.3-2.4-2.5c-0.4-2.2,1.5-4.1,3.7-3.7
						C90.4,375.3,91.4,376.3,91.6,377.5z"/>
				</g>
				
					<linearGradient id="SVGID_154_" gradientUnits="userSpaceOnUse" x1="-21.0352" y1="1114.6876" x2="47.0424" y2="1114.6876" gradientTransform="matrix(1 5.239260e-03 -5.239260e-03 1 82.6493 -752.3806)">
					<stop  offset="0" style="stop-color:#737374"/>
					<stop  offset="1" style="stop-color:#414242;stop-opacity:0"/>
				</linearGradient>
				<path class="st100" d="M123.9,345.5l-3.2-7.7l-16.1,28.9c-2.6,4-7,6.4-11.8,6.4l-37.1,0.2l-0.1,13.6l43.9-0.1L123.9,345.5z"/>
			</g>
		</g>
		
			<linearGradient id="SVGID_155_" gradientUnits="userSpaceOnUse" x1="2986.9629" y1="374.45" x2="2989.0928" y2="374.1748" gradientTransform="matrix(-1 0 0 1 3076.8352 0)">
			<stop  offset="0" style="stop-color:#D8D8D7"/>
			<stop  offset="1" style="stop-color:#E4E4E3"/>
		</linearGradient>
		<polygon class="st101" points="88.2,378.2 89.4,378.2 89.4,370.4 88.2,370.4 		"/>
		<g>
			
				<linearGradient id="SVGID_156_" gradientUnits="userSpaceOnUse" x1="5009.9023" y1="-14128.4443" x2="5018.0288" y2="-14131.876" gradientTransform="matrix(5.000182e-02 0.6014 -0.3393 2.820520e-02 -4955.5498 -2247.2058)">
				<stop  offset="0" style="stop-color:#4E4E4D"/>
				<stop  offset="1" style="stop-color:#262626"/>
			</linearGradient>
			<path class="st102" d="M85.6,370.2l0-0.3c0-0.4,0.3-0.7,0.7-0.7l4.9-0.4c0.5,0,0.9,0.2,0.9,0.6l0,0.3c0,0.4-0.3,0.7-0.7,0.7
				l-4.9,0.4C86.1,370.8,85.7,370.6,85.6,370.2z"/>
		</g>
		
			<linearGradient id="SVGID_157_" gradientUnits="userSpaceOnUse" x1="-2426.127" y1="1969.208" x2="-2415.1814" y2="1969.208" gradientTransform="matrix(-0.9923 0.1237 0.1237 0.9923 -2557.1963 -1292.1951)">
			<stop  offset="0" style="stop-color:#8E2D37"/>
			<stop  offset="1" style="stop-color:#781A26"/>
		</linearGradient>
		<path class="st103" d="M86.8,356.4l0.7,8.8l5.8,1c0.6,0.1,1.1,0.6,1.2,1.3l0,0c0.1,0.5-0.3,1-0.9,1.1l-8.5,0.6
			c-1,0.1-1.8-0.8-1.7-1.7l1.1-11.2L86.8,356.4z"/>
		<g>
			<defs>
				<path id="SVGID_158_" d="M103.4,326.6c-0.8-3.8-19.6-9.6-29.3-14.4l-17.1,3.1c1.8,23.8,29.8,16.9,30,19.3
					c0.2,2.4-7.5,5.9-6.8,15.3s7.3,11.9,7.3,11.9S104.6,331.7,103.4,326.6z"/>
			</defs>
			<clipPath id="SVGID_159_">
				<use xlink:href="#SVGID_158_"  style="overflow:visible;"/>
			</clipPath>
			
				<linearGradient id="SVGID_160_" gradientUnits="userSpaceOnUse" x1="-2359.5806" y1="1783.8043" x2="-2306.0608" y2="1792.9777" gradientTransform="matrix(-1.0982 0.1061 9.620079e-02 0.9954 -2652.3511 -1195.5066)">
				<stop  offset="0" style="stop-color:#24324C"/>
				<stop  offset="1" style="stop-color:#3E537D"/>
			</linearGradient>
			<polygon class="st104" points="108,360.6 58.9,366.4 55,313.4 104,307.6 			"/>
			
				<linearGradient id="SVGID_161_" gradientUnits="userSpaceOnUse" x1="3000.219" y1="316.3109" x2="3025.8926" y2="316.3109" gradientTransform="matrix(-1 0 0 1 3076.8352 0)">
				<stop  offset="0" style="stop-color:#737374"/>
				<stop  offset="1" style="stop-color:#414242;stop-opacity:0"/>
			</linearGradient>
			<path class="st105" d="M76.4,311.5c0.4,1.3,0.1,2.8-0.6,4c-0.7,1.2-1.8,2.1-2.9,2.9c-4.1,2.9-8.9,4.8-13.9,5.3
				c-1.8,0.2-3.7,0.2-5.4-0.6c-1.6-0.8-2.9-2.6-2.6-4.4c0.3-1.6,1.8-2.8,3.2-3.7c3.8-2.4,8-4.2,12.4-5.1
				C69.4,309.1,75.1,307.6,76.4,311.5z"/>
			
				<linearGradient id="SVGID_162_" gradientUnits="userSpaceOnUse" x1="-2483.0662" y1="1789.2678" x2="-2440.5615" y2="1789.2678" gradientTransform="matrix(-0.9954 9.620072e-02 9.620072e-02 0.9954 -2543.8369 -1205.9944)">
				<stop  offset="0" style="stop-color:#737374"/>
				<stop  offset="1" style="stop-color:#414242;stop-opacity:0"/>
			</linearGradient>
			<path class="st106" d="M60.7,333.3c-2.1-2.6-3.7-5.9-4.5-9.4c-0.8-3.4-0.9-7.4,0.8-10.3c1.7-2.8,4.8-4.2,7.6-3.6
				c2.8,0.5,5.3,2.7,7,5.6c1.3,2.2,2,4.7,3.4,6.8c2.8,4.3,5.4,2.2,9,2.2c3.7,0.1,7.4,1.1,10.4,3.8c2.7,2.6,4.4,6.4,5.4,10.3
				c2.1,8.5,0.5,18.5-4.8,24.6c-1.2,1.4-2.7,2.7-4.3,3.2c-1.7,0.5-3.5,0.3-4.9-1c-2-1.9-2.2-5.5-2-8.6c0.3-4.1,1.2-8.2,2.6-12.1
				c0.6-1.7,1.3-3.3,1.5-5.1c0.2-1.8-0.2-3.8-1.4-4.9c-1.4-1.2-3.5-0.7-5,0.4c-3.2,2.3-4.5,5.1-8.5,4.8c-3.3-0.3-6.5-1.5-9.2-3.7
				C62.7,335.6,61.7,334.5,60.7,333.3z"/>
		</g>
		<g>
			<defs>
				<path id="SVGID_163_" d="M98.1,293.6c0.7-3.1-3.2-10.1-4.8-11.3c-23-5.9-41.9,24.5-37.9,34.7c10.5,1.8,18.8-4.8,18.8-4.8
					C73.6,299.7,97.4,296.7,98.1,293.6z"/>
			</defs>
			<linearGradient id="SVGID_164_" gradientUnits="userSpaceOnUse" x1="98.15" y1="299.4195" x2="54.7744" y2="299.4195">
				<stop  offset="0" style="stop-color:#25334D"/>
				<stop  offset="1" style="stop-color:#3E537D"/>
			</linearGradient>
			<use xlink:href="#SVGID_163_"  style="overflow:visible;fill:url(#SVGID_164_);"/>
			<clipPath id="SVGID_165_">
				<use xlink:href="#SVGID_163_"  style="overflow:visible;"/>
			</clipPath>
			<g class="st107">
				
					<linearGradient id="SVGID_166_" gradientUnits="userSpaceOnUse" x1="5208.981" y1="1164.2985" x2="5259.9136" y2="1164.2985" gradientTransform="matrix(1.1015 -1.695410e-02 6.634846e-02 1.0051 -5766.0479 -784.9402)">
					<stop  offset="0" style="stop-color:#25334D"/>
					<stop  offset="1" style="stop-color:#3E537D"/>
				</linearGradient>
				<polygon class="st108" points="93.8,324.1 50.4,317.2 64.7,269 104,277.8 				"/>
			</g>
			
				<linearGradient id="SVGID_167_" gradientUnits="userSpaceOnUse" x1="-3062.0088" y1="830.603" x2="-3092.0518" y2="830.603" gradientTransform="matrix(-0.9766 -0.2153 -0.2153 0.9766 -2741.907 -1175.2421)">
				<stop  offset="0" style="stop-color:#25334D"/>
				<stop  offset="1" style="stop-color:#3E537D"/>
			</linearGradient>
			<path class="st109" d="M97.8,287.1c-1.3-2-2.9-3.7-4.7-4.7c-3-1.6-6.8-1.3-10,0c-3.2,1.3-5.9,3.5-8.6,5.6c-1.7,1.4-3.5,2.9-4.1,5
				c-0.6,2.1,0.2,4.4-0.2,6.5c-0.6,3.4-4,6.2-3.4,9.7c0.4,2.7,3.2,4.5,5.9,4.6c4.7,0.3,11.1-2.6,13.4-6.9c1.1-2,1.4-3.9,3.8-4
				c2-0.1,4-0.6,5.8-1.3C101.5,299.1,100.9,292.1,97.8,287.1z"/>
		</g>
		<g>
			<defs>
				<path id="SVGID_168_" d="M99.8,291.3c-0.4-3.3-2.1-6.4-4.6-8.4c-0.5-0.4-5.6-3.4-5.5-3.6c3.5-2.6-2-10.3-13.4-7.2
					c-7.8,2.1-11.7,8.4-15.3,14c-1.4,2.2-2.8,4.8-2,7.2c0.9,2.5,3.7,3.6,6.2,4.4c1-1.3,1.7-3.3,3.3-2.2c1,0.7,1.8,1.5,2.8,2.1
					c1.7,1.2,3.7,2.9,5.8,3.5c4.1,1.2,8.5,1.5,12.7,0.7c2.2-0.4,4.4-1,6.3-2.2c1.4-0.8,2.9-2,3.4-3.5c0.5-1.3,0.5-2.8,0.4-4.2
					C99.9,291.7,99.9,291.5,99.8,291.3z M91.3,297.4c-2.4,0.7-4.8,1.1-7.3,1.1c-2.3,0-4.7-0.3-6.8-1.2c-1.7-0.8-4.3-3.5-4.3-3.5
					c-0.6-1.9,15.5-12.6,15.8-12c3.4,0.5,6.7,3.3,7.6,6.8c0.4,1.6,0.4,3.4,0,5c-0.4,1.7-0.8,2.1-2.4,2.8
					C93,296.8,92.1,297.1,91.3,297.4z"/>
			</defs>
			<clipPath id="SVGID_169_">
				<use xlink:href="#SVGID_168_"  style="overflow:visible;"/>
			</clipPath>
			
				<linearGradient id="SVGID_170_" gradientUnits="userSpaceOnUse" x1="5640.4829" y1="775.0741" x2="5692.6064" y2="775.0741" gradientTransform="matrix(0.8991 0.2395 -0.2094 0.7859 -4852.188 -1680.1078)">
				<stop  offset="0" style="stop-color:#D7D7D6"/>
				<stop  offset="1" style="stop-color:#E4E4E3"/>
			</linearGradient>
			<polygon class="st110" points="99.1,310.7 52.3,298.1 61.9,261.9 108.7,274.4 			"/>
			
				<linearGradient id="SVGID_171_" gradientUnits="userSpaceOnUse" x1="5542.9243" y1="1235.4006" x2="5493.7905" y2="1233.4579" gradientTransform="matrix(0.9992 -3.951131e-02 3.951131e-02 0.9992 -5483.3755 -722.6234)">
				<stop  offset="0" style="stop-color:#434444"/>
				<stop  offset="0.9143" style="stop-color:#737374;stop-opacity:0"/>
			</linearGradient>
			<path class="st111" d="M84.7,288.1c-1.5,0.7-4.7,1.5-4.8,3.4c-0.1,1.8,1.3,3.8,2.6,4.9c2,1.8,5.3,3.4,8,2.2
				c4-1.7,1.1-6.8,2.4-10.2c0.9-2.6,3.8-4.6,6.3-3.7c1.4,0.5,2.4,1.7,3.1,3c1.9,3.4,2.3,7.5,1.1,11.2c-2.5,7.7-8.3,8.4-15.2,9.5
				c-9.6,1.5-19.7-0.5-27.9-5.7c-2.2-1.4-4.4-3.2-5.1-5.8c-0.8-2.9,0.5-5.8,1.8-8.5c0.8-1.8,1.7-3.5,2.7-5.2
				c0.7-1.2,1.5-2.3,2.5-3.3c1.3-1.3,3.1-2.9,4.9-3.3c2.3-0.4,2.7,1.6,2.5,3.7c-0.1,1.6-1.2,5.2,0.2,6.4c1,0.8,2.5,0.2,3.6-0.4
				c2.3-1.3,4.6-2.6,6.9-3.9c2.5-1.4,9.5-3.2,9.5-3.2s3.8,0.8,6.1,2.2c0.5,0.3,1,0.7,1.3,1.2c0.3,0.5,0.4,1.2,0.1,1.7
				c-0.4,0.6-1.2,0.7-1.9,0.7c-0.9,0-1.8-0.2-2.7-0.4c-0.7-0.2-1.4-0.9-2.2-0.9c-1.6-0.1-2,1.8-2.9,2.6
				C86.7,287.1,85.7,287.6,84.7,288.1z"/>
		</g>
		<g>
			<g>
				<defs>
					<path id="SVGID_172_" d="M93.1,285.1c1.8-0.1,4.3-2.7,4-4c-0.5-2.1-0.3-8.4,4.5-9.2c3.5-0.6,10.1,0.6,10.2,7.7
						c0,4.8-3.2,7.7-4.8,8.5c-1.6,0.9-5-1.8-5-1.8s-3.4,4.3-7.3,4.2C94.7,290.6,91.3,285.2,93.1,285.1z"/>
				</defs>
				<clipPath id="SVGID_173_">
					<use xlink:href="#SVGID_172_"  style="overflow:visible;"/>
				</clipPath>
				
					<linearGradient id="SVGID_174_" gradientUnits="userSpaceOnUse" x1="-2595.4995" y1="-72.4394" x2="-2574.1938" y2="-75.072" gradientTransform="matrix(-1.1172 -0.2099 -0.1846 0.9828 -2799.0972 -188.5996)">
					<stop  offset="0" style="stop-color:#FAB220"/>
					<stop  offset="1" style="stop-color:#FFC65C"/>
				</linearGradient>
				<polygon class="st112" points="89.7,291 110.6,294.9 114.9,271.8 94,267.9 				"/>
				
					<linearGradient id="SVGID_175_" gradientUnits="userSpaceOnUse" x1="-2702.9316" y1="-74.0679" x2="-2718.447" y2="-72.2206" gradientTransform="matrix(-0.9828 -0.1846 -0.1846 0.9828 -2574.3105 -146.3713)">
					<stop  offset="0" style="stop-color:#414242"/>
					<stop  offset="1" style="stop-color:#737374;stop-opacity:0"/>
				</linearGradient>
				<path class="st113" d="M97.5,281.4c0.1,0.4,0.3,0.9,0.3,1.3c0.2,1.1,0.1,2.3-0.2,3.4c-0.7,2.3-2.6,4.1-4.9,4.8
					c1.6,1.5,4.1,2.1,6.2,1.3c1.6-0.5,3.4-2.1,3.8-3.8c0.4-1.7-1.7-3-2.5-4.2c-0.5-0.7-0.8-1.6-0.8-2.5c0-1.6,1.2-3.1,2.6-3.9
					c2.8-1.7,6.2-1.2,9.1,0.2c0.5,0.3,1.2,0.6,1.7,0.3c0.4-0.2,0.3-3.9,0.3-4.3c-0.7-0.3-1.6-0.5-2.3-0.9c-1.3-0.7-2.8-1.1-4-1.9
					c-1.4-1-3.1-1.3-4.8-0.9c-1.6,0.4-3,1.5-3.8,3c-0.6,1-0.8,2.1-1,3.3c-0.2,0.9-0.7,2.3-0.5,3.2c0.1,0.4,0.6,1,0.8,1.4
					C97.4,281.1,97.4,281.2,97.5,281.4z"/>
				
					<linearGradient id="SVGID_176_" gradientUnits="userSpaceOnUse" x1="-1857.8075" y1="612.2641" x2="-1848.6611" y2="612.2641" gradientTransform="matrix(-1.242 0.3127 0.3363 1.3357 -2401.179 41.5343)">
					<stop  offset="0" style="stop-color:#414242"/>
					<stop  offset="1" style="stop-color:#737374;stop-opacity:0"/>
				</linearGradient>
				<path class="st114" d="M99.9,273.9l0.9,6.8c-0.1-0.6,2.3-1.3,2.8-1.4c1.3-0.4,2.6-0.8,3.8-0.1c1,0.5,1.6,1.7,1.8,2.8
					c0.2,1.1,0,2.3-0.2,3.4c1,0.2,2,0.4,2.9,0.5c1.7-2.5,1.2-5.1,0.3-7.7c-0.6-1.6-0.9-3.4-1.4-5.1L99.9,273.9z"/>
			</g>
		</g>
		<g>
			<defs>
				<path id="SVGID_177_" d="M114,322.6c2.9,0.6,2.6,4.9,1.6,5.6s-7.6,0-7.1-2.9c0.6-2.8-16.1-12.9-17.6-15.1s-8.3-17.4-8.6-19.9
					c-0.6-5.2,5.8-7.5,8.9-4.8c2.6,2.3,6.2,18.6,8.4,21.8C101.8,310.6,111.1,322,114,322.6z"/>
			</defs>
			<clipPath id="SVGID_178_">
				<use xlink:href="#SVGID_177_"  style="overflow:visible;"/>
			</clipPath>
			
				<linearGradient id="SVGID_179_" gradientUnits="userSpaceOnUse" x1="-2518.8157" y1="949.5452" x2="-2481.2773" y2="949.5452" gradientTransform="matrix(-1.2196 -0.2452 -0.1971 0.9804 -2762.2009 -1238.3425)">
				<stop  offset="0" style="stop-color:#FAB220"/>
				<stop  offset="1" style="stop-color:#FFC65C"/>
			</linearGradient>
			<polygon class="st115" points="73,320.8 118.6,330.1 126.5,290.6 80.8,281.3 			"/>
			
				<linearGradient id="SVGID_180_" gradientUnits="userSpaceOnUse" x1="-3108.6687" y1="839.0022" x2="-3078.2551" y2="845.7071" gradientTransform="matrix(-0.9766 -0.2153 -0.2153 0.9766 -2741.907 -1175.2421)">
				<stop  offset="0" style="stop-color:#737374;stop-opacity:0"/>
				<stop  offset="1" style="stop-color:#414242"/>
			</linearGradient>
			<path class="st116" d="M111.9,323.6c1.1,1.6,1.9,3.4,0.9,4.9c-0.6,0.9-1.7,1.3-2.8,1.2c-1.1-0.1-2.1-0.5-3.1-1
				c-5.6-2.6-10.7-5.9-15.2-10c-2.1-1.9-3.7-3.6-4.3-6.4c-0.7-3.2-5.2-15.2-5.2-15.2l0,0c3.2-0.8,6.5,0.6,8,3.5
				c2.5,4.6,6.3,11.1,9.1,13c3.2,2.2,6.6,4.2,9.6,6.7C109.7,321.1,110.9,322.3,111.9,323.6z"/>
			
				<linearGradient id="SVGID_181_" gradientUnits="userSpaceOnUse" x1="-3194.3965" y1="-1183.0951" x2="-3205.386" y2="-1196.7704" gradientTransform="matrix(-0.6567 -0.7541 -0.7541 0.6567 -2910.2493 -1338.1307)">
				<stop  offset="0" style="stop-color:#414242"/>
				<stop  offset="1" style="stop-color:#737374;stop-opacity:0"/>
			</linearGradient>
			<path class="st117" d="M90.4,280.6c-1-1-2.3-1.4-3.9-0.4c-1.1,0.7-1.8,1.9-2.4,3.1c-2.8,5.6-6.3,13.9-2.5,19.9
				c1.5,2.4,4,4.1,6.8,4.3c3.6,0.3,6.9-2.3,8.2-5.6c1.3-3.3,1-7.2-0.3-10.7c-1.1-3.2-3.1-5.9-4.7-8.9
				C91.3,281.7,90.9,281.1,90.4,280.6z"/>
		</g>
		<g>
			<g>
				<linearGradient id="SVGID_182_" gradientUnits="userSpaceOnUse" x1="102.9732" y1="267.8502" x2="104.8365" y2="267.8502">
					<stop  offset="0" style="stop-color:#F9A124"/>
					<stop  offset="1" style="stop-color:#FAB858"/>
				</linearGradient>
				<path class="st118" d="M103,269.3v-2.8c0-0.5,0.4-0.9,0.9-0.9h0c0.5,0,0.9,0.4,0.9,0.9v2.8c0,0.5-0.4,0.9-0.9,0.9h0
					C103.4,270.2,103,269.8,103,269.3z"/>
			</g>
			<g>
				<linearGradient id="SVGID_183_" gradientUnits="userSpaceOnUse" x1="89.9299" y1="278.6337" x2="94.5882" y2="278.6337">
					<stop  offset="0" style="stop-color:#F9A124"/>
					<stop  offset="1" style="stop-color:#FAB858"/>
				</linearGradient>
				<path class="st119" d="M93.7,279.6h-2.8c-0.5,0-0.9-0.4-0.9-0.9l0,0c0-0.5,0.4-0.9,0.9-0.9h2.8c0.5,0,0.9,0.4,0.9,0.9l0,0
					C94.6,279.2,94.2,279.6,93.7,279.6z"/>
			</g>
			<g>
				<linearGradient id="SVGID_184_" gradientUnits="userSpaceOnUse" x1="113.2214" y1="278.6337" x2="117.8797" y2="278.6337">
					<stop  offset="0" style="stop-color:#F9A124"/>
					<stop  offset="1" style="stop-color:#FAB858"/>
				</linearGradient>
				<path class="st120" d="M116.9,279.6h-2.8c-0.5,0-0.9-0.4-0.9-0.9l0,0c0-0.5,0.4-0.9,0.9-0.9h2.8c0.5,0,0.9,0.4,0.9,0.9l0,0
					C117.9,279.2,117.5,279.6,116.9,279.6z"/>
			</g>
			<g>
				<linearGradient id="SVGID_185_" gradientUnits="userSpaceOnUse" x1="109.9275" y1="270.6397" x2="113.7672" y2="270.6397">
					<stop  offset="0" style="stop-color:#F9A124"/>
					<stop  offset="1" style="stop-color:#FAB858"/>
				</linearGradient>
				<path class="st121" d="M110.2,271l2-2c0.4-0.4,1-0.4,1.3,0l0,0c0.4,0.4,0.4,1,0,1.3l-2,2c-0.4,0.4-1,0.4-1.3,0l0,0
					C109.8,271.9,109.8,271.3,110.2,271z"/>
			</g>
			<g>
				<linearGradient id="SVGID_186_" gradientUnits="userSpaceOnUse" x1="94.0425" y1="270.6397" x2="97.8821" y2="270.6397">
					<stop  offset="0" style="stop-color:#F9A124"/>
					<stop  offset="1" style="stop-color:#FAB858"/>
				</linearGradient>
				<path class="st122" d="M96.3,272.3l-2-2c-0.4-0.4-0.4-1,0-1.3l0,0c0.4-0.4,1-0.4,1.3,0l2,2c0.4,0.4,0.4,1,0,1.3l0,0
					C97.2,272.7,96.7,272.7,96.3,272.3z"/>
			</g>
		</g>
		<linearGradient id="SVGID_187_" gradientUnits="userSpaceOnUse" x1="99.6081" y1="279.7404" x2="105.9605" y2="279.7404">
			<stop  offset="0" style="stop-color:#151B26"/>
			<stop  offset="1" style="stop-color:#151B26"/>
		</linearGradient>
		<ellipse class="st123" cx="102.8" cy="279.7" rx="3.2" ry="3.2"/>
		<linearGradient id="SVGID_188_" gradientUnits="userSpaceOnUse" x1="102.1612" y1="275.862" x2="105.6485" y2="275.862">
			<stop  offset="0" style="stop-color:#646565"/>
			<stop  offset="1" style="stop-color:#414242"/>
		</linearGradient>
		<path class="st124" d="M102.2,278.6c0-2.1,0.1-2.9,1.2-5.3c0.2-0.4,0.6-1.5,0.8-1.7c0.7-0.8,1.6,0.1,1.5,0.4
			c-0.2,0.4-0.8,1-1.3,2.3c-1.2,2.6-0.8,4.7-0.9,5.4C103.4,280.4,102.2,281.2,102.2,278.6z"/>
	</g>
	<g>
		<g>
			<path class="st5" d="M196.8,359.1l6.2,0l0,2c0,0.8,0,1.3-0.1,1.5c-0.1,0.4-0.3,0.7-0.6,0.9c-0.3,0.2-0.7,0.4-1.2,0.4
				c-0.4,0-0.7-0.1-1-0.2c-0.3-0.1-0.5-0.3-0.6-0.5c-0.1-0.2-0.2-0.4-0.3-0.7c-0.1-0.3-0.1-0.7-0.1-1.3v-0.8l-2.3,0L196.8,359.1z
				 M201.9,360.4h-1.8v0.7c0,0.5,0,0.8,0.1,1c0.1,0.2,0.2,0.3,0.3,0.4c0.1,0.1,0.3,0.1,0.5,0.1c0.2,0,0.4-0.1,0.5-0.2
				c0.1-0.1,0.2-0.3,0.3-0.5c0-0.1,0-0.5,0-0.9V360.4z"/>
			<path class="st5" d="M196.8,364.9l6.2,0l0,2.6c0,0.7-0.1,1.1-0.2,1.4c-0.1,0.3-0.3,0.5-0.6,0.7c-0.3,0.2-0.6,0.3-1,0.3
				c-0.5,0-0.8-0.1-1.1-0.4c-0.3-0.3-0.5-0.7-0.6-1.2c-0.2,0.3-0.3,0.5-0.5,0.7c-0.2,0.2-0.5,0.4-1,0.7l-1.2,0.8l0-1.5l1.3-0.9
				c0.5-0.3,0.8-0.5,0.9-0.7c0.1-0.1,0.2-0.2,0.3-0.4c0-0.1,0.1-0.3,0.1-0.6v-0.3l-2.6,0L196.8,364.9z M200.4,366.2v0.9
				c0,0.6,0,1,0.1,1.1c0,0.1,0.1,0.3,0.3,0.4c0.1,0.1,0.3,0.1,0.5,0.1c0.2,0,0.4-0.1,0.5-0.2c0.1-0.1,0.2-0.3,0.2-0.5
				c0-0.1,0-0.4,0-0.9v-1H200.4z"/>
			<path class="st5" d="M196.8,371.2l6.2,0v1.3l-6.2,0V371.2z"/>
			<path class="st5" d="M199.8,373.3c0.6,0,1.2,0.1,1.6,0.3c0.3,0.1,0.6,0.3,0.9,0.6c0.2,0.2,0.4,0.5,0.6,0.8
				c0.2,0.4,0.2,0.8,0.2,1.3c0,0.9-0.3,1.6-0.9,2.2c-0.6,0.5-1.4,0.8-2.4,0.8c-1,0-1.8-0.3-2.3-0.8c-0.6-0.5-0.8-1.3-0.8-2.2
				c0-0.9,0.3-1.7,0.8-2.2C198.1,373.6,198.8,373.3,199.8,373.3z M199.9,374.6c-0.7,0-1.2,0.2-1.6,0.5c-0.4,0.3-0.5,0.7-0.5,1.2
				c0,0.5,0.2,0.9,0.5,1.2c0.4,0.3,0.9,0.5,1.6,0.5c0.7,0,1.2-0.2,1.6-0.5c0.3-0.3,0.5-0.7,0.5-1.2c0-0.5-0.2-0.9-0.5-1.2
				C201.1,374.8,200.6,374.6,199.9,374.6z"/>
			<path class="st5" d="M196.8,380.4l6.2,0l0,2.6c0,0.7-0.1,1.1-0.2,1.4c-0.1,0.3-0.3,0.5-0.6,0.7c-0.3,0.2-0.6,0.3-1,0.3
				c-0.5,0-0.8-0.1-1.1-0.4c-0.3-0.3-0.5-0.7-0.6-1.2c-0.2,0.3-0.3,0.5-0.5,0.7c-0.2,0.2-0.5,0.4-1,0.7l-1.2,0.8l0-1.5l1.3-0.9
				c0.5-0.3,0.8-0.5,0.9-0.7c0.1-0.1,0.2-0.2,0.3-0.4c0-0.1,0.1-0.3,0.1-0.6v-0.3l-2.6,0L196.8,380.4z M200.3,381.6v0.9
				c0,0.6,0,1,0.1,1.1c0,0.2,0.1,0.3,0.3,0.4c0.1,0.1,0.3,0.1,0.5,0.1c0.2,0,0.4-0.1,0.5-0.2c0.1-0.1,0.2-0.3,0.2-0.5
				c0-0.1,0-0.4,0-0.9v-1H200.3z"/>
			<path class="st5" d="M196.8,386.6l6.2,0l0,1.3l-6.2,0L196.8,386.6z"/>
			<path class="st5" d="M202.9,389l0,2.3c0,0.5,0,0.9-0.1,1.2c-0.1,0.4-0.3,0.7-0.6,0.9c-0.3,0.3-0.6,0.5-1,0.6
				c-0.4,0.1-0.9,0.2-1.5,0.2c-0.5,0-1-0.1-1.3-0.2c-0.4-0.2-0.8-0.4-1.1-0.7c-0.2-0.2-0.4-0.5-0.5-0.9c-0.1-0.3-0.1-0.6-0.1-1.1
				l0-2.4L202.9,389z M201.9,390.3l-4.1,0v0.9c0,0.3,0,0.6,0.1,0.8c0,0.2,0.1,0.4,0.3,0.5c0.1,0.1,0.3,0.2,0.6,0.3
				c0.3,0.1,0.7,0.1,1.1,0.1c0.5,0,0.8,0,1.1-0.1c0.3-0.1,0.5-0.2,0.6-0.4c0.1-0.2,0.2-0.3,0.3-0.6c0-0.2,0.1-0.5,0.1-1V390.3z"/>
			<path class="st5" d="M196.7,400.9l0-1.4l1.4-0.5l0-2.5l-1.4-0.5v-1.3l6.2,2.4v1.3L196.7,400.9z M199.2,398.6l2.3-0.9l-2.3-0.8
				V398.6z"/>
			<path class="st5" d="M202.9,401.6l0,2.3c0,0.5,0,0.9-0.1,1.2c-0.1,0.4-0.3,0.7-0.6,0.9c-0.3,0.3-0.6,0.5-1,0.6
				c-0.4,0.1-0.9,0.2-1.5,0.2c-0.5,0-1-0.1-1.3-0.2c-0.4-0.2-0.8-0.4-1.1-0.7c-0.2-0.2-0.4-0.5-0.5-0.9c-0.1-0.3-0.1-0.7-0.1-1.1
				l0-2.4L202.9,401.6z M201.9,402.8l-4.1,0l0,0.9c0,0.4,0,0.6,0.1,0.8c0,0.2,0.1,0.4,0.3,0.5c0.1,0.1,0.3,0.2,0.6,0.3
				c0.3,0.1,0.7,0.1,1.1,0.1c0.5,0,0.8,0,1.1-0.1c0.3-0.1,0.5-0.2,0.6-0.4c0.1-0.2,0.2-0.3,0.3-0.6c0-0.2,0.1-0.5,0.1-1V402.8z"/>
		</g>
		<g>
			<g>
				
					<linearGradient id="SVGID_189_" gradientUnits="userSpaceOnUse" x1="-10323.9209" y1="-231.579" x2="-10279.4785" y2="-231.579" gradientTransform="matrix(-1 0 0 -1 -10069.4736 151.1572)">
					<stop  offset="0" style="stop-color:#3BB24A"/>
					<stop  offset="1" style="stop-color:#3A834A"/>
				</linearGradient>
				<polygon class="st125" points="210,404.7 254.4,382.5 210.1,360.8 				"/>
				<path class="st5" d="M208.7,406.7l0.1-47.8l48,23.8L208.7,406.7z M211.4,362.7l-0.1,40.1l40.4-20.1L211.4,362.7z"/>
			</g>
			<g>
				<path class="st5" d="M222.8,380.5L222.8,380.5l0.5,0l0.5-0.1l0.5-0.1l0.4-0.2l-0.5-0.1l-0.4-0.1l-0.4-0.1l-0.4-0.2l-0.3-0.2
					l-0.2-0.2l0,0l0,0l0,0v0l0,0l0,0l0,0l0,0l0.1,0l0.1,0l0.1,0l0.1,0l0.1,0l0.1,0l0.1,0l0,0l0.3,0.2l0.3,0.2l0.4,0.1l0.4,0.1
					l0.4,0.1l0.4,0l0.2-0.3l0.1-0.3l0-0.3l-0.1-0.3l-0.2-0.3l-0.3-0.2l-0.4-0.2l-0.4-0.2l-0.5-0.1l-0.5-0.1l-0.5,0l-0.6,0l-0.5,0.1
					l-0.5,0.1l-0.4,0.2l-0.4,0.2l-0.3,0.3l-0.2,0.3L220,379l0.1,0.3l0.2,0.3l0.3,0.3l0.4,0.2l0.4,0.2l0.5,0.1l0.5,0.1L222.8,380.5z
					 M222.9,384L222.9,384l0.2,0l0.2,0l0.2,0l0.1-0.1l0.1-0.1l0.1-0.1l0.1-0.1l0-0.1l0-0.1l0-0.1l0-0.1l-0.1-0.1l-0.1-0.1l-0.1-0.1
					l-0.1-0.1l-0.2,0l-0.2,0l-0.2,0l-0.2,0l-0.2,0l-0.2,0.1l-0.2,0.1l-0.1,0.1l-0.1,0.1l-0.1,0.1l0,0.1l0,0.1l0,0.1l0.1,0.1l0.1,0.1
					l0.1,0.1l0.1,0.1l0.2,0l0.2,0L222.9,384z M224.4,383.5L224.4,383.5l3.5,0.8v-3.8l-0.8-0.1l-3,2.6l0.1,0l0.1,0.1l0.9-0.2v-0.1
					h0.2v0.4h-0.2v-0.2l-0.7,0.2l0.1,0.1l0,0.1L224.4,383.5z M225.9,385.4L225.9,385.4l1.9-0.6v-0.1l-3.8-0.8l-0.2,0.1l-0.2,0.1
					l-0.2,0.1l-0.2,0v0.3l0.5,0.1l0.5,0.1l0.5,0.1l0.4,0.2l0.4,0.2L225.9,385.4z M223.3,386.1L223.3,386.1l1.8-0.6l-0.4-0.2
					l-0.4-0.2l-0.5-0.1l-0.5-0.1V386.1z M222.8,388L222.8,388l0.5,0l0.5-0.1l0.5-0.1l0.4-0.2l0.4-0.2l0.3-0.3l0.2-0.3l0.1-0.3l0-0.3
					l-0.1-0.3l-2.3,0.8l-0.1,0l-0.1,0l-0.1,0l-0.1,0l-0.1,0l-0.1,0l-0.1,0l0,0l0,0l0,0l0,0V385l-0.5,0.1l-0.5,0.1l-0.4,0.1l-0.4,0.2
					l-0.3,0.2l-0.2,0.3l-0.1,0.3l0,0.3l0.1,0.3l0.2,0.3l0.3,0.3l0.4,0.2l0.4,0.2l0.5,0.1l0.5,0.1L222.8,388z M223.5,388.4l-0.7,0
					l-0.7,0l-0.7-0.1l-0.6-0.2l-0.6-0.2l-0.5-0.3l-0.3-0.3l-0.2-0.4l-0.1-0.4l0.1-0.4l0.2-0.4l0.3-0.3l0.4-0.3l0.5-0.2l0.6-0.2
					l0.6-0.1l0.7-0.1v-0.3l-0.2,0l-0.2-0.1l-0.2-0.1l-0.2-0.1l-0.9,0.2v0.2h-0.2v-0.5h0.2v0.1l0.7-0.2l-0.1-0.1l0-0.1l0-0.1l0-0.1
					l0.1-0.1l0.1-0.1l0.2-0.1l0.2-0.1l0.2-0.1l0.2,0l0.2,0l0.2,0l0.2,0l0.2,0l3.1-2.4l-0.7-0.1l-0.5,0.3l-0.6,0.2l-0.6,0.2l-0.7,0.1
					l-0.7,0l-0.7,0l-0.7-0.1l-0.6-0.2l-0.6-0.2l-0.5-0.3l-0.3-0.3l-0.2-0.4l-0.1-0.4l0.1-0.3l0.2-0.3l0.3-0.3l0.4-0.3l0.5-0.2
					l0.5-0.2l0.6-0.1l0.6-0.1l0.6,0l0.7,0l0.6,0.1l0.6,0.2l0.5,0.2l0.5,0.3l0.4,0.3l0.3,0.3l0.1,0.3l0,0.4l-0.1,0.4l-0.2,0.3
					l3.4,0.5l0-0.1l0.1-0.1l0.1-0.1l0.1-0.1l0.1-0.1l0.2,0l0.2,0l0.2,0l0.2,0l0.2,0l0.1,0l0.1,0.1l0.1,0.1l0.1,0.1l0,0.1l0,0.1v0.9
					h-0.9v-0.9l-0.2,0.1l-0.2,0.1l-0.2,0.1l-0.3,0l-0.3,0l-0.3,0l-0.3-0.1v3.9l1.3,0.3V384l0,0l0,0l0,0l0,0l0,0l0.1,0l0.1,0l0.1,0
					h0.1l0.1,0l0.1,0l0.1,0l0,0l0,0l0,0l0,0l0,0v1.6l0,0l0,0l0,0l0,0l-0.1,0l-0.1,0l-0.1,0l-0.1,0l-0.1,0l-0.1,0l-0.1,0l0,0l0,0l0,0
					l0-0.1l0-0.1l0-0.1l0-0.1l-0.1-0.1l-0.1-0.1l-0.1,0l-0.1,0l-0.9-0.2l-2.5,0.8l0.2,0.3l0.1,0.4l0,0.4l-0.1,0.4l-0.3,0.3l-0.4,0.3
					l-0.5,0.3l-0.5,0.2l-0.6,0.2L223.5,388.4z"/>
			</g>
		</g>
	</g>
</g>
</svg>
