<?xml version="1.0" encoding="utf-8"?>
<!-- Generator: Adobe Illustrator 19.2.0, SVG Export Plug-In . SVG Version: 6.00 Build 0)  -->
<svg version="1.1" id="Capa_1" xmlns="http://www.w3.org/2000/svg" xmlns:xlink="http://www.w3.org/1999/xlink" x="0px" y="0px"
	 viewBox="0 0 520 520" style="enable-background:new 0 0 520 520;" xml:space="preserve">
<style type="text/css">
	.st0{fill:url(#SVGID_1_);}
	.st1{fill:#316A2B;}
	.st2{fill:#FFFFFF;}
	.st3{fill:#B0A9A1;}
	.st4{fill:url(#SVGID_2_);}
	.st5{fill:url(#SVGID_3_);}
	.st6{fill:url(#SVGID_4_);}
	.st7{fill:url(#SVGID_5_);}
	.st8{fill:url(#SVGID_6_);}
	.st9{fill:url(#SVGID_7_);}
	.st10{fill:url(#SVGID_8_);}
	.st11{fill:url(#SVGID_9_);}
	.st12{fill:url(#SVGID_10_);}
	.st13{fill:url(#SVGID_11_);}
	.st14{fill:url(#SVGID_12_);}
	.st15{fill:#D8D6CD;}
	.st16{fill:url(#SVGID_13_);}
	.st17{opacity:0.5;fill:url(#SVGID_14_);}
	.st18{opacity:0.5;fill:url(#SVGID_15_);}
	.st19{opacity:0.5;fill:url(#SVGID_16_);}
	.st20{fill:url(#SVGID_17_);}
	.st21{fill:url(#SVGID_18_);}
	.st22{fill:url(#SVGID_19_);}
	.st23{opacity:0.5;fill:url(#SVGID_20_);}
	.st24{fill:url(#SVGID_21_);}
	.st25{fill:url(#SVGID_22_);}
	.st26{opacity:0.25;clip-path:url(#SVGID_24_);fill:url(#SVGID_25_);}
	.st27{opacity:0.25;clip-path:url(#SVGID_27_);fill:url(#SVGID_28_);}
	.st28{fill:url(#SVGID_29_);}
	.st29{fill:url(#SVGID_30_);}
	.st30{opacity:0.25;fill:url(#SVGID_31_);}
	.st31{fill:url(#SVGID_32_);}
	.st32{fill:url(#SVGID_33_);}
	.st33{fill:#BAB6B0;}
	.st34{fill:#F9D420;}
	.st35{fill:url(#SVGID_34_);}
	.st36{fill:url(#SVGID_35_);}
	.st37{fill:url(#SVGID_36_);}
	.st38{fill:url(#SVGID_37_);}
	.st39{fill:url(#SVGID_38_);}
	.st40{fill:url(#SVGID_39_);}
	.st41{fill:url(#SVGID_40_);}
	.st42{fill:url(#SVGID_41_);}
	.st43{fill:url(#SVGID_42_);}
	.st44{fill:url(#SVGID_43_);}
	.st45{fill:url(#SVGID_44_);}
	.st46{fill:url(#SVGID_45_);}
	.st47{fill:url(#SVGID_46_);}
	.st48{fill:url(#SVGID_47_);}
	.st49{fill:url(#SVGID_48_);}
	.st50{fill:url(#SVGID_49_);}
	.st51{fill:url(#SVGID_50_);}
	.st52{fill:url(#SVGID_51_);}
	.st53{fill:url(#SVGID_52_);}
	.st54{fill:url(#SVGID_53_);}
	.st55{fill:url(#SVGID_54_);}
	.st56{fill:url(#SVGID_55_);}
	.st57{fill:url(#SVGID_56_);}
	.st58{fill:url(#SVGID_57_);}
	.st59{fill:url(#SVGID_58_);}
	.st60{fill:url(#SVGID_59_);}
	.st61{fill:url(#SVGID_60_);}
	.st62{fill:#328A69;}
	.st63{fill:url(#SVGID_61_);}
	.st64{fill:url(#SVGID_62_);}
	.st65{fill:url(#SVGID_63_);}
	.st66{fill:url(#SVGID_64_);}
	.st67{fill:url(#SVGID_65_);}
	.st68{fill:url(#SVGID_66_);}
	.st69{fill:url(#SVGID_67_);}
	.st70{fill:url(#SVGID_68_);}
	.st71{fill:url(#SVGID_69_);}
	.st72{fill:#B0ACA5;}
</style>
<g>
	<g>
		<linearGradient id="SVGID_1_" gradientUnits="userSpaceOnUse" x1="260" y1="520" x2="260" y2="-1.013177e-08">
			<stop  offset="3.517618e-02" style="stop-color:#3C3233"/>
			<stop  offset="1" style="stop-color:#3C3233"/>
		</linearGradient>
		<rect x="0" y="0" class="st0" width="520" height="520"/>
	</g>
	<g>
		
			<rect x="313" y="-14.5" transform="matrix(3.895710e-11 1 -1 3.895710e-11 337.1285 -306.403)" class="st1" width="17.5" height="59.8"/>
		
			<rect x="313" y="14.3" transform="matrix(3.890558e-11 1 -1 3.890558e-11 365.9835 -277.5479)" class="st1" width="17.5" height="59.8"/>
		
			<rect x="313" y="42.1" transform="matrix(3.895710e-11 1 -1 3.895710e-11 393.765 -249.7664)" class="st1" width="17.5" height="59.8"/>
		
			<rect x="313" y="69.9" transform="matrix(3.890558e-11 1 -1 3.890558e-11 421.5465 -221.9849)" class="st1" width="17.5" height="59.8"/>
		
			<rect x="313" y="97.7" transform="matrix(3.895710e-11 1 -1 3.895710e-11 449.328 -194.2034)" class="st1" width="17.5" height="59.8"/>
		
			<rect x="313" y="125.5" transform="matrix(3.890558e-11 1 -1 3.890558e-11 477.1095 -166.4219)" class="st1" width="17.5" height="59.8"/>
	</g>
	<g>
		<polygon class="st1" points="182.4,388.3 182.4,278.1 364,278.1 364,388.3 		"/>
		<path class="st2" d="M364.5,391.3H178.9V275.1l185.5,0V391.3z M185.9,385.3h171.6V281.1l-171.6,0V385.3z"/>
	</g>
	<path class="st2" d="M310,323.7c-4.1,0-7.9,1.2-11.1,3.4l-6.9-8.2l0.6-2.9l6.1-2.5c0.7-0.3,1.1-1.1,1-1.8c-0.2-0.8-0.8-1.3-1.6-1.3
		l-15.1,0.6c-0.8,0-1.4,0.6-1.5,1.4c-0.1,0.8,0.4,1.5,1.2,1.7l6.8,1.8c-0.1,0.6-0.3,1.3-0.4,1.8l-29.3-0.2l2.1-5.8
		c0.1-0.2,0.1-0.4,0.1-0.6c0-0.4-0.2-0.9-0.5-1.2c-0.6-0.6-1.1-1.4-1.1-1.7c0,0,0,0,0,0c0,0,0.1-0.1,0.5-0.3c0.6,0,7.8,0,7.8,0
		c0.9,0,1.6-0.7,1.6-1.6c0-0.9-0.7-1.6-1.6-1.6h-8.1c-0.2,0-0.4,0-0.5,0.1c-2,0.7-2.6,1.9-2.7,2.8c0,0.2,0,0.4,0,0.6
		c0,1.3,0.8,2.5,1.4,3.3c-0.3,0.9-2,5.4-3.6,9.6l-0.7,1.7l0,0c-0.5,1.4-1,2.7-1.4,3.8c-3.1-1.9-6.6-3-10.5-3
		c-11.1,0-20.1,9.1-20.1,20.3c0,11.2,9,20.3,20.1,20.3c11.1,0,20.1-9.1,20.1-20.3c0-6.1-2.7-11.6-7-15.4l0.9-2.3l22.7,22.9
		c0,0,0,0,0,0c0.1,0.1,0.1,0.1,0.2,0.2c0,0,0,0,0.1,0c0,0,0.1,0,0.1,0.1l1.1,3.6c-0.8,0.1-1.4,0.8-1.4,1.6c0,0.9,0.7,1.6,1.6,1.6
		h4.3c0.9,0,1.6-0.7,1.6-1.6c0-0.9-0.7-1.6-1.6-1.6h-1.2l-1.2-3.7l7.5-1.1c1.9,9.2,10,16.1,19.7,16.1c11.1,0,20.1-9.1,20.1-20.3
		C330.2,332.8,321.1,323.7,310,323.7z M259.5,343.9c0,9.4-7.6,17.1-17,17.1c-9.4,0-17-7.7-17-17.1c0-9.4,7.6-17.1,17-17.1
		c3.4,0,6.7,1,9.3,2.8c-2.4,7-10.2,12.8-10.3,12.9c-0.4,0.3-0.7,0.8-0.7,1.3c0,0.3,0.1,0.7,0.3,0.9c0.5,0.7,1.5,0.9,2.2,0.3
		c0.4-0.2,8-5.9,11-13.4C257.6,334.9,259.5,339.2,259.5,343.9z M280.7,342.2l-0.4-1.3h0.2c0.2,0,0.5-0.1,0.7-0.2
		C281,341.2,280.8,341.7,280.7,342.2z M280.5,337.7h-3.9c-0.9,0-1.6,0.7-1.6,1.6c0,0.9,0.7,1.6,1.6,1.6h0.4l0.7,2.2L257.7,323
		c0.3-0.8,0.6-1.5,0.9-2.3c1.8,0,23.5,0.2,29.5,0.2c-1.3,3.6-4,11.5-6.2,17.7C281.7,338.1,281.2,337.7,280.5,337.7z M282.7,346
		l8.2-23.6c1.3,1.5,3.3,3.9,5.5,6.5c-4,3.7-6.5,9-6.5,14.9c0,0.4,0,0.7,0,1C287,345.4,284.4,345.8,282.7,346z M293.1,343.9
		c0-4.9,2.1-9.4,5.4-12.5c3.9,4.6,7.8,9.3,9.2,10.9c-2.3,0.3-8.6,1.3-14.6,2.1C293.1,344.3,293.1,344.1,293.1,343.9z M310,361
		c-8.1,0-14.8-5.7-16.5-13.3l17.5-2.6c0.6-0.1,1.1-0.5,1.3-1c0.2-0.5,0.1-1.2-0.3-1.6l-10.9-13c2.6-1.7,5.7-2.6,9-2.6
		c9.3,0,17,7.7,17,17.1C327,353.4,319.4,361,310,361z"/>
	<path class="st2" d="M189,478.9h-10v-60.1h10V478.9z"/>
	<rect y="273.4" class="st2" width="371.6" height="7.8"/>
	<g>
		<rect x="114.7" y="185.9" class="st2" width="17.5" height="75.5"/>
		<rect x="142.5" y="185.9" class="st2" width="17.5" height="75.5"/>
		<rect x="170.3" y="185.9" class="st2" width="17.5" height="75.5"/>
		<rect x="198.1" y="185.9" class="st2" width="17.5" height="75.5"/>
		<rect x="225.9" y="185.9" class="st2" width="17.5" height="75.5"/>
		<rect x="253.6" y="185.9" class="st2" width="17.5" height="75.5"/>
		<rect x="281.4" y="185.9" class="st2" width="17.5" height="75.5"/>
		<rect x="309.2" y="185.9" class="st2" width="17.5" height="75.5"/>
		<rect x="337" y="185.9" class="st2" width="17.5" height="75.5"/>
	</g>
	<g>
		<rect x="31.4" y="185.9" class="st2" width="17.5" height="75.5"/>
		<rect x="59.2" y="185.9" class="st2" width="17.5" height="75.5"/>
		<rect x="86.9" y="185.9" class="st2" width="17.5" height="75.5"/>
	</g>
	<g>
		<rect x="3.6" y="185.9" class="st2" width="17.5" height="75.5"/>
	</g>
	<g>
		
			<rect x="422.3" y="82.9" transform="matrix(4.468610e-11 -1 1 4.468610e-11 313.7998 548.2868)" class="st2" width="17.5" height="68.7"/>
		
			<rect x="422.3" y="55.1" transform="matrix(4.468610e-11 -1 1 4.468610e-11 341.5813 520.5053)" class="st2" width="17.5" height="68.7"/>
		
			<rect x="422.3" y="110.7" transform="matrix(4.468610e-11 -1 1 4.468610e-11 286.0182 576.0683)" class="st2" width="17.5" height="68.7"/>
		
			<rect x="422.3" y="27.3" transform="matrix(4.583273e-11 -1 1 4.583273e-11 369.3628 492.7238)" class="st2" width="17.5" height="68.7"/>
		
			<rect x="422.3" y="-0.5" transform="matrix(4.520746e-11 -1 1 4.520746e-11 397.1443 464.9423)" class="st2" width="17.5" height="68.7"/>
		
			<rect x="423.4" y="-26.7" transform="matrix(5.138651e-11 -1 1 5.138651e-11 423.3619 438.7247)" class="st2" width="15.4" height="68.7"/>
	</g>
	<g id="camioneta">
		<path class="st3" d="M344.7,78l-64.1-49.1l-1.7-1.3l1.6-2c0.7-0.9,2-1.1,3-0.4l64.1,49.1c0.9,0.7,1.1,2,0.4,3l-1.6,2L344.7,78z"/>
		<g>
			<path class="st3" d="M213,243.7l-58.6-44.8l-1.7-1.3l-1.5,2c-0.7,0.9-0.5,2.3,0.4,3l58.6,44.8c0.9,0.7,2.3,0.5,3-0.4l1.5-2
				L213,243.7z"/>
			
				<linearGradient id="SVGID_2_" gradientUnits="userSpaceOnUse" x1="3730.489" y1="1200.0925" x2="3730.489" y2="1239.3881" gradientTransform="matrix(0.7942 0.6076 -0.6076 0.7942 -1988.265 -3010.5396)">
				<stop  offset="0" style="stop-color:#0E0D15"/>
				<stop  offset="1" style="stop-color:#0E0D15"/>
			</linearGradient>
			<path class="st4" d="M237.6,228.1c-6.6,8.6-11.9,15.7-14.2,13.9c-0.3-0.2-2.5-1.9-3-2.3c-2.7-2.1,3.1-10.4,8.9-18
				c5.8-7.5,11.3-13.5,14.7-13.2c0.5,0,3,2,3.3,2.2C249.6,212.5,244.2,219.5,237.6,228.1z"/>
			
				<linearGradient id="SVGID_3_" gradientUnits="userSpaceOnUse" x1="-1959.0178" y1="1200.0925" x2="-1959.0178" y2="1239.3881" gradientTransform="matrix(-0.7942 -0.6076 -0.6076 0.7942 -647.9009 -1985.1226)">
				<stop  offset="0" style="stop-color:#0E0D15"/>
				<stop  offset="1" style="stop-color:#0E0D15"/>
			</linearGradient>
			<path class="st5" d="M162.7,170.8c-6.6,8.6-12,15.6-9.7,17.3c0.3,0.2,2.5,1.9,3,2.3c2.7,2.1,9.2-5.7,15-13.3
				c5.8-7.5,10-14.5,8.9-17.7c-0.2-0.5-2.7-2.3-3-2.6C174.6,155.1,169.3,162.2,162.7,170.8z"/>
			
				<linearGradient id="SVGID_4_" gradientUnits="userSpaceOnUse" x1="3733.885" y1="1067.1405" x2="3733.885" y2="1106.436" gradientTransform="matrix(0.7942 0.6076 -0.6076 0.7942 -1988.265 -3010.5396)">
				<stop  offset="0" style="stop-color:#0E0D15"/>
				<stop  offset="1" style="stop-color:#0E0D15"/>
			</linearGradient>
			<path class="st6" d="M321.1,124.6c-6.6,8.6-11.9,15.7-14.2,13.9c-0.3-0.2-2.5-1.9-3-2.3c-2.7-2.1,3.1-10.4,8.9-18
				c5.8-7.5,11.3-13.5,14.7-13.2c0.5,0,3,2,3.3,2.2C333.1,109,327.7,115.9,321.1,124.6z"/>
			
				<linearGradient id="SVGID_5_" gradientUnits="userSpaceOnUse" x1="-1956.6365" y1="1067.1405" x2="-1956.6365" y2="1106.436" gradientTransform="matrix(-0.7942 -0.6076 -0.6076 0.7942 -647.9009 -1985.1226)">
				<stop  offset="0" style="stop-color:#0E0D15"/>
				<stop  offset="1" style="stop-color:#0E0D15"/>
			</linearGradient>
			<path class="st7" d="M241.6,63.7c-6.6,8.6-12,15.6-9.7,17.3c0.3,0.2,2.5,1.9,3,2.3c2.7,2.1,9.2-5.7,15-13.3
				c5.8-7.5,10-14.5,8.9-17.7c-0.2-0.5-2.7-2.3-3-2.6C253.5,48.1,248.2,55.1,241.6,63.7z"/>
			
				<linearGradient id="SVGID_6_" gradientUnits="userSpaceOnUse" x1="3638.1897" y1="1208.5437" x2="3660.5874" y2="1230.9415" gradientTransform="matrix(0.7942 0.6076 -0.6076 0.7942 -1988.265 -3010.5396)">
				<stop  offset="0" style="stop-color:#E20A16"/>
				<stop  offset="1" style="stop-color:#E20A16"/>
			</linearGradient>
			<polygon class="st8" points="159.3,192.9 155,189.6 178.8,158.4 183.2,161.7 			"/>
			
				<linearGradient id="SVGID_7_" gradientUnits="userSpaceOnUse" x1="3716.5378" y1="1208.5437" x2="3738.9358" y2="1230.9415" gradientTransform="matrix(0.7942 0.6076 -0.6076 0.7942 -1988.265 -3010.5396)">
				<stop  offset="0" style="stop-color:#E20A16"/>
				<stop  offset="1" style="stop-color:#E20A16"/>
			</linearGradient>
			<polygon class="st9" points="221.5,240.5 217.2,237.2 241.1,206 245.4,209.3 			"/>
			
				<linearGradient id="SVGID_8_" gradientUnits="userSpaceOnUse" x1="3635.0354" y1="1075.5894" x2="3657.4333" y2="1097.9872" gradientTransform="matrix(0.7942 0.6076 -0.6076 0.7942 -1988.265 -3010.5396)">
				<stop  offset="0" style="stop-color:#E20A16"/>
				<stop  offset="1" style="stop-color:#E20A16"/>
			</linearGradient>
			<polygon class="st10" points="237.6,85.4 233.2,82.1 257.1,50.8 261.5,54.2 			"/>
			
				<linearGradient id="SVGID_9_" gradientUnits="userSpaceOnUse" x1="3720.4226" y1="1075.5894" x2="3742.8203" y2="1097.9872" gradientTransform="matrix(0.7942 0.6076 -0.6076 0.7942 -1988.265 -3010.5396)">
				<stop  offset="0" style="stop-color:#E20A16"/>
				<stop  offset="1" style="stop-color:#E20A16"/>
			</linearGradient>
			<polygon class="st11" points="305.4,137.3 301,133.9 324.9,102.7 329.3,106.1 			"/>
			
				<linearGradient id="SVGID_10_" gradientUnits="userSpaceOnUse" x1="4915.5508" y1="-6533.2651" x2="4955.6406" y2="-6533.2651" gradientTransform="matrix(-0.6076 0.7942 -0.7942 -0.6076 -1889.5735 -7820.3867)">
				<stop  offset="0" style="stop-color:#F91B32"/>
				<stop  offset="0.1719" style="stop-color:#F11527"/>
				<stop  offset="0.4058" style="stop-color:#E90F1D"/>
				<stop  offset="0.6656" style="stop-color:#E40B18"/>
				<stop  offset="1" style="stop-color:#E20A16"/>
			</linearGradient>
			<polygon class="st12" points="254.5,59.4 278.9,27.6 346.4,79.2 322,111.1 			"/>
			
				<linearGradient id="SVGID_11_" gradientUnits="userSpaceOnUse" x1="4955.6406" y1="-6533.2651" x2="5048.2583" y2="-6533.2651" gradientTransform="matrix(-0.6076 0.7942 -0.7942 -0.6076 -1889.5735 -7820.3867)">
				<stop  offset="0" style="stop-color:#F91B32"/>
				<stop  offset="1" style="stop-color:#E20A16"/>
			</linearGradient>
			<polygon class="st13" points="198.2,133 254.5,59.4 322,111.1 265.7,184.6 			"/>
			
				<linearGradient id="SVGID_12_" gradientUnits="userSpaceOnUse" x1="3802.4055" y1="980.8345" x2="3817.1389" y2="980.8345" gradientTransform="matrix(0.7942 0.6076 -0.6076 0.7942 -2095.0581 -3021.7678)">
				<stop  offset="0" style="stop-color:#FDA909"/>
				<stop  offset="1" style="stop-color:#FEC23E"/>
			</linearGradient>
			<polygon class="st14" points="338.1,79.9 326.4,70.9 331.5,64.3 343.2,73.3 			"/>
			<polygon class="st15" points="318.7,108.6 284,130.9 247,102.5 258.5,62.5 			"/>
			
				<linearGradient id="SVGID_13_" gradientUnits="userSpaceOnUse" x1="4915.5508" y1="-6562.6377" x2="4922.0796" y2="-6562.6377" gradientTransform="matrix(-0.6076 0.7942 -0.7942 -0.6076 -1889.5735 -7820.3867)">
				<stop  offset="0" style="stop-color:#F91B32"/>
				<stop  offset="1" style="stop-color:#E20A16"/>
			</linearGradient>
			<polygon class="st16" points="324.8,70.9 328.7,65.7 343.2,76.8 339.2,82 			"/>
			<polygon class="st15" points="248.3,73.4 238.7,105.5 223.6,125.3 206.9,127.5 			"/>
			
				<linearGradient id="SVGID_14_" gradientUnits="userSpaceOnUse" x1="5783.4507" y1="-4697.4126" x2="5829.7861" y2="-4697.4126" gradientTransform="matrix(-0.2779 0.9606 -0.9606 -0.2779 -2627.3787 -6780.0679)">
				<stop  offset="0" style="stop-color:#D8D6CD"/>
				<stop  offset="1" style="stop-color:#D8D6CD;stop-opacity:0"/>
			</linearGradient>
			<path class="st17" d="M290.2,86.4c-18.9-15.6-36.7,9.5-43.1,16.1l37,28.3C289,121.7,304.7,98.4,290.2,86.4z"/>
			
				<linearGradient id="SVGID_15_" gradientUnits="userSpaceOnUse" x1="4979.3018" y1="-175.5019" x2="5016.9854" y2="-175.5019" gradientTransform="matrix(-0.6076 0.7942 0.7942 0.6076 3399.3774 -3746.9292)">
				<stop  offset="0" style="stop-color:#D8D6CD"/>
				<stop  offset="1" style="stop-color:#D8D6CD;stop-opacity:0"/>
			</linearGradient>
			<path class="st18" d="M234.5,101.2c2.6,2-4.3,15.4-11,24.1l-16.7,2.2C213.5,118.8,231.9,99.2,234.5,101.2z"/>
			<polygon class="st15" points="309.6,120.3 281.1,137.9 265.9,157.7 268.2,174.4 			"/>
			
				<linearGradient id="SVGID_16_" gradientUnits="userSpaceOnUse" x1="4979.3018" y1="-5739.8154" x2="5016.9854" y2="-5739.8154" gradientTransform="matrix(-0.6076 0.7942 -0.7942 -0.6076 -1246.9236 -7301.4834)">
				<stop  offset="0" style="stop-color:#D8D6CD"/>
				<stop  offset="1" style="stop-color:#D8D6CD;stop-opacity:0"/>
			</linearGradient>
			<path class="st19" d="M286.3,140.8c-2.6-2-13.7,8.2-20.4,16.9l2.2,16.7C274.8,165.7,288.9,142.8,286.3,140.8z"/>
			
				<linearGradient id="SVGID_17_" gradientUnits="userSpaceOnUse" x1="5127.2051" y1="-6559.5522" x2="5129.563" y2="-6559.5522" gradientTransform="matrix(-0.6076 0.7942 -0.7942 -0.6076 -1889.5735 -7820.3867)">
				<stop  offset="0" style="stop-color:#FDA909"/>
				<stop  offset="1" style="stop-color:#FEC23E"/>
			</linearGradient>
			<polygon class="st20" points="198.7,235.7 200.2,233.8 209.6,241.1 208.2,243 			"/>
			
				<linearGradient id="SVGID_18_" gradientUnits="userSpaceOnUse" x1="5127.2051" y1="-6506.2134" x2="5129.563" y2="-6506.2134" gradientTransform="matrix(-0.6076 0.7942 -0.7942 -0.6076 -1889.5735 -7820.3867)">
				<stop  offset="0" style="stop-color:#FDA909"/>
				<stop  offset="1" style="stop-color:#FEC23E"/>
			</linearGradient>
			<polygon class="st21" points="156.4,203.3 157.8,201.4 167.3,208.7 165.8,210.6 			"/>
			<polygon class="st15" points="210.6,132.5 225.9,130.2 262.9,158.5 264.1,173.8 			"/>
			
				<linearGradient id="SVGID_19_" gradientUnits="userSpaceOnUse" x1="3649.4587" y1="1168.3872" x2="3727.9761" y2="1246.9045" gradientTransform="matrix(0.7942 0.6076 -0.6076 0.7942 -1988.265 -3010.5396)">
				<stop  offset="0" style="stop-color:#E20A16"/>
				<stop  offset="1" style="stop-color:#E20A16"/>
			</linearGradient>
			<polygon class="st22" points="214.7,245 152.7,197.6 200.7,134.8 262.7,182.3 			"/>
			
				<linearGradient id="SVGID_20_" gradientUnits="userSpaceOnUse" x1="-4560.4453" y1="-2698.0562" x2="-4535.7124" y2="-2698.0562" gradientTransform="matrix(0.2779 -0.9606 0.9606 0.2779 4098.4775 -3471.2612)">
				<stop  offset="0" style="stop-color:#D8D6CD"/>
				<stop  offset="1" style="stop-color:#D8D6CD;stop-opacity:0"/>
			</linearGradient>
			<path class="st23" d="M237,153c18.9,15.6,19.5,12.1,25.9,5.5l-37-28.3C220.9,139.4,222.4,141,237,153z"/>
			
				<linearGradient id="SVGID_21_" gradientUnits="userSpaceOnUse" x1="3743.782" y1="980.8345" x2="3758.5154" y2="980.8345" gradientTransform="matrix(0.7942 0.6076 -0.6076 0.7942 -2095.0581 -3021.7678)">
				<stop  offset="0" style="stop-color:#FDA909"/>
				<stop  offset="1" style="stop-color:#FEC23E"/>
			</linearGradient>
			<polygon class="st24" points="291.6,44.3 279.9,35.3 284.9,28.7 296.7,37.7 			"/>
			
				<linearGradient id="SVGID_22_" gradientUnits="userSpaceOnUse" x1="4915.5508" y1="-6504.0142" x2="4922.0796" y2="-6504.0142" gradientTransform="matrix(-0.6076 0.7942 -0.7942 -0.6076 -1889.5735 -7820.3867)">
				<stop  offset="0" style="stop-color:#F91B32"/>
				<stop  offset="1" style="stop-color:#E20A16"/>
			</linearGradient>
			<polygon class="st25" points="278.2,35.3 282.2,30.1 296.6,41.2 292.6,46.3 			"/>
			<g>
				<defs>
					
						<rect id="SVGID_23_" x="280.4" y="26.8" transform="matrix(0.6076 -0.7942 0.7942 0.6076 62.8324 265.8217)" width="40.1" height="85"/>
				</defs>
				<clipPath id="SVGID_24_">
					<use xlink:href="#SVGID_23_"  style="overflow:visible;"/>
				</clipPath>
				
					<linearGradient id="SVGID_25_" gradientUnits="userSpaceOnUse" x1="3609.9385" y1="1056.061" x2="3691.3604" y2="1056.061" gradientTransform="matrix(0.7942 0.6076 -0.6076 0.7942 -1988.265 -3010.5396)">
					<stop  offset="0" style="stop-color:#2F2829;stop-opacity:0"/>
					<stop  offset="1" style="stop-color:#635A58"/>
				</linearGradient>
				<circle class="st26" cx="269.5" cy="46.4" r="40.7"/>
			</g>
			<g>
				<defs>
					
						<rect id="SVGID_26_" x="168.6" y="150.4" transform="matrix(0.7942 0.6076 -0.6076 0.7942 158.1283 -87.0974)" width="78" height="79"/>
				</defs>
				<clipPath id="SVGID_27_">
					<use xlink:href="#SVGID_26_"  style="overflow:visible;"/>
				</clipPath>
				
					<linearGradient id="SVGID_28_" gradientUnits="userSpaceOnUse" x1="3650.0435" y1="1255.8483" x2="3650.0435" y2="1167.1357" gradientTransform="matrix(0.7942 0.6076 -0.6076 0.7942 -1988.265 -3010.5396)">
					<stop  offset="0" style="stop-color:#2F2829;stop-opacity:0"/>
					<stop  offset="1" style="stop-color:#635A58"/>
				</linearGradient>
				<path class="st27" d="M218,202.7c-14.9,19.5-46.4,20.4-70.3,2.1s-31.3-48.9-16.4-68.4s46.4-20.4,70.3-2.1S232.9,183.2,218,202.7
					z"/>
			</g>
			
				<linearGradient id="SVGID_29_" gradientUnits="userSpaceOnUse" x1="3654.5044" y1="1176.9775" x2="3723.0359" y2="1245.509" gradientTransform="matrix(0.7942 0.6076 -0.6076 0.7942 -1988.265 -3010.5396)">
				<stop  offset="0" style="stop-color:#0E0D15"/>
				<stop  offset="1" style="stop-color:#0E0D15"/>
			</linearGradient>
			<polygon class="st28" points="209.6,241.2 157.8,201.5 201.4,144.5 253.2,184.1 			"/>
			
				<linearGradient id="SVGID_30_" gradientUnits="userSpaceOnUse" x1="3646.4111" y1="1185.0708" x2="3698.7393" y2="1237.399" gradientTransform="matrix(0.7942 0.6076 -0.6076 0.7942 -1988.265 -3010.5396)">
				<stop  offset="0" style="stop-color:#0F0E0D"/>
				<stop  offset="1" style="stop-color:#0F0E0D"/>
			</linearGradient>
			<polygon class="st29" points="183.9,221.5 157.8,201.5 201.4,144.5 227.5,164.4 			"/>
			
				<linearGradient id="SVGID_31_" gradientUnits="userSpaceOnUse" x1="3660.0288" y1="1116.3788" x2="3690.7656" y2="1147.1156" gradientTransform="matrix(0.7942 0.6076 -0.6076 0.7942 -1988.265 -3010.5396)">
				<stop  offset="0" style="stop-color:#2F2829;stop-opacity:0"/>
				<stop  offset="1" style="stop-color:#635A58"/>
			</linearGradient>
			<polygon class="st30" points="264.4,115.8 243.2,143.5 222,127.3 243.2,99.6 			"/>
		</g>
		
			<linearGradient id="SVGID_32_" gradientUnits="userSpaceOnUse" x1="3775.439" y1="956.3183" x2="3791.7612" y2="956.3183" gradientTransform="matrix(0.7942 0.6076 -0.6076 0.7942 -2102.8821 -2939.4517)">
			<stop  offset="0" style="stop-color:#E20A16"/>
			<stop  offset="1" style="stop-color:#F91B32"/>
		</linearGradient>
		<polygon class="st31" points="318.8,108.6 331.8,118.5 326.1,126 310.4,119.6 		"/>
		
			<linearGradient id="SVGID_33_" gradientUnits="userSpaceOnUse" x1="-2569.4277" y1="956.3183" x2="-2553.1055" y2="956.3183" gradientTransform="matrix(-0.7942 -0.6076 -0.6076 0.7942 -1205.3544 -2252.8171)">
			<stop  offset="0" style="stop-color:#E20A16"/>
			<stop  offset="1" style="stop-color:#F91B32"/>
		</linearGradient>
		<polygon class="st32" points="258.5,62.5 245.5,52.5 239.8,60 250.1,73.4 		"/>
	</g>
	<path class="st33" d="M519.8,160.4l-100.3,0c-18,0.2-52,46.9-52,46.9V520h152.2V224.1h0.1V160.4z"/>
	<g>
		<rect x="367.5" y="352.5" class="st15" width="152.2" height="3.6"/>
	</g>
	<polygon class="st34" points="370.5,520 364.5,520 364.5,208.8 418.3,157.4 519.8,157.4 519.8,163.4 420.7,163.4 370.5,210.9 	"/>
	<radialGradient id="SVGID_34_" cx="413.0605" cy="443.4133" r="27.8965" gradientUnits="userSpaceOnUse">
		<stop  offset="0" style="stop-color:#680811"/>
		<stop  offset="0.1483" style="stop-color:#670A11"/>
		<stop  offset="0.3025" style="stop-color:#640E11"/>
		<stop  offset="0.4593" style="stop-color:#5D1912"/>
		<stop  offset="0.618" style="stop-color:#532813"/>
		<stop  offset="0.7781" style="stop-color:#433B15"/>
		<stop  offset="0.9374" style="stop-color:#2D4F18"/>
		<stop  offset="1" style="stop-color:#22581A"/>
	</radialGradient>
	<rect x="384.6" y="416.1" class="st35" width="57" height="54.6"/>
	<linearGradient id="SVGID_35_" gradientUnits="userSpaceOnUse" x1="388.302" y1="443.0912" x2="432.6846" y2="443.0912">
		<stop  offset="0" style="stop-color:#82C53B"/>
		<stop  offset="1" style="stop-color:#3D6518"/>
	</linearGradient>
	<path class="st36" d="M432.7,446c0-1.1-0.2-2.2-0.5-3.2c0-0.4,0.1-0.8,0.1-1.3c0-3.3-0.8-6.5-2.2-9.2c0.2-0.8,0.3-1.7,0.3-2.6
		c0-5.8-4.7-10.5-10.5-10.5c-2.3,0-4.3,0.7-6.1,1.9c-0.7-0.1-1.4-0.1-2.1-0.1c-4.2,0-8.1,1.3-11.4,3.5c-0.5-0.1-1-0.1-1.5-0.1
		c-5.8,0-10.5,4.7-10.5,10.5c0,2.8,1.1,5.4,2.9,7.3c0,0.4,0,0.8,0.1,1.2c-1.9,1.9-3,4.5-3,7.4c0,5.8,4.7,10.5,10.5,10.5
		c1.6,0,3.1-0.4,4.4-1c1.5,3.9,5.3,6.8,9.8,6.8c5.2,0,9.4-3.7,10.3-8.6c1.3-0.9,2.4-1.9,3.4-3C430.3,453.7,432.7,450.1,432.7,446z"
		/>
	<radialGradient id="SVGID_36_" cx="413.0605" cy="270.6453" r="27.8965" gradientUnits="userSpaceOnUse">
		<stop  offset="0" style="stop-color:#680811"/>
		<stop  offset="0.1483" style="stop-color:#670A11"/>
		<stop  offset="0.3025" style="stop-color:#640E11"/>
		<stop  offset="0.4593" style="stop-color:#5D1912"/>
		<stop  offset="0.618" style="stop-color:#532813"/>
		<stop  offset="0.7781" style="stop-color:#433B15"/>
		<stop  offset="0.9374" style="stop-color:#2D4F18"/>
		<stop  offset="1" style="stop-color:#22581A"/>
	</radialGradient>
	<rect x="384.6" y="243.4" class="st37" width="57" height="54.6"/>
	<linearGradient id="SVGID_37_" gradientUnits="userSpaceOnUse" x1="388.302" y1="270.3232" x2="432.6846" y2="270.3232">
		<stop  offset="0" style="stop-color:#82C53B"/>
		<stop  offset="1" style="stop-color:#3D6518"/>
	</linearGradient>
	<path class="st38" d="M432.7,273.2c0-1.1-0.2-2.2-0.5-3.2c0-0.4,0.1-0.8,0.1-1.3c0-3.3-0.8-6.5-2.2-9.2c0.2-0.8,0.3-1.7,0.3-2.6
		c0-5.8-4.7-10.5-10.5-10.5c-2.3,0-4.3,0.7-6.1,1.9c-0.7-0.1-1.4-0.1-2.1-0.1c-4.2,0-8.1,1.3-11.4,3.5c-0.5-0.1-1-0.1-1.5-0.1
		c-5.8,0-10.5,4.7-10.5,10.5c0,2.8,1.1,5.4,2.9,7.3c0,0.4,0,0.8,0.1,1.2c-1.9,1.9-3,4.5-3,7.4c0,5.8,4.7,10.5,10.5,10.5
		c1.6,0,3.1-0.4,4.4-1c1.5,3.9,5.3,6.8,9.8,6.8c5.2,0,9.4-3.7,10.3-8.6c1.3-0.9,2.4-1.9,3.4-3C430.3,280.9,432.7,277.3,432.7,273.2z
		"/>
	<g id="monito_morado_1_">
		<g>
			
				<linearGradient id="SVGID_38_" gradientUnits="userSpaceOnUse" x1="-955.6926" y1="149.2878" x2="-955.6926" y2="186.9993" gradientTransform="matrix(1 0 0 1 1244.5359 311.6851)">
				<stop  offset="0" style="stop-color:#0E0D15"/>
				<stop  offset="1" style="stop-color:#0E0D15"/>
			</linearGradient>
			<path class="st39" d="M290.3,498.7h-2.8c-0.5,0-0.9-0.4-0.9-0.9v-35.9c0-0.5,0.4-0.9,0.9-0.9h2.8c0.5,0,0.9,0.4,0.9,0.9v35.9
				C291.2,498.3,290.8,498.7,290.3,498.7z"/>
			
				<linearGradient id="SVGID_39_" gradientUnits="userSpaceOnUse" x1="-955.6926" y1="136.2613" x2="-955.6926" y2="165.8318" gradientTransform="matrix(1 0 0 1 1244.5359 311.6851)">
				<stop  offset="0" style="stop-color:#F91B32"/>
				<stop  offset="0.1719" style="stop-color:#F11527"/>
				<stop  offset="0.4058" style="stop-color:#E90F1D"/>
				<stop  offset="0.6656" style="stop-color:#E40B18"/>
				<stop  offset="1" style="stop-color:#E20A16"/>
			</linearGradient>
			<path class="st40" d="M290.6,477.5h-3.5c-0.6,0-1.1-0.5-1.1-1.1v-27.3c0-0.6,0.5-1.1,1.1-1.1h3.5c0.6,0,1.1,0.5,1.1,1.1v27.3
				C291.7,477,291.2,477.5,290.6,477.5z"/>
			
				<linearGradient id="SVGID_40_" gradientUnits="userSpaceOnUse" x1="-2527.5908" y1="-5280.1748" x2="-2527.5908" y2="-5278.3921" gradientTransform="matrix(4.489700e-11 -1 1 4.489700e-11 5565.2646 -2070.9175)">
				<stop  offset="0" style="stop-color:#D8D6CD"/>
				<stop  offset="1" style="stop-color:#E6E4DE"/>
			</linearGradient>
			<path class="st41" d="M286.9,449.7v14c0,0.2-0.2,0.4-0.4,0.4h-1.1c-0.2,0-0.4-0.2-0.4-0.4v-14c0-0.2,0.2-0.4,0.4-0.4h1.1
				C286.7,449.3,286.9,449.5,286.9,449.7z"/>
			
				<linearGradient id="SVGID_41_" gradientUnits="userSpaceOnUse" x1="-2527.5908" y1="-5274.4502" x2="-2527.5908" y2="-5272.6675" gradientTransform="matrix(4.489700e-11 -1 1 4.489700e-11 5565.2646 -2070.9175)">
				<stop  offset="0" style="stop-color:#D8D6CD"/>
				<stop  offset="1" style="stop-color:#E6E4DE"/>
			</linearGradient>
			<path class="st42" d="M292.6,449.7v14c0,0.2-0.2,0.4-0.4,0.4h-1.1c-0.2,0-0.4-0.2-0.4-0.4v-14c0-0.2,0.2-0.4,0.4-0.4h1.1
				C292.4,449.3,292.6,449.5,292.6,449.7z"/>
			
				<linearGradient id="SVGID_42_" gradientUnits="userSpaceOnUse" x1="-955.6926" y1="62.4732" x2="-955.6926" y2="100.1847" gradientTransform="matrix(1 0 0 1 1244.5359 311.6851)">
				<stop  offset="0" style="stop-color:#0E0D15"/>
				<stop  offset="1" style="stop-color:#0E0D15"/>
			</linearGradient>
			<path class="st43" d="M290.3,411.9h-2.8c-0.5,0-0.9-0.4-0.9-0.9v-35.9c0-0.5,0.4-0.9,0.9-0.9h2.8c0.5,0,0.9,0.4,0.9,0.9V411
				C291.2,411.5,290.8,411.9,290.3,411.9z"/>
			
				<linearGradient id="SVGID_43_" gradientUnits="userSpaceOnUse" x1="-958.093" y1="89.4555" x2="-958.093" y2="97.9614" gradientTransform="matrix(1 0 0 1 1244.5359 311.6851)">
				<stop  offset="0" style="stop-color:#F91B32"/>
				<stop  offset="0.1719" style="stop-color:#F11527"/>
				<stop  offset="0.4058" style="stop-color:#E90F1D"/>
				<stop  offset="0.6656" style="stop-color:#E40B18"/>
				<stop  offset="1" style="stop-color:#E20A16"/>
			</linearGradient>
			<path class="st44" d="M286.8,409.6h-1c-0.1,0-0.2-0.1-0.2-0.2v-8.1c0-0.1,0.1-0.2,0.2-0.2h1c0.3,0,0.5,0.2,0.5,0.5v7.6
				C287.3,409.4,287.1,409.6,286.8,409.6z"/>
			
				<linearGradient id="SVGID_44_" gradientUnits="userSpaceOnUse" x1="2922.3352" y1="89.4555" x2="2922.3352" y2="97.9614" gradientTransform="matrix(-1 0 0 1 3213.5071 311.6851)">
				<stop  offset="0" style="stop-color:#F91B32"/>
				<stop  offset="0.1719" style="stop-color:#F11527"/>
				<stop  offset="0.4058" style="stop-color:#E90F1D"/>
				<stop  offset="0.6656" style="stop-color:#E40B18"/>
				<stop  offset="1" style="stop-color:#E20A16"/>
			</linearGradient>
			<path class="st45" d="M290.8,409.6h1c0.1,0,0.2-0.1,0.2-0.2v-8.1c0-0.1-0.1-0.2-0.2-0.2h-1c-0.3,0-0.5,0.2-0.5,0.5v7.6
				C290.3,409.4,290.5,409.6,290.8,409.6z"/>
			
				<linearGradient id="SVGID_45_" gradientUnits="userSpaceOnUse" x1="-955.6656" y1="100.935" x2="-955.6656" y2="133.3725" gradientTransform="matrix(1 0 0 1 1244.5359 311.6851)">
				<stop  offset="0" style="stop-color:#D8D6CD"/>
				<stop  offset="1" style="stop-color:#E6E4DE"/>
			</linearGradient>
			<rect x="286.6" y="412.6" class="st46" width="4.6" height="32.4"/>
			
				<linearGradient id="SVGID_46_" gradientUnits="userSpaceOnUse" x1="-955.2003" y1="125.7986" x2="-944.9153" y2="125.7986" gradientTransform="matrix(1 0 0 1 1244.5359 311.6851)">
				<stop  offset="0" style="stop-color:#1E0C45"/>
				<stop  offset="1" style="stop-color:#4C2B90"/>
			</linearGradient>
			<path class="st47" d="M297.6,453.9h-6.2c-1.1,0-2-0.9-2-2v-28.7c0-1.1,0.9-2,2-2h6.2c1.1,0,2,0.9,2,2v28.7
				C299.6,452.9,298.7,453.9,297.6,453.9z"/>
			
				<linearGradient id="SVGID_47_" gradientUnits="userSpaceOnUse" x1="-966.8387" y1="124.3366" x2="-956.5537" y2="124.3366" gradientTransform="matrix(1 0 0 1 1244.5359 311.6851)">
				<stop  offset="0" style="stop-color:#1E0C45"/>
				<stop  offset="1" style="stop-color:#4C2B90"/>
			</linearGradient>
			<path class="st48" d="M286,453.9h-6.2c-1.1,0-2-0.9-2-2v-31.6c0-1.1,0.9-2,2-2h6.2c1.1,0,2,0.9,2,2v31.6
				C288,452.9,287.1,453.9,286,453.9z"/>
			
				<linearGradient id="SVGID_48_" gradientUnits="userSpaceOnUse" x1="-956.8542" y1="130.7708" x2="-956.8542" y2="142.1767" gradientTransform="matrix(1 0 0 1 1244.5359 311.6851)">
				<stop  offset="0" style="stop-color:#1E0C45"/>
				<stop  offset="1" style="stop-color:#4C2B90"/>
			</linearGradient>
			<rect x="268.4" y="442.5" class="st49" width="38.5" height="11.4"/>
			
				<linearGradient id="SVGID_49_" gradientUnits="userSpaceOnUse" x1="-967.4052" y1="132.9701" x2="-946.0123" y2="132.9701" gradientTransform="matrix(1 0 0 1 1244.5359 311.6851)">
				<stop  offset="0" style="stop-color:#FEC33C"/>
				<stop  offset="1" style="stop-color:#FDAA0C"/>
			</linearGradient>
			<path class="st50" d="M298.5,444.7c0,8.2-2.3,14.9-10.5,14.9c-8.2,0-10.9-6.7-10.9-14.9c0-3.8,1.4-6.2,3.5-8
				c1.8-1.5,2.6-2.8,5.3-3.5c1-0.3,0.8-3.4,2-3.4c1.2,0,1,2.8,2,3c2.3,0.6,3.8,2,5.3,3.3C297.7,438,298.5,440.3,298.5,444.7z"/>
			
				<linearGradient id="SVGID_50_" gradientUnits="userSpaceOnUse" x1="-935.3015" y1="96.1065" x2="-935.3015" y2="105.8825" gradientTransform="matrix(1 0 0 1 1244.5359 311.6851)">
				<stop  offset="0" style="stop-color:#FEC33C"/>
				<stop  offset="1" style="stop-color:#FDAA0C"/>
			</linearGradient>
			<circle class="st51" cx="309.2" cy="412.7" r="4.9"/>
			
				<linearGradient id="SVGID_51_" gradientUnits="userSpaceOnUse" x1="-977.2539" y1="96.1065" x2="-977.2539" y2="105.8825" gradientTransform="matrix(1 0 0 1 1244.5359 311.6851)">
				<stop  offset="0" style="stop-color:#FEC33C"/>
				<stop  offset="1" style="stop-color:#FDAA0C"/>
			</linearGradient>
			<circle class="st52" cx="267.3" cy="412.7" r="4.9"/>
			
				<linearGradient id="SVGID_52_" gradientUnits="userSpaceOnUse" x1="-807.3969" y1="417.5094" x2="-807.3969" y2="458.2126" gradientTransform="matrix(0.9993 3.671309e-02 -3.433254e-02 0.9345 1129.6232 55.4526)">
				<stop  offset="0" style="stop-color:#1E0C45"/>
				<stop  offset="1" style="stop-color:#4C2B90"/>
			</linearGradient>
			<path class="st53" d="M307.9,453.8L307.9,453.8c-2.1-0.1-5.5,1.4-5.5-3.8c0-8.7,3.4-9.1,3.3-15c-0.1-3.5-0.4-17.1-0.4-17.1
				c0.1-2.1,1.9-1.9,4.1-1.8h0c2.1,0.1,3.8,0,3.7,2.1l-1,32.1C311.9,452.3,310.1,453.9,307.9,453.8z"/>
			
				<linearGradient id="SVGID_53_" gradientUnits="userSpaceOnUse" x1="3045.6299" y1="266.1425" x2="3045.6299" y2="306.8457" gradientTransform="matrix(-0.9993 3.671309e-02 3.433254e-02 0.9345 3302.8801 55.4526)">
				<stop  offset="0" style="stop-color:#1E0C45"/>
				<stop  offset="1" style="stop-color:#4C2B90"/>
			</linearGradient>
			<path class="st54" d="M268.9,453.8L268.9,453.8c2.1-0.1,5.5,1.4,5.5-3.8c0-8.7-3.4-9.1-3.3-15c0.1-3.5,0.4-17.1,0.4-17.1
				c-0.1-2.1-1.9-1.9-4.1-1.8h0c-2.1,0.1-3.8,0-3.7,2.1l1,32.1C265,452.3,266.8,453.9,268.9,453.8z"/>
			
				<linearGradient id="SVGID_54_" gradientUnits="userSpaceOnUse" x1="-955.7299" y1="96.3843" x2="-955.9152" y2="101.4284" gradientTransform="matrix(1 0 0 1 1244.5359 311.6851)">
				<stop  offset="0" style="stop-color:#2D2834"/>
				<stop  offset="1" style="stop-color:#111114"/>
			</linearGradient>
			<path class="st55" d="M308.3,410.6c0-1-0.6-1.8-1.3-1.8v0h-36.2v0.1c-0.1,0-0.1-0.1-0.2-0.1c-0.8,0-1.4,0.8-1.4,1.9
				c0,1,0.6,1.9,1.4,1.9c0.1,0,0.1,0,0.2-0.1v0.1h36.2v0C307.7,412.4,308.3,411.6,308.3,410.6z"/>
			
				<linearGradient id="SVGID_55_" gradientUnits="userSpaceOnUse" x1="-965.2473" y1="97.0502" x2="-965.2473" y2="102.8858" gradientTransform="matrix(1 0 0 1 1244.5359 311.6851)">
				<stop  offset="0" style="stop-color:#2D2834"/>
				<stop  offset="1" style="stop-color:#111114"/>
			</linearGradient>
			<path class="st56" d="M275.6,414.4c0,0,7.8,1.5,7.4-5.7h-7.5L275.6,414.4z"/>
			
				<linearGradient id="SVGID_56_" gradientUnits="userSpaceOnUse" x1="2923.9333" y1="97.0502" x2="2923.9333" y2="102.8858" gradientTransform="matrix(-1 0 0 1 3222.5959 311.6851)">
				<stop  offset="0" style="stop-color:#2D2834"/>
				<stop  offset="1" style="stop-color:#111114"/>
			</linearGradient>
			<path class="st57" d="M302.3,414.4c0,0-7.8,1.5-7.4-5.7h7.5L302.3,414.4z"/>
			
				<linearGradient id="SVGID_57_" gradientUnits="userSpaceOnUse" x1="-955.6656" y1="94.3076" x2="-955.6656" y2="104.0836" gradientTransform="matrix(1 0 0 1 1244.5359 311.6851)">
				<stop  offset="0" style="stop-color:#2D2834"/>
				<stop  offset="1" style="stop-color:#111114"/>
			</linearGradient>
			<ellipse class="st58" cx="288.9" cy="410.9" rx="4.2" ry="4.9"/>
			
				<linearGradient id="SVGID_58_" gradientUnits="userSpaceOnUse" x1="-955.6926" y1="90.6897" x2="-955.6926" y2="92.4724" gradientTransform="matrix(1 0 0 1 1244.5359 311.6851)">
				<stop  offset="0" style="stop-color:#2D2834"/>
				<stop  offset="1" style="stop-color:#111114"/>
			</linearGradient>
			<path class="st59" d="M297.9,404.2h-18c-0.2,0-0.4-0.2-0.4-0.4v-1.1c0-0.2,0.2-0.4,0.4-0.4h18c0.2,0,0.4,0.2,0.4,0.4v1.1
				C298.2,404,298,404.2,297.9,404.2z"/>
			
				<linearGradient id="SVGID_59_" gradientUnits="userSpaceOnUse" x1="-967.4052" y1="138.6842" x2="-946.0123" y2="138.6842" gradientTransform="matrix(1 0 0 1 1244.5359 311.6851)">
				<stop  offset="0" style="stop-color:#D8D6CD"/>
				<stop  offset="1" style="stop-color:#E6E4DE"/>
			</linearGradient>
			<path class="st60" d="M277.1,444.1c0,0,1.9,1.3,1.7,3.1c-0.2,1.7-1.6,1.4-1.4,1.7c0.1,0.3,0.3,10.8,11,10.7
				c10.2-0.2,10-11.8,10-11.8s-2.2-0.1-1.9-2c0.3-1.9,2.1-2.2,2.1-2.2l-0.3-2.5c0,0-2.3,1.4-2.8,2.4c-0.4,0.8-2.2,3.1-0.9,5.4
				c1.3,2.3-0.3,4-1.1,5c-0.9,1.1-7.5,1.4-9.6,0.4s-3.4-3-3.1-4.5c0.3-1.5,1-5.4,0-6.1s-3-2.7-3-2.7l-0.3,1.5L277.1,444.1z"/>
		</g>
		<g>
			<g>
				<g>
					
						<linearGradient id="SVGID_60_" gradientUnits="userSpaceOnUse" x1="139.3751" y1="944.1318" x2="173.0948" y2="944.1318" gradientTransform="matrix(1 0 0 1 94.5339 -505.1808)">
						<stop  offset="0" style="stop-color:#369372"/>
						<stop  offset="1" style="stop-color:#53A98A"/>
					</linearGradient>
					<path class="st61" d="M250.8,455.8c-9.3,0-16.9-7.6-16.9-16.9c0-9.3,7.6-16.9,16.9-16.9c9.3,0,16.9,7.6,16.9,16.9
						C267.6,448.2,260.1,455.8,250.8,455.8z"/>
					<path class="st2" d="M250.8,456.6c-9.7,0-17.6-7.9-17.6-17.6c0-9.7,7.9-17.6,17.6-17.6c9.7,0,17.6,7.9,17.6,17.6
						C268.4,448.7,260.5,456.6,250.8,456.6z M250.8,422.9c-8.9,0-16.1,7.2-16.1,16.1s7.2,16.1,16.1,16.1c8.9,0,16.1-7.2,16.1-16.1
						S259.6,422.9,250.8,422.9z"/>
				</g>
				<path class="st62" d="M239.4,427.5l22.8,22.8c-6.3,6.3-16.4,6.4-22.7,0.1C233.2,444,233.1,433.8,239.4,427.5z"/>
				<polygon class="st2" points="248.2,446.7 240.7,439.1 243.6,436.3 248.2,440.9 258,431.1 260.9,434 				"/>
			</g>
		</g>
	</g>
	<g id="peaton">
		<linearGradient id="SVGID_61_" gradientUnits="userSpaceOnUse" x1="448.3515" y1="197.9579" x2="453.9588" y2="197.9579">
			<stop  offset="0" style="stop-color:#81101C"/>
			<stop  offset="1" style="stop-color:#680811"/>
		</linearGradient>
		<path class="st63" d="M452.7,203h-3c-0.7,0-1.3-0.6-1.3-1.3v-7.6c0-0.7,0.6-1.3,1.3-1.3h3c0.7,0,1.3,0.6,1.3,1.3v7.6
			C454,202.5,453.4,203,452.7,203z"/>
		<linearGradient id="SVGID_62_" gradientUnits="userSpaceOnUse" x1="459.3307" y1="197.9579" x2="464.938" y2="197.9579">
			<stop  offset="0" style="stop-color:#81101C"/>
			<stop  offset="1" style="stop-color:#680811"/>
		</linearGradient>
		<path class="st64" d="M463.6,203h-3c-0.7,0-1.3-0.6-1.3-1.3v-7.6c0-0.7,0.6-1.3,1.3-1.3h3c0.7,0,1.3,0.6,1.3,1.3v7.6
			C464.9,202.5,464.4,203,463.6,203z"/>
		<linearGradient id="SVGID_63_" gradientUnits="userSpaceOnUse" x1="456.9047" y1="208.3548" x2="467.2653" y2="208.3548">
			<stop  offset="0" style="stop-color:#151632"/>
			<stop  offset="1" style="stop-color:#2A2E63"/>
		</linearGradient>
		<path class="st65" d="M464.9,218.8h-5.6c-1.3,0-2.4-1.1-2.4-2.4v-16c0-1.3,1.1-2.4,2.4-2.4h5.6c1.3,0,2.4,1.1,2.4,2.4v16
			C467.3,217.7,466.2,218.8,464.9,218.8z"/>
		<linearGradient id="SVGID_64_" gradientUnits="userSpaceOnUse" x1="446.2661" y1="208.3296" x2="456.6266" y2="208.3296">
			<stop  offset="0" style="stop-color:#151632"/>
			<stop  offset="1" style="stop-color:#2A2E63"/>
		</linearGradient>
		<path class="st66" d="M454.2,218.8h-5.6c-1.3,0-2.4-1.1-2.4-2.4v-16.1c0-1.3,1.1-2.4,2.4-2.4h5.6c1.3,0,2.4,1.1,2.4,2.4v16.1
			C456.6,217.7,455.5,218.8,454.2,218.8z"/>
		<linearGradient id="SVGID_65_" gradientUnits="userSpaceOnUse" x1="436.921" y1="212.5091" x2="445.6955" y2="212.5091">
			<stop  offset="0" style="stop-color:#FEC33C"/>
			<stop  offset="1" style="stop-color:#FDAA0C"/>
		</linearGradient>
		<path class="st67" d="M441.9,218.9l-0.7-0.4c-2.1,0-4.2-4.5-4.2-4.5l0-3.9c0-2.1,2.3-3.8,4.4-3.8l0,0c2.1,0,4.4,1.7,4.4,3.8v8.8
			C445.7,218.8,444,218.9,441.9,218.9z"/>
		
			<linearGradient id="SVGID_66_" gradientUnits="userSpaceOnUse" x1="6860.0425" y1="212.5091" x2="6868.8174" y2="212.5091" gradientTransform="matrix(-1 0 0 1 7335.7529 0)">
			<stop  offset="0" style="stop-color:#FEC33C"/>
			<stop  offset="1" style="stop-color:#FDAA0C"/>
		</linearGradient>
		<path class="st68" d="M470.8,218.9l0.7-0.4c2.1,0,4.2-4.5,4.2-4.5l0-3.9c0-2.1-2.3-3.8-4.4-3.8l0,0c-2.1,0-4.4,1.7-4.4,3.8v8.8
			C466.9,218.8,468.7,218.9,470.8,218.9z"/>
		<linearGradient id="SVGID_67_" gradientUnits="userSpaceOnUse" x1="456.3155" y1="207.8452" x2="456.3155" y2="218.8736">
			<stop  offset="2.740354e-02" style="stop-color:#30826C"/>
			<stop  offset="1" style="stop-color:#3CA27E"/>
		</linearGradient>
		<path class="st69" d="M473.2,218.9h-33.7c-1.4,0-2.6-1.1-2.6-2.6v-5.9c0-1.4,1.1-2.6,2.6-2.6h33.7c1.4,0,2.6,1.1,2.6,2.6v5.9
			C475.7,217.7,474.6,218.9,473.2,218.9z"/>
		<linearGradient id="SVGID_68_" gradientUnits="userSpaceOnUse" x1="445.6955" y1="209.5994" x2="467.2455" y2="209.5994">
			<stop  offset="0" style="stop-color:#FEC33C"/>
			<stop  offset="1" style="stop-color:#FDAA0C"/>
		</linearGradient>
		<path class="st70" d="M467.2,209.6c0,8.3-2.3,15-10.6,15c-8.3,0-10.9-6.7-10.9-15c0-3.9,1.4-6.2,3.6-8.1c1.8-1.5,2.6-2.8,5.4-3.5
			c1-0.3,0.8-3.4,2-3.4c1.2,0,1,2.8,2,3c2.3,0.6,3.8,2.1,5.4,3.3C466.4,202.9,467.2,205.2,467.2,209.6z"/>
		<linearGradient id="SVGID_69_" gradientUnits="userSpaceOnUse" x1="445.6955" y1="213.9189" x2="467.2455" y2="213.9189">
			<stop  offset="0" style="stop-color:#0E0D15"/>
			<stop  offset="1" style="stop-color:#0E0D15"/>
		</linearGradient>
		<path class="st71" d="M445.7,209.1c0,0,1.9,1.3,1.7,3.1c-0.2,1.8-1.6,1.4-1.5,1.7c0.1,0.3,0.3,10.9,11,10.7
			c10.2-0.2,10.1-11.8,10.1-11.8s-2.2-0.1-2-2c0.3-1.9,2.1-2.2,2.1-2.2l-0.1-1.4l-0.1-1.1c0,0-2.3,1.4-2.9,2.4
			c-0.4,0.8-1.1,0.6-1.1,0.6s0.1-6.1-6.2-5.9c-7,0.3-6.4,5.9-6.4,5.9s-0.8,0.8-1.3-0.3c-0.4-0.9-3-2.7-3-2.7s-0.2,0.8-0.3,1.5
			C445.7,208.3,445.7,209.1,445.7,209.1z"/>
	</g>
	<g>
		<path class="st72" d="M427.3,157.3v58.6c0,0-40.4,0-62.8,0v-7.2c0,0,0.9-18.6,17.2-35.1c15.4-15.6,37.4-16.4,37.4-16.4H427.3z"/>
		<g>
			<path class="st2" d="M405.7,195c-1,0.8-1.1,2.2-0.4,3.1c0.8,1,2.2,1.1,3.1,0.4c1-0.8,1.1-2.2,0.4-3.1
				C408.1,194.3,406.7,194.2,405.7,195L405.7,195z M405.7,195"/>
			<path class="st2" d="M395.2,187.3c-0.8-2-0.3-4.3,1.5-5.7c2.1-1.7,5.2-1.3,6.9,0.8c1.2,1.6,1.4,3.7,0.5,5.3l1.3,1.6
				c1.7-2.4,1.7-5.7-0.3-8.2c-2.4-2.9-6.7-3.4-9.6-1.1c-2.1,1.7-3,4.5-2.4,7l1.6,0.7C394.8,187.6,395,187.4,395.2,187.3L395.2,187.3
				z M395.2,187.3"/>
			<path class="st2" d="M388.5,189.2l6,2.7c0.4,0.2,1,0.1,1.3-0.2l3-2.4l0.5,0.7l-2.6,2c-0.3,0.2-0.4,0.5-0.3,0.8
				c0,0.2,0.1,0.4,0.2,0.6c0.3,0.4,0.9,0.5,1.4,0.2l2.6-2l1.8,2.3c0.5,0.6,1.7,1.2,2.7,0.3c0.8-0.7,1-1.9,0.3-2.7l-4-5
				c-0.7-0.9-1.9-1-2.8-0.3l-3.8,3.1l-5.2-2.4c-0.5-0.2-1-0.1-1.3,0.2c-0.2,0.1-0.3,0.3-0.4,0.5
				C387.6,188.2,387.9,188.9,388.5,189.2L388.5,189.2z M388.5,189.2"/>
		</g>
	</g>
</g>
</svg>
