<?xml version="1.0" encoding="UTF-8" standalone="no"?>
<!-- Generator: Adobe Illustrator 17.0.0, SVG Export Plug-In . SVG Version: 6.00 Build 0)  -->
<!DOCTYPE svg  PUBLIC '-//W3C//DTD SVG 1.1//EN'  'http://www.w3.org/Graphics/SVG/1.1/DTD/svg11.dtd'>
<svg id="Capa_1" xmlns="http://www.w3.org/2000/svg" xml:space="preserve" height="319px" viewBox="0 0 585 319" width="585px" version="1.1" y="0px" x="0px" xmlns:xlink="http://www.w3.org/1999/xlink" enable-background="new 0 0 585 319">
<rect width="292.5" height="78.5" fill="#10AF9D"/>
<rect x="292.5" height="78.5" width="292.5" fill="#414141"/>
<linearGradient id="SVGID_1_" y2="-2" gradientUnits="userSpaceOnUse" x2="345.28" gradientTransform="translate(238 294)" y1="-2" x1="-236.28">
	<stop stop-color="#FBB324" offset="0"/>
	<stop stop-color="#FFC75B" offset="1"/>
</linearGradient>
<rect y="265" x="1.717" height="54" width="581.57" fill="url(#SVGID_1_)"/>
<line y2="133" x2="553.34" stroke="#414141" stroke-miterlimit="10" y1="133" x1="24" fill="none"/>
<line y2="187" x2="553.34" stroke="#414141" stroke-miterlimit="10" y1="187" x1="24" fill="none"/>
<g enable-background="new    " fill="#fff">
	<path d="m63.26 46.002v-14.93h4.594c1.312 0 2.486 0.296 3.522 0.887 1.035 0.592 1.844 1.433 2.425 2.522 0.581 1.091 0.872 2.33 0.872 3.718v0.687c0 1.388-0.286 2.622-0.856 3.702-0.571 1.08-1.376 1.917-2.415 2.512s-2.211 0.896-3.517 0.902h-4.625zm3.076-12.438v9.967h1.487c1.203 0 2.123-0.394 2.758-1.18s0.96-1.91 0.974-3.373v-0.79c0-1.518-0.314-2.668-0.943-3.45-0.629-0.783-1.548-1.174-2.758-1.174h-1.518z"/>
	<path d="m83.357 44.874c-0.731 0.889-1.743 1.333-3.035 1.333-1.189 0-2.097-0.342-2.722-1.025-0.626-0.684-0.945-1.685-0.959-3.004v-7.271h2.963v7.176c0 1.156 0.526 1.735 1.579 1.735 1.005 0 1.695-0.35 2.071-1.048v-7.863h2.974v11.095h-2.789l-0.082-1.128z"/>
	<path d="m94.698 37.686c-0.403-0.054-0.759-0.082-1.066-0.082-1.121 0-1.856 0.38-2.205 1.139v7.26h-2.963v-11.096h2.799l0.082 1.323c0.595-1.019 1.418-1.528 2.471-1.528 0.328 0 0.636 0.045 0.923 0.134l-0.041 2.85z"/>
	<path d="m102.24 46.002c-0.137-0.267-0.236-0.598-0.297-0.994-0.718 0.799-1.651 1.199-2.799 1.199-1.087 0-1.988-0.314-2.702-0.943s-1.071-1.422-1.071-2.379c0-1.176 0.436-2.078 1.308-2.707 0.871-0.629 2.131-0.946 3.778-0.953h1.364v-0.637c0-0.512-0.132-0.922-0.395-1.23-0.263-0.307-0.678-0.461-1.246-0.461-0.499 0-0.891 0.12-1.174 0.359s-0.425 0.567-0.425 0.984h-2.963c0-0.643 0.198-1.237 0.595-1.785 0.396-0.546 0.957-0.976 1.682-1.286 0.725-0.312 1.538-0.467 2.44-0.467 1.367 0 2.452 0.344 3.256 1.03 0.803 0.688 1.205 1.653 1.205 2.896v4.81c0.007 1.053 0.154 1.85 0.441 2.39v0.174h-2.98zm-2.446-2.061c0.438 0 0.841-0.098 1.21-0.293 0.369-0.194 0.643-0.456 0.82-0.784v-1.907h-1.107c-1.483 0-2.273 0.513-2.369 1.538l-0.01 0.175c0 0.369 0.13 0.673 0.39 0.912s0.622 0.359 1.073 0.359z"/>
	<path d="m111.69 43.818c0.547 0 0.991-0.15 1.333-0.451s0.52-0.701 0.533-1.2h2.779c-0.007 0.752-0.212 1.44-0.615 2.066-0.403 0.625-0.956 1.11-1.656 1.456-0.701 0.345-1.475 0.518-2.322 0.518-1.586 0-2.837-0.504-3.753-1.513-0.916-1.008-1.374-2.4-1.374-4.179v-0.194c0-1.709 0.455-3.072 1.364-4.091s2.157-1.528 3.743-1.528c1.388 0 2.5 0.395 3.338 1.185 0.837 0.789 1.263 1.84 1.276 3.152h-2.779c-0.014-0.576-0.191-1.046-0.533-1.406-0.342-0.361-0.793-0.541-1.354-0.541-0.69 0-1.212 0.251-1.564 0.754-0.352 0.504-0.528 1.32-0.528 2.449v0.309c0 1.144 0.174 1.965 0.523 2.465s0.87 0.749 1.58 0.749z"/>
	<path d="m118 32.036c0-0.444 0.149-0.81 0.446-1.097 0.298-0.287 0.703-0.432 1.215-0.432 0.506 0 0.909 0.145 1.21 0.432s0.451 0.652 0.451 1.097c0 0.451-0.152 0.82-0.457 1.107s-0.706 0.431-1.205 0.431-0.901-0.144-1.205-0.431c-0.3-0.287-0.46-0.656-0.46-1.107zm3.15 13.966h-2.974v-11.095h2.974v11.095z"/>
	<path d="m123.13 40.352c0-1.1 0.212-2.081 0.636-2.942s1.034-1.528 1.83-1.999c0.796-0.473 1.721-0.708 2.774-0.708 1.497 0 2.719 0.458 3.666 1.374s1.475 2.16 1.584 3.732l0.021 0.759c0 1.702-0.475 3.067-1.425 4.097-0.95 1.028-2.225 1.543-3.825 1.543s-2.876-0.513-3.83-1.538c-0.954-1.025-1.431-2.42-1.431-4.184v-0.134zm2.97 0.21c0 1.055 0.198 1.86 0.595 2.418 0.396 0.559 0.964 0.838 1.702 0.838 0.718 0 1.278-0.276 1.682-0.827s0.605-1.433 0.605-2.645c0-1.033-0.202-1.835-0.605-2.403-0.403-0.567-0.971-0.852-1.702-0.852-0.725 0-1.285 0.282-1.682 0.847-0.41 0.566-0.6 1.44-0.6 2.624zm2.86-10.31h3.23l-2.84 3.179h-2.41l2.02-3.179z"/>
	<path d="m138.2 34.907l0.092 1.282c0.793-0.991 1.856-1.487 3.189-1.487 1.176 0 2.051 0.346 2.625 1.036s0.868 1.723 0.882 3.096v7.168h-2.963v-7.112c0-0.63-0.137-1.088-0.41-1.372s-0.728-0.426-1.364-0.426c-0.834 0-1.459 0.355-1.876 1.068v7.842h-2.963v-11.095h2.79z"/>
	<path d="m152 40.373c0-1.729 0.388-3.107 1.164-4.133 0.775-1.025 1.837-1.538 3.184-1.538 1.08 0 1.972 0.403 2.676 1.21v-5.66h2.974v15.75h-2.676l-0.144-1.18c-0.738 0.924-1.688 1.385-2.851 1.385-1.306 0-2.354-0.515-3.143-1.543-0.79-1.029-1.18-2.459-1.18-4.291zm2.96 0.21c0 1.044 0.181 1.844 0.543 2.4s0.889 0.835 1.579 0.835c0.916 0 1.562-0.389 1.938-1.164v-4.399c-0.369-0.775-1.008-1.163-1.917-1.163-1.42 0-2.14 1.164-2.14 3.491z"/>
	<path d="m169.4 46.207c-1.627 0-2.952-0.499-3.973-1.497-1.022-0.998-1.533-2.327-1.533-3.989v-0.287c0-1.113 0.215-2.11 0.646-2.988 0.431-0.879 1.041-1.556 1.831-2.03 0.789-0.476 1.69-0.713 2.702-0.713 1.518 0 2.712 0.479 3.583 1.436 0.872 0.957 1.308 2.314 1.308 4.071v1.209h-7.065c0.096 0.726 0.384 1.307 0.867 1.744 0.481 0.438 1.092 0.656 1.83 0.656 1.142 0 2.034-0.414 2.676-1.241l1.456 1.63c-0.444 0.63-1.046 1.12-1.805 1.472-0.78 0.351-1.62 0.527-2.54 0.527zm-0.34-9.115c-0.588 0-1.065 0.198-1.431 0.597s-0.6 0.969-0.702 1.71h4.122v-0.237c-0.014-0.659-0.191-1.169-0.533-1.529s-0.83-0.541-1.46-0.541z"/>
	<path d="m178.77 46.002h-2.974v-15.75h2.974v15.75z"/>
	<path d="m190.59 42.383l2.061-7.476h3.097l-3.743 11.095h-2.83l-3.743-11.095h3.097l2.05 7.476z"/>
	<path d="m197.03 32.036c0-0.444 0.149-0.81 0.446-1.097 0.298-0.287 0.703-0.432 1.215-0.432 0.506 0 0.909 0.145 1.21 0.432s0.451 0.652 0.451 1.097c0 0.451-0.152 0.82-0.457 1.107s-0.706 0.431-1.205 0.431-0.901-0.144-1.205-0.431c-0.32-0.287-0.47-0.656-0.47-1.107zm3.15 13.966h-2.974v-11.095h2.974v11.095z"/>
	<path d="m209.05 46.002c-0.137-0.267-0.236-0.598-0.297-0.994-0.718 0.799-1.651 1.199-2.799 1.199-1.087 0-1.988-0.314-2.702-0.943s-1.071-1.422-1.071-2.379c0-1.176 0.436-2.078 1.308-2.707 0.871-0.629 2.131-0.946 3.778-0.953h1.364v-0.637c0-0.512-0.132-0.922-0.395-1.23-0.263-0.307-0.678-0.461-1.246-0.461-0.499 0-0.891 0.12-1.174 0.359s-0.425 0.567-0.425 0.984h-2.963c0-0.643 0.198-1.237 0.595-1.785 0.396-0.546 0.957-0.976 1.682-1.286 0.725-0.312 1.538-0.467 2.44-0.467 1.367 0 2.452 0.344 3.256 1.03 0.803 0.688 1.205 1.653 1.205 2.896v4.81c0.007 1.053 0.154 1.85 0.441 2.39v0.174h-3.01zm-2.45-2.061c0.438 0 0.841-0.098 1.21-0.293 0.369-0.194 0.643-0.456 0.82-0.784v-1.907h-1.107c-1.483 0-2.273 0.513-2.369 1.538l-0.01 0.175c0 0.369 0.13 0.673 0.39 0.912s0.62 0.359 1.07 0.359z"/>
	<path d="m217.02 34.907v11.7c0 1.223-0.325 2.175-0.974 2.855s-1.586 1.02-2.81 1.02c-0.513 0-1.001-0.058-1.466-0.174v-2.348c0.355 0.061 0.667 0.092 0.933 0.092 0.896 0 1.343-0.476 1.343-1.426v-11.72h2.98zm-3.21-2.871c0-0.444 0.148-0.81 0.446-1.097 0.297-0.287 0.702-0.432 1.215-0.432s0.918 0.145 1.215 0.432c0.298 0.287 0.446 0.652 0.446 1.097 0 0.451-0.152 0.82-0.456 1.107-0.305 0.287-0.706 0.431-1.205 0.431s-0.901-0.144-1.205-0.431-0.47-0.656-0.47-1.107z"/>
	<path d="m224.44 46.207c-1.627 0-2.952-0.499-3.973-1.497-1.022-0.998-1.533-2.327-1.533-3.989v-0.287c0-1.113 0.215-2.11 0.646-2.988 0.431-0.879 1.041-1.556 1.831-2.03 0.789-0.476 1.69-0.713 2.702-0.713 1.518 0 2.712 0.479 3.583 1.436 0.872 0.957 1.308 2.314 1.308 4.071v1.209h-7.065c0.096 0.726 0.384 1.307 0.867 1.744 0.481 0.438 1.092 0.656 1.83 0.656 1.142 0 2.034-0.414 2.676-1.241l1.456 1.63c-0.444 0.63-1.046 1.12-1.805 1.472-0.78 0.351-1.62 0.527-2.54 0.527zm-0.34-9.115c-0.588 0-1.065 0.198-1.431 0.597s-0.6 0.969-0.702 1.71h4.122v-0.237c-0.014-0.659-0.191-1.169-0.533-1.529s-0.83-0.541-1.46-0.541z"/>
</g>
	<g enable-background="new    " fill="#fff">
		<path d="m120.02 288.55c0 0.5-0.172 0.911-0.517 1.231-0.344 0.321-0.779 0.481-1.303 0.481s-0.958-0.16-1.303-0.481c-0.344-0.32-0.517-0.731-0.517-1.231s0.167-0.91 0.5-1.231c0.333-0.32 0.773-0.481 1.319-0.481s0.986 0.161 1.319 0.481c0.34 0.32 0.5 0.73 0.5 1.23zm-3.16 3.47h2.707l0.371 11.332h-3.448l0.37-11.33z"/>
		<path d="m126.27 296.5h7.154v2.707h-10.523v-16.352h3.369v13.64z"/>
		<path d="m134.63 293.02c0-1.206 0.232-2.28 0.696-3.224s1.132-1.673 2.005-2.19c0.872-0.516 1.885-0.774 3.038-0.774 1.64 0 2.978 0.502 4.015 1.505s1.615 2.366 1.735 4.088l0.022 0.831c0 1.864-0.521 3.359-1.561 4.486s-2.437 1.69-4.189 1.69-3.15-0.562-4.195-1.685c-1.044-1.123-1.566-2.65-1.566-4.582v-0.16zm3.25 0.23c0 1.155 0.217 2.038 0.651 2.649s1.056 0.916 1.864 0.916c0.786 0 1.4-0.302 1.842-0.905s0.663-1.568 0.663-2.896c0-1.133-0.221-2.01-0.663-2.633-0.442-0.622-1.063-0.934-1.864-0.934-0.793 0-1.408 0.31-1.842 0.929-0.43 0.6-0.65 1.56-0.65 2.86z"/>
		<path d="m154.72 295.85c0-0.397-0.197-0.71-0.589-0.938-0.394-0.229-1.024-0.433-1.893-0.612-2.89-0.605-4.335-1.834-4.335-3.684 0-1.078 0.447-1.978 1.342-2.7 0.895-0.723 2.065-1.084 3.51-1.084 1.542 0 2.776 0.363 3.7 1.089 0.925 0.727 1.387 1.67 1.387 2.83h-3.246c0-0.464-0.15-0.848-0.449-1.15-0.299-0.304-0.768-0.455-1.404-0.455-0.546 0-0.97 0.123-1.269 0.371-0.299 0.246-0.449 0.561-0.449 0.943 0 0.359 0.17 0.649 0.511 0.87s0.916 0.411 1.724 0.572 1.49 0.343 2.044 0.545c1.714 0.629 2.572 1.718 2.572 3.269 0 1.107-0.476 2.004-1.426 2.689-0.951 0.685-2.179 1.027-3.684 1.027-1.018 0-1.922-0.182-2.712-0.545s-1.409-0.86-1.858-1.493-0.674-1.316-0.674-2.05h3.077c0.03 0.576 0.243 1.019 0.64 1.325s0.928 0.46 1.595 0.46c0.622 0 1.091-0.117 1.41-0.354 0.33-0.25 0.49-0.56 0.49-0.94z"/>
		<path d="m165.19 293.04c0-1.894 0.425-3.402 1.274-4.525 0.85-1.123 2.012-1.685 3.487-1.685 1.183 0 2.16 0.441 2.931 1.325v-6.199h3.257v17.25h-2.931l-0.157-1.291c-0.809 1.01-1.849 1.516-3.122 1.516-1.43 0-2.577-0.563-3.442-1.69-0.87-1.14-1.3-2.7-1.3-4.71zm3.25 0.23c0 1.144 0.198 2.02 0.595 2.629s0.973 0.913 1.729 0.913c1.003 0 1.711-0.425 2.123-1.274v-4.817c-0.404-0.85-1.104-1.275-2.1-1.275-1.57 0-2.35 1.28-2.35 3.83z"/>
		<path d="m178.15 293.02c0-1.206 0.232-2.28 0.696-3.224s1.132-1.673 2.005-2.19c0.872-0.516 1.885-0.774 3.038-0.774 1.64 0 2.978 0.502 4.015 1.505s1.615 2.366 1.735 4.088l0.022 0.831c0 1.864-0.521 3.359-1.561 4.486s-2.437 1.69-4.189 1.69-3.15-0.562-4.195-1.685c-1.044-1.123-1.566-2.65-1.566-4.582v-0.16zm3.25 0.23c0 1.155 0.217 2.038 0.651 2.649s1.056 0.916 1.864 0.916c0.786 0 1.4-0.302 1.842-0.905s0.663-1.568 0.663-2.896c0-1.133-0.221-2.01-0.663-2.633-0.442-0.622-1.063-0.934-1.864-0.934-0.793 0-1.408 0.31-1.842 0.929-0.44 0.6-0.65 1.56-0.65 2.86z"/>
		<path d="m194.7 287.05l0.101 1.358c0.861-1.055 2.025-1.583 3.493-1.583 1.565 0 2.639 0.618 3.223 1.853 0.854-1.234 2.07-1.853 3.65-1.853 1.318 0 2.298 0.384 2.942 1.151s0.966 1.922 0.966 3.465v7.76h-3.257v-7.767c0-0.69-0.135-1.195-0.404-1.514-0.27-0.319-0.745-0.479-1.426-0.479-0.973 0-1.647 0.466-2.021 1.396l0.011 8.363h-3.246v-7.756c0-0.705-0.139-1.216-0.416-1.53-0.277-0.315-0.749-0.474-1.415-0.474-0.921 0-1.587 0.383-1.999 1.148v8.611h-3.246v-12.151h3.07z"/>
		<path d="m211.55 283.91c0-0.486 0.163-0.888 0.489-1.202 0.325-0.314 0.769-0.471 1.331-0.471 0.554 0 0.996 0.156 1.325 0.471s0.494 0.716 0.494 1.202c0 0.494-0.167 0.898-0.5 1.213-0.333 0.314-0.773 0.472-1.32 0.472s-0.986-0.157-1.32-0.472c-0.33-0.31-0.5-0.72-0.5-1.21zm3.45 15.29h-3.257v-12.151h3.257v12.15z"/>
		<path d="m220.66 287.05l0.101 1.403c0.869-1.085 2.033-1.628 3.493-1.628 1.288 0 2.246 0.378 2.875 1.134 0.629 0.757 0.951 1.887 0.966 3.393v7.85h-3.246v-7.789c0-0.69-0.15-1.191-0.449-1.503s-0.797-0.468-1.494-0.468c-0.914 0-1.599 0.391-2.055 1.171v8.589h-3.246v-12.151h3.07z"/>
		<path d="m230.08 293.04c0-1.863 0.444-3.365 1.331-4.503 0.888-1.138 2.083-1.707 3.588-1.707 1.333 0 2.37 0.457 3.111 1.37l0.135-1.146h2.942v11.747c0 1.063-0.241 1.988-0.725 2.773-0.482 0.787-1.162 1.386-2.038 1.797-0.876 0.412-1.902 0.618-3.077 0.618-0.891 0-1.759-0.178-2.605-0.533s-1.486-0.814-1.92-1.376l1.438-1.977c0.809 0.906 1.79 1.359 2.942 1.359 0.861 0 1.531-0.23 2.01-0.691 0.479-0.46 0.719-1.113 0.719-1.959v-0.652c-0.749 0.847-1.733 1.27-2.954 1.27-1.46 0-2.641-0.571-3.543-1.713s-1.353-2.656-1.353-4.543v-0.14zm3.25 0.23c0 1.105 0.221 1.973 0.663 2.601s1.048 0.941 1.819 0.941c0.988 0 1.696-0.372 2.123-1.116v-5.134c-0.434-0.744-1.134-1.117-2.1-1.117-0.779 0-1.391 0.32-1.836 0.959-0.44 0.64-0.66 1.6-0.66 2.87z"/>
		<path d="m243.18 293.02c0-1.206 0.232-2.28 0.696-3.224s1.132-1.673 2.005-2.19c0.872-0.516 1.885-0.774 3.038-0.774 1.64 0 2.978 0.502 4.015 1.505s1.615 2.366 1.735 4.088l0.022 0.831c0 1.864-0.521 3.359-1.561 4.486s-2.437 1.69-4.189 1.69-3.15-0.562-4.195-1.685c-1.044-1.123-1.566-2.65-1.566-4.582v-0.16zm3.24 0.23c0 1.155 0.217 2.038 0.651 2.649s1.056 0.916 1.864 0.916c0.786 0 1.4-0.302 1.842-0.905s0.663-1.568 0.663-2.896c0-1.133-0.221-2.01-0.663-2.633-0.442-0.622-1.063-0.934-1.864-0.934-0.793 0-1.408 0.31-1.842 0.929-0.43 0.6-0.65 1.56-0.65 2.86z"/>
		<path d="m263.27 295.85c0-0.397-0.197-0.71-0.589-0.938-0.394-0.229-1.024-0.433-1.893-0.612-2.89-0.605-4.335-1.834-4.335-3.684 0-1.078 0.447-1.978 1.342-2.7 0.895-0.723 2.065-1.084 3.51-1.084 1.542 0 2.776 0.363 3.7 1.089 0.925 0.727 1.387 1.67 1.387 2.83h-3.246c0-0.464-0.15-0.848-0.449-1.15-0.299-0.304-0.768-0.455-1.404-0.455-0.546 0-0.97 0.123-1.269 0.371-0.299 0.246-0.449 0.561-0.449 0.943 0 0.359 0.17 0.649 0.511 0.87s0.916 0.411 1.724 0.572 1.49 0.343 2.044 0.545c1.714 0.629 2.572 1.718 2.572 3.269 0 1.107-0.476 2.004-1.426 2.689-0.951 0.685-2.179 1.027-3.684 1.027-1.018 0-1.922-0.182-2.712-0.545s-1.409-0.86-1.858-1.493-0.674-1.316-0.674-2.05h3.077c0.03 0.576 0.243 1.019 0.64 1.325s0.928 0.46 1.595 0.46c0.622 0 1.091-0.117 1.41-0.354 0.32-0.25 0.48-0.56 0.48-0.94z"/>
		<path d="m280.82 295.85c0-0.397-0.197-0.71-0.589-0.938-0.394-0.229-1.024-0.433-1.893-0.612-2.89-0.605-4.335-1.834-4.335-3.684 0-1.078 0.447-1.978 1.342-2.7 0.895-0.723 2.065-1.084 3.51-1.084 1.542 0 2.776 0.363 3.7 1.089 0.925 0.727 1.387 1.67 1.387 2.83h-3.246c0-0.464-0.15-0.848-0.449-1.15-0.299-0.304-0.768-0.455-1.404-0.455-0.546 0-0.97 0.123-1.269 0.371-0.299 0.246-0.449 0.561-0.449 0.943 0 0.359 0.17 0.649 0.511 0.87s0.916 0.411 1.724 0.572 1.49 0.343 2.044 0.545c1.714 0.629 2.572 1.718 2.572 3.269 0 1.107-0.476 2.004-1.426 2.689-0.951 0.685-2.179 1.027-3.684 1.027-1.018 0-1.922-0.182-2.712-0.545s-1.409-0.86-1.858-1.493-0.674-1.316-0.674-2.05h3.077c0.03 0.576 0.243 1.019 0.64 1.325s0.928 0.46 1.595 0.46c0.622 0 1.091-0.117 1.41-0.354 0.33-0.25 0.49-0.56 0.49-0.94z"/>
		<path d="m285.56 293.02c0-1.206 0.232-2.28 0.696-3.224s1.132-1.673 2.005-2.19c0.872-0.516 1.885-0.774 3.038-0.774 1.64 0 2.978 0.502 4.015 1.505 1.036 1.003 1.615 2.366 1.734 4.088l0.022 0.831c0 1.864-0.521 3.359-1.561 4.486-1.041 1.127-2.438 1.69-4.189 1.69-1.752 0-3.15-0.562-4.195-1.685-1.044-1.123-1.566-2.65-1.566-4.582v-0.16zm3.24 0.23c0 1.155 0.217 2.038 0.651 2.649s1.056 0.916 1.864 0.916c0.786 0 1.4-0.302 1.841-0.905 0.442-0.604 0.663-1.568 0.663-2.896 0-1.133-0.221-2.01-0.663-2.633-0.441-0.622-1.062-0.934-1.864-0.934-0.793 0-1.408 0.31-1.842 0.929-0.43 0.6-0.65 1.56-0.65 2.86z"/>
		<path d="m302.06 287.05l0.102 1.403c0.868-1.085 2.032-1.628 3.492-1.628 1.288 0 2.246 0.378 2.875 1.134 0.629 0.757 0.951 1.887 0.966 3.393v7.85h-3.245v-7.789c0-0.69-0.15-1.191-0.449-1.503-0.3-0.312-0.798-0.468-1.494-0.468-0.913 0-1.599 0.391-2.055 1.171v8.589h-3.246v-12.151h3.07z"/>
		<path d="m317.17 293.04c0-1.894 0.425-3.402 1.274-4.525 0.851-1.123 2.013-1.685 3.487-1.685 1.184 0 2.16 0.441 2.932 1.325v-6.199h3.257v17.25h-2.932l-0.157-1.291c-0.809 1.01-1.849 1.516-3.122 1.516-1.43 0-2.577-0.563-3.442-1.69-0.87-1.14-1.3-2.7-1.3-4.71zm3.25 0.23c0 1.144 0.198 2.02 0.595 2.629s0.974 0.913 1.729 0.913c1.004 0 1.711-0.425 2.123-1.274v-4.817c-0.404-0.85-1.104-1.275-2.101-1.275-1.57 0-2.35 1.28-2.35 3.83z"/>
		<path d="m336.23 299.43c-1.782 0-3.232-0.547-4.353-1.64-1.119-1.093-1.679-2.55-1.679-4.368v-0.314c0-1.221 0.236-2.312 0.708-3.274s1.14-1.703 2.004-2.224c0.865-0.521 1.852-0.78 2.96-0.78 1.662 0 2.97 0.524 3.925 1.572 0.954 1.048 1.432 2.534 1.432 4.458v1.326h-7.737c0.104 0.793 0.421 1.43 0.948 1.908 0.528 0.479 1.196 0.719 2.005 0.719 1.251 0 2.228-0.452 2.932-1.358l1.595 1.786c-0.487 0.688-1.146 1.226-1.977 1.611s-1.74 0.56-2.75 0.56zm-0.37-9.99c-0.644 0-1.166 0.219-1.566 0.655s-0.657 1.06-0.77 1.872h4.515v-0.26c-0.015-0.722-0.209-1.28-0.584-1.675-0.38-0.4-0.91-0.6-1.6-0.6z"/>
		<path d="m358.27 293.05h1.853v2.617h-1.853v3.537h-3.246v-3.537h-6.704l-0.146-2.045 6.817-10.77h3.279v10.2zm-6.87 0h3.616v-5.772l-0.213 0.37-3.41 5.4z"/>
		<path d="m362.34 291.16l0.943-8.311h9.164v2.707h-6.502l-0.404 3.515c0.771-0.412 1.591-0.618 2.459-0.618 1.558 0 2.778 0.483 3.661 1.449 0.884 0.966 1.325 2.317 1.325 4.055 0 1.055-0.223 2-0.668 2.835s-1.084 1.482-1.915 1.943c-0.831 0.46-1.812 0.69-2.942 0.69-0.988 0-1.905-0.2-2.751-0.601-0.847-0.4-1.515-0.964-2.005-1.69s-0.751-1.554-0.78-2.482h3.212c0.067 0.682 0.305 1.212 0.713 1.59s0.941 0.566 1.601 0.566c0.733 0 1.299-0.264 1.695-0.791 0.397-0.528 0.596-1.275 0.596-2.24 0-0.929-0.229-1.641-0.686-2.135-0.456-0.494-1.104-0.74-1.942-0.74-0.771 0-1.396 0.201-1.876 0.605l-0.314 0.293-2.58-0.65z"/>
		<path d="m383.96 287.05l0.101 1.358c0.861-1.055 2.025-1.583 3.493-1.583 1.564 0 2.639 0.618 3.223 1.853 0.854-1.234 2.07-1.853 3.65-1.853 1.317 0 2.298 0.384 2.942 1.151 0.644 0.768 0.966 1.922 0.966 3.465v7.76h-3.257v-7.767c0-0.69-0.135-1.195-0.404-1.514-0.27-0.319-0.745-0.479-1.427-0.479-0.973 0-1.646 0.466-2.021 1.396l0.012 8.363h-3.246v-7.756c0-0.705-0.139-1.216-0.415-1.53-0.277-0.315-0.749-0.474-1.415-0.474-0.921 0-1.588 0.383-1.999 1.148v8.611h-3.246v-12.151h3.07z"/>
		<path d="m400.81 283.91c0-0.486 0.162-0.888 0.488-1.202 0.325-0.314 0.77-0.471 1.331-0.471 0.554 0 0.995 0.156 1.325 0.471 0.329 0.314 0.494 0.716 0.494 1.202 0 0.494-0.167 0.898-0.5 1.213s-0.773 0.472-1.319 0.472c-0.547 0-0.986-0.157-1.32-0.472-0.34-0.31-0.5-0.72-0.5-1.21zm3.44 15.29h-3.257v-12.151h3.257v12.15z"/>
		<path d="m409.91 287.05l0.102 1.403c0.868-1.085 2.032-1.628 3.492-1.628 1.288 0 2.246 0.378 2.875 1.134 0.629 0.757 0.951 1.887 0.966 3.393v7.85h-3.245v-7.789c0-0.69-0.15-1.191-0.449-1.503-0.3-0.312-0.798-0.468-1.494-0.468-0.913 0-1.599 0.391-2.055 1.171v8.589h-3.246v-12.151h3.06z"/>
		<path d="m427.09 297.97c-0.802 0.974-1.909 1.46-3.324 1.46-1.303 0-2.297-0.374-2.982-1.123s-1.034-1.846-1.05-3.291v-7.962h3.246v7.859c0 1.267 0.576 1.899 1.729 1.899 1.101 0 1.856-0.382 2.269-1.146v-8.612h3.257v12.151h-3.055l-0.11-1.24z"/>
		<path d="m436.56 284.07v2.987h2.077v2.381h-2.077v6.064c0 0.449 0.086 0.771 0.258 0.966 0.173 0.194 0.502 0.292 0.988 0.292 0.359 0 0.678-0.026 0.955-0.079v2.46c-0.637 0.194-1.292 0.292-1.966 0.292-2.275 0-3.437-1.149-3.481-3.447v-6.548h-1.774v-2.381h1.774v-2.987h3.25z"/>
		<path d="m439.61 293.02c0-1.206 0.232-2.28 0.696-3.224 0.465-0.943 1.133-1.673 2.005-2.19 0.872-0.516 1.885-0.774 3.038-0.774 1.64 0 2.978 0.502 4.015 1.505s1.615 2.366 1.735 4.088l0.022 0.831c0 1.864-0.521 3.359-1.562 4.486-1.04 1.127-2.437 1.69-4.188 1.69s-3.15-0.562-4.195-1.685c-1.044-1.123-1.566-2.65-1.566-4.582v-0.16zm3.24 0.23c0 1.155 0.217 2.038 0.651 2.649s1.056 0.916 1.864 0.916c0.786 0 1.399-0.302 1.842-0.905 0.441-0.604 0.662-1.568 0.662-2.896 0-1.133-0.221-2.01-0.662-2.633-0.442-0.622-1.063-0.934-1.864-0.934-0.794 0-1.408 0.31-1.842 0.929-0.43 0.6-0.65 1.56-0.65 2.86z"/>
		<path d="m459.7 295.85c0-0.397-0.197-0.71-0.59-0.938-0.394-0.229-1.023-0.433-1.893-0.612-2.89-0.605-4.335-1.834-4.335-3.684 0-1.078 0.447-1.978 1.342-2.7 0.896-0.723 2.065-1.084 3.51-1.084 1.543 0 2.776 0.363 3.7 1.089 0.925 0.727 1.388 1.67 1.388 2.83h-3.246c0-0.464-0.149-0.848-0.449-1.15-0.299-0.304-0.768-0.455-1.403-0.455-0.547 0-0.97 0.123-1.27 0.371-0.299 0.246-0.449 0.561-0.449 0.943 0 0.359 0.171 0.649 0.511 0.87 0.341 0.221 0.916 0.411 1.725 0.572s1.489 0.343 2.044 0.545c1.714 0.629 2.571 1.718 2.571 3.269 0 1.107-0.476 2.004-1.426 2.689-0.951 0.685-2.179 1.027-3.684 1.027-1.019 0-1.923-0.182-2.713-0.545-0.789-0.363-1.409-0.86-1.858-1.493s-0.674-1.316-0.674-2.05h3.077c0.03 0.576 0.243 1.019 0.641 1.325 0.396 0.307 0.928 0.46 1.595 0.46 0.621 0 1.091-0.117 1.409-0.354 0.31-0.25 0.47-0.56 0.47-0.94z"/>
	</g>
	<g enable-background="new    ">
		<path d="m467 295.96c0.546 0 0.986 0.161 1.319 0.483s0.5 0.733 0.5 1.235c0 0.494-0.167 0.902-0.5 1.225-0.333 0.321-0.773 0.482-1.319 0.482-0.539 0-0.976-0.161-1.309-0.482-0.333-0.322-0.5-0.73-0.5-1.225s0.167-0.904 0.5-1.229c0.33-0.33 0.77-0.49 1.31-0.49zm1.35-1.77h-2.695l-0.382-11.332h3.459l-0.39 11.33z" fill="#fff"/>
	</g>
<g enable-background="new    " fill="#414141">
	<path d="m34.722 104.4c0 2.222-0.379 3.872-1.138 4.952s-1.945 1.62-3.558 1.62c-1.593 0-2.772-0.528-3.538-1.584-0.766-1.057-1.162-2.634-1.189-4.732v-2.533c0-2.193 0.379-3.824 1.138-4.891s1.948-1.6 3.568-1.6c1.606 0 2.789 0.515 3.548 1.543 0.759 1.029 1.148 2.617 1.169 4.764v2.45zm-1.897-2.6c0-1.606-0.226-2.777-0.677-3.512s-1.166-1.103-2.143-1.103c-0.971 0-1.678 0.366-2.123 1.098s-0.673 1.855-0.687 3.373v3.035c0 1.613 0.234 2.805 0.702 3.573 0.468 0.77 1.178 1.153 2.128 1.153 0.937 0 1.632-0.361 2.087-1.086 0.454-0.725 0.692-1.867 0.712-3.426v-3.1z"/>
	<path d="m49.395 110.76c-0.109-0.219-0.198-0.608-0.267-1.169-0.882 0.916-1.935 1.374-3.158 1.374-1.094 0-1.991-0.31-2.691-0.928-0.701-0.619-1.051-1.403-1.051-2.354 0-1.155 0.439-2.053 1.318-2.691 0.878-0.64 2.114-0.959 3.707-0.959h1.846v-0.871c0-0.663-0.198-1.191-0.595-1.585-0.396-0.393-0.981-0.589-1.753-0.589-0.677 0-1.244 0.171-1.702 0.512-0.458 0.343-0.687 0.756-0.687 1.241h-1.907c0-0.554 0.196-1.089 0.589-1.604 0.393-0.517 0.926-0.925 1.6-1.226s1.414-0.451 2.22-0.451c1.278 0 2.28 0.319 3.004 0.959 0.725 0.639 1.101 1.52 1.128 2.64v5.107c0 1.019 0.13 1.828 0.39 2.43v0.164h-1.991zm-3.148-1.44c0.595 0 1.159-0.154 1.692-0.462s0.919-0.708 1.159-1.2v-2.275h-1.487c-2.324 0-3.486 0.68-3.486 2.04 0 0.595 0.198 1.06 0.595 1.395s0.905 0.5 1.527 0.5z"/>
	<path d="m61.73 102.38h1.425c0.896-0.014 1.6-0.249 2.112-0.708 0.513-0.457 0.769-1.076 0.769-1.855 0-1.75-0.872-2.625-2.615-2.625-0.82 0-1.475 0.234-1.963 0.702-0.489 0.469-0.733 1.089-0.733 1.861h-1.897c0-1.183 0.432-2.165 1.297-2.948 0.864-0.782 1.963-1.174 3.296-1.174 1.408 0 2.512 0.373 3.312 1.117 0.8 0.746 1.2 1.781 1.2 3.107 0 0.649-0.21 1.278-0.63 1.887-0.421 0.608-0.993 1.063-1.718 1.363 0.82 0.261 1.454 0.691 1.902 1.293 0.447 0.602 0.671 1.336 0.671 2.204 0 1.34-0.438 2.403-1.312 3.188-0.875 0.787-2.013 1.18-3.415 1.18s-2.542-0.379-3.42-1.139c-0.878-0.758-1.317-1.76-1.317-3.004h1.907c0 0.786 0.256 1.415 0.769 1.887s1.2 0.707 2.061 0.707c0.916 0 1.617-0.238 2.102-0.717s0.728-1.166 0.728-2.062c0-0.868-0.267-1.534-0.8-1.999s-1.302-0.704-2.307-0.719h-1.424v-1.54z"/>
	<path d="m80.126 104.4c0 2.222-0.379 3.872-1.138 4.952s-1.945 1.62-3.558 1.62c-1.593 0-2.772-0.528-3.538-1.584-0.766-1.057-1.162-2.634-1.189-4.732v-2.533c0-2.193 0.379-3.824 1.138-4.891s1.948-1.6 3.568-1.6c1.606 0 2.789 0.515 3.548 1.543 0.759 1.029 1.148 2.617 1.169 4.764v2.45zm-1.897-2.6c0-1.606-0.226-2.777-0.677-3.512s-1.166-1.103-2.143-1.103c-0.971 0-1.678 0.366-2.123 1.098s-0.673 1.855-0.687 3.373v3.035c0 1.613 0.234 2.805 0.702 3.573 0.468 0.77 1.178 1.153 2.128 1.153 0.937 0 1.632-0.361 2.087-1.086 0.454-0.725 0.692-1.867 0.712-3.426v-3.1z"/>
	<path d="m89.734 99.668l0.051 1.23c0.813-0.957 1.911-1.436 3.292-1.436 1.552 0 2.608 0.595 3.168 1.784 0.369-0.533 0.849-0.964 1.441-1.292 0.591-0.328 1.29-0.492 2.097-0.492 2.434 0 3.671 1.289 3.712 3.866v7.434h-1.897v-7.321c0-0.793-0.181-1.386-0.543-1.779s-0.971-0.589-1.825-0.589c-0.704 0-1.289 0.21-1.753 0.63-0.465 0.421-0.735 0.986-0.81 1.697v7.362h-1.907v-7.27c0-1.613-0.79-2.42-2.369-2.42-1.244 0-2.095 0.529-2.553 1.589v8.101h-1.897v-11.092h1.788z"/>
	<path d="m106.37 96.726c0-0.309 0.094-0.567 0.282-0.779s0.467-0.318 0.836-0.318 0.649 0.106 0.841 0.318 0.287 0.471 0.287 0.779c0 0.307-0.096 0.563-0.287 0.769s-0.472 0.308-0.841 0.308-0.648-0.103-0.836-0.308-0.28-0.462-0.28-0.769zm2.05 14.034h-1.897v-11.092h1.897v11.092z"/>
	<path d="m113.25 99.668l0.062 1.395c0.848-1.066 1.955-1.6 3.322-1.6 2.345 0 3.527 1.323 3.548 3.968v7.332h-1.897v-7.342c-0.007-0.8-0.189-1.391-0.549-1.773-0.358-0.383-0.917-0.574-1.676-0.574-0.615 0-1.155 0.164-1.62 0.492s-0.827 0.758-1.087 1.291v7.906h-1.897v-11.102h1.81z"/>
	<path d="m129.89 109.67c-0.738 0.869-1.822 1.303-3.25 1.303-1.183 0-2.083-0.344-2.702-1.03-0.619-0.688-0.932-1.704-0.938-3.051v-7.219h1.897v7.167c0 1.682 0.684 2.523 2.051 2.523 1.449 0 2.413-0.54 2.892-1.621v-8.069h1.897v11.095h-1.805l-0.05-1.1z"/>
	<path d="m137.19 96.982v2.687h2.071v1.466h-2.071v6.89c0 0.444 0.092 0.778 0.277 1.001s0.499 0.334 0.943 0.334c0.219 0 0.52-0.041 0.902-0.123v1.528c-0.499 0.136-0.984 0.204-1.456 0.204-0.848 0-1.487-0.256-1.917-0.77-0.431-0.512-0.646-1.24-0.646-2.184v-6.881h-2.02v-1.466h2.02v-2.687h1.91z"/>
	<path d="m140.77 105.11c0-1.086 0.213-2.063 0.641-2.932 0.427-0.868 1.021-1.539 1.784-2.01 0.762-0.473 1.632-0.708 2.609-0.708 1.511 0 2.732 0.522 3.666 1.569 0.933 1.045 1.399 2.437 1.399 4.173v0.134c0 1.08-0.207 2.049-0.62 2.906-0.414 0.858-1.005 1.526-1.774 2.005s-1.652 0.718-2.65 0.718c-1.504 0-2.723-0.523-3.655-1.568-0.934-1.047-1.4-2.431-1.4-4.153v-0.13zm1.91 0.23c0 1.23 0.285 2.218 0.856 2.963s1.335 1.117 2.292 1.117c0.964 0 1.729-0.377 2.297-1.133 0.567-0.755 0.851-1.812 0.851-3.174 0-1.216-0.289-2.202-0.867-2.958-0.578-0.755-1.345-1.133-2.302-1.133-0.937 0-1.692 0.373-2.266 1.118s-0.86 1.8-0.86 3.19z"/>
	<path d="m159.71 107.82c0-0.512-0.193-0.91-0.579-1.194-0.387-0.283-1.06-0.528-2.021-0.733s-1.723-0.451-2.286-0.738c-0.564-0.287-0.981-0.628-1.251-1.025-0.271-0.396-0.405-0.867-0.405-1.414 0-0.909 0.385-1.679 1.153-2.308 0.77-0.629 1.752-0.943 2.948-0.943 1.258 0 2.278 0.325 3.061 0.974 0.783 0.65 1.174 1.48 1.174 2.492h-1.907c0-0.52-0.22-0.967-0.662-1.344-0.44-0.375-0.996-0.563-1.666-0.563-0.69 0-1.23 0.15-1.62 0.451s-0.584 0.694-0.584 1.179c0 0.459 0.181 0.804 0.543 1.036s1.017 0.455 1.964 0.667c0.946 0.212 1.714 0.465 2.302 0.758 0.588 0.295 1.023 0.648 1.308 1.062 0.283 0.414 0.425 0.918 0.425 1.513 0 0.991-0.396 1.786-1.189 2.384-0.793 0.599-1.822 0.897-3.086 0.897-0.889 0-1.675-0.157-2.358-0.472s-1.219-0.754-1.604-1.317c-0.387-0.564-0.58-1.174-0.58-1.83h1.897c0.034 0.635 0.289 1.14 0.764 1.512 0.475 0.373 1.103 0.559 1.882 0.559 0.718 0 1.293-0.145 1.728-0.436 0.46-0.31 0.68-0.69 0.68-1.18z"/>
</g>
<g enable-background="new    " fill="#414141">
	<path d="m28.118 159.38h1.425c0.896-0.014 1.6-0.249 2.112-0.708 0.513-0.457 0.769-1.076 0.769-1.855 0-1.75-0.872-2.625-2.615-2.625-0.82 0-1.475 0.234-1.963 0.702-0.489 0.469-0.733 1.089-0.733 1.861h-1.897c0-1.183 0.432-2.165 1.297-2.948 0.864-0.782 1.963-1.174 3.296-1.174 1.408 0 2.512 0.373 3.312 1.117 0.8 0.746 1.2 1.781 1.2 3.107 0 0.649-0.21 1.278-0.63 1.887-0.421 0.608-0.993 1.063-1.718 1.364 0.82 0.26 1.454 0.691 1.902 1.293 0.447 0.602 0.671 1.336 0.671 2.203 0 1.34-0.438 2.404-1.312 3.189-0.875 0.787-2.013 1.18-3.415 1.18s-2.542-0.379-3.42-1.139c-0.878-0.758-1.317-1.76-1.317-3.004h1.907c0 0.785 0.256 1.414 0.769 1.887 0.513 0.471 1.2 0.707 2.061 0.707 0.916 0 1.617-0.238 2.102-0.717s0.728-1.166 0.728-2.062c0-0.867-0.267-1.533-0.8-1.998s-1.302-0.705-2.307-0.719h-1.425v-1.56z"/>
	<path d="m43.386 167.76h-1.907v-12.643l-3.825 1.404v-1.723l5.435-2.041h0.297v15z"/>
	<path d="m61.187 167.76c-0.109-0.219-0.198-0.609-0.267-1.17-0.882 0.916-1.935 1.375-3.158 1.375-1.094 0-1.991-0.311-2.691-0.928-0.701-0.619-1.051-1.404-1.051-2.354 0-1.156 0.439-2.053 1.318-2.691 0.878-0.641 2.114-0.959 3.707-0.959h1.846v-0.871c0-0.664-0.198-1.192-0.595-1.585-0.396-0.393-0.981-0.589-1.753-0.589-0.677 0-1.244 0.171-1.702 0.512-0.458 0.343-0.687 0.756-0.687 1.241h-1.907c0-0.554 0.196-1.089 0.589-1.604 0.393-0.517 0.926-0.925 1.6-1.226s1.414-0.451 2.22-0.451c1.278 0 2.28 0.319 3.004 0.959 0.725 0.639 1.101 1.52 1.128 2.64v5.107c0 1.018 0.13 1.828 0.39 2.43v0.164h-1.991zm-3.148-1.44c0.595 0 1.159-0.154 1.692-0.463 0.533-0.307 0.919-0.707 1.159-1.199v-2.275h-1.487c-2.324 0-3.486 0.68-3.486 2.039 0 0.596 0.198 1.061 0.595 1.395 0.396 0.33 0.905 0.5 1.527 0.5z"/>
	<path d="m67.821 167.76h-1.897v-15.75h1.897v15.75z"/>
	<path d="m77.839 156.67l0.051 1.23c0.813-0.957 1.911-1.436 3.292-1.436 1.552 0 2.608 0.595 3.168 1.784 0.369-0.533 0.849-0.964 1.441-1.292 0.591-0.328 1.29-0.492 2.097-0.492 2.434 0 3.671 1.289 3.712 3.867v7.434h-1.897v-7.322c0-0.792-0.181-1.385-0.543-1.779-0.362-0.393-0.971-0.589-1.825-0.589-0.704 0-1.289 0.21-1.753 0.63-0.465 0.421-0.735 0.986-0.81 1.697v7.363h-1.907v-7.27c0-1.614-0.79-2.42-2.369-2.42-1.244 0-2.095 0.529-2.553 1.589v8.101h-1.897v-11.095h1.793z"/>
	<path d="m94.471 153.73c0-0.309 0.094-0.567 0.282-0.779s0.467-0.318 0.836-0.318 0.649 0.106 0.841 0.318 0.287 0.471 0.287 0.779c0 0.307-0.096 0.563-0.287 0.769s-0.472 0.308-0.841 0.308-0.648-0.103-0.836-0.308-0.282-0.47-0.282-0.77zm2.051 14.03h-1.897v-11.095h1.897v11.1z"/>
	<path d="m101.35 156.67l0.062 1.395c0.848-1.066 1.955-1.6 3.322-1.6 2.345 0 3.527 1.323 3.548 3.968v7.332h-1.897v-7.342c-0.007-0.8-0.189-1.391-0.549-1.774-0.358-0.383-0.917-0.574-1.676-0.574-0.615 0-1.155 0.164-1.62 0.492s-0.827 0.758-1.087 1.291v7.907h-1.897v-11.095h1.807z"/>
	<path d="m117.99 166.67c-0.738 0.869-1.822 1.303-3.25 1.303-1.183 0-2.083-0.344-2.702-1.031-0.619-0.688-0.932-1.703-0.938-3.051v-7.218h1.9v7.167c0 1.682 0.684 2.523 2.051 2.523 1.449 0 2.413-0.541 2.892-1.621v-8.07h1.897v11.095h-1.805l-0.05-1.09z"/>
	<path d="m125.29 153.98v2.687h2.071v1.466h-2.071v6.889c0 0.445 0.092 0.779 0.277 1.002s0.499 0.334 0.943 0.334c0.219 0 0.52-0.041 0.902-0.123v1.527c-0.499 0.137-0.984 0.205-1.456 0.205-0.848 0-1.487-0.256-1.917-0.77-0.431-0.512-0.646-1.24-0.646-2.184v-6.881h-2.02v-1.466h2.02v-2.687h1.91z"/>
	<path d="m128.87 162.11c0-1.086 0.213-2.064 0.641-2.932 0.427-0.868 1.021-1.539 1.784-2.01 0.762-0.473 1.632-0.708 2.609-0.708 1.511 0 2.732 0.522 3.666 1.569 0.933 1.045 1.399 2.436 1.399 4.172v0.135c0 1.08-0.207 2.049-0.62 2.906-0.414 0.857-1.005 1.525-1.774 2.004s-1.652 0.719-2.65 0.719c-1.504 0-2.723-0.523-3.655-1.568-0.934-1.047-1.4-2.432-1.4-4.154v-0.14zm1.91 0.23c0 1.23 0.285 2.217 0.856 2.963 0.571 0.744 1.335 1.117 2.292 1.117 0.964 0 1.729-0.377 2.297-1.133s0.851-1.812 0.851-3.174c0-1.217-0.289-2.203-0.867-2.958s-1.345-1.133-2.302-1.133c-0.937 0-1.692 0.373-2.266 1.118s-0.86 1.8-0.86 3.19z"/>
	<path d="m153.8 152.82v1.609h-0.349c-1.477 0.027-2.652 0.465-3.527 1.312s-1.381 2.041-1.518 3.578c0.786-0.902 1.859-1.354 3.22-1.354 1.299 0 2.336 0.459 3.112 1.375 0.776 0.917 1.164 2.098 1.164 3.547 0 1.539-0.419 2.77-1.256 3.691-0.838 0.924-1.96 1.385-3.369 1.385-1.429 0-2.587-0.549-3.476-1.646s-1.333-2.51-1.333-4.24v-0.727c0-2.749 0.586-4.849 1.759-6.302 1.172-1.452 2.917-2.195 5.234-2.229h0.36zm-2.49 6.73c-0.649 0-1.248 0.194-1.794 0.584-0.547 0.389-0.926 0.879-1.138 1.467v0.697c0 1.23 0.277 2.221 0.831 2.973s1.244 1.129 2.071 1.129c0.854 0 1.526-0.314 2.015-0.943 0.488-0.629 0.733-1.453 0.733-2.473 0-1.025-0.248-1.854-0.744-2.486-0.5-0.63-1.16-0.95-1.98-0.95z"/>
	<path d="m167.51 161.4c0 2.221-0.379 3.871-1.138 4.951s-1.945 1.621-3.558 1.621c-1.593 0-2.772-0.529-3.538-1.584-0.766-1.057-1.162-2.635-1.189-4.732v-2.534c0-2.193 0.379-3.824 1.138-4.891s1.948-1.6 3.568-1.6c1.606 0 2.789 0.515 3.548 1.543 0.759 1.029 1.148 2.617 1.169 4.764v2.46zm-1.9-2.6c0-1.606-0.226-2.777-0.677-3.512s-1.166-1.103-2.143-1.103c-0.971 0-1.678 0.366-2.123 1.098s-0.673 1.855-0.687 3.373v3.036c0 1.613 0.234 2.805 0.702 3.572 0.468 0.77 1.178 1.154 2.128 1.154 0.937 0 1.632-0.361 2.087-1.086 0.454-0.725 0.692-1.867 0.712-3.426v-3.1z"/>
</g>
<g enable-background="new    " fill="#414141">
	<path d="m32.804 205.82v1.609h-0.349c-1.477 0.027-2.652 0.465-3.527 1.312s-1.381 2.041-1.518 3.578c0.786-0.902 1.859-1.354 3.22-1.354 1.299 0 2.336 0.459 3.112 1.375s1.164 2.098 1.164 3.547c0 1.539-0.419 2.77-1.256 3.691-0.838 0.924-1.96 1.385-3.369 1.385-1.429 0-2.587-0.549-3.476-1.646s-1.333-2.51-1.333-4.24v-0.727c0-2.748 0.586-4.85 1.759-6.303 1.172-1.451 2.917-2.195 5.234-2.229h0.339zm-2.492 6.73c-0.649 0-1.248 0.193-1.794 0.584-0.547 0.389-0.926 0.879-1.138 1.467v0.697c0 1.23 0.277 2.221 0.831 2.973s1.244 1.129 2.071 1.129c0.854 0 1.526-0.314 2.015-0.943 0.488-0.629 0.733-1.453 0.733-2.473 0-1.025-0.248-1.854-0.744-2.486s-1.153-0.95-1.974-0.95z"/>
	<path d="m43.386 220.76h-1.907v-12.643l-3.825 1.404v-1.723l5.435-2.041h0.297v15z"/>
	<path d="m58.941 220.97c-1.504 0-2.728-0.494-3.671-1.482s-1.415-2.309-1.415-3.963v-0.348c0-1.102 0.21-2.084 0.63-2.949 0.421-0.865 1.008-1.541 1.764-2.029 0.755-0.49 1.574-0.734 2.456-0.734 1.442 0 2.563 0.477 3.363 1.426 0.8 0.951 1.2 2.311 1.2 4.082v0.789h-7.516c0.027 1.094 0.347 1.977 0.959 2.65 0.611 0.674 1.389 1.01 2.333 1.01 0.67 0 1.237-0.137 1.702-0.41s0.872-0.635 1.22-1.086l1.159 0.902c-0.93 1.42-2.324 2.14-4.184 2.14zm-0.235-9.95c-0.766 0-1.408 0.279-1.928 0.836s-0.841 1.338-0.964 2.344h5.558v-0.145c-0.055-0.963-0.314-1.711-0.779-2.24s-1.094-0.8-1.887-0.8z"/>
	<path d="m67.257 209.67l0.062 1.395c0.848-1.066 1.955-1.6 3.322-1.6 2.345 0 3.527 1.324 3.548 3.969v7.332h-1.897v-7.342c-0.007-0.801-0.189-1.391-0.549-1.773-0.358-0.383-0.917-0.574-1.676-0.574-0.615 0-1.155 0.164-1.62 0.492s-0.827 0.758-1.087 1.291v7.906h-1.897v-11.096h1.794z"/>
	<path d="m89.098 220.76c-0.109-0.219-0.198-0.609-0.267-1.17-0.882 0.916-1.935 1.375-3.158 1.375-1.094 0-1.991-0.311-2.691-0.928-0.701-0.619-1.051-1.404-1.051-2.354 0-1.156 0.439-2.053 1.318-2.691 0.878-0.641 2.114-0.959 3.707-0.959h1.846v-0.871c0-0.664-0.198-1.191-0.595-1.586-0.396-0.393-0.981-0.588-1.753-0.588-0.677 0-1.244 0.17-1.702 0.512s-0.687 0.756-0.687 1.24h-1.907c0-0.553 0.196-1.088 0.589-1.604 0.393-0.518 0.926-0.926 1.6-1.227s1.414-0.451 2.22-0.451c1.278 0 2.28 0.32 3.004 0.959s1.101 1.52 1.128 2.641v5.107c0 1.018 0.13 1.828 0.39 2.43v0.164h-1.991zm-3.148-1.44c0.595 0 1.159-0.154 1.692-0.463 0.533-0.307 0.919-0.707 1.159-1.199v-2.275h-1.487c-2.324 0-3.486 0.68-3.486 2.039 0 0.596 0.198 1.061 0.595 1.395 0.396 0.33 0.905 0.5 1.527 0.5z"/>
	<path d="m93.21 215.12c0-1.701 0.403-3.07 1.21-4.105 0.807-1.037 1.863-1.555 3.168-1.555 1.299 0 2.328 0.445 3.086 1.334v-5.783h1.897v15.75h-1.743l-0.092-1.189c-0.759 0.93-1.815 1.395-3.168 1.395-1.285 0-2.333-0.527-3.143-1.58-0.811-1.053-1.215-2.426-1.215-4.121v-0.14zm1.897 0.22c0 1.258 0.26 2.242 0.779 2.953s1.237 1.066 2.153 1.066c1.203 0 2.082-0.541 2.635-1.621v-5.096c-0.567-1.047-1.439-1.568-2.615-1.568-0.93 0-1.654 0.357-2.174 1.076-0.514 0.72-0.774 1.78-0.774 3.19z"/>
	<path d="m110.12 220.97c-1.504 0-2.728-0.494-3.671-1.482s-1.415-2.309-1.415-3.963v-0.348c0-1.102 0.21-2.084 0.63-2.949 0.421-0.865 1.008-1.541 1.764-2.029 0.755-0.49 1.574-0.734 2.456-0.734 1.442 0 2.563 0.477 3.363 1.426 0.8 0.951 1.2 2.311 1.2 4.082v0.789h-7.516c0.027 1.094 0.347 1.977 0.959 2.65 0.611 0.674 1.389 1.01 2.333 1.01 0.67 0 1.237-0.137 1.702-0.41s0.872-0.635 1.22-1.086l1.159 0.902c-0.93 1.42-2.32 2.14-4.18 2.14zm-0.24-9.95c-0.766 0-1.408 0.279-1.928 0.836s-0.841 1.338-0.964 2.344h5.558v-0.145c-0.055-0.963-0.314-1.711-0.779-2.24s-1.09-0.8-1.89-0.8z"/>
	<path d="m118.7 220.76h-1.897v-15.75h1.897v15.75z"/>
	<path d="m128.59 220.76c-0.109-0.219-0.198-0.609-0.267-1.17-0.882 0.916-1.935 1.375-3.158 1.375-1.094 0-1.991-0.311-2.691-0.928-0.701-0.619-1.051-1.404-1.051-2.354 0-1.156 0.439-2.053 1.318-2.691 0.878-0.641 2.114-0.959 3.707-0.959h1.846v-0.871c0-0.664-0.198-1.191-0.595-1.586-0.396-0.393-0.981-0.588-1.753-0.588-0.677 0-1.244 0.17-1.702 0.512s-0.687 0.756-0.687 1.24h-1.907c0-0.553 0.196-1.088 0.589-1.604 0.393-0.518 0.926-0.926 1.6-1.227s1.414-0.451 2.22-0.451c1.278 0 2.28 0.32 3.004 0.959s1.101 1.52 1.128 2.641v5.107c0 1.018 0.13 1.828 0.39 2.43v0.164h-1.99zm-3.15-1.44c0.595 0 1.159-0.154 1.692-0.463 0.533-0.307 0.919-0.707 1.159-1.199v-2.275h-1.487c-2.324 0-3.486 0.68-3.486 2.039 0 0.596 0.198 1.061 0.595 1.395 0.41 0.33 0.92 0.5 1.54 0.5z"/>
	<path d="m134.95 209.67l0.062 1.395c0.848-1.066 1.955-1.6 3.322-1.6 2.345 0 3.527 1.324 3.548 3.969v7.332h-1.897v-7.342c-0.007-0.801-0.189-1.391-0.549-1.773-0.358-0.383-0.917-0.574-1.676-0.574-0.615 0-1.155 0.164-1.62 0.492s-0.827 0.758-1.087 1.291v7.906h-1.897v-11.096h1.81z"/>
	<path d="m147.32 206.98v2.686h2.071v1.467h-2.071v6.889c0 0.445 0.092 0.779 0.277 1.002s0.499 0.334 0.943 0.334c0.219 0 0.52-0.041 0.902-0.123v1.527c-0.499 0.137-0.984 0.205-1.456 0.205-0.848 0-1.487-0.256-1.917-0.77-0.431-0.512-0.646-1.24-0.646-2.184v-6.881h-2.02v-1.467h2.02v-2.686h1.91z"/>
	<path d="m156.21 220.97c-1.504 0-2.728-0.494-3.671-1.482s-1.415-2.309-1.415-3.963v-0.348c0-1.102 0.21-2.084 0.63-2.949 0.421-0.865 1.008-1.541 1.764-2.029 0.755-0.49 1.574-0.734 2.456-0.734 1.442 0 2.563 0.477 3.363 1.426 0.8 0.951 1.2 2.311 1.2 4.082v0.789h-7.516c0.027 1.094 0.347 1.977 0.959 2.65 0.611 0.674 1.389 1.01 2.333 1.01 0.67 0 1.237-0.137 1.702-0.41s0.872-0.635 1.22-1.086l1.159 0.902c-0.92 1.42-2.31 2.14-4.17 2.14zm-0.24-9.95c-0.766 0-1.408 0.279-1.928 0.836s-0.841 1.338-0.964 2.344h5.558v-0.145c-0.055-0.963-0.314-1.711-0.779-2.24s-1.09-0.8-1.89-0.8z"/>
</g>
<g enable-background="new    " fill="#414141">
	<path d="m322.29 110.76h-1.969v-14.93h1.969v14.93z"/>
	<path d="m327.39 99.668l0.062 1.395c0.848-1.066 1.955-1.6 3.322-1.6 2.345 0 3.527 1.323 3.548 3.968v7.332h-1.897v-7.342c-0.007-0.8-0.189-1.391-0.549-1.773-0.358-0.383-0.917-0.574-1.676-0.574-0.615 0-1.155 0.164-1.62 0.492s-0.827 0.758-1.087 1.291v7.906h-1.897v-11.102h1.81z"/>
	<path d="m341.63 109.42c0.677 0 1.269-0.205 1.774-0.615s0.786-0.922 0.841-1.537h1.794c-0.034 0.635-0.253 1.24-0.656 1.814s-0.941 1.032-1.615 1.374c-0.673 0.342-1.386 0.513-2.138 0.513-1.511 0-2.712-0.504-3.604-1.513-0.892-1.008-1.338-2.387-1.338-4.138v-0.3c0-1.08 0.198-2.04 0.595-2.882 0.396-0.84 0.966-1.493 1.707-1.958 0.742-0.465 1.619-0.697 2.631-0.697 1.244 0 2.277 0.373 3.102 1.118 0.823 0.745 1.263 1.712 1.317 2.901h-1.794c-0.055-0.718-0.327-1.308-0.815-1.769-0.489-0.462-1.092-0.692-1.81-0.692-0.964 0-1.711 0.347-2.241 1.041-0.529 0.693-0.794 1.696-0.794 3.009v0.359c0 1.278 0.263 2.263 0.789 2.953s1.26 1.04 2.24 1.04z"/>
	<path d="m350.23 110.76h-1.897v-15.75h1.897v15.75z"/>
	<path d="m360.12 109.67c-0.738 0.869-1.822 1.303-3.251 1.303-1.183 0-2.083-0.344-2.701-1.03-0.619-0.688-0.932-1.704-0.938-3.051v-7.219h1.896v7.167c0 1.682 0.684 2.523 2.051 2.523 1.449 0 2.413-0.54 2.892-1.621v-8.069h1.897v11.095h-1.805l-0.04-1.1z"/>
	<path d="m364.85 96.726c0-0.309 0.094-0.567 0.281-0.779 0.188-0.212 0.467-0.318 0.836-0.318s0.649 0.106 0.841 0.318 0.287 0.471 0.287 0.779c0 0.307-0.096 0.563-0.287 0.769s-0.472 0.308-0.841 0.308-0.647-0.103-0.836-0.308c-0.18-0.205-0.28-0.462-0.28-0.769zm2.05 14.034h-1.897v-11.092h1.897v11.092z"/>
	<path d="m369.48 105.12c0-1.702 0.403-3.071 1.21-4.106 0.807-1.036 1.863-1.554 3.169-1.554 1.299 0 2.327 0.444 3.086 1.333v-5.783h1.897v15.75h-1.743l-0.093-1.189c-0.759 0.93-1.814 1.395-3.168 1.395-1.285 0-2.333-0.526-3.143-1.579-0.811-1.053-1.216-2.427-1.216-4.122v-0.14zm1.9 0.22c0 1.258 0.26 2.242 0.779 2.953s1.237 1.066 2.153 1.066c1.203 0 2.081-0.54 2.635-1.621v-5.096c-0.567-1.046-1.438-1.568-2.614-1.568-0.93 0-1.654 0.358-2.174 1.076s-0.78 1.78-0.78 3.19z"/>
	<path d="m381.28 105.11c0-1.086 0.213-2.063 0.641-2.932 0.427-0.868 1.021-1.539 1.784-2.01 0.762-0.473 1.632-0.708 2.609-0.708 1.511 0 2.732 0.522 3.666 1.569 0.933 1.045 1.399 2.437 1.399 4.173v0.134c0 1.08-0.207 2.049-0.62 2.906-0.414 0.858-1.005 1.526-1.774 2.005s-1.652 0.718-2.65 0.718c-1.504 0-2.723-0.523-3.655-1.568-0.934-1.047-1.399-2.431-1.399-4.153v-0.13zm1.91 0.23c0 1.23 0.285 2.218 0.855 2.963 0.571 0.745 1.335 1.117 2.292 1.117 0.964 0 1.729-0.377 2.297-1.133 0.567-0.755 0.852-1.812 0.852-3.174 0-1.216-0.289-2.202-0.867-2.958-0.577-0.755-1.345-1.133-2.302-1.133-0.937 0-1.691 0.373-2.266 1.118s-0.85 1.8-0.85 3.19z"/>
	<path d="m403.56 110.97c-1.504 0-2.728-0.494-3.671-1.481-0.943-0.988-1.415-2.309-1.415-3.964v-0.348c0-1.101 0.211-2.084 0.631-2.948 0.421-0.865 1.008-1.542 1.764-2.03 0.755-0.489 1.574-0.733 2.456-0.733 1.442 0 2.563 0.476 3.363 1.425 0.8 0.951 1.199 2.312 1.199 4.082v0.789h-7.516c0.027 1.094 0.347 1.978 0.959 2.65 0.611 0.674 1.389 1.01 2.332 1.01 0.67 0 1.237-0.136 1.702-0.41 0.465-0.272 0.872-0.635 1.221-1.086l1.158 0.902c-0.92 1.43-2.32 2.15-4.18 2.15zm-0.23-9.95c-0.766 0-1.408 0.278-1.928 0.836-0.52 0.557-0.841 1.338-0.964 2.343h5.558v-0.144c-0.055-0.964-0.314-1.711-0.779-2.24-0.47-0.53-1.1-0.8-1.89-0.8z"/>
	<path d="m411.88 99.668l0.062 1.395c0.848-1.066 1.955-1.6 3.322-1.6 2.345 0 3.527 1.323 3.548 3.968v7.332h-1.897v-7.342c-0.007-0.8-0.189-1.391-0.549-1.773-0.358-0.383-0.917-0.574-1.676-0.574-0.615 0-1.155 0.164-1.62 0.492s-0.827 0.758-1.087 1.291v7.906h-1.897v-11.102h1.81z"/>
	<path d="m429.44 96.982v2.687h2.071v1.466h-2.071v6.89c0 0.444 0.093 0.778 0.277 1.001s0.499 0.334 0.943 0.334c0.219 0 0.52-0.041 0.902-0.123v1.528c-0.499 0.136-0.984 0.204-1.456 0.204-0.848 0-1.487-0.256-1.918-0.77-0.431-0.512-0.646-1.24-0.646-2.184v-6.881h-2.021v-1.466h2.021v-2.687h1.91z"/>
	<path d="m440.58 109.67c-0.738 0.869-1.821 1.303-3.25 1.303-1.183 0-2.084-0.344-2.702-1.03-0.619-0.688-0.932-1.704-0.938-3.051v-7.219h1.897v7.167c0 1.682 0.684 2.523 2.051 2.523 1.449 0 2.413-0.54 2.892-1.621v-8.069h1.896v11.095h-1.805l-0.04-1.1z"/>
	<path d="m456.96 107.82c0-0.512-0.193-0.91-0.579-1.194-0.387-0.283-1.06-0.528-2.021-0.733-0.96-0.205-1.723-0.451-2.286-0.738-0.564-0.287-0.981-0.628-1.251-1.025-0.271-0.396-0.405-0.867-0.405-1.414 0-0.909 0.385-1.679 1.153-2.308 0.77-0.629 1.752-0.943 2.948-0.943 1.258 0 2.278 0.325 3.061 0.974 0.783 0.65 1.175 1.48 1.175 2.492h-1.907c0-0.52-0.221-0.967-0.662-1.344-0.44-0.375-0.996-0.563-1.666-0.563-0.69 0-1.23 0.15-1.62 0.451s-0.584 0.694-0.584 1.179c0 0.459 0.181 0.804 0.543 1.036s1.017 0.455 1.964 0.667c0.946 0.212 1.714 0.465 2.302 0.758 0.588 0.295 1.023 0.648 1.308 1.062 0.283 0.414 0.426 0.918 0.426 1.513 0 0.991-0.396 1.786-1.189 2.384-0.793 0.599-1.822 0.897-3.087 0.897-0.889 0-1.675-0.157-2.358-0.472s-1.219-0.754-1.604-1.317c-0.387-0.564-0.579-1.174-0.579-1.83h1.896c0.034 0.635 0.289 1.14 0.764 1.512 0.476 0.373 1.103 0.559 1.882 0.559 0.718 0 1.294-0.145 1.728-0.436 0.44-0.31 0.65-0.69 0.65-1.18z"/>
	<path d="m468.18 109.67c-0.738 0.869-1.821 1.303-3.25 1.303-1.183 0-2.084-0.344-2.702-1.03-0.619-0.688-0.932-1.704-0.938-3.051v-7.219h1.897v7.167c0 1.682 0.684 2.523 2.051 2.523 1.449 0 2.413-0.54 2.892-1.621v-8.069h1.896v11.095h-1.805l-0.04-1.1z"/>
	<path d="m479.37 107.82c0-0.512-0.193-0.91-0.579-1.194-0.387-0.283-1.061-0.528-2.021-0.733-0.961-0.205-1.723-0.451-2.286-0.738-0.564-0.287-0.981-0.628-1.251-1.025-0.271-0.396-0.405-0.867-0.405-1.414 0-0.909 0.385-1.679 1.153-2.308 0.77-0.629 1.752-0.943 2.948-0.943 1.258 0 2.277 0.325 3.061 0.974 0.782 0.65 1.174 1.48 1.174 2.492h-1.907c0-0.52-0.22-0.967-0.661-1.344-0.44-0.375-0.996-0.563-1.666-0.563-0.69 0-1.23 0.15-1.62 0.451s-0.585 0.694-0.585 1.179c0 0.459 0.182 0.804 0.544 1.036s1.017 0.455 1.964 0.667c0.946 0.212 1.714 0.465 2.302 0.758 0.588 0.295 1.023 0.648 1.308 1.062 0.283 0.414 0.425 0.918 0.425 1.513 0 0.991-0.396 1.786-1.189 2.384-0.793 0.599-1.821 0.897-3.086 0.897-0.889 0-1.675-0.157-2.358-0.472s-1.219-0.754-1.604-1.317c-0.387-0.564-0.58-1.174-0.58-1.83h1.897c0.034 0.635 0.288 1.14 0.764 1.512 0.475 0.373 1.103 0.559 1.882 0.559 0.718 0 1.293-0.145 1.728-0.436 0.46-0.31 0.68-0.69 0.68-1.18z"/>
	<path d="m488.19 109.42c0.677 0 1.268-0.205 1.773-0.615s0.786-0.922 0.841-1.537h1.795c-0.034 0.635-0.253 1.24-0.656 1.814s-0.942 1.032-1.615 1.374c-0.674 0.342-1.386 0.513-2.138 0.513-1.511 0-2.712-0.504-3.604-1.513-0.892-1.008-1.338-2.387-1.338-4.138v-0.3c0-1.08 0.198-2.04 0.595-2.882 0.396-0.84 0.965-1.493 1.707-1.958 0.741-0.465 1.618-0.697 2.63-0.697 1.244 0 2.278 0.373 3.103 1.118 0.823 0.745 1.263 1.712 1.317 2.901h-1.795c-0.055-0.718-0.326-1.308-0.814-1.769-0.489-0.462-1.093-0.692-1.811-0.692-0.964 0-1.711 0.347-2.24 1.041-0.53 0.693-0.795 1.696-0.795 3.009v0.359c0 1.278 0.264 2.263 0.79 2.953s1.28 1.04 2.26 1.04z"/>
	<path d="m500.09 101.37c-0.287-0.048-0.598-0.072-0.933-0.072-1.244 0-2.089 0.53-2.533 1.59v7.875h-1.896v-11.092h1.846l0.03 1.282c0.622-0.991 1.504-1.487 2.646-1.487 0.369 0 0.649 0.048 0.841 0.144v1.763z"/>
	<path d="m501.85 96.726c0-0.309 0.094-0.567 0.281-0.779 0.188-0.212 0.467-0.318 0.836-0.318s0.649 0.106 0.841 0.318 0.287 0.471 0.287 0.779c0 0.307-0.096 0.563-0.287 0.769s-0.472 0.308-0.841 0.308-0.647-0.103-0.836-0.308c-0.19-0.205-0.28-0.462-0.28-0.769zm2.05 14.034h-1.897v-11.092h1.897v11.092z"/>
	<path d="m516.3 105.34c0 1.688-0.387 3.049-1.159 4.08-0.772 1.033-1.818 1.549-3.138 1.549-1.347 0-2.406-0.427-3.179-1.281v5.342h-1.896v-15.36h1.732l0.093 1.23c0.772-0.957 1.846-1.436 3.22-1.436 1.333 0 2.387 0.503 3.163 1.507 0.775 1.006 1.164 2.403 1.164 4.194v0.18zm-1.89-0.22c0-1.251-0.267-2.238-0.8-2.964-0.533-0.724-1.265-1.086-2.194-1.086-1.148 0-2.01 0.509-2.584 1.527v5.301c0.567 1.013 1.436 1.518 2.604 1.518 0.909 0 1.632-0.36 2.169-1.081 0.53-0.72 0.8-1.8 0.8-3.22z"/>
	<path d="m523.16 109.42c0.677 0 1.269-0.205 1.774-0.615s0.786-0.922 0.841-1.537h1.794c-0.034 0.635-0.253 1.24-0.656 1.814s-0.941 1.032-1.615 1.374c-0.673 0.342-1.386 0.513-2.138 0.513-1.511 0-2.712-0.504-3.604-1.513-0.892-1.008-1.338-2.387-1.338-4.138v-0.3c0-1.08 0.198-2.04 0.595-2.882 0.396-0.84 0.966-1.493 1.707-1.958 0.742-0.465 1.619-0.697 2.631-0.697 1.244 0 2.277 0.373 3.102 1.118 0.823 0.745 1.263 1.712 1.317 2.901h-1.794c-0.055-0.718-0.327-1.308-0.815-1.769-0.489-0.462-1.092-0.692-1.81-0.692-0.964 0-1.711 0.347-2.241 1.041-0.529 0.693-0.794 1.696-0.794 3.009v0.359c0 1.278 0.263 2.263 0.789 2.953s1.28 1.04 2.25 1.04z"/>
	<path d="m529.72 96.726c0-0.309 0.094-0.567 0.281-0.779 0.188-0.212 0.467-0.318 0.836-0.318s0.649 0.106 0.841 0.318 0.287 0.471 0.287 0.779c0 0.307-0.096 0.563-0.287 0.769s-0.472 0.308-0.841 0.308-0.647-0.103-0.836-0.308c-0.19-0.205-0.28-0.462-0.28-0.769zm2.05 14.034h-1.897v-11.092h1.897v11.092z"/>
	<path d="m534.3 105.11c0-1.086 0.214-2.063 0.642-2.932 0.427-0.868 1.021-1.539 1.784-2.01 0.762-0.473 1.632-0.708 2.609-0.708 1.511 0 2.732 0.522 3.666 1.569 0.933 1.045 1.399 2.437 1.399 4.173v0.134c0 1.08-0.207 2.049-0.62 2.906-0.414 0.858-1.005 1.526-1.774 2.005s-1.652 0.718-2.65 0.718c-1.504 0-2.723-0.523-3.655-1.568-0.934-1.047-1.4-2.431-1.4-4.153v-0.13zm1.91 0.23c0 1.23 0.285 2.218 0.856 2.963 0.57 0.745 1.335 1.117 2.292 1.117 0.964 0 1.729-0.377 2.297-1.133 0.567-0.755 0.851-1.812 0.851-3.174 0-1.216-0.289-2.202-0.866-2.958-0.578-0.755-1.345-1.133-2.302-1.133-0.937 0-1.692 0.373-2.267 1.118s-0.86 1.8-0.86 3.19zm3.99-10.306h2.297l-2.748 3.015-1.528-0.005 1.98-3.01z"/>
	<path d="m548.57 99.668l0.062 1.395c0.848-1.066 1.955-1.6 3.322-1.6 2.345 0 3.527 1.323 3.548 3.968v7.332h-1.896v-7.342c-0.007-0.8-0.189-1.391-0.549-1.773-0.358-0.383-0.918-0.574-1.677-0.574-0.615 0-1.155 0.164-1.62 0.492s-0.827 0.758-1.087 1.291v7.906h-1.896v-11.102h1.81z"/>
</g>
<g enable-background="new    " fill="#414141">
	<path d="m327.22 163.92c0-0.629-0.221-1.158-0.661-1.59-0.441-0.43-1.185-0.82-2.23-1.168-1.456-0.445-2.518-1.023-3.184-1.739-0.667-0.714-1-1.621-1-2.723 0-1.12 0.326-2.04 0.979-2.758 0.652-0.718 1.55-1.145 2.691-1.281v-2.246h1.527v2.256c1.148 0.157 2.042 0.64 2.682 1.445 0.639 0.808 0.959 1.911 0.959 3.312h-1.887c0-0.967-0.229-1.735-0.688-2.305-0.458-0.568-1.076-0.854-1.855-0.854-0.813 0-1.436 0.211-1.866 0.632s-0.646 1.009-0.646 1.762c0 0.698 0.228 1.255 0.683 1.669 0.454 0.415 1.202 0.791 2.245 1.13 1.042 0.34 1.856 0.712 2.44 1.119 0.585 0.406 1.016 0.881 1.292 1.42 0.277 0.541 0.415 1.174 0.415 1.898 0 1.154-0.347 2.084-1.04 2.789-0.694 0.703-1.667 1.119-2.918 1.25v1.959h-1.518v-1.959c-1.271-0.117-2.268-0.568-2.988-1.359-0.722-0.789-1.082-1.859-1.082-3.213h1.896c0 0.949 0.25 1.682 0.749 2.193 0.499 0.514 1.206 0.77 2.122 0.77 0.896 0 1.6-0.215 2.112-0.646 0.53-0.43 0.79-1.02 0.79-1.76z"/>
	<path d="m346.46 167.76h-9.782v-1.36l5.168-5.742c0.766-0.869 1.293-1.575 1.584-2.119 0.29-0.543 0.436-1.105 0.436-1.687 0-0.779-0.235-1.418-0.707-1.918-0.472-0.498-1.101-0.748-1.887-0.748-0.943 0-1.677 0.269-2.2 0.805-0.522 0.537-0.784 1.284-0.784 2.24h-1.896c0-1.373 0.442-2.484 1.327-3.332 0.886-0.848 2.07-1.271 3.554-1.271 1.388 0 2.484 0.364 3.291 1.092 0.807 0.729 1.21 1.697 1.21 2.907 0 1.47-0.937 3.22-2.81 5.25l-3.999 4.338h7.496v1.55z"/>
	<path d="m357.83 161.4c0 2.221-0.379 3.871-1.138 4.951s-1.945 1.621-3.559 1.621c-1.593 0-2.771-0.529-3.537-1.584-0.766-1.057-1.162-2.635-1.189-4.732v-2.534c0-2.193 0.379-3.824 1.138-4.891s1.948-1.6 3.568-1.6c1.606 0 2.789 0.515 3.548 1.543 0.759 1.029 1.148 2.617 1.169 4.764v2.46zm-1.9-2.6c0-1.606-0.226-2.777-0.677-3.512s-1.166-1.103-2.144-1.103c-0.971 0-1.678 0.366-2.122 1.098s-0.674 1.855-0.688 3.373v3.036c0 1.613 0.234 2.805 0.702 3.572 0.469 0.77 1.178 1.154 2.128 1.154 0.937 0 1.632-0.361 2.087-1.086 0.454-0.725 0.692-1.867 0.713-3.426v-3.1z"/>
	<path d="m360.5 166.77c0-0.328 0.098-0.602 0.292-0.82 0.195-0.219 0.487-0.328 0.877-0.328s0.686 0.109 0.887 0.328c0.202 0.219 0.303 0.492 0.303 0.82 0 0.314-0.101 0.576-0.303 0.789-0.201 0.211-0.497 0.318-0.887 0.318s-0.682-0.107-0.877-0.318c-0.2-0.21-0.29-0.48-0.29-0.79z"/>
	<path d="m375.15 161.4c0 2.221-0.38 3.871-1.139 4.951s-1.944 1.621-3.558 1.621c-1.593 0-2.772-0.529-3.538-1.584-0.766-1.057-1.162-2.635-1.189-4.732v-2.534c0-2.193 0.38-3.824 1.139-4.891s1.948-1.6 3.568-1.6c1.606 0 2.789 0.515 3.548 1.543 0.759 1.029 1.148 2.617 1.169 4.764v2.46zm-1.9-2.6c0-1.606-0.226-2.777-0.677-3.512s-1.165-1.103-2.143-1.103c-0.971 0-1.679 0.366-2.123 1.098s-0.673 1.855-0.687 3.373v3.036c0 1.613 0.233 2.805 0.702 3.572 0.468 0.77 1.178 1.154 2.128 1.154 0.937 0 1.632-0.361 2.087-1.086 0.454-0.725 0.691-1.867 0.712-3.426v-3.1z"/>
	<path d="m386.94 161.4c0 2.221-0.38 3.871-1.139 4.951s-1.944 1.621-3.558 1.621c-1.593 0-2.772-0.529-3.538-1.584-0.766-1.057-1.162-2.635-1.189-4.732v-2.534c0-2.193 0.38-3.824 1.139-4.891s1.948-1.6 3.568-1.6c1.606 0 2.789 0.515 3.548 1.543 0.759 1.029 1.148 2.617 1.169 4.764v2.46zm-1.9-2.6c0-1.606-0.226-2.777-0.677-3.512s-1.165-1.103-2.143-1.103c-0.971 0-1.679 0.366-2.123 1.098s-0.673 1.855-0.687 3.373v3.036c0 1.613 0.233 2.805 0.702 3.572 0.468 0.77 1.178 1.154 2.128 1.154 0.937 0 1.632-0.361 2.087-1.086 0.454-0.725 0.691-1.867 0.712-3.426v-3.1z"/>
	<path d="m404.14 162.34c0 1.688-0.386 3.049-1.158 4.08-0.772 1.033-1.818 1.549-3.138 1.549-1.347 0-2.406-0.428-3.179-1.281v5.342h-1.897v-15.361h1.733l0.092 1.23c0.772-0.957 1.846-1.436 3.22-1.436 1.333 0 2.388 0.503 3.163 1.507 0.776 1.006 1.164 2.403 1.164 4.194v0.18zm-1.9-0.22c0-1.25-0.267-2.238-0.8-2.963-0.533-0.724-1.265-1.086-2.194-1.086-1.148 0-2.01 0.509-2.584 1.527v5.301c0.567 1.012 1.436 1.518 2.604 1.518 0.909 0 1.632-0.361 2.168-1.082 0.53-0.72 0.8-1.8 0.8-3.22z"/>
	<path d="m411.15 167.97c-1.504 0-2.728-0.494-3.671-1.482s-1.415-2.309-1.415-3.963v-0.348c0-1.102 0.211-2.084 0.631-2.949 0.421-0.865 1.008-1.542 1.764-2.03 0.755-0.489 1.574-0.733 2.456-0.733 1.442 0 2.563 0.476 3.363 1.425 0.8 0.951 1.199 2.311 1.199 4.083v0.789h-7.516c0.027 1.094 0.347 1.977 0.959 2.65 0.611 0.674 1.389 1.01 2.332 1.01 0.67 0 1.237-0.137 1.702-0.41s0.872-0.635 1.221-1.086l1.158 0.902c-0.92 1.42-2.31 2.14-4.17 2.14zm-0.24-9.95c-0.766 0-1.408 0.278-1.928 0.836-0.52 0.557-0.841 1.337-0.964 2.343h5.558v-0.145c-0.055-0.963-0.314-1.71-0.779-2.24-0.46-0.53-1.09-0.8-1.89-0.8z"/>
	<path d="m424.13 164.82c0-0.512-0.193-0.91-0.579-1.195-0.387-0.283-1.06-0.527-2.021-0.732-0.96-0.205-1.723-0.451-2.286-0.738-0.564-0.287-0.981-0.629-1.251-1.025-0.271-0.396-0.405-0.867-0.405-1.415 0-0.909 0.385-1.679 1.153-2.308 0.77-0.629 1.752-0.943 2.948-0.943 1.258 0 2.278 0.325 3.061 0.974 0.783 0.65 1.175 1.48 1.175 2.492h-1.907c0-0.52-0.221-0.967-0.662-1.344-0.44-0.375-0.996-0.563-1.666-0.563-0.69 0-1.23 0.15-1.62 0.451s-0.584 0.694-0.584 1.179c0 0.459 0.181 0.803 0.543 1.036s1.017 0.455 1.964 0.668c0.946 0.211 1.714 0.465 2.302 0.758 0.588 0.295 1.023 0.648 1.308 1.061 0.283 0.414 0.426 0.918 0.426 1.514 0 0.99-0.396 1.785-1.189 2.383-0.793 0.6-1.822 0.898-3.087 0.898-0.889 0-1.675-0.158-2.358-0.473s-1.219-0.754-1.604-1.316c-0.387-0.564-0.579-1.174-0.579-1.83h1.896c0.034 0.635 0.289 1.139 0.764 1.512 0.476 0.373 1.103 0.559 1.882 0.559 0.718 0 1.294-0.145 1.728-0.436 0.44-0.28 0.66-0.66 0.66-1.15z"/>
	<path d="m428 162.11c0-1.086 0.213-2.064 0.641-2.932 0.427-0.868 1.021-1.539 1.784-2.01 0.762-0.473 1.632-0.708 2.609-0.708 1.511 0 2.732 0.522 3.666 1.569 0.933 1.045 1.399 2.436 1.399 4.172v0.135c0 1.08-0.207 2.049-0.62 2.906-0.414 0.857-1.005 1.525-1.774 2.004s-1.652 0.719-2.65 0.719c-1.504 0-2.723-0.523-3.655-1.568-0.934-1.047-1.399-2.432-1.399-4.154v-0.14zm1.9 0.23c0 1.23 0.285 2.217 0.855 2.963 0.571 0.744 1.335 1.117 2.292 1.117 0.964 0 1.729-0.377 2.297-1.133s0.852-1.812 0.852-3.174c0-1.217-0.289-2.203-0.867-2.958-0.577-0.755-1.345-1.133-2.302-1.133-0.937 0-1.691 0.373-2.266 1.118s-0.86 1.8-0.86 3.19z"/>
	<path d="m446.94 164.82c0-0.512-0.193-0.91-0.579-1.195-0.387-0.283-1.06-0.527-2.021-0.732-0.96-0.205-1.723-0.451-2.286-0.738-0.564-0.287-0.981-0.629-1.251-1.025-0.271-0.396-0.405-0.867-0.405-1.415 0-0.909 0.385-1.679 1.153-2.308 0.77-0.629 1.752-0.943 2.948-0.943 1.258 0 2.278 0.325 3.061 0.974 0.783 0.65 1.175 1.48 1.175 2.492h-1.907c0-0.52-0.221-0.967-0.662-1.344-0.44-0.375-0.996-0.563-1.666-0.563-0.69 0-1.23 0.15-1.62 0.451s-0.584 0.694-0.584 1.179c0 0.459 0.181 0.803 0.543 1.036s1.017 0.455 1.964 0.668c0.946 0.211 1.714 0.465 2.302 0.758 0.588 0.295 1.023 0.648 1.308 1.061 0.283 0.414 0.426 0.918 0.426 1.514 0 0.99-0.396 1.785-1.189 2.383-0.793 0.6-1.822 0.898-3.087 0.898-0.889 0-1.675-0.158-2.358-0.473s-1.219-0.754-1.604-1.316c-0.387-0.564-0.579-1.174-0.579-1.83h1.896c0.034 0.635 0.289 1.139 0.764 1.512 0.476 0.373 1.103 0.559 1.882 0.559 0.718 0 1.294-0.145 1.728-0.436 0.43-0.28 0.65-0.66 0.65-1.15z"/>
</g>
<g enable-background="new    " fill="#414141">
	<path d="m327.22 216.92c0-0.629-0.221-1.158-0.661-1.59-0.441-0.43-1.185-0.82-2.23-1.168-1.456-0.445-2.518-1.023-3.184-1.738-0.667-0.715-1-1.621-1-2.723 0-1.121 0.326-2.041 0.979-2.758 0.652-0.719 1.55-1.145 2.691-1.281v-2.246h1.527v2.256c1.148 0.156 2.042 0.639 2.682 1.445 0.639 0.807 0.959 1.91 0.959 3.312h-1.887c0-0.967-0.229-1.736-0.688-2.305s-1.076-0.854-1.855-0.854c-0.813 0-1.436 0.211-1.866 0.631-0.431 0.422-0.646 1.01-0.646 1.762 0 0.699 0.228 1.256 0.683 1.67 0.454 0.414 1.202 0.791 2.245 1.129 1.042 0.34 1.856 0.713 2.44 1.119 0.585 0.406 1.016 0.881 1.292 1.42 0.277 0.541 0.415 1.174 0.415 1.898 0 1.154-0.347 2.084-1.04 2.789-0.694 0.703-1.667 1.119-2.918 1.25v1.959h-1.518v-1.959c-1.271-0.117-2.268-0.568-2.988-1.359-0.722-0.789-1.082-1.859-1.082-3.213h1.896c0 0.949 0.25 1.682 0.749 2.193 0.499 0.514 1.206 0.77 2.122 0.77 0.896 0 1.6-0.215 2.112-0.646 0.53-0.43 0.79-1.02 0.79-1.76z"/>
	<path d="m339.43 212.38h1.426c0.896-0.014 1.6-0.248 2.112-0.707 0.513-0.457 0.769-1.076 0.769-1.855 0-1.75-0.871-2.625-2.614-2.625-0.82 0-1.476 0.234-1.964 0.701-0.489 0.469-0.733 1.09-0.733 1.861h-1.896c0-1.182 0.432-2.164 1.297-2.947 0.864-0.783 1.964-1.174 3.297-1.174 1.408 0 2.512 0.373 3.312 1.117 0.8 0.746 1.2 1.781 1.2 3.107 0 0.648-0.211 1.277-0.631 1.887-0.421 0.607-0.993 1.062-1.718 1.363 0.82 0.26 1.454 0.691 1.902 1.293 0.447 0.602 0.672 1.336 0.672 2.203 0 1.34-0.438 2.404-1.312 3.189-0.875 0.787-2.014 1.18-3.415 1.18s-2.541-0.379-3.42-1.139c-0.878-0.758-1.317-1.76-1.317-3.004h1.907c0 0.785 0.257 1.414 0.77 1.887 0.513 0.471 1.199 0.707 2.061 0.707 0.916 0 1.617-0.238 2.103-0.717s0.728-1.166 0.728-2.062c0-0.867-0.267-1.533-0.8-1.998s-1.302-0.705-2.307-0.719h-1.426v-1.56z"/>
	<path d="m357.83 214.4c0 2.221-0.379 3.871-1.138 4.951s-1.945 1.621-3.559 1.621c-1.593 0-2.771-0.529-3.537-1.584-0.766-1.057-1.162-2.635-1.189-4.732v-2.533c0-2.193 0.379-3.824 1.138-4.891s1.948-1.6 3.568-1.6c1.606 0 2.789 0.514 3.548 1.543s1.148 2.617 1.169 4.764v2.46zm-1.9-2.6c0-1.605-0.226-2.777-0.677-3.512s-1.166-1.102-2.144-1.102c-0.971 0-1.678 0.365-2.122 1.098-0.444 0.73-0.674 1.855-0.688 3.373v3.035c0 1.613 0.234 2.805 0.702 3.572 0.469 0.77 1.178 1.154 2.128 1.154 0.937 0 1.632-0.361 2.087-1.086 0.454-0.725 0.692-1.867 0.713-3.426v-3.1z"/>
	<path d="m360.5 219.77c0-0.328 0.098-0.602 0.292-0.82 0.195-0.219 0.487-0.328 0.877-0.328s0.686 0.109 0.887 0.328c0.202 0.219 0.303 0.492 0.303 0.82 0 0.314-0.101 0.576-0.303 0.789-0.201 0.211-0.497 0.318-0.887 0.318s-0.682-0.107-0.877-0.318c-0.2-0.21-0.29-0.48-0.29-0.79z"/>
	<path d="m375.15 214.4c0 2.221-0.38 3.871-1.139 4.951s-1.944 1.621-3.558 1.621c-1.593 0-2.772-0.529-3.538-1.584-0.766-1.057-1.162-2.635-1.189-4.732v-2.533c0-2.193 0.38-3.824 1.139-4.891s1.948-1.6 3.568-1.6c1.606 0 2.789 0.514 3.548 1.543s1.148 2.617 1.169 4.764v2.46zm-1.9-2.6c0-1.605-0.226-2.777-0.677-3.512s-1.165-1.102-2.143-1.102c-0.971 0-1.679 0.365-2.123 1.098-0.444 0.73-0.673 1.855-0.687 3.373v3.035c0 1.613 0.233 2.805 0.702 3.572 0.468 0.77 1.178 1.154 2.128 1.154 0.937 0 1.632-0.361 2.087-1.086 0.454-0.725 0.691-1.867 0.712-3.426v-3.1z"/>
	<path d="m386.94 214.4c0 2.221-0.38 3.871-1.139 4.951s-1.944 1.621-3.558 1.621c-1.593 0-2.772-0.529-3.538-1.584-0.766-1.057-1.162-2.635-1.189-4.732v-2.533c0-2.193 0.38-3.824 1.139-4.891s1.948-1.6 3.568-1.6c1.606 0 2.789 0.514 3.548 1.543s1.148 2.617 1.169 4.764v2.46zm-1.9-2.6c0-1.605-0.226-2.777-0.677-3.512s-1.165-1.102-2.143-1.102c-0.971 0-1.679 0.365-2.123 1.098-0.444 0.73-0.673 1.855-0.687 3.373v3.035c0 1.613 0.233 2.805 0.702 3.572 0.468 0.77 1.178 1.154 2.128 1.154 0.937 0 1.632-0.361 2.087-1.086 0.454-0.725 0.691-1.867 0.712-3.426v-3.1z"/>
	<path d="m404.14 215.34c0 1.688-0.386 3.049-1.158 4.08-0.772 1.033-1.818 1.549-3.138 1.549-1.347 0-2.406-0.428-3.179-1.281v5.342h-1.897v-15.361h1.733l0.092 1.23c0.772-0.957 1.846-1.436 3.22-1.436 1.333 0 2.388 0.504 3.163 1.508 0.776 1.006 1.164 2.402 1.164 4.193v0.18zm-1.9-0.22c0-1.25-0.267-2.238-0.8-2.963s-1.265-1.086-2.194-1.086c-1.148 0-2.01 0.508-2.584 1.527v5.301c0.567 1.012 1.436 1.518 2.604 1.518 0.909 0 1.632-0.361 2.168-1.082 0.53-0.72 0.8-1.8 0.8-3.22z"/>
	<path d="m411.15 220.97c-1.504 0-2.728-0.494-3.671-1.482s-1.415-2.309-1.415-3.963v-0.348c0-1.102 0.211-2.084 0.631-2.949 0.421-0.865 1.008-1.541 1.764-2.029 0.755-0.49 1.574-0.734 2.456-0.734 1.442 0 2.563 0.477 3.363 1.426 0.8 0.951 1.199 2.311 1.199 4.082v0.789h-7.516c0.027 1.094 0.347 1.977 0.959 2.65 0.611 0.674 1.389 1.01 2.332 1.01 0.67 0 1.237-0.137 1.702-0.41s0.872-0.635 1.221-1.086l1.158 0.902c-0.92 1.42-2.31 2.14-4.17 2.14zm-0.24-9.95c-0.766 0-1.408 0.279-1.928 0.836s-0.841 1.338-0.964 2.344h5.558v-0.145c-0.055-0.963-0.314-1.711-0.779-2.24s-1.09-0.8-1.89-0.8z"/>
	<path d="m424.13 217.82c0-0.512-0.193-0.91-0.579-1.195-0.387-0.283-1.06-0.527-2.021-0.732-0.96-0.205-1.723-0.451-2.286-0.738-0.564-0.287-0.981-0.629-1.251-1.025-0.271-0.396-0.405-0.867-0.405-1.414 0-0.91 0.385-1.68 1.153-2.309 0.77-0.629 1.752-0.943 2.948-0.943 1.258 0 2.278 0.326 3.061 0.975 0.783 0.65 1.175 1.48 1.175 2.492h-1.907c0-0.52-0.221-0.967-0.662-1.344-0.44-0.375-0.996-0.564-1.666-0.564-0.69 0-1.23 0.15-1.62 0.451s-0.584 0.695-0.584 1.18c0 0.459 0.181 0.803 0.543 1.035s1.017 0.455 1.964 0.668c0.946 0.211 1.714 0.465 2.302 0.758 0.588 0.295 1.023 0.648 1.308 1.061 0.283 0.414 0.426 0.918 0.426 1.514 0 0.99-0.396 1.785-1.189 2.383-0.793 0.6-1.822 0.898-3.087 0.898-0.889 0-1.675-0.158-2.358-0.473s-1.219-0.754-1.604-1.316c-0.387-0.564-0.579-1.174-0.579-1.83h1.896c0.034 0.635 0.289 1.139 0.764 1.512 0.476 0.373 1.103 0.559 1.882 0.559 0.718 0 1.294-0.145 1.728-0.436 0.44-0.3 0.66-0.68 0.66-1.17z"/>
	<path d="m428 215.11c0-1.086 0.213-2.064 0.641-2.932 0.427-0.869 1.021-1.539 1.784-2.01 0.762-0.473 1.632-0.709 2.609-0.709 1.511 0 2.732 0.523 3.666 1.57 0.933 1.045 1.399 2.436 1.399 4.172v0.135c0 1.08-0.207 2.049-0.62 2.906-0.414 0.857-1.005 1.525-1.774 2.004s-1.652 0.719-2.65 0.719c-1.504 0-2.723-0.523-3.655-1.568-0.934-1.047-1.399-2.432-1.399-4.154v-0.14zm1.9 0.23c0 1.23 0.285 2.217 0.855 2.963 0.571 0.744 1.335 1.117 2.292 1.117 0.964 0 1.729-0.377 2.297-1.133s0.852-1.812 0.852-3.174c0-1.217-0.289-2.203-0.867-2.959-0.577-0.754-1.345-1.133-2.302-1.133-0.937 0-1.691 0.373-2.266 1.119-0.57 0.73-0.86 1.8-0.86 3.19z"/>
	<path d="m446.94 217.82c0-0.512-0.193-0.91-0.579-1.195-0.387-0.283-1.06-0.527-2.021-0.732-0.96-0.205-1.723-0.451-2.286-0.738-0.564-0.287-0.981-0.629-1.251-1.025-0.271-0.396-0.405-0.867-0.405-1.414 0-0.91 0.385-1.68 1.153-2.309 0.77-0.629 1.752-0.943 2.948-0.943 1.258 0 2.278 0.326 3.061 0.975 0.783 0.65 1.175 1.48 1.175 2.492h-1.907c0-0.52-0.221-0.967-0.662-1.344-0.44-0.375-0.996-0.564-1.666-0.564-0.69 0-1.23 0.15-1.62 0.451s-0.584 0.695-0.584 1.18c0 0.459 0.181 0.803 0.543 1.035s1.017 0.455 1.964 0.668c0.946 0.211 1.714 0.465 2.302 0.758 0.588 0.295 1.023 0.648 1.308 1.061 0.283 0.414 0.426 0.918 0.426 1.514 0 0.99-0.396 1.785-1.189 2.383-0.793 0.6-1.822 0.898-3.087 0.898-0.889 0-1.675-0.158-2.358-0.473s-1.219-0.754-1.604-1.316c-0.387-0.564-0.579-1.174-0.579-1.83h1.896c0.034 0.635 0.289 1.139 0.764 1.512 0.476 0.373 1.103 0.559 1.882 0.559 0.718 0 1.294-0.145 1.728-0.436 0.43-0.3 0.65-0.68 0.65-1.17z"/>
	<path d="m460.95 219.42c0.677 0 1.268-0.205 1.773-0.615s0.786-0.922 0.841-1.537h1.795c-0.034 0.635-0.253 1.24-0.656 1.814s-0.942 1.031-1.615 1.373c-0.674 0.342-1.386 0.514-2.138 0.514-1.511 0-2.712-0.504-3.604-1.514-0.892-1.008-1.338-2.387-1.338-4.137v-0.3c0-1.08 0.198-2.039 0.595-2.881 0.396-0.84 0.965-1.494 1.707-1.959 0.741-0.465 1.618-0.697 2.63-0.697 1.244 0 2.278 0.373 3.103 1.119 0.823 0.744 1.263 1.711 1.317 2.9h-1.795c-0.055-0.717-0.326-1.307-0.814-1.768-0.489-0.463-1.093-0.693-1.811-0.693-0.964 0-1.711 0.348-2.24 1.041-0.53 0.693-0.795 1.697-0.795 3.01v0.359c0 1.277 0.264 2.262 0.79 2.953 0.53 0.69 1.29 1.04 2.26 1.04z"/>
	<path d="m474.34 220.76c-0.109-0.219-0.198-0.609-0.267-1.17-0.882 0.916-1.935 1.375-3.158 1.375-1.094 0-1.991-0.311-2.691-0.928-0.701-0.619-1.052-1.404-1.052-2.354 0-1.156 0.439-2.053 1.318-2.691 0.878-0.641 2.113-0.959 3.706-0.959h1.846v-0.871c0-0.664-0.198-1.191-0.595-1.586-0.396-0.393-0.98-0.588-1.753-0.588-0.677 0-1.244 0.17-1.702 0.512s-0.688 0.756-0.688 1.24h-1.907c0-0.553 0.196-1.088 0.59-1.604 0.393-0.518 0.926-0.926 1.6-1.227 0.673-0.301 1.413-0.451 2.22-0.451 1.278 0 2.28 0.32 3.005 0.959s1.101 1.52 1.128 2.641v5.107c0 1.018 0.13 1.828 0.39 2.43v0.164h-2zm-3.14-1.44c0.595 0 1.159-0.154 1.692-0.463 0.533-0.307 0.919-0.707 1.158-1.199v-2.275h-1.486c-2.324 0-3.486 0.68-3.486 2.039 0 0.596 0.198 1.061 0.595 1.395 0.4 0.33 0.91 0.5 1.54 0.5z"/>
	<path d="m478.46 215.12c0-1.701 0.403-3.07 1.21-4.105 0.807-1.037 1.863-1.555 3.169-1.555 1.299 0 2.327 0.445 3.086 1.334v-5.783h1.897v15.75h-1.743l-0.093-1.189c-0.759 0.93-1.814 1.395-3.168 1.395-1.285 0-2.333-0.527-3.143-1.58-0.811-1.053-1.216-2.426-1.216-4.121v-0.14zm1.89 0.22c0 1.258 0.26 2.242 0.779 2.953s1.237 1.066 2.153 1.066c1.203 0 2.081-0.541 2.635-1.621v-5.096c-0.567-1.047-1.438-1.568-2.614-1.568-0.93 0-1.654 0.357-2.174 1.076-0.53 0.72-0.79 1.78-0.79 3.19z"/>
	<path d="m497.61 220.76c-0.109-0.219-0.198-0.609-0.267-1.17-0.882 0.916-1.935 1.375-3.158 1.375-1.094 0-1.991-0.311-2.691-0.928-0.701-0.619-1.051-1.404-1.051-2.354 0-1.156 0.438-2.053 1.317-2.691 0.878-0.641 2.114-0.959 3.707-0.959h1.846v-0.871c0-0.664-0.198-1.191-0.595-1.586-0.396-0.393-0.981-0.588-1.754-0.588-0.677 0-1.244 0.17-1.702 0.512s-0.687 0.756-0.687 1.24h-1.907c0-0.553 0.196-1.088 0.589-1.604 0.394-0.518 0.927-0.926 1.6-1.227 0.674-0.301 1.414-0.451 2.221-0.451 1.278 0 2.279 0.32 3.004 0.959s1.101 1.52 1.128 2.641v5.107c0 1.018 0.13 1.828 0.39 2.43v0.164h-1.99zm-3.15-1.44c0.595 0 1.158-0.154 1.691-0.463 0.533-0.307 0.92-0.707 1.159-1.199v-2.275h-1.487c-2.324 0-3.486 0.68-3.486 2.039 0 0.596 0.198 1.061 0.595 1.395 0.41 0.33 0.92 0.5 1.54 0.5z"/>
</g>
<g enable-background="new    " fill="#414141">
	<path d="m321.66 234.87l0.051 1.23c0.813-0.957 1.911-1.436 3.292-1.436 1.552 0 2.607 0.595 3.168 1.784 0.369-0.533 0.85-0.964 1.441-1.292s1.29-0.492 2.097-0.492c2.434 0 3.671 1.289 3.712 3.866v7.434h-1.897v-7.321c0-0.793-0.181-1.386-0.543-1.779s-0.971-0.589-1.825-0.589c-0.704 0-1.289 0.21-1.754 0.63-0.465 0.421-0.734 0.986-0.81 1.697v7.362h-1.907v-7.27c0-1.613-0.79-2.42-2.369-2.42-1.244 0-2.095 0.529-2.553 1.589v8.101h-1.897v-11.095h1.79z"/>
	<path d="m342.89 246.17c-1.504 0-2.728-0.494-3.671-1.481-0.943-0.988-1.415-2.309-1.415-3.964v-0.348c0-1.101 0.21-2.084 0.63-2.948 0.421-0.865 1.009-1.542 1.764-2.03 0.756-0.489 1.574-0.733 2.456-0.733 1.442 0 2.563 0.476 3.363 1.425 0.8 0.951 1.2 2.312 1.2 4.082v0.789h-7.51c0.027 1.094 0.347 1.978 0.959 2.65 0.611 0.674 1.39 1.01 2.333 1.01 0.67 0 1.237-0.136 1.702-0.41 0.465-0.272 0.871-0.635 1.22-1.086l1.159 0.902c-0.93 1.42-2.32 2.14-4.18 2.14zm-0.24-9.95c-0.766 0-1.408 0.278-1.928 0.836-0.52 0.557-0.841 1.338-0.964 2.343h5.558v-0.144c-0.055-0.964-0.314-1.711-0.779-2.24-0.46-0.53-1.09-0.8-1.89-0.8z"/>
	<path d="m348.95 240.32c0-1.702 0.403-3.071 1.21-4.106 0.807-1.036 1.863-1.554 3.169-1.554 1.299 0 2.327 0.444 3.086 1.333v-5.783h1.897v15.75h-1.743l-0.093-1.189c-0.759 0.93-1.814 1.395-3.168 1.395-1.285 0-2.333-0.526-3.143-1.579-0.811-1.053-1.216-2.427-1.216-4.122v-0.14zm1.9 0.22c0 1.258 0.26 2.242 0.779 2.953s1.237 1.066 2.153 1.066c1.203 0 2.081-0.54 2.635-1.621v-5.096c-0.567-1.046-1.438-1.568-2.614-1.568-0.93 0-1.654 0.358-2.174 1.076s-0.79 1.78-0.79 3.19z"/>
	<path d="m361.26 231.93c0-0.309 0.094-0.567 0.281-0.779 0.188-0.212 0.467-0.318 0.836-0.318s0.649 0.106 0.841 0.318 0.287 0.471 0.287 0.779c0 0.307-0.096 0.563-0.287 0.769s-0.472 0.308-0.841 0.308-0.647-0.103-0.836-0.308c-0.18-0.21-0.28-0.47-0.28-0.77zm2.06 14.03h-1.897v-11.095h1.897v11.1z"/>
	<path d="m373.2 245.96c-0.109-0.219-0.198-0.608-0.267-1.169-0.882 0.916-1.935 1.374-3.158 1.374-1.094 0-1.991-0.31-2.691-0.928-0.701-0.619-1.052-1.403-1.052-2.354 0-1.155 0.439-2.053 1.318-2.691 0.878-0.64 2.113-0.959 3.706-0.959h1.846v-0.871c0-0.663-0.198-1.191-0.595-1.585-0.396-0.393-0.98-0.589-1.753-0.589-0.677 0-1.244 0.171-1.702 0.512-0.458 0.343-0.688 0.756-0.688 1.241h-1.907c0-0.554 0.196-1.089 0.59-1.604 0.393-0.517 0.926-0.925 1.6-1.226 0.673-0.301 1.413-0.451 2.22-0.451 1.278 0 2.28 0.319 3.005 0.959 0.725 0.639 1.101 1.52 1.128 2.64v5.107c0 1.019 0.13 1.828 0.39 2.43v0.164h-2zm-3.15-1.44c0.595 0 1.159-0.154 1.692-0.462s0.919-0.708 1.158-1.2v-2.275h-1.486c-2.324 0-3.486 0.68-3.486 2.04 0 0.595 0.198 1.06 0.595 1.395s0.91 0.5 1.53 0.5z"/>
	<path d="m384.87 236.21c0.841-1.031 1.935-1.548 3.281-1.548 2.345 0 3.527 1.323 3.548 3.968v7.332h-1.897v-7.342c-0.007-0.8-0.189-1.391-0.549-1.773-0.358-0.383-0.917-0.574-1.676-0.574-0.615 0-1.155 0.164-1.62 0.492s-0.827 0.758-1.087 1.291v7.906h-1.897v-15.75h1.897v5.99z"/>
	<path d="m394.04 240.31c0-1.086 0.213-2.063 0.641-2.932 0.427-0.868 1.021-1.539 1.784-2.01 0.762-0.473 1.632-0.708 2.609-0.708 1.511 0 2.732 0.522 3.666 1.569 0.933 1.045 1.399 2.437 1.399 4.173v0.134c0 1.08-0.207 2.049-0.62 2.906-0.414 0.858-1.005 1.526-1.774 2.005s-1.652 0.718-2.65 0.718c-1.504 0-2.723-0.523-3.655-1.568-0.934-1.047-1.399-2.431-1.399-4.153v-0.13zm1.9 0.23c0 1.23 0.285 2.218 0.855 2.963 0.571 0.745 1.335 1.117 2.292 1.117 0.964 0 1.729-0.377 2.297-1.133 0.567-0.755 0.852-1.812 0.852-3.174 0-1.216-0.289-2.202-0.867-2.958-0.577-0.755-1.345-1.133-2.302-1.133-0.937 0-1.691 0.373-2.266 1.118s-0.86 1.8-0.86 3.19z"/>
	<path d="m411.88 236.57c-0.287-0.048-0.599-0.072-0.934-0.072-1.244 0-2.088 0.53-2.532 1.59v7.875h-1.897v-11.095h1.846l0.031 1.282c0.622-0.991 1.504-1.487 2.646-1.487 0.369 0 0.649 0.048 0.841 0.144v1.78z"/>
	<path d="m420.06 245.96c-0.109-0.219-0.198-0.608-0.267-1.169-0.882 0.916-1.935 1.374-3.158 1.374-1.094 0-1.991-0.31-2.691-0.928-0.701-0.619-1.052-1.403-1.052-2.354 0-1.155 0.439-2.053 1.318-2.691 0.878-0.64 2.113-0.959 3.706-0.959h1.846v-0.871c0-0.663-0.198-1.191-0.595-1.585-0.396-0.393-0.98-0.589-1.753-0.589-0.677 0-1.244 0.171-1.702 0.512-0.458 0.343-0.688 0.756-0.688 1.241h-1.907c0-0.554 0.196-1.089 0.59-1.604 0.393-0.517 0.926-0.925 1.6-1.226 0.673-0.301 1.413-0.451 2.22-0.451 1.278 0 2.28 0.319 3.005 0.959 0.725 0.639 1.101 1.52 1.128 2.64v5.107c0 1.019 0.13 1.828 0.39 2.43v0.164h-2zm-3.15-1.44c0.595 0 1.159-0.154 1.692-0.462s0.919-0.708 1.158-1.2v-2.275h-1.486c-2.324 0-3.486 0.68-3.486 2.04 0 0.595 0.198 1.06 0.595 1.395s0.91 0.5 1.53 0.5z"/>
	<path d="m436.68 245.96c-0.109-0.219-0.198-0.608-0.267-1.169-0.882 0.916-1.935 1.374-3.158 1.374-1.094 0-1.991-0.31-2.691-0.928-0.701-0.619-1.051-1.403-1.051-2.354 0-1.155 0.438-2.053 1.317-2.691 0.878-0.64 2.114-0.959 3.707-0.959h1.846v-0.871c0-0.663-0.198-1.191-0.595-1.585-0.396-0.393-0.981-0.589-1.754-0.589-0.677 0-1.244 0.171-1.702 0.512-0.458 0.343-0.687 0.756-0.687 1.241h-1.907c0-0.554 0.196-1.089 0.589-1.604 0.394-0.517 0.927-0.925 1.6-1.226 0.674-0.301 1.414-0.451 2.221-0.451 1.278 0 2.279 0.319 3.004 0.959 0.725 0.639 1.101 1.52 1.128 2.64v5.107c0 1.019 0.13 1.828 0.39 2.43v0.164h-2zm-3.15-1.44c0.595 0 1.158-0.154 1.691-0.462s0.92-0.708 1.159-1.2v-2.275h-1.487c-2.324 0-3.486 0.68-3.486 2.04 0 0.595 0.198 1.06 0.595 1.395s0.91 0.5 1.53 0.5z"/>
	<path d="m440.79 240.32c0-1.702 0.403-3.071 1.21-4.106 0.807-1.036 1.862-1.554 3.168-1.554 1.299 0 2.328 0.444 3.087 1.333v-5.783h1.896v15.75h-1.743l-0.092-1.189c-0.759 0.93-1.815 1.395-3.169 1.395-1.285 0-2.333-0.526-3.143-1.579-0.811-1.053-1.215-2.427-1.215-4.122v-0.14zm1.9 0.22c0 1.258 0.26 2.242 0.779 2.953s1.237 1.066 2.153 1.066c1.203 0 2.082-0.54 2.636-1.621v-5.096c-0.567-1.046-1.439-1.568-2.615-1.568-0.93 0-1.654 0.358-2.174 1.076s-0.78 1.78-0.78 3.19z"/>
	<path d="m453.11 231.93c0-0.309 0.094-0.567 0.282-0.779s0.467-0.318 0.836-0.318 0.649 0.106 0.841 0.318 0.287 0.471 0.287 0.779c0 0.307-0.096 0.563-0.287 0.769s-0.472 0.308-0.841 0.308-0.648-0.103-0.836-0.308c-0.19-0.21-0.28-0.47-0.28-0.77zm2.05 14.03h-1.896v-11.095h1.896v11.1z"/>
	<path d="m462.64 244.62c0.677 0 1.269-0.205 1.774-0.615s0.786-0.922 0.841-1.537h1.794c-0.034 0.635-0.253 1.24-0.656 1.814s-0.941 1.032-1.615 1.374c-0.673 0.342-1.386 0.513-2.138 0.513-1.511 0-2.712-0.504-3.604-1.513-0.892-1.008-1.338-2.387-1.338-4.138v-0.3c0-1.08 0.198-2.04 0.595-2.882 0.396-0.84 0.966-1.493 1.707-1.958 0.742-0.465 1.619-0.697 2.631-0.697 1.244 0 2.277 0.373 3.102 1.118 0.823 0.745 1.263 1.712 1.317 2.901h-1.794c-0.055-0.718-0.327-1.308-0.815-1.769-0.489-0.462-1.092-0.692-1.81-0.692-0.964 0-1.711 0.347-2.241 1.041-0.529 0.693-0.794 1.696-0.794 3.009v0.359c0 1.278 0.263 2.263 0.789 2.953s1.28 1.04 2.25 1.04z"/>
	<path d="m469.2 231.93c0-0.309 0.094-0.567 0.281-0.779 0.188-0.212 0.467-0.318 0.836-0.318s0.649 0.106 0.841 0.318 0.287 0.471 0.287 0.779c0 0.307-0.096 0.563-0.287 0.769s-0.472 0.308-0.841 0.308-0.647-0.103-0.836-0.308c-0.19-0.21-0.28-0.47-0.28-0.77zm2.05 14.03h-1.897v-11.095h1.897v11.1z"/>
	<path d="m473.78 240.31c0-1.086 0.214-2.063 0.642-2.932 0.427-0.868 1.021-1.539 1.784-2.01 0.762-0.473 1.632-0.708 2.609-0.708 1.511 0 2.732 0.522 3.666 1.569 0.933 1.045 1.399 2.437 1.399 4.173v0.134c0 1.08-0.207 2.049-0.62 2.906-0.414 0.858-1.005 1.526-1.774 2.005s-1.652 0.718-2.65 0.718c-1.504 0-2.723-0.523-3.655-1.568-0.934-1.047-1.4-2.431-1.4-4.153v-0.13zm1.91 0.23c0 1.23 0.285 2.218 0.856 2.963 0.57 0.745 1.335 1.117 2.292 1.117 0.964 0 1.729-0.377 2.297-1.133 0.567-0.755 0.851-1.812 0.851-3.174 0-1.216-0.289-2.202-0.866-2.958-0.578-0.755-1.345-1.133-2.302-1.133-0.937 0-1.692 0.373-2.267 1.118s-0.86 1.8-0.86 3.19z"/>
	<path d="m488.05 234.87l0.062 1.395c0.848-1.066 1.955-1.6 3.322-1.6 2.345 0 3.527 1.323 3.548 3.968v7.332h-1.896v-7.342c-0.007-0.8-0.189-1.391-0.549-1.773-0.358-0.383-0.918-0.574-1.677-0.574-0.615 0-1.155 0.164-1.62 0.492s-0.827 0.758-1.087 1.291v7.906h-1.896v-11.095h1.81z"/>
	<path d="m504.7 245.96c-0.109-0.219-0.198-0.608-0.267-1.169-0.882 0.916-1.935 1.374-3.158 1.374-1.094 0-1.991-0.31-2.691-0.928-0.701-0.619-1.052-1.403-1.052-2.354 0-1.155 0.439-2.053 1.318-2.691 0.878-0.64 2.113-0.959 3.706-0.959h1.846v-0.871c0-0.663-0.198-1.191-0.595-1.585-0.396-0.393-0.98-0.589-1.753-0.589-0.677 0-1.244 0.171-1.702 0.512-0.458 0.343-0.688 0.756-0.688 1.241h-1.907c0-0.554 0.196-1.089 0.59-1.604 0.393-0.517 0.926-0.925 1.6-1.226 0.673-0.301 1.413-0.451 2.22-0.451 1.278 0 2.28 0.319 3.005 0.959 0.725 0.639 1.101 1.52 1.128 2.64v5.107c0 1.019 0.13 1.828 0.39 2.43v0.164h-2zm-3.15-1.44c0.595 0 1.159-0.154 1.692-0.462s0.919-0.708 1.158-1.2v-2.275h-1.486c-2.324 0-3.486 0.68-3.486 2.04 0 0.595 0.198 1.06 0.595 1.395s0.91 0.5 1.53 0.5z"/>
</g>
<g enable-background="new    ">
	<path d="m511.74 245.96h-1.897v-15.75h1.897v15.75z" fill="#414141"/>
</g>
			<path d="m40.04 24.308c-1.12-0.175-2.136 0.682-2.136 1.816 0 0.913 0.672 1.676 1.574 1.818 5.058 0.794 8.884 5.353 8.51 10.709-0.348 4.98-4.382 9.014-9.362 9.362-5.9 0.412-10.832-4.271-10.832-10.084 0-1.015-0.823-1.838-1.838-1.838s-1.838 0.823-1.838 1.838c0 7.952 6.767 14.352 14.845 13.746 6.74-0.506 12.181-5.948 12.687-12.688 0.551-7.34-4.684-13.597-11.61-14.679zm-14.083 14.54c-0.508 0-0.919-0.412-0.919-0.919s0.411-0.919 0.919-0.919c0.508 0 0.919 0.412 0.919 0.919s-0.412 0.919-0.919 0.919zm17.462 1.152h-6.127c-0.587 0-1.138-0.22-1.484-0.693l-4.972-6.451c-0.599-0.82-1.367-1.325 0.164-2.544v0.003c0.344-0.487 2.205-0.419 2.804 0.401l3.753 4.752c0.346 0.474 1.015 0.532 1.601 0.532h4.26c1.016 0 1.582 1.244 1.582 2.259v-0.012c0 1.015-0.566 1.753-1.581 1.753z" fill="#fff"/>
<g enable-background="new    " fill="#fff">
	<path d="m363.48 40.552c-0.116 1.606-0.71 2.871-1.779 3.793-1.07 0.924-2.479 1.385-4.229 1.385-1.914 0-3.42-0.645-4.518-1.933-1.097-1.289-1.646-3.058-1.646-5.307v-0.913c0-1.436 0.253-2.699 0.759-3.793s1.229-1.934 2.169-2.518c0.939-0.585 2.032-0.877 3.276-0.877 1.723 0 3.11 0.461 4.163 1.385 1.053 0.922 1.661 2.218 1.825 3.886h-3.076c-0.075-0.964-0.344-1.663-0.806-2.097-0.461-0.435-1.163-0.651-2.106-0.651-1.025 0-1.793 0.367-2.303 1.103-0.509 0.734-0.771 1.875-0.784 3.42v1.127c0 1.614 0.244 2.793 0.733 3.538 0.488 0.745 1.26 1.118 2.312 1.118 0.95 0 1.659-0.218 2.127-0.651 0.469-0.435 0.737-1.105 0.806-2.015h3.08z"/>
	<path d="m371.73 45.524c-0.137-0.267-0.235-0.598-0.297-0.994-0.718 0.799-1.651 1.199-2.8 1.199-1.087 0-1.987-0.314-2.702-0.943-0.714-0.629-1.071-1.422-1.071-2.379 0-1.176 0.436-2.078 1.308-2.707 0.871-0.629 2.131-0.946 3.778-0.953h1.364v-0.637c0-0.512-0.132-0.922-0.396-1.23-0.263-0.307-0.678-0.461-1.245-0.461-0.499 0-0.891 0.12-1.175 0.359-0.283 0.239-0.425 0.567-0.425 0.984h-2.964c0-0.643 0.198-1.237 0.595-1.785 0.396-0.546 0.957-0.976 1.682-1.286 0.725-0.312 1.538-0.467 2.44-0.467 1.367 0 2.452 0.344 3.256 1.03 0.803 0.688 1.205 1.653 1.205 2.896v4.81c0.007 1.053 0.153 1.85 0.44 2.39v0.174h-2.99zm-2.45-2.06c0.438 0 0.841-0.098 1.21-0.293 0.369-0.194 0.643-0.456 0.82-0.784v-1.907h-1.107c-1.483 0-2.273 0.513-2.369 1.538l-0.01 0.175c0 0.369 0.13 0.673 0.39 0.912s0.62 0.359 1.07 0.359z"/>
	<path d="m382.8 37.208c-0.403-0.054-0.759-0.082-1.066-0.082-1.121 0-1.856 0.38-2.205 1.139v7.26h-2.963v-11.095h2.799l0.082 1.323c0.595-1.019 1.419-1.528 2.472-1.528 0.328 0 0.636 0.045 0.923 0.134l-0.03 2.849z"/>
	<path d="m383.6 39.896c0-1.703 0.404-3.073 1.215-4.112 0.81-1.039 1.902-1.559 3.276-1.559 1.217 0 2.163 0.417 2.84 1.251l0.123-1.046h2.687v10.726c0 0.971-0.221 1.814-0.661 2.533-0.441 0.717-1.062 1.264-1.861 1.641-0.8 0.375-1.736 0.563-2.81 0.563-0.813 0-1.606-0.162-2.379-0.487-0.772-0.324-1.356-0.743-1.753-1.256l1.312-1.805c0.738 0.827 1.634 1.24 2.687 1.24 0.786 0 1.397-0.21 1.835-0.63 0.438-0.421 0.656-1.018 0.656-1.79v-0.594c-0.684 0.772-1.582 1.158-2.696 1.158-1.333 0-2.412-0.521-3.235-1.563-0.824-1.043-1.235-2.425-1.235-4.147v-0.123zm2.96 0.209c0 1.01 0.202 1.802 0.605 2.375s0.957 0.86 1.661 0.86c0.902 0 1.548-0.34 1.938-1.021v-4.687c-0.396-0.68-1.035-1.02-1.917-1.02-0.711 0-1.271 0.291-1.677 0.875-0.4 0.586-0.6 1.458-0.6 2.618z"/>
	<path d="m395.56 39.874c0-1.1 0.212-2.081 0.636-2.942s1.033-1.528 1.83-1.999c0.796-0.473 1.721-0.708 2.773-0.708 1.497 0 2.719 0.458 3.666 1.374 0.946 0.916 1.475 2.16 1.584 3.732l0.021 0.759c0 1.702-0.475 3.067-1.425 4.097-0.95 1.028-2.226 1.543-3.825 1.543s-2.876-0.513-3.829-1.538c-0.954-1.025-1.431-2.42-1.431-4.184v-0.134zm2.96 0.211c0 1.055 0.198 1.86 0.595 2.418 0.396 0.559 0.964 0.838 1.702 0.838 0.718 0 1.278-0.276 1.682-0.827s0.605-1.433 0.605-2.645c0-1.033-0.202-1.835-0.605-2.403-0.403-0.567-0.971-0.852-1.702-0.852-0.725 0-1.285 0.282-1.682 0.847-0.4 0.565-0.6 1.439-0.6 2.624z"/>
	<path d="m419.55 45.524c-0.137-0.267-0.236-0.598-0.298-0.994-0.718 0.799-1.65 1.199-2.799 1.199-1.087 0-1.988-0.314-2.702-0.943-0.715-0.629-1.071-1.422-1.071-2.379 0-1.176 0.436-2.078 1.308-2.707 0.871-0.629 2.131-0.946 3.778-0.953h1.363v-0.637c0-0.512-0.132-0.922-0.395-1.23-0.264-0.307-0.679-0.461-1.246-0.461-0.499 0-0.891 0.12-1.174 0.359-0.284 0.239-0.426 0.567-0.426 0.984h-2.963c0-0.643 0.198-1.237 0.595-1.785 0.396-0.546 0.957-0.976 1.682-1.286 0.725-0.312 1.538-0.467 2.44-0.467 1.367 0 2.452 0.344 3.256 1.03 0.803 0.688 1.204 1.653 1.204 2.896v4.81c0.007 1.053 0.154 1.85 0.441 2.39v0.174h-2.99zm-2.45-2.06c0.438 0 0.841-0.098 1.21-0.293 0.369-0.194 0.643-0.456 0.82-0.784v-1.907h-1.107c-1.483 0-2.272 0.513-2.368 1.538l-0.011 0.175c0 0.369 0.13 0.673 0.39 0.912s0.62 0.359 1.07 0.359z"/>
	<path d="m423.92 39.896c0-1.729 0.388-3.107 1.164-4.133 0.775-1.025 1.837-1.538 3.184-1.538 1.08 0 1.972 0.403 2.676 1.21v-5.66h2.974v15.75h-2.676l-0.144-1.18c-0.738 0.924-1.688 1.385-2.851 1.385-1.306 0-2.354-0.515-3.143-1.543-0.79-1.03-1.18-2.459-1.18-4.291zm2.96 0.209c0 1.044 0.182 1.844 0.544 2.4s0.889 0.835 1.579 0.835c0.916 0 1.562-0.389 1.938-1.164v-4.399c-0.369-0.775-1.008-1.163-1.917-1.163-1.42 0-2.14 1.164-2.14 3.491z"/>
	<path d="m436.19 31.559c0-0.444 0.149-0.81 0.446-1.097 0.298-0.287 0.702-0.432 1.215-0.432 0.506 0 0.909 0.145 1.21 0.432s0.451 0.652 0.451 1.097c0 0.451-0.152 0.82-0.456 1.107-0.305 0.287-0.706 0.431-1.205 0.431s-0.9-0.144-1.204-0.431c-0.32-0.287-0.47-0.656-0.47-1.107zm3.15 13.965h-2.974v-11.094h2.974v11.094z"/>
	<path d="m446.39 43.341c0.547 0 0.991-0.15 1.333-0.451s0.52-0.701 0.533-1.2h2.778c-0.007 0.752-0.212 1.44-0.615 2.066-0.403 0.625-0.955 1.11-1.656 1.456-0.7 0.345-1.475 0.518-2.322 0.518-1.586 0-2.837-0.504-3.753-1.513-0.916-1.008-1.374-2.4-1.374-4.179v-0.194c0-1.709 0.455-3.072 1.364-4.091s2.156-1.528 3.742-1.528c1.388 0 2.5 0.395 3.338 1.185 0.837 0.789 1.263 1.84 1.276 3.152h-2.778c-0.014-0.576-0.191-1.046-0.533-1.406-0.342-0.361-0.793-0.541-1.354-0.541-0.69 0-1.212 0.251-1.564 0.754-0.352 0.504-0.527 1.32-0.527 2.449v0.309c0 1.144 0.174 1.965 0.522 2.465s0.87 0.749 1.58 0.749z"/>
	<path d="m452.71 31.559c0-0.444 0.148-0.81 0.445-1.097 0.298-0.287 0.703-0.432 1.216-0.432 0.506 0 0.909 0.145 1.21 0.432s0.451 0.652 0.451 1.097c0 0.451-0.152 0.82-0.457 1.107-0.304 0.287-0.705 0.431-1.204 0.431s-0.901-0.144-1.205-0.431c-0.32-0.287-0.47-0.656-0.47-1.107zm3.15 13.965h-2.974v-11.094h2.974v11.094z"/>
	<path d="m457.84 39.874c0-1.1 0.212-2.081 0.636-2.942s1.033-1.528 1.83-1.999c0.796-0.473 1.721-0.708 2.773-0.708 1.497 0 2.719 0.458 3.666 1.374 0.946 0.916 1.475 2.16 1.584 3.732l0.021 0.759c0 1.702-0.475 3.067-1.425 4.097-0.95 1.028-2.226 1.543-3.825 1.543s-2.876-0.513-3.829-1.538c-0.954-1.025-1.431-2.42-1.431-4.184v-0.134zm2.96 0.211c0 1.055 0.198 1.86 0.595 2.418 0.396 0.559 0.964 0.838 1.702 0.838 0.718 0 1.278-0.276 1.682-0.827s0.605-1.433 0.605-2.645c0-1.033-0.202-1.835-0.605-2.403-0.403-0.567-0.971-0.852-1.702-0.852-0.725 0-1.285 0.282-1.682 0.847-0.4 0.565-0.6 1.439-0.6 2.624z"/>
	<path d="m472.9 34.43l0.093 1.282c0.793-0.991 1.855-1.487 3.188-1.487 1.176 0 2.051 0.346 2.625 1.036s0.868 1.723 0.882 3.096v7.168h-2.963v-7.112c0-0.63-0.137-1.088-0.41-1.372s-0.729-0.426-1.364-0.426c-0.834 0-1.459 0.355-1.876 1.068v7.842h-2.964v-11.095h2.79z"/>
	<path d="m488.36 45.524c-0.137-0.267-0.235-0.598-0.297-0.994-0.718 0.799-1.651 1.199-2.8 1.199-1.087 0-1.987-0.314-2.702-0.943-0.714-0.629-1.071-1.422-1.071-2.379 0-1.176 0.436-2.078 1.308-2.707 0.871-0.629 2.131-0.946 3.778-0.953h1.364v-0.637c0-0.512-0.132-0.922-0.396-1.23-0.263-0.307-0.678-0.461-1.245-0.461-0.499 0-0.891 0.12-1.175 0.359-0.283 0.239-0.425 0.567-0.425 0.984h-2.964c0-0.643 0.198-1.237 0.595-1.785 0.396-0.546 0.957-0.976 1.682-1.286 0.725-0.312 1.538-0.467 2.44-0.467 1.367 0 2.452 0.344 3.256 1.03 0.803 0.688 1.205 1.653 1.205 2.896v4.81c0.007 1.053 0.153 1.85 0.44 2.39v0.174h-3zm-2.45-2.06c0.438 0 0.841-0.098 1.21-0.293 0.369-0.194 0.643-0.456 0.82-0.784v-1.907h-1.107c-1.483 0-2.273 0.513-2.369 1.538l-0.01 0.175c0 0.369 0.13 0.673 0.39 0.912s0.62 0.359 1.07 0.359z"/>
	<path d="m496.32 45.524h-2.974v-15.75h2.974v15.75z"/>
</g>
<g enable-background="new    ">
	<path d="m331.56 44.356c0-0.907-0.252-1.63-0.755-2.167-0.504-0.536-1.359-1.031-2.565-1.485s-2.247-0.905-3.121-1.353c-0.874-0.449-1.624-0.963-2.249-1.545-0.626-0.58-1.112-1.264-1.461-2.05s-0.523-1.721-0.523-2.806c0-1.87 0.598-3.403 1.793-4.599s2.783-1.893 4.765-2.092v-3.553h2.656v3.603c1.959 0.276 3.492 1.093 4.599 2.449 1.106 1.355 1.66 3.112 1.66 5.271h-4.798c0-1.328-0.273-2.321-0.821-2.979-0.548-0.659-1.281-0.988-2.2-0.988-0.907 0-1.61 0.258-2.108 0.771-0.498 0.516-0.747 1.227-0.747 2.134 0 0.841 0.243 1.517 0.73 2.025s1.392 1.029 2.715 1.561c1.322 0.531 2.409 1.032 3.262 1.503 0.853 0.47 1.571 1.001 2.158 1.594 0.587 0.592 1.035 1.267 1.345 2.025s0.465 1.641 0.465 2.647c0 1.882-0.587 3.409-1.76 4.582s-2.789 1.865-4.848 2.075v3.304h-2.64v-3.287c-2.269-0.243-4.025-1.049-5.271-2.415-1.245-1.367-1.868-3.186-1.868-5.454h4.798c0 1.317 0.312 2.327 0.938 3.03 0.625 0.702 1.524 1.054 2.697 1.054 0.974 0 1.743-0.257 2.308-0.772 0.58-0.513 0.86-1.209 0.86-2.083z" fill="#fff"/>
</g>
</svg>
