<?xml version="1.0" encoding="utf-8"?>
<!-- Generator: Adobe Illustrator 17.0.0, SVG Export Plug-In . SVG Version: 6.00 Build 0)  -->
<!DOCTYPE svg PUBLIC "-//W3C//DTD SVG 1.1//EN" "http://www.w3.org/Graphics/SVG/1.1/DTD/svg11.dtd">
<svg version="1.1" id="Capa_1" xmlns="http://www.w3.org/2000/svg" xmlns:xlink="http://www.w3.org/1999/xlink" x="0px" y="0px"
	 width="493.283px" height="54px" viewBox="0 265 493.283 54" enable-background="new 0 265 493.283 54" xml:space="preserve">
<rect x="1.452" y="265" fill="#10AF9D" width="491.831" height="54"/>
<g>
	<g enable-background="new    ">
		<path fill="#FFFFFF" d="M127.919,288.869c0,0.392-0.135,0.712-0.404,0.964c-0.27,0.251-0.609,0.376-1.02,0.376
			s-0.75-0.125-1.02-0.376c-0.27-0.252-0.404-0.572-0.404-0.964s0.13-0.713,0.391-0.964s0.605-0.377,1.033-0.377
			s0.772,0.126,1.033,0.377S127.919,288.478,127.919,288.869z M125.44,291.58h2.118l0.29,8.868h-2.698L125.44,291.58z"/>
		<path fill="#FFFFFF" d="M137.868,291.642h-5.062v3.445h5.941v2.118h-8.578v-12.797h8.561v2.136h-5.924v3.05h5.062V291.642z"/>
		<path fill="#FFFFFF" d="M143.748,290.534l1.6-2.839h2.716l-2.707,4.658l2.821,4.852h-2.725l-1.696-2.988l-1.688,2.988h-2.733
			l2.821-4.852l-2.698-4.658h2.725L143.748,290.534z"/>
		<path fill="#FFFFFF" d="M153.064,295.333c0.469,0,0.85-0.129,1.143-0.387s0.445-0.601,0.457-1.028h2.382
			c-0.006,0.645-0.182,1.234-0.527,1.771c-0.346,0.535-0.819,0.952-1.42,1.248c-0.601,0.295-1.264,0.443-1.99,0.443
			c-1.359,0-2.432-0.432-3.217-1.297c-0.785-0.863-1.178-2.058-1.178-3.581v-0.167c0-1.465,0.39-2.634,1.169-3.507
			s1.849-1.31,3.208-1.31c1.189,0,2.143,0.339,2.861,1.016c0.717,0.677,1.082,1.577,1.094,2.702h-2.382
			c-0.012-0.494-0.164-0.896-0.457-1.206c-0.293-0.309-0.68-0.464-1.16-0.464c-0.592,0-1.039,0.216-1.341,0.647
			c-0.302,0.431-0.452,1.131-0.452,2.099v0.265c0,0.979,0.149,1.684,0.448,2.112S152.455,295.333,153.064,295.333z"/>
		<path fill="#FFFFFF" d="M161.177,297.205h-2.549v-13.5h2.549V297.205z"/>
		<path fill="#FFFFFF" d="M168.964,296.238c-0.627,0.762-1.494,1.143-2.602,1.143c-1.02,0-1.798-0.293-2.333-0.879
			c-0.537-0.586-0.811-1.444-0.822-2.575v-6.231h2.54v6.15c0,0.991,0.451,1.487,1.354,1.487c0.861,0,1.453-0.299,1.775-0.897v-6.74
			h2.549v9.51h-2.391L168.964,296.238z"/>
		<path fill="#FFFFFF" d="M178.491,294.577c0-0.311-0.153-0.555-0.462-0.733c-0.307-0.179-0.801-0.339-1.48-0.479
			c-2.262-0.475-3.393-1.436-3.393-2.883c0-0.844,0.35-1.548,1.051-2.113c0.699-0.565,1.615-0.849,2.746-0.849
			c1.207,0,2.172,0.284,2.896,0.853c0.723,0.568,1.085,1.307,1.085,2.215h-2.54c0-0.363-0.117-0.663-0.352-0.9
			s-0.601-0.356-1.099-0.356c-0.428,0-0.759,0.097-0.993,0.29s-0.352,0.439-0.352,0.738c0,0.281,0.133,0.509,0.4,0.682
			c0.266,0.173,0.716,0.322,1.349,0.448s1.166,0.268,1.6,0.426c1.342,0.492,2.013,1.345,2.013,2.558
			c0,0.867-0.372,1.569-1.116,2.104c-0.744,0.537-1.705,0.805-2.883,0.805c-0.797,0-1.505-0.143-2.122-0.426
			c-0.619-0.284-1.104-0.674-1.455-1.17c-0.352-0.494-0.527-1.029-0.527-1.604h2.408c0.023,0.451,0.19,0.797,0.501,1.037
			s0.727,0.36,1.248,0.36c0.486,0,0.854-0.093,1.103-0.276C178.366,295.117,178.491,294.876,178.491,294.577z"/>
		<path fill="#FFFFFF" d="M182.578,285.234c0-0.381,0.128-0.694,0.382-0.94c0.256-0.246,0.603-0.369,1.042-0.369
			c0.434,0,0.779,0.123,1.037,0.369s0.387,0.56,0.387,0.94c0,0.387-0.131,0.703-0.392,0.949s-0.604,0.369-1.032,0.369
			s-0.772-0.123-1.032-0.369C182.708,285.938,182.578,285.621,182.578,285.234z M185.276,297.205h-2.549v-9.51h2.549V297.205z"/>
		<path fill="#FFFFFF" d="M190.928,294.103l1.767-6.407h2.654l-3.208,9.51h-2.426l-3.208-9.51h2.654L190.928,294.103z"/>
		<path fill="#FFFFFF" d="M195.938,292.362c0-0.943,0.182-1.784,0.545-2.522s0.886-1.31,1.568-1.714s1.476-0.606,2.378-0.606
			c1.283,0,2.33,0.393,3.142,1.178s1.265,1.852,1.358,3.199l0.018,0.65c0,1.459-0.407,2.63-1.222,3.512s-1.907,1.322-3.278,1.322
			s-2.466-0.439-3.282-1.318c-0.818-0.879-1.227-2.074-1.227-3.586V292.362z M198.478,292.543c0,0.903,0.17,1.595,0.51,2.072
			c0.34,0.479,0.826,0.718,1.459,0.718c0.615,0,1.096-0.236,1.441-0.709c0.346-0.472,0.519-1.228,0.519-2.267
			c0-0.886-0.173-1.572-0.519-2.06c-0.346-0.486-0.832-0.73-1.459-0.73c-0.621,0-1.102,0.242-1.441,0.727
			S198.478,291.527,198.478,292.543z"/>
		<path fill="#FFFFFF" d="M214.034,285.357v2.338h1.626v1.863h-1.626v4.746c0,0.352,0.067,0.604,0.202,0.756
			s0.393,0.229,0.773,0.229c0.281,0,0.53-0.021,0.747-0.062v1.925c-0.498,0.152-1.011,0.229-1.538,0.229
			c-1.781,0-2.689-0.899-2.725-2.698v-5.124h-1.389v-1.863h1.389v-2.338H214.034z"/>
		<path fill="#FFFFFF" d="M222.586,297.205c-0.117-0.229-0.202-0.513-0.255-0.853c-0.615,0.686-1.415,1.028-2.399,1.028
			c-0.932,0-1.704-0.27-2.316-0.809s-0.918-1.219-0.918-2.039c0-1.008,0.373-1.781,1.121-2.32c0.746-0.539,1.826-0.812,3.238-0.817
			h1.169v-0.545c0-0.439-0.113-0.791-0.339-1.055s-0.581-0.396-1.067-0.396c-0.428,0-0.764,0.103-1.007,0.308
			s-0.364,0.486-0.364,0.844h-2.54c0-0.551,0.17-1.061,0.51-1.529s0.82-0.836,1.441-1.103s1.318-0.4,2.092-0.4
			c1.172,0,2.102,0.295,2.791,0.884c0.688,0.589,1.032,1.416,1.032,2.482v4.122c0.006,0.902,0.132,1.585,0.378,2.048v0.149H222.586z
			 M220.485,295.438c0.375,0,0.721-0.083,1.037-0.251c0.316-0.166,0.551-0.391,0.703-0.672v-1.635h-0.949
			c-1.271,0-1.948,0.439-2.03,1.318l-0.009,0.149c0,0.316,0.111,0.577,0.334,0.782S220.099,295.438,220.485,295.438z"/>
		<path fill="#FFFFFF" d="M232.069,290.077c-0.346-0.047-0.65-0.07-0.914-0.07c-0.961,0-1.591,0.325-1.89,0.976v6.223h-2.54v-9.51
			h2.399l0.07,1.134c0.51-0.873,1.216-1.31,2.118-1.31c0.281,0,0.545,0.038,0.791,0.114L232.069,290.077z"/>
		<path fill="#FFFFFF" d="M235.98,287.695v10.028c0,1.049-0.278,1.864-0.835,2.448c-0.557,0.582-1.359,0.874-2.408,0.874
			c-0.439,0-0.858-0.05-1.257-0.149v-2.013c0.305,0.053,0.571,0.079,0.8,0.079c0.768,0,1.151-0.407,1.151-1.222v-10.046H235.98z
			 M233.229,285.234c0-0.381,0.127-0.694,0.383-0.94c0.254-0.246,0.602-0.369,1.041-0.369s0.787,0.123,1.041,0.369
			c0.256,0.246,0.383,0.56,0.383,0.94c0,0.387-0.131,0.703-0.391,0.949c-0.262,0.246-0.605,0.369-1.033,0.369
			s-0.772-0.123-1.033-0.369S233.229,285.621,233.229,285.234z"/>
		<path fill="#FFFFFF" d="M242.344,297.381c-1.395,0-2.53-0.428-3.405-1.283c-0.877-0.855-1.314-1.995-1.314-3.419v-0.246
			c0-0.955,0.185-1.809,0.554-2.562s0.892-1.333,1.569-1.74c0.676-0.407,1.448-0.611,2.315-0.611c1.301,0,2.325,0.41,3.071,1.23
			c0.748,0.82,1.121,1.983,1.121,3.489v1.037h-6.056c0.082,0.621,0.329,1.119,0.743,1.494c0.412,0.375,0.936,0.562,1.568,0.562
			c0.979,0,1.743-0.354,2.294-1.063l1.248,1.397c-0.381,0.539-0.896,0.96-1.547,1.261
			C243.855,297.229,243.135,297.381,242.344,297.381z M242.054,289.567c-0.504,0-0.913,0.171-1.227,0.513
			c-0.313,0.341-0.514,0.829-0.602,1.465h3.533v-0.203c-0.012-0.564-0.164-1.002-0.457-1.311
			C243.009,289.722,242.593,289.567,242.054,289.567z"/>
		<path fill="#FFFFFF" d="M250.737,285.357v2.338h1.626v1.863h-1.626v4.746c0,0.352,0.067,0.604,0.202,0.756
			s0.393,0.229,0.773,0.229c0.281,0,0.53-0.021,0.747-0.062v1.925c-0.498,0.152-1.011,0.229-1.538,0.229
			c-1.781,0-2.689-0.899-2.725-2.698v-5.124h-1.389v-1.863h1.389v-2.338H250.737z"/>
		<path fill="#FFFFFF" d="M259.289,297.205c-0.117-0.229-0.202-0.513-0.255-0.853c-0.615,0.686-1.415,1.028-2.399,1.028
			c-0.932,0-1.704-0.27-2.316-0.809s-0.918-1.219-0.918-2.039c0-1.008,0.373-1.781,1.121-2.32c0.746-0.539,1.826-0.812,3.238-0.817
			h1.169v-0.545c0-0.439-0.113-0.791-0.339-1.055s-0.581-0.396-1.067-0.396c-0.428,0-0.764,0.103-1.007,0.308
			s-0.364,0.486-0.364,0.844h-2.54c0-0.551,0.17-1.061,0.51-1.529s0.82-0.836,1.441-1.103s1.318-0.4,2.092-0.4
			c1.172,0,2.102,0.295,2.791,0.884c0.688,0.589,1.032,1.416,1.032,2.482v4.122c0.006,0.902,0.132,1.585,0.378,2.048v0.149H259.289z
			 M257.188,295.438c0.375,0,0.721-0.083,1.037-0.251c0.316-0.166,0.551-0.391,0.703-0.672v-1.635h-0.949
			c-1.271,0-1.948,0.439-2.03,1.318l-0.009,0.149c0,0.316,0.111,0.577,0.334,0.782S256.802,295.438,257.188,295.438z"/>
		<path fill="#FFFFFF" d="M267.516,292.38c0-1.482,0.332-2.663,0.998-3.542c0.664-0.879,1.574-1.318,2.729-1.318
			c0.926,0,1.69,0.346,2.294,1.037v-4.852h2.549v13.5h-2.294l-0.123-1.011c-0.633,0.791-1.447,1.187-2.443,1.187
			c-1.119,0-2.018-0.44-2.693-1.322C267.854,295.177,267.516,293.95,267.516,292.38z M270.056,292.561
			c0,0.895,0.155,1.58,0.466,2.058c0.311,0.477,0.762,0.715,1.354,0.715c0.785,0,1.339-0.332,1.661-0.998v-3.77
			c-0.316-0.665-0.864-0.998-1.644-0.998C270.668,289.567,270.056,290.565,270.056,292.561z"/>
		<path fill="#FFFFFF" d="M282.431,297.381c-1.395,0-2.53-0.428-3.405-1.283c-0.877-0.855-1.314-1.995-1.314-3.419v-0.246
			c0-0.955,0.185-1.809,0.554-2.562s0.892-1.333,1.569-1.74c0.676-0.407,1.448-0.611,2.315-0.611c1.301,0,2.325,0.41,3.071,1.23
			c0.748,0.82,1.121,1.983,1.121,3.489v1.037h-6.056c0.082,0.621,0.329,1.119,0.743,1.494c0.412,0.375,0.936,0.562,1.568,0.562
			c0.979,0,1.743-0.354,2.294-1.063l1.248,1.397c-0.381,0.539-0.896,0.96-1.547,1.261
			C283.942,297.229,283.222,297.381,282.431,297.381z M282.141,289.567c-0.504,0-0.913,0.171-1.227,0.513
			c-0.313,0.341-0.514,0.829-0.602,1.465h3.533v-0.203c-0.012-0.564-0.164-1.002-0.457-1.311
			C283.096,289.722,282.68,289.567,282.141,289.567z"/>
		<path fill="#FFFFFF" d="M296.221,295.333c0.469,0,0.85-0.129,1.143-0.387s0.445-0.601,0.457-1.028h2.382
			c-0.006,0.645-0.182,1.234-0.527,1.771c-0.346,0.535-0.819,0.952-1.42,1.248c-0.601,0.295-1.264,0.443-1.99,0.443
			c-1.359,0-2.432-0.432-3.217-1.297c-0.785-0.863-1.178-2.058-1.178-3.581v-0.167c0-1.465,0.39-2.634,1.169-3.507
			s1.849-1.31,3.208-1.31c1.189,0,2.143,0.339,2.861,1.016c0.717,0.677,1.082,1.577,1.094,2.702h-2.382
			c-0.012-0.494-0.164-0.896-0.457-1.206c-0.293-0.309-0.68-0.464-1.16-0.464c-0.592,0-1.039,0.216-1.341,0.647
			c-0.302,0.431-0.452,1.131-0.452,2.099v0.265c0,0.979,0.149,1.684,0.448,2.112S295.611,295.333,296.221,295.333z"/>
		<path fill="#FFFFFF" d="M306.996,290.077c-0.346-0.047-0.65-0.07-0.914-0.07c-0.961,0-1.591,0.325-1.89,0.976v6.223h-2.54v-9.51
			h2.399l0.07,1.134c0.51-0.873,1.216-1.31,2.118-1.31c0.281,0,0.545,0.038,0.791,0.114L306.996,290.077z"/>
		<path fill="#FFFFFF" d="M312.428,297.381c-1.395,0-2.53-0.428-3.405-1.283c-0.877-0.855-1.314-1.995-1.314-3.419v-0.246
			c0-0.955,0.185-1.809,0.554-2.562s0.892-1.333,1.569-1.74c0.676-0.407,1.448-0.611,2.315-0.611c1.301,0,2.325,0.41,3.071,1.23
			c0.748,0.82,1.121,1.983,1.121,3.489v1.037h-6.056c0.082,0.621,0.329,1.119,0.743,1.494c0.412,0.375,0.936,0.562,1.568,0.562
			c0.979,0,1.743-0.354,2.294-1.063l1.248,1.397c-0.381,0.539-0.896,0.96-1.547,1.261
			C313.939,297.229,313.219,297.381,312.428,297.381z M312.138,289.567c-0.504,0-0.913,0.171-1.227,0.513
			c-0.313,0.341-0.514,0.829-0.602,1.465h3.533v-0.203c-0.012-0.564-0.164-1.002-0.457-1.311
			C313.093,289.722,312.677,289.567,312.138,289.567z M312.366,283.705h2.769l-2.435,2.725h-2.065L312.366,283.705z"/>
		<path fill="#FFFFFF" d="M317.385,292.38c0-1.482,0.332-2.663,0.998-3.542c0.664-0.879,1.574-1.318,2.729-1.318
			c0.926,0,1.69,0.346,2.294,1.037v-4.852h2.549v13.5h-2.294l-0.123-1.011c-0.633,0.791-1.447,1.187-2.443,1.187
			c-1.119,0-2.018-0.44-2.693-1.322C317.723,295.177,317.385,293.95,317.385,292.38z M319.925,292.561
			c0,0.895,0.155,1.58,0.466,2.058c0.311,0.477,0.762,0.715,1.354,0.715c0.785,0,1.339-0.332,1.661-0.998v-3.77
			c-0.316-0.665-0.864-0.998-1.644-0.998C320.537,289.567,319.925,290.565,319.925,292.561z"/>
		<path fill="#FFFFFF" d="M327.905,285.234c0-0.381,0.128-0.694,0.382-0.94c0.256-0.246,0.603-0.369,1.042-0.369
			c0.434,0,0.779,0.123,1.037,0.369s0.387,0.56,0.387,0.94c0,0.387-0.131,0.703-0.392,0.949s-0.604,0.369-1.032,0.369
			s-0.772-0.123-1.032-0.369C328.035,285.938,327.905,285.621,327.905,285.234z M330.604,297.205h-2.549v-9.51h2.549V297.205z"/>
		<path fill="#FFFFFF" d="M335.736,285.357v2.338h1.626v1.863h-1.626v4.746c0,0.352,0.067,0.604,0.202,0.756
			s0.393,0.229,0.773,0.229c0.281,0,0.53-0.021,0.747-0.062v1.925c-0.498,0.152-1.011,0.229-1.538,0.229
			c-1.781,0-2.689-0.899-2.725-2.698v-5.124h-1.389v-1.863h1.389v-2.338H335.736z"/>
		<path fill="#FFFFFF" d="M338.118,292.362c0-0.943,0.182-1.784,0.545-2.522s0.886-1.31,1.568-1.714s1.476-0.606,2.378-0.606
			c1.283,0,2.33,0.393,3.142,1.178s1.265,1.852,1.358,3.199l0.018,0.65c0,1.459-0.407,2.63-1.222,3.512s-1.907,1.322-3.278,1.322
			s-2.466-0.439-3.282-1.318c-0.818-0.879-1.227-2.074-1.227-3.586V292.362z M340.658,292.543c0,0.903,0.17,1.595,0.51,2.072
			c0.34,0.479,0.826,0.718,1.459,0.718c0.615,0,1.096-0.236,1.441-0.709c0.346-0.472,0.519-1.228,0.519-2.267
			c0-0.886-0.173-1.572-0.519-2.06c-0.346-0.486-0.832-0.73-1.459-0.73c-0.621,0-1.102,0.242-1.441,0.727
			S340.658,291.527,340.658,292.543z"/>
		<path fill="#FFFFFF" d="M350.221,294.665c0.428,0,0.771,0.126,1.032,0.378s0.392,0.574,0.392,0.967
			c0,0.387-0.131,0.706-0.392,0.958s-0.604,0.378-1.032,0.378c-0.422,0-0.764-0.126-1.024-0.378s-0.391-0.571-0.391-0.958
			s0.13-0.707,0.391-0.963C349.457,294.793,349.799,294.665,350.221,294.665z M351.275,293.276h-2.109l-0.299-8.868h2.707
			L351.275,293.276z"/>
	</g>
</g>
</svg>
