<?xml version="1.0" encoding="utf-8"?>
<!-- Generator: Adobe Illustrator 19.2.0, SVG Export Plug-In . SVG Version: 6.00 Build 0)  -->
<svg version="1.1" id="Capa_1" xmlns="http://www.w3.org/2000/svg" xmlns:xlink="http://www.w3.org/1999/xlink" x="0px" y="0px"
	 viewBox="0 0 238.8 67" style="enable-background:new 0 0 238.8 67;" xml:space="preserve">
<style type="text/css">
	.st0{fill:#3BA07D;}
	.st1{fill:#D8D6CD;}
	.st2{fill:#FFFFFF;}
</style>
<g>
	<g>
		<path class="st0" d="M204.8,0H0v67h204.8c18.5,0,34-15.3,34-33.8v-0.4C238.8,14.2,223.3,0,204.8,0z M204.8,52.3
			c-11.3,0-20.5-9.2-20.5-20.5c0-11.3,9.2-20.5,20.5-20.5c11.3,0,20.5,9.2,20.5,20.5C225.3,43.2,216.1,52.3,204.8,52.3z"/>
		<g>
			<path class="st1" d="M225.1,34c-1.1,10.3-9.7,18.3-20.3,18.3s-19.3-8-20.4-18.3H0v33h207c0,0,12.8-0.2,22.6-10.9
				c9.8-10.7,9.1-22.1,9.1-22.1H225.1z"/>
		</g>
	</g>
	<g>
		<path class="st2" d="M22.6,42.1H19V26.5h3.6V42.1z"/>
		<path class="st2" d="M28.5,30.5l0.1,1.6c0.4-0.6,0.8-1,1.4-1.4c0.6-0.3,1.2-0.5,1.9-0.5c1.1,0,2,0.4,2.7,1.1c0.6,0.7,1,1.9,1,3.5
			v7.2h-3.6v-7.2c0-0.7-0.1-1.1-0.4-1.4c-0.3-0.3-0.7-0.4-1.2-0.4c-0.3,0-0.6,0.1-0.9,0.2c-0.3,0.1-0.5,0.3-0.7,0.5v8.4H25V30.5
			H28.5z"/>
		<path class="st2" d="M38.2,42.1V33h-1.7v-2.5h1.7v-1.2c0-1.3,0.4-2.4,1.2-3.1c0.8-0.7,1.9-1.1,3.4-1.1c0.3,0,0.6,0,0.8,0.1
			c0.3,0,0.6,0.1,1,0.2L44.4,28C44.2,28,44,28,43.9,28c-0.2,0-0.3,0-0.6,0c-0.5,0-0.8,0.1-1,0.4c-0.2,0.2-0.4,0.6-0.4,1v1.2h2.3V33
			h-2.3v9.1H38.2z"/>
		<path class="st2" d="M52,33.7l-1.3,0c-0.4,0-0.8,0.1-1,0.2c-0.3,0.1-0.5,0.3-0.6,0.6v7.6h-3.6V30.5h3.4l0.1,1.7
			c0.2-0.6,0.6-1.1,1-1.4c0.4-0.3,0.9-0.5,1.4-0.5c0.2,0,0.3,0,0.5,0c0.2,0,0.3,0.1,0.5,0.1L52,33.7z"/>
		<path class="st2" d="M60.1,42.1c-0.1-0.2-0.2-0.4-0.3-0.6c-0.1-0.2-0.2-0.5-0.2-0.7c-0.3,0.5-0.8,0.9-1.2,1.1
			c-0.5,0.3-1.1,0.4-1.8,0.4c-1.1,0-2-0.3-2.7-1c-0.7-0.6-1-1.5-1-2.5c0-1.2,0.4-2,1.3-2.7c0.9-0.6,2.2-0.9,3.9-0.9h1.3v-0.8
			c0-0.5-0.1-0.9-0.3-1.1c-0.2-0.3-0.6-0.4-1.1-0.4c-0.4,0-0.7,0.1-0.9,0.3c-0.2,0.2-0.3,0.5-0.3,0.9l-3.5,0l0-0.1
			c0-1.1,0.4-1.9,1.3-2.7c0.9-0.7,2.2-1.1,3.7-1.1c1.4,0,2.6,0.4,3.5,1.1c0.9,0.7,1.3,1.7,1.3,3.1v4.4c0,0.6,0.1,1.2,0.2,1.7
			c0.1,0.5,0.3,1.1,0.5,1.6L60.1,42.1z M57.7,39.8c0.4,0,0.7-0.1,1-0.2c0.3-0.1,0.5-0.3,0.7-0.6v-1.8h-1.3c-0.6,0-1,0.1-1.3,0.4
			s-0.4,0.6-0.4,1.1c0,0.3,0.1,0.6,0.3,0.8S57.3,39.8,57.7,39.8z"/>
		<path class="st2" d="M70.3,42.3c-1.7,0-3.1-0.5-4.1-1.6s-1.5-2.4-1.5-4v-0.4c0-1.8,0.5-3.2,1.4-4.3c0.9-1.1,2.3-1.7,4-1.7
			c1.6,0,2.8,0.5,3.7,1.4c0.9,0.9,1.3,2.2,1.3,3.8v1.9h-6.6l0,0.1c0.1,0.6,0.3,1.1,0.7,1.5c0.4,0.4,1,0.6,1.6,0.6
			c0.7,0,1.2-0.1,1.6-0.2c0.4-0.1,0.9-0.3,1.6-0.6l0.9,2.2c-0.5,0.4-1.2,0.7-2,0.9S71.3,42.3,70.3,42.3z M70.1,33.1
			c-0.5,0-0.9,0.2-1.2,0.6c-0.3,0.4-0.4,0.9-0.5,1.5l0,0.1h3.1v-0.3c0-0.6-0.1-1-0.4-1.4C71,33.2,70.6,33.1,70.1,33.1z"/>
		<path class="st2" d="M82.7,38.9c0-0.3-0.2-0.5-0.5-0.8c-0.3-0.2-0.9-0.4-1.8-0.6c-1.4-0.3-2.4-0.7-3.1-1.2s-1-1.3-1-2.3
			c0-1,0.4-1.9,1.3-2.6c0.9-0.7,2-1.1,3.5-1.1c1.5,0,2.8,0.3,3.7,1c0.9,0.7,1.4,1.6,1.3,2.7l0,0.1h-3.5c0-0.5-0.1-0.8-0.3-1
			c-0.2-0.2-0.6-0.4-1.1-0.4c-0.4,0-0.7,0.1-1,0.3c-0.3,0.2-0.4,0.5-0.4,0.8c0,0.3,0.1,0.6,0.4,0.8c0.3,0.2,0.9,0.4,1.8,0.6
			c1.4,0.3,2.5,0.7,3.2,1.3c0.7,0.6,1,1.3,1,2.4c0,1-0.5,1.9-1.4,2.6s-2.2,1-3.7,1c-1.6,0-2.8-0.4-3.8-1.2c-0.9-0.8-1.4-1.7-1.3-2.7
			l0-0.1h3.3c0,0.6,0.2,0.9,0.5,1.2c0.3,0.2,0.8,0.4,1.4,0.4c0.5,0,0.9-0.1,1.1-0.3C82.6,39.5,82.7,39.2,82.7,38.9z"/>
		<path class="st2" d="M92.2,27.6v2.9h2V33h-2v5.3c0,0.4,0.1,0.7,0.3,0.9s0.4,0.3,0.7,0.3c0.2,0,0.4,0,0.5,0c0.1,0,0.3,0,0.5-0.1
			l0.3,2.7c-0.4,0.1-0.8,0.2-1.1,0.2c-0.3,0-0.7,0.1-1.1,0.1c-1.2,0-2.1-0.3-2.7-1c-0.6-0.6-0.9-1.6-0.9-3V33H87v-2.5h1.6v-2.9H92.2
			z"/>
		<path class="st2" d="M102.5,33.7l-1.3,0c-0.4,0-0.8,0.1-1,0.2c-0.3,0.1-0.5,0.3-0.6,0.6v7.6h-3.6V30.5h3.4l0.1,1.7
			c0.2-0.6,0.6-1.1,1-1.4c0.4-0.3,0.9-0.5,1.4-0.5c0.2,0,0.3,0,0.5,0c0.2,0,0.3,0.1,0.5,0.1L102.5,33.7z"/>
		<path class="st2" d="M111,40.7c-0.4,0.5-0.8,0.9-1.4,1.2c-0.5,0.3-1.2,0.4-1.8,0.4c-1.2,0-2.1-0.4-2.8-1.2c-0.7-0.8-1-2-1-3.6
			v-7.1h3.6v7.1c0,0.7,0.1,1.1,0.4,1.5s0.6,0.5,1.1,0.5c0.4,0,0.7-0.1,1-0.2c0.3-0.1,0.5-0.3,0.8-0.5v-8.4h3.6v11.6h-3.2L111,40.7z"
			/>
		<path class="st2" d="M121.4,39.6c0.5,0,0.8-0.1,1.1-0.4c0.2-0.3,0.4-0.7,0.4-1.2h3.3l0,0.1c0,1.3-0.4,2.3-1.3,3.1
			c-0.9,0.8-2.1,1.2-3.5,1.2c-1.8,0-3.1-0.5-4.1-1.6s-1.4-2.5-1.4-4.3v-0.2c0-1.7,0.5-3.2,1.4-4.3c1-1.1,2.3-1.6,4-1.6
			c1.5,0,2.7,0.4,3.5,1.2c0.9,0.8,1.3,1.9,1.3,3.4l0,0.1h-3.3c0-0.6-0.1-1-0.4-1.3c-0.2-0.3-0.6-0.5-1.1-0.5c-0.7,0-1.2,0.3-1.4,0.8
			c-0.3,0.6-0.4,1.3-0.4,2.3v0.2c0,1,0.1,1.7,0.4,2.3C120.2,39.3,120.7,39.6,121.4,39.6z"/>
		<path class="st2" d="M131.9,27.6v2.9h2V33h-2v5.3c0,0.4,0.1,0.7,0.3,0.9s0.4,0.3,0.7,0.3c0.2,0,0.4,0,0.5,0c0.1,0,0.3,0,0.5-0.1
			l0.3,2.7c-0.4,0.1-0.8,0.2-1.1,0.2c-0.3,0-0.7,0.1-1.1,0.1c-1.2,0-2.1-0.3-2.7-1c-0.6-0.6-0.9-1.6-0.9-3V33h-1.6v-2.5h1.6v-2.9
			H131.9z"/>
		<path class="st2" d="M142.6,40.7c-0.4,0.5-0.8,0.9-1.4,1.2s-1.2,0.4-1.8,0.4c-1.2,0-2.1-0.4-2.8-1.2s-1-2-1-3.6v-7.1h3.6v7.1
			c0,0.7,0.1,1.1,0.4,1.5s0.6,0.5,1.1,0.5c0.4,0,0.7-0.1,1-0.2c0.3-0.1,0.5-0.3,0.8-0.5v-8.4h3.6v11.6h-3.2L142.6,40.7z"/>
		<path class="st2" d="M154.5,33.7l-1.3,0c-0.4,0-0.8,0.1-1,0.2c-0.3,0.1-0.5,0.3-0.6,0.6v7.6H148V30.5h3.4l0.1,1.7
			c0.2-0.6,0.6-1.1,1-1.4c0.4-0.3,0.9-0.5,1.4-0.5c0.2,0,0.3,0,0.5,0c0.2,0,0.3,0.1,0.5,0.1L154.5,33.7z"/>
		<path class="st2" d="M162.6,42.1c-0.1-0.2-0.2-0.4-0.3-0.6c-0.1-0.2-0.2-0.5-0.2-0.7c-0.3,0.5-0.8,0.9-1.2,1.1
			c-0.5,0.3-1.1,0.4-1.8,0.4c-1.1,0-2-0.3-2.7-1c-0.7-0.6-1-1.5-1-2.5c0-1.2,0.4-2,1.3-2.7c0.9-0.6,2.2-0.9,3.9-0.9h1.3v-0.8
			c0-0.5-0.1-0.9-0.3-1.1c-0.2-0.3-0.6-0.4-1.1-0.4c-0.4,0-0.7,0.1-0.9,0.3c-0.2,0.2-0.3,0.5-0.3,0.9l-3.5,0l0-0.1
			c-0.1-1.1,0.4-1.9,1.3-2.7c0.9-0.7,2.2-1.1,3.7-1.1c1.4,0,2.6,0.4,3.5,1.1c0.9,0.7,1.3,1.7,1.3,3.1v4.4c0,0.6,0.1,1.2,0.2,1.7
			c0.1,0.5,0.3,1.1,0.5,1.6L162.6,42.1z M160.2,39.8c0.4,0,0.7-0.1,1-0.2c0.3-0.1,0.5-0.3,0.7-0.6v-1.8h-1.3c-0.6,0-1,0.1-1.3,0.4
			c-0.3,0.3-0.4,0.6-0.4,1.1c0,0.3,0.1,0.6,0.3,0.8S159.8,39.8,160.2,39.8z"/>
	</g>
</g>
</svg>
