<?xml version="1.0" encoding="utf-8"?>
<!-- Generator: Adobe Illustrator 19.2.0, SVG Export Plug-In . SVG Version: 6.00 Build 0)  -->
<svg version="1.1" id="Capa_1" xmlns="http://www.w3.org/2000/svg" xmlns:xlink="http://www.w3.org/1999/xlink" x="0px" y="0px"
	 viewBox="0 0 273.2 77.9" style="enable-background:new 0 0 273.2 77.9;" xml:space="preserve">
<style type="text/css">
	.st0{fill:#E00A16;}
	.st1{fill:#CC0000;}
	.st2{fill:#FFFFFF;}
</style>
<g>
	<path class="st0" d="M233.1,0.2H-0.5V78h233.7c21.5,0,39.5-17.8,39.5-39.3v-0.5C272.6,16.7,254.7,0.2,233.1,0.2z M233.2,61
		c-13.1,0-23.9-10.6-23.9-23.8c0-13.1,10.6-23.8,23.8-23.8c13.1,0,23.8,10.6,23.8,23.8C256.9,50.3,246.3,61,233.2,61z"/>
	<path class="st1" d="M256.8,39.7c-1.3,12-11.3,21.3-23.6,21.3s-22.5-9.3-23.7-21.3h-210V78H234c0,0,15.6,0.6,28-12.7
		c11.1-11.8,10.6-25.7,10.6-25.7H256.8z"/>
	<g>
		<path class="st2" d="M32.5,44.3c0-0.6-0.2-1.1-0.6-1.5s-1.2-0.7-2.3-1.1c-2.3-0.7-4-1.5-5.1-2.3c-1.1-0.8-1.7-2-1.7-3.6
			c0-1.5,0.7-2.8,2-3.7c1.3-0.9,3-1.4,5-1.4c2,0,3.7,0.5,4.9,1.6c1.3,1,1.9,2.4,1.9,4l0,0.1h-4.1c0-0.7-0.2-1.3-0.7-1.8
			c-0.5-0.5-1.2-0.7-2-0.7c-0.8,0-1.5,0.2-2,0.6c-0.5,0.4-0.7,0.8-0.7,1.4c0,0.5,0.2,1,0.7,1.3c0.5,0.3,1.4,0.7,2.7,1.2
			c2.1,0.6,3.6,1.4,4.7,2.3s1.6,2.1,1.6,3.7c0,1.6-0.6,2.8-1.9,3.8c-1.2,0.9-2.9,1.4-4.9,1.4c-2.1,0-3.8-0.5-5.4-1.6
			c-1.5-1-2.2-2.5-2.2-4.5l0-0.1h4.1c0,1,0.3,1.8,0.8,2.2c0.6,0.4,1.4,0.7,2.6,0.7c0.9,0,1.5-0.2,2-0.5S32.5,44.9,32.5,44.3z"/>
		<path class="st2" d="M44.9,49.4c-2,0-3.6-0.6-4.8-1.9c-1.2-1.2-1.8-2.8-1.8-4.7v-0.5c0-2.1,0.5-3.7,1.6-5c1.1-1.3,2.6-1.9,4.6-1.9
			c1.8,0,3.3,0.5,4.3,1.6c1,1.1,1.6,2.6,1.6,4.5v2.2h-7.7l0,0.1c0.1,0.7,0.4,1.3,0.8,1.7c0.5,0.4,1.1,0.7,1.9,0.7
			c0.8,0,1.4-0.1,1.9-0.2c0.5-0.1,1.1-0.3,1.8-0.6l1,2.6c-0.6,0.4-1.4,0.8-2.3,1.1C47,49.2,46,49.4,44.9,49.4z M44.6,38.6
			c-0.6,0-1.1,0.2-1.4,0.6c-0.3,0.4-0.5,1-0.6,1.7l0,0.1h3.6v-0.3c0-0.7-0.1-1.2-0.4-1.6C45.6,38.8,45.2,38.6,44.6,38.6z"/>
		<path class="st2" d="M51.7,42.4c0-2.1,0.5-3.8,1.4-5.1c0.9-1.3,2.2-1.9,3.9-1.9c0.7,0,1.3,0.2,1.9,0.5c0.5,0.3,1,0.8,1.4,1.4
			l0.3-1.7h3.7v13c0,1.8-0.6,3.3-1.9,4.3c-1.2,1.1-2.9,1.6-5,1.6c-0.7,0-1.4-0.1-2.2-0.3c-0.8-0.2-1.5-0.4-2.2-0.8l0.7-3.1
			c0.6,0.3,1.2,0.5,1.8,0.6c0.6,0.1,1.2,0.2,1.9,0.2c0.9,0,1.5-0.2,2-0.7c0.5-0.5,0.7-1.1,0.7-1.9v-0.7c-0.4,0.5-0.8,0.9-1.3,1.1
			c-0.5,0.3-1.1,0.4-1.7,0.4c-1.7,0-3-0.6-3.9-1.8c-0.9-1.2-1.4-2.9-1.4-4.9V42.4z M55.9,42.7c0,1.1,0.2,2,0.5,2.6s0.9,0.9,1.6,0.9
			c0.5,0,0.9-0.1,1.2-0.2c0.3-0.1,0.6-0.4,0.8-0.6v-5.7c-0.2-0.3-0.5-0.6-0.8-0.7c-0.3-0.2-0.7-0.3-1.2-0.3c-0.7,0-1.3,0.3-1.6,1
			c-0.3,0.7-0.5,1.6-0.5,2.7V42.7z"/>
		<path class="st2" d="M74.7,47.5c-0.4,0.6-1,1.1-1.6,1.4c-0.6,0.3-1.3,0.5-2.1,0.5c-1.4,0-2.5-0.4-3.3-1.3
			c-0.8-0.9-1.2-2.3-1.2-4.2v-8.2h4.2v8.3c0,0.8,0.1,1.3,0.4,1.7c0.3,0.4,0.7,0.6,1.2,0.6c0.4,0,0.8-0.1,1.2-0.2
			c0.3-0.1,0.6-0.3,0.9-0.6v-9.8h4.2v13.5H75L74.7,47.5z"/>
		<path class="st2" d="M88.6,39.3l-1.5,0c-0.5,0-0.9,0.1-1.2,0.2c-0.3,0.2-0.5,0.4-0.7,0.7v8.9H81V35.6h4l0.1,2
			c0.3-0.7,0.7-1.3,1.1-1.6c0.5-0.4,1-0.6,1.6-0.6c0.2,0,0.4,0,0.6,0c0.2,0,0.4,0.1,0.5,0.1L88.6,39.3z"/>
		<path class="st2" d="M94.8,32.5h-4.2v-2.8h4.2V32.5z M94.8,49.1h-4.2V35.6h4.2V49.1z"/>
		<path class="st2" d="M96.9,42.4c0-2.1,0.5-3.8,1.4-5.1c0.9-1.3,2.2-1.9,3.9-1.9c0.6,0,1.2,0.1,1.7,0.4c0.5,0.3,1,0.7,1.4,1.2v-7.4
			h4.2v19.5h-3.7l-0.3-1.7c-0.4,0.6-0.9,1.1-1.5,1.4c-0.6,0.3-1.2,0.5-1.9,0.5c-1.7,0-3-0.6-3.9-1.8c-0.9-1.2-1.4-2.9-1.4-4.9V42.4z
			 M101.1,42.7c0,1.1,0.2,2,0.5,2.6s0.9,0.9,1.6,0.9c0.4,0,0.8-0.1,1.2-0.2s0.6-0.4,0.8-0.7v-5.5c-0.2-0.4-0.5-0.6-0.8-0.8
			c-0.3-0.2-0.7-0.3-1.1-0.3c-0.7,0-1.3,0.3-1.6,1c-0.3,0.7-0.5,1.6-0.5,2.7V42.7z"/>
		<path class="st2" d="M119.6,49.1c-0.1-0.2-0.2-0.5-0.3-0.7c-0.1-0.3-0.2-0.5-0.2-0.8c-0.4,0.6-0.9,1-1.4,1.3
			c-0.6,0.3-1.3,0.5-2.1,0.5c-1.3,0-2.3-0.4-3.1-1.1c-0.8-0.7-1.2-1.7-1.2-3c0-1.3,0.5-2.4,1.5-3.1c1-0.7,2.5-1.1,4.6-1.1h1.5v-1
			c0-0.6-0.1-1-0.4-1.3c-0.3-0.3-0.7-0.5-1.3-0.5c-0.5,0-0.8,0.1-1.1,0.3c-0.2,0.2-0.4,0.6-0.4,1.1l-4.1,0l0-0.1
			c-0.1-1.2,0.5-2.3,1.5-3.1c1.1-0.8,2.5-1.2,4.3-1.2c1.7,0,3,0.4,4.1,1.2c1,0.8,1.6,2,1.6,3.6v5.1c0,0.7,0.1,1.4,0.2,2
			c0.1,0.6,0.3,1.2,0.5,1.8L119.6,49.1z M116.8,46.4c0.4,0,0.8-0.1,1.1-0.2c0.3-0.2,0.6-0.4,0.8-0.6v-2.1h-1.5
			c-0.7,0-1.2,0.2-1.5,0.5c-0.3,0.3-0.5,0.7-0.5,1.2c0,0.4,0.1,0.7,0.4,0.9C116,46.3,116.4,46.4,116.8,46.4z"/>
		<path class="st2" d="M124.8,42.4c0-2.1,0.5-3.8,1.4-5.1c0.9-1.3,2.2-1.9,3.9-1.9c0.6,0,1.2,0.1,1.7,0.4c0.5,0.3,1,0.7,1.4,1.2
			v-7.4h4.2v19.5h-3.7l-0.3-1.7c-0.4,0.6-0.9,1.1-1.5,1.4c-0.6,0.3-1.2,0.5-1.9,0.5c-1.7,0-3-0.6-3.9-1.8c-0.9-1.2-1.4-2.9-1.4-4.9
			V42.4z M129,42.7c0,1.1,0.2,2,0.5,2.6s0.9,0.9,1.6,0.9c0.4,0,0.8-0.1,1.2-0.2s0.6-0.4,0.8-0.7v-5.5c-0.2-0.4-0.5-0.6-0.8-0.8
			c-0.3-0.2-0.7-0.3-1.1-0.3c-0.7,0-1.3,0.3-1.6,1c-0.3,0.7-0.5,1.6-0.5,2.7V42.7z"/>
		<path class="st2" d="M152.8,44.2l0.1,0.7h0.1l0.1-0.6l3.6-13.3h4.4l-5.9,18.2h-4.6l-5.9-18.2h4.4L152.8,44.2z"/>
		<path class="st2" d="M166.8,32.5h-4.2v-2.8h4.2V32.5z M166.8,49.1h-4.2V35.6h4.2V49.1z"/>
		<path class="st2" d="M177.2,49.1c-0.1-0.2-0.2-0.5-0.3-0.7c-0.1-0.3-0.2-0.5-0.2-0.8c-0.4,0.6-0.9,1-1.4,1.3
			c-0.6,0.3-1.3,0.5-2.1,0.5c-1.3,0-2.3-0.4-3.1-1.1c-0.8-0.7-1.2-1.7-1.2-3c0-1.3,0.5-2.4,1.5-3.1c1-0.7,2.5-1.1,4.6-1.1h1.5v-1
			c0-0.6-0.1-1-0.4-1.3c-0.3-0.3-0.7-0.5-1.3-0.5c-0.5,0-0.8,0.1-1.1,0.3c-0.2,0.2-0.4,0.6-0.4,1.1l-4.1,0l0-0.1
			c-0.1-1.2,0.5-2.3,1.5-3.1c1.1-0.8,2.5-1.2,4.3-1.2c1.7,0,3,0.4,4.1,1.2c1,0.8,1.6,2,1.6,3.6v5.1c0,0.7,0.1,1.4,0.2,2
			c0.1,0.6,0.3,1.2,0.5,1.8L177.2,49.1z M174.4,46.4c0.4,0,0.8-0.1,1.1-0.2c0.3-0.2,0.6-0.4,0.8-0.6v-2.1h-1.5
			c-0.7,0-1.2,0.2-1.5,0.5c-0.3,0.3-0.5,0.7-0.5,1.2c0,0.4,0.1,0.7,0.4,0.9C173.6,46.3,174,46.4,174.4,46.4z"/>
		<path class="st2" d="M187.4,49.1h-4.2V29.7h4.2V49.1z"/>
	</g>
</g>
</svg>
