<?xml version="1.0" encoding="utf-8"?>
<!-- Generator: Adobe Illustrator 19.2.0, SVG Export Plug-In . SVG Version: 6.00 Build 0)  -->
<svg version="1.1" id="Capa_1" xmlns="http://www.w3.org/2000/svg" xmlns:xlink="http://www.w3.org/1999/xlink" x="0px" y="0px"
	 viewBox="0 0 339.2 67" style="enable-background:new 0 0 339.2 67;" xml:space="preserve">
<style type="text/css">
	.st0{fill:#F0A30E;}
	.st1{fill:#EC8B02;}
	.st2{fill:#FFFFFF;}
</style>
<g>
	<path class="st0" d="M305.2,0H0v67h305.2c18.5,0,34-15.3,34-33.8v-0.4C339.2,14.2,323.7,0,305.2,0z M305.2,52.3
		c-11.3,0-20.5-9.2-20.5-20.5c0-11.3,9.2-20.5,20.5-20.5c11.3,0,20.5,9.2,20.5,20.5C325.6,43.2,316.5,52.3,305.2,52.3z"/>
	<path class="st1" d="M325.5,34c-1.1,10.3-9.7,18.3-20.3,18.3s-19.3-8-20.4-18.3H0v33h307.4c0,0,12.8-0.2,22.6-10.9
		c9.8-10.7,9.1-22.1,9.1-22.1H325.5z"/>
</g>
<g>
	<path class="st2" d="M18.9,42.1V26.5h5.7c1.8,0,3.4,0.6,4.6,1.8c1.2,1.2,1.9,2.7,1.9,4.6v2.8c0,1.9-0.6,3.4-1.9,4.6
		c-1.2,1.2-2.8,1.8-4.6,1.8H18.9z M22.6,29.3v10.1h1.8c1,0,1.7-0.3,2.3-1c0.5-0.7,0.8-1.5,0.8-2.6v-2.8c0-1.1-0.3-2-0.8-2.6
		c-0.5-0.7-1.3-1-2.3-1H22.6z"/>
	<path class="st2" d="M38.4,42.3c-1.7,0-3.1-0.5-4.1-1.6s-1.5-2.4-1.5-4v-0.4c0-1.8,0.5-3.2,1.4-4.3c0.9-1.1,2.3-1.7,4-1.7
		c1.6,0,2.8,0.5,3.7,1.4s1.3,2.2,1.3,3.8v1.9h-6.6l0,0.1c0.1,0.6,0.3,1.1,0.7,1.5c0.4,0.4,1,0.6,1.6,0.6c0.7,0,1.2-0.1,1.6-0.2
		c0.4-0.1,0.9-0.3,1.6-0.6L43,41c-0.5,0.4-1.2,0.7-2,0.9S39.3,42.3,38.4,42.3z M38.1,33.1c-0.5,0-0.9,0.2-1.2,0.6
		c-0.3,0.4-0.4,0.9-0.5,1.5l0,0.1h3.1v-0.3c0-0.6-0.1-1-0.4-1.4C39,33.2,38.7,33.1,38.1,33.1z"/>
	<path class="st2" d="M51.3,33.7l-1.3,0c-0.4,0-0.8,0.1-1,0.2s-0.5,0.3-0.6,0.6v7.6h-3.6V30.5h3.4l0.1,1.7c0.2-0.6,0.6-1.1,1-1.4
		c0.4-0.3,0.9-0.5,1.4-0.5c0.2,0,0.3,0,0.5,0c0.2,0,0.3,0.1,0.5,0.1L51.3,33.7z"/>
	<path class="st2" d="M58,42.3c-1.7,0-3.1-0.5-4.1-1.6s-1.5-2.4-1.5-4v-0.4c0-1.8,0.5-3.2,1.4-4.3c0.9-1.1,2.3-1.7,4-1.7
		c1.6,0,2.8,0.5,3.7,1.4s1.3,2.2,1.3,3.8v1.9h-6.6l0,0.1c0.1,0.6,0.3,1.1,0.7,1.5c0.4,0.4,1,0.6,1.6,0.6c0.7,0,1.2-0.1,1.6-0.2
		c0.4-0.1,0.9-0.3,1.6-0.6l0.9,2.2c-0.5,0.4-1.2,0.7-2,0.9S58.9,42.3,58,42.3z M57.7,33.1c-0.5,0-0.9,0.2-1.2,0.6
		c-0.3,0.4-0.4,0.9-0.5,1.5l0,0.1h3.1v-0.3c0-0.6-0.1-1-0.4-1.4C58.6,33.2,58.2,33.1,57.7,33.1z"/>
	<path class="st2" d="M69.3,39.6c0.5,0,0.8-0.1,1.1-0.4c0.2-0.3,0.4-0.7,0.4-1.2H74l0,0.1c0,1.3-0.4,2.3-1.3,3.1
		c-0.9,0.8-2.1,1.2-3.5,1.2c-1.8,0-3.1-0.5-4.1-1.6s-1.4-2.5-1.4-4.3v-0.2c0-1.7,0.5-3.2,1.4-4.3c1-1.1,2.3-1.6,4-1.6
		c1.5,0,2.7,0.4,3.5,1.2c0.9,0.8,1.3,1.9,1.3,3.4l0,0.1h-3.3c0-0.6-0.1-1-0.4-1.3c-0.2-0.3-0.6-0.5-1.1-0.5c-0.7,0-1.2,0.3-1.4,0.8
		c-0.3,0.6-0.4,1.3-0.4,2.3v0.2c0,1,0.1,1.7,0.4,2.3C68.1,39.3,68.5,39.6,69.3,39.6z"/>
	<path class="st2" d="M79.1,31.9c0.4-0.5,0.8-0.9,1.3-1.2s1.1-0.4,1.7-0.4c1.2,0,2.1,0.4,2.8,1.3s1,2.1,1,3.9v6.7h-3.6v-6.7
		c0-0.9-0.1-1.5-0.4-1.8c-0.3-0.3-0.7-0.5-1.2-0.5c-0.4,0-0.7,0.1-0.9,0.2c-0.3,0.1-0.5,0.2-0.6,0.4v8.5h-3.6V25.4h3.6V31.9z"/>
	<path class="st2" d="M87.4,36.2c0-1.7,0.5-3.2,1.5-4.3c1-1.1,2.4-1.6,4.1-1.6c1.8,0,3.2,0.5,4.1,1.6c1,1.1,1.5,2.5,1.5,4.3v0.2
		c0,1.8-0.5,3.2-1.5,4.3s-2.4,1.6-4.1,1.6c-1.8,0-3.2-0.5-4.2-1.6s-1.5-2.5-1.5-4.3V36.2z M91,36.4c0,1,0.2,1.7,0.5,2.3
		c0.3,0.6,0.8,0.8,1.6,0.8c0.7,0,1.2-0.3,1.5-0.8s0.5-1.3,0.5-2.3v-0.2c0-0.9-0.2-1.7-0.5-2.3s-0.8-0.9-1.5-0.9
		c-0.7,0-1.2,0.3-1.5,0.9c-0.3,0.6-0.5,1.3-0.5,2.3V36.4z"/>
	<path class="st2" d="M106.3,38.9c0-0.3-0.2-0.5-0.5-0.8c-0.3-0.2-0.9-0.4-1.8-0.6c-1.4-0.3-2.4-0.7-3.1-1.2s-1-1.3-1-2.3
		c0-1,0.4-1.9,1.3-2.6c0.9-0.7,2-1.1,3.5-1.1c1.5,0,2.8,0.3,3.7,1c0.9,0.7,1.4,1.6,1.3,2.7l0,0.1h-3.5c0-0.5-0.1-0.8-0.3-1
		c-0.2-0.2-0.6-0.4-1.1-0.4c-0.4,0-0.7,0.1-1,0.3c-0.3,0.2-0.4,0.5-0.4,0.8c0,0.3,0.1,0.6,0.4,0.8c0.3,0.2,0.9,0.4,1.8,0.6
		c1.4,0.3,2.5,0.7,3.2,1.3c0.7,0.6,1,1.3,1,2.4c0,1-0.5,1.9-1.4,2.6c-0.9,0.7-2.2,1-3.7,1c-1.6,0-2.8-0.4-3.8-1.2
		c-0.9-0.8-1.4-1.7-1.3-2.7l0-0.1h3.3c0,0.6,0.2,0.9,0.5,1.2c0.3,0.2,0.8,0.4,1.4,0.4c0.5,0,0.9-0.1,1.1-0.3
		C106.2,39.5,106.3,39.2,106.3,38.9z"/>
	<path class="st2" d="M116.5,36.3c0-1.8,0.4-3.3,1.2-4.4c0.8-1.1,1.9-1.7,3.3-1.7c0.5,0,1,0.1,1.5,0.4c0.4,0.2,0.8,0.6,1.2,1.1v-6.3
		h3.6v16.8h-3.1l-0.3-1.4c-0.4,0.5-0.8,0.9-1.3,1.2c-0.5,0.3-1,0.4-1.6,0.4c-1.4,0-2.5-0.5-3.3-1.6c-0.8-1.1-1.2-2.5-1.2-4.2V36.3z
		 M120.1,36.6c0,0.9,0.1,1.7,0.4,2.2c0.3,0.5,0.7,0.8,1.4,0.8c0.4,0,0.7-0.1,1-0.2s0.5-0.3,0.7-0.6V34c-0.2-0.3-0.4-0.5-0.7-0.7
		c-0.3-0.2-0.6-0.2-1-0.2c-0.6,0-1.1,0.3-1.4,0.9c-0.3,0.6-0.4,1.4-0.4,2.4V36.6z"/>
	<path class="st2" d="M134.7,42.3c-1.7,0-3.1-0.5-4.1-1.6s-1.5-2.4-1.5-4v-0.4c0-1.8,0.5-3.2,1.4-4.3c0.9-1.1,2.3-1.7,4-1.7
		c1.6,0,2.8,0.5,3.7,1.4s1.3,2.2,1.3,3.8v1.9h-6.6l0,0.1c0.1,0.6,0.3,1.1,0.7,1.5c0.4,0.4,1,0.6,1.6,0.6c0.7,0,1.2-0.1,1.6-0.2
		c0.4-0.1,0.9-0.3,1.6-0.6l0.9,2.2c-0.5,0.4-1.2,0.7-2,0.9S135.6,42.3,134.7,42.3z M134.4,33.1c-0.5,0-0.9,0.2-1.2,0.6
		c-0.3,0.4-0.4,0.9-0.5,1.5l0,0.1h3.1v-0.3c0-0.6-0.1-1-0.4-1.4C135.3,33.2,134.9,33.1,134.4,33.1z"/>
	<path class="st2" d="M150.3,42.1h-3.6V25.4h3.6V42.1z"/>
	<path class="st2" d="M152,36.2c0-1.7,0.5-3.2,1.5-4.3c1-1.1,2.4-1.6,4.1-1.6c1.8,0,3.2,0.5,4.1,1.6c1,1.1,1.5,2.5,1.5,4.3v0.2
		c0,1.8-0.5,3.2-1.5,4.3s-2.4,1.6-4.1,1.6c-1.8,0-3.2-0.5-4.2-1.6s-1.5-2.5-1.5-4.3V36.2z M155.6,36.4c0,1,0.2,1.7,0.5,2.3
		c0.3,0.6,0.8,0.8,1.6,0.8c0.7,0,1.2-0.3,1.5-0.8s0.5-1.3,0.5-2.3v-0.2c0-0.9-0.2-1.7-0.5-2.3s-0.8-0.9-1.5-0.9
		c-0.7,0-1.2,0.3-1.5,0.9c-0.3,0.6-0.5,1.3-0.5,2.3V36.4z"/>
	<path class="st2" d="M170.9,38.9c0-0.3-0.2-0.5-0.5-0.8c-0.3-0.2-0.9-0.4-1.8-0.6c-1.4-0.3-2.4-0.7-3.1-1.2s-1-1.3-1-2.3
		c0-1,0.4-1.9,1.3-2.6c0.9-0.7,2-1.1,3.5-1.1c1.5,0,2.8,0.3,3.7,1c0.9,0.7,1.4,1.6,1.3,2.7l0,0.1h-3.5c0-0.5-0.1-0.8-0.3-1
		c-0.2-0.2-0.6-0.4-1.1-0.4c-0.4,0-0.7,0.1-1,0.3c-0.3,0.2-0.4,0.5-0.4,0.8c0,0.3,0.1,0.6,0.4,0.8c0.3,0.2,0.9,0.4,1.8,0.6
		c1.4,0.3,2.5,0.7,3.2,1.3c0.7,0.6,1,1.3,1,2.4c0,1-0.5,1.9-1.4,2.6c-0.9,0.7-2.2,1-3.7,1c-1.6,0-2.8-0.4-3.8-1.2
		c-0.9-0.8-1.4-1.7-1.3-2.7l0-0.1h3.3c0,0.6,0.2,0.9,0.5,1.2c0.3,0.2,0.8,0.4,1.4,0.4c0.5,0,0.9-0.1,1.1-0.3
		C170.8,39.5,170.9,39.2,170.9,38.9z"/>
	<path class="st2" d="M194,36.6L194,36.6c0,1.9-0.6,3.3-1.6,4.3c-1,1-2.5,1.5-4.4,1.5c-1.9,0-3.5-0.6-4.7-1.8
		c-1.2-1.2-1.8-2.7-1.8-4.6v-3.3c0-1.9,0.6-3.4,1.7-4.6c1.2-1.2,2.7-1.8,4.5-1.8c2,0,3.5,0.5,4.5,1.5c1,1,1.6,2.4,1.8,4.2l0,0.1
		h-3.5c0-1-0.3-1.8-0.7-2.3c-0.4-0.5-1.1-0.7-2.1-0.7c-0.8,0-1.5,0.3-1.9,1c-0.5,0.7-0.7,1.5-0.7,2.6v3.3c0,1.1,0.3,2,0.8,2.6
		s1.2,1,2.1,1c0.9,0,1.5-0.2,1.9-0.7c0.4-0.5,0.6-1.2,0.6-2.2H194z"/>
	<path class="st2" d="M199.5,27.8h-3.6v-2.4h3.6V27.8z M199.5,42.1h-3.6V30.5h3.6V42.1z"/>
	<path class="st2" d="M206.7,39.6c0.5,0,0.8-0.1,1.1-0.4c0.2-0.3,0.4-0.7,0.4-1.2h3.3l0,0.1c0,1.3-0.4,2.3-1.3,3.1
		c-0.9,0.8-2.1,1.2-3.5,1.2c-1.8,0-3.1-0.5-4.1-1.6s-1.4-2.5-1.4-4.3v-0.2c0-1.7,0.5-3.2,1.4-4.3c1-1.1,2.3-1.6,4-1.6
		c1.5,0,2.7,0.4,3.5,1.2c0.9,0.8,1.3,1.9,1.3,3.4l0,0.1h-3.3c0-0.6-0.1-1-0.4-1.3c-0.2-0.3-0.6-0.5-1.1-0.5c-0.7,0-1.2,0.3-1.4,0.8
		c-0.3,0.6-0.4,1.3-0.4,2.3v0.2c0,1,0.1,1.7,0.4,2.3C205.5,39.3,206,39.6,206.7,39.6z"/>
	<path class="st2" d="M216.8,42.1h-3.6V25.4h3.6V42.1z"/>
	<path class="st2" d="M222.8,27.8h-3.6v-2.4h3.6V27.8z M222.8,42.1h-3.6V30.5h3.6V42.1z"/>
	<path class="st2" d="M231.1,38.9c0-0.3-0.2-0.5-0.5-0.8c-0.3-0.2-0.9-0.4-1.8-0.6c-1.4-0.3-2.4-0.7-3.1-1.2s-1-1.3-1-2.3
		c0-1,0.4-1.9,1.3-2.6c0.9-0.7,2-1.1,3.5-1.1c1.5,0,2.8,0.3,3.7,1c0.9,0.7,1.4,1.6,1.3,2.7l0,0.1H231c0-0.5-0.1-0.8-0.3-1
		c-0.2-0.2-0.6-0.4-1.1-0.4c-0.4,0-0.7,0.1-1,0.3c-0.3,0.2-0.4,0.5-0.4,0.8c0,0.3,0.1,0.6,0.4,0.8c0.3,0.2,0.9,0.4,1.8,0.6
		c1.4,0.3,2.5,0.7,3.2,1.3c0.7,0.6,1,1.3,1,2.4c0,1-0.5,1.9-1.4,2.6c-0.9,0.7-2.2,1-3.7,1c-1.6,0-2.8-0.4-3.8-1.2
		c-0.9-0.8-1.4-1.7-1.3-2.7l0-0.1h3.3c0,0.6,0.2,0.9,0.5,1.2c0.3,0.2,0.8,0.4,1.4,0.4c0.5,0,0.9-0.1,1.1-0.3
		C231,39.5,231.1,39.2,231.1,38.9z"/>
	<path class="st2" d="M240.6,27.6v2.9h2V33h-2v5.3c0,0.4,0.1,0.7,0.3,0.9c0.2,0.2,0.4,0.3,0.7,0.3c0.2,0,0.4,0,0.5,0
		c0.1,0,0.3,0,0.5-0.1l0.3,2.7c-0.4,0.1-0.8,0.2-1.1,0.2c-0.3,0-0.7,0.1-1.1,0.1c-1.2,0-2.1-0.3-2.7-1c-0.6-0.6-0.9-1.6-0.9-3V33
		h-1.6v-2.5h1.6v-2.9H240.6z"/>
	<path class="st2" d="M251,42.1c-0.1-0.2-0.2-0.4-0.3-0.6c-0.1-0.2-0.2-0.5-0.2-0.7c-0.3,0.5-0.8,0.9-1.2,1.1s-1.1,0.4-1.8,0.4
		c-1.1,0-2-0.3-2.7-1c-0.7-0.6-1-1.5-1-2.5c0-1.2,0.4-2,1.3-2.7c0.9-0.6,2.2-0.9,3.9-0.9h1.3v-0.8c0-0.5-0.1-0.9-0.3-1.1
		c-0.2-0.3-0.6-0.4-1.1-0.4c-0.4,0-0.7,0.1-0.9,0.3c-0.2,0.2-0.3,0.5-0.3,0.9l-3.5,0l0-0.1c0-1.1,0.4-1.9,1.3-2.7
		c0.9-0.7,2.2-1.1,3.7-1.1c1.4,0,2.6,0.4,3.5,1.1c0.9,0.7,1.3,1.7,1.3,3.1v4.4c0,0.6,0.1,1.2,0.2,1.7c0.1,0.5,0.3,1.1,0.5,1.6
		L251,42.1z M248.6,39.8c0.4,0,0.7-0.1,1-0.2c0.3-0.1,0.5-0.3,0.7-0.6v-1.8H249c-0.6,0-1,0.1-1.3,0.4c-0.3,0.3-0.4,0.6-0.4,1.1
		c0,0.3,0.1,0.6,0.3,0.8S248.2,39.8,248.6,39.8z"/>
	<path class="st2" d="M262,38.9c0-0.3-0.2-0.5-0.5-0.8c-0.3-0.2-0.9-0.4-1.8-0.6c-1.4-0.3-2.4-0.7-3.1-1.2c-0.7-0.6-1-1.3-1-2.3
		c0-1,0.4-1.9,1.3-2.6c0.9-0.7,2-1.1,3.5-1.1c1.5,0,2.8,0.3,3.7,1c0.9,0.7,1.4,1.6,1.3,2.7l0,0.1h-3.5c0-0.5-0.1-0.8-0.3-1
		c-0.2-0.2-0.6-0.4-1.1-0.4c-0.4,0-0.7,0.1-1,0.3c-0.3,0.2-0.4,0.5-0.4,0.8c0,0.3,0.1,0.6,0.4,0.8c0.3,0.2,0.9,0.4,1.8,0.6
		c1.4,0.3,2.5,0.7,3.2,1.3c0.7,0.6,1,1.3,1,2.4c0,1-0.5,1.9-1.4,2.6c-0.9,0.7-2.2,1-3.7,1c-1.6,0-2.8-0.4-3.8-1.2
		c-0.9-0.8-1.4-1.7-1.3-2.7l0-0.1h3.3c0,0.6,0.2,0.9,0.5,1.2c0.3,0.2,0.8,0.4,1.4,0.4c0.5,0,0.9-0.1,1.1-0.3
		C261.9,39.5,262,39.2,262,38.9z"/>
</g>
</svg>
