<?xml version="1.0" encoding="utf-8"?>
<!-- Generator: Adobe Illustrator 19.2.0, SVG Export Plug-In . SVG Version: 6.00 Build 0)  -->
<svg version="1.1" id="Capa_1" xmlns="http://www.w3.org/2000/svg" xmlns:xlink="http://www.w3.org/1999/xlink" x="0px" y="0px"
	 viewBox="0 0 310.8 67" style="enable-background:new 0 0 310.8 67;" xml:space="preserve">
<style type="text/css">
	.st0{fill:#560877;}
	.st1{fill:#480071;}
	.st2{fill:#FFFFFF;}
</style>
<path class="st0" d="M276.7-0.8H-0.1v67h276.8c18.5,0,34-15.3,34-33.8v-0.4C310.7,13.4,295.2-0.8,276.7-0.8z M276.7,51.5
	c-11.3,0-20.5-9.2-20.5-20.5c0-11.3,9.2-20.5,20.5-20.5c11.3,0,20.5,9.2,20.5,20.5C297.1,42.3,288,51.5,276.7,51.5z"/>
<path class="st1" d="M297,33.2c-1.1,10.3-9.7,18.3-20.3,18.3s-19.3-8-20.4-18.3H-0.1v33H279c0,0,12.8-0.2,22.6-10.9
	s9.1-22.1,9.1-22.1H297z"/>
<g>
	<path class="st2" d="M18.8,41.3V25.6h5.4c1.9,0,3.5,0.4,4.5,1.1c1.1,0.7,1.6,1.8,1.6,3.2c0,0.7-0.2,1.4-0.5,2
		c-0.4,0.6-0.9,1-1.6,1.3c0.9,0.2,1.6,0.6,2,1.3c0.4,0.6,0.7,1.3,0.7,2.2c0,1.5-0.5,2.7-1.5,3.5c-1,0.8-2.5,1.2-4.4,1.2H18.8z
		 M22.4,32.2h1.8c0.8,0,1.4-0.2,1.8-0.5c0.4-0.3,0.6-0.8,0.6-1.3c0-0.7-0.2-1.2-0.6-1.5c-0.4-0.3-1.1-0.5-1.9-0.5h-1.7V32.2z
		 M22.4,34.6v3.9h2.5c0.8,0,1.4-0.2,1.7-0.5c0.4-0.3,0.6-0.8,0.6-1.4c0-0.7-0.2-1.2-0.5-1.5c-0.3-0.3-0.9-0.5-1.6-0.5H22.4z"/>
	<path class="st2" d="M36.5,27h-3.6v-2.4h3.6V27z M36.5,41.3h-3.6V29.7h3.6V41.3z"/>
	<path class="st2" d="M43.7,38.7c0.5,0,0.8-0.1,1.1-0.4c0.2-0.3,0.4-0.7,0.4-1.2h3.3l0,0.1c0,1.3-0.4,2.3-1.3,3.1
		c-0.9,0.8-2.1,1.2-3.5,1.2c-1.8,0-3.1-0.5-4.1-1.6s-1.4-2.5-1.4-4.3v-0.2c0-1.7,0.5-3.2,1.4-4.3c1-1.1,2.3-1.6,4-1.6
		c1.5,0,2.7,0.4,3.5,1.2c0.9,0.8,1.3,1.9,1.3,3.4l0,0.1h-3.3c0-0.6-0.1-1-0.4-1.3c-0.2-0.3-0.6-0.5-1.1-0.5c-0.7,0-1.2,0.3-1.4,0.8
		c-0.3,0.6-0.4,1.3-0.4,2.3v0.2c0,1,0.1,1.7,0.4,2.3C42.5,38.4,43,38.7,43.7,38.7z"/>
	<path class="st2" d="M53.8,27h-3.6v-2.4h3.6V27z M53.8,41.3h-3.6V29.7h3.6V41.3z"/>
	<path class="st2" d="M65.3,38.5h6.7v2.8H61.7V25.6h3.6V38.5z"/>
	<path class="st2" d="M78.7,41.5c-1.7,0-3.1-0.5-4.1-1.6s-1.5-2.4-1.5-4v-0.4c0-1.8,0.5-3.2,1.4-4.3c0.9-1.1,2.3-1.7,4-1.7
		c1.6,0,2.8,0.5,3.7,1.4c0.9,0.9,1.3,2.2,1.3,3.8v1.9h-6.6l0,0.1c0.1,0.6,0.3,1.1,0.7,1.5c0.4,0.4,1,0.6,1.6,0.6
		c0.7,0,1.2-0.1,1.6-0.2c0.4-0.1,0.9-0.3,1.6-0.6l0.9,2.2c-0.5,0.4-1.2,0.7-2,0.9S79.6,41.5,78.7,41.5z M78.5,32.2
		c-0.5,0-0.9,0.2-1.2,0.6c-0.3,0.4-0.4,0.9-0.5,1.5l0,0.1H80v-0.3c0-0.6-0.1-1-0.4-1.4C79.4,32.4,79,32.2,78.5,32.2z"/>
	<path class="st2" d="M89.4,36.2L89.4,36.2L89.4,36.2l2-6.5h3.9L90.6,43c-0.4,0.9-0.8,1.6-1.4,2.1c-0.6,0.6-1.5,0.8-2.7,0.8
		c-0.3,0-0.6,0-0.8-0.1c-0.2,0-0.5-0.1-0.9-0.2l0.4-2.6c0.1,0,0.2,0,0.2,0c0,0,0.1,0,0.2,0c0.6,0,1-0.1,1.3-0.3
		c0.3-0.2,0.5-0.4,0.6-0.8l0.3-0.8l-4-11.8h3.9L89.4,36.2z"/>
</g>
</svg>
