<?xml version="1.0" encoding="utf-8"?>
<!-- Generator: Adobe Illustrator 19.2.0, SVG Export Plug-In . SVG Version: 6.00 Build 0)  -->
<svg version="1.1" id="Capa_1" xmlns="http://www.w3.org/2000/svg" xmlns:xlink="http://www.w3.org/1999/xlink" x="0px" y="0px"
	 viewBox="0 0 375.6 67" style="enable-background:new 0 0 375.6 67;" xml:space="preserve">
<style type="text/css">
	.st0{fill:#F0A30E;}
	.st1{fill:#EC8B02;}
	.st2{fill:#FFFFFF;}
</style>
<g>
	<g>
		<path class="st0" d="M341.7,0H0v67h341.7c18.5,0,34-15.3,34-33.8v-0.4C375.6,14.2,360.2,0,341.7,0z M341.7,52.3
			c-11.3,0-20.5-9.2-20.5-20.5c0-11.3,9.2-20.5,20.5-20.5c11.3,0,20.5,9.2,20.5,20.5C362.1,43.2,353,52.3,341.7,52.3z"/>
		<path class="st1" d="M362,34c-1.1,10.3-9.7,18.3-20.3,18.3s-19.3-8-20.4-18.3H0v33h343.9c0,0,12.8-0.2,22.6-10.9
			c9.8-10.7,9.1-22.1,9.1-22.1H362z"/>
	</g>
	<g>
		<path class="st2" d="M31.9,35.7c0,1.9-0.6,3.5-1.8,4.8c-1.2,1.2-2.8,1.9-4.8,1.9c-2,0-3.6-0.6-4.8-1.9c-1.2-1.2-1.8-2.8-1.8-4.8
			v-2.8c0-1.9,0.6-3.5,1.8-4.8c1.2-1.3,2.8-1.9,4.8-1.9c2,0,3.6,0.6,4.8,1.9c1.2,1.3,1.8,2.8,1.8,4.8V35.7z M28.2,32.9
			c0-1.1-0.3-2-0.8-2.8c-0.5-0.7-1.3-1.1-2.2-1.1c-1,0-1.7,0.4-2.2,1.1c-0.5,0.7-0.8,1.6-0.8,2.8v2.8c0,1.1,0.3,2.1,0.8,2.8
			c0.5,0.7,1.3,1.1,2.3,1.1c1,0,1.7-0.4,2.2-1.1c0.5-0.7,0.8-1.6,0.8-2.8V32.9z"/>
		<path class="st2" d="M44.5,36.6c0,1.8-0.4,3.2-1.1,4.2c-0.8,1-1.9,1.6-3.4,1.6c-0.6,0-1.2-0.1-1.7-0.4s-0.9-0.7-1.2-1.2l-0.2,1.4
			h-3.1V25.4h3.6v6.3c0.3-0.4,0.7-0.8,1.1-1c0.4-0.2,0.9-0.3,1.5-0.3c1.5,0,2.6,0.5,3.4,1.6c0.8,1.1,1.1,2.6,1.1,4.4V36.6z
			 M40.9,36.3c0-1-0.1-1.8-0.4-2.4s-0.7-0.9-1.4-0.9c-0.4,0-0.7,0.1-1,0.2c-0.3,0.1-0.5,0.4-0.7,0.6v4.9c0.2,0.3,0.4,0.4,0.7,0.6
			c0.3,0.1,0.6,0.2,1,0.2c0.7,0,1.2-0.2,1.4-0.7c0.2-0.5,0.4-1.2,0.4-2.3V36.3z"/>
		<path class="st2" d="M49.9,42.1h-3.6V25.4h3.6V42.1z"/>
		<path class="st2" d="M56,27.8h-3.6v-2.4H56V27.8z M56,42.1h-3.6V30.5H56V42.1z"/>
		<path class="st2" d="M57.7,36.3c0-1.8,0.4-3.3,1.2-4.4c0.8-1.1,1.9-1.7,3.3-1.7c0.6,0,1.2,0.1,1.6,0.4c0.5,0.3,0.9,0.7,1.2,1.2
			l0.2-1.5h3.2v11.2c0,1.6-0.5,2.8-1.6,3.7c-1.1,0.9-2.5,1.4-4.3,1.4c-0.6,0-1.2-0.1-1.9-0.2c-0.7-0.2-1.3-0.4-1.9-0.7l0.6-2.7
			c0.5,0.2,1,0.4,1.5,0.5c0.5,0.1,1,0.2,1.6,0.2c0.7,0,1.3-0.2,1.7-0.6c0.4-0.4,0.6-0.9,0.6-1.6v-0.6c-0.3,0.4-0.7,0.7-1.1,1
			c-0.4,0.2-0.9,0.3-1.5,0.3c-1.4,0-2.5-0.5-3.3-1.6c-0.8-1.1-1.2-2.5-1.2-4.2V36.3z M61.3,36.6c0,0.9,0.1,1.7,0.4,2.2
			s0.7,0.8,1.4,0.8c0.4,0,0.7-0.1,1-0.2c0.3-0.1,0.5-0.3,0.7-0.6v-4.9c-0.2-0.3-0.4-0.5-0.7-0.6c-0.3-0.2-0.6-0.2-1-0.2
			c-0.6,0-1.1,0.3-1.4,0.9c-0.3,0.6-0.4,1.4-0.4,2.4V36.6z"/>
		<path class="st2" d="M77.2,42.1c-0.1-0.2-0.2-0.4-0.3-0.6c-0.1-0.2-0.2-0.5-0.2-0.7c-0.3,0.5-0.8,0.9-1.2,1.1s-1.1,0.4-1.8,0.4
			c-1.1,0-2-0.3-2.7-1c-0.7-0.6-1-1.5-1-2.5c0-1.2,0.4-2,1.3-2.7c0.9-0.6,2.2-0.9,3.9-0.9h1.3v-0.8c0-0.5-0.1-0.9-0.3-1.1
			c-0.2-0.3-0.6-0.4-1.1-0.4c-0.4,0-0.7,0.1-0.9,0.3c-0.2,0.2-0.3,0.5-0.3,0.9l-3.5,0l0-0.1c-0.1-1.1,0.4-1.9,1.3-2.7
			c0.9-0.7,2.2-1.1,3.7-1.1c1.4,0,2.6,0.4,3.5,1.1c0.9,0.7,1.3,1.7,1.3,3.1v4.4c0,0.6,0.1,1.2,0.2,1.7c0.1,0.5,0.3,1.1,0.5,1.6
			L77.2,42.1z M74.8,39.8c0.4,0,0.7-0.1,1-0.2c0.3-0.1,0.5-0.3,0.7-0.6v-1.8h-1.3c-0.6,0-1,0.1-1.3,0.4c-0.3,0.3-0.4,0.6-0.4,1.1
			c0,0.3,0.1,0.6,0.3,0.8C74.2,39.7,74.5,39.8,74.8,39.8z"/>
		<path class="st2" d="M87.2,39.6c0.5,0,0.8-0.1,1.1-0.4c0.2-0.3,0.4-0.7,0.4-1.2h3.3l0,0.1c0,1.3-0.4,2.3-1.3,3.1
			c-0.9,0.8-2.1,1.2-3.5,1.2c-1.8,0-3.1-0.5-4.1-1.6c-1-1.1-1.4-2.5-1.4-4.3v-0.2c0-1.7,0.5-3.2,1.4-4.3c1-1.1,2.3-1.6,4-1.6
			c1.5,0,2.7,0.4,3.5,1.2c0.9,0.8,1.3,1.9,1.3,3.4l0,0.1h-3.3c0-0.6-0.1-1-0.4-1.3c-0.2-0.3-0.6-0.5-1.1-0.5c-0.7,0-1.2,0.3-1.4,0.8
			c-0.3,0.6-0.4,1.3-0.4,2.3v0.2c0,1,0.1,1.7,0.4,2.3C86,39.3,86.5,39.6,87.2,39.6z"/>
		<path class="st2" d="M97.3,27.8h-3.6v-2.4h3.6V27.8z M97.3,42.1h-3.6V30.5h3.6V42.1z"/>
		<path class="st2" d="M99,36.2c0-1.7,0.5-3.2,1.5-4.3c1-1.1,2.4-1.6,4.1-1.6c1.8,0,3.2,0.5,4.1,1.6c1,1.1,1.5,2.5,1.5,4.3v0.2
			c0,1.8-0.5,3.2-1.5,4.3s-2.4,1.6-4.1,1.6c-1.8,0-3.2-0.5-4.2-1.6S99,38.2,99,36.4V36.2z M102.6,36.4c0,1,0.2,1.7,0.5,2.3
			c0.3,0.6,0.8,0.8,1.6,0.8c0.7,0,1.2-0.3,1.5-0.8s0.5-1.3,0.5-2.3v-0.2c0-0.9-0.2-1.7-0.5-2.3s-0.8-0.9-1.5-0.9
			c-0.7,0-1.2,0.3-1.5,0.9c-0.3,0.6-0.5,1.3-0.5,2.3V36.4z"/>
		<path class="st2" d="M115.2,30.5l0.1,1.6c0.4-0.6,0.8-1,1.4-1.4c0.6-0.3,1.2-0.5,1.9-0.5c1.1,0,2,0.4,2.7,1.1c0.6,0.7,1,1.9,1,3.5
			v7.2h-3.6v-7.2c0-0.7-0.1-1.1-0.4-1.4c-0.3-0.3-0.7-0.4-1.2-0.4c-0.3,0-0.6,0.1-0.9,0.2c-0.3,0.1-0.5,0.3-0.7,0.5v8.4h-3.6V30.5
			H115.2z"/>
		<path class="st2" d="M129.5,42.3c-1.7,0-3.1-0.5-4.1-1.6c-1-1.1-1.5-2.4-1.5-4v-0.4c0-1.8,0.5-3.2,1.4-4.3c0.9-1.1,2.3-1.7,4-1.7
			c1.6,0,2.8,0.5,3.7,1.4c0.9,0.9,1.3,2.2,1.3,3.8v1.9h-6.6l0,0.1c0.1,0.6,0.3,1.1,0.7,1.5c0.4,0.4,1,0.6,1.6,0.6
			c0.7,0,1.2-0.1,1.6-0.2c0.4-0.1,0.9-0.3,1.6-0.6l0.9,2.2c-0.5,0.4-1.2,0.7-2,0.9C131.3,42.2,130.4,42.3,129.5,42.3z M129.3,33.1
			c-0.5,0-0.9,0.2-1.2,0.6c-0.3,0.4-0.4,0.9-0.5,1.5l0,0.1h3.1v-0.3c0-0.6-0.1-1-0.4-1.4C130.1,33.2,129.8,33.1,129.3,33.1z"/>
		<path class="st2" d="M141.9,38.9c0-0.3-0.2-0.5-0.5-0.8c-0.3-0.2-0.9-0.4-1.8-0.6c-1.4-0.3-2.4-0.7-3.1-1.2s-1-1.3-1-2.3
			c0-1,0.4-1.9,1.3-2.6c0.9-0.7,2-1.1,3.5-1.1c1.5,0,2.8,0.3,3.7,1c0.9,0.7,1.4,1.6,1.3,2.7l0,0.1h-3.5c0-0.5-0.1-0.8-0.3-1
			c-0.2-0.2-0.6-0.4-1.1-0.4c-0.4,0-0.7,0.1-1,0.3c-0.3,0.2-0.4,0.5-0.4,0.8c0,0.3,0.1,0.6,0.4,0.8c0.3,0.2,0.9,0.4,1.8,0.6
			c1.4,0.3,2.5,0.7,3.2,1.3c0.7,0.6,1,1.3,1,2.4c0,1-0.5,1.9-1.4,2.6s-2.2,1-3.7,1c-1.6,0-2.8-0.4-3.8-1.2c-0.9-0.8-1.4-1.7-1.3-2.7
			l0-0.1h3.3c0,0.6,0.2,0.9,0.5,1.2c0.3,0.2,0.8,0.4,1.4,0.4c0.5,0,0.9-0.1,1.1-0.3C141.8,39.5,141.9,39.2,141.9,38.9z"/>
		<path class="st2" d="M152.1,36.3c0-1.8,0.4-3.3,1.2-4.4c0.8-1.1,1.9-1.7,3.3-1.7c0.5,0,1,0.1,1.5,0.4c0.4,0.2,0.8,0.6,1.2,1.1
			v-6.3h3.6v16.8h-3.1l-0.3-1.4c-0.4,0.5-0.8,0.9-1.3,1.2s-1,0.4-1.6,0.4c-1.4,0-2.5-0.5-3.3-1.6c-0.8-1.1-1.2-2.5-1.2-4.2V36.3z
			 M155.7,36.6c0,0.9,0.1,1.7,0.4,2.2s0.7,0.8,1.4,0.8c0.4,0,0.7-0.1,1-0.2c0.3-0.1,0.5-0.3,0.7-0.6V34c-0.2-0.3-0.4-0.5-0.7-0.7
			c-0.3-0.2-0.6-0.2-1-0.2c-0.6,0-1.1,0.3-1.4,0.9c-0.3,0.6-0.4,1.4-0.4,2.4V36.6z"/>
		<path class="st2" d="M170.2,42.3c-1.7,0-3.1-0.5-4.1-1.6c-1-1.1-1.5-2.4-1.5-4v-0.4c0-1.8,0.5-3.2,1.4-4.3c0.9-1.1,2.3-1.7,4-1.7
			c1.6,0,2.8,0.5,3.7,1.4c0.9,0.9,1.3,2.2,1.3,3.8v1.9h-6.6l0,0.1c0.1,0.6,0.3,1.1,0.7,1.5c0.4,0.4,1,0.6,1.6,0.6
			c0.7,0,1.2-0.1,1.6-0.2c0.4-0.1,0.9-0.3,1.6-0.6l0.9,2.2c-0.5,0.4-1.2,0.7-2,0.9C172,42.2,171.2,42.3,170.2,42.3z M170,33.1
			c-0.5,0-0.9,0.2-1.2,0.6c-0.3,0.4-0.4,0.9-0.5,1.5l0,0.1h3.1v-0.3c0-0.6-0.1-1-0.4-1.4C170.9,33.2,170.5,33.1,170,33.1z"/>
		<path class="st2" d="M185.9,42.1h-3.6V25.4h3.6V42.1z"/>
		<path class="st2" d="M187.6,36.2c0-1.7,0.5-3.2,1.5-4.3c1-1.1,2.4-1.6,4.1-1.6c1.8,0,3.2,0.5,4.1,1.6c1,1.1,1.5,2.5,1.5,4.3v0.2
			c0,1.8-0.5,3.2-1.5,4.3s-2.4,1.6-4.1,1.6c-1.8,0-3.2-0.5-4.2-1.6s-1.5-2.5-1.5-4.3V36.2z M191.2,36.4c0,1,0.2,1.7,0.5,2.3
			c0.3,0.6,0.8,0.8,1.6,0.8c0.7,0,1.2-0.3,1.5-0.8s0.5-1.3,0.5-2.3v-0.2c0-0.9-0.2-1.7-0.5-2.3s-0.8-0.9-1.5-0.9
			c-0.7,0-1.2,0.3-1.5,0.9c-0.3,0.6-0.5,1.3-0.5,2.3V36.4z"/>
		<path class="st2" d="M206.5,38.9c0-0.3-0.2-0.5-0.5-0.8c-0.3-0.2-0.9-0.4-1.8-0.6c-1.4-0.3-2.4-0.7-3.1-1.2s-1-1.3-1-2.3
			c0-1,0.4-1.9,1.3-2.6c0.9-0.7,2-1.1,3.5-1.1c1.5,0,2.8,0.3,3.7,1c0.9,0.7,1.4,1.6,1.3,2.7l0,0.1h-3.5c0-0.5-0.1-0.8-0.3-1
			c-0.2-0.2-0.6-0.4-1.1-0.4c-0.4,0-0.7,0.1-1,0.3c-0.3,0.2-0.4,0.5-0.4,0.8c0,0.3,0.1,0.6,0.4,0.8c0.3,0.2,0.9,0.4,1.8,0.6
			c1.4,0.3,2.5,0.7,3.2,1.3c0.7,0.6,1,1.3,1,2.4c0,1-0.5,1.9-1.4,2.6s-2.2,1-3.7,1c-1.6,0-2.8-0.4-3.8-1.2c-0.9-0.8-1.4-1.7-1.3-2.7
			l0-0.1h3.3c0,0.6,0.2,0.9,0.5,1.2c0.3,0.2,0.8,0.4,1.4,0.4c0.5,0,0.9-0.1,1.1-0.3C206.4,39.5,206.5,39.2,206.5,38.9z"/>
		<path class="st2" d="M229.6,36.6L229.6,36.6c-0.1,1.9-0.6,3.3-1.6,4.3c-1,1-2.5,1.5-4.4,1.5c-1.9,0-3.5-0.6-4.7-1.8
			c-1.2-1.2-1.8-2.7-1.8-4.6v-3.3c0-1.9,0.6-3.4,1.7-4.6c1.2-1.2,2.7-1.8,4.5-1.8c2,0,3.5,0.5,4.5,1.5c1,1,1.6,2.4,1.8,4.2l0,0.1
			H226c0-1-0.3-1.8-0.7-2.3c-0.4-0.5-1.1-0.7-2.1-0.7c-0.8,0-1.5,0.3-1.9,1c-0.5,0.7-0.7,1.5-0.7,2.6v3.3c0,1.1,0.3,2,0.8,2.6
			s1.2,1,2.1,1c0.9,0,1.5-0.2,1.9-0.7c0.4-0.5,0.6-1.2,0.6-2.2H229.6z"/>
		<path class="st2" d="M235.1,27.8h-3.6v-2.4h3.6V27.8z M235.1,42.1h-3.6V30.5h3.6V42.1z"/>
		<path class="st2" d="M242.3,39.6c0.5,0,0.8-0.1,1.1-0.4c0.2-0.3,0.4-0.7,0.4-1.2h3.3l0,0.1c0,1.3-0.4,2.3-1.3,3.1
			c-0.9,0.8-2.1,1.2-3.5,1.2c-1.8,0-3.1-0.5-4.1-1.6c-1-1.1-1.4-2.5-1.4-4.3v-0.2c0-1.7,0.5-3.2,1.4-4.3c1-1.1,2.3-1.6,4-1.6
			c1.5,0,2.7,0.4,3.5,1.2c0.9,0.8,1.3,1.9,1.3,3.4l0,0.1h-3.3c0-0.6-0.1-1-0.4-1.3c-0.2-0.3-0.6-0.5-1.1-0.5c-0.7,0-1.2,0.3-1.4,0.8
			c-0.3,0.6-0.4,1.3-0.4,2.3v0.2c0,1,0.1,1.7,0.4,2.3C241.1,39.3,241.6,39.6,242.3,39.6z"/>
		<path class="st2" d="M252.4,42.1h-3.6V25.4h3.6V42.1z"/>
		<path class="st2" d="M258.4,27.8h-3.6v-2.4h3.6V27.8z M258.4,42.1h-3.6V30.5h3.6V42.1z"/>
		<path class="st2" d="M266.7,38.9c0-0.3-0.2-0.5-0.5-0.8s-0.9-0.4-1.8-0.6c-1.4-0.3-2.4-0.7-3.1-1.2s-1-1.3-1-2.3
			c0-1,0.4-1.9,1.3-2.6c0.9-0.7,2-1.1,3.5-1.1c1.5,0,2.8,0.3,3.7,1c0.9,0.7,1.4,1.6,1.3,2.7l0,0.1h-3.5c0-0.5-0.1-0.8-0.3-1
			c-0.2-0.2-0.6-0.4-1.1-0.4c-0.4,0-0.7,0.1-1,0.3c-0.3,0.2-0.4,0.5-0.4,0.8c0,0.3,0.1,0.6,0.4,0.8s0.9,0.4,1.8,0.6
			c1.4,0.3,2.5,0.7,3.2,1.3c0.7,0.6,1,1.3,1,2.4c0,1-0.5,1.9-1.4,2.6c-0.9,0.7-2.2,1-3.7,1c-1.6,0-2.8-0.4-3.8-1.2
			c-0.9-0.8-1.4-1.7-1.3-2.7l0-0.1h3.3c0,0.6,0.2,0.9,0.5,1.2c0.3,0.2,0.8,0.4,1.4,0.4c0.5,0,0.9-0.1,1.1-0.3
			C266.6,39.5,266.7,39.2,266.7,38.9z"/>
		<path class="st2" d="M276.2,27.6v2.9h2V33h-2v5.3c0,0.4,0.1,0.7,0.3,0.9c0.2,0.2,0.4,0.3,0.7,0.3c0.2,0,0.4,0,0.5,0
			c0.1,0,0.3,0,0.5-0.1l0.3,2.7c-0.4,0.1-0.8,0.2-1.1,0.2c-0.3,0-0.7,0.1-1.1,0.1c-1.2,0-2.1-0.3-2.7-1c-0.6-0.6-0.9-1.6-0.9-3V33
			h-1.6v-2.5h1.6v-2.9H276.2z"/>
		<path class="st2" d="M286.5,42.1c-0.1-0.2-0.2-0.4-0.3-0.6c-0.1-0.2-0.2-0.5-0.2-0.7c-0.3,0.5-0.8,0.9-1.2,1.1
			c-0.5,0.3-1.1,0.4-1.8,0.4c-1.1,0-2-0.3-2.7-1c-0.7-0.6-1-1.5-1-2.5c0-1.2,0.4-2,1.3-2.7c0.9-0.6,2.2-0.9,3.9-0.9h1.3v-0.8
			c0-0.5-0.1-0.9-0.3-1.1c-0.2-0.3-0.6-0.4-1.1-0.4c-0.4,0-0.7,0.1-0.9,0.3c-0.2,0.2-0.3,0.5-0.3,0.9l-3.5,0l0-0.1
			c0-1.1,0.4-1.9,1.3-2.7c0.9-0.7,2.2-1.1,3.7-1.1c1.4,0,2.6,0.4,3.5,1.1c0.9,0.7,1.3,1.7,1.3,3.1v4.4c0,0.6,0.1,1.2,0.2,1.7
			c0.1,0.5,0.3,1.1,0.5,1.6L286.5,42.1z M284.1,39.8c0.4,0,0.7-0.1,1-0.2c0.3-0.1,0.5-0.3,0.7-0.6v-1.8h-1.3c-0.6,0-1,0.1-1.3,0.4
			s-0.4,0.6-0.4,1.1c0,0.3,0.1,0.6,0.3,0.8C283.5,39.7,283.8,39.8,284.1,39.8z"/>
		<path class="st2" d="M297.6,38.9c0-0.3-0.2-0.5-0.5-0.8s-0.9-0.4-1.8-0.6c-1.4-0.3-2.4-0.7-3.1-1.2s-1-1.3-1-2.3
			c0-1,0.4-1.9,1.3-2.6c0.9-0.7,2-1.1,3.5-1.1c1.5,0,2.8,0.3,3.7,1c0.9,0.7,1.4,1.6,1.3,2.7l0,0.1h-3.5c0-0.5-0.1-0.8-0.3-1
			s-0.6-0.4-1.1-0.4c-0.4,0-0.7,0.1-1,0.3c-0.3,0.2-0.4,0.5-0.4,0.8c0,0.3,0.1,0.6,0.4,0.8s0.9,0.4,1.8,0.6c1.4,0.3,2.5,0.7,3.2,1.3
			c0.7,0.6,1,1.3,1,2.4c0,1-0.5,1.9-1.4,2.6c-0.9,0.7-2.2,1-3.7,1c-1.6,0-2.8-0.4-3.8-1.2c-0.9-0.8-1.4-1.7-1.3-2.7l0-0.1h3.3
			c0,0.6,0.2,0.9,0.5,1.2c0.3,0.2,0.8,0.4,1.4,0.4c0.5,0,0.9-0.1,1.1-0.3C297.5,39.5,297.6,39.2,297.6,38.9z"/>
	</g>
</g>
</svg>
