<?xml version="1.0" encoding="utf-8"?>
<!-- Generator: Adobe Illustrator 19.2.0, SVG Export Plug-In . SVG Version: 6.00 Build 0)  -->
<svg version="1.1" id="Capa_1" xmlns="http://www.w3.org/2000/svg" xmlns:xlink="http://www.w3.org/1999/xlink" x="0px" y="0px"
	 viewBox="0 0 235.1 67" style="enable-background:new 0 0 235.1 67;" xml:space="preserve">
<style type="text/css">
	.st0{fill:#E00A16;}
	.st1{fill:#D8D6CD;}
	.st2{fill:#FFFFFF;}
</style>
<g>
	<g>
		<path class="st0" d="M201.1,0H0v67h201.1c18.5,0,34-15.3,34-33.8v-0.4C235,14.2,219.6,0,201.1,0z M201.1,52.3
			c-11.3,0-20.5-9.2-20.5-20.5c0-11.3,9.2-20.5,20.5-20.5c11.3,0,20.5,9.2,20.5,20.5C221.5,43.2,212.4,52.3,201.1,52.3z"/>
		<g>
			<path class="st1" d="M221.4,34c-1.1,10.3-9.7,18.3-20.3,18.3s-19.3-8-20.4-18.3H0v33h202.3c0,0,13.8-0.2,23.6-10.9
				C235.7,45.4,235,34,235,34H221.4z"/>
		</g>
	</g>
	<g>
		<path class="st2" d="M28.4,38c0-0.6-0.2-1-0.5-1.3s-1-0.6-2-1c-2-0.6-3.4-1.3-4.4-2C20.5,33,20,32,20,30.6c0-1.3,0.6-2.4,1.7-3.2
			c1.1-0.8,2.6-1.2,4.3-1.2c1.7,0,3.2,0.4,4.3,1.3s1.6,2,1.6,3.4l0,0.1h-3.5c0-0.6-0.2-1.1-0.6-1.5c-0.4-0.4-1-0.6-1.8-0.6
			c-0.7,0-1.3,0.2-1.7,0.5c-0.4,0.3-0.6,0.7-0.6,1.2c0,0.5,0.2,0.8,0.6,1.1c0.4,0.3,1.2,0.6,2.4,1c1.8,0.5,3.1,1.2,4,2
			S32,36.6,32,38c0,1.4-0.5,2.5-1.6,3.2c-1.1,0.8-2.5,1.2-4.3,1.2c-1.8,0-3.3-0.4-4.6-1.3c-1.3-0.9-1.9-2.2-1.9-3.9l0-0.1h3.5
			c0,0.9,0.2,1.5,0.7,1.9c0.5,0.4,1.2,0.6,2.2,0.6c0.8,0,1.3-0.2,1.7-0.5S28.4,38.5,28.4,38z"/>
		<path class="st2" d="M39.1,42.3c-1.7,0-3.1-0.5-4.1-1.6s-1.5-2.4-1.5-4v-0.4c0-1.8,0.5-3.2,1.4-4.3c0.9-1.1,2.3-1.7,4-1.7
			c1.6,0,2.8,0.5,3.7,1.4c0.9,0.9,1.3,2.2,1.3,3.8v1.9h-6.6l0,0.1c0.1,0.6,0.3,1.1,0.7,1.5c0.4,0.4,1,0.6,1.6,0.6
			c0.7,0,1.2-0.1,1.6-0.2s0.9-0.3,1.6-0.6l0.9,2.2c-0.5,0.4-1.2,0.7-2,0.9S40,42.3,39.1,42.3z M38.8,33.1c-0.5,0-0.9,0.2-1.2,0.6
			c-0.3,0.4-0.4,0.9-0.5,1.5l0,0.1h3.1v-0.3c0-0.6-0.1-1-0.4-1.4C39.7,33.2,39.3,33.1,38.8,33.1z"/>
		<path class="st2" d="M44.9,36.3c0-1.8,0.4-3.3,1.2-4.4c0.8-1.1,1.9-1.7,3.3-1.7c0.6,0,1.2,0.1,1.6,0.4c0.5,0.3,0.9,0.7,1.2,1.2
			l0.2-1.5h3.2v11.2c0,1.6-0.5,2.8-1.6,3.7c-1.1,0.9-2.5,1.4-4.3,1.4c-0.6,0-1.2-0.1-1.9-0.2c-0.7-0.2-1.3-0.4-1.9-0.7l0.6-2.7
			c0.5,0.2,1,0.4,1.5,0.5c0.5,0.1,1,0.2,1.6,0.2c0.7,0,1.3-0.2,1.7-0.6c0.4-0.4,0.6-0.9,0.6-1.6v-0.6c-0.3,0.4-0.7,0.7-1.1,1
			c-0.4,0.2-0.9,0.3-1.5,0.3c-1.4,0-2.5-0.5-3.3-1.6c-0.8-1.1-1.2-2.5-1.2-4.2V36.3z M48.5,36.6c0,0.9,0.1,1.7,0.4,2.2
			s0.7,0.8,1.4,0.8c0.4,0,0.7-0.1,1-0.2c0.3-0.1,0.5-0.3,0.7-0.6v-4.9c-0.2-0.3-0.4-0.5-0.7-0.6s-0.6-0.2-1-0.2
			c-0.6,0-1.1,0.3-1.4,0.9c-0.3,0.6-0.4,1.4-0.4,2.4V36.6z"/>
		<path class="st2" d="M64.7,40.7c-0.4,0.5-0.8,0.9-1.4,1.2s-1.2,0.4-1.8,0.4c-1.2,0-2.1-0.4-2.8-1.2s-1-2-1-3.6v-7.1h3.6v7.1
			c0,0.7,0.1,1.1,0.4,1.5s0.6,0.5,1.1,0.5c0.4,0,0.7-0.1,1-0.2c0.3-0.1,0.5-0.3,0.8-0.5v-8.4h3.6v11.6H65L64.7,40.7z"/>
		<path class="st2" d="M76.7,33.7l-1.3,0c-0.4,0-0.8,0.1-1,0.2c-0.3,0.1-0.5,0.3-0.6,0.6v7.6h-3.6V30.5h3.4l0.1,1.7
			c0.2-0.6,0.6-1.1,1-1.4c0.4-0.3,0.9-0.5,1.4-0.5c0.2,0,0.3,0,0.5,0c0.2,0,0.3,0.1,0.5,0.1L76.7,33.7z"/>
		<path class="st2" d="M82.1,27.8h-3.6v-2.4h3.6V27.8z M82.1,42.1h-3.6V30.5h3.6V42.1z"/>
		<path class="st2" d="M83.8,36.3c0-1.8,0.4-3.3,1.2-4.4c0.8-1.1,1.9-1.7,3.3-1.7c0.5,0,1,0.1,1.5,0.4s0.8,0.6,1.2,1.1v-6.3h3.6
			v16.8h-3.1l-0.3-1.4c-0.4,0.5-0.8,0.9-1.3,1.2s-1,0.4-1.6,0.4c-1.4,0-2.5-0.5-3.3-1.6c-0.8-1.1-1.2-2.5-1.2-4.2V36.3z M87.4,36.6
			c0,0.9,0.1,1.7,0.4,2.2s0.7,0.8,1.4,0.8c0.4,0,0.7-0.1,1-0.2s0.5-0.3,0.7-0.6V34c-0.2-0.3-0.4-0.5-0.7-0.7c-0.3-0.2-0.6-0.2-1-0.2
			c-0.6,0-1.1,0.3-1.4,0.9c-0.3,0.6-0.4,1.4-0.4,2.4V36.6z"/>
		<path class="st2" d="M103.3,42.1c-0.1-0.2-0.2-0.4-0.3-0.6c-0.1-0.2-0.2-0.5-0.2-0.7c-0.3,0.5-0.8,0.9-1.2,1.1
			c-0.5,0.3-1.1,0.4-1.8,0.4c-1.1,0-2-0.3-2.7-1c-0.7-0.6-1-1.5-1-2.5c0-1.2,0.4-2,1.3-2.7c0.9-0.6,2.2-0.9,3.9-0.9h1.3v-0.8
			c0-0.5-0.1-0.9-0.3-1.1c-0.2-0.3-0.6-0.4-1.1-0.4c-0.4,0-0.7,0.1-0.9,0.3c-0.2,0.2-0.3,0.5-0.3,0.9l-3.5,0l0-0.1
			c-0.1-1.1,0.4-1.9,1.3-2.7c0.9-0.7,2.2-1.1,3.7-1.1c1.4,0,2.6,0.4,3.5,1.1c0.9,0.7,1.3,1.7,1.3,3.1v4.4c0,0.6,0.1,1.2,0.2,1.7
			c0.1,0.5,0.3,1.1,0.5,1.6L103.3,42.1z M100.9,39.8c0.4,0,0.7-0.1,1-0.2c0.3-0.1,0.5-0.3,0.7-0.6v-1.8h-1.3c-0.6,0-1,0.1-1.3,0.4
			s-0.4,0.6-0.4,1.1c0,0.3,0.1,0.6,0.3,0.8S100.6,39.8,100.9,39.8z"/>
		<path class="st2" d="M107.8,36.3c0-1.8,0.4-3.3,1.2-4.4c0.8-1.1,1.9-1.7,3.3-1.7c0.5,0,1,0.1,1.5,0.4s0.8,0.6,1.2,1.1v-6.3h3.6
			v16.8h-3.1l-0.3-1.4c-0.4,0.5-0.8,0.9-1.3,1.2s-1,0.4-1.6,0.4c-1.4,0-2.5-0.5-3.3-1.6c-0.8-1.1-1.2-2.5-1.2-4.2V36.3z M111.5,36.6
			c0,0.9,0.1,1.7,0.4,2.2s0.7,0.8,1.4,0.8c0.4,0,0.7-0.1,1-0.2s0.5-0.3,0.7-0.6V34c-0.2-0.3-0.4-0.5-0.7-0.7c-0.3-0.2-0.6-0.2-1-0.2
			c-0.6,0-1.1,0.3-1.4,0.9c-0.3,0.6-0.4,1.4-0.4,2.4V36.6z"/>
		<path class="st2" d="M132,37.9l0.1,0.6h0.1l0.1-0.5l3.1-11.4h3.8l-5.1,15.6h-3.9l-5-15.6h3.8L132,37.9z"/>
		<path class="st2" d="M144,27.8h-3.6v-2.4h3.6V27.8z M144,42.1h-3.6V30.5h3.6V42.1z"/>
		<path class="st2" d="M152.9,42.1c-0.1-0.2-0.2-0.4-0.3-0.6c-0.1-0.2-0.2-0.5-0.2-0.7c-0.3,0.5-0.8,0.9-1.2,1.1
			c-0.5,0.3-1.1,0.4-1.8,0.4c-1.1,0-2-0.3-2.7-1c-0.7-0.6-1-1.5-1-2.5c0-1.2,0.4-2,1.3-2.7c0.9-0.6,2.2-0.9,3.9-0.9h1.3v-0.8
			c0-0.5-0.1-0.9-0.3-1.1c-0.2-0.3-0.6-0.4-1.1-0.4c-0.4,0-0.7,0.1-0.9,0.3c-0.2,0.2-0.3,0.5-0.3,0.9l-3.5,0l0-0.1
			c-0.1-1.1,0.4-1.9,1.3-2.7c0.9-0.7,2.2-1.1,3.7-1.1c1.4,0,2.6,0.4,3.5,1.1c0.9,0.7,1.3,1.7,1.3,3.1v4.4c0,0.6,0.1,1.2,0.2,1.7
			c0.1,0.5,0.3,1.1,0.5,1.6L152.9,42.1z M150.5,39.8c0.4,0,0.7-0.1,1-0.2c0.3-0.1,0.5-0.3,0.7-0.6v-1.8h-1.3c-0.6,0-1,0.1-1.3,0.4
			s-0.4,0.6-0.4,1.1c0,0.3,0.1,0.6,0.3,0.8S150.1,39.8,150.5,39.8z"/>
		<path class="st2" d="M161.7,42.1H158V25.4h3.6V42.1z"/>
	</g>
</g>
</svg>
