<?xml version="1.0" encoding="utf-8"?>
<!-- Generator: Adobe Illustrator 19.2.0, SVG Export Plug-In . SVG Version: 6.00 Build 0)  -->
<svg version="1.1" id="Capa_1" xmlns="http://www.w3.org/2000/svg" xmlns:xlink="http://www.w3.org/1999/xlink" x="0px" y="0px"
	 viewBox="0 0 276.1 77.5" style="enable-background:new 0 0 276.1 77.5;" xml:space="preserve">
	<style type="text/css">
		.st0{fill:url(#SVGID_1_);}
		.st1{fill:#271F20;}
		.st2{fill:#FFFFFF;}
	</style>
	<g>
		<g>
			<linearGradient id="SVGID_1_" gradientUnits="userSpaceOnUse" x1="0" y1="38.7396" x2="276.1165" y2="38.7396">
				<stop  offset="3.517618e-02" style="stop-color:#3C3233"/>
				<stop  offset="1" style="stop-color:#3C3233"/>
			</linearGradient>
			<path class="st0" d="M236.8,0H0v77.5h236.8c21.4,0,39.3-17.7,39.3-39.1v-0.5C276.1,16.5,258.2,0,236.8,0z M236.8,60.5
				c-13.1,0-23.7-10.6-23.7-23.7c0-13.1,10.6-23.7,23.7-23.7c13.1,0,23.7,10.6,23.7,23.7C260.5,49.9,249.9,60.5,236.8,60.5z"/>
			<path class="st1" d="M260.3,39.3C259,51.2,249,60.5,236.8,60.5s-22.3-9.3-23.6-21.2H0v38.2h239.3c0,0,14.8-0.2,26.1-12.6
				C276.8,52.5,276,39.3,276,39.3H260.3z"/>
		</g>
		<g>
			<path class="st2" d="M33.7,40.7h-7.5v5.2H35v2.8H22.6V30.5H35v2.8h-8.8v4.6h7.5V40.7z"/>
			<path class="st2" d="M42,39.5L42,39.5l2.1-4.3h4.1l-4.1,6.7l4.2,6.8h-4.1l-2.2-4.5l-2.2,4.5h-4.1l4.2-6.8l-4.1-6.7H40L42,39.5z"/>
			<path class="st2" d="M57.9,48.7c-0.1-0.3-0.2-0.6-0.3-1c-0.1-0.3-0.2-0.7-0.2-1c-0.4,0.7-0.9,1.2-1.5,1.6
				c-0.6,0.4-1.3,0.6-2.2,0.6c-1.4,0-2.5-0.4-3.3-1.1s-1.1-1.7-1.1-3c0-1.3,0.5-2.3,1.5-3.1c1-0.7,2.5-1.1,4.5-1.1h2v-1.1
				c0-0.6-0.2-1.1-0.5-1.5c-0.3-0.4-0.8-0.5-1.5-0.5c-0.6,0-1,0.1-1.4,0.4c-0.3,0.3-0.5,0.7-0.5,1.2l-3.5,0l0-0.1
				c-0.1-1.1,0.4-2.1,1.5-2.9s2.4-1.2,4.1-1.2c1.6,0,2.9,0.4,3.9,1.2c1,0.8,1.5,2,1.5,3.5v5.6c0,0.6,0,1.2,0.1,1.8
				c0.1,0.6,0.2,1.1,0.5,1.7H57.9z M54.5,46.2c0.6,0,1.2-0.2,1.7-0.5s0.8-0.7,1-1.1v-1.9h-2c-0.8,0-1.4,0.2-1.8,0.6
				c-0.4,0.4-0.6,0.9-0.6,1.4c0,0.4,0.1,0.8,0.4,1.1S54,46.2,54.5,46.2z M56,30h3.8l0,0.1l-3.4,3.2h-2.9L56,30z"/>
			<path class="st2" d="M67,35.2l0.1,1.8c0.4-0.6,1-1.1,1.6-1.5c0.7-0.4,1.4-0.5,2.3-0.5c0.9,0,1.6,0.2,2.2,0.6
				c0.6,0.4,1.1,1,1.4,1.7c0.4-0.7,1-1.3,1.6-1.7c0.7-0.4,1.4-0.6,2.3-0.6c1.3,0,2.4,0.5,3.1,1.4c0.8,0.9,1.2,2.3,1.2,4.2v8.2h-3.6
				v-8.2c0-1-0.2-1.7-0.5-2.1s-0.8-0.6-1.5-0.6c-0.5,0-1,0.1-1.3,0.3c-0.4,0.2-0.7,0.5-0.9,1c0,0.2,0,0.3,0,0.4s0,0.2,0,0.3v8.9h-3.6
				v-8.2c0-1-0.2-1.7-0.5-2.1s-0.8-0.6-1.5-0.6c-0.5,0-0.9,0.1-1.3,0.3c-0.4,0.2-0.7,0.5-0.9,0.8v9.8h-3.6V35.2H67z"/>
			<path class="st2" d="M91.7,48.9c-1.9,0-3.5-0.6-4.7-1.9c-1.2-1.2-1.7-2.8-1.7-4.7v-0.5c0-2,0.5-3.6,1.6-4.9s2.6-1.9,4.4-1.9
				c1.8,0,3.2,0.5,4.2,1.6c1,1.1,1.5,2.6,1.5,4.4v2h-8l0,0.1c0.1,0.9,0.4,1.6,0.9,2.2s1.2,0.9,2.1,0.9c0.8,0,1.5-0.1,2-0.2
				c0.5-0.2,1.1-0.4,1.7-0.8l1,2.2c-0.5,0.5-1.3,0.8-2.2,1.1C93.7,48.8,92.8,48.9,91.7,48.9z M91.3,37.7c-0.7,0-1.2,0.3-1.6,0.8
				c-0.4,0.5-0.6,1.2-0.7,2l0,0.1h4.5v-0.3c0-0.8-0.2-1.4-0.5-1.8C92.6,38,92.1,37.7,91.3,37.7z"/>
			<path class="st2" d="M102.5,35.2l0.2,1.9c0.4-0.7,1-1.2,1.7-1.6c0.7-0.4,1.4-0.6,2.2-0.6c1.4,0,2.4,0.4,3.2,1.3
				c0.8,0.9,1.1,2.2,1.1,4v8.4h-3.6v-8.4c0-0.9-0.2-1.5-0.5-1.9c-0.4-0.4-0.9-0.6-1.7-0.6c-0.5,0-0.9,0.1-1.3,0.3
				c-0.4,0.2-0.7,0.5-1,0.8v9.8h-3.6V35.2H102.5z"/>
		</g>
	</g>
</svg>
