<?xml version="1.0" encoding="utf-8"?>
<!-- Generator: Adobe Illustrator 19.2.0, SVG Export Plug-In . SVG Version: 6.00 Build 0)  -->
<svg version="1.1" id="Capa_1" xmlns="http://www.w3.org/2000/svg" xmlns:xlink="http://www.w3.org/1999/xlink" x="0px" y="0px"
	 viewBox="0 0 273.2 77.9" style="enable-background:new 0 0 273.2 77.9;" xml:space="preserve">
<style type="text/css">
	.st0{fill:#3BA07D;}
	.st1{fill:#2E8364;}
	.st2{fill:#FFFFFF;}
</style>
<g>
	<path class="st0" d="M234.1,0.2H-2.7v77.5h236.8c21.4,0,39.3-17.7,39.3-39.1V38C273.4,16.6,255.6,0.2,234.1,0.2z M234.1,60.6
		c-13.1,0-23.7-10.6-23.7-23.7c0-13.1,10.6-23.7,23.7-23.7c13.1,0,23.7,10.6,23.7,23.7C257.8,50.1,247.2,60.6,234.1,60.6z"/>
	<path class="st1" d="M257.6,39.5c-1.3,11.9-11.2,21.2-23.5,21.2c-12.3,0-22.3-9.3-23.6-21.2H-2.7v38.2h239.3
		c0,0,14.8-0.2,26.1-12.6c11.3-12.4,10.6-25.5,10.6-25.5H257.6z"/>
	<g>
		<path class="st2" d="M23.5,48.9h-4.2V30.8h4.2V48.9z"/>
		<path class="st2" d="M30.2,35.4l0.2,1.9c0.4-0.7,1-1.2,1.6-1.6c0.6-0.4,1.4-0.6,2.2-0.6c1.3,0,2.3,0.4,3.1,1.3
			c0.7,0.9,1.1,2.2,1.1,4.1v8.3h-4.2v-8.3c0-0.8-0.2-1.3-0.5-1.6c-0.3-0.3-0.8-0.5-1.4-0.5c-0.4,0-0.7,0.1-1,0.2
			c-0.3,0.1-0.6,0.3-0.8,0.6v9.7h-4.2V35.4H30.2z"/>
		<path class="st2" d="M41.5,48.9V38.3h-1.9v-2.9h1.9V34c0-1.5,0.5-2.7,1.4-3.6c0.9-0.8,2.2-1.2,3.9-1.2c0.3,0,0.6,0,1,0.1
			c0.3,0,0.7,0.1,1.1,0.2l-0.3,3.1c-0.2,0-0.4-0.1-0.6-0.1c-0.2,0-0.4,0-0.7,0c-0.5,0-0.9,0.1-1.2,0.4c-0.3,0.3-0.4,0.7-0.4,1.2v1.4
			h2.6v2.9h-2.6v10.5H41.5z"/>
		<path class="st2" d="M57.5,39.1l-1.5,0c-0.5,0-0.9,0.1-1.2,0.2c-0.3,0.2-0.5,0.4-0.7,0.7v8.8h-4.2V35.4h4l0.1,2
			c0.3-0.7,0.7-1.3,1.1-1.6c0.5-0.4,1-0.6,1.6-0.6c0.2,0,0.4,0,0.6,0c0.2,0,0.4,0.1,0.5,0.1L57.5,39.1z"/>
		<path class="st2" d="M66.8,48.8c-0.1-0.2-0.2-0.5-0.3-0.7c-0.1-0.3-0.2-0.5-0.2-0.8c-0.4,0.6-0.9,1-1.4,1.3
			c-0.6,0.3-1.2,0.5-2.1,0.5c-1.3,0-2.3-0.4-3.1-1.1c-0.8-0.7-1.2-1.7-1.2-2.9c0-1.3,0.5-2.4,1.5-3.1c1-0.7,2.5-1.1,4.6-1.1H66v-1
			c0-0.6-0.1-1-0.4-1.3c-0.3-0.3-0.7-0.5-1.2-0.5c-0.5,0-0.8,0.1-1.1,0.3c-0.2,0.2-0.4,0.6-0.4,1.1l-4.1,0l0-0.1
			c-0.1-1.2,0.5-2.3,1.5-3.1c1.1-0.8,2.5-1.2,4.3-1.2c1.7,0,3,0.4,4,1.2c1,0.8,1.5,2,1.5,3.6V45c0,0.7,0.1,1.4,0.2,2
			c0.1,0.6,0.3,1.2,0.5,1.8L66.8,48.8z M64,46.1c0.4,0,0.8-0.1,1.1-0.2c0.3-0.2,0.6-0.4,0.8-0.6v-2.1h-1.5c-0.7,0-1.1,0.2-1.4,0.5
			c-0.3,0.3-0.5,0.7-0.5,1.2c0,0.4,0.1,0.7,0.4,0.9C63.2,46,63.6,46.1,64,46.1z"/>
		<path class="st2" d="M78.7,49.1c-2,0-3.6-0.6-4.7-1.9c-1.2-1.2-1.8-2.8-1.8-4.7v-0.5c0-2,0.5-3.7,1.6-5c1.1-1.3,2.6-1.9,4.6-1.9
			c1.8,0,3.3,0.5,4.3,1.6c1,1.1,1.6,2.6,1.6,4.4v2.2h-7.7l0,0.1c0.1,0.7,0.4,1.3,0.8,1.7c0.5,0.4,1.1,0.7,1.9,0.7
			c0.8,0,1.4-0.1,1.9-0.2c0.5-0.1,1.1-0.3,1.8-0.6l1,2.6c-0.6,0.4-1.3,0.8-2.3,1.1C80.7,49,79.7,49.1,78.7,49.1z M78.4,38.4
			c-0.6,0-1.1,0.2-1.4,0.6c-0.3,0.4-0.5,1-0.6,1.7l0,0.1h3.6v-0.3c0-0.7-0.1-1.2-0.4-1.6C79.4,38.6,79,38.4,78.4,38.4z"/>
		<path class="st2" d="M93,45.1c0-0.3-0.2-0.6-0.6-0.9c-0.4-0.3-1.1-0.5-2.1-0.7c-1.6-0.3-2.7-0.8-3.5-1.4s-1.2-1.5-1.2-2.6
			c0-1.2,0.5-2.2,1.5-3c1-0.8,2.3-1.2,4-1.2c1.8,0,3.2,0.4,4.3,1.2c1.1,0.8,1.6,1.8,1.5,3.1l0,0.1h-4.1c0-0.5-0.1-0.9-0.4-1.2
			c-0.3-0.3-0.7-0.4-1.3-0.4c-0.4,0-0.8,0.1-1.1,0.4c-0.3,0.2-0.4,0.5-0.4,0.9c0,0.4,0.2,0.7,0.5,0.9c0.3,0.2,1,0.5,2.1,0.7
			c1.6,0.3,2.9,0.8,3.6,1.4c0.8,0.6,1.2,1.6,1.2,2.7c0,1.2-0.5,2.2-1.6,3s-2.5,1.2-4.3,1.2c-1.8,0-3.3-0.5-4.3-1.4
			c-1.1-0.9-1.6-2-1.5-3.1l0-0.1h3.8c0,0.6,0.2,1.1,0.6,1.4c0.4,0.3,0.9,0.4,1.6,0.4c0.6,0,1-0.1,1.3-0.3C92.8,45.8,93,45.5,93,45.1
			z"/>
		<path class="st2" d="M104,32.1v3.3h2.3v2.9H104v6.2c0,0.5,0.1,0.8,0.3,1c0.2,0.2,0.5,0.3,0.8,0.3c0.3,0,0.5,0,0.6,0
			c0.2,0,0.4,0,0.6-0.1l0.3,3.1c-0.5,0.1-0.9,0.2-1.3,0.2c-0.4,0-0.8,0.1-1.3,0.1c-1.4,0-2.4-0.4-3.1-1.1c-0.7-0.7-1.1-1.9-1.1-3.5
			v-6.2h-1.9v-2.9h1.9v-3.3H104z"/>
		<path class="st2" d="M115.8,39.1l-1.5,0c-0.5,0-0.9,0.1-1.2,0.2c-0.3,0.2-0.5,0.4-0.7,0.7v8.8h-4.2V35.4h4l0.1,2
			c0.3-0.7,0.7-1.3,1.1-1.6c0.5-0.4,1-0.6,1.6-0.6c0.2,0,0.4,0,0.6,0c0.2,0,0.4,0.1,0.5,0.1L115.8,39.1z"/>
		<path class="st2" d="M125.7,47.3c-0.4,0.6-1,1.1-1.6,1.4c-0.6,0.3-1.3,0.5-2.1,0.5c-1.4,0-2.5-0.4-3.3-1.3
			c-0.8-0.9-1.2-2.3-1.2-4.2v-8.2h4.2v8.2c0,0.8,0.1,1.3,0.4,1.7c0.3,0.4,0.7,0.6,1.2,0.6c0.4,0,0.8-0.1,1.2-0.2
			c0.3-0.1,0.6-0.3,0.9-0.6v-9.7h4.2v13.4h-3.7L125.7,47.3z"/>
		<path class="st2" d="M137.7,45.9c0.6,0,1-0.2,1.3-0.5c0.3-0.3,0.4-0.8,0.4-1.4h3.8l0,0.1c0,1.5-0.5,2.7-1.5,3.6
			c-1,0.9-2.4,1.4-4,1.4c-2,0-3.6-0.6-4.7-1.9c-1.1-1.3-1.7-2.9-1.7-4.9V42c0-2,0.6-3.7,1.7-4.9c1.1-1.3,2.7-1.9,4.7-1.9
			c1.7,0,3.1,0.5,4.1,1.4c1,1,1.5,2.2,1.5,3.9l0,0.1h-3.8c0-0.6-0.1-1.2-0.4-1.6c-0.3-0.4-0.7-0.6-1.3-0.6c-0.8,0-1.4,0.3-1.7,1
			c-0.3,0.7-0.5,1.5-0.5,2.6v0.3c0,1.1,0.2,2,0.5,2.6C136.3,45.6,136.8,45.9,137.7,45.9z"/>
		<path class="st2" d="M149.9,32.1v3.3h2.3v2.9h-2.3v6.2c0,0.5,0.1,0.8,0.3,1c0.2,0.2,0.5,0.3,0.8,0.3c0.3,0,0.5,0,0.6,0
			c0.2,0,0.4,0,0.6-0.1l0.3,3.1c-0.5,0.1-0.9,0.2-1.3,0.2c-0.4,0-0.8,0.1-1.3,0.1c-1.4,0-2.4-0.4-3.1-1.1c-0.7-0.7-1.1-1.9-1.1-3.5
			v-6.2h-1.9v-2.9h1.9v-3.3H149.9z"/>
		<path class="st2" d="M162.2,47.3c-0.4,0.6-1,1.1-1.6,1.4c-0.6,0.3-1.3,0.5-2.1,0.5c-1.4,0-2.5-0.4-3.3-1.3s-1.2-2.3-1.2-4.2v-8.2
			h4.2v8.2c0,0.8,0.1,1.3,0.4,1.7c0.3,0.4,0.7,0.6,1.2,0.6c0.4,0,0.8-0.1,1.2-0.2c0.3-0.1,0.6-0.3,0.9-0.6v-9.7h4.2v13.4h-3.7
			L162.2,47.3z"/>
		<path class="st2" d="M176,39.1l-1.5,0c-0.5,0-0.9,0.1-1.2,0.2c-0.3,0.2-0.5,0.4-0.7,0.7v8.8h-4.2V35.4h4l0.1,2
			c0.3-0.7,0.7-1.3,1.1-1.6c0.5-0.4,1-0.6,1.6-0.6c0.2,0,0.4,0,0.6,0c0.2,0,0.4,0.1,0.5,0.1L176,39.1z"/>
		<path class="st2" d="M185.3,48.8c-0.1-0.2-0.2-0.5-0.3-0.7c-0.1-0.3-0.2-0.5-0.2-0.8c-0.4,0.6-0.9,1-1.4,1.3
			c-0.6,0.3-1.2,0.5-2,0.5c-1.3,0-2.3-0.4-3.1-1.1c-0.8-0.7-1.2-1.7-1.2-2.9c0-1.3,0.5-2.4,1.5-3.1c1-0.7,2.5-1.1,4.6-1.1h1.5v-1
			c0-0.6-0.1-1-0.4-1.3c-0.3-0.3-0.7-0.5-1.2-0.5c-0.5,0-0.8,0.1-1.1,0.3c-0.2,0.2-0.4,0.6-0.4,1.1l-4.1,0l0-0.1
			c-0.1-1.2,0.5-2.3,1.5-3.1c1.1-0.8,2.5-1.2,4.3-1.2c1.7,0,3,0.4,4,1.2c1,0.8,1.5,2,1.5,3.6V45c0,0.7,0.1,1.4,0.2,2
			c0.1,0.6,0.3,1.2,0.5,1.8L185.3,48.8z M182.5,46.1c0.4,0,0.8-0.1,1.1-0.2c0.3-0.2,0.6-0.4,0.8-0.6v-2.1H183
			c-0.7,0-1.1,0.2-1.4,0.5c-0.3,0.3-0.5,0.7-0.5,1.2c0,0.4,0.1,0.7,0.4,0.9C181.8,46,182.1,46.1,182.5,46.1z"/>
	</g>
</g>
</svg>
