<?xml version="1.0" encoding="utf-8"?>
<!-- Generator: Adobe Illustrator 19.2.0, SVG Export Plug-In . SVG Version: 6.00 Build 0)  -->
<svg version="1.1" id="Capa_1" xmlns="http://www.w3.org/2000/svg" xmlns:xlink="http://www.w3.org/1999/xlink" x="0px" y="0px"
	 viewBox="0 0 310.8 67" style="enable-background:new 0 0 310.8 67;" xml:space="preserve">
<style type="text/css">
	.st0{fill:#EBEBEB;}
	.st1{fill:#C8C8C8;}
	.st2{fill:#2F2829;}
</style>
<path class="st0" d="M276.8,0H0v67h276.8c18.5,0,34-15.3,34-33.8v-0.4C310.8,14.2,295.3,0,276.8,0z M276.6,52.1
	c-11.3,0-20.5-9.2-20.5-20.5c0-11.3,9.2-20.5,20.5-20.5c11.3,0,20.5,9.2,20.5,20.5C297.1,42.9,287.9,52.1,276.6,52.1z"/>
<path class="st1" d="M297.1,34c-1.1,10.3-9.8,18.3-20.4,18.3s-19.3-8-20.4-18.3H0v33h281.3c0,0,13.7-1.7,22.2-13.3
	c8.5-11.6,7.1-19.7,7.1-19.7H297.1z"/>
<g>
	<path class="st2" d="M22.5,36.8v5.4h-3.6V26.5h6.3c1.9,0,3.3,0.5,4.4,1.4c1.1,0.9,1.6,2.2,1.6,3.7c0,1.5-0.5,2.8-1.6,3.7
		c-1.1,0.9-2.6,1.4-4.4,1.4H22.5z M22.5,34h2.7c0.8,0,1.4-0.2,1.8-0.6c0.4-0.4,0.6-1,0.6-1.7c0-0.7-0.2-1.3-0.6-1.7
		c-0.4-0.4-1-0.7-1.8-0.7h-2.7V34z"/>
	<path class="st2" d="M36.9,27.8h-3.6v-2.4h3.6V27.8z M36.9,42.1h-3.6V30.5h3.6V42.1z"/>
	<path class="st2" d="M45.7,33.7l-1.3,0c-0.4,0-0.8,0.1-1,0.2c-0.3,0.1-0.5,0.3-0.6,0.6v7.6h-3.6V30.5h3.4l0.1,1.7
		c0.2-0.6,0.6-1.1,1-1.4c0.4-0.3,0.9-0.5,1.4-0.5c0.2,0,0.3,0,0.5,0c0.2,0,0.3,0.1,0.5,0.1L45.7,33.7z"/>
	<path class="st2" d="M53.7,42.1c-0.1-0.2-0.2-0.4-0.3-0.6c-0.1-0.2-0.2-0.5-0.2-0.7c-0.3,0.5-0.8,0.9-1.2,1.1
		c-0.5,0.3-1.1,0.4-1.8,0.4c-1.1,0-2-0.3-2.7-1c-0.7-0.6-1-1.5-1-2.5c0-1.2,0.4-2,1.3-2.7c0.9-0.6,2.2-0.9,3.9-0.9H53v-0.8
		c0-0.5-0.1-0.9-0.3-1.1c-0.2-0.3-0.6-0.4-1.1-0.4c-0.4,0-0.7,0.1-0.9,0.3c-0.2,0.2-0.3,0.5-0.3,0.9l-3.5,0l0-0.1
		c-0.1-1.1,0.4-1.9,1.3-2.7c0.9-0.7,2.2-1.1,3.7-1.1c1.4,0,2.6,0.4,3.5,1.1c0.9,0.7,1.3,1.7,1.3,3.1v4.4c0,0.6,0.1,1.2,0.2,1.7
		c0.1,0.5,0.3,1.1,0.5,1.6L53.7,42.1z M52.1,26h3.7l0,0.1l-3,2.8h-3L52.1,26z M51.3,39.8c0.4,0,0.7-0.1,1-0.2
		c0.3-0.1,0.5-0.3,0.7-0.6v-1.8h-1.3c-0.6,0-1,0.1-1.3,0.4c-0.3,0.3-0.4,0.6-0.4,1.1c0,0.3,0.1,0.6,0.3,0.8S50.9,39.8,51.3,39.8z"/>
	<path class="st2" d="M62.1,30.5l0.1,1.5c0.4-0.6,0.8-1,1.4-1.3c0.6-0.3,1.2-0.5,1.9-0.5c0.7,0,1.3,0.2,1.9,0.5
		c0.5,0.3,0.9,0.8,1.2,1.4c0.4-0.6,0.8-1.1,1.4-1.4c0.6-0.3,1.2-0.5,2-0.5c1.1,0,2,0.4,2.7,1.2c0.6,0.8,1,2,1,3.6v7.1h-3.6V35
		c0-0.8-0.1-1.3-0.3-1.5c-0.2-0.3-0.6-0.4-1-0.4c-0.4,0-0.7,0.1-0.9,0.2c-0.3,0.1-0.5,0.3-0.7,0.5c0,0.1,0,0.2,0,0.3
		c0,0.1,0,0.2,0,0.3v7.8h-3.6V35c0-0.8-0.1-1.3-0.3-1.5c-0.2-0.3-0.6-0.4-1.1-0.4c-0.3,0-0.6,0.1-0.9,0.2c-0.3,0.1-0.5,0.3-0.7,0.5
		v8.3h-3.6V30.5H62.1z"/>
	<path class="st2" d="M81.4,27.8h-3.6v-2.4h3.6V27.8z M81.4,42.1h-3.6V30.5h3.6V42.1z"/>
	<path class="st2" d="M83.2,36.3c0-1.8,0.4-3.3,1.2-4.4c0.8-1.1,1.9-1.7,3.3-1.7c0.5,0,1,0.1,1.5,0.4c0.4,0.2,0.8,0.6,1.2,1.1v-6.3
		H94v16.8h-3.1l-0.3-1.4c-0.4,0.5-0.8,0.9-1.3,1.2c-0.5,0.3-1,0.4-1.6,0.4c-1.4,0-2.5-0.5-3.3-1.6c-0.8-1.1-1.2-2.5-1.2-4.2V36.3z
		 M86.8,36.6c0,0.9,0.1,1.7,0.4,2.2c0.3,0.5,0.7,0.8,1.4,0.8c0.4,0,0.7-0.1,1-0.2s0.5-0.3,0.7-0.6V34c-0.2-0.3-0.4-0.5-0.7-0.7
		c-0.3-0.2-0.6-0.2-1-0.2c-0.6,0-1.1,0.3-1.4,0.9c-0.3,0.6-0.4,1.4-0.4,2.4V36.6z"/>
	<path class="st2" d="M101.3,42.3c-1.7,0-3.1-0.5-4.1-1.6s-1.5-2.4-1.5-4v-0.4c0-1.8,0.5-3.2,1.4-4.3c0.9-1.1,2.3-1.7,4-1.7
		c1.6,0,2.8,0.5,3.7,1.4c0.9,0.9,1.3,2.2,1.3,3.8v1.9h-6.6l0,0.1c0.1,0.6,0.3,1.1,0.7,1.5c0.4,0.4,1,0.6,1.6,0.6
		c0.7,0,1.2-0.1,1.6-0.2c0.4-0.1,0.9-0.3,1.6-0.6l0.9,2.2c-0.5,0.4-1.2,0.7-2,0.9S102.2,42.3,101.3,42.3z M101.1,33.1
		c-0.5,0-0.9,0.2-1.2,0.6c-0.3,0.4-0.4,0.9-0.5,1.5l0,0.1h3.1v-0.3c0-0.6-0.1-1-0.4-1.4C102,33.2,101.6,33.1,101.1,33.1z"/>
	<path class="st2" d="M112.6,36.3c0-1.8,0.4-3.3,1.2-4.4c0.8-1.1,1.9-1.7,3.3-1.7c0.5,0,1,0.1,1.5,0.4c0.4,0.2,0.8,0.6,1.2,1.1v-6.3
		h3.6v16.8h-3.1l-0.3-1.4c-0.4,0.5-0.8,0.9-1.3,1.2c-0.5,0.3-1,0.4-1.6,0.4c-1.4,0-2.5-0.5-3.3-1.6c-0.8-1.1-1.2-2.5-1.2-4.2V36.3z
		 M116.3,36.6c0,0.9,0.1,1.7,0.4,2.2c0.3,0.5,0.7,0.8,1.4,0.8c0.4,0,0.7-0.1,1-0.2s0.5-0.3,0.7-0.6V34c-0.2-0.3-0.4-0.5-0.7-0.7
		c-0.3-0.2-0.6-0.2-1-0.2c-0.6,0-1.1,0.3-1.4,0.9c-0.3,0.6-0.4,1.4-0.4,2.4V36.6z"/>
	<path class="st2" d="M130.8,42.3c-1.7,0-3.1-0.5-4.1-1.6s-1.5-2.4-1.5-4v-0.4c0-1.8,0.5-3.2,1.4-4.3c0.9-1.1,2.3-1.7,4-1.7
		c1.6,0,2.8,0.5,3.7,1.4c0.9,0.9,1.3,2.2,1.3,3.8v1.9H129l0,0.1c0.1,0.6,0.3,1.1,0.7,1.5c0.4,0.4,1,0.6,1.6,0.6
		c0.7,0,1.2-0.1,1.6-0.2c0.4-0.1,0.9-0.3,1.6-0.6l0.9,2.2c-0.5,0.4-1.2,0.7-2,0.9S131.7,42.3,130.8,42.3z M130.5,33.1
		c-0.5,0-0.9,0.2-1.2,0.6c-0.3,0.4-0.4,0.9-0.5,1.5l0,0.1h3.1v-0.3c0-0.6-0.1-1-0.4-1.4C131.4,33.2,131.1,33.1,130.5,33.1z"/>
	<path class="st2" d="M147.6,26.5l3.5,10.9h0.1l3.5-10.9h4.8v15.6h-3.6v-3.9l0.3-7.1l-0.1,0l-3.8,11h-2.4l-3.7-10.9l-0.1,0l0.3,7
		v3.9h-3.6V26.5H147.6z"/>
	<path class="st2" d="M161.2,36.2c0-1.7,0.5-3.2,1.5-4.3c1-1.1,2.4-1.6,4.1-1.6c1.8,0,3.2,0.5,4.1,1.6c1,1.1,1.5,2.5,1.5,4.3v0.2
		c0,1.8-0.5,3.2-1.5,4.3s-2.4,1.6-4.1,1.6c-1.8,0-3.2-0.5-4.2-1.6s-1.5-2.5-1.5-4.3V36.2z M164.9,36.4c0,1,0.2,1.7,0.5,2.3
		c0.3,0.6,0.8,0.8,1.6,0.8c0.7,0,1.2-0.3,1.5-0.8c0.3-0.6,0.5-1.3,0.5-2.3v-0.2c0-0.9-0.2-1.7-0.5-2.3c-0.3-0.6-0.8-0.9-1.5-0.9
		c-0.7,0-1.2,0.3-1.5,0.9c-0.3,0.6-0.5,1.3-0.5,2.3V36.4z"/>
	<path class="st2" d="M178.3,37.3l0.2,1.2l0.1,0l0.2-1.2l1.5-6.8h3.8l-3.8,11.6h-3.7l-3.8-11.6h3.8L178.3,37.3z"/>
	<path class="st2" d="M189,27.8h-3.6v-2.4h3.6V27.8z M189,42.1h-3.6V30.5h3.6V42.1z"/>
	<path class="st2" d="M195.1,42.1h-3.6V25.4h3.6V42.1z"/>
	<path class="st2" d="M201.1,27.8h-3.6v-2.4h3.6V27.8z M201.1,42.1h-3.6V30.5h3.6V42.1z"/>
	<path class="st2" d="M202.8,36.3c0-1.8,0.4-3.3,1.2-4.4c0.8-1.1,1.9-1.7,3.3-1.7c0.5,0,1,0.1,1.5,0.4c0.4,0.2,0.8,0.6,1.2,1.1v-6.3
		h3.6v16.8h-3.1l-0.3-1.4c-0.4,0.5-0.8,0.9-1.3,1.2c-0.5,0.3-1,0.4-1.6,0.4c-1.4,0-2.5-0.5-3.3-1.6c-0.8-1.1-1.2-2.5-1.2-4.2V36.3z
		 M206.5,36.6c0,0.9,0.1,1.7,0.4,2.2c0.3,0.5,0.7,0.8,1.4,0.8c0.4,0,0.7-0.1,1-0.2s0.5-0.3,0.7-0.6V34c-0.2-0.3-0.4-0.5-0.7-0.7
		c-0.3-0.2-0.6-0.2-1-0.2c-0.6,0-1.1,0.3-1.4,0.9c-0.3,0.6-0.4,1.4-0.4,2.4V36.6z"/>
	<path class="st2" d="M222.4,42.1c-0.1-0.2-0.2-0.4-0.3-0.6c-0.1-0.2-0.2-0.5-0.2-0.7c-0.3,0.5-0.8,0.9-1.2,1.1
		c-0.5,0.3-1.1,0.4-1.8,0.4c-1.1,0-2-0.3-2.7-1c-0.7-0.6-1-1.5-1-2.5c0-1.2,0.4-2,1.3-2.7c0.9-0.6,2.2-0.9,3.9-0.9h1.3v-0.8
		c0-0.5-0.1-0.9-0.3-1.1c-0.2-0.3-0.6-0.4-1.1-0.4c-0.4,0-0.7,0.1-0.9,0.3c-0.2,0.2-0.3,0.5-0.3,0.9l-3.5,0l0-0.1
		c-0.1-1.1,0.4-1.9,1.3-2.7c0.9-0.7,2.2-1.1,3.7-1.1c1.4,0,2.6,0.4,3.5,1.1c0.9,0.7,1.3,1.7,1.3,3.1v4.4c0,0.6,0.1,1.2,0.2,1.7
		c0.1,0.5,0.3,1.1,0.5,1.6L222.4,42.1z M220,39.8c0.4,0,0.7-0.1,1-0.2c0.3-0.1,0.5-0.3,0.7-0.6v-1.8h-1.3c-0.6,0-1,0.1-1.3,0.4
		c-0.3,0.3-0.4,0.6-0.4,1.1c0,0.3,0.1,0.6,0.3,0.8S219.6,39.8,220,39.8z"/>
	<path class="st2" d="M226.9,36.3c0-1.8,0.4-3.3,1.2-4.4c0.8-1.1,1.9-1.7,3.3-1.7c0.5,0,1,0.1,1.5,0.4c0.4,0.2,0.8,0.6,1.2,1.1v-6.3
		h3.6v16.8h-3.1l-0.3-1.4c-0.4,0.5-0.8,0.9-1.3,1.2c-0.5,0.3-1,0.4-1.6,0.4c-1.4,0-2.5-0.5-3.3-1.6c-0.8-1.1-1.2-2.5-1.2-4.2V36.3z
		 M230.5,36.6c0,0.9,0.1,1.7,0.4,2.2c0.3,0.5,0.7,0.8,1.4,0.8c0.4,0,0.7-0.1,1-0.2s0.5-0.3,0.7-0.6V34c-0.2-0.3-0.4-0.5-0.7-0.7
		c-0.3-0.2-0.6-0.2-1-0.2c-0.6,0-1.1,0.3-1.4,0.9c-0.3,0.6-0.4,1.4-0.4,2.4V36.6z"/>
</g>
</svg>
