<?xml version="1.0" encoding="utf-8"?>
<!-- Generator: Adobe Illustrator 18.0.0, SVG Export Plug-In . SVG Version: 6.00 Build 0)  -->
<!DOCTYPE svg PUBLIC "-//W3C//DTD SVG 1.1//EN" "http://www.w3.org/Graphics/SVG/1.1/DTD/svg11.dtd">
<svg version="1.1" xmlns="http://www.w3.org/2000/svg" xmlns:xlink="http://www.w3.org/1999/xlink" x="0px" y="0px"
	 viewBox="0 0 442.9 190.5" enable-background="new 0 0 442.9 190.5" xml:space="preserve">
<g id="Layer_1">
	<g>
		<g id="XMLID_13_">
			<g id="XMLID_24_">
				<path fill="#5C2CAD" d="M139.2,95.5c0.9,0.7,1.9,1.2,2.7,2c1.7,1.8,1.8,4.2,0.2,5.8c-1.5,1.6-4,1.6-5.8-0.1
					c-3.4-3.3-6.8-6.7-10.1-10.1c-1.8-1.8-1.8-4.1,0-6c3.3-3.4,6.6-6.7,10-10c1.9-1.8,4.4-1.9,6-0.2c1.5,1.6,1.3,4.1-0.5,6
					c-0.6,0.6-1.1,1.2-2,2.2c4.9,0,9.4,0,13.8,0c1.4,0,2.8,0,4.2,0c4.4,0,5.8,1.4,7,6.7c4.2-4.9,9.2-8,15.8-7.9
					c6.6,0.1,11.6,2.6,14.3,9.3c0.7-0.8,1.1-1.3,1.6-1.9c5.3-6.4,13.8-9,21.7-6.6c6.5,2,9.5,7,10,13.3c0.5,6,0.3,12.2,0.4,18.2
					c0,1.2,0,2.5,0,3.7c0,1.5-0.4,3.5,0.4,4.5c0.7,0.8,2.8,0.5,4.2,0.8c0.6,0.1,1.4,0.8,1.4,1.3c0.1,2.2,0.2,4.5,0,6.7
					c-0.1,0.6-1.1,1.5-1.7,1.5c-2.9,0.2-5.9,0.2-8.8,0c-4.5-0.2-6.4-2.2-6.5-6.7c-0.1-7.7,0-15.4,0-23.1c0-1.4-0.1-2.8-0.3-4.1
					c-0.9-5.8-4.7-8.2-10.3-6.3c-5.6,1.9-8.4,6.2-9.7,11.7c-0.5,2.2-0.6,4.6-0.6,6.9c-0.1,6.5-0.1,13,0,19.4c0,1.8-0.6,2.5-2.4,2.4
					c-2.1-0.1-4.2-0.1-6.2,0c-1.8,0.1-2.4-0.5-2.4-2.4c0.1-9.2,0-18.5,0-27.8c0-1.3-0.1-2.6-0.3-3.9c-0.9-5.9-4.7-8.3-10.4-6.4
					c-5.4,1.8-9.8,8-10,14.8c-0.2,7.2-0.1,14.3-0.1,21.5c0,4.5,0.4,4-4.2,4c-1.5,0-2.9-0.1-4.4,0c-2,0.2-2.5-0.6-2.5-2.5
					c0.1-11.5,0-23,0-34.5c0-3.3,0-3.3-3.3-3.3c-3.5,0-7.1,0-10.6,0C139.6,94.9,139.4,95.2,139.2,95.5z"/>
			</g>
			<g id="XMLID_21_">
				<path fill="#5C2CAD" d="M279.4,89.8c5.7-5.5,12.1-6.7,18.9-5.5c8.2,1.5,13.3,6.7,15.9,14.5c2.4,7.3,2.4,14.7,0,22
					c-5.6,16.8-25.8,19.2-34.5,9.7c-0.1-0.1-0.3-0.1-0.4-0.1c-0.1,0.1-0.3,0.2-0.3,0.3c-0.2,4.2-0.2,4.2-4.4,4.2
					c-6.1,0-6.1,0-6.1-6.2c0-16.6,0-33.3,0-49.9c0-3.1,0-3.1-3-3.1c-3,0-3,0-3-3c0-2.1-0.6-5,0.4-6c1.2-1.1,4-0.5,6.1-0.6
					c1.2-0.1,2.3,0,3.5,0c4.7,0.1,6.8,2,6.9,6.8c0.1,4.8,0,9.6,0,14.3C279.4,87.8,279.4,88.5,279.4,89.8z M305.1,108.5
					c-0.4-1.6-0.8-4.7-2-7.5c-1.9-4.4-5.4-7.1-10.3-7.3c-5.2-0.2-9.3,1.9-11.4,6.7c-3.1,6.8-3.1,13.8,0.8,20.4
					c3.9,6.6,12.8,7.6,18.3,2.1C303.9,119.3,304.8,114.7,305.1,108.5z"/>
			</g>
			<g id="XMLID_20_">
				<path fill="#5C2CAD" d="M347.7,109.9c-0.4-14.8,11.3-25.7,25.6-25.7c4.1,0,8,0.5,11.7,2.2c5.9,2.5,8.2,7.2,6.7,13.3
					c-0.1,0.5-1,1.1-1.6,1.2c-1.2,0.2-2.5,0.1-3.7,0.1c-3.6,0-3.3-0.1-4.3-3.4c-0.4-1.3-2-2.8-3.3-3.4c-6.4-2.7-14.2-0.1-18,6
					c-3.6,5.9-3.8,12.1-0.6,18.2c3.2,5.9,8.7,8.1,15.1,7.9c4.8-0.2,8.9-2.3,12.4-5.5c1.3-1.1,2-1.1,2.8,0.4c0.7,1.4,1.5,2.7,2.4,3.9
					c1,1.3,0.7,2.3-0.5,3.4c-11.1,10.7-31,9.3-40.2-3C349.3,121.3,347.7,116,347.7,109.9z"/>
			</g>
			<g id="XMLID_19_">
				<path fill="#5C2CAD" d="M227.3,85c6.8,0,13.8-0.1,20.8,0c3.9,0.1,5.9,2.4,5.9,6.7c0,10.1,0,20.2,0,30.3c0,3.2,0,3.2,3.2,3.2
					c2.5,0,5,0,7.6,0c0.1,0.5,0.2,0.8,0.2,1.1c0,2.8,0,5.5,0,8.3c-5.6,0-11.2,0.2-16.7-0.1c-3.1-0.1-4.5-1.8-5-4.9
					c-0.2-1.1-0.2-2.1-0.2-3.2c0-9.8-0.1-19.6,0-29.4c0-2-0.6-2.7-2.6-2.6c-2.5,0.2-4.9,0.1-7.4,0c-0.6,0-1.4-0.6-1.6-1.1
					C230,90.8,228.7,87.9,227.3,85z"/>
			</g>
			<g id="XMLID_18_">
				<path fill="#5C2CAD" d="M243.4,77.2c0-3.5-0.1-6.7,0.1-9.8c0-0.5,0.8-1,1.3-1.3c0.3-0.2,0.8-0.1,1.1,0c2.4,0.1,4.7,0.3,7,0.4
					c0.1,3.3,0.2,6.6,0.1,9.9c0,0.3-0.7,0.8-1.1,0.8C249.3,77.2,246.5,77.2,243.4,77.2z"/>
			</g>
			<g id="XMLID_17_">
				<path fill="#5C2CAD" d="M358.2,135c-3.4-2.5-8.2-6-9.6-8.7c-0.2-0.4-0.6-0.7-1.1-0.9c0,0,0-0.1,0-0.1c-0.1,0-0.2,0-0.3,0
					c-0.1,0-0.2,0-0.2,0c-2.5-0.1-4.9-0.2-7.4,0c-2,0.1-2.7-0.5-2.6-2.6c0.1-9.8,0-19.6,0-29.4c0-1.1-0.1-2.2-0.2-3.2
					c-0.5-3-1.9-4.7-4.8-4.8c-0.4-0.1-0.7-0.1-1.1-0.1c-0.8,0-1.7,0-2.5,0c-1.6,0-3.2,0-4.9,0c-4.5,0-9,0-13.4,0
					c1.4,2.9,2.8,5.7,4.2,8.5c0.2,0.4,0.6,0.7,1.1,0.9c0,0,0,0.1,0,0.1c0.1,0,0.2,0,0.3,0c0.1,0,0.2,0,0.2,0c2.5,0.1,4.9,0.2,7.4,0
					c2-0.1,2.7,0.5,2.6,2.6c-0.1,9.8,0,19.6,0,29.4c0,1.1,0.1,2.2,0.2,3.2c0.5,3,1.9,4.7,4.8,4.8c0.4,0.1,0.7,0.1,1.1,0.1
					C339,134.8,351.4,135,358.2,135z"/>
			</g>
			<g id="XMLID_16_">
				<path fill="#5C2CAD" d="M326.1,77.2c0-3.5-0.1-6.7,0.1-9.8c0-0.5,0.8-1,1.3-1.3c0.3-0.2,0.8-0.1,1.1,0c2.4,0.1,4.7,0.3,7,0.4
					c0.1,3.3,0.2,6.6,0.1,9.9c0,0.3-0.7,0.8-1.1,0.8C332,77.2,329.2,77.2,326.1,77.2z"/>
			</g>
			<g id="XMLID_15_">
				<path fill="#5C2CAD" d="M403.3,77.2c0-3.5-0.1-6.7,0.1-9.8c0-0.5,0.8-1,1.3-1.3c0.3-0.2,0.8-0.1,1.1,0c2.4,0.1,4.7,0.3,7,0.4
					c0.1,3.3,0.2,6.6,0.1,9.9c0,0.3-0.7,0.8-1.1,0.8C409.2,77.2,406.4,77.2,403.3,77.2z"/>
			</g>
			<g id="XMLID_14_">
				<path fill="#5C2CAD" d="M441.7,127.3l-11.4-11.2c-1.6-1.6-4.1-1.5-5.7,0c-1.6,1.6-1.5,4.1,0,5.7l3.6,3.6h-3.7c0,0-5.5-0.3-8-0.2
					c-2,0.1-2.7-0.5-2.6-2.6c0.1-9.8,0-19.6,0-29.4c0-1.1-0.1-2.2-0.2-3.2c-0.5-3-1.9-4.7-4.8-4.8c-0.4-0.1-0.7-0.1-1.1-0.1
					c-0.8,0-1.7,0-2.5,0c-1.6,0-3.2,0-4.9,0c-4,0-8,0-11.9,0v0.2c2.1,0.6,5.6,2.6,6.6,9.4c1.7,0,3.4,0,5.1-0.1
					c2-0.1,2.7,0.5,2.6,2.6c-0.1,9.8,0,19.6,0,29.4c0,1.1,0.1,2.2,0.2,3.2c0.5,3,1.9,4.7,4.8,4.8c0.4,0.1,0.7,0.1,1.1,0.1
					c1.7,0,3.8,0.1,6,0.1c0.8,0.2,1.7,0.3,2.6,0.3h11l-3.5,3.7c-1.5,1.6-1.5,4.1,0.1,5.7c0.8,0.7,1.8,1.1,2.8,1.1
					c1.1,0,2.1-0.4,2.9-1.2l10.8-11.3C443.3,131.3,443.3,128.8,441.7,127.3z"/>
			</g>
		</g>
		<g>
			<g>
				<g>
					<path fill="#5C2CAD" d="M60.3,190.5c-18.7,0-33.4-4.6-43.8-13.8c-4.8-4.2-8.6-9.3-11.3-15.2c-2.5-5.5-4.2-11.7-4.8-18.4L0,139
						l44.3,0l0.5,3.2c0.6,3.6,2.5,7,5.3,9.4c2.9,2.4,6.5,3.8,10.3,3.8c8.7,0,15.8-7.1,15.8-15.8h7.5c0,12.9-10.5,23.3-23.3,23.3
						c-5.6,0-11-2-15.2-5.6c-3.3-2.9-5.8-6.6-7.1-10.7l-29.7,0c0.7,4.3,1.9,8.2,3.6,11.8c2.3,4.9,5.5,9.2,9.4,12.7
						c9,7.9,22,11.9,38.8,11.9c7.8,0,15.2-1.2,21.9-3.6c6.3-2.2,11.9-5.5,16.5-9.6c9.1-8.1,14.2-19.1,14.2-31
						c0-18.7-14.3-34.8-34.2-41l-30.9,28.3L21.7,99.3l4.1-2.4c10.1-6.1,22.1-9.3,34.5-9.3c5.6,0,11.1,0.6,16.3,1.9L101,67.1V39.3
						H15.7v23.4h55.5v7.5h-63V31.7h100.4v38.7L85,92.1c6.5,2.5,12.4,5.9,17.6,10.3c5.6,4.7,9.9,10.2,13,16.3
						c3.2,6.4,4.8,13.2,4.8,20.2c0,14.1-5.9,27.1-16.7,36.6c-5.4,4.8-11.8,8.5-19,11.1C77.2,189.2,69,190.5,60.3,190.5z M33.9,101
						l14.2,14.6l21.6-19.8c-3.1-0.5-6.2-0.7-9.4-0.7C50.9,95.1,41.9,97.1,33.9,101z"/>
				</g>
			</g>
			<g>
				<g>
					<path fill="#5C2CAD" d="M20.4,20.7l-1.4-3.4h-6.3l-1.4,3.4H8l6.4-15.1h3l6.4,15.1H20.4z M15.9,9.6l-2,4.9h4L15.9,9.6z"/>
					<path fill="#5C2CAD" d="M48.9,20.7l-7.2-9.5v9.5h-3.3v-15h3l7,9.2V5.7h3.3v15H48.9z"/>
					<path fill="#5C2CAD" d="M74.7,21c-4.6,0-7.9-3.4-7.9-7.7v0c0-4.3,3.4-7.7,8-7.7c4.6,0,7.9,3.4,7.9,7.7v0
						C82.7,17.5,79.3,21,74.7,21z M79.3,13.2c0-2.6-1.9-4.7-4.5-4.7c-2.7,0-4.5,2.1-4.5,4.7v0c0,2.6,1.9,4.7,4.5,4.7
						C77.4,17.9,79.3,15.8,79.3,13.2L79.3,13.2z"/>
					<path fill="#5C2CAD" d="M103,20.9c-2.3,0-4.6-0.8-6.4-2.4l1.9-2.3c1.3,1.1,2.8,1.8,4.5,1.8c1.3,0,2.2-0.5,2.2-1.4v0
						c0-0.8-0.5-1.3-3-1.9c-3-0.8-5-1.6-5-4.6v0c0-2.7,2.2-4.5,5.2-4.5c2.2,0,4,0.7,5.6,1.9l-1.7,2.5c-1.3-0.9-2.6-1.5-3.9-1.5
						c-1.3,0-1.9,0.6-1.9,1.3v0c0,1,0.6,1.3,3.2,2c3,0.8,4.7,1.9,4.7,4.5v0C108.5,19.3,106.3,20.9,103,20.9z"/>
				</g>
				<g>
					<g>
						<rect x="38.3" y="0" fill="#5C2CAD" width="10.2" height="3"/>
					</g>
				</g>
			</g>
		</g>
	</g>
</g>
<g id="Layer_2" display="none">
</g>
</svg>
