<?xml version="1.0" encoding="utf-8"?>
<!-- Generator: Adobe Illustrator 22.0.1, SVG Export Plug-In . SVG Version: 6.00 Build 0)  -->
<svg version="1.1" id="Layer_1" xmlns="http://www.w3.org/2000/svg" xmlns:xlink="http://www.w3.org/1999/xlink" x="0px" y="0px"
	 viewBox="0 0 800.7 135.8" style="enable-background:new 0 0 800.7 135.8;" xml:space="preserve">
<g>
	<path style="fill:#414242;stroke:#FFFFFF;stroke-width:3;stroke-miterlimit:10;" d="M788.2,109.8H12.5c-6.1,0-11-4.9-11-11V38.6
		c0-6,4.9-11,11-11h775.7c6,0,11,4.9,11,11v60.2C799.2,104.9,794.2,109.8,788.2,109.8z"/>
	<g>
		<g>
			<g>
				
					<linearGradient id="SVGID_1_" gradientUnits="userSpaceOnUse" x1="307.7" y1="70.1" x2="438.5" y2="70.1" gradientTransform="matrix(1 0 0 -1 0 138)">
					<stop  offset="0" style="stop-color:#10A290"/>
					<stop  offset="1" style="stop-color:#49B1A6"/>
				</linearGradient>
				<path style="fill:url(#SVGID_1_);stroke:#FFFFFF;stroke-width:5;stroke-miterlimit:10;" d="M373.1,133.3
					c-36.1,0-65.4-29.3-65.4-65.4c0-36,29.3-65.4,65.4-65.4c36,0,65.4,29.3,65.4,65.4C438.5,103.9,409.2,133.3,373.1,133.3z"/>
				<polygon style="fill:#FFFFFF;" points="363.3,97.8 334.2,68.4 345.5,57.4 363.2,75.3 401,37.3 412.3,48.7 				"/>
			</g>
		</g>
		<g>
			<path style="fill:#FFFFFF;" d="M60.2,44.6v30.6c0,5.3-1.8,9.4-5.3,12.4C51.4,90.5,46.7,92,41,92c-5.8,0-10.5-1.5-14-4.4
				s-5.3-7-5.3-12.4V44.6h10.9v30.6c0,2.9,0.7,5,2.2,6.4s3.6,2.1,6.2,2.1c2.7,0,4.7-0.7,6.2-2.1s2.2-3.5,2.2-6.4V44.6H60.2z"/>
			<path style="fill:#FFFFFF;" d="M92.1,78.8c0-1.6-0.5-2.9-1.6-3.8s-3-1.8-5.9-2.9c-5.9-1.9-10.3-3.9-13.1-6
				c-2.8-2.1-4.3-5.2-4.3-9.2c0-3.9,1.7-7.1,5.1-9.5s7.7-3.6,12.9-3.6c5.2,0,9.4,1.3,12.7,4c3.3,2.7,4.9,6.1,4.8,10.3l-0.1,0.2H92.1
				c0-1.9-0.6-3.4-1.9-4.5c-1.3-1.2-3-1.7-5.2-1.7s-3.9,0.5-5.1,1.4c-1.2,1-1.9,2.1-1.9,3.6c0,1.4,0.6,2.5,1.9,3.3
				c1.2,0.8,3.6,1.9,7,3.1c5.3,1.6,9.3,3.5,12,5.8c2.7,2.3,4,5.5,4,9.5c0,4.1-1.6,7.3-4.8,9.6c-3.2,2.3-7.4,3.5-12.7,3.5
				c-5.3,0-9.9-1.3-13.7-4c-3.9-2.7-5.7-6.5-5.6-11.5l0.1-0.2h10.5c0,2.7,0.7,4.6,2.2,5.8s3.7,1.7,6.6,1.7c2.2,0,3.9-0.4,5-1.3
				C91.5,81.5,92.1,80.3,92.1,78.8z"/>
			<path style="fill:#FFFFFF;" d="M147,44.6v30.6c0,5.3-1.8,9.4-5.3,12.4c-3.5,2.9-8.2,4.4-13.9,4.4c-5.8,0-10.5-1.5-14-4.4
				s-5.3-7-5.3-12.4V44.6h10.9v30.6c0,2.9,0.7,5,2.2,6.4s3.6,2.1,6.2,2.1c2.7,0,4.7-0.7,6.2-2.1s2.2-3.5,2.2-6.4V44.6H147z"/>
			<path style="fill:#FFFFFF;" d="M178.3,82.1h-14.7l-2.6,9.1h-11l15.1-46.7h11.6l15.1,46.7h-10.9L178.3,82.1z M165.9,73.8h9.9
				L171,57.1h-0.2L165.9,73.8z"/>
			<path style="fill:#FFFFFF;" d="M206,73.3v17.9h-10.9V44.6H213c5.4,0,9.7,1.2,12.8,3.7c3.2,2.5,4.7,5.9,4.7,10.3
				c0,2.4-0.6,4.5-1.9,6.2c-1.3,1.7-3.1,3.1-5.6,4.2c2.9,0.8,4.9,2.2,6.2,4.1c1.2,1.9,1.9,4.2,1.9,7.1v2.9c0,1.2,0.2,2.6,0.5,4.2
				c0.4,1.6,1,2.7,1.9,3.3v0.6h-11.2c-0.9-0.7-1.4-1.8-1.7-3.5s-0.4-3.2-0.4-4.7v-2.8c0-2.2-0.6-3.9-1.8-5.1s-2.9-1.8-5.2-1.8
				L206,73.3L206,73.3z M206,65h7.1c2.2,0,3.8-0.5,5-1.5s1.7-2.4,1.7-4.3c0-1.9-0.6-3.4-1.8-4.6c-1.2-1.2-2.9-1.7-5-1.7h-7V65z"/>
			<path style="fill:#FFFFFF;" d="M250,91.2h-10.8V44.6H250V91.2z"/>
			<path style="fill:#FFFFFF;" d="M296.6,72.1c0,5.7-1.8,10.5-5.5,14.2c-3.6,3.7-8.4,5.6-14.3,5.6s-10.7-1.9-14.4-5.6
				c-3.7-3.7-5.5-8.5-5.5-14.2v-8.4c0-5.7,1.8-10.5,5.5-14.2s8.4-5.6,14.3-5.6s10.6,1.9,14.3,5.6c3.7,3.7,5.5,8.5,5.5,14.2v8.4
				H296.6z M285.8,63.6c0-3.3-0.8-6.1-2.4-8.2c-1.6-2.1-3.8-3.2-6.6-3.2c-2.9,0-5.2,1.1-6.7,3.2c-1.5,2.1-2.3,4.9-2.3,8.2v8.5
				c0,3.4,0.8,6.1,2.4,8.3c1.6,2.1,3.8,3.2,6.7,3.2c2.8,0,5-1.1,6.6-3.2s2.3-4.9,2.3-8.3V63.6z"/>
		</g>
		<g>
			<g>
				<path style="fill:#FFFFFF;" d="M478.9,71.3h-18.3v11.6h21.6v8.3h-32.4V44.6h32.5v8.3h-21.6v10H479v8.4H478.9z"/>
				<path style="fill:#FFFFFF;" d="M507.1,44.6h10.8v32c0,4.7-1.5,8.4-4.6,11.2c-3.1,2.8-6.9,4.1-11.6,4.1c-5.1,0-9.1-1.2-12-3.7
					c-2.9-2.4-4.4-6-4.2-10.8l0.1-0.2h10.6c0,2.3,0.5,3.9,1.6,4.9c1,1,2.4,1.5,4,1.5c1.5,0,2.7-0.6,3.8-1.8c1.1-1.2,1.6-2.9,1.6-5.2
					v-32H507.1z"/>
				<path style="fill:#FFFFFF;" d="M554.3,71.3H536v11.6h21.6v8.3h-32.4V44.6h32.5v8.3h-21.6v10h18.3L554.3,71.3L554.3,71.3z"/>
				<path style="fill:#FFFFFF;" d="M576.7,44.6l10.4,32.7h0.2L598,44.6h14.3v46.7h-10.9V79.6l1-21.3h-0.2L591,91.2h-7.3l-11.1-32.6
					h-0.2l1,21v11.6h-10.9V44.6H576.7z"/>
				<path style="fill:#FFFFFF;" d="M630.4,75.2v16h-10.9V44.6h18.9c5.5,0,9.9,1.4,13.2,4.2c3.2,2.8,4.9,6.5,4.9,11.1
					s-1.6,8.3-4.9,11.1c-3.2,2.8-7.6,4.2-13.2,4.2H630.4z M630.4,66.9h8.1c2.3,0,4.1-0.6,5.4-1.9c1.2-1.3,1.8-3,1.8-5
					c0-2.1-0.6-3.8-1.8-5.1s-3-2-5.4-2h-8.1V66.9z"/>
				<path style="fill:#FFFFFF;" d="M673.5,82.9h20.1v8.3h-31V44.6h10.9V82.9z"/>
				<path style="fill:#FFFFFF;" d="M723.6,82.1h-14.7l-2.6,9.1h-10.9l15.1-46.7H722l15.1,46.7h-10.9L723.6,82.1z M711.3,73.8h9.9
					l-4.9-16.7h-0.2L711.3,73.8z"/>
				<path style="fill:#FFFFFF;" d="M751.3,73.3v17.9h-10.9V44.6h17.9c5.4,0,9.7,1.2,12.8,3.7c3.2,2.5,4.7,5.9,4.7,10.3
					c0,2.4-0.6,4.5-1.9,6.2c-1.3,1.7-3.1,3.1-5.6,4.2c2.9,0.8,4.9,2.2,6.2,4.1c1.2,1.9,1.9,4.2,1.9,7.1v2.9c0,1.2,0.2,2.6,0.5,4.2
					c0.4,1.6,1,2.7,1.9,3.3v0.6h-11.2c-0.9-0.7-1.4-1.8-1.7-3.5s-0.4-3.2-0.4-4.7v-2.8c0-2.2-0.6-3.9-1.8-5.1s-2.9-1.8-5.2-1.8
					L751.3,73.3L751.3,73.3z M751.3,65h7.1c2.2,0,3.8-0.5,5-1.5s1.7-2.4,1.7-4.3c0-1.9-0.6-3.4-1.8-4.6c-1.2-1.2-2.9-1.7-5-1.7h-7.1
					L751.3,65L751.3,65z"/>
			</g>
		</g>
	</g>
</g>
</svg>
