<svg enable-background="new 0 0 800.7 135.8" viewBox="0 0 800.7 135.8" xmlns="http://www.w3.org/2000/svg" xmlns:xlink="http://www.w3.org/1999/xlink"><linearGradient id="a" gradientTransform="matrix(1 0 0 -1 0 138)" gradientUnits="userSpaceOnUse" x1="307.7" x2="438.5" y1="70.1" y2="70.1"><stop offset="0" stop-color="#10a290"/><stop offset="1" stop-color="#49b1a6"/></linearGradient><path d="m788.2 109.8h-775.7c-6.1 0-11-4.9-11-11v-60.2c0-6 4.9-11 11-11h775.7c6 0 11 4.9 11 11v60.2c0 6.1-5 11-11 11z" fill="#414242" stroke="#fff" stroke-miterlimit="10" stroke-width="3"/><path d="m373.1 133.3c-36.1 0-65.4-29.3-65.4-65.4 0-36 29.3-65.4 65.4-65.4 36 0 65.4 29.3 65.4 65.4 0 36-29.3 65.4-65.4 65.4z" fill="url(#a)" stroke="#fff" stroke-miterlimit="10" stroke-width="5"/><g fill="#fff"><path d="m363.3 97.8-29.1-29.4 11.3-11 17.7 17.9 37.8-38 11.3 11.4z"/><path d="m60.2 44.6v30.6c0 5.3-1.8 9.4-5.3 12.4-3.5 2.9-8.2 4.4-13.9 4.4-5.8 0-10.5-1.5-14-4.4s-5.3-7-5.3-12.4v-30.6h10.9v30.6c0 2.9.7 5 2.2 6.4s3.6 2.1 6.2 2.1c2.7 0 4.7-.7 6.2-2.1s2.2-3.5 2.2-6.4v-30.6z"/><path d="m92.1 78.8c0-1.6-.5-2.9-1.6-3.8s-3-1.8-5.9-2.9c-5.9-1.9-10.3-3.9-13.1-6s-4.3-5.2-4.3-9.2c0-3.9 1.7-7.1 5.1-9.5s7.7-3.6 12.9-3.6 9.4 1.3 12.7 4 4.9 6.1 4.8 10.3l-.1.2h-10.5c0-1.9-.6-3.4-1.9-4.5-1.3-1.2-3-1.7-5.2-1.7s-3.9.5-5.1 1.4c-1.2 1-1.9 2.1-1.9 3.6 0 1.4.6 2.5 1.9 3.3 1.2.8 3.6 1.9 7 3.1 5.3 1.6 9.3 3.5 12 5.8s4 5.5 4 9.5c0 4.1-1.6 7.3-4.8 9.6s-7.4 3.5-12.7 3.5-9.9-1.3-13.7-4c-3.9-2.7-5.7-6.5-5.6-11.5l.1-.2h10.5c0 2.7.7 4.6 2.2 5.8s3.7 1.7 6.6 1.7c2.2 0 3.9-.4 5-1.3 1-.9 1.6-2.1 1.6-3.6z"/><path d="m147 44.6v30.6c0 5.3-1.8 9.4-5.3 12.4-3.5 2.9-8.2 4.4-13.9 4.4-5.8 0-10.5-1.5-14-4.4s-5.3-7-5.3-12.4v-30.6h10.9v30.6c0 2.9.7 5 2.2 6.4s3.6 2.1 6.2 2.1c2.7 0 4.7-.7 6.2-2.1s2.2-3.5 2.2-6.4v-30.6z"/><path d="m178.3 82.1h-14.7l-2.6 9.1h-11l15.1-46.7h11.6l15.1 46.7h-10.9zm-12.4-8.3h9.9l-4.8-16.7h-.2z"/><path d="m206 73.3v17.9h-10.9v-46.6h17.9c5.4 0 9.7 1.2 12.8 3.7 3.2 2.5 4.7 5.9 4.7 10.3 0 2.4-.6 4.5-1.9 6.2s-3.1 3.1-5.6 4.2c2.9.8 4.9 2.2 6.2 4.1 1.2 1.9 1.9 4.2 1.9 7.1v2.9c0 1.2.2 2.6.5 4.2.4 1.6 1 2.7 1.9 3.3v.6h-11.2c-.9-.7-1.4-1.8-1.7-3.5s-.4-3.2-.4-4.7v-2.8c0-2.2-.6-3.9-1.8-5.1s-2.9-1.8-5.2-1.8zm0-8.3h7.1c2.2 0 3.8-.5 5-1.5s1.7-2.4 1.7-4.3-.6-3.4-1.8-4.6-2.9-1.7-5-1.7h-7z"/><path d="m250 91.2h-10.8v-46.6h10.8z"/><path d="m296.6 72.1c0 5.7-1.8 10.5-5.5 14.2-3.6 3.7-8.4 5.6-14.3 5.6s-10.7-1.9-14.4-5.6-5.5-8.5-5.5-14.2v-8.4c0-5.7 1.8-10.5 5.5-14.2s8.4-5.6 14.3-5.6 10.6 1.9 14.3 5.6 5.5 8.5 5.5 14.2v8.4zm-10.8-8.5c0-3.3-.8-6.1-2.4-8.2s-3.8-3.2-6.6-3.2c-2.9 0-5.2 1.1-6.7 3.2s-2.3 4.9-2.3 8.2v8.5c0 3.4.8 6.1 2.4 8.3 1.6 2.1 3.8 3.2 6.7 3.2 2.8 0 5-1.1 6.6-3.2s2.3-4.9 2.3-8.3z"/><path d="m478.9 71.3h-18.3v11.6h21.6v8.3h-32.4v-46.6h32.5v8.3h-21.6v10h18.3v8.4z"/><path d="m507.1 44.6h10.8v32c0 4.7-1.5 8.4-4.6 11.2s-6.9 4.1-11.6 4.1c-5.1 0-9.1-1.2-12-3.7-2.9-2.4-4.4-6-4.2-10.8l.1-.2h10.6c0 2.3.5 3.9 1.6 4.9 1 1 2.4 1.5 4 1.5 1.5 0 2.7-.6 3.8-1.8s1.6-2.9 1.6-5.2v-32z"/><path d="m554.3 71.3h-18.3v11.6h21.6v8.3h-32.4v-46.6h32.5v8.3h-21.6v10h18.3z"/><path d="m576.7 44.6 10.4 32.7h.2l10.7-32.7h14.3v46.7h-10.9v-11.7l1-21.3h-.2l-11.2 32.9h-7.3l-11.1-32.6h-.2l1 21v11.6h-10.9v-46.6z"/><path d="m630.4 75.2v16h-10.9v-46.6h18.9c5.5 0 9.9 1.4 13.2 4.2 3.2 2.8 4.9 6.5 4.9 11.1s-1.6 8.3-4.9 11.1c-3.2 2.8-7.6 4.2-13.2 4.2zm0-8.3h8.1c2.3 0 4.1-.6 5.4-1.9 1.2-1.3 1.8-3 1.8-5 0-2.1-.6-3.8-1.8-5.1s-3-2-5.4-2h-8.1z"/><path d="m673.5 82.9h20.1v8.3h-31v-46.6h10.9z"/><path d="m723.6 82.1h-14.7l-2.6 9.1h-10.9l15.1-46.7h11.5l15.1 46.7h-10.9zm-12.3-8.3h9.9l-4.9-16.7h-.2z"/><path d="m751.3 73.3v17.9h-10.9v-46.6h17.9c5.4 0 9.7 1.2 12.8 3.7 3.2 2.5 4.7 5.9 4.7 10.3 0 2.4-.6 4.5-1.9 6.2s-3.1 3.1-5.6 4.2c2.9.8 4.9 2.2 6.2 4.1 1.2 1.9 1.9 4.2 1.9 7.1v2.9c0 1.2.2 2.6.5 4.2.4 1.6 1 2.7 1.9 3.3v.6h-11.2c-.9-.7-1.4-1.8-1.7-3.5s-.4-3.2-.4-4.7v-2.8c0-2.2-.6-3.9-1.8-5.1s-2.9-1.8-5.2-1.8zm0-8.3h7.1c2.2 0 3.8-.5 5-1.5s1.7-2.4 1.7-4.3-.6-3.4-1.8-4.6-2.9-1.7-5-1.7h-7.1z"/></g></svg>