<?xml version="1.0" encoding="utf-8"?>
<!-- Generator: Adobe Illustrator 22.0.1, SVG Export Plug-In . SVG Version: 6.00 Build 0)  -->
<svg version="1.1" id="Capa_1" xmlns="http://www.w3.org/2000/svg" xmlns:xlink="http://www.w3.org/1999/xlink" x="0px" y="0px"
	 viewBox="0 0 754.8 135.8" style="enable-background:new 0 0 754.8 135.8;" xml:space="preserve">
<style type="text/css">
	.st0{fill:url(#SVGID_1_);stroke:#FFFFFF;stroke-width:5;stroke-miterlimit:10;}
	.st1{fill:#FFFFFF;}
	.st2{fill:#414242;}
</style>
<g>
	<g>
		<g>
			<linearGradient id="SVGID_1_" gradientUnits="userSpaceOnUse" x1="283.6398" y1="67.8774" x2="414.3932" y2="67.8774">
				<stop  offset="0" style="stop-color:#10A290"/>
				<stop  offset="1" style="stop-color:#49B1A6"/>
			</linearGradient>
			<path class="st0" d="M349,133.3c-36.1,0-65.4-29.3-65.4-65.4c0-36,29.3-65.4,65.4-65.4c36,0,65.4,29.3,65.4,65.4
				C414.4,103.9,385.1,133.3,349,133.3z"/>
			<polygon class="st1" points="339.2,97.8 310.1,68.4 321.3,57.4 339.1,75.3 376.9,37.3 388.2,48.7 			"/>
		</g>
	</g>
	<g>
		<path class="st2" d="M38.5,44.6v30.6c0,5.3-1.8,9.4-5.3,12.4c-3.5,2.9-8.2,4.4-13.9,4.4c-5.8,0-10.5-1.5-14-4.4S0,80.4,0,75.1
			V44.6h10.9v30.6c0,2.9,0.7,5,2.2,6.4c1.5,1.4,3.6,2.1,6.2,2.1c2.7,0,4.7-0.7,6.2-2.1s2.2-3.5,2.2-6.4V44.6H38.5z"/>
		<path class="st2" d="M70.4,78.8c0-1.6-0.5-2.9-1.6-3.8s-3-1.8-5.9-2.9c-5.9-1.9-10.3-3.9-13.1-6C47,64.1,45.5,61,45.5,57
			c0-3.9,1.7-7.1,5.1-9.5c3.4-2.4,7.7-3.6,12.9-3.6c5.2,0,9.4,1.3,12.7,4c3.3,2.7,4.9,6.1,4.8,10.3l-0.1,0.2H70.4
			c0-1.9-0.6-3.4-1.9-4.5c-1.3-1.2-3-1.7-5.2-1.7c-2.2,0-3.9,0.5-5.1,1.4c-1.2,1-1.9,2.1-1.9,3.6c0,1.4,0.6,2.5,1.9,3.3
			c1.2,0.8,3.6,1.9,7,3.1c5.3,1.6,9.3,3.5,12,5.8c2.7,2.3,4,5.5,4,9.5c0,4.1-1.6,7.3-4.8,9.6c-3.2,2.3-7.4,3.5-12.7,3.5
			c-5.3,0-9.9-1.3-13.7-4c-3.9-2.7-5.7-6.5-5.6-11.5l0.1-0.2H55c0,2.7,0.7,4.6,2.2,5.8s3.7,1.7,6.6,1.7c2.2,0,3.9-0.4,5-1.3
			C69.8,81.5,70.4,80.3,70.4,78.8z"/>
		<path class="st2" d="M125.4,44.6v30.6c0,5.3-1.8,9.4-5.3,12.4c-3.5,2.9-8.2,4.4-13.9,4.4c-5.8,0-10.5-1.5-14-4.4s-5.3-7-5.3-12.4
			V44.6h10.9v30.6c0,2.9,0.7,5,2.2,6.4c1.5,1.4,3.6,2.1,6.2,2.1c2.7,0,4.7-0.7,6.2-2.1s2.2-3.5,2.2-6.4V44.6H125.4z"/>
		<path class="st2" d="M156.6,82.1h-14.7l-2.6,9.1h-10.9l15.1-46.7H155l15.1,46.7h-10.9L156.6,82.1z M144.3,73.8h9.9l-4.9-16.7h-0.2
			L144.3,73.8z"/>
		<path class="st2" d="M184.3,73.3v17.9h-10.9V44.6h17.9c5.4,0,9.7,1.2,12.8,3.7c3.2,2.5,4.7,5.9,4.7,10.3c0,2.4-0.6,4.5-1.9,6.2
			c-1.3,1.7-3.1,3.1-5.6,4.2c2.9,0.8,4.9,2.2,6.2,4.1c1.2,1.9,1.9,4.2,1.9,7.1v2.9c0,1.2,0.2,2.6,0.5,4.2c0.4,1.6,1,2.7,1.9,3.3v0.6
			h-11.2c-0.9-0.7-1.4-1.8-1.7-3.5c-0.3-1.7-0.4-3.2-0.4-4.7v-2.8c0-2.2-0.6-3.9-1.8-5.1c-1.2-1.2-2.9-1.8-5.2-1.8H184.3z M184.3,65
			h7.1c2.2,0,3.8-0.5,5-1.5c1.2-1,1.7-2.4,1.7-4.3c0-1.9-0.6-3.4-1.8-4.6c-1.2-1.2-2.9-1.7-5-1.7h-7.1V65z"/>
		<path class="st2" d="M228.3,91.2h-10.8V44.6h10.8V91.2z"/>
		<path class="st2" d="M274.9,72.1c0,5.7-1.8,10.5-5.5,14.2c-3.6,3.7-8.4,5.6-14.3,5.6c-5.9,0-10.7-1.9-14.4-5.6
			c-3.7-3.7-5.5-8.5-5.5-14.2v-8.4c0-5.7,1.8-10.5,5.5-14.2c3.7-3.7,8.4-5.6,14.3-5.6c5.9,0,10.6,1.9,14.3,5.6
			c3.7,3.7,5.5,8.5,5.5,14.2V72.1z M264.1,63.6c0-3.3-0.8-6.1-2.4-8.2c-1.6-2.1-3.8-3.2-6.6-3.2c-2.9,0-5.2,1.1-6.7,3.2
			c-1.5,2.1-2.3,4.9-2.3,8.2v8.5c0,3.4,0.8,6.1,2.4,8.3c1.6,2.1,3.8,3.2,6.7,3.2c2.8,0,5-1.1,6.6-3.2c1.6-2.1,2.3-4.9,2.3-8.3V63.6z
			"/>
	</g>
	<g>
		<path class="st2" d="M454.8,71.3h-18.3v11.6h21.6v8.3h-32.4V44.6h32.5v8.3h-21.6v10h18.3V71.3z"/>
		<path class="st2" d="M483,44.6h10.8v32c0,4.7-1.5,8.4-4.6,11.2c-3.1,2.8-6.9,4.1-11.6,4.1c-5.1,0-9.1-1.2-12-3.7
			c-2.9-2.4-4.4-6-4.2-10.8l0.1-0.2h10.6c0,2.3,0.5,3.9,1.6,4.9c1,1,2.4,1.5,4,1.5c1.5,0,2.7-0.6,3.8-1.8c1.1-1.2,1.6-2.9,1.6-5.2
			V44.6z"/>
		<path class="st2" d="M530.2,71.3h-18.3v11.6h21.6v8.3h-32.4V44.6h32.5v8.3h-21.6v10h18.3V71.3z"/>
		<path class="st2" d="M552.6,44.6l10.4,32.7h0.2l10.6-32.7h14.3v46.7h-10.9V79.6l1-21.3l-0.2,0l-11.2,32.9h-7.3l-11.1-32.6l-0.2,0
			l1,21v11.6h-10.9V44.6H552.6z"/>
		<path class="st2" d="M606.3,75.2v16h-10.9V44.6h18.9c5.5,0,9.9,1.4,13.2,4.2c3.2,2.8,4.9,6.5,4.9,11.1c0,4.6-1.6,8.3-4.9,11.1
			c-3.2,2.8-7.6,4.2-13.2,4.2H606.3z M606.3,66.9h8.1c2.3,0,4.1-0.6,5.4-1.9c1.2-1.3,1.8-3,1.8-5c0-2.1-0.6-3.8-1.8-5.1
			c-1.2-1.3-3-2-5.4-2h-8.1V66.9z"/>
		<path class="st2" d="M649.4,82.9h20.1v8.3h-31V44.6h10.9V82.9z"/>
		<path class="st2" d="M699.5,82.1h-14.7l-2.6,9.1h-10.9l15.1-46.7h11.6L713,91.2h-10.9L699.5,82.1z M687.1,73.8h9.9l-4.9-16.7H692
			L687.1,73.8z"/>
		<path class="st2" d="M727.2,73.3v17.9h-10.9V44.6h17.9c5.4,0,9.7,1.2,12.8,3.7c3.2,2.5,4.7,5.9,4.7,10.3c0,2.4-0.6,4.5-1.9,6.2
			c-1.3,1.7-3.1,3.1-5.6,4.2c2.9,0.8,4.9,2.2,6.2,4.1c1.2,1.9,1.9,4.2,1.9,7.1v2.9c0,1.2,0.2,2.6,0.5,4.2c0.4,1.6,1,2.7,1.9,3.3v0.6
			h-11.2c-0.9-0.7-1.4-1.8-1.7-3.5c-0.3-1.7-0.4-3.2-0.4-4.7v-2.8c0-2.2-0.6-3.9-1.8-5.1c-1.2-1.2-2.9-1.8-5.2-1.8H727.2z M727.2,65
			h7.1c2.2,0,3.8-0.5,5-1.5c1.2-1,1.7-2.4,1.7-4.3c0-1.9-0.6-3.4-1.8-4.6c-1.2-1.2-2.9-1.7-5-1.7h-7.1V65z"/>
	</g>
</g>
</svg>
